{
  "accessors": [
    {
      "bufferView": 2,
      "componentType": 5126,
      "count": 23931,
      "max": [
        14.759902000427246,
        77.83008575439453,
        26.14794158935547
      ],
      "min": [
        -12.875223159790039,
        0.08441978693008423,
        -26.14794158935547
      ],
      "type": "VEC3"
    },
    {
      "bufferView": 2,
      "byteOffset": 287172,
      "componentType": 5126,
      "count": 23931,
      "max": [
        1.0,
        1.0,
        1.0
      ],
      "min": [
        -1.0,
        -1.0,
        -1.0
      ],
      "type": "VEC3"
    },
    {
      "bufferView": 3,
      "componentType": 5126,
      "count": 23931,
      "max": [
        1.0,
        1.0,
        1.0,
        1.0
      ],
      "min": [
        -1.0,
        -1.0,
        -1.0,
        -1.0
      ],
      "type": "VEC4"
    },
    {
      "bufferView": 1,
      "componentType": 5126,
      "count": 23931,
      "max": [
        0.9997957348823547,
        0.9907974004745483
      ],
      "min": [
        0.0016518458724021912,
        0.0030157812871038914
      ],
      "type": "VEC2"
    },
    {
      "bufferView": 0,
      "componentType": 5125,
      "count": 117843,
      "type": "SCALAR"
    }
  ],
  "asset": {
    "extras": {
      "author": "assetfactory (https://sketchfab.com/assetfactory)",
      "license": "CC-BY-4.0 (http://creativecommons.org/licenses/by/4.0/)",
      "source": "https://sketchfab.com/3d-models/travel-bag-b973fba9cde94edb85cd1a3efbd2cb89",
      "title": "Travel bag"
    },
    "generator": "Sketchfab-14.71.0",
    "version": "2.0"
  },
  "bufferViews": [
    {
      "buffer": 0,
      "byteLength": 471372,
      "name": "floatBufferViews",
      "target": 34963
    },
    {
      "buffer": 0,
      "byteLength": 191448,
      "byteOffset": 471372,
      "byteStride": 8,
      "name": "floatBufferViews",
      "target": 34962
    },
    {
      "buffer": 0,
      "byteLength": 574344,
      "byteOffset": 662820,
      "byteStride": 12,
      "name": "floatBufferViews",
      "target": 34962
    },
    {
      "buffer": 0,
      "byteLength": 382896,
      "byteOffset": 1237164,
      "byteStride": 16,
      "name": "floatBufferViews",
      "target": 34962
    }
  ],
  "buffers": [
    {
      "byteLength": 1620060,
      "uri": "scene.bin"
    }
  ],
  "images": [
    {
      "uri": "textures/MI_Luggage_Mat_baseColor.jpeg"
    },
    {
      "uri": "textures/MI_Luggage_Mat_metallicRoughness.png"
    },
    {
      "uri": "textures/MI_Luggage_Mat_normal.png"
    }
  ],
  "materials": [
    {
      "doubleSided": true,
      "name": "MI_Luggage_Mat",
      "normalTexture": {
        "index": 2
      },
      "occlusionTexture": {
        "index": 1
      },
      "pbrMetallicRoughness": {
        "baseColorTexture": {
          "index": 0
        },
        "metallicFactor": 0.9493362265484999,
        "metallicRoughnessTexture": {
          "index": 1
        },
        "roughnessFactor": 0.5409540295741854
      }
    }
  ],
  "meshes": [
    {
      "name": "SM_Luggage_MI_Luggage_Mat_0",
      "primitives": [
        {
          "attributes": {
            "NORMAL": 1,
            "POSITION": 0,
            "TANGENT": 2,
            "TEXCOORD_0": 3
          },
          "indices": 4,
          "material": 0,
          "mode": 4
        }
      ]
    }
  ],
  "nodes": [
    {
      "children": [
        1
      ],
      "matrix": [
        1.0,
        -3.5707495248565405e-32,
        1.6081226229577292e-16,
        0.0,
        1.6081226229577292e-16,
        2.220446049250313e-16,
        -1.0,
        0.0,
        0.0,
        1.0,
        2.220446049250313e-16,
        0.0,
        0.0,
        0.0,
        0.0,
        1.0
      ],
      "name": "Sketchfab_model"
    },
    {
      "children": [
        2
      ],
      "matrix": [
        0.009999999776482582,
        0.0,
        0.0,
        0.0,
        0.0,
        0.0,
        0.009999999776482582,
        0.0,
        0.0,
        -0.009999999776482582,
        0.0,
        0.0,
        0.0,
        0.0,
        0.0,
        1.0
      ],
      "name": "SM_Luggage_v4.fbx"
    },
    {
      "children": [
        3
      ],
      "name": "RootNode"
    },
    {
      "children": [
        4
      ],
      "name": "SM_Luggage"
    },
    {
      "children": [
        5
      ],
      "name": "SM_Luggage"
    },
    {
      "mesh": 0,
      "name": "SM_Luggage_MI_Luggage_Mat_0"
    }
  ],
  "samplers": [
    {
      "magFilter": 9729,
      "minFilter": 9987,
      "wrapS": 10497,
      "wrapT": 10497
    }
  ],
  "scene": 0,
  "scenes": [
    {
      "name": "Sketchfab_Scene",
      "nodes": [
        0
      ]
    }
  ],
  "textures": [
    {
      "sampler": 0,
      "source": 0
    },
    {
      "sampler": 0,
      "source": 1
    },
    {
      "sampler": 0,
      "source": 2
    }
  ]
}
