<?xml version="1.0" encoding="utf-8"?>
<!-- Generator: Adobe Illustrator 25.4.0, SVG Export Plug-In . SVG Version: 6.00 Build 0)  -->
<svg version="1.1" id="레이어_1" xmlns="http://www.w3.org/2000/svg" xmlns:xlink="http://www.w3.org/1999/xlink" x="0px"
	 y="0px" viewBox="0 0 490.19 81.52" style="enable-background:new 0 0 490.19 81.52;" xml:space="preserve">
<style type="text/css">
	.st0{fill:#1E3E79;}
	.st1{fill:#00ADEF;}
</style>
<g>
</g>
<g>
	<path class="st0" d="M197.61,0.32c4.14-1.34,8.95,1.66,9.51,5.98c0.82,4.12-2.45,8.43-6.64,8.73c-3.9,0.51-7.81-2.53-8.23-6.44
		C191.68,5,194.09,1.26,197.61,0.32L197.61,0.32z"/>
	<path class="st0" d="M148.26,2.03c2.42,0.01,4.85-0.03,7.28,0c1.57,0.03,3.29,0.37,4.4,1.57c1.24,1.32,1.4,3.23,1.41,4.96
		c-0.02,8.57,0,17.14-0.01,25.71c1.73-0.11,4.08,0.35,5.14-1.43c2.97-4.54,5.89-9.11,8.86-13.66c4.9,0.01,9.81,0,14.72,0
		c-3.91,5.86-7.86,11.68-11.79,17.52c-0.73,1.11-1.58,2.13-2.48,3.1c1.79,1.77,2.75,4.12,3.94,6.29c3.1,6.23,6.93,12.04,10.46,18.03
		c-3.9-0.05-7.8,0.09-11.69-0.06c-2.29-0.04-4.44-1.31-5.53-3.33c-2.63-4.65-5-9.45-7.57-14.14c-0.79-1.43-2.69-0.97-4.03-1.15
		c-0.01,6.23,0.01,12.46-0.01,18.68c-4.36,0-8.71-0.01-13.07,0C148.25,43.43,148.27,22.73,148.26,2.03L148.26,2.03z"/>
	<path class="st0" d="M226.61,24.22c2.89-3.33,7.04-5.5,11.44-5.92c4.66-0.44,9.82,0.23,13.44,3.45c3.29,2.87,4.61,7.32,4.87,11.54
		c0.16,10.27-0.15,20.55,0.16,30.82c-2.55-0.04-5.11,0.13-7.65-0.09c-1.8-0.13-3.62-0.97-4.54-2.58c-1.09-1.95-0.88-4.27-0.9-6.43
		c0-6.11,0.03-12.23-0.01-18.35c-0.05-2.32-0.64-5.26-3.16-6.08c-3.39-0.91-7.22,0.15-9.72,2.61c-2.48,2.43-3.55,6.01-3.64,9.41
		c0,7.17,0,14.34,0,21.52c-4.32,0-8.64,0.01-12.96,0c0-14.98,0-29.96,0-44.93c3.14,0.18,6.42-0.49,9.43,0.65
		C225.23,20.53,226.14,22.41,226.61,24.22L226.61,24.22z"/>
	<path class="st1" d="M333.21,25.28c6.33-6.33,16.18-8.3,24.7-6.07c3.29,0.92,6.75,2.46,8.6,5.5c1.84,3.02,0.86,6.71,1.11,10.04
		c-2.57-0.05-5.14,0.11-7.69-0.07c-1.8-0.2-3.02-1.76-3.56-3.36c-0.39-1.22-1.75-1.64-2.85-1.97c-4.57-1.08-9.77,0.88-12.28,4.9
		c-2.43,3.87-2.71,9.03-0.83,13.18c1.85,4.09,6.31,6.47,10.69,6.59c5.26,0.28,10.15-2.62,13.66-6.33c1.78,2.99,3.6,5.96,5.38,8.96
		c-8.85,10.27-26.27,11.46-36.26,2.21C324.53,50.4,324.28,34.12,333.21,25.28L333.21,25.28z"/>
	<path class="st1" d="M434.74,24.81c2.68-3.22,6.4-5.73,10.61-6.31c4.1-0.57,8.66,0.15,11.85,2.96c1.46,1.22,2.39,2.92,3.39,4.52
		c3-4.22,7.8-7.15,12.98-7.57c4.62-0.42,9.82,0.63,12.93,4.34c3.01,3.57,3.64,8.44,3.69,12.96c-0.01,9.48,0.02,18.95-0.02,28.43
		c-3.23-0.21-6.67,0.54-9.73-0.79c-2.36-1.13-2.77-4.02-2.73-6.36c0-6.91,0.02-13.83,0-20.74c-0.13-2.16-0.43-4.94-2.66-5.97
		c-2.88-1.17-6.25-0.03-8.36,2.11c-2.8,2.82-3.96,6.89-4.16,10.77c0.01,6.98-0.02,13.96,0.02,20.95c-4.16,0.05-8.32,0.01-12.48,0.02
		c0-8.82,0-17.63,0-26.45c-0.05-2.19-0.24-4.62-1.76-6.34c-1.49-1.74-4.12-1.82-6.16-1.17c-2.84,1.04-4.74,3.69-5.84,6.39
		c-1.33,3.16-1.56,6.65-1.56,10.04c0,5.84,0,11.69,0,17.53c-4.07,0-8.14,0-12.21,0c0-14.93,0-29.86,0-44.8
		c3.18,0.16,6.65-0.57,9.58,1.01C433.79,21.21,434.29,23.14,434.74,24.81L434.74,24.81z"/>
	<path class="st0" d="M193.68,19.19c3.17,0.16,6.46-0.45,9.53,0.56c2.3,0.8,3.42,3.3,3.42,5.6c0.03,12.92,0,25.84,0.01,38.76
		c-4.28,0-8.56,0-12.84,0C193.88,49.14,193.72,34.17,193.68,19.19L193.68,19.19z"/>
	<path class="st0" d="M64.89,18.77c7.4-1.4,15.59,0.22,21.28,5.34c9.31,8.23,9.93,24.1,1.63,33.24c-8.99,10.01-26.79,10-35.64-0.18
		c-8.55-9.6-7.32-26.5,3.2-34.21C58.14,20.83,61.45,19.44,64.89,18.77L64.89,18.77z M66.93,29.7c-2.74,0.8-5.03,2.82-6.28,5.37
		c-2.76,5.73-1.7,13.96,4.12,17.39c4.55,2.66,11.09,1.36,13.98-3.15c3.13-4.93,2.94-11.96-0.8-16.52
		C75.31,29.68,70.79,28.57,66.93,29.7L66.93,29.7z"/>
	<path class="st0" d="M114.84,18.82c6.5-1.26,13.62-0.33,19.17,3.44c4.69,3.06,7.99,8.06,9.2,13.5c1.64,7.3,0.16,15.52-4.85,21.23
		c-8.79,10.24-26.61,10.48-35.68,0.49c-8.13-8.82-7.9-24.07,0.63-32.54C106.41,21.79,110.53,19.74,114.84,18.82L114.84,18.82z
		 M117.29,29.67c-3.72,1-6.48,4.3-7.35,7.98c-1.32,5.21,0.01,11.68,4.84,14.67c3.9,2.37,9.34,1.94,12.69-1.2
		c2.83-2.6,3.85-6.65,3.66-10.38c-0.13-3.52-1.57-7.15-4.42-9.33C124.1,29.32,120.47,28.82,117.29,29.67L117.29,29.67z"/>
	<path class="st1" d="M389.77,18.7c7.39-1.3,15.52,0.41,21.12,5.59c9.14,8.3,9.66,24.07,1.36,33.13
		c-8.97,9.86-26.51,9.89-35.42-0.06c-8.11-8.97-7.73-24.44,1.12-32.79C381.17,21.48,385.38,19.47,389.77,18.7L389.77,18.7z
		 M391.78,29.61c-2.79,0.71-5.21,2.7-6.52,5.26c-2.59,5.15-2.07,12.19,2.24,16.27c3.93,3.77,10.87,3.53,14.61-0.41
		c2.43-2.53,3.41-6.15,3.29-9.59c-0.02-3.81-1.61-7.8-4.81-10.02C398.07,29.32,394.75,28.9,391.78,29.61L391.78,29.61z"/>
	<path class="st0" d="M272.76,19.64c6.61-2.64,14.93-2.14,20.41,2.73c0.77-1.51,2.08-2.77,3.8-3.08c2.58-0.44,5.21-0.14,7.82-0.23
		c0.01,13.78,0,27.55,0,41.32c0,5.03-1.52,10.22-5.01,13.95c-4.51,4.91-11.33,6.98-17.83,7.19c-6.06,0.1-12.17-1.35-17.48-4.29
		c1.02-2.5,1.82-5.12,3.11-7.51c0.65-1.24,2.12-1.89,3.49-1.64c2.15,0.39,4.19,1.3,6.37,1.57c3.83,0.57,8.17,0.49,11.4-1.92
		c2.45-1.87,3.2-5.12,3.03-8.06c-4.1,3.44-9.82,4.03-14.93,3.11c-5.12-0.94-9.76-4.14-12.49-8.57c-3.7-5.9-4.42-13.3-3.04-20.03
		C262.66,27.95,266.72,22.04,272.76,19.64L272.76,19.64z M279.21,30.13c-2.9,1.1-4.5,4.11-4.99,7.02c-0.69,3.88-0.2,8.24,2.22,11.46
		c3.12,4.23,10.41,4.45,13.56,0.15c2.14-3.03,2.25-6.96,1.99-10.52c-0.26-3-1.46-6.34-4.34-7.75
		C285.05,29.27,281.9,29.11,279.21,30.13L279.21,30.13z"/>
	<path class="st0" d="M0.01,8.57C-0.2,5.09,2.98,1.94,6.43,2.03c5.27,0,10.54,0,15.81,0c5.19,0.12,10.68,1.64,14.35,5.51
		c5.66,5.84,5.32,16.22-0.51,21.81c-0.69,0.64-1.41,1.23-2.12,1.84c3,1.51,5.78,3.68,7.28,6.76c2.71,5.53,2.38,12.59-1.07,17.74
		c-3.8,5.64-10.85,8.03-17.4,8.18c-7.58,0.02-15.16,0-22.75,0.01C0.01,45.44,0.02,27.01,0.01,8.57L0.01,8.57z M13.16,13.25
		c-1.05,0.92-1.14,2.4-1.17,3.7c-0.01,3.34,0.01,6.67,0,10.01c3.25-0.01,6.5,0.04,9.75-0.01c1.95-0.04,3.91-0.89,5.1-2.46
		c2.35-3.2,2.21-8.47-1.13-10.94c-2.29-1.67-5.26-1.2-7.92-1.28C16.23,12.31,14.38,12.06,13.16,13.25L13.16,13.25z M13.51,37.29
		c-1.28,0.81-1.49,2.43-1.53,3.82c-0.01,4.05,0,8.1,0,12.14c3.73-0.02,7.47,0.03,11.21-0.01c2.55-0.05,5.16-1.41,6.36-3.71
		c1.82-3.49,1.46-8.41-1.64-11.06c-2.54-2.13-6.05-1.87-9.15-1.89C17.02,36.66,15.07,36.29,13.51,37.29L13.51,37.29z"/>
	<path class="st1" d="M315.25,49.84c4.32-1.33,9.23,2.09,9.46,6.61c0.45,3.97-2.75,7.88-6.75,8.15c-3.95,0.5-7.86-2.64-8.2-6.6
		C309.24,54.39,311.71,50.7,315.25,49.84L315.25,49.84z"/>
</g>
</svg>
