<?xml version="1.0" encoding="utf-8"?>
<!-- Generator: Adobe Illustrator 25.4.0, SVG Export Plug-In . SVG Version: 6.00 Build 0)  -->
<svg version="1.1" id="Layer_1" xmlns="http://www.w3.org/2000/svg" xmlns:xlink="http://www.w3.org/1999/xlink" x="0px" y="0px"
	 viewBox="0 0 62 62" style="enable-background:new 0 0 62 62;" xml:space="preserve">
<style type="text/css">
	.st0{fill:#FFFFFF;}
	.st1{fill:#5EB1EA;}
	.st2{fill:#333333;}
</style>
<g>
	<rect y="60" class="st2" width="62" height="2"/>
	<path class="st2" d="M14,62H2v-6h12V62z M4,60h8v-2H4V60z"/>
	<path class="st2" d="M11,58H5V45h6V58z M7,56h2v-9H7V56z"/>
	<rect x="7" y="15" class="st2" width="2" height="31"/>
	<path class="st2" d="M8,16c-4.41,0-8-3.59-8-8s3.59-8,8-8s8,3.59,8,8S12.41,16,8,16z M8,2C4.69,2,2,4.69,2,8s2.69,6,6,6s6-2.69,6-6
		S11.31,2,8,2z"/>
	<path class="st2" d="M62,22H16v-6h46V22z M18,20h42v-2H18V20z"/>
	<rect x="19" y="21" class="st2" width="2" height="40"/>
	<rect x="57" y="21" class="st2" width="2" height="40"/>
	<path class="st2" d="M46,18H32c-2.21,0-4-1.79-4-4s1.79-4,4-4h14c2.21,0,4,1.79,4,4S48.21,18,46,18z M32,12c-1.1,0-2,0.9-2,2
		s0.9,2,2,2h14c1.1,0,2-0.9,2-2s-0.9-2-2-2H32z"/>
	<rect x="23" y="51" class="st2" width="32" height="2"/>
	<rect x="26" y="48" class="st2" width="2" height="13"/>
	<rect x="50" y="48" class="st2" width="2" height="13"/>
	<path class="st2" d="M54,49H24v-9h30V49z M26,47h26v-5H26V47z"/>
	<rect x="20" y="24" class="st2" width="38" height="2"/>
	<rect x="20" y="34" class="st2" width="38" height="2"/>
</g>
</svg>
