<svg width="59" height="61" viewBox="0 0 59 61" fill="none" xmlns="http://www.w3.org/2000/svg">
<g clip-path="url(#clip0_646_2)">
<path d="M53.4488 8.00473H5.37451V49.8826H53.4488V8.00473Z" fill="#FF5E33"/>
<path d="M53.4488 8.00474H5.37451C5.37451 3.58425 8.98437 0 13.4364 0H45.3869C49.8398 0 53.4488 3.58425 53.4488 8.00474Z" fill="#EAEAEA"/>
<path d="M29.4212 37.6531C20.8947 37.6531 12.7706 36.9278 5.37451 35.6172V49.8834H53.4488V35.6204C46.0585 36.9295 37.9402 37.6531 29.4212 37.6531Z" fill="#EAEAEA"/>
<path d="M49.5284 31.8716H9.29495C8.58772 31.8716 8.01465 31.3026 8.01465 30.6013V12.8338C8.01465 12.1316 8.58772 11.5634 9.29495 11.5634H49.5284C50.2357 11.5634 50.8079 12.1324 50.8079 12.8338V30.6013C50.8087 31.3026 50.2357 31.8716 49.5284 31.8716Z" fill="#D2F1FF"/>
<path d="M50.8088 30.6006V12.8339C50.8088 12.1317 50.2357 11.5635 49.5293 11.5635H39.2687C37.0468 17.5701 32.9202 25.6259 25.5439 31.8726H49.5293C50.2357 31.8718 50.8088 31.3028 50.8088 30.6006Z" fill="#B8EDFF"/>
<path d="M49.5284 11.5627H9.29495C8.58772 11.5627 8.01465 12.1317 8.01465 12.8331V13.0444H50.8079V12.8331C50.8087 12.1317 50.2357 11.5627 49.5284 11.5627Z" fill="#374954"/>
<path d="M36.5307 31.8718C35.9974 31.0355 35.6868 30.0447 35.6868 28.9807C35.6868 25.9926 38.1265 23.5702 41.136 23.5702C44.1455 23.5702 46.5852 25.9926 46.5852 28.9807C46.5852 30.0439 46.2746 31.0347 45.7413 31.8718H47.275C47.694 30.9952 47.9292 30.0159 47.9292 28.9807C47.9292 25.2558 44.8875 22.2357 41.136 22.2357C37.3845 22.2357 34.3428 25.2558 34.3428 28.9807C34.3428 30.0151 34.578 30.9952 34.997 31.8718H36.5307Z" fill="#374954"/>
<path d="M24.9876 33.1315H26.3574C27.058 33.1315 27.4522 33.4924 27.4522 34.0647C27.4522 34.2876 27.3015 34.5408 27.0845 34.6214C27.3859 34.7176 27.5988 35.0095 27.5988 35.3129C27.5988 35.8935 27.1806 36.2618 26.4725 36.2618H24.9868V33.1315H24.9876ZM26.3267 34.3994C26.5934 34.3994 26.7483 34.2843 26.7483 34.0656C26.7483 33.8468 26.5934 33.7276 26.3267 33.7276H25.6924V34.4002H26.3267V34.3994ZM26.4427 35.6673C26.7209 35.6673 26.8957 35.544 26.8957 35.3138C26.8957 35.0835 26.7218 34.9602 26.4427 34.9602H25.6924V35.6673H26.4427Z" fill="white"/>
<path d="M27.9284 33.1315H28.6323V34.8755C28.6323 35.3746 28.9106 35.7093 29.371 35.7093C29.8315 35.7093 30.1097 35.3746 30.1097 34.8755V33.1315H30.8136V34.8755C30.8136 35.7627 30.2373 36.3391 29.3702 36.3391C28.5031 36.3391 27.9268 35.7627 27.9268 34.8755V33.1315H27.9284Z" fill="white"/>
<path d="M33.8248 34.0771H33.0977C33.0555 33.8041 32.8501 33.6388 32.5131 33.6388C32.1843 33.6388 32.0021 33.7695 32.0021 33.9578C32.0021 34.1922 32.2456 34.2728 32.8609 34.3994C33.588 34.549 33.8356 34.9067 33.8356 35.3754C33.8356 35.9749 33.2667 36.3399 32.5627 36.3399C31.7851 36.3399 31.2162 35.9214 31.1855 35.2529H31.9093C31.9483 35.5522 32.2108 35.752 32.6133 35.752C32.8998 35.752 33.1126 35.6098 33.1126 35.4058C33.1126 35.1559 32.8998 35.0564 32.3383 34.9528C31.6534 34.8261 31.2816 34.5458 31.2816 33.9578C31.2816 33.3929 31.8464 33.055 32.5586 33.055C33.2642 33.055 33.79 33.4817 33.8248 34.0771Z" fill="white"/>
<path d="M22.8061 34.4553H12.8759C12.6912 34.4553 12.5405 34.3065 12.5405 34.1223C12.5405 33.9389 12.6904 33.7893 12.8759 33.7893H22.8061C22.9908 33.7893 23.1415 33.9381 23.1415 34.1223C23.1415 34.3065 22.9916 34.4553 22.8061 34.4553Z" fill="#FF2F06"/>
<path d="M22.8061 35.6048H12.8759C12.6912 35.6048 12.5405 35.456 12.5405 35.2718C12.5405 35.0885 12.6904 34.9388 12.8759 34.9388H22.8061C22.9908 34.9388 23.1415 35.0876 23.1415 35.2718C23.1415 35.456 22.9916 35.6048 22.8061 35.6048Z" fill="#FF2F06"/>
<path d="M45.9477 34.4553H36.0175C35.8329 34.4553 35.6821 34.3065 35.6821 34.1223C35.6821 33.9389 35.832 33.7893 36.0175 33.7893H45.9477C46.1324 33.7893 46.2831 33.9381 46.2831 34.1223C46.2831 34.3065 46.1332 34.4553 45.9477 34.4553Z" fill="#FF2F06"/>
<path d="M45.9477 35.6048H36.0175C35.8329 35.6048 35.6821 35.456 35.6821 35.2718C35.6821 35.0885 35.832 34.9388 36.0175 34.9388H45.9477C46.1324 34.9388 46.2831 35.0876 46.2831 35.2718C46.2831 35.456 46.1332 35.6048 45.9477 35.6048Z" fill="#FF2F06"/>
<path d="M53.4488 35.6205C50.6547 36.1155 47.757 36.5266 44.7724 36.8464L41.729 45.065V46.6215L42.717 49.8826H53.4488V35.6205Z" fill="#DDDDDD"/>
<path d="M5.37451 35.6205C8.16865 36.1155 11.0663 36.5266 14.0509 36.8464L17.0943 45.065V46.6215L16.1064 49.8826H5.37451V35.6205Z" fill="#DDDDDD"/>
<path d="M53.4488 48.3261H5.37451V49.8826H53.4488V48.3261Z" fill="#CCCCCC"/>
<path d="M7.05398 53.6231H51.7702C52.6977 53.6231 53.4488 52.8765 53.4488 51.9564V49.8835H5.37451V51.9564C5.37451 52.8765 6.12646 53.6231 7.05398 53.6231Z" fill="#EAEAEA"/>
<path d="M41.7289 45.065H17.0942V46.6215H41.7289V45.065Z" fill="#CCCCCC"/>
<path d="M33.7564 48.9929H25.0667C24.7545 48.9929 24.502 48.7421 24.502 48.4321V43.9204C24.502 43.6104 24.7545 43.3596 25.0667 43.3596H33.7564C34.0686 43.3596 34.3212 43.6104 34.3212 43.9204V48.4321C34.3212 48.7421 34.0686 48.9929 33.7564 48.9929Z" fill="#FF5E33"/>
<path d="M17.0943 45.065V46.6215H12.407C9.58307 46.6215 7.29492 44.3488 7.29492 41.5457L17.0943 45.065Z" fill="white"/>
<path d="M11.9151 43.2042C11.5102 43.9574 11.1375 45.0074 11.0083 46.4266C11.453 46.5525 11.9226 46.6207 12.4079 46.6207H17.0951V45.0642L11.9151 43.2042Z" fill="#FFDC97"/>
<path d="M41.729 45.065V46.6215H46.4163C49.2402 46.6215 51.5284 44.3488 51.5284 41.5457L41.729 45.065Z" fill="white"/>
<path d="M46.909 43.2042C47.314 43.9574 47.6866 45.0074 47.8158 46.4266C47.3711 46.5525 46.9016 46.6207 46.4163 46.6207H41.729V45.0642L46.909 43.2042Z" fill="#FFDC97"/>
<path d="M13.0641 60.2941C11.4765 60.2941 10.1904 59.0163 10.1904 57.4409V53.6239H15.9385V57.4409C15.9377 59.0163 14.6508 60.2941 13.0641 60.2941Z" fill="#ff5e33"/>
<path d="M45.7608 60.2596C44.1733 60.2596 42.8872 58.9818 42.8872 57.4063V53.5894H48.6353V57.4063C48.6345 58.9818 47.3476 60.2596 45.7608 60.2596Z" fill="#ff5e33"/>
<path d="M3.95105 21.9766H0.677418C0.303099 21.9766 0 21.6757 0 21.304V15.9782C0 15.6066 0.303099 15.3056 0.677418 15.3056H3.95105C4.32537 15.3056 4.62847 15.6066 4.62847 15.9782V21.304C4.62847 21.6757 4.32537 21.9766 3.95105 21.9766Z" fill="#ff5e33"/>
<path d="M5.37551 16.7881H2.98633V17.307H5.37551V16.7881Z" fill="#ff5e33"/>
<path d="M5.37551 19.9753H2.98633V20.4941H5.37551V19.9753Z" fill="#ff5e33"/>
<path d="M54.8732 21.9766H58.1469C58.5212 21.9766 58.8243 21.6757 58.8243 21.304V15.9782C58.8243 15.6066 58.5212 15.3056 58.1469 15.3056H54.8732C54.4989 15.3056 54.1958 15.6066 54.1958 15.9782V21.304C54.1958 21.6757 54.4989 21.9766 54.8732 21.9766Z" fill="#ff5e33"/>
<path d="M53.4487 17.307H55.8379V16.7882H53.4487V17.307Z" fill="#ff5e33"/>
<path d="M53.4487 20.4943H55.8379V19.9754H53.4487V20.4943Z" fill="#ff5e33"/>
</g>
<defs>
<clipPath id="clip0_646_2">
<rect width="58.8235" height="60.2941" fill="white"/>
</clipPath>
</defs>
</svg>
