<svg width="422" height="39" viewBox="0 0 422 39" fill="none" xmlns="http://www.w3.org/2000/svg">
<path d="M17.25 38.65C14.8833 38.65 12.6583 38.1833 10.575 37.25C8.49167 36.3 6.65833 34.9917 5.075 33.325C3.49167 31.6583 2.25 29.7333 1.35 27.55C0.45 25.35 1.41561e-07 23 1.41561e-07 20.5C1.41561e-07 18 0.45 15.6583 1.35 13.475C2.25 11.275 3.49167 9.34167 5.075 7.675C6.65833 6.00833 8.49167 4.70833 10.575 3.775C12.6583 2.825 14.8833 2.35 17.25 2.35C19.6333 2.35 21.8667 2.825 23.95 3.775C26.0333 4.70833 27.8667 6.00833 29.45 7.675C31.0333 9.34167 32.2667 11.275 33.15 13.475C34.05 15.6583 34.5 18 34.5 20.5C34.5 23 34.05 25.35 33.15 27.55C32.2667 29.7333 31.0333 31.6583 29.45 33.325C27.8667 34.9917 26.0333 36.3 23.95 37.25C21.8667 38.1833 19.6333 38.65 17.25 38.65ZM17.25 33.45C18.9167 33.45 20.475 33.1083 21.925 32.425C23.375 31.7417 24.65 30.8083 25.75 29.625C26.8667 28.425 27.7333 27.05 28.35 25.5C28.9833 23.9333 29.3 22.2667 29.3 20.5C29.3 18.7333 28.9833 17.0667 28.35 15.5C27.7333 13.9333 26.8667 12.5583 25.75 11.375C24.65 10.175 23.375 9.24166 21.925 8.575C20.475 7.89167 18.9167 7.55 17.25 7.55C15.5833 7.55 14.025 7.89167 12.575 8.575C11.125 9.25833 9.84167 10.2 8.725 11.4C7.625 12.5833 6.75833 13.9583 6.125 15.525C5.50833 17.075 5.2 18.7333 5.2 20.5C5.2 22.2833 5.50833 23.9583 6.125 25.525C6.75833 27.075 7.625 28.45 8.725 29.65C9.84167 30.8333 11.125 31.7667 12.575 32.45C14.025 33.1167 15.5833 33.45 17.25 33.45ZM36.8418 28.625V13H42.0418V27.35C42.0418 28.4667 42.3168 29.4833 42.8668 30.4C43.4168 31.3167 44.1501 32.05 45.0668 32.6C45.9835 33.1333 46.9918 33.4 48.0918 33.4C49.2085 33.4 50.2168 33.1333 51.1168 32.6C52.0335 32.05 52.7585 31.3167 53.2918 30.4C53.8418 29.4833 54.1168 28.4667 54.1168 27.35V13H59.3168L59.3418 38H54.1418L54.1168 35.3C53.2668 36.3333 52.2085 37.15 50.9418 37.75C49.6751 38.35 48.3168 38.65 46.8668 38.65C45.0168 38.65 43.3335 38.2 41.8168 37.3C40.3001 36.4 39.0918 35.1917 38.1918 33.675C37.2918 32.1583 36.8418 30.475 36.8418 28.625ZM63.3555 38V13H68.5555V15.65C69.4221 14.6167 70.4888 13.8 71.7555 13.2C73.0221 12.6 74.3888 12.3 75.8555 12.3C76.7888 12.3 77.7138 12.425 78.6305 12.675L76.5555 17.925C75.9055 17.675 75.2555 17.55 74.6055 17.55C73.5055 17.55 72.4971 17.825 71.5805 18.375C70.6638 18.9083 69.9305 19.6333 69.3805 20.55C68.8305 21.4667 68.5555 22.4833 68.5555 23.6V38H63.3555ZM244.541 38V3H257.566C259.449 3 261.158 3.39166 262.691 4.175C264.224 4.94167 265.433 6.04167 266.316 7.475C267.216 8.90833 267.666 10.5917 267.666 12.525C267.666 13.3083 267.558 14.1167 267.341 14.95C267.141 15.7833 266.791 16.55 266.291 17.25C265.808 17.95 265.141 18.4833 264.291 18.85C265.391 19.1167 266.274 19.6167 266.941 20.35C267.608 21.0667 268.116 21.9 268.466 22.85C268.816 23.7833 269.049 24.7417 269.166 25.725C269.283 26.7083 269.341 27.6 269.341 28.4C269.341 30.2 268.874 31.825 267.941 33.275C267.008 34.725 265.749 35.875 264.166 36.725C262.599 37.575 260.866 38 258.966 38H244.541ZM251.441 32.125H258.241C259.158 32.125 259.991 31.9083 260.741 31.475C261.491 31.025 262.091 30.4167 262.541 29.65C262.991 28.8667 263.216 27.9833 263.216 27C263.216 26.1667 262.991 25.375 262.541 24.625C262.091 23.875 261.491 23.2667 260.741 22.8C259.991 22.3167 259.158 22.075 258.241 22.075H251.441V32.125ZM251.441 16.325H256.766C257.866 16.325 258.808 15.9667 259.591 15.25C260.374 14.5333 260.766 13.6083 260.766 12.475C260.766 11.3083 260.374 10.425 259.591 9.825C258.808 9.20833 257.866 8.9 256.766 8.9H251.441V16.325ZM271.203 28.85V13H278.103V26.95C278.103 27.8333 278.311 28.6333 278.728 29.35C279.161 30.05 279.736 30.6083 280.453 31.025C281.17 31.4417 281.953 31.65 282.803 31.65C283.67 31.65 284.461 31.4417 285.178 31.025C285.895 30.6083 286.461 30.05 286.878 29.35C287.295 28.6333 287.503 27.8333 287.503 26.95V13H294.403L294.428 38H287.528L287.503 36.1C286.67 36.9 285.686 37.525 284.553 37.975C283.436 38.425 282.253 38.65 281.003 38.65C279.203 38.65 277.561 38.2083 276.078 37.325C274.595 36.4417 273.411 35.2667 272.528 33.8C271.645 32.3167 271.203 30.6667 271.203 28.85ZM305.724 38.45C304.441 38.35 303.208 38.0833 302.024 37.65C300.841 37.2 299.783 36.6 298.849 35.85C297.933 35.0833 297.216 34.1667 296.699 33.1L302.499 30.6C302.683 30.8667 302.958 31.1583 303.324 31.475C303.691 31.775 304.133 32.0417 304.649 32.275C305.183 32.5083 305.799 32.625 306.499 32.625C307.016 32.625 307.516 32.5667 307.999 32.45C308.483 32.3167 308.874 32.1083 309.174 31.825C309.474 31.525 309.624 31.1333 309.624 30.65C309.624 30.1167 309.433 29.7083 309.049 29.425C308.666 29.1417 308.199 28.9333 307.649 28.8C307.116 28.65 306.599 28.525 306.099 28.425C304.566 28.1583 303.116 27.6833 301.749 27C300.399 26.3 299.299 25.4 298.449 24.3C297.599 23.2 297.174 21.8833 297.174 20.35C297.174 18.6667 297.616 17.2167 298.499 16C299.383 14.7667 300.533 13.8167 301.949 13.15C303.366 12.4833 304.899 12.15 306.549 12.15C308.499 12.15 310.308 12.5583 311.974 13.375C313.641 14.1917 314.983 15.3417 315.999 16.825L310.549 20.05C310.333 19.7333 310.049 19.4333 309.699 19.15C309.366 18.85 308.974 18.6 308.524 18.4C308.091 18.1833 307.624 18.0583 307.124 18.025C306.474 17.975 305.883 18.0167 305.349 18.15C304.816 18.2667 304.391 18.4917 304.074 18.825C303.774 19.1583 303.624 19.6083 303.624 20.175C303.624 20.725 303.866 21.1333 304.349 21.4C304.833 21.65 305.391 21.8417 306.024 21.975C306.658 22.0917 307.216 22.2333 307.699 22.4C309.149 22.8667 310.508 23.4667 311.774 24.2C313.058 24.9167 314.091 25.8 314.874 26.85C315.658 27.9 316.024 29.1333 315.974 30.55C315.974 32.2 315.483 33.65 314.499 34.9C313.516 36.1333 312.241 37.075 310.674 37.725C309.124 38.3583 307.474 38.6 305.724 38.45ZM318.543 13H325.443V38H318.543V13ZM322.043 10.125C321.043 10.125 320.201 9.79167 319.518 9.125C318.835 8.45833 318.493 7.63333 318.493 6.65C318.493 5.66666 318.835 4.84166 319.518 4.175C320.201 3.50833 321.035 3.175 322.018 3.175C323.001 3.175 323.826 3.50833 324.493 4.175C325.176 4.84166 325.518 5.66666 325.518 6.65C325.518 7.63333 325.185 8.45833 324.518 9.125C323.868 9.79167 323.043 10.125 322.043 10.125ZM353.414 22.1V38H346.514V24C346.514 23.1167 346.298 22.325 345.864 21.625C345.448 20.9083 344.881 20.3417 344.164 19.925C343.464 19.5083 342.681 19.3 341.814 19.3C340.948 19.3 340.156 19.5083 339.439 19.925C338.723 20.3417 338.156 20.9083 337.739 21.625C337.323 22.325 337.114 23.1167 337.114 24V38H330.214L330.189 13H337.089L337.114 14.85C337.948 14.05 338.923 13.425 340.039 12.975C341.173 12.525 342.364 12.3 343.614 12.3C345.431 12.3 347.073 12.7417 348.539 13.625C350.023 14.5083 351.206 15.6917 352.089 17.175C352.973 18.6417 353.414 20.2833 353.414 22.1ZM367.924 38.65C365.624 38.65 363.524 38.0583 361.624 36.875C359.74 35.6917 358.232 34.1 357.099 32.1C355.982 30.1 355.424 27.8917 355.424 25.475C355.424 23.6583 355.749 21.9583 356.399 20.375C357.049 18.775 357.94 17.375 359.074 16.175C360.224 14.9583 361.557 14.0083 363.074 13.325C364.59 12.6417 366.207 12.3 367.924 12.3C369.907 12.3 371.715 12.725 373.349 13.575C374.999 14.425 376.39 15.5833 377.524 17.05C378.674 18.5167 379.49 20.175 379.974 22.025C380.474 23.875 380.557 25.8 380.224 27.8H362.874C363.09 28.5333 363.424 29.2 363.874 29.8C364.34 30.3833 364.907 30.85 365.574 31.2C366.257 31.55 367.04 31.7333 367.924 31.75C368.79 31.7667 369.59 31.5667 370.324 31.15C371.057 30.7333 371.682 30.175 372.199 29.475L379.249 31.1C378.232 33.3167 376.715 35.1333 374.699 36.55C372.682 37.95 370.424 38.65 367.924 38.65ZM362.624 22.7H373.249C373.032 21.8667 372.665 21.1167 372.149 20.45C371.632 19.7833 371.007 19.2583 370.274 18.875C369.557 18.4917 368.774 18.3 367.924 18.3C367.09 18.3 366.307 18.4917 365.574 18.875C364.857 19.2583 364.24 19.7833 363.724 20.45C363.224 21.1 362.857 21.85 362.624 22.7ZM390.689 38.45C389.406 38.35 388.172 38.0833 386.989 37.65C385.806 37.2 384.747 36.6 383.814 35.85C382.897 35.0833 382.181 34.1667 381.664 33.1L387.464 30.6C387.647 30.8667 387.922 31.1583 388.289 31.475C388.656 31.775 389.097 32.0417 389.614 32.275C390.147 32.5083 390.764 32.625 391.464 32.625C391.981 32.625 392.481 32.5667 392.964 32.45C393.447 32.3167 393.839 32.1083 394.139 31.825C394.439 31.525 394.589 31.1333 394.589 30.65C394.589 30.1167 394.397 29.7083 394.014 29.425C393.631 29.1417 393.164 28.9333 392.614 28.8C392.081 28.65 391.564 28.525 391.064 28.425C389.531 28.1583 388.081 27.6833 386.714 27C385.364 26.3 384.264 25.4 383.414 24.3C382.564 23.2 382.139 21.8833 382.139 20.35C382.139 18.6667 382.581 17.2167 383.464 16C384.347 14.7667 385.497 13.8167 386.914 13.15C388.331 12.4833 389.864 12.15 391.514 12.15C393.464 12.15 395.272 12.5583 396.939 13.375C398.606 14.1917 399.947 15.3417 400.964 16.825L395.514 20.05C395.297 19.7333 395.014 19.4333 394.664 19.15C394.331 18.85 393.939 18.6 393.489 18.4C393.056 18.1833 392.589 18.0583 392.089 18.025C391.439 17.975 390.847 18.0167 390.314 18.15C389.781 18.2667 389.356 18.4917 389.039 18.825C388.739 19.1583 388.589 19.6083 388.589 20.175C388.589 20.725 388.831 21.1333 389.314 21.4C389.797 21.65 390.356 21.8417 390.989 21.975C391.622 22.0917 392.181 22.2333 392.664 22.4C394.114 22.8667 395.472 23.4667 396.739 24.2C398.022 24.9167 399.056 25.8 399.839 26.85C400.622 27.9 400.989 29.1333 400.939 30.55C400.939 32.2 400.447 33.65 399.464 34.9C398.481 36.1333 397.206 37.075 395.639 37.725C394.089 38.3583 392.439 38.6 390.689 38.45ZM411.466 38.45C410.183 38.35 408.95 38.0833 407.766 37.65C406.583 37.2 405.525 36.6 404.591 35.85C403.675 35.0833 402.958 34.1667 402.441 33.1L408.241 30.6C408.425 30.8667 408.7 31.1583 409.066 31.475C409.433 31.775 409.875 32.0417 410.391 32.275C410.925 32.5083 411.541 32.625 412.241 32.625C412.758 32.625 413.258 32.5667 413.741 32.45C414.225 32.3167 414.616 32.1083 414.916 31.825C415.216 31.525 415.366 31.1333 415.366 30.65C415.366 30.1167 415.175 29.7083 414.791 29.425C414.408 29.1417 413.941 28.9333 413.391 28.8C412.858 28.65 412.341 28.525 411.841 28.425C410.308 28.1583 408.858 27.6833 407.491 27C406.141 26.3 405.041 25.4 404.191 24.3C403.341 23.2 402.916 21.8833 402.916 20.35C402.916 18.6667 403.358 17.2167 404.241 16C405.125 14.7667 406.275 13.8167 407.691 13.15C409.108 12.4833 410.641 12.15 412.291 12.15C414.241 12.15 416.05 12.5583 417.716 13.375C419.383 14.1917 420.725 15.3417 421.741 16.825L416.291 20.05C416.075 19.7333 415.791 19.4333 415.441 19.15C415.108 18.85 414.716 18.6 414.266 18.4C413.833 18.1833 413.366 18.0583 412.866 18.025C412.216 17.975 411.625 18.0167 411.091 18.15C410.558 18.2667 410.133 18.4917 409.816 18.825C409.516 19.1583 409.366 19.6083 409.366 20.175C409.366 20.725 409.608 21.1333 410.091 21.4C410.575 21.65 411.133 21.8417 411.766 21.975C412.4 22.0917 412.958 22.2333 413.441 22.4C414.891 22.8667 416.25 23.4667 417.516 24.2C418.8 24.9167 419.833 25.8 420.616 26.85C421.4 27.9 421.766 29.1333 421.716 30.55C421.716 32.2 421.225 33.65 420.241 34.9C419.258 36.1333 417.983 37.075 416.416 37.725C414.866 38.3583 413.216 38.6 411.466 38.45Z" fill="url(#paint0_linear_326_123)"/>
<path d="M108.391 38.65C105.958 38.65 103.691 38.1833 101.591 37.25C99.5077 36.3 97.6827 34.9917 96.116 33.325C94.566 31.6417 93.3493 29.7 92.466 27.5C91.5993 25.3 91.166 22.9583 91.166 20.475C91.166 17.8583 91.6327 15.45 92.566 13.25C93.4993 11.05 94.7743 9.14166 96.391 7.525C98.0077 5.89167 99.8493 4.625 101.916 3.725C103.999 2.825 106.183 2.375 108.466 2.375C111.049 2.375 113.533 2.975 115.916 4.175C118.299 5.375 120.374 7.175 122.141 9.575L117.491 12.1C116.291 10.6 114.891 9.46667 113.291 8.7C111.708 7.93333 110.083 7.55 108.416 7.55C106.799 7.55 105.266 7.88333 103.816 8.55C102.366 9.2 101.083 10.1167 99.966 11.3C98.8493 12.4667 97.966 13.8417 97.316 15.425C96.6827 16.9917 96.366 18.7 96.366 20.55C96.366 22.3333 96.6743 24.0083 97.291 25.575C97.9243 27.1417 98.791 28.5167 99.891 29.7C101.008 30.8667 102.291 31.7833 103.741 32.45C105.208 33.1167 106.774 33.45 108.441 33.45C109.674 33.45 110.858 33.25 111.991 32.85C113.124 32.45 114.174 31.8833 115.141 31.15C116.124 30.4 116.983 29.5083 117.716 28.475C118.449 27.4417 119.033 26.2917 119.466 25.025H112.041V20.425H125.566C125.599 22.925 125.166 25.275 124.266 27.475C123.383 29.675 122.149 31.6167 120.566 33.3C118.999 34.9667 117.174 36.275 115.091 37.225C113.008 38.175 110.774 38.65 108.391 38.65ZM129.301 38V0.499997H134.501V38H129.301ZM150.141 38.65C147.841 38.65 145.741 38.0583 143.841 36.875C141.957 35.6917 140.449 34.1083 139.316 32.125C138.199 30.125 137.641 27.9167 137.641 25.5C137.641 23.6667 137.966 21.9583 138.616 20.375C139.266 18.775 140.157 17.375 141.291 16.175C142.441 14.9583 143.774 14.0083 145.291 13.325C146.807 12.6417 148.424 12.3 150.141 12.3C152.441 12.3 154.532 12.8917 156.416 14.075C158.316 15.2583 159.824 16.85 160.941 18.85C162.074 20.85 162.641 23.0667 162.641 25.5C162.641 27.3167 162.316 29.0167 161.666 30.6C161.016 32.1833 160.116 33.5833 158.966 34.8C157.832 36 156.507 36.9417 154.991 37.625C153.491 38.3083 151.874 38.65 150.141 38.65ZM150.141 33.45C151.524 33.45 152.766 33.0833 153.866 32.35C154.966 31.6167 155.832 30.65 156.466 29.45C157.116 28.2333 157.441 26.9167 157.441 25.5C157.441 24.05 157.107 22.7167 156.441 21.5C155.791 20.2833 154.916 19.3167 153.816 18.6C152.716 17.8667 151.491 17.5 150.141 17.5C148.774 17.5 147.532 17.8667 146.416 18.6C145.316 19.3333 144.441 20.3083 143.791 21.525C143.157 22.7417 142.841 24.0667 142.841 25.5C142.841 26.9833 143.174 28.325 143.841 29.525C144.507 30.725 145.391 31.6833 146.491 32.4C147.607 33.1 148.824 33.45 150.141 33.45ZM178.338 12.3C180.771 12.3 182.98 12.8917 184.963 14.075C186.963 15.2583 188.555 16.85 189.738 18.85C190.921 20.8333 191.513 23.0417 191.513 25.475C191.513 27.2917 191.171 29 190.488 30.6C189.805 32.1833 188.855 33.5833 187.638 34.8C186.438 36 185.038 36.9417 183.438 37.625C181.855 38.3083 180.155 38.65 178.338 38.65C176.588 38.65 175.055 38.25 173.738 37.45C172.438 36.6333 171.371 35.5917 170.538 34.325V38H165.338V0.499997H170.538V16.625C171.371 15.3417 172.438 14.3 173.738 13.5C175.055 12.7 176.588 12.3 178.338 12.3ZM178.288 33.6C179.738 33.6 181.063 33.2333 182.263 32.5C183.463 31.7667 184.413 30.7833 185.113 29.55C185.83 28.3167 186.188 26.9583 186.188 25.475C186.188 23.9583 185.83 22.5833 185.113 21.35C184.396 20.1167 183.438 19.1417 182.238 18.425C181.038 17.6917 179.721 17.325 178.288 17.325C176.838 17.325 175.563 17.6917 174.463 18.425C173.363 19.1583 172.505 20.1417 171.888 21.375C171.271 22.6083 170.963 23.975 170.963 25.475C170.963 26.975 171.271 28.3417 171.888 29.575C172.505 30.8083 173.363 31.7917 174.463 32.525C175.563 33.2417 176.838 33.6 178.288 33.6ZM213.964 13H219.164V38H213.939L213.739 34.375C213.005 35.6583 212.014 36.6917 210.764 37.475C209.514 38.2583 208.039 38.65 206.339 38.65C204.505 38.65 202.78 38.3083 201.164 37.625C199.547 36.925 198.122 35.9583 196.889 34.725C195.672 33.4917 194.722 32.075 194.039 30.475C193.355 28.8583 193.014 27.125 193.014 25.275C193.014 23.4917 193.347 21.8167 194.014 20.25C194.68 18.6667 195.605 17.2833 196.789 16.1C197.972 14.9167 199.339 13.9917 200.889 13.325C202.455 12.6417 204.13 12.3 205.914 12.3C207.73 12.3 209.33 12.7167 210.714 13.55C212.114 14.3667 213.272 15.4167 214.189 16.7L213.964 13ZM206.214 33.625C207.68 33.625 208.964 33.2667 210.064 32.55C211.164 31.8167 212.014 30.8333 212.614 29.6C213.23 28.3667 213.539 27 213.539 25.5C213.539 23.9833 213.23 22.6083 212.614 21.375C211.997 20.1417 211.139 19.1667 210.039 18.45C208.955 17.7167 207.68 17.35 206.214 17.35C204.764 17.35 203.439 17.7167 202.239 18.45C201.039 19.1833 200.089 20.1667 199.389 21.4C198.689 22.6333 198.339 24 198.339 25.5C198.339 27.0167 198.697 28.3917 199.414 29.625C200.147 30.8417 201.105 31.8167 202.289 32.55C203.489 33.2667 204.797 33.625 206.214 33.625ZM223.348 38V0.499997H228.548V38H223.348Z" fill="url(#paint1_linear_326_123)"/>
<defs>
<linearGradient id="paint0_linear_326_123" x1="397.205" y1="20" x2="28.7081" y2="20" gradientUnits="userSpaceOnUse">
<stop stop-color="#1369BF"/>
<stop offset="1" stop-color="#1168BC"/>
</linearGradient>
<linearGradient id="paint1_linear_326_123" x1="397.205" y1="20" x2="28.7081" y2="20" gradientUnits="userSpaceOnUse">
<stop stop-color="#ADFF00"/>
<stop offset="0.375" stop-color="#61F114"/>
<stop offset="1" stop-color="#1168BC"/>
</linearGradient>
</defs>
</svg>
