<?xml version="1.0" encoding="utf-8"?>
<!-- Generator: Adobe Illustrator 25.4.0, SVG Export Plug-In . SVG Version: 6.00 Build 0)  -->
<svg version="1.1" id="레이어_1" xmlns="http://www.w3.org/2000/svg" xmlns:xlink="http://www.w3.org/1999/xlink" x="0px"
	 y="0px" viewBox="0 0 893.51 1293.2" style="enable-background:new 0 0 893.51 1293.2;" xml:space="preserve">
<style type="text/css">
	.st0{clip-path:url(#SVGID_00000168117830691125744940000001972318075979626666_);fill:#FFFBF8;}
	.st1{clip-path:url(#SVGID_00000168117830691125744940000001972318075979626666_);}
	.st2{fill:#F9EBDC;}
	.st3{fill:#FFCA83;}
	.st4{fill:#E5B89F;}
	.st5{fill:#ADE27A;}
	.st6{fill:#FFB6C1;}
	.st7{fill:#BC9EDD;}
	.st8{fill:#84C1F4;}
	.st9{fill:#BDE5F4;}
	.st10{fill:#7057B2;}
	.st11{fill:#FFBDA4;}
	.st12{fill:#3D1810;}
	.st13{fill:#FF6D52;}
	.st14{fill:#F4482F;}
	.st15{fill:#F54F68;}
	.st16{fill:#F55944;}
	.st17{fill:#FFFFFF;}
	.st18{fill:#E0D3CD;}
	.st19{opacity:0.8;fill:#FFF4E6;}
	.st20{fill:url(#SVGID_00000085245901299312433980000003512642907643475097_);}
	.st21{clip-path:url(#SVGID_00000024687890094421744480000000147843406039943582_);fill:#FFCB3B;}
	.st22{clip-path:url(#SVGID_00000024687890094421744480000000147843406039943582_);}
	.st23{fill:#FF9320;}
	.st24{fill:#B494D3;}
	.st25{fill:#F3FFEE;}
	.st26{clip-path:url(#SVGID_00000054966916668662671050000007483541545801628044_);fill:#F35918;}
	.st27{clip-path:url(#SVGID_00000054966916668662671050000007483541545801628044_);}
	.st28{clip-path:url(#SVGID_00000151523643077978958810000010221727957374970503_);fill:#FFCB3B;}
	.st29{clip-path:url(#SVGID_00000151523643077978958810000010221727957374970503_);}
	.st30{clip-path:url(#SVGID_00000054966916668662671050000007483541545801628044_);fill:#FF6C39;}
	.st31{clip-path:url(#SVGID_00000054966916668662671050000007483541545801628044_);fill:#F3ECDD;}
	.st32{fill:#F3ECDD;}
	.st33{fill:#542C20;}
	.st34{fill:#6D4130;}
	.st35{clip-path:url(#SVGID_00000163041914851315594770000016403437309003512205_);fill:#C4BFB1;}
	.st36{clip-path:url(#SVGID_00000163041914851315594770000016403437309003512205_);}
	.st37{fill:#7A766C;}
	.st38{fill:#D3ACA1;}
</style>
<g>
	<defs>
		<rect id="SVGID_1_" x="-5264.15" y="-835.65" width="5000" height="3931.95"/>
	</defs>
	<clipPath id="SVGID_00000004531605179559306720000017199803597557639556_">
		<use xlink:href="#SVGID_1_"  style="overflow:visible;"/>
	</clipPath>
	
		<rect x="-5264.15" y="-908.25" style="clip-path:url(#SVGID_00000004531605179559306720000017199803597557639556_);fill:#FFFBF8;" width="5000" height="4004.56"/>
	<g style="clip-path:url(#SVGID_00000004531605179559306720000017199803597557639556_);">
		<g>
			<g>
				<rect x="-5805.39" y="-1133.79" class="st2" width="3.72" height="4486.69"/>
			</g>
			<g>
				<rect x="-5683.82" y="-1133.79" class="st2" width="3.72" height="4486.69"/>
			</g>
			<g>
				<rect x="-5562.24" y="-1133.79" class="st2" width="3.72" height="4486.69"/>
			</g>
			<g>
				<rect x="-5440.67" y="-1133.79" class="st2" width="3.72" height="4486.69"/>
			</g>
			<g>
				<rect x="-5319.09" y="-1133.79" class="st2" width="3.72" height="4486.69"/>
			</g>
			<g>
				<rect x="-5197.52" y="-1133.79" class="st2" width="3.72" height="4486.69"/>
			</g>
			<g>
				<rect x="-5075.94" y="-1133.79" class="st2" width="3.72" height="4486.69"/>
			</g>
			<g>
				<rect x="-4954.37" y="-1133.79" class="st2" width="3.72" height="4486.69"/>
			</g>
			<g>
				<rect x="-4832.79" y="-1133.79" class="st2" width="3.72" height="4486.69"/>
			</g>
			<g>
				<rect x="-4711.21" y="-1133.79" class="st2" width="3.72" height="4486.69"/>
			</g>
			<g>
				<rect x="-4589.64" y="-1133.79" class="st2" width="3.72" height="4486.69"/>
			</g>
			<g>
				<rect x="-4468.06" y="-1133.79" class="st2" width="3.72" height="4486.69"/>
			</g>
			<g>
				<rect x="-4346.49" y="-1133.79" class="st2" width="3.72" height="4486.69"/>
			</g>
			<g>
				<rect x="-4224.91" y="-1133.79" class="st2" width="3.72" height="4486.69"/>
			</g>
			<g>
				<rect x="-4103.34" y="-1133.79" class="st2" width="3.72" height="4486.69"/>
			</g>
			<g>
				<rect x="-3981.76" y="-1133.79" class="st2" width="3.72" height="4486.69"/>
			</g>
			<g>
				<rect x="-3860.19" y="-1133.79" class="st2" width="3.72" height="4486.69"/>
			</g>
			<g>
				<rect x="-3738.61" y="-1133.79" class="st2" width="3.72" height="4486.69"/>
			</g>
			<g>
				<rect x="-3617.04" y="-1133.79" class="st2" width="3.72" height="4486.69"/>
			</g>
			<g>
				<rect x="-3495.46" y="-1133.79" class="st2" width="3.72" height="4486.69"/>
			</g>
			<g>
				<rect x="-3373.89" y="-1133.79" class="st2" width="3.72" height="4486.69"/>
			</g>
			<g>
				<rect x="-3252.31" y="-1133.79" class="st2" width="3.72" height="4486.69"/>
			</g>
			<g>
				<rect x="-3130.74" y="-1133.79" class="st2" width="3.72" height="4486.69"/>
			</g>
			<g>
				<rect x="-3009.16" y="-1133.79" class="st2" width="3.72" height="4486.69"/>
			</g>
			<g>
				<rect x="-2887.59" y="-1133.79" class="st2" width="3.72" height="4486.69"/>
			</g>
			<g>
				<rect x="-2766.01" y="-1133.79" class="st2" width="3.72" height="4486.69"/>
			</g>
			<g>
				<rect x="-2644.44" y="-1133.79" class="st2" width="3.72" height="4486.69"/>
			</g>
			<g>
				<rect x="-2522.86" y="-1133.79" class="st2" width="3.72" height="4486.69"/>
			</g>
			<g>
				<rect x="-2401.29" y="-1133.79" class="st2" width="3.72" height="4486.69"/>
			</g>
			<g>
				<rect x="-2279.71" y="-1133.79" class="st2" width="3.72" height="4486.69"/>
			</g>
			<g>
				<rect x="-2158.14" y="-1133.79" class="st2" width="3.72" height="4486.69"/>
			</g>
			<g>
				<rect x="-2036.56" y="-1133.79" class="st2" width="3.72" height="4486.69"/>
			</g>
			<g>
				<rect x="-1914.98" y="-1133.79" class="st2" width="3.72" height="4486.69"/>
			</g>
			<g>
				<rect x="-1793.41" y="-1133.79" class="st2" width="3.72" height="4486.69"/>
			</g>
			<g>
				<rect x="-1671.83" y="-1133.79" class="st2" width="3.72" height="4486.69"/>
			</g>
			<g>
				<rect x="-1550.26" y="-1133.79" class="st2" width="3.72" height="4486.69"/>
			</g>
			<g>
				<rect x="-1428.68" y="-1133.79" class="st2" width="3.72" height="4486.69"/>
			</g>
			<g>
				<rect x="-1307.11" y="-1133.79" class="st2" width="3.72" height="4486.69"/>
			</g>
			<g>
				<rect x="-1185.53" y="-1133.79" class="st2" width="3.72" height="4486.69"/>
			</g>
			<g>
				<rect x="-1063.96" y="-1133.79" class="st2" width="3.72" height="4486.69"/>
			</g>
			<g>
				<rect x="-942.38" y="-1133.79" class="st2" width="3.72" height="4486.69"/>
			</g>
			<g>
				<rect x="-820.81" y="-1133.79" class="st2" width="3.72" height="4486.69"/>
			</g>
			<g>
				<rect x="-699.23" y="-1133.79" class="st2" width="3.72" height="4486.69"/>
			</g>
			<g>
				<rect x="-577.66" y="-1133.79" class="st2" width="3.72" height="4486.69"/>
			</g>
			<g>
				<rect x="-456.08" y="-1133.79" class="st2" width="3.72" height="4486.69"/>
			</g>
			<g>
				<rect x="-334.51" y="-1133.79" class="st2" width="3.72" height="4486.69"/>
			</g>
			<g>
				<rect x="-212.93" y="-1133.79" class="st2" width="3.72" height="4486.69"/>
			</g>
			<g>
				<rect x="-91.35" y="-1133.79" class="st2" width="3.72" height="4486.69"/>
			</g>
			<g>
				<rect x="30.22" y="-1133.79" class="st2" width="3.72" height="4486.69"/>
			</g>
			<g>
				<rect x="151.8" y="-1133.79" class="st2" width="3.72" height="4486.69"/>
			</g>
			<g>
				<rect x="273.37" y="-1133.79" class="st2" width="3.72" height="4486.69"/>
			</g>
		</g>
		<g>
			<g>
				<rect x="-6092.27" y="-1080.66" class="st2" width="6656.24" height="3.72"/>
			</g>
			<g>
				<rect x="-6092.27" y="-959.09" class="st2" width="6656.24" height="3.72"/>
			</g>
			<g>
				<rect x="-6092.27" y="-837.51" class="st2" width="6656.24" height="3.72"/>
			</g>
			<g>
				<rect x="-6092.27" y="-715.93" class="st2" width="6656.24" height="3.72"/>
			</g>
			<g>
				<rect x="-6092.27" y="-594.36" class="st2" width="6656.24" height="3.72"/>
			</g>
			<g>
				<rect x="-6092.27" y="-472.78" class="st2" width="6656.24" height="3.72"/>
			</g>
			<g>
				<rect x="-6092.27" y="-351.21" class="st2" width="6656.24" height="3.72"/>
			</g>
			<g>
				<rect x="-6092.27" y="-229.63" class="st2" width="6656.24" height="3.72"/>
			</g>
			<g>
				<rect x="-6092.27" y="-108.06" class="st2" width="6656.24" height="3.72"/>
			</g>
			<g>
				<rect x="-6092.27" y="13.52" class="st2" width="6656.24" height="3.72"/>
			</g>
			<g>
				<rect x="-6092.27" y="135.09" class="st2" width="6656.24" height="3.72"/>
			</g>
			<g>
				<rect x="-6092.27" y="256.67" class="st2" width="6656.24" height="3.72"/>
			</g>
			<g>
				<rect x="-6092.27" y="378.24" class="st2" width="6656.24" height="3.72"/>
			</g>
			<g>
				<rect x="-6092.27" y="499.82" class="st2" width="6656.24" height="3.72"/>
			</g>
			<g>
				<rect x="-6092.27" y="621.39" class="st2" width="6656.24" height="3.72"/>
			</g>
			<g>
				<rect x="-6092.27" y="742.97" class="st2" width="6656.24" height="3.72"/>
			</g>
			<g>
				<rect x="-6092.27" y="864.54" class="st2" width="6656.24" height="3.72"/>
			</g>
			<g>
				<rect x="-6092.27" y="986.12" class="st2" width="6656.24" height="3.72"/>
			</g>
			<g>
				<rect x="-6092.27" y="1107.69" class="st2" width="6656.24" height="3.72"/>
			</g>
			<g>
				<rect x="-6092.27" y="1229.27" class="st2" width="6656.24" height="3.72"/>
			</g>
			<g>
				<rect x="-6092.27" y="1350.84" class="st2" width="6656.24" height="3.72"/>
			</g>
			<g>
				<rect x="-6092.27" y="1472.42" class="st2" width="6656.24" height="3.72"/>
			</g>
			<g>
				<rect x="-6092.27" y="1593.99" class="st2" width="6656.24" height="3.72"/>
			</g>
			<g>
				<rect x="-6092.27" y="1715.57" class="st2" width="6656.24" height="3.72"/>
			</g>
			<g>
				<rect x="-6092.27" y="1837.15" class="st2" width="6656.24" height="3.72"/>
			</g>
			<g>
				<rect x="-6092.27" y="1958.72" class="st2" width="6656.24" height="3.72"/>
			</g>
			<g>
				<rect x="-6092.27" y="2080.3" class="st2" width="6656.24" height="3.72"/>
			</g>
			<g>
				<rect x="-6092.27" y="2201.87" class="st2" width="6656.24" height="3.72"/>
			</g>
			<g>
				<rect x="-6092.27" y="2323.45" class="st2" width="6656.24" height="3.72"/>
			</g>
			<g>
				<rect x="-6092.27" y="2445.02" class="st2" width="6656.24" height="3.72"/>
			</g>
			<g>
				<rect x="-6092.27" y="2566.6" class="st2" width="6656.24" height="3.72"/>
			</g>
			<g>
				<rect x="-6092.27" y="2688.17" class="st2" width="6656.24" height="3.72"/>
			</g>
			<g>
				<rect x="-6092.27" y="2809.75" class="st2" width="6656.24" height="3.72"/>
			</g>
			<g>
				<rect x="-6092.27" y="2931.32" class="st2" width="6656.24" height="3.72"/>
			</g>
			<g>
				<rect x="-6092.27" y="3052.9" class="st2" width="6656.24" height="3.72"/>
			</g>
			<g>
				<rect x="-6092.27" y="3174.47" class="st2" width="6656.24" height="3.72"/>
			</g>
			<g>
				<rect x="-6092.27" y="3296.05" class="st2" width="6656.24" height="3.72"/>
			</g>
		</g>
	</g>
	<g style="clip-path:url(#SVGID_00000004531605179559306720000017199803597557639556_);">
		<path class="st3" d="M-4684.42,1514.35c91.78,76.73,76.22,149.84-36.46,180.6c56.44,102.21,15.75,162.09-99.43,147.48
			c14.61,115.18-45.27,155.88-147.48,99.43c-30.77,112.69-103.87,128.24-180.6,36.46c-76.73,91.78-149.84,76.22-180.6-36.46
			c-102.21,56.44-162.09,15.75-147.48-99.43c-115.18,14.61-155.88-45.27-99.43-147.48c-112.69-30.77-128.24-103.87-36.46-180.6
			c-91.78-76.73-76.23-149.84,36.46-180.6c-56.44-102.21-15.75-162.09,99.43-147.48c-14.61-115.18,45.27-155.88,147.48-99.43
			c30.77-112.69,103.87-128.24,180.6-36.46c76.73-91.78,149.83-76.22,180.6,36.46c102.21-56.44,162.09-15.75,147.48,99.43
			c115.18-14.61,155.88,45.27,99.43,147.48C-4608.2,1364.51-4592.65,1437.61-4684.42,1514.35z"/>
		<g>
			<path class="st4" d="M-617.94,1405.9l-74.5,7.77l-3.88-37.25c-3.95-37.84,11.54-77.62,40.4-103.82
				c27.13-24.6,65.7-37.12,103.19-33.48c8.34,0.81,16.15,2.33,23.03,3.68c5.62,1.1,10.93,2.13,15.61,2.61
				c16.83,1.71,33.64-3.62,43.88-13.95c9.22-9.3,13.14-24.34,9.11-34.98l-13.25-35.03l70.05-26.51l13.25,35.03
				c14.42,38.1,3.98,84-25.97,114.22c-26.18,26.41-65.31,39.76-104.68,35.73c-8.07-0.82-15.65-2.3-22.34-3.61
				c-5.74-1.12-11.17-2.18-15.93-2.64c-16.83-1.63-33.89,3.74-45.62,14.4c-11.36,10.31-17.73,26.24-16.24,40.58L-617.94,1405.9z"/>
		</g>
		<g>
			<path class="st5" d="M-4417.34,3022.76l55.77,145.62l-72.81,27.88c-73.97,28.33-162.31,18.63-230.55-25.3
				c-64.09-41.3-110.06-112.12-122.93-189.48c-2.86-17.2-4.01-33.73-5.02-48.3c-0.82-11.9-1.6-23.12-3.16-32.8
				c-5.62-34.77-25.4-65.69-51.7-80.72c-23.67-13.53-56.03-13.31-75.26,0.52l-63.3,45.52l-91.05-126.59l63.3-45.52
				c68.85-49.52,166.77-53.26,243.68-9.31c67.21,38.42,115.15,109.92,128.27,191.26c2.69,16.67,3.8,32.72,4.78,46.87
				c0.84,12.16,1.63,23.63,3.27,33.45c5.79,34.73,25.79,66.13,53.54,83.99c26.85,17.29,62.32,21.52,90.35,10.78L-4417.34,3022.76z"
				/>
		</g>
		<path class="st6" d="M-4726.73-398.59l-113.12,258.45c-6,13.7-21.97,19.95-35.67,13.95l-258.45-113.12
			c-13.7-6-19.95-21.97-13.95-35.67l113.12-258.45c6-13.7,21.97-19.95,35.67-13.95l258.45,113.12
			C-4726.97-428.26-4720.73-412.29-4726.73-398.59z"/>
		<polygon class="st7" points="-357.79,-147.8 -477.3,-94.32 -412.06,19.2 -540.21,-7.84 -554.05,122.4 -641.83,25.15 
			-729.62,122.4 -743.46,-7.84 -871.62,19.2 -806.37,-94.32 -925.87,-147.8 -806.37,-201.27 -871.61,-314.8 -743.46,-287.76 
			-729.62,-418 -641.83,-320.74 -554.05,-418 -540.21,-287.75 -412.05,-314.79 -477.3,-201.27 		"/>
		<polygon class="st8" points="-3399.33,-798.09 -3464.29,-797.56 -3457.22,-732.98 -3510.1,-770.77 -3542.3,-714.32 
			-3562.85,-775.99 -3622.1,-749.25 -3602.48,-811.21 -3666.11,-824.41 -3613.87,-863.03 -3657.55,-911.11 -3592.59,-911.65 
			-3599.66,-976.23 -3546.79,-938.44 -3514.58,-994.88 -3494.03,-933.21 -3434.78,-959.95 -3454.4,-898 -3390.77,-884.79 
			-3443.01,-846.17 		"/>
		
			<ellipse transform="matrix(0.7071 -0.7071 0.7071 0.7071 168.9306 -993.4186)" class="st3" cx="-1114.7" cy="-700.63" rx="69.02" ry="69.02"/>
		<path class="st9" d="M-70.71,2722.62c-215.27,5.25-257.88,54.99-213.72,264.29c-151.68-150.82-216.6-142.09-338,35.76
			c-5.25-215.27-54.99-257.88-264.29-213.72c150.82-151.68,142.09-216.6-35.76-338c215.27-5.25,257.88-54.99,213.72-264.29
			c151.68,150.82,216.6,142.09,338-35.76c5.25,215.27,54.99,257.88,264.29,213.72C-257.29,2536.3-248.56,2601.22-70.71,2722.62z"/>
	</g>
</g>
<g>
	<g>
		<g>
			<path class="st10" d="M-2795.22,2198.57L-2795.22,2198.57c-23.1-61.33-75.01-109.91-141.41-132.35v0
				c-79.34-26.82-162.4-42.42-246.36-46.63c-30.31,64.45-80.08,119.73-141.4,156.04c-71.17,42.14-157.29,58.44-238.94,45.21
				c-38.62-6.26-76.08-18.87-111.35-35.8c-59.89-28.75-116.12-74.23-141.67-134.31c-49.19,5.9-98.12,13.63-146.62,23.42h0
				c-46.35,9.36-89.35,29.37-124.93,58.16l0,0c-68.7,55.58-103.36,138.47-92.79,221.91l94.02,742.07h1254.96l49.08-815.18
				C-2780.96,2253.12-2785.23,2225.08-2795.22,2198.57z"/>
			<path class="st11" d="M-3674.68,2185.04c35.27,16.93,72.73,29.55,111.35,35.8c81.65,13.23,167.77-3.06,238.94-45.21
				c61.32-36.31,111.09-91.59,141.4-156.04c-41.91-2.1-84.04-1.4-126.06,2.26l-155.21,13.52l-154.21,2.08
				c-66.23,0.89-132.29,5.41-197.88,13.28C-3790.81,2110.81-3734.58,2156.29-3674.68,2185.04z"/>
		</g>
		
			<rect x="-3634.29" y="1880.62" transform="matrix(-1 -1.224647e-16 1.224647e-16 -1 -6971.0044 4010.312)" class="st11" width="297.58" height="249.07"/>
		<g>
			<g>
				<path class="st12" d="M-3879.11,1553.91c-1.44,0-2.86-0.72-3.68-2.04c-16.72-26.83-26.02-58.45-26.89-91.44
					c-0.88-32.99,6.73-65.06,21.99-92.74c15.27-27.68,38.33-51.23,66.69-68.09c28.37-16.86,60.07-25.87,91.68-26.05
					c0.01,0,0.02,0,0.03,0c2.38,0,4.31,1.92,4.33,4.3c0.01,2.39-1.91,4.34-4.3,4.35c-60.84,0.35-121.46,36.39-150.85,89.67
					c-29.38,53.28-27.5,123.78,4.67,175.42c1.26,2.03,0.64,4.7-1.39,5.96C-3877.54,1553.69-3878.33,1553.91-3879.11,1553.91z"/>
			</g>
			<g>
				<path class="st12" d="M-3206.76,1621.51c-0.43,0-0.87-0.07-1.31-0.2c-2.28-0.72-3.54-3.15-2.82-5.43
					c15.09-47.71,17.62-94.75,7.33-136.04c-11.73-47.08-40.31-86.25-78.4-107.46c-2.09-1.16-2.84-3.8-1.68-5.89
					c1.16-2.09,3.8-2.84,5.89-1.68c40.18,22.37,70.28,63.53,82.59,112.93c10.68,42.84,8.09,91.5-7.48,140.74
					C-3203.22,1620.33-3204.93,1621.51-3206.76,1621.51z"/>
			</g>
			<path class="st12" d="M-3222.66,1411.99c8.42-116.53-103.77-189.92-204.87-210.11c-60.92-12.17-148.84-15.49-208.49,9.08
				c-38.48,12.01-95.82,55.99-95.82,55.99c-79.85,22.4-142.47,84.77-162.35,152.58c-31.8,108.42,7.74,218.65,76.75,304.38
				l282.69-69.53l308.89-20.81C-3197.48,1563.33-3196.84,1483.41-3222.66,1411.99z"/>
			<g>
				<path class="st11" d="M-3796.27,1469.87c34.79-93.11,114.62-176.15,214.98-186.08c98.94-19.56,199.39,36.8,259.65,115.85
					c58.57,76.83,78.39,178.5,77.68,273.56c-0.55,73.32-13.06,147.37-50.26,207.13c-36.5,58.63-111.1,118.33-180.07,126.64
					c-68.42,12.01-157.12-23.52-209.03-69.07c-52.91-46.43-86.33-113.68-108.09-183.71
					C-3819.61,1663.42-3830.08,1560.37-3796.27,1469.87z"/>
			</g>
			<g>
				<path class="st11" d="M-3259.12,1770.68c24.19-0.91,47.36-13.24,63.3-32.01c15.94-18.77,24.78-43.58,26.11-68.72
					c1.04-19.64-2.87-40.65-15.65-55.32c-18.04-20.72-52.6-22.33-71.89-3.35C-3259.09,1663.74-3257.28,1718.21-3259.12,1770.68z"/>
				<path class="st11" d="M-3748.66,1843.11c-23.42,6.14-49.16,1.04-69.86-12.31c-20.69-13.35-36.34-34.54-44.89-58.21
					c-6.68-18.5-9.02-39.74-1.04-57.49c11.26-25.05,43.88-36.6,67.84-24.03C-3779.65,1740.76-3765.62,1793.43-3748.66,1843.11z"/>
			</g>
			<path class="st12" d="M-3383.71,1635.07c-1.31,11.86-6.6,24.59-19.95,18.25c-10.97-5.21-17.41-18.21-20.24-29.58
				c-2.63-10.59-3.86-27.44,3.19-34.6c4.71-4.78,13.26-4.07,19.66,0.38c12.01,8.37,17.27,24.34,17.66,37.71
				C-3383.32,1629.63-3383.41,1632.32-3383.71,1635.07z"/>
			<path class="st12" d="M-3606.15,1672.19c-1.31,11.86-6.6,24.59-19.95,18.25c-10.97-5.21-17.41-18.21-20.24-29.58
				c-2.63-10.59-3.86-27.44,3.19-34.6c4.71-4.78,13.26-4.07,19.66,0.38c12.01,8.37,17.27,24.34,17.66,37.71
				C-3605.76,1666.76-3605.85,1669.45-3606.15,1672.19z"/>
			<g>
				<path class="st13" d="M-3238.78,1740.3c-2,0-3.8-1.39-4.23-3.43c-0.5-2.34,1-4.64,3.33-5.13c5.49-1.16,10.26-5.33,12.16-10.61
					c1.9-5.28,0.87-11.53-2.61-15.92c-1.59-2-3.45-3.3-5.25-3.66c-0.55-0.11-1.62-0.32-2.15-0.34c-0.04,0.05-0.08,0.12-0.14,0.2
					c-0.99,1.56-2.86,2.31-4.66,1.88c-1.79-0.43-3.12-1.95-3.3-3.78c-2.06-20.87-1.79-38.98,0.81-53.85
					c2.54-14.54,15.07-26.33,29.14-27.42c15.08-1.17,29.5,10.55,30.87,25.09c0.22,2.38-1.52,4.49-3.9,4.72
					c-2.37,0.22-4.49-1.52-4.72-3.9c-0.93-9.84-11.21-18.08-21.58-17.27c-10.08,0.78-19.43,9.69-21.28,20.28
					c-2.21,12.65-2.64,27.9-1.27,45.41c1.4,0.01,2.72,0.27,3.85,0.49c4.88,0.96,8.32,4.21,10.35,6.77
					c5.31,6.69,6.87,16.2,3.98,24.24c-2.89,8.03-10.16,14.37-18.51,16.14C-3238.18,1740.27-3238.48,1740.3-3238.78,1740.3z"/>
			</g>
			<g>
				<path class="st13" d="M-3775.99,1819.61c-7.86,0-15.69-3.86-20.39-10.18c-5.09-6.85-6.35-16.41-3.21-24.35
					c1.2-3.03,3.55-7.14,7.95-9.47c1.01-0.54,2.21-1.17,3.54-1.58c-3.76-17.16-8.58-31.63-14.36-43.1
					c-4.84-9.6-16.37-15.42-26.24-13.25c-10.16,2.23-17.62,13.09-15.66,22.78c0.47,2.34-1.04,4.63-3.38,5.1
					c-2.34,0.47-4.63-1.04-5.1-3.38c-2.9-14.31,7.51-29.71,22.29-32.95c13.78-3.02,29.19,4.63,35.83,17.81
					c6.8,13.48,12.3,30.74,16.37,51.31c0.36,1.81-0.47,3.65-2.06,4.58c-1.59,0.93-3.6,0.75-5-0.45c-0.08-0.07-0.14-0.12-0.19-0.15
					c-0.5,0.17-1.46,0.68-1.96,0.94c-1.62,0.86-3.02,2.64-3.96,5.02c-2.06,5.22-1.24,11.5,2.11,16c3.35,4.5,9.12,7.11,14.71,6.63
					c2.38-0.21,4.48,1.57,4.68,3.95c0.2,2.38-1.57,4.48-3.95,4.68C-3774.66,1819.58-3775.32,1819.61-3775.99,1819.61z
					 M-3785.78,1782.21L-3785.78,1782.21L-3785.78,1782.21z"/>
			</g>
			<path class="st12" d="M-3825.81,1653c14.51,27.88,29.01,55.76,43.52,83.65c-5.97-30.32-13.44-63.51-20.97-93.47
				c33.84-75.46,75.13-152.4,123.47-219.49c28.89,40.28,72.62,72.13,118.93,89.81s96.86,23.1,146.25,18.86
				c39.91,26.73,94.41,30.09,139.9,14.66c4.35,9.1,9.48,18.93,14.52,27.67c0,0,3.87,42.79,6.93,83.81
				c14.98-45.81,22.7-66.42,29.97-101.15c8.51-40.64-21.34-83.53-35.23-122.66c-9.38-26.41-20.72-52.67-38.9-73.99
				c-10.84-12.71-23.88-23.38-37.41-33.17c-74.6-53.93-170.97-82.58-260.58-61.54c-55.19,12.95-105.33,44.03-144.81,84.71
				c-39.48,40.68-68.62,90.68-88.9,143.62c-9.38,24.51-16.99,50.02-18.27,76.24S-3837.92,1629.72-3825.81,1653z"/>
			<g>
				<path class="st13" d="M-3468.55,1784.63c-0.55,0-1.11-0.11-1.65-0.33c-2.21-0.91-3.26-3.44-2.35-5.65l15.1-36.59
					c-27.38-30.38-45.59-59.9-55.65-90.18c-12.45-37.49-11.4-76.95,2.9-108.29c0.99-2.18,3.56-3.14,5.73-2.14
					c2.17,0.99,3.13,3.56,2.14,5.73c-13.4,29.37-14.33,66.53-2.56,101.97c9.89,29.78,28.1,58.92,55.67,89.11
					c1.13,1.24,1.45,3.02,0.81,4.57l-16.15,39.12C-3465.24,1783.62-3466.85,1784.63-3468.55,1784.63z"/>
			</g>
			<g>
				<path class="st12" d="M-3511.48,1542.34c-25.25,0-50.48-4.89-73.72-14.72c-49.13-20.78-88.67-63.37-105.75-113.91
					c-0.77-2.26,0.45-4.72,2.71-5.49c2.27-0.76,4.72,0.45,5.49,2.71c16.3,48.23,54.03,88.87,100.92,108.71
					c46.89,19.84,102.33,18.6,148.29-3.29c2.16-1.03,4.74-0.11,5.77,2.05c1.03,2.16,0.11,4.74-2.05,5.77
					C-3455.2,1536.26-3483.34,1542.34-3511.48,1542.34z"/>
			</g>
			<g>
				<path class="st13" d="M-3502.48,2013.64c-42.07,0-90.79-13.75-135.65-38.92c-2.08-1.17-2.83-3.81-1.66-5.89
					c1.17-2.08,3.81-2.83,5.89-1.66c53.93,30.26,113.32,43.54,158.87,35.55c0.08-0.01,0.15-0.02,0.23-0.03
					c37.04-4.47,78.45-24.54,116.59-56.52c1.83-1.54,4.56-1.3,6.1,0.54c1.54,1.83,1.3,4.56-0.54,6.1
					c-39.38,33.01-82.34,53.77-121,58.47C-3482.79,2012.85-3492.45,2013.64-3502.48,2013.64z"/>
			</g>
			<g>
				<path class="st12" d="M-3717.27,1606.84c-0.36,0-0.72-0.04-1.09-0.14c-2.31-0.6-3.71-2.96-3.11-5.27
					c5.49-21.25,18.18-40.21,35.72-53.39c17.54-13.18,39.28-20.1,61.22-19.46c2.39,0.07,4.27,2.06,4.2,4.45
					c-0.07,2.39-2.05,4.31-4.45,4.2c-19.98-0.58-39.79,5.72-55.77,17.73c-15.98,12.01-27.54,29.28-32.54,48.64
					C-3713.58,1605.54-3715.34,1606.84-3717.27,1606.84z"/>
			</g>
			<g>
				<path class="st14" d="M-3532.54,1845.92c-0.71,0-1.42-0.17-2.09-0.54c-2.09-1.15-2.85-3.79-1.7-5.88
					c7.04-12.76,20.37-21.96,34.79-24.02c14.43-2.06,29.8,3.05,40.12,13.34c1.69,1.69,1.7,4.43,0.01,6.12
					c-1.69,1.69-4.43,1.7-6.12,0.01c-8.44-8.4-21-12.58-32.79-10.9c-11.79,1.68-22.68,9.2-28.43,19.63
					C-3529.54,1845.12-3531.02,1845.92-3532.54,1845.92z"/>
			</g>
			<g>
				<path class="st12" d="M-3281.69,1298.03c-1.66,0-3.23-0.95-3.95-2.56c-20.26-45.33-62.12-81.95-114.83-100.49
					c-45.83-16.11-98.36-18.97-156.16-8.5c-76.35,13.84-138.85,48.54-175.97,97.72c-1.44,1.91-4.15,2.29-6.06,0.85
					c-1.91-1.44-2.29-4.15-0.85-6.06c38.44-50.92,102.83-86.8,181.33-101.03c59.29-10.74,113.31-7.76,160.57,8.86
					c54.95,19.32,98.64,57.64,119.87,105.12c0.98,2.18,0,4.74-2.19,5.72C-3280.5,1297.91-3281.1,1298.03-3281.69,1298.03z"/>
			</g>
		</g>
		<g>
			<path class="st11" d="M-3316.14,2129.69c0.25-26.05-6.33-54.16-8.88-79.5c-2.55-25.34-5.38-43.52,4.62-66.95
				c6.86-16.08,19.51-28.88,29.05-43.53c3.03-4.65,5.83-9.8,5.81-15.35c-0.03-12.27-14.04-20.4-26.29-19.72
				c-17.25,0.95-31.46,13.26-44.19,24.93c-21.49,19.68-43.92,51.16-71.83,59.54c-29.14,8.75-60.86,9.24-91.53,5.5
				c-32.09-3.91-61.25-6.63-86.84-27.17c-23.8-19.1-42.04-42.16-58.03-67.93c-9.58-15.45-39.68-55.43-61.19-37.96
				c-19.03,15.45,4.07,41.23,7.69,57.58c5.44,24.61,18.47,47.77,31.28,69.88c11.07,19.1,22.28,38.41,37.58,54.33
				c13.95,14.52,30.87,25.79,47.77,36.74c24.29,15.75,48.94,30.95,73.73,45.89c23.66,20.73,47.4,41.18,71.91,61.91l77.46,159.89
				l160.09-58.94L-3316.14,2129.69z"/>
			<g>
				<path class="st13" d="M-3484.74,2001.13c-11.25,0-22.98-0.74-35.17-2.23l-4.2-0.51c-30.54-3.69-59.39-7.17-84.82-27.58
					c-21.98-17.64-40.73-39.57-59-69.03c-8.44-13.6-26.97-37.32-42.93-40.01c-4.46-0.75-8.33,0.27-11.85,3.12
					c-1.69,1.37-2.84,3.03-4.06,4.78l-0.41,0.58c-2.69,3.84,2.13,23.87,16.09,42.31c1.44,1.91,1.07,4.62-0.84,6.06
					c-1.91,1.44-4.62,1.07-6.06-0.84c-13.31-17.58-23.02-42.87-16.28-52.5l0.39-0.56c1.44-2.07,3.07-4.42,5.71-6.56
					c5.48-4.45,11.78-6.11,18.74-4.94c23.4,3.94,46.32,39.9,48.85,43.98c17.74,28.6,35.87,49.83,57.06,66.84
					c23.5,18.86,49.89,22.05,80.44,25.74l4.21,0.51c33.96,4.14,64.16,2.34,89.76-5.35c19.21-5.77,35.92-23.36,52.08-40.38
					c6.23-6.56,12.11-12.75,18.07-18.21c14.37-13.16,28.77-25.06,46.88-26.06c2.86-0.16,5.79,0.09,8.73,0.74
					c2.33,0.51,3.81,2.82,3.3,5.16c-0.51,2.34-2.83,3.81-5.16,3.3c-2.17-0.48-4.32-0.67-6.39-0.55
					c-15.25,0.84-28.34,11.73-41.51,23.8c-5.74,5.26-11.52,11.34-17.64,17.79c-16.94,17.83-34.46,36.28-55.87,42.71
					C-3444.09,1998.5-3463.55,2001.13-3484.74,2001.13z"/>
			</g>
			<g>
				<path class="st13" d="M-3521.15,2087.22c-0.62,0-1.25-0.13-1.84-0.41l-90.61-42.7c-10.41-4.91-19.54-12.38-26.41-21.6
					l-78-104.74c-1.43-1.92-1.03-4.63,0.89-6.06c1.92-1.43,4.63-1.03,6.06,0.89l78,104.74c6.02,8.09,14.03,14.64,23.16,18.94
					l90.61,42.7c2.16,1.02,3.09,3.6,2.07,5.76C-3517.97,2086.31-3519.52,2087.22-3521.15,2087.22z"/>
			</g>
			<g>
				<path class="st13" d="M-3440.37,2223.4c-1.61,0-3.15-0.9-3.9-2.44l-14.74-30.43l-64.76-57.39l-112.87-72.85
					c-0.2-0.13-0.39-0.28-0.57-0.44c-17.92-16.35-32.86-35.45-44.42-56.78l-27.9-51.5c-5.96-11-11.09-22.57-15.24-34.38l-7.08-20.15
					c-0.79-2.25,0.39-4.73,2.65-5.52c2.26-0.79,4.73,0.39,5.52,2.65l7.08,20.15c4,11.38,8.94,22.52,14.69,33.12l27.9,51.5
					c11.04,20.37,25.29,38.63,42.38,54.27l112.84,72.83c0.18,0.12,0.36,0.25,0.52,0.4l65.65,58.18c0.43,0.38,0.78,0.84,1.02,1.35
					l15.12,31.21c1.04,2.15,0.14,4.74-2.01,5.78C-3439.1,2223.26-3439.74,2223.4-3440.37,2223.4z"/>
			</g>
			<g>
				<path class="st13" d="M-3290.78,2174.56c-1.51,0-2.98-0.79-3.78-2.21c-7.97-14.2-17.81-28.42-27.24-41.68
					c-0.58-0.81-0.86-1.79-0.79-2.78c1.2-18.97-1.26-38.33-3.65-57.04l-5.99-47.01c-0.3-2.37,1.38-4.54,3.75-4.84
					c2.37-0.3,4.54,1.38,4.84,3.75l5.99,47.01c2.37,18.62,4.82,37.86,3.79,57.14c9.3,13.1,18.93,27.11,26.85,41.22
					c1.17,2.08,0.43,4.72-1.65,5.89C-3289.34,2174.39-3290.07,2174.56-3290.78,2174.56z"/>
			</g>
		</g>
		<polygon class="st10" points="-3270.52,2114.95 -3492.9,2191.04 -3250.52,3078.62 -2848.68,3007.89 		"/>
		<g>
			<path class="st12" d="M-3255.38,3065.17c-1.9,0-3.65-1.26-4.17-3.19l-236.59-866.4c-0.63-2.31,0.73-4.69,3.04-5.32
				c2.31-0.62,4.69,0.73,5.32,3.04l236.59,866.4c0.63,2.31-0.73,4.69-3.04,5.32C-3254.62,3065.12-3255.01,3065.17-3255.38,3065.17z"
				/>
		</g>
		<g>
			<path class="st12" d="M-3822.99,2951.81c-2.13,0-3.98-1.57-4.28-3.74l-91.24-658.66c-0.33-2.37,1.33-4.55,3.69-4.88
				c2.36-0.34,4.55,1.33,4.88,3.69l91.24,658.66c0.33,2.37-1.33,4.55-3.69,4.88C-3822.6,2951.79-3822.8,2951.81-3822.99,2951.81z"/>
		</g>
		<g>
			<path class="st12" d="M-3877.79,2962.12c-2.2,0-4.08-1.67-4.3-3.9c-0.24-2.38,1.5-4.5,3.88-4.73l578.63-57.26
				c2.38-0.23,4.5,1.5,4.73,3.88c0.24,2.38-1.5,4.5-3.88,4.73l-578.63,57.26C-3877.5,2962.11-3877.65,2962.12-3877.79,2962.12z"/>
		</g>
		<path class="st11" d="M-2880,2935.45c14.86,0.24,28.21,9.03,39.35,18.87c4.65,4.11,9.18,8.52,14.73,11.27s12.5,3.61,17.84,0.46
			c3.96-2.34,6.51-6.54,7.92-10.92c3.26-10.09,0.89-21.8-6.03-29.84c4.29-0.06,5.46-7.5,6.68-11.61c5.38-18.08-11.2-32.3-17.15-50.2
			c-13.23-39.79-83.03-65.99-134.3-73.3L-2880,2935.45z"/>
		<g>
			<path class="st13" d="M-2808.28,2929.47c-1.28,0-2.54-0.56-3.4-1.64c-14.72-18.61-35.5-34.9-63.52-49.8
				c-13.58-7.22-27.77-13.6-42.18-18.95c-2.24-0.83-3.38-3.32-2.55-5.57c0.83-2.24,3.32-3.38,5.56-2.55
				c14.77,5.49,29.31,12.02,43.23,19.42c29.1,15.47,50.77,32.51,66.25,52.07c1.48,1.88,1.17,4.6-0.71,6.08
				C-2806.39,2929.16-2807.34,2929.47-2808.28,2929.47z"/>
		</g>
		<g>
			<path class="st13" d="M-2821.31,2867.32c-1.06,0-2.13-0.39-2.96-1.17c-31.59-29.67-70.32-50.64-112.36-60.87
				c-1.39,0.86-3.22,0.9-4.67-0.07l-3-1.98c-1.74-1.15-2.42-3.37-1.61-5.29c0.81-1.92,2.87-2.99,4.91-2.55
				c45.97,9.96,88.38,32.24,122.66,64.44c1.74,1.64,1.83,4.38,0.19,6.12C-2819.01,2866.86-2820.16,2867.32-2821.31,2867.32z"/>
		</g>
		<g>
			<path class="st12" d="M-2877.22,2951.81c-1.62,0-3.17-0.91-3.91-2.47l-393.25-828.85c-1.02-2.16-0.1-4.74,2.06-5.77
				c2.16-1.03,4.74-0.1,5.77,2.06l393.25,828.85c1.02,2.16,0.1,4.74-2.06,5.77C-2875.96,2951.67-2876.59,2951.81-2877.22,2951.81z"
				/>
		</g>
		<g>
			<path class="st12" d="M-2979.73,2735.73c-0.15,0-0.29-0.01-0.44-0.02c-2.38-0.24-4.11-2.37-3.87-4.75l50.39-495.22
				c0.24-2.38,2.36-4.1,4.74-3.87c2.38,0.24,4.11,2.37,3.87,4.75l-50.39,495.22C-2975.66,2734.07-2977.54,2735.73-2979.73,2735.73z"
				/>
		</g>
	</g>
	<g>
		<g>
			<path class="st12" d="M-1277.99,2793.13c-13.93,0-28.34-4.29-41.01-12.52c-18.9-12.28-31.36-31.67-33.32-51.86
				c-3.68-37.91,21.33-68.97,45.53-99c3.51-4.35,7.13-8.86,10.54-13.23c25.36-32.57,55.7-84.04,56.23-144.26
				c0.48-55.76-27.12-107.01-70.32-130.57c-14.44-7.88-30.7-12.82-46.42-17.59c-9.49-2.89-19.31-5.87-28.77-9.49
				c-22.57-8.64-51.41-25.13-60.69-54.59c-0.72-2.28,0.55-4.71,2.83-5.43c2.28-0.72,4.71,0.55,5.43,2.83
				c8.24,26.16,34.74,41.14,55.53,49.1c9.18,3.52,18.84,6.45,28.19,9.29c16.14,4.91,32.83,9.98,48.05,18.28
				c23.19,12.64,42.5,32.89,55.84,58.55c12.67,24.36,19.24,51.92,18.99,79.69c-0.54,62.65-31.87,115.88-58.05,149.5
				c-3.45,4.43-7.1,8.96-10.63,13.34c-23.1,28.68-46.99,58.34-43.65,92.74c1.71,17.6,12.71,34.58,29.42,45.44s36.7,14,53.48,8.42
				c2.27-0.76,4.72,0.47,5.47,2.74c0.76,2.27-0.47,4.72-2.74,5.47C-1264.41,2792.09-1271.14,2793.13-1277.99,2793.13z"/>
		</g>
		<g>
			<path class="st12" d="M-1474.1,2195.37c-0.5,0-1-0.09-1.49-0.27c-2.25-0.82-3.4-3.31-2.58-5.55
				c17.3-47.22,13.26-101.76-10.83-145.91c-24.08-44.15-67.75-77.08-116.82-88.09c-7.51-1.69-15.34-2.92-22.91-4.11
				c-13.56-2.14-27.58-4.35-40.84-9.26c-45.89-16.99-76.38-68.23-69.41-116.67c0.34-2.37,2.54-4.01,4.9-3.67
				c2.37,0.34,4.01,2.53,3.67,4.9c-6.41,44.55,21.64,91.69,63.85,107.31c12.46,4.61,25.44,6.66,39.18,8.82
				c7.71,1.21,15.67,2.47,23.46,4.22c51.46,11.55,97.27,46.09,122.53,92.39c25.26,46.3,29.5,103.51,11.36,153.03
				C-1470.68,2194.28-1472.34,2195.37-1474.1,2195.37z"/>
		</g>
		<path class="st12" d="M-1731.75,1767.8c-24.6,71.62,15.37,159.06,85.63,187.32c31.42,12.64,67.75,14.97,94.46,35.8
			c33.79,26.36,41.61,73.73,43.84,116.52c2.22,42.8,2.33,88.83,27.24,123.69c32.55,45.56,95.44,56.02,140.38,89.43
			c72.1,53.59,85.76,162.25,49.89,244.62c-13.25,30.44-32.06,58.31-44.11,89.25c-12.05,30.94-16.66,67.15-1.21,96.54
			c15.45,29.39,56.12,46.34,83.81,28.03c-16.12,42-66.33,71.14-109.3,84.46c-53.68,16.64-109.17,27.47-165.17,32.24
			c-29.27,2.49-59.14,3.28-87.63-3.89c-22.49-5.66-43.49-16.14-63.43-27.99c-162.06-96.31-253.72-280.23-294.27-464.33
			c-24.82-112.72-33.52-231.71-1.81-342.69C-1941.73,1945.82-1839.49,1809.21-1731.75,1767.8z"/>
		<rect x="-2185.68" y="1907.86" class="st11" width="249.07" height="249.07"/>
		<g>
			<path class="st15" d="M-1460.22,2132.32c-34.45-28.79-76.08-48.81-120.95-58.16l0,0c-43.23-9.01-86.81-16.32-130.6-22.04
				c-60.74,115.09-194.33,194.97-330.96,191.29c-141.53-3.82-274.41-96.99-324.41-221.65c-70.74,6.21-140.55,21.06-207.62,44.48
				c-64.28,22.44-114.53,71.02-136.9,132.35c-9.67,26.51-13.8,54.55-12.17,82.55l47.51,815.18h1214.91l91.02-742.07
				C-1360.15,2270.79-1393.71,2187.89-1460.22,2132.32z"/>
			<path class="st11" d="M-2042.72,2243.4c136.63,3.69,270.21-76.2,330.96-191.29c-67.22-8.78-134.98-13.72-202.91-14.67
				l-149.28-2.08l-150.26-13.52c-51.01-4.59-102.2-4.55-152.92-0.1C-2317.13,2146.42-2184.25,2239.59-2042.72,2243.4z"/>
		</g>
		<g>
			<g>
				<path class="st12" d="M-2326.61,1634.31c-1.74,0-3.37-1.05-4.04-2.77c-18.16-46.93-23.33-99.16-14.95-151.03
					c8.38-51.87,29.72-99.81,61.73-138.64c32.01-38.83,74.99-68.94,124.31-87.07s101.57-23.02,151.1-14.16
					c2.35,0.42,3.92,2.67,3.5,5.02c-0.42,2.35-2.67,3.92-5.02,3.5c-98.61-17.64-203.49,20.91-267.21,98.21
					c-63.71,77.3-81.53,187.62-45.39,281.04c0.86,2.23-0.25,4.74-2.48,5.6C-2325.56,1634.21-2326.09,1634.31-2326.61,1634.31z"/>
			</g>
			<path class="st12" d="M-1658.36,1467.51c-34.03-111.76-135.67-194.54-254.6-220.28l0,0c-0.12-0.03-0.25-0.06-0.38-0.09
				c-0.13-0.03-0.25-0.07-0.38-0.09l0,0c-117.56-31.38-245.78-4.12-327.07,79.78c-78.13,80.64-106.38,201.02-75.77,306.05
				l298.74,46.82l287.17,94.69C-1655.47,1694.92-1625.65,1574.92-1658.36,1467.51z"/>
			<path class="st11" d="M-1732.78,1521.38c-26.27-95.86-98.3-185.75-197.36-204.67c-96.77-28.38-201.89,18.71-269.02,92.02
				c-65.25,71.25-94.14,170.72-101.98,265.46c-6.05,73.08-0.26,147.95,31.42,210.82c31.07,61.68,100,127.84,167.95,142.33
				c67.06,18.12,158.6-9.29,214.4-49.98c56.88-41.48,96.21-105.45,124.18-173.24C-1726.95,1716.25-1707.25,1614.56-1732.78,1521.38z
				"/>
			<g>
				<path class="st11" d="M-2294.82,1772.65c-24.01-3.08-45.98-17.45-60.16-37.57c-14.19-20.13-20.76-45.64-19.82-70.79
					c0.73-19.65,6.52-40.22,20.56-53.69c19.83-19.01,54.39-17.51,71.9,3.13C-2285.22,1666.14-2291.93,1720.23-2294.82,1772.65z"/>
				<path class="st11" d="M-1813.78,1888.83c22.77,8.22,48.87,5.46,70.68-5.97s39.3-31.13,49.95-53.94
					c8.32-17.82,12.56-38.76,6.21-57.16c-8.96-25.97-40.4-40.4-65.4-30.03C-1773.7,1789.69-1792.42,1840.88-1813.78,1888.83z"/>
			</g>
			<g>
				<path class="st13" d="M-2062.94,1794.23c-2.06,0-3.89-1.48-4.26-3.58c-1.17-6.65-1.91-13.63-2.63-20.38
					c-0.71-6.61-1.43-13.44-2.55-19.8c-0.21-1.19,0.09-2.42,0.82-3.38c40.44-52.96,45.43-117.45,13.67-176.95
					c-1.13-2.11-0.33-4.73,1.78-5.86c2.11-1.13,4.73-0.33,5.86,1.78c16.29,30.52,23.62,63.52,21.21,95.43
					c-2.38,31.5-14.3,62.36-34.5,89.35c0.99,6.08,1.66,12.39,2.32,18.51c0.71,6.61,1.43,13.44,2.55,19.8
					c0.41,2.35-1.16,4.6-3.51,5.01C-2062.44,1794.21-2062.69,1794.23-2062.94,1794.23z"/>
			</g>
			<path class="st12" d="M-2148.71,1658.5c1.86,12.29,7.62,25.73,20.31,19.98c10.42-4.73,16.06-17.74,18.25-29.28
				c2.04-10.76,2.41-28.05-4.8-35.85c-4.82-5.21-13.1-4.98-19.12-0.76c-11.28,7.91-15.61,24.06-15.34,37.82
				C-2149.36,1652.87-2149.14,1655.65-2148.71,1658.5z"/>
			<path class="st12" d="M-1921.61,1713.35c1.86,12.29,7.62,25.73,20.31,19.98c10.42-4.73,16.06-17.74,18.25-29.28
				c2.04-10.76,2.41-28.05-4.8-35.85c-4.82-5.21-13.1-4.98-19.12-0.76c-11.28,7.91-15.61,24.06-15.34,37.82
				C-1922.26,1707.72-1922.04,1710.5-1921.61,1713.35z"/>
			<g>
				<path class="st13" d="M-2311.95,1740.58c-0.42,0-0.85-0.06-1.28-0.19c-8.16-2.52-14.82-9.48-16.98-17.74
					c-2.16-8.26,0.25-17.6,6.14-23.78c2.25-2.36,5.97-5.29,10.92-5.81c1.14-0.12,2.48-0.26,3.88-0.14
					c2.94-17.31,3.89-32.54,2.83-45.34c-0.89-10.71-9.4-20.43-19.37-22.12c-10.24-1.74-21.24,5.54-23.05,15.25
					c-0.44,2.35-2.7,3.9-5.05,3.46c-2.35-0.44-3.9-2.7-3.46-5.05c2.67-14.35,18.09-24.73,33-22.21
					c13.91,2.35,25.33,15.22,26.55,29.93c1.25,15.05-0.11,33.12-4.04,53.71c-0.35,1.81-1.8,3.21-3.63,3.47
					c-1.82,0.26-3.62-0.66-4.47-2.29c-0.05-0.09-0.09-0.16-0.12-0.21c-0.52-0.02-1.61,0.08-2.17,0.14
					c-1.82,0.19-3.79,1.32-5.55,3.17c-3.87,4.06-5.45,10.2-4.03,15.62c1.42,5.43,5.8,10,11.16,11.66c2.29,0.7,3.57,3.13,2.86,5.41
					C-2308.39,1739.38-2310.1,1740.58-2311.95,1740.58z"/>
			</g>
			<g>
				<path class="st13" d="M-1782.25,1867.99c-1.4,0-2.8-0.12-4.18-0.36c-2.35-0.42-3.92-2.66-3.51-5.02
					c0.42-2.35,2.66-3.92,5.02-3.51c5.52,0.97,11.51-1.1,15.25-5.28c3.74-4.18,5.13-10.36,3.54-15.74c-0.72-2.45-1.97-4.35-3.5-5.36
					c-0.47-0.31-1.38-0.9-1.86-1.12c-0.05,0.03-0.12,0.08-0.21,0.14c-1.5,1.07-3.52,1.07-5.02,0c-1.5-1.07-2.16-2.97-1.64-4.75
					c5.9-20.12,12.94-36.81,20.92-49.63c7.8-12.53,23.83-18.77,37.29-14.51c14.42,4.56,23.41,20.83,19.23,34.82
					c-0.68,2.29-3.09,3.59-5.39,2.91c-2.29-0.68-3.59-3.09-2.91-5.39c2.83-9.47-3.63-20.96-13.54-24.09
					c-9.64-3.05-21.65,1.71-27.33,10.84c-6.79,10.9-12.9,24.89-18.18,41.63c1.29,0.53,2.42,1.27,3.38,1.9
					c4.17,2.72,6.14,7.02,7.06,10.15c2.42,8.19,0.3,17.59-5.39,23.96C-1767.98,1864.91-1775.12,1867.99-1782.25,1867.99z"/>
			</g>
			<path class="st12" d="M-1702.6,1458.2c17.55,30.96,24.13,67.32,22.97,102.89s-9.77,70.53-21.01,104.29
				c-14.86,44.65-39.59,86.74-74.17,118.8c10.5-26.5,24.53-63.7,30.82-93.38c-112.8-94.21-158.23-184.03-178.3-306.6
				c-112.22-4.42-228.44,60.39-307.9,139.99c-10.95,10.97-25.62,24.54-30.96,39.09c-11.93,32.48-22.69,62.5-27.72,96.73
				c-7.14-28.04-9.43-57.3-6.75-86.11c4.39-47.05,24.95-98.1,46.54-140.14c11.15-21.71,23.24-43.07,38.45-62.16
				c62.16-78.01,172.69-108.14,270.37-87.93S-1751.78,1371.41-1702.6,1458.2z"/>
			<g>
				<path class="st12" d="M-2073.5,1554.62c-0.85,0-1.71-0.25-2.46-0.77c-33.08-22.95-80.38-24.67-115.03-4.19
					c-2.06,1.21-4.71,0.53-5.93-1.52c-1.22-2.06-0.53-4.71,1.52-5.93c18.53-10.95,40.27-16.3,62.83-15.49
					c22.58,0.82,43.86,7.74,61.54,20.01c1.96,1.36,2.45,4.06,1.09,6.02C-2070.78,1553.97-2072.13,1554.62-2073.5,1554.62z"/>
			</g>
			<g>
				<path class="st12" d="M-1826.36,1638.87c-1.44,0-2.84-0.71-3.66-2.02c-21.48-34.04-64.35-54.09-104.26-48.78
					c-2.36,0.32-4.55-1.35-4.86-3.72c-0.32-2.37,1.35-4.55,3.72-4.86c21.33-2.85,43.43,0.71,63.89,10.28
					c20.46,9.57,37.35,24.25,48.84,42.46c1.28,2.02,0.67,4.69-1.35,5.97C-1824.77,1638.65-1825.57,1638.87-1826.36,1638.87z"/>
			</g>
			<g>
				<path class="st12" d="M-1726.76,1690.08c-0.26,0-0.52-0.02-0.79-0.07c-64.98-11.99-124.83-58.05-160.1-123.22
					c-30.02-55.46-43.25-125.02-38.25-201.14c0.16-2.38,2.19-4.19,4.6-4.04c2.38,0.16,4.19,2.22,4.04,4.6
					c-4.89,74.49,7.98,142.43,37.22,196.45c34.04,62.89,91.63,107.31,154.06,118.83c2.35,0.43,3.91,2.69,3.47,5.04
					C-1722.89,1688.62-1724.72,1690.08-1726.76,1690.08z"/>
			</g>
			<path class="st16" d="M-2048.92,1883.82c3.98-9.28,5.17-21.27,2.81-32.19c-4.77-22.07-21.96-34.98-35.19-13.52
				c-8.14,13.22-15.05,42.29-5.16,54.81C-2076.54,1905.48-2056.45,1901.39-2048.92,1883.82z"/>
			<g>
				<path class="st13" d="M-2051.27,2038.15c-17.84,0-35.14-2.19-51.54-6.61c-22.22-4.79-63.57-28.46-82.36-40.33
					c-2.02-1.28-2.62-3.95-1.35-5.97c1.28-2.02,3.95-2.62,5.97-1.35c21.35,13.48,60.18,35.05,79.65,39.21
					c0.08,0.02,0.15,0.03,0.23,0.05c49,13.24,106.67,5.59,162.39-21.56c2.15-1.04,4.74-0.15,5.79,2c1.05,2.15,0.15,4.74-2,5.79
					C-1973.53,2028.42-2013.6,2038.15-2051.27,2038.15z"/>
			</g>
		</g>
		<path class="st11" d="M-1772.13,2161.16c-15.22-31.97-37.51-66.7-32.28-102.99c4.71-32.7,20.77-61.09,34.23-90.08
			c24.67-53.15,41.72-113.12,39.29-173.91c-0.57-14.24-2.58-29.43-10.67-39.85c-8.09-10.43-25.63-12.54-29.53,0.93
			c-19.46,67.22-63.02,120.4-109.87,163.94c-26.35,24.49-55.07,47.94-71.19,82.98c-16.63,36.15-17.05,82.36-1.09,118.95
			c20.61,47.25,25.73,101.24,38.77,152.23C-1855.29,2256.55-1811.72,2216.62-1772.13,2161.16z"/>
		<g>
			<path class="st13" d="M-1922.29,2240.51c-2.16,0-4.02-1.61-4.29-3.8c-3.98-32.43-11.81-63.96-23.27-93.69
				c-9.2-23.86-21.28-59.25-19.99-90.96c1.32-32.24,12.71-61.69,31.26-80.77c15.12-15.56,30.41-30.87,45.19-45.67
				c12.68-12.7,25.79-25.83,38.77-39.09c14.02-14.33,27.07-31.33,39.68-47.78l4.06-5.29c7.81-10.16,15.27-20.23,20.56-31.67
				c2.64-5.71,4.25-13.05,5.95-20.81c3.92-17.9,8.79-40.18,31.14-38.75c9.71,0.63,18.89,8.01,22.84,18.36
				c2.34,6.13,2.86,12.88,3.32,18.84c1.12,14.47,2.28,29.44,0.1,44.28c-0.35,2.37-2.55,4-4.91,3.65c-2.37-0.35-4-2.55-3.65-4.91
				c2.04-13.89,0.92-28.36-0.16-42.36c-0.44-5.63-0.89-11.46-2.78-16.42c-2.77-7.25-8.92-12.4-15.31-12.81
				c-13.88-0.89-17.64,11.47-22.12,31.96c-1.72,7.88-3.51,16.02-6.55,22.59c-5.67,12.25-13.43,22.74-21.56,33.31l-4.06,5.29
				c-12.77,16.65-25.98,33.87-40.36,48.57c-13.01,13.29-26.14,26.44-38.84,39.16c-14.76,14.78-30.03,30.07-45.11,45.59
				c-17.08,17.58-27.59,44.95-28.82,75.09c-1.23,30.1,10.49,64.35,19.41,87.49c11.72,30.4,19.72,62.62,23.79,95.75
				c0.29,2.37-1.4,4.53-3.77,4.82C-1921.93,2240.5-1922.11,2240.51-1922.29,2240.51z"/>
		</g>
		<g>
			<path class="st13" d="M-1782.74,2139.27c-1.24,0-2.47-0.53-3.33-1.56c-16.16-19.4-24.57-47.25-22.5-74.5
				c1.34-17.61,6.62-33.75,12.87-51.51c5.7-16.22,13.21-31.55,20.46-46.37c6.87-14.04,13.98-28.55,19.43-43.63
				c10.67-29.52,17.3-61.9,20.26-98.98c0.19-2.38,2.28-4.17,4.66-3.97c2.38,0.19,4.16,2.28,3.97,4.66
				c-3.02,37.86-9.81,70.97-20.75,101.23c-5.61,15.52-12.82,30.25-19.8,44.49c-7.15,14.6-14.54,29.69-20.07,45.43
				c-6.04,17.18-11.14,32.74-12.4,49.3c-1.9,25.05,5.77,50.59,20.52,68.3c1.53,1.84,1.28,4.57-0.56,6.1
				C-1780.78,2138.94-1781.76,2139.27-1782.74,2139.27z"/>
		</g>
		<g>
			<path class="st13" d="M-1812.11,1972.22c-0.75,0-1.5-0.19-2.19-0.6c-2.06-1.21-2.75-3.87-1.53-5.93
				c17.98-30.51,36.04-70.51,50.86-112.63c3.87-10.99,7.99-32.28,12.26-63.3c1.54-11.2,2.86-25.76-0.63-38.97
				c-0.61-2.31,0.77-4.68,3.08-5.29c2.31-0.61,4.68,0.77,5.29,3.08c3.88,14.7,2.49,30.36,0.84,42.36
				c-4.35,31.59-8.61,53.46-12.67,64.99c-15,42.63-33.31,83.17-51.56,114.15C-1809.19,1971.46-1810.63,1972.22-1812.11,1972.22z"/>
		</g>
		<polygon class="st15" points="-1782.53,2112 -1964.92,2182.72 -1782.53,3096.3 -1437.83,3096.3 -1368.58,2327.13 
			-1543.92,2509.84 		"/>
		<g>
			<path class="st12" d="M-1782.53,3082.95c-2.01,0-3.82-1.41-4.24-3.47l-181.78-892.83c-0.48-2.34,1.04-4.63,3.38-5.1
				c2.34-0.48,4.63,1.03,5.1,3.38l181.78,892.83c0.48,2.34-1.04,4.63-3.38,5.1C-1781.95,3082.92-1782.24,3082.95-1782.53,3082.95z"
				/>
		</g>
		<g>
			<path class="st12" d="M-2435.41,2951.81c-2.04,0-3.86-1.45-4.25-3.53l-21.29-113.63c-62.05-56.56-101.27-144.52-110.47-247.86
				c-8.18-91.78,17.66-170.9,65.05-276.55c0.98-2.18,3.54-3.15,5.72-2.18c2.18,0.98,3.16,3.54,2.18,5.72
				c-46.8,104.35-72.34,182.35-64.33,272.24c9.07,101.76,47.68,188.13,108.74,243.19c0.71,0.64,1.18,1.49,1.36,2.42l21.56,115.06
				c0.44,2.35-1.11,4.61-3.46,5.05C-2434.87,2951.78-2435.14,2951.81-2435.41,2951.81z"/>
		</g>
		<g>
			<path class="st12" d="M-2533.39,2963.6c-2.27,0-4.18-1.77-4.32-4.07c-0.14-2.39,1.68-4.43,4.07-4.58l717.94-42.36
				c2.38-0.13,4.44,1.68,4.58,4.07c0.14,2.39-1.68,4.43-4.07,4.58l-717.94,42.36C-2533.22,2963.59-2533.31,2963.6-2533.39,2963.6z"
				/>
		</g>
		<path class="st11" d="M-1502.45,2768.14c15.38,41,31.68,81.66,48.88,121.94c6.16,3.92,10.75,10.5,13.74,17.16
			s5.53,13.68,10.2,19.29s12.14,9.63,19.21,7.84c5.85-1.48,10.24-6.7,12-12.47c1.76-5.77,1.23-12-0.08-17.89
			c6.76-15.2,8.87-36.22,3.52-51.97c-7.69-22.69-21.98-43.53-39.99-59.33C-1452.99,2776.9-1478.49,2767.71-1502.45,2768.14z"/>
		<g>
			<path class="st13" d="M-1400.03,2904.86c-1.98,0-3.76-1.36-4.22-3.37c-15.13-66.53-66.47-96.04-87.83-105.63
				c-1.58-0.71-2.17-0.97-2.86-1.8c-1.53-1.84-1.28-4.57,0.55-6.1c1.46-1.21,3.48-1.31,5.02-0.38c0.19,0.09,0.47,0.21,0.84,0.38
				c22.55,10.13,76.73,41.28,92.73,111.61c0.53,2.33-0.93,4.65-3.26,5.18C-1399.39,2904.82-1399.71,2904.86-1400.03,2904.86z
				 M-1488.3,2788.51C-1488.29,2788.51-1488.29,2788.51-1488.3,2788.51C-1488.29,2788.51-1488.29,2788.51-1488.3,2788.51z
				 M-1488.3,2788.5C-1488.3,2788.5-1488.3,2788.51-1488.3,2788.5C-1488.3,2788.51-1488.3,2788.5-1488.3,2788.5z"/>
		</g>
		<g>
			<path class="st12" d="M-1452.56,2895.08c-1.69,0-3.29-0.99-3.99-2.64l-328.65-775.8c-0.93-2.2,0.1-4.74,2.3-5.67
				c2.2-0.93,4.74,0.1,5.67,2.3l328.65,775.8c0.93,2.2-0.1,4.74-2.3,5.67C-1451.43,2894.97-1452,2895.08-1452.56,2895.08z"/>
		</g>
		<g>
			<path class="st13" d="M-2185.68,2135.3c-0.03,0-0.06,0-0.09,0c-2.39-0.05-4.29-2.02-4.24-4.41l2.83-143.41
				c0.05-2.39,2-4.31,4.41-4.24c2.39,0.05,4.29,2.02,4.24,4.41l-2.83,143.41C-2181.4,2133.42-2183.33,2135.3-2185.68,2135.3z"/>
		</g>
		<g>
			<path class="st12" d="M-1602.94,2540.1c-0.05,0-0.1,0-0.16,0c-2.39-0.08-4.26-2.09-4.17-4.48l3.5-99.61
				c0.02-0.63,0.18-1.24,0.46-1.8l62.88-124.17c1.08-2.13,3.68-2.99,5.82-1.91c2.13,1.08,2.99,3.68,1.91,5.82l-62.45,123.31
				l-3.47,98.65C-1598.7,2538.27-1600.62,2540.1-1602.94,2540.1z"/>
		</g>
		<g>
			<path class="st12" d="M-2072.65,2933.36c-1.35,0-2.68-0.63-3.53-1.82c-32.62-45.76-61.82-94.49-86.8-144.83
				c-1.06-2.14-0.19-4.74,1.95-5.8c2.14-1.06,4.74-0.19,5.8,1.95c24.78,49.93,53.75,98.26,86.1,143.65
				c1.39,1.95,0.93,4.65-1.01,6.04C-2070.9,2933.1-2071.78,2933.36-2072.65,2933.36z"/>
		</g>
	</g>
</g>
<g>
	<g>
		<path class="st17" d="M-1453.85,1447.06c84.7,83.97,477.14,123.28,441.31-70.18c-21.83-117.9-180.7-159.22-283.31-157.04
			C-1404.55,1222.15-1577.66,1324.31-1453.85,1447.06z"/>
		<path class="st12" d="M-1205.5,1520.2c-23.05,0-47.32-1.61-72.32-4.87c-79.96-10.44-148.43-35.57-178.71-65.58l0,0
			c-50.9-50.46-48.4-94.05-37.35-121.73c12.13-30.38,41.29-58.89,82.1-80.29c36.38-19.08,79.69-30.93,115.84-31.7
			c58.72-1.26,123.6,11.39,173.59,33.82c64.32,28.85,103.58,72.54,113.54,126.33c4.97,26.83,2.08,50.62-8.58,70.72
			c-9.75,18.37-25.97,33.65-48.22,45.41C-1100.28,1510.65-1149.27,1520.2-1205.5,1520.2z M-1451.17,1444.36
			c28.71,28.46,97.14,53.36,174.34,63.44c84.45,11.02,160.15,2.93,207.68-22.2c44.05-23.29,61.84-59.64,52.88-108.03
			c-11.99-64.72-65.99-101.4-109.18-120.78c-49.01-21.99-112.67-34.39-170.31-33.16c-35.04,0.75-77.09,12.27-112.48,30.83
			c-39.21,20.56-67.11,47.69-78.57,76.38C-1501.65,1368.01-1489.66,1406.2-1451.17,1444.36L-1451.17,1444.36z"/>
	</g>
	<g>
		
			<ellipse transform="matrix(0.0919 -0.9958 0.9958 0.0919 -2863.7717 -110.7898)" class="st17" cx="-1492.63" cy="1514.79" rx="37.56" ry="47.33"/>
		<path class="st12" d="M-1490.53,1556.25c-1.96,0-3.93-0.09-5.91-0.27c-13.44-1.24-25.73-6.59-34.59-15.07
			c-9.11-8.7-13.55-19.65-12.52-30.82c2.1-22.71,26.63-39.07,54.72-36.48c13.44,1.24,25.73,6.59,34.59,15.07
			c9.11,8.7,13.55,19.65,12.52,30.82l0,0c-1.03,11.17-7.41,21.11-17.95,28C-1468.42,1553.21-1479.21,1556.25-1490.53,1556.25z
			 M-1494.71,1480.93c-21.66,0-39.69,12.67-41.27,29.85c-0.81,8.81,2.81,17.56,10.2,24.62c7.63,7.29,18.3,11.91,30.04,12.99
			c11.74,1.09,23.07-1.5,31.91-7.27c8.56-5.59,13.73-13.53,14.54-22.34l0,0c0.81-8.81-2.81-17.56-10.2-24.62
			c-7.63-7.29-18.3-11.91-30.04-12.99C-1491.27,1481.01-1493,1480.93-1494.71,1480.93z"/>
	</g>
	<g>
		
			<ellipse transform="matrix(0.1598 -0.9871 0.9871 0.1598 -2877.9436 -229.7959)" class="st17" cx="-1573.97" cy="1575.76" rx="20.05" ry="20.05"/>
		<path class="st12" d="M-1573.95,1599.61c-0.73,0-1.47-0.03-2.21-0.1c-13.1-1.21-22.77-12.85-21.56-25.94
			c1.21-13.09,12.84-22.76,25.94-21.56c6.34,0.59,12.08,3.61,16.15,8.51c4.07,4.9,5.99,11.09,5.41,17.44l0,0
			C-1551.36,1590.31-1561.78,1599.61-1573.95,1599.61z M-1573.98,1559.51c-8.29,0-15.39,6.34-16.17,14.75
			c-0.82,8.92,5.76,16.85,14.69,17.67c8.9,0.82,16.85-5.76,17.67-14.69l0,0c0.82-8.92-5.76-16.85-14.69-17.67
			C-1572.98,1559.54-1573.48,1559.51-1573.98,1559.51z"/>
	</g>
</g>
<g>
	<path class="st12" d="M-3125.71,1376.98c-1.68,0-3.21-1.12-3.67-2.82c-0.54-2.03,0.66-4.11,2.69-4.66
		c33.12-8.88,62.12-32.45,77.57-63.05c1.4-2.77,2.97-6.23,4.39-10.14c-13.27,3.21-28.32,2.07-39.95-7.05
		c-8.32-6.53-13.29-17.61-12.97-28.92c0.27-9.68,4.49-18.07,11.57-23.01c6.88-4.8,15.62-6.03,24.62-3.46
		c10.94,3.12,20.42,11.32,24.75,21.4c3.63,8.46,4.62,18.24,3.02,28.72c14.87-8.18,25.95-22.23,35.7-36.21
		c1.46-2.09,2.91-4.21,4.31-6.38c-12.69,5.79-26.21,7.06-38.66,3.53c-13.21-3.74-23.29-12.37-26.98-23.08
		c-2.71-7.87-2.04-17.26,1.84-25.75c0.06-0.13,0.12-0.26,0.18-0.4c-1.73,0-3.44-0.07-5.13-0.2c-19-1.52-35.35-9.84-44.84-22.82
		c-0.73-0.99-1.4-2.01-2.04-3.05c-3.66-0.64-7.24-1.56-10.7-2.74c-27.67-9.47-46.29-37.49-42.4-63.79
		c2.25-15.22,11.75-28.95,25.21-38.22c3.05-8.77,8.18-17.01,14.94-23.66c10.33-10.15,23.18-15.56,36.26-15.23
		c20.69,0.52,38.03,14.06,49.27,24.19c0.83,0.75,1.64,1.5,2.44,2.24c1.91-12.33,6.4-24.26,13.4-34.71
		c5.56-8.31,15.05-18.98,28.66-22.64c7.01-1.89,14.94-1.8,22.93,0.25c15.35,3.94,28.35,14.74,36.62,30.42
		c0.31,0.59,0.62,1.19,0.91,1.79c11.29-0.36,21.99,2.41,31,8.15c24.16,15.39,32.81,51.16,18.89,78.11c-1.2,2.33-2.56,4.58-4.05,6.74
		c2.06,0.29,4.17,0.63,6.33,1.05c18.6,3.54,32.57,9.95,42.7,19.59c12.89,12.26,18.32,30.41,13.52,45.17
		c-3.25,9.99-10.63,17.87-17.3,24.48c-15.98,15.83-37.77,34.28-64.68,36.46c-1.78,0.14-3.55,0.22-5.32,0.22
		c-19.38,0-38.04-8.66-54.27-25.26c-0.74-0.76-1.47-1.53-2.2-2.32c-3.79,5.14-8.37,9.8-13.62,13.77
		c-3.01,6.72-7.1,12.88-10.99,18.46c-10.32,14.79-22.13,29.71-38.48,38.63c-1.76,0.96-3.61,1.85-5.55,2.65
		c-1.55,5.39-3.74,10.91-6.55,16.48c-16.42,32.5-47.22,57.54-82.39,66.96C-3125.05,1376.94-3125.39,1376.98-3125.71,1376.98z
		 M-3070.5,1240.17c-4.16,0-8.01,1.15-11.24,3.4c-5.16,3.6-8.12,9.63-8.32,16.99c-0.25,8.82,3.7,17.74,10.07,22.73
		c10.88,8.53,25.6,8.52,37.84,4.41c2.16-9.21,2.64-19.7-1.54-29.43c-3.4-7.91-11.19-14.61-19.85-17.09
		C-3065.92,1240.5-3068.25,1240.17-3070.5,1240.17z M-2962.88,1213.3c1.1,1.24,2.23,2.45,3.37,3.62
		c11.21,11.47,29.6,24.72,53.54,22.78c24.47-1.99,44.89-19.37,59.95-34.29c6.31-6.25,12.7-13.06,15.42-21.43
		c3.91-12.03-0.72-27.02-11.53-37.31c-3.77-3.59-8.18-6.68-13.27-9.3c3.28,4.69,5.4,10.03,6.05,15.52
		c2.23,18.82-11.2,38.52-30.57,44.85c-17.34,5.66-37.95,1.23-53.77-11.58c-6.39-5.17-10.6-10.54-12.89-16.41
		c-2.21-5.69-2.42-11.58-1.19-17.2c-2.21,0.05-4.44,0-6.66-0.14c-2.47-0.16-4.92-0.43-7.35-0.8c6.67,14.93,8.68,31.51,4.81,46.94
		C-2958.26,1203.67-2960.26,1208.63-2962.88,1213.3z M-3048.3,1195.12c-0.86,1.31-1.62,2.69-2.28,4.13
		c-3.08,6.74-3.65,14.07-1.57,20.12c2.88,8.36,11.06,15.18,21.87,18.25c12.37,3.51,26.05,1.46,38.55-5.77
		c1.66-0.96,3.27-2,4.83-3.11c1.4-3.46,2.42-7.03,2.87-10.72c1.99-16.41-9.33-33.4-25.24-37.89c-0.79-0.22-1.6-0.42-2.4-0.57
		C-3021.93,1188.14-3035.17,1193.44-3048.3,1195.12z M-2976.69,1208.13c0.56,3.56,0.65,7.19,0.21,10.8
		c-0.02,0.15-0.04,0.29-0.06,0.44c1.53-1.74,2.94-3.55,4.24-5.43C-2973.8,1212.06-2975.26,1210.12-2976.69,1208.13z
		 M-2993.77,1150.52c0.8,3.57,1.64,6.84,2.47,9.75c4.82,16.99,13.02,33.39,23.16,46.63c1.64-3.31,2.92-6.74,3.8-10.23
		c3.9-15.56,1.09-32.45-6.86-47.1c-4.87-1.33-9.61-3.09-14.17-5.24c-2.57,1.21-5.2,2.36-7.88,3.44
		C-2993.4,1148.68-2993.57,1149.6-2993.77,1150.52z M-2939.85,1151.95c-1.49,4.88-1.59,10.07,0.34,15.03
		c1.79,4.61,5.25,8.94,10.59,13.26c13.84,11.2,31.71,15.14,46.63,10.26c16.05-5.24,27.19-21.37,25.38-36.73
		c-0.93-7.88-5.85-15.44-13.17-20.21c-6.04-3.94-12.88-5.35-19.01-3.96l-6.22,11.03c-1.03,1.83-3.35,2.47-5.18,1.44
		c-1.83-1.03-2.48-3.35-1.44-5.18l0,0C-2912.74,1144.9-2925.97,1150.23-2939.85,1151.95z M-3099.13,1170.72
		c8.41,9.74,21.8,15.95,37.29,17.19c3.07,0.25,6.22,0.25,9.4,0.01c9.03-11.27,24.03-17.76,38.42-16.38
		c5.67-5.43,10.01-12.14,12.19-20.04c0.06-0.21,0.11-0.42,0.17-0.62c-2.63,0.88-5.31,1.7-8.02,2.46
		c-11.28,3.13-25.42,5.86-40.66,5.72C-3066.16,1167.39-3083.16,1171.39-3099.13,1170.72z M-3024.98,1179.63
		c-4.88,0.98-9.57,2.96-13.69,5.77C-3033.91,1184-3029.28,1182.07-3024.98,1179.63z M-3005.34,1173.38
		c4.94,1.67,9.48,4.34,13.44,7.73c-2.52-5.81-4.69-11.8-6.45-17.85C-3000.28,1166.93-3002.64,1170.31-3005.34,1173.38z
		 M-3104.43,1162.67c12.16,1.49,25.25-0.17,38.02-4.79c-8.78-1.26-17.7-3.64-26.45-7.51c-5.24-2.32-10.17-5.14-14.71-8.36
		C-3108.61,1148.77-3107.56,1156.13-3104.43,1162.67z M-3140.02,1077.08c-7.93,7.55-13.38,17.04-14.87,27.12
		c-3.37,22.79,13.03,47.16,37.34,55.48c1.38,0.47,2.79,0.9,4.21,1.28c-2.7-7.99-3.01-16.53-0.94-24.23
		c-16.03-14-25.93-33.42-26.09-53.16C-3140.39,1081.41-3140.27,1079.24-3140.02,1077.08z M-3105.33,1134.25
		c4.72,3.59,9.93,6.69,15.53,9.17c12.45,5.51,25.33,7.74,37.57,8.01c1.91-1.05,3.8-2.18,5.67-3.37
		c13.47-8.59,23.13-19.48,27.84-30.91c-1.35-1.81-2.63-3.68-3.83-5.59c-19.29-4.42-40.93-2.81-60.85,5.07
		c-8.49,3.36-14.01,6.84-17.9,11.29C-3102.94,1129.8-3104.29,1131.94-3105.33,1134.25z M-3013.35,1123.67
		c-4.94,9.94-13.06,19.3-23.79,27.16c9.38-0.93,18.04-2.78,25.41-4.82c2.97-0.83,5.9-1.73,8.75-2.72
		c-0.65-3.77-1.16-7.49-1.54-11.16C-3007.64,1129.51-3010.6,1126.69-3013.35,1123.67z M-2966.25,1142.99
		c4.03,0.93,8.15,1.55,12.3,1.81c2.95,0.19,5.9,0.19,8.83,0.01c3.77-7.99,10.27-14.81,17.54-18.75c9.14-4.95,19.97-7.08,32.82-6.4
		c2.36-2.93,4.42-6.06,6.12-9.38c12.19-23.61,4.76-54.84-16.22-68.21c-6.9-4.4-15.02-6.75-23.67-6.97
		c6.06,16.61,6.34,35.1,0.49,51.16c-7.2,19.78-22.29,37.17-42.67,50.03C-2969.1,1138.46-2967.62,1140.7-2966.25,1142.99z
		 M-2901.96,1127.19c-8.46,0.32-15.74,2.17-22,5.56c-4.57,2.47-8.78,6.32-11.86,10.88
		C-2923.09,1141.18-2911.21,1135.39-2901.96,1127.19z M-2993.29,1131.1c2.55,1.74,5.21,3.33,7.94,4.77c1.05-0.53,2.1-1.08,3.13-1.63
		c-3.82-4.11-8.14-7.83-12.89-11.03C-2994.33,1125.79-2993.71,1128.43-2993.29,1131.1z M-2997.61,1112.82
		c1.36,0.74,2.7,1.51,4.01,2.32c6.83,4.2,12.9,9.37,18.09,15.21c19.35-12,33.62-28.24,40.33-46.68c5.41-14.87,4.82-32.76-1.35-48.16
		c-2.07,0.25-4.15,0.62-6.24,1.11c-17.36,4.04-33.13,15.35-42.18,30.25C-2993.75,1081.35-2997.12,1097.51-2997.61,1112.82z
		 M-3130.84,1069.91c-1.3,4.48-1.97,9.07-1.93,13.6c0.14,16.75,8.22,33.27,21.45,45.67c1.19-2.24,2.63-4.35,4.31-6.28
		c6.06-6.93,14.32-10.78,20.83-13.35c19.16-7.58,39.85-9.73,58.92-6.64c-2.85-6.07-4.95-12.44-6.29-18.97
		c-1.83-1.41-3.69-2.75-5.57-4.01c-22.6-15.18-46.56-21.94-67.46-19.02C-3115.35,1062.14-3123.66,1065.33-3130.84,1069.91z
		 M-3010.14,1115.77c1.55,1.88,3.19,3.69,4.91,5.42c-0.03-1-0.05-2-0.05-3c-0.14-0.31-0.28-0.62-0.43-0.94
		c-1.42-0.65-2.85-1.27-4.31-1.84C-3010.07,1115.53-3010.1,1115.65-3010.14,1115.77z M-3017.64,1104.95
		c0.66,0.17,1.31,0.35,1.96,0.54c0.14-1.27,0.21-2.53,0.22-3.8c-2.36-2.99-4.93-5.86-7.65-8.58c0.96,2.65,2.06,5.25,3.31,7.79
		C-3019.11,1102.28-3018.39,1103.62-3017.64,1104.95z M-3007.93,1098.85c1.16,1.53,2.28,3.11,3.35,4.71
		c1.62-15.17,6.01-28.92,13.13-40.64c10.09-16.61,27.65-29.21,46.95-33.71c1.53-0.36,3.05-0.66,4.57-0.9
		c-7.27-13.23-18.33-22.31-31.26-25.63c-6.72-1.73-13.31-1.82-19.06-0.27c-11.34,3.06-19.49,12.31-24.33,19.54
		c-7.45,11.12-11.79,24.09-12.9,37.33C-3015.1,1072.67-3008.68,1085.7-3007.93,1098.85z M-3026.62,1079.72
		c2.91,2.36,5.78,4.9,8.54,7.62c-2.01-5.44-5.19-10.94-9.55-16.55C-3027.46,1073.79-3027.12,1076.77-3026.62,1079.72z
		 M-3096.43,1052.61c24.59,0,46.51,10.93,61.38,20.9c-0.31-3.79-0.38-7.6-0.21-11.39c-2.03-2.08-4.22-4.18-6.56-6.29
		c-16.44-14.82-30.54-21.89-44.37-22.24c-10.98-0.27-21.89,4.36-30.74,13.05c-3.63,3.57-6.72,7.65-9.19,12.04
		c5.78-2.56,12-4.38,18.49-5.29C-3103.84,1052.86-3100.11,1052.61-3096.43,1052.61z"/>
</g>
<g>
	<g>
		<path class="st12" d="M-4067.97,1611.44c-1.05,0-2.1-0.43-2.85-1.28c-18.35-20.75-36.05-43.24-33.63-69.87
			c0.54-5.88,2.09-11.52,3.58-16.97c1.15-4.17,2.23-8.11,2.89-12.15c3.83-23.26-8.39-48.37-29.06-59.7
			c-20.67-11.33-48.41-8.13-65.96,7.62c-11.32,10.16-16.98,24.18-14.77,36.6c0.37,2.07-1.01,4.04-3.08,4.41
			c-2.07,0.37-4.04-1.01-4.41-3.08c-2.66-14.99,3.92-31.69,17.18-43.59c19.87-17.83,51.28-21.46,74.69-8.63
			c23.41,12.83,37.25,41.26,32.91,67.6c-0.73,4.43-1.92,8.75-3.06,12.92c-1.47,5.37-2.87,10.43-3.34,15.64
			c-2.15,23.61,14.5,44.63,31.75,64.14c1.39,1.57,1.24,3.97-0.33,5.37C-4066.17,1611.12-4067.07,1611.44-4067.97,1611.44z"/>
	</g>
	<g>
		<path class="st12" d="M-4038.32,1656.39c-1.24,0-2.45-0.6-3.18-1.71l-6.36-9.67c-1.15-1.75-0.67-4.11,1.08-5.26
			s4.11-0.67,5.26,1.08l6.36,9.67c1.15,1.75,0.67,4.11-1.08,5.26C-4036.88,1656.19-4037.61,1656.39-4038.32,1656.39z"/>
	</g>
</g>
<path class="st18" d="M-4017.8-302.04c23.03,0,45.43,11.95,57.77,33.33l525.81,910.73c18.4,31.87,7.48,72.63-24.39,91.03
	l-570.08,329.14c-10.49,6.06-21.95,8.94-33.26,8.94c-23.03,0-45.43-11.95-57.77-33.33l-525.81-910.73
	c-18.4-31.87-7.48-72.63,24.39-91.03l570.08-329.14C-4040.56-299.16-4029.11-302.04-4017.8-302.04 M-4017.8-346.64
	c-19.44,0-38.66,5.16-55.56,14.91L-4643.44-2.59c-25.73,14.86-44.14,38.84-51.83,67.54c-7.69,28.7-3.74,58.68,11.11,84.41
	l525.81,910.73c19.81,34.31,56.75,55.63,96.39,55.63c19.45,0,38.66-5.16,55.56-14.92l570.08-329.14
	c25.73-14.86,44.14-38.84,51.83-67.54c7.69-28.7,3.74-58.68-11.11-84.41l-525.81-910.73
	C-3941.22-325.32-3978.15-346.64-4017.8-346.64L-4017.8-346.64z"/>
<path class="st19" d="M-3857.03-328.18c-33.04-57.23-94.64-92.78-160.77-92.78c-32.47,0-64.53,8.6-92.71,24.86l-570.1,329.15
	c-42.93,24.78-73.63,64.8-86.45,112.68c-12.84,47.87-6.26,97.88,18.55,140.81l525.81,910.72c33.03,57.24,94.63,92.8,160.76,92.8
	c32.47,0,64.53-8.59,92.71-24.86l570.09-329.15c42.92-24.76,73.63-64.78,86.47-112.67c12.83-47.88,6.24-97.89-18.54-140.82
	L-3857.03-328.18z M-3502.44,672.52l-556.77,321.44l-518.1-897.39l556.75-321.46L-3502.44,672.52z"/>
<path class="st19" d="M-761.27,55.59c-12.84-47.91-43.52-87.93-86.41-112.7l-570.07-329.12c-28.17-16.28-60.24-24.89-92.74-24.89
	c-66.09,0-127.69,35.55-160.77,92.78l-525.81,910.75c-51.15,88.61-20.69,202.32,67.91,253.5l570.08,329.12
	c28.17,16.28,60.24,24.89,92.74,24.89c66.09,0,127.69-35.55,160.77-92.78l525.8-910.76C-755,153.5-748.43,103.5-761.27,55.59z
	 M-950.98,106.4l-518.12,897.42l-556.76-321.43l518.13-897.41L-950.98,106.4z"/>
<path class="st18" d="M-1510.49-292.19c11.3,0,22.76,2.88,33.26,8.94l570.09,329.14c31.87,18.4,42.79,59.16,24.39,91.03
	l-201.26,348.59l-324.55,562.14c-12.34,21.38-34.74,33.33-57.77,33.33c-11.3,0-22.76-2.88-33.26-8.94l-570.08-329.14
	c-31.87-18.4-42.79-59.16-24.39-91.03l324.55-562.14l201.26-348.59C-1555.92-280.24-1533.52-292.19-1510.49-292.19 M-1510.49-336.79
	c-39.65,0-76.58,21.32-96.39,55.63l-201.26,348.59l-324.55,562.14c-30.67,53.12-12.4,121.28,40.71,151.95l570.09,329.14
	c16.9,9.76,36.11,14.92,55.56,14.92c39.65,0,76.59-21.32,96.4-55.63l324.55-562.14l201.26-348.59
	c30.67-53.11,12.41-121.28-40.71-151.95l-570.09-329.14C-1471.84-331.63-1491.05-336.79-1510.49-336.79L-1510.49-336.79z"/>
<g>
	<path class="st18" d="M781.2,44.6c37.39,0,67.71,30.32,67.71,67.71v1068.58c0,37.4-30.32,67.71-67.71,67.71H112.31
		c-37.4,0-67.71-30.31-67.71-67.71V112.31c0-37.39,30.31-67.71,67.71-67.71H781.2 M781.2,0H112.31C50.38,0,0,50.38,0,112.31v1068.58
		c0,61.93,50.38,112.31,112.31,112.31H781.2c61.93,0,112.31-50.38,112.31-112.31V112.31C893.51,50.38,843.13,0,781.2,0L781.2,0z"/>
	
		<linearGradient id="SVGID_00000002345653401519161840000006027175407088180143_" gradientUnits="userSpaceOnUse" x1="-3756.8347" y1="-2028.552" x2="-2552.8333" y2="-2028.552" gradientTransform="matrix(0 1 -1 0 -1581.7975 3801.4336)">
		<stop  offset="0" style="stop-color:#58255A"/>
		<stop  offset="1" style="stop-color:#3E3E8C"/>
	</linearGradient>
	<path style="fill:url(#SVGID_00000002345653401519161840000006027175407088180143_);" d="M112.31,44.6H781.2
		c37.4,0,67.71,30.32,67.71,67.71v1068.58c0,37.4-30.32,67.71-67.71,67.71H112.31c-37.4,0-67.71-30.32-67.71-67.71V112.31
		C44.6,74.91,74.91,44.6,112.31,44.6z"/>
</g>
<g>
	<defs>
		<path id="SVGID_00000082351846013960557860000011574313238630232494_" d="M556.72,370.55V211c0-13.17,10.68-23.85,23.85-23.85
			h95.4c13.17,0,23.85,10.68,23.85,23.85v159.55c0,13.17-10.68,23.85-23.85,23.85h-95.4C567.4,394.4,556.72,383.72,556.72,370.55z"
			/>
	</defs>
	<clipPath id="SVGID_00000129910348342815783820000013807501766283442612_">
		<use xlink:href="#SVGID_00000082351846013960557860000011574313238630232494_"  style="overflow:visible;"/>
	</clipPath>
	<path style="clip-path:url(#SVGID_00000129910348342815783820000013807501766283442612_);fill:#FFCB3B;" d="M556.72,370.55V211
		c0-13.17,10.68-23.85,23.85-23.85h95.4c13.17,0,23.85,10.68,23.85,23.85v159.55c0,13.17-10.68,23.85-23.85,23.85h-95.4
		C567.4,394.4,556.72,383.72,556.72,370.55z"/>
	<g style="clip-path:url(#SVGID_00000129910348342815783820000013807501766283442612_);">
		<g>
			<rect x="528.08" y="251.78" class="st23" width="200.39" height="6.44"/>
		</g>
		<g>
			<rect x="528.08" y="323.33" class="st23" width="200.39" height="6.44"/>
		</g>
	</g>
	<g style="clip-path:url(#SVGID_00000129910348342815783820000013807501766283442612_);">
		<g>
			<rect x="650.34" y="168.44" class="st23" width="6.44" height="86.56"/>
		</g>
		<g>
			<rect x="599.76" y="168.44" class="st23" width="6.44" height="86.56"/>
		</g>
	</g>
	<g style="clip-path:url(#SVGID_00000129910348342815783820000013807501766283442612_);">
		<g>
			<rect x="650.34" y="323.46" class="st23" width="6.44" height="86.56"/>
		</g>
		<g>
			<rect x="599.76" y="323.46" class="st23" width="6.44" height="86.56"/>
		</g>
	</g>
</g>
<g>
	<polygon class="st17" points="-2795.02,-396.35 -2799.57,-400.91 -2764.15,-436.33 -2728.72,-400.91 -2733.28,-396.35 
		-2764.15,-427.22 	"/>
</g>
<path class="st24" d="M170.1,1119.27V868.65c0-18,14.59-32.6,32.6-32.6h44.46c18,0,32.6,14.59,32.6,32.6v250.61
	c0,18-14.59,32.6-32.6,32.6h-44.46C184.69,1151.86,170.1,1137.27,170.1,1119.27z"/>
<g>
	<rect x="-2477.52" y="-391.23" class="st25" width="15.47" height="194.5"/>
	<rect x="-2514.74" y="-391.23" class="st25" width="15.47" height="325.64"/>
	<rect x="-2551.97" y="-391.23" class="st25" width="15.47" height="325.64"/>
</g>
<g>
	<defs>
		<path id="SVGID_00000016071293672803504570000012806443414819537850_" d="M-4621.14,36.04l570.08-329.14
			c31.87-18.4,72.63-7.48,91.03,24.39l525.81,910.73c18.4,31.87,7.48,72.63-24.39,91.03l-570.08,329.14
			c-31.87,18.4-72.63,7.48-91.03-24.39l-525.81-910.73C-4663.94,95.19-4653.02,54.44-4621.14,36.04z"/>
	</defs>
	<clipPath id="SVGID_00000052795285255040263650000014986661167615796612_">
		<use xlink:href="#SVGID_00000016071293672803504570000012806443414819537850_"  style="overflow:visible;"/>
	</clipPath>
	<path style="clip-path:url(#SVGID_00000052795285255040263650000014986661167615796612_);fill:#F35918;" d="M-4621.14,36.04
		l570.08-329.14c31.87-18.4,72.63-7.48,91.03,24.39l525.81,910.73c18.4,31.87,7.48,72.63-24.39,91.03l-570.08,329.14
		c-31.87,18.4-72.63,7.48-91.03-24.39l-525.81-910.73C-4663.94,95.19-4653.02,54.44-4621.14,36.04z"/>
	<g style="clip-path:url(#SVGID_00000052795285255040263650000014986661167615796612_);">
		<defs>
			<path id="SVGID_00000040570295145936595720000007980184054337977985_" d="M-4445.39,290.4l-78.51-135.98
				c-6.48-11.23-2.64-25.58,8.59-32.06l81.31-46.94c11.23-6.48,25.58-2.64,32.06,8.59l78.51,135.98
				c6.48,11.23,2.63,25.58-8.59,32.06l-81.31,46.94C-4424.56,305.48-4438.91,301.63-4445.39,290.4z"/>
		</defs>
		<clipPath id="SVGID_00000090275334477859580120000017342967818498149504_">
			<use xlink:href="#SVGID_00000040570295145936595720000007980184054337977985_"  style="overflow:visible;"/>
		</clipPath>
		<path style="clip-path:url(#SVGID_00000090275334477859580120000017342967818498149504_);fill:#FFCB3B;" d="M-4445.39,290.4
			l-78.51-135.98c-6.48-11.23-2.64-25.58,8.59-32.06l81.31-46.94c11.23-6.48,25.58-2.64,32.06,8.59l78.51,135.98
			c6.48,11.23,2.63,25.58-8.59,32.06l-81.31,46.94C-4424.56,305.48-4438.91,301.63-4445.39,290.4z"/>
		<g style="clip-path:url(#SVGID_00000090275334477859580120000017342967818498149504_);">
			<g>
				
					<rect x="-4539.87" y="153.55" transform="matrix(0.866 -0.5 0.5 0.866 -673.4177 -2199.7058)" class="st23" width="197.21" height="6.34"/>
			</g>
			<g>
				
					<rect x="-4504.67" y="214.53" transform="matrix(0.866 -0.5 0.5 0.866 -699.1916 -2173.9316)" class="st23" width="197.21" height="6.34"/>
			</g>
		</g>
		<g style="clip-path:url(#SVGID_00000090275334477859580120000017342967818498149504_);">
			<g>
				
					<rect x="-4444.18" y="64.79" transform="matrix(0.866 -0.5 0.5 0.866 -648.6694 -2206.1082)" class="st23" width="6.34" height="85.19"/>
			</g>
			<g>
				
					<rect x="-4487.29" y="89.68" transform="matrix(0.866 -0.5 0.5 0.866 -666.8884 -2224.3271)" class="st23" width="6.34" height="85.19"/>
			</g>
		</g>
		<g style="clip-path:url(#SVGID_00000090275334477859580120000017342967818498149504_);">
			<g>
				
					<rect x="-4367.9" y="196.92" transform="matrix(0.866 -0.5 0.5 0.866 -704.5114 -2150.2664)" class="st23" width="6.34" height="85.19"/>
			</g>
			<g>
				
					<rect x="-4411.01" y="221.81" transform="matrix(0.866 -0.5 0.5 0.866 -722.7303 -2168.4854)" class="st23" width="6.34" height="85.19"/>
			</g>
		</g>
	</g>
	<g style="clip-path:url(#SVGID_00000052795285255040263650000014986661167615796612_);">
		<polygon class="st25" points="-4522.13,77.41 -4528.26,75.77 -4515.5,28.15 -4467.87,40.91 -4469.51,47.03 -4511.01,35.91 		"/>
	</g>
	<path style="clip-path:url(#SVGID_00000052795285255040263650000014986661167615796612_);fill:#FF6C39;" d="M-4572.24,361.38
		l905.72,316.95l-18.01-557.82c0,0,344.25,596.25,341.01,590.64c-3.24-5.61-760.74,439.21-760.74,439.21L-4572.24,361.38z"/>
	<path style="clip-path:url(#SVGID_00000052795285255040263650000014986661167615796612_);fill:#F3ECDD;" d="M-3944.4,134.44
		l-152.99-264.99c-8.41-14.57-3.42-33.2,11.15-41.61l18.62-10.75c14.57-8.41,33.2-3.42,41.61,11.15l152.99,264.99
		c8.41,14.57,3.42,33.2-11.15,41.61l-18.63,10.75C-3917.36,154-3935.99,149.01-3944.4,134.44z"/>
	<g style="clip-path:url(#SVGID_00000052795285255040263650000014986661167615796612_);">
		
			<rect x="-4076.94" y="690.28" transform="matrix(0.866 -0.5 0.5 0.866 -961.0535 -1921.2416)" class="st32" width="22.66" height="284.89"/>
		
			<rect x="-4165.15" y="534.26" transform="matrix(0.866 -0.5 0.5 0.866 -942.8837 -1973.3805)" class="st32" width="22.66" height="476.98"/>
	</g>
</g>
<g>
	<g>
		<path class="st33" d="M-882.76,136.92c18.4-31.87,7.48-72.63-24.39-91.03l-570.08-329.14c-31.87-18.4-72.63-7.48-91.03,24.39
			l-201.26,348.59l685.5,395.78L-882.76,136.92z"/>
		<path class="st34" d="M-1408.57,1047.65l324.55-562.14l-685.5-395.78l-324.55,562.14c-18.4,31.87-7.48,72.63,24.39,91.03
			l570.08,329.14C-1467.73,1090.44-1426.98,1079.52-1408.57,1047.65z"/>
	</g>
	<g>
		<defs>
			<path id="SVGID_00000010284108437134376320000011778159450628635287_" d="M-1214.93,253.31l78.51-135.98
				c6.48-11.23,20.84-15.07,32.06-8.59l81.31,46.94c11.23,6.48,15.07,20.84,8.59,32.06l-78.51,135.98
				c-6.48,11.23-20.84,15.07-32.06,8.59l-81.31-46.94C-1217.57,278.89-1221.41,264.54-1214.93,253.31z"/>
		</defs>
		<clipPath id="SVGID_00000021093637894796626260000008458986825551838102_">
			<use xlink:href="#SVGID_00000010284108437134376320000011778159450628635287_"  style="overflow:visible;"/>
		</clipPath>
		<path style="clip-path:url(#SVGID_00000021093637894796626260000008458986825551838102_);fill:#C4BFB1;" d="M-1214.93,253.31
			l78.51-135.98c6.48-11.23,20.84-15.07,32.06-8.59l81.31,46.94c11.23,6.48,15.07,20.84,8.59,32.06l-78.51,135.98
			c-6.48,11.23-20.84,15.07-32.06,8.59l-81.31-46.94C-1217.57,278.89-1221.41,264.54-1214.93,253.31z"/>
		<g style="clip-path:url(#SVGID_00000021093637894796626260000008458986825551838102_);">
			<g>
				
					<rect x="-1100.26" y="91.43" transform="matrix(0.5 -0.866 0.866 0.5 -713.126 -855.0909)" class="st37" width="6.34" height="197.21"/>
			</g>
			<g>
				
					<rect x="-1135.47" y="152.41" transform="matrix(0.5 -0.866 0.866 0.5 -783.5399 -855.0909)" class="st37" width="6.34" height="197.21"/>
			</g>
		</g>
		<g style="clip-path:url(#SVGID_00000021093637894796626260000008458986825551838102_);">
			<g>
				
					<rect x="-1096.84" y="162.43" transform="matrix(0.5 -0.866 0.866 0.5 -670.5161 -830.1961)" class="st37" width="85.18" height="6.34"/>
			</g>
			<g>
				
					<rect x="-1139.94" y="137.54" transform="matrix(0.5 -0.866 0.866 0.5 -670.5157 -879.9708)" class="st37" width="85.18" height="6.34"/>
			</g>
		</g>
		<g style="clip-path:url(#SVGID_00000021093637894796626260000008458986825551838102_);">
			<g>
				
					<rect x="-1173.12" y="294.55" transform="matrix(0.5 -0.866 0.866 0.5 -823.0776 -830.1978)" class="st37" width="85.18" height="6.34"/>
			</g>
			<g>
				
					<rect x="-1216.22" y="269.66" transform="matrix(0.5 -0.866 0.866 0.5 -823.0861 -879.9749)" class="st37" width="85.18" height="6.34"/>
			</g>
		</g>
	</g>
	<g>
		<polygon class="st38" points="-1016.23,110.74 -1027.35,69.24 -1068.85,80.36 -1070.49,74.23 -1022.86,61.47 -1010.1,109.1 		"/>
	</g>
	<path class="st38" d="M-1567.95,921.71l123.32-213.59c8.86-15.34,28.48-20.6,43.82-11.74l37.89,21.88
		c15.34,8.86,20.6,28.48,11.74,43.82l-123.32,213.59c-8.86,15.34-28.48,20.6-43.82,11.74l-37.89-21.88
		C-1571.55,956.67-1576.8,937.05-1567.95,921.71z"/>
	
		<rect x="-2079.93" y="563.03" transform="matrix(0.5 -0.866 0.866 0.5 -1454.0417 -1377.1848)" class="st38" width="320.47" height="15.23"/>
</g>
<g>
	<path class="st12" d="M781.2,1252.4H112.31c-39.43,0-71.51-32.08-71.51-71.51V112.31c0-39.43,32.08-71.51,71.51-71.51H781.2
		c39.43,0,71.51,32.08,71.51,71.51v1068.58C852.72,1220.32,820.64,1252.4,781.2,1252.4z M112.31,48.4
		c-35.24,0-63.91,28.67-63.91,63.91v1068.58c0,35.24,28.67,63.91,63.91,63.91H781.2c35.24,0,63.91-28.67,63.91-63.91V112.31
		c0-35.24-28.67-63.91-63.91-63.91H112.31z"/>
</g>
<g>
	<path class="st12" d="M-4061.89,1074.9c-24.36,0-48.09-12.63-61.12-35.21l-525.81-910.73c-9.41-16.29-11.9-35.27-7.03-53.45
		c4.87-18.17,16.53-33.36,32.82-42.77l570.08-329.14c16.29-9.41,35.27-11.91,53.45-7.04c18.17,4.87,33.36,16.53,42.77,32.82
		l525.81,910.73c9.41,16.29,11.91,35.28,7.04,53.45c-4.87,18.17-16.53,33.36-32.82,42.77l-570.08,329.14
		C-4037.86,1071.87-4049.95,1074.9-4061.89,1074.9z M-4017.84-298.26c-10.89,0-21.63,2.86-31.32,8.45l-570.09,329.14
		c-14.54,8.39-24.93,21.94-29.28,38.15s-2.12,33.15,6.28,47.68l525.81,910.73c11.63,20.13,32.79,31.4,54.52,31.41
		c10.65,0,21.44-2.71,31.31-8.41l570.08-329.14c14.54-8.39,24.93-21.94,29.28-38.15c4.34-16.21,2.11-33.15-6.28-47.68
		l-525.81-910.73l0,0c-8.39-14.54-21.94-24.93-38.15-29.28C-4006.89-297.54-4012.38-298.26-4017.84-298.26z"/>
</g>
<g>
	<path class="st12" d="M-1466.4,1084.8c-12.21,0-24.25-3.2-35.1-9.47l-570.08-329.14c-33.64-19.42-45.2-62.58-25.78-96.22
		l525.81-910.73c19.42-33.63,62.58-45.2,96.22-25.78L-905.25,42.6c16.29,9.41,27.95,24.6,32.82,42.77
		c4.87,18.17,2.37,37.16-7.04,53.45l-201.26,348.59l-324.55,562.14c-9.41,16.29-24.6,27.95-42.77,32.82
		C-1454.12,1084-1460.28,1084.8-1466.4,1084.8z M-1510.45-288.36c-21.74,0-42.9,11.27-54.53,31.4l-525.81,910.73
		c-17.32,30.01-7.01,68.51,23,85.84l570.09,329.14c14.54,8.39,31.47,10.62,47.68,6.28c16.21-4.34,29.76-14.74,38.15-29.28
		l324.55-562.14l201.26-348.59c8.39-14.54,10.62-31.47,6.28-47.68c-4.34-16.21-14.74-29.76-29.28-38.15c0,0,0,0,0,0l-570.08-329.14
		C-1489-285.65-1499.8-288.36-1510.45-288.36z"/>
</g>
<g>
	<g>
		<path class="st12" d="M-2764.15-619.56c-2.1,0-3.8-1.7-3.8-3.8v-89.28c0-2.1,1.7-3.8,3.8-3.8c2.1,0,3.8,1.7,3.8,3.8v89.28
			C-2760.35-621.26-2762.05-619.56-2764.15-619.56z"/>
	</g>
	<g>
		<g>
			<path class="st12" d="M-2894.33-611.86c-1.28,0-2.54-0.65-3.25-1.83l-30.72-50.67c-1.09-1.79-0.52-4.13,1.28-5.22
				c1.79-1.09,4.13-0.52,5.22,1.28l30.72,50.67c1.09,1.79,0.52,4.13-1.28,5.22C-2892.98-612.04-2893.66-611.86-2894.33-611.86z"/>
		</g>
		<g>
			<path class="st12" d="M-2633.96-611.86c-0.67,0-1.35-0.18-1.97-0.55c-1.79-1.09-2.37-3.43-1.28-5.22l30.72-50.67
				c1.09-1.8,3.42-2.37,5.22-1.28c1.79,1.09,2.37,3.43,1.28,5.22l-30.72,50.67C-2631.43-612.51-2632.68-611.86-2633.96-611.86z"/>
		</g>
	</g>
</g>
<g>
	<g>
		<path class="st12" d="M-1087.6-265.16c-0.74,0-1.49-0.22-2.14-0.67c-1.73-1.19-2.17-3.55-0.99-5.28l50.44-73.67
			c1.19-1.73,3.55-2.17,5.28-0.99c1.73,1.19,2.17,3.55,0.99,5.28l-50.44,73.67C-1085.2-265.74-1086.39-265.16-1087.6-265.16z"/>
	</g>
	<g>
		<g>
			<path class="st12" d="M-1199.37-332.35c-0.07,0-0.14,0-0.21-0.01c-2.1-0.12-3.7-1.91-3.59-4l3.27-59.16
				c0.12-2.1,1.89-3.71,4-3.58c2.1,0.12,3.7,1.91,3.58,4l-3.27,59.16C-1195.69-333.92-1197.37-332.35-1199.37-332.35z"/>
		</g>
		<g>
			<path class="st12" d="M-984.52-185.26c-1.45,0-2.83-0.83-3.46-2.23c-0.87-1.91-0.02-4.16,1.89-5.03l53.97-24.45
				c1.91-0.87,4.16-0.02,5.03,1.89c0.87,1.91,0.02,4.16-1.89,5.03l-53.97,24.45C-983.47-185.37-984-185.26-984.52-185.26z"/>
		</g>
	</g>
</g>
<g>
	<g>
		<path class="st12" d="M-4440.69-265.16c-1.21,0-2.4-0.58-3.14-1.65l-50.44-73.67c-1.19-1.73-0.74-4.1,0.99-5.28
			c1.73-1.19,4.1-0.74,5.28,0.99l50.44,73.67c1.19,1.73,0.74,4.1-0.99,5.28C-4439.2-265.37-4439.95-265.16-4440.69-265.16z"/>
	</g>
	<g>
		<g>
			<path class="st12" d="M-4328.92-332.35c-2,0-3.68-1.57-3.79-3.59l-3.27-59.16c-0.12-2.1,1.49-3.89,3.58-4
				c2.08-0.13,3.89,1.49,4,3.58l3.27,59.16c0.12,2.1-1.49,3.89-3.58,4C-4328.78-332.35-4328.85-332.35-4328.92-332.35z"/>
		</g>
		<g>
			<path class="st12" d="M-4543.77-185.26c-0.52,0-1.06-0.11-1.57-0.34l-53.97-24.45c-1.91-0.87-2.76-3.12-1.89-5.03
				c0.87-1.91,3.12-2.76,5.03-1.89l53.97,24.45c1.91,0.87,2.76,3.12,1.89,5.03C-4540.94-186.09-4542.33-185.26-4543.77-185.26z"/>
		</g>
	</g>
</g>
<g>
	<g>
		<path class="st12" d="M-2294.97,1242.09c-1.26,0-2.49-0.62-3.21-1.76l-47.88-75.36c-1.13-1.77-0.6-4.12,1.17-5.25
			c1.77-1.12,4.12-0.6,5.25,1.17l47.88,75.36c1.13,1.77,0.6,4.12-1.17,5.25C-2293.56,1241.9-2294.27,1242.09-2294.97,1242.09z"/>
	</g>
	<g>
		<g>
			<path class="st12" d="M-2400.72,1318.41c-0.57,0-1.14-0.13-1.68-0.4l-53.1-26.29c-1.88-0.93-2.65-3.21-1.72-5.09
				c0.93-1.88,3.21-2.65,5.09-1.72l53.1,26.29c1.88,0.93,2.65,3.21,1.72,5.09C-2397.98,1317.63-2399.33,1318.41-2400.72,1318.41z"/>
		</g>
		<g>
			<path class="st12" d="M-2180.96,1178.77c-2.06,0-3.75-1.65-3.8-3.72l-1.24-59.24c-0.04-2.1,1.62-3.84,3.72-3.88
				c2.11-0.01,3.84,1.62,3.88,3.72l1.24,59.24c0.04,2.1-1.62,3.84-3.72,3.88C-2180.91,1178.77-2180.93,1178.77-2180.96,1178.77z"/>
		</g>
	</g>
</g>
</svg>
