<svg width="17" height="17" viewBox="0 0 17 17" fill="none" xmlns="http://www.w3.org/2000/svg">
<g clip-path="url(#clip0_473_841)">
<path d="M16.1134 5.19966C16.1134 5.50834 15.9344 5.7598 15.7128 5.7598H15.1252C14.9049 5.7598 14.726 5.50967 14.726 5.19966V2.4069C14.726 2.09689 14.9049 1.84676 15.1252 1.84676H15.7128C15.9331 1.84676 16.1134 2.09689 16.1134 2.4069V5.19966Z" fill="#12416B"/>
<path d="M15.9798 14.2352C15.9798 14.492 15.7475 14.7009 15.4604 14.7009H15.3789C15.0918 14.7009 14.8595 14.492 14.8595 14.2352V5.52829C14.8595 5.2715 15.0918 5.06261 15.3789 5.06261H15.4604C15.7475 5.06261 15.9798 5.2715 15.9798 5.52829V14.2352Z" fill="#12416B"/>
<path d="M16.5126 5.35799C16.4391 5.35799 16.379 5.29811 16.379 5.22494V2.78477L15.897 2.40557C15.8396 2.36034 15.8289 2.27651 15.8743 2.21797C15.9197 2.16076 16.0038 2.15011 16.0626 2.19668L16.5954 2.61579C16.6274 2.64107 16.6461 2.67966 16.6461 2.7209V5.22627C16.6461 5.29811 16.5874 5.35799 16.5126 5.35799Z" fill="#474747"/>
<path d="M16.6662 9.45065C16.6662 9.70079 16.4632 9.90436 16.2108 9.90436H13.9782C13.7271 9.90436 13.5228 9.70079 13.5228 9.45065V7.23135C13.5228 6.98122 13.7271 6.77765 13.9782 6.77765H16.2108C16.4619 6.77765 16.6662 6.98122 16.6662 7.23135V9.45065Z" fill="white"/>
<path d="M16.2108 10.237H13.9781C13.5428 10.237 13.189 9.8844 13.189 9.45065V7.23135C13.189 6.79761 13.5428 6.44502 13.9781 6.44502H16.2108C16.6461 6.44502 17 6.79761 17 7.23135V9.45065C17 9.8844 16.6461 10.237 16.2108 10.237ZM13.9781 7.11028C13.9114 7.11028 13.8566 7.16483 13.8566 7.23135V9.45065C13.8566 9.51718 13.9114 9.57173 13.9781 9.57173H16.2108C16.2776 9.57173 16.3323 9.51718 16.3323 9.45065V7.23135C16.3323 7.16483 16.2776 7.11028 16.2108 7.11028H13.9781Z" fill="#12416B"/>
<path d="M14.3294 16.0686C14.3294 16.5809 13.9087 17 13.3946 17H0.934726C0.420627 17 0 16.5809 0 16.0686V0.931361C0 0.419112 0.420627 0 0.934726 0H13.3946C13.9087 0 14.3294 0.419112 14.3294 0.931361V16.0686Z" fill="#12416B"/>
<path d="M11.4063 4.84042C11.4063 5.20631 11.1058 5.50567 10.7386 5.50567H3.59064C3.22342 5.50567 2.92297 5.20631 2.92297 4.84042V3.54449C2.92297 3.1786 3.22342 2.87924 3.59064 2.87924H10.7386C11.1058 2.87924 11.4063 3.1786 11.4063 3.54449V4.84042Z" fill="white"/>
</g>
<defs>
<clipPath id="clip0_473_841">
<rect width="17" height="17" fill="white"/>
</clipPath>
</defs>
</svg>
