<?xml version="1.0" encoding="utf-8"?>
<!-- Generator: Adobe Illustrator 25.4.0, SVG Export Plug-In . SVG Version: 6.00 Build 0)  -->
<svg version="1.1" id="_xF91C_迹_x5F_1" xmlns="http://www.w3.org/2000/svg" xmlns:xlink="http://www.w3.org/1999/xlink" x="0px"
	 y="0px" viewBox="0 0 37.06 34.36" style="enable-background:new 0 0 37.06 34.36;" xml:space="preserve">
<style type="text/css">
	.st0{fill:#D3D3D3;}
	.st1{fill:url(#SVGID_1_);}
	.st2{fill:url(#SVGID_00000102529869892409749970000008225538371941386374_);}
	.st3{fill:url(#SVGID_00000165192135562832899180000004012761935752437141_);}
	.st4{fill:url(#SVGID_00000150818731990031920170000015900377773922594748_);}
	.st5{fill:url(#SVGID_00000049215768808392649410000015027566304427899571_);}
	.st6{fill:#2FA9ED;}
	.st7{fill:#FFFFFF;}
	.st8{fill:#383838;}
	.st9{fill:url(#SVGID_00000027575013655591519510000015120272295884014470_);}
	.st10{fill:#3098E8;}
	.st11{fill:url(#SVGID_00000054234292422204916580000001744606369750851468_);}
	.st12{fill:#F44264;}
	.st13{fill:url(#SVGID_00000139261076499224392080000009518363968515305102_);}
	.st14{fill:#B5B5B5;}
</style>
<g>
	
		<ellipse transform="matrix(0.7071 -0.7071 0.7071 0.7071 -197.3044 9.816)" class="st0" cx="-86.8" cy="243.08" rx="32.88" ry="32.88"/>
	<g>
		<linearGradient id="SVGID_1_" gradientUnits="userSpaceOnUse" x1="-125.1783" y1="243.0757" x2="-48.4283" y2="243.0757">
			<stop  offset="0" style="stop-color:#FFAF38"/>
			<stop  offset="1" style="stop-color:#D1287D"/>
		</linearGradient>
		<path class="st1" d="M-86.8,281.45c-21.16,0-38.38-17.21-38.38-38.38c0-21.16,17.21-38.38,38.38-38.38
			c21.16,0,38.37,17.21,38.37,38.38C-48.43,264.24-65.64,281.45-86.8,281.45z M-86.8,206.7c-20.06,0-36.38,16.32-36.38,36.38
			c0,20.06,16.32,36.38,36.38,36.38s36.37-16.32,36.37-36.38C-50.43,223.02-66.75,206.7-86.8,206.7z"/>
	</g>
</g>
<g>
	<circle class="st0" cx="85.63" cy="-54.45" r="16.09"/>
	<g>
		
			<linearGradient id="SVGID_00000078751276809298725780000016569287947550423946_" gradientUnits="userSpaceOnUse" x1="65.415" y1="-54.4542" x2="105.8466" y2="-54.4542">
			<stop  offset="0" style="stop-color:#FFAF38"/>
			<stop  offset="1" style="stop-color:#D1287D"/>
		</linearGradient>
		<path style="fill:url(#SVGID_00000078751276809298725780000016569287947550423946_);" d="M85.63-34.24
			c-11.15,0-20.22-9.07-20.22-20.22c0-11.15,9.07-20.22,20.22-20.22s20.22,9.07,20.22,20.22C105.85-43.31,96.78-34.24,85.63-34.24z
			 M85.63-73.17c-10.32,0-18.72,8.4-18.72,18.72c0,10.32,8.4,18.72,18.72,18.72s18.72-8.4,18.72-18.72
			C104.35-64.77,95.95-73.17,85.63-73.17z"/>
	</g>
</g>
<g>
	
		<linearGradient id="SVGID_00000082326816326189271240000016247591393521260675_" gradientUnits="userSpaceOnUse" x1="-28.1275" y1="243.0755" x2="37.6349" y2="243.0755">
		<stop  offset="0" style="stop-color:#FFAF38"/>
		<stop  offset="1" style="stop-color:#D1287D"/>
	</linearGradient>
	<circle style="fill:url(#SVGID_00000082326816326189271240000016247591393521260675_);" cx="4.75" cy="243.08" r="32.88"/>
	<g>
		
			<linearGradient id="SVGID_00000165922091489708894870000004175737985484925598_" gradientUnits="userSpaceOnUse" x1="-33.6212" y1="243.0757" x2="43.1288" y2="243.0757">
			<stop  offset="0" style="stop-color:#FFAF38"/>
			<stop  offset="1" style="stop-color:#D1287D"/>
		</linearGradient>
		<path style="fill:url(#SVGID_00000165922091489708894870000004175737985484925598_);" d="M4.75,281.45
			c-21.16,0-38.38-17.21-38.38-38.38c0-21.16,17.21-38.38,38.38-38.38c21.16,0,38.38,17.21,38.38,38.38
			C43.13,264.24,25.91,281.45,4.75,281.45z M4.75,206.7c-20.06,0-36.38,16.32-36.38,36.38c0,20.06,16.32,36.38,36.38,36.38
			c20.06,0,36.38-16.32,36.38-36.38C41.13,223.02,24.81,206.7,4.75,206.7z"/>
	</g>
</g>
<g>
	
		<ellipse transform="matrix(0.1542 -0.988 0.988 0.1542 -89.6022 381.4812)" class="st0" cx="178.01" cy="243.08" rx="32.88" ry="32.88"/>
	<g>
		
			<linearGradient id="SVGID_00000070076481130932321840000010465348834211957692_" gradientUnits="userSpaceOnUse" x1="139.6396" y1="243.0766" x2="216.3896" y2="243.0766">
			<stop  offset="0" style="stop-color:#FFAF38"/>
			<stop  offset="1" style="stop-color:#D1287D"/>
		</linearGradient>
		<path style="fill:url(#SVGID_00000070076481130932321840000010465348834211957692_);" d="M178.55,281.45c-0.55,0-0.99-0.44-1-0.99
			c-0.01-0.55,0.43-1.01,0.99-1.01c0.96-0.01,1.93-0.07,2.88-0.15c0.55-0.06,1.04,0.35,1.09,0.9c0.05,0.55-0.35,1.04-0.9,1.09
			c-1,0.09-2.02,0.15-3.03,0.16C178.56,281.45,178.55,281.45,178.55,281.45z M174.61,281.3c-0.03,0-0.06,0-0.09,0
			c-1-0.09-2.02-0.22-3.01-0.39c-0.54-0.09-0.91-0.61-0.82-1.15c0.09-0.54,0.61-0.9,1.15-0.82c0.94,0.16,1.9,0.29,2.86,0.37
			c0.55,0.05,0.96,0.54,0.91,1.09C175.56,280.91,175.12,281.3,174.61,281.3z M185.4,280.72c-0.47,0-0.88-0.33-0.98-0.8
			c-0.11-0.54,0.24-1.07,0.78-1.18c0.94-0.19,1.88-0.42,2.8-0.68c0.53-0.15,1.08,0.16,1.24,0.69c0.15,0.53-0.16,1.08-0.69,1.24
			c-0.97,0.28-1.96,0.52-2.95,0.71C185.53,280.72,185.46,280.72,185.4,280.72z M167.83,280.05c-0.09,0-0.18-0.01-0.27-0.04
			c-0.97-0.27-1.94-0.59-2.89-0.94c-0.52-0.19-0.78-0.77-0.59-1.28c0.19-0.52,0.77-0.78,1.29-0.59c0.9,0.33,1.82,0.63,2.74,0.89
			c0.53,0.15,0.84,0.7,0.69,1.23C168.67,279.76,168.27,280.05,167.83,280.05z M192.01,278.74c-0.4,0-0.77-0.24-0.93-0.63
			c-0.21-0.51,0.04-1.09,0.55-1.3c0.89-0.36,1.77-0.75,2.62-1.18c0.49-0.25,1.09-0.05,1.34,0.45c0.25,0.49,0.05,1.09-0.45,1.34
			c-0.9,0.45-1.83,0.87-2.77,1.25C192.26,278.72,192.13,278.74,192.01,278.74z M161.4,277.56c-0.15,0-0.3-0.03-0.44-0.1
			c-0.9-0.45-1.8-0.94-2.67-1.46c-0.47-0.28-0.63-0.9-0.34-1.37c0.28-0.47,0.9-0.63,1.37-0.34c0.82,0.49,1.67,0.96,2.53,1.38
			c0.49,0.25,0.7,0.85,0.45,1.34C162.12,277.36,161.76,277.56,161.4,277.56z M198.13,275.58c-0.33,0-0.65-0.16-0.84-0.46
			c-0.3-0.47-0.16-1.08,0.3-1.38c0.8-0.51,1.59-1.06,2.36-1.64c0.44-0.34,1.07-0.25,1.4,0.19c0.33,0.44,0.25,1.07-0.19,1.4
			c-0.81,0.61-1.65,1.2-2.49,1.74C198.5,275.53,198.31,275.58,198.13,275.58z M155.53,273.94c-0.21,0-0.42-0.07-0.6-0.2
			c-0.81-0.61-1.6-1.25-2.35-1.92c-0.41-0.37-0.45-1-0.09-1.41c0.37-0.41,1-0.45,1.41-0.09c0.71,0.63,1.47,1.25,2.23,1.82
			c0.44,0.33,0.53,0.96,0.2,1.4C156.13,273.8,155.84,273.94,155.53,273.94z M203.57,271.35c-0.27,0-0.53-0.11-0.73-0.32
			c-0.38-0.4-0.36-1.04,0.05-1.41c0.69-0.65,1.37-1.34,2.02-2.05c0.37-0.41,1-0.44,1.41-0.07c0.41,0.37,0.44,1,0.07,1.41
			c-0.68,0.75-1.4,1.48-2.13,2.16C204.06,271.26,203.81,271.35,203.57,271.35z M150.43,269.3c-0.27,0-0.54-0.11-0.74-0.33
			c-0.68-0.74-1.34-1.52-1.96-2.32c-0.34-0.44-0.26-1.06,0.17-1.4c0.43-0.34,1.06-0.26,1.4,0.17c0.59,0.76,1.22,1.5,1.86,2.2
			c0.37,0.41,0.34,1.04-0.06,1.41C150.91,269.21,150.67,269.3,150.43,269.3z M208.14,266.2c-0.21,0-0.41-0.06-0.59-0.19
			c-0.44-0.33-0.54-0.95-0.21-1.4c0.57-0.77,1.11-1.58,1.61-2.39c0.29-0.47,0.91-0.62,1.38-0.32c0.47,0.29,0.61,0.91,0.32,1.38
			c-0.53,0.85-1.1,1.7-1.7,2.52C208.75,266.05,208.45,266.2,208.14,266.2z M146.27,263.81c-0.33,0-0.66-0.17-0.85-0.47
			c-0.53-0.85-1.04-1.74-1.5-2.64c-0.25-0.49-0.06-1.09,0.43-1.35c0.49-0.25,1.09-0.06,1.35,0.43c0.44,0.85,0.92,1.69,1.42,2.5
			c0.29,0.47,0.15,1.08-0.32,1.38C146.63,263.76,146.45,263.81,146.27,263.81z M211.7,260.29c-0.15,0-0.29-0.03-0.43-0.1
			c-0.5-0.24-0.71-0.84-0.47-1.34c0.42-0.86,0.8-1.75,1.15-2.64c0.2-0.52,0.78-0.77,1.29-0.57c0.52,0.2,0.77,0.78,0.57,1.29
			c-0.36,0.94-0.77,1.88-1.21,2.79C212.43,260.08,212.07,260.29,211.7,260.29z M143.18,257.64c-0.4,0-0.78-0.24-0.93-0.64
			c-0.37-0.94-0.7-1.9-0.99-2.87c-0.16-0.53,0.14-1.09,0.67-1.25c0.53-0.16,1.09,0.14,1.25,0.67c0.28,0.92,0.59,1.83,0.94,2.72
			c0.2,0.51-0.05,1.09-0.57,1.29C143.42,257.62,143.3,257.64,143.18,257.64z M214.11,253.82c-0.09,0-0.17-0.01-0.26-0.03
			c-0.53-0.14-0.85-0.69-0.7-1.23c0.25-0.92,0.46-1.86,0.64-2.81c0.1-0.54,0.62-0.91,1.17-0.8c0.54,0.1,0.9,0.62,0.8,1.17
			c-0.19,1-0.41,1.99-0.67,2.96C214.95,253.53,214.55,253.82,214.11,253.82z M141.28,251.02c-0.47,0-0.89-0.33-0.98-0.82
			c-0.19-0.99-0.33-2-0.44-3c-0.06-0.55,0.34-1.04,0.89-1.1c0.56-0.06,1.04,0.34,1.1,0.89c0.1,0.95,0.24,1.91,0.42,2.85
			c0.1,0.54-0.26,1.07-0.8,1.17C141.4,251.01,141.34,251.02,141.28,251.02z M215.28,247.03c-0.03,0-0.05,0-0.08,0
			c-0.55-0.04-0.96-0.52-0.92-1.08c0.07-0.95,0.11-1.92,0.11-2.88v-0.16c0-0.55,0.45-1,1-1c0.55,0,1,0.45,1,1v0.16
			c0,1.01-0.04,2.03-0.12,3.03C216.23,246.63,215.79,247.03,215.28,247.03z M140.64,244.11c-0.55,0-1-0.41-1-0.96v-0.08
			c0-0.98,0.04-1.98,0.11-2.95c0.04-0.55,0.52-0.96,1.07-0.92c0.55,0.04,0.96,0.52,0.92,1.07c-0.07,0.93-0.11,1.87-0.11,2.8
			C141.64,243.63,141.19,244.11,140.64,244.11z M215.17,239.98c-0.5,0-0.94-0.38-0.99-0.89c-0.1-0.95-0.25-1.91-0.42-2.85
			c-0.1-0.54,0.25-1.07,0.8-1.17c0.55-0.1,1.07,0.25,1.17,0.8c0.19,0.99,0.34,2,0.45,3c0.06,0.55-0.34,1.04-0.89,1.1
			C215.24,239.98,215.2,239.98,215.17,239.98z M141.26,237.29c-0.06,0-0.12,0-0.18-0.02c-0.54-0.1-0.9-0.62-0.8-1.16
			c0.18-0.99,0.41-1.99,0.67-2.96c0.14-0.53,0.69-0.85,1.22-0.71c0.53,0.14,0.85,0.69,0.71,1.22c-0.25,0.92-0.46,1.86-0.63,2.81
			C142.15,236.95,141.73,237.29,141.26,237.29z M213.79,233.23c-0.43,0-0.83-0.28-0.96-0.71c-0.28-0.91-0.59-1.83-0.94-2.72
			c-0.2-0.51,0.05-1.09,0.57-1.3c0.52-0.2,1.09,0.05,1.3,0.57c0.37,0.94,0.7,1.91,1,2.87c0.16,0.53-0.14,1.09-0.67,1.25
			C213.98,233.22,213.89,233.23,213.79,233.23z M143.12,230.65c-0.12,0-0.24-0.02-0.36-0.07c-0.52-0.2-0.77-0.78-0.57-1.29
			c0.36-0.94,0.77-1.88,1.2-2.79c0.24-0.5,0.84-0.71,1.33-0.47c0.5,0.24,0.71,0.83,0.47,1.33c-0.41,0.87-0.8,1.76-1.14,2.65
			C143.9,230.41,143.52,230.65,143.12,230.65z M211.19,226.85c-0.36,0-0.71-0.2-0.89-0.54c-0.44-0.85-0.92-1.69-1.43-2.5
			c-0.29-0.47-0.15-1.08,0.32-1.38c0.47-0.29,1.08-0.15,1.38,0.32c0.53,0.85,1.04,1.74,1.51,2.64c0.25,0.49,0.06,1.09-0.43,1.35
			C211.5,226.81,211.35,226.85,211.19,226.85z M146.18,224.47c-0.18,0-0.36-0.05-0.52-0.15c-0.47-0.29-0.62-0.91-0.33-1.38
			c0.53-0.86,1.1-1.7,1.7-2.52c0.33-0.45,0.95-0.54,1.4-0.22c0.45,0.33,0.54,0.95,0.22,1.4c-0.57,0.77-1.11,1.58-1.61,2.39
			C146.85,224.31,146.52,224.47,146.18,224.47z M207.46,221.05c-0.3,0-0.59-0.13-0.79-0.38c-0.59-0.75-1.21-1.49-1.86-2.19
			c-0.37-0.41-0.35-1.04,0.06-1.41c0.41-0.37,1.04-0.35,1.41,0.06c0.69,0.75,1.35,1.52,1.96,2.32c0.34,0.44,0.26,1.06-0.17,1.4
			C207.89,220.98,207.67,221.05,207.46,221.05z M150.33,218.96c-0.24,0-0.48-0.09-0.67-0.26c-0.41-0.37-0.44-1-0.07-1.41
			c0.68-0.75,1.39-1.48,2.13-2.17c0.4-0.38,1.04-0.36,1.41,0.04c0.38,0.4,0.36,1.04-0.04,1.41c-0.7,0.65-1.37,1.35-2.02,2.05
			C150.87,218.85,150.6,218.96,150.33,218.96z M202.73,216.04c-0.23,0-0.47-0.08-0.66-0.25c-0.72-0.63-1.47-1.24-2.23-1.82
			c-0.44-0.33-0.53-0.96-0.2-1.4c0.33-0.44,0.96-0.53,1.4-0.2c0.81,0.61,1.6,1.25,2.35,1.92c0.41,0.37,0.45,1,0.09,1.41
			C203.28,215.92,203,216.04,202.73,216.04z M155.41,214.31c-0.3,0-0.6-0.14-0.8-0.39c-0.33-0.44-0.25-1.07,0.19-1.4
			c0.8-0.61,1.64-1.19,2.49-1.74c0.46-0.3,1.08-0.16,1.38,0.3c0.3,0.46,0.16,1.08-0.3,1.38c-0.81,0.52-1.6,1.07-2.36,1.65
			C155.84,214.24,155.62,214.31,155.41,214.31z M197.16,211.97c-0.17,0-0.35-0.05-0.51-0.14c-0.82-0.49-1.67-0.96-2.53-1.38
			c-0.5-0.25-0.7-0.84-0.45-1.34c0.24-0.5,0.84-0.7,1.34-0.45c0.9,0.45,1.8,0.94,2.67,1.45c0.47,0.28,0.63,0.9,0.35,1.37
			C197.83,211.8,197.5,211.97,197.16,211.97z M161.26,210.66c-0.37,0-0.72-0.2-0.89-0.55c-0.25-0.49-0.05-1.09,0.44-1.34
			c0.9-0.45,1.83-0.87,2.77-1.25c0.51-0.21,1.1,0.04,1.3,0.55s-0.04,1.09-0.55,1.3c-0.89,0.36-1.77,0.76-2.62,1.19
			C161.57,210.62,161.41,210.66,161.26,210.66z M190.94,208.99c-0.11,0-0.23-0.02-0.34-0.06c-0.91-0.33-1.83-0.63-2.74-0.89
			c-0.53-0.15-0.84-0.7-0.69-1.23c0.15-0.53,0.7-0.84,1.23-0.69c0.96,0.27,1.93,0.58,2.89,0.93c0.52,0.19,0.78,0.76,0.59,1.28
			C191.73,208.74,191.35,208.99,190.94,208.99z M167.68,208.15c-0.43,0-0.83-0.29-0.96-0.72c-0.15-0.53,0.15-1.08,0.69-1.24
			c0.97-0.28,1.96-0.52,2.95-0.72c0.54-0.1,1.07,0.24,1.18,0.78c0.11,0.54-0.24,1.07-0.78,1.18c-0.94,0.19-1.88,0.42-2.8,0.68
			C167.86,208.14,167.77,208.15,167.68,208.15z M184.28,207.22c-0.05,0-0.11,0-0.17-0.01c-0.95-0.16-1.91-0.28-2.85-0.37
			c-0.55-0.05-0.96-0.53-0.91-1.08c0.05-0.55,0.54-0.96,1.08-0.91c1,0.09,2.01,0.22,3.01,0.38c0.54,0.09,0.91,0.61,0.82,1.15
			C185.18,206.88,184.76,207.22,184.28,207.22z M174.45,206.87c-0.51,0-0.95-0.39-0.99-0.91c-0.05-0.55,0.35-1.04,0.9-1.09
			c1-0.09,2.02-0.15,3.03-0.17c0.56,0,1.01,0.44,1.02,0.98c0.01,0.55-0.43,1.01-0.98,1.02c-0.96,0.02-1.93,0.07-2.88,0.16
			C174.51,206.87,174.48,206.87,174.45,206.87z"/>
	</g>
</g>
<g>
	<path class="st0" d="M104.5,266.26c0-6.25,5.06-11.31,11.31-11.31c2.45,0,4.72,0.79,6.57,2.12c2-4.25,3.12-8.99,3.12-13.99
		c0-18.16-14.72-32.88-32.88-32.88c-18.16,0-32.88,14.72-32.88,32.88c0,18.16,14.72,32.88,32.88,32.88c5,0,9.74-1.12,13.99-3.12
		C105.29,270.98,104.5,268.72,104.5,266.26z"/>
	
		<ellipse transform="matrix(0.9726 -0.2323 0.2323 0.9726 -58.6816 34.186)" class="st6" cx="115.82" cy="266.26" rx="9.02" ry="9.02"/>
	<g>
		<path class="st7" d="M115.82,271.48c-0.41,0-0.75-0.34-0.75-0.75v-8.93c0-0.41,0.34-0.75,0.75-0.75c0.41,0,0.75,0.34,0.75,0.75
			v8.93C116.57,271.14,116.23,271.48,115.82,271.48z"/>
	</g>
	<g>
		<path class="st7" d="M120.28,267.01h-8.93c-0.41,0-0.75-0.34-0.75-0.75c0-0.41,0.34-0.75,0.75-0.75h8.93
			c0.41,0,0.75,0.34,0.75,0.75C121.03,266.68,120.69,267.01,120.28,267.01z"/>
	</g>
</g>
<g>
	<g>
		<path class="st8" d="M-97.26-34.24h-18.95c-4.81,0-8.72-3.91-8.72-8.72v-18.95c0-4.81,3.91-8.72,8.72-8.72h18.95
			c4.81,0,8.72,3.91,8.72,8.72v18.95C-88.54-38.15-92.45-34.24-97.26-34.24z M-116.21-69.13c-3.98,0-7.22,3.24-7.22,7.22v18.95
			c0,3.98,3.24,7.22,7.22,7.22h18.95c3.98,0,7.22-3.24,7.22-7.22v-18.95c0-3.98-3.24-7.22-7.22-7.22H-116.21z"/>
	</g>
	<g>
		
			<rect x="-110.6" y="-77.4" transform="matrix(0.7071 -0.7071 0.7071 0.7071 19.4417 -99.0553)" class="st8" width="1.5" height="8.81"/>
	</g>
	<g>
		
			<rect x="-108.02" y="-73.75" transform="matrix(0.7071 -0.7071 0.7071 0.7071 21.2664 -94.6537)" class="st8" width="8.82" height="1.5"/>
	</g>
	<g>
		<path class="st8" d="M-106.73-47.94c-0.15,0-0.3-0.04-0.42-0.13c-0.2-0.14-0.33-0.37-0.33-0.62v-5.7l-9.82,3.84l-0.55-1.4
			l10.84-4.24c0.23-0.09,0.49-0.06,0.7,0.08c0.2,0.14,0.33,0.37,0.33,0.62v5.7l9.82-3.84l0.55,1.4l-10.84,4.24
			C-106.55-47.95-106.64-47.94-106.73-47.94z"/>
	</g>
</g>
<g>
	<g>
		<path class="st8" d="M302.37-34.24h-18.95c-4.81,0-8.72-3.91-8.72-8.72v-18.95c0-4.81,3.91-8.72,8.72-8.72h18.95
			c4.81,0,8.72,3.91,8.72,8.72v18.95C311.09-38.15,307.18-34.24,302.37-34.24z M283.42-69.13c-3.98,0-7.22,3.24-7.22,7.22v18.95
			c0,3.98,3.24,7.22,7.22,7.22h18.95c3.98,0,7.22-3.24,7.22-7.22v-18.95c0-3.98-3.24-7.22-7.22-7.22H283.42z"/>
	</g>
	<g>
		
			<rect x="289.03" y="-77.4" transform="matrix(0.7071 -0.7071 0.7071 0.7071 136.5003 183.5303)" class="st8" width="1.5" height="8.82"/>
	</g>
	<g>
		
			<rect x="291.6" y="-73.75" transform="matrix(0.7071 -0.7071 0.7071 0.7071 138.3156 187.9315)" class="st8" width="8.81" height="1.5"/>
	</g>
	<g>
		<path class="st8" d="M292.89-47.94c-0.15,0-0.3-0.04-0.42-0.13c-0.21-0.14-0.33-0.37-0.33-0.62v-5.7l-9.82,3.84l-0.55-1.4
			l10.84-4.24c0.23-0.09,0.49-0.06,0.7,0.08c0.21,0.14,0.33,0.37,0.33,0.62v5.7l9.82-3.84l0.55,1.4l-10.84,4.24
			C293.08-47.95,292.99-47.94,292.89-47.94z"/>
	</g>
</g>
<g>
	
		<linearGradient id="SVGID_00000173151006381785433760000002442358405284104329_" gradientUnits="userSpaceOnUse" x1="230.5182" y1="243.0755" x2="305.2682" y2="243.0755">
		<stop  offset="0" style="stop-color:#FFAF38"/>
		<stop  offset="1" style="stop-color:#D1287D"/>
	</linearGradient>
	<circle style="fill:url(#SVGID_00000173151006381785433760000002442358405284104329_);" cx="267.89" cy="243.08" r="37.38"/>
	<g>
		<g>
			<path class="st7" d="M276.52,261.04h-17.24c-4.55,0-8.25-3.7-8.25-8.25v-17.24c0-4.55,3.7-8.25,8.25-8.25h17.24
				c4.55,0,8.25,3.7,8.25,8.25v17.24C284.77,257.33,281.07,261.04,276.52,261.04z M259.27,229.29c-3.45,0-6.25,2.8-6.25,6.25v17.24
				c0,3.45,2.8,6.25,6.25,6.25h17.24c3.45,0,6.25-2.8,6.25-6.25v-17.24c0-3.45-2.8-6.25-6.25-6.25H259.27z"/>
		</g>
		<g>
			
				<rect x="264.06" y="221.44" transform="matrix(0.7071 -0.7071 0.7071 0.7071 -81.7843 253.4566)" class="st7" width="2" height="8.02"/>
		</g>
		<g>
			
				<rect x="266.72" y="224.45" transform="matrix(0.7071 -0.7071 0.7071 0.7071 -80.123 257.4672)" class="st7" width="8.02" height="2"/>
		</g>
		<g>
			<path class="st7" d="M267.89,248.57c-0.2,0-0.4-0.06-0.56-0.17c-0.27-0.19-0.44-0.5-0.44-0.83v-4.72l-8.5,3.32l-0.73-1.86
				l9.86-3.86c0.31-0.12,0.66-0.08,0.93,0.11c0.27,0.19,0.44,0.5,0.44,0.83v4.72l8.5-3.32l0.73,1.86l-9.86,3.86
				C268.14,248.55,268.02,248.57,267.89,248.57z"/>
		</g>
	</g>
</g>
<g>
	<g>
		<path class="st8" d="M-29.86-34.24h-26.49c-4.31,0-7.82-3.51-7.82-7.82v-20.75c0-4.31,3.51-7.82,7.82-7.82h3.19
			c0.47,0,0.92-0.23,1.19-0.61l1.28-1.81c0.72-1.01,1.89-1.62,3.13-1.62h8.91c1.24,0,2.41,0.6,3.13,1.62l1.29,1.81
			c0.27,0.38,0.72,0.61,1.19,0.61h3.19c4.31,0,7.82,3.51,7.82,7.82v20.75C-22.04-37.75-25.55-34.24-29.86-34.24z M-56.35-69.13
			c-3.49,0-6.32,2.84-6.32,6.32v20.75c0,3.49,2.84,6.32,6.32,6.32h26.49c3.49,0,6.32-2.84,6.32-6.32v-20.75
			c0-3.49-2.84-6.32-6.32-6.32h-3.19c-0.96,0-1.86-0.47-2.41-1.25l-1.29-1.81c-0.44-0.62-1.15-0.98-1.91-0.98h-8.91
			c-0.76,0-1.47,0.37-1.91,0.98l-1.28,1.81c-0.55,0.78-1.46,1.25-2.41,1.25H-56.35z"/>
	</g>
	<g>
		<path class="st8" d="M-43.1-42.68c-5.66,0-10.27-4.6-10.27-10.27c0-5.66,4.6-10.27,10.27-10.27c5.66,0,10.27,4.6,10.27,10.27
			C-32.84-47.28-37.44-42.68-43.1-42.68z M-43.1-61.71c-4.83,0-8.77,3.93-8.77,8.77c0,4.83,3.93,8.77,8.77,8.77
			c4.83,0,8.77-3.93,8.77-8.77C-34.34-57.77-38.27-61.71-43.1-61.71z"/>
	</g>
</g>
<g>
	
		<ellipse transform="matrix(0.0278 -0.9996 0.9996 0.0278 457.6889 364.6926)" class="st10" cx="416.32" cy="-52.94" rx="8.56" ry="8.56"/>
	
		<linearGradient id="SVGID_00000034048105663183592760000018102280103359190974_" gradientUnits="userSpaceOnUse" x1="399.0375" y1="-69.7212" x2="433.6119" y2="-35.1467">
		<stop  offset="0" style="stop-color:#38D4FF"/>
		<stop  offset="0.4967" style="stop-color:#3098E8"/>
		<stop  offset="1" style="stop-color:#3C75E0"/>
	</linearGradient>
	<path style="fill:url(#SVGID_00000034048105663183592760000018102280103359190974_);" d="M430.52-69.88h-4.14
		c-0.72,0-1.39-0.35-1.8-0.93l-1.29-1.81c-0.58-0.82-1.52-1.3-2.52-1.3h-8.91c-1,0-1.94,0.48-2.52,1.3l-1.29,1.81
		c-0.41,0.58-1.09,0.93-1.8,0.93h-4.14c-3.91,0-7.07,3.17-7.07,7.07v20.75c0,3.91,3.17,7.07,7.07,7.07h28.4
		c3.91,0,7.07-3.17,7.07-7.07v-20.75C437.6-66.71,434.43-69.88,430.52-69.88z M416.32-42.47c-5.77,0-10.47-4.7-10.47-10.47
		c0-5.77,4.7-10.47,10.47-10.47s10.47,4.7,10.47,10.47C426.8-47.17,422.1-42.47,416.32-42.47z"/>
</g>
<g>
	<g>
		<path class="st8" d="M11.46-53.9c-0.21,0-0.41-0.09-0.56-0.25L-2.71-69.38c-0.2-0.22-0.25-0.54-0.13-0.81s0.39-0.44,0.68-0.44
			h41.37c0.34,0,0.64,0.23,0.73,0.56c0.09,0.33-0.07,0.68-0.37,0.84L11.82-54C11.71-53.93,11.58-53.9,11.46-53.9z M-0.48-69.13
			l12.1,13.53l24.67-13.53H-0.48z"/>
	</g>
	<g>
		<path class="st8" d="M16.99-34.24c-0.04,0-0.07,0-0.11-0.01c-0.29-0.04-0.53-0.25-0.61-0.54l-5.53-19.67
			c-0.09-0.34,0.06-0.69,0.36-0.86l27.75-15.23c0.3-0.17,0.67-0.1,0.91,0.15c0.23,0.25,0.27,0.63,0.08,0.92L17.62-34.59
			C17.48-34.37,17.24-34.24,16.99-34.24z M12.34-54.28l4.91,17.48l19.75-31.01L12.34-54.28z"/>
	</g>
</g>
<g>
	<circle class="st8" cx="136.22" cy="-54.45" r="2.34"/>
	<circle class="st8" cx="136.22" cy="-64.08" r="2.34"/>
	<circle class="st8" cx="136.22" cy="-44.83" r="2.34"/>
</g>
<g>
	<g>
		<path class="st8" d="M178.01-38.28c-0.41,0-0.75-0.34-0.75-0.75v-30.85c0-0.41,0.34-0.75,0.75-0.75c0.41,0,0.75,0.34,0.75,0.75
			v30.85C178.76-38.62,178.43-38.28,178.01-38.28z"/>
	</g>
	<g>
		<path class="st8" d="M193.44-53.7h-30.85c-0.41,0-0.75-0.34-0.75-0.75c0-0.41,0.34-0.75,0.75-0.75h30.85
			c0.41,0,0.75,0.34,0.75,0.75C194.19-54.04,193.85-53.7,193.44-53.7z"/>
	</g>
</g>
<g>
	<g>
		<path class="st8" d="M225.85,100.76c-0.19,0-0.38-0.07-0.53-0.22l-26.57-26.57c-0.29-0.29-0.29-0.77,0-1.06
			c0.29-0.29,0.77-0.29,1.06,0l26.57,26.57c0.29,0.29,0.29,0.77,0,1.06C226.23,100.69,226.04,100.76,225.85,100.76z"/>
	</g>
	<g>
		<path class="st8" d="M199.28,100.76c-0.19,0-0.38-0.07-0.53-0.22c-0.29-0.29-0.29-0.77,0-1.06l26.57-26.57
			c0.29-0.29,0.77-0.29,1.06,0c0.29,0.29,0.29,0.77,0,1.06l-26.57,26.57C199.66,100.69,199.47,100.76,199.28,100.76z"/>
	</g>
</g>
<g>
	<g>
		<g>
			<path class="st8" d="M-33.63,104.92h-18.95c-4.81,0-8.72-3.91-8.72-8.72V77.25c0-4.81,3.91-8.72,8.72-8.72h18.95
				c4.81,0,8.72,3.91,8.72,8.72V96.2C-24.91,101.01-28.82,104.92-33.63,104.92z M-52.58,70.03c-3.98,0-7.22,3.24-7.22,7.22V96.2
				c0,3.98,3.24,7.22,7.22,7.22h18.95c3.98,0,7.22-3.24,7.22-7.22V77.25c0-3.98-3.24-7.22-7.22-7.22H-52.58z"/>
		</g>
	</g>
	<g>
		<g>
			<path class="st8" d="M-43.1,97.77c-0.41,0-0.75-0.34-0.75-0.75V76.43c0-0.41,0.34-0.75,0.75-0.75c0.41,0,0.75,0.34,0.75,0.75
				v20.59C-42.35,97.44-42.69,97.77-43.1,97.77z"/>
		</g>
		<g>
			<path class="st8" d="M-32.8,87.48H-53.4c-0.41,0-0.75-0.34-0.75-0.75c0-0.41,0.34-0.75,0.75-0.75h20.59
				c0.41,0,0.75,0.34,0.75,0.75C-32.05,87.14-32.39,87.48-32.8,87.48z"/>
		</g>
	</g>
</g>
<g>
	<g>
		<g>
			<path class="st8" d="M249.87-53.7h-30.85c-0.41,0-0.75-0.34-0.75-0.75c0-0.41,0.34-0.75,0.75-0.75h30.85
				c0.41,0,0.75,0.34,0.75,0.75C250.62-54.04,250.28-53.7,249.87-53.7z"/>
		</g>
	</g>
	<g>
		<path class="st8" d="M232.76-39.96c-0.19,0-0.38-0.07-0.53-0.22l-13.74-13.74c-0.29-0.29-0.29-0.77,0-1.06l13.74-13.74
			c0.29-0.29,0.77-0.29,1.06,0c0.29,0.29,0.29,0.77,0,1.06l-13.21,13.21l13.21,13.21c0.29,0.29,0.29,0.77,0,1.06
			C233.14-40.04,232.95-39.96,232.76-39.96z"/>
	</g>
</g>
<g>
	<g>
		<g>
			<path class="st8" d="M538.74-34.24c-11.15,0-20.22-9.07-20.22-20.22c0-11.15,9.07-20.22,20.22-20.22
				c11.15,0,20.22,9.07,20.22,20.22C558.95-43.31,549.89-34.24,538.74-34.24z M538.74-73.17c-10.32,0-18.72,8.4-18.72,18.72
				c0,10.32,8.4,18.72,18.72,18.72c10.32,0,18.72-8.4,18.72-18.72C557.45-64.77,549.06-73.17,538.74-73.17z"/>
		</g>
	</g>
	<g>
		<g>
			<g>
				<path class="st8" d="M531.14-46.11c-0.19,0-0.38-0.07-0.53-0.22c-0.29-0.29-0.29-0.77,0-1.06l15.19-15.19
					c0.29-0.29,0.77-0.29,1.06,0c0.29,0.29,0.29,0.77,0,1.06l-15.19,15.19C531.53-46.18,531.34-46.11,531.14-46.11z"/>
			</g>
		</g>
		<g>
			<path class="st8" d="M546.33-47.77c-0.41,0-0.75-0.34-0.75-0.75V-61.3H532.8c-0.41,0-0.75-0.34-0.75-0.75
				c0-0.41,0.34-0.75,0.75-0.75h13.53c0.41,0,0.75,0.34,0.75,0.75v13.53C547.08-48.1,546.75-47.77,546.33-47.77z"/>
		</g>
	</g>
</g>
<g>
	<g>
		<g>
			<path class="st8" d="M495.37-53.7h-21.94c-0.41,0-0.75-0.34-0.75-0.75c0-0.41,0.34-0.75,0.75-0.75h21.94
				c0.41,0,0.75,0.34,0.75,0.75C496.12-54.04,495.79-53.7,495.37-53.7z"/>
		</g>
		<g>
			<path class="st8" d="M466.33-53.7h-6.63c-0.41,0-0.75-0.34-0.75-0.75c0-0.41,0.34-0.75,0.75-0.75h6.63
				c0.41,0,0.75,0.34,0.75,0.75C467.08-54.04,466.74-53.7,466.33-53.7z"/>
		</g>
	</g>
	<g>
		<g>
			<path class="st8" d="M495.37-66.33h-6.63c-0.41,0-0.75-0.34-0.75-0.75c0-0.41,0.34-0.75,0.75-0.75h6.63
				c0.41,0,0.75,0.34,0.75,0.75C496.12-66.66,495.79-66.33,495.37-66.33z"/>
		</g>
		<g>
			<path class="st8" d="M481.63-66.33h-21.94c-0.41,0-0.75-0.34-0.75-0.75c0-0.41,0.34-0.75,0.75-0.75h21.94
				c0.41,0,0.75,0.34,0.75,0.75C482.38-66.66,482.04-66.33,481.63-66.33z"/>
		</g>
	</g>
	<g>
		<g>
			<path class="st8" d="M495.37-41.08h-6.63c-0.41,0-0.75-0.34-0.75-0.75s0.34-0.75,0.75-0.75h6.63c0.41,0,0.75,0.34,0.75,0.75
				S495.79-41.08,495.37-41.08z"/>
		</g>
		<g>
			<path class="st8" d="M481.63-41.08h-21.94c-0.41,0-0.75-0.34-0.75-0.75s0.34-0.75,0.75-0.75h21.94c0.41,0,0.75,0.34,0.75,0.75
				S482.04-41.08,481.63-41.08z"/>
		</g>
	</g>
	<g>
		<path class="st8" d="M485.18-62.77c-2.37,0-4.3-1.93-4.3-4.3c0-2.37,1.93-4.3,4.3-4.3c2.37,0,4.3,1.93,4.3,4.3
			C489.49-64.7,487.56-62.77,485.18-62.77z M485.18-69.88c-1.55,0-2.8,1.26-2.8,2.8c0,1.55,1.26,2.8,2.8,2.8
			c1.55,0,2.8-1.26,2.8-2.8C487.99-68.62,486.73-69.88,485.18-69.88z"/>
	</g>
	<g>
		<path class="st8" d="M485.18-37.53c-2.37,0-4.3-1.93-4.3-4.3s1.93-4.3,4.3-4.3c2.37,0,4.3,1.93,4.3,4.3S487.56-37.53,485.18-37.53
			z M485.18-44.63c-1.55,0-2.8,1.26-2.8,2.8c0,1.55,1.26,2.8,2.8,2.8c1.55,0,2.8-1.26,2.8-2.8
			C487.99-43.38,486.73-44.63,485.18-44.63z"/>
	</g>
	<g>
		<path class="st8" d="M469.88-50.15c-2.37,0-4.3-1.93-4.3-4.3c0-2.37,1.93-4.3,4.3-4.3c2.37,0,4.3,1.93,4.3,4.3
			C474.18-52.08,472.25-50.15,469.88-50.15z M469.88-57.26c-1.55,0-2.8,1.26-2.8,2.8c0,1.55,1.26,2.8,2.8,2.8
			c1.55,0,2.8-1.26,2.8-2.8C472.68-56,471.43-57.26,469.88-57.26z"/>
	</g>
</g>
<g>
	<g>
		<path class="st8" d="M-110.25,97.77c-8.06,0-14.62-6.56-14.62-14.62s6.56-14.62,14.62-14.62c8.06,0,14.62,6.56,14.62,14.62
			S-102.19,97.77-110.25,97.77z M-110.25,70.03c-7.23,0-13.12,5.89-13.12,13.12c0,7.24,5.89,13.12,13.12,13.12
			c7.24,0,13.12-5.89,13.12-13.12C-97.13,75.92-103.02,70.03-110.25,70.03z"/>
	</g>
	<g>
		<path class="st8" d="M-89.34,104.81c-0.19,0-0.38-0.07-0.53-0.22l-11.1-11.1c-0.29-0.29-0.29-0.77,0-1.06
			c0.29-0.29,0.77-0.29,1.06,0l11.1,11.1c0.29,0.29,0.29,0.77,0,1.06C-88.96,104.74-89.15,104.81-89.34,104.81z"/>
	</g>
</g>
<g>
	<path class="st8" d="M34.43,104.92H22.85c-0.41,0-0.75-0.34-0.75-0.75V93.18c0-1.97-1.6-3.57-3.57-3.57s-3.57,1.6-3.57,3.57v10.99
		c0,0.41-0.34,0.75-0.75,0.75H2.63c-0.41,0-0.75-0.34-0.75-0.75v-22.6c0-0.22,0.09-0.42,0.26-0.57l15.9-13.87
		c0.28-0.25,0.7-0.25,0.99,0L34.92,81c0.16,0.14,0.26,0.35,0.26,0.57v22.6C35.18,104.58,34.84,104.92,34.43,104.92z M23.6,103.42
		h10.08V81.91L18.53,68.7L3.38,81.91v21.51h10.08V93.18c0-2.79,2.27-5.07,5.07-5.07s5.07,2.27,5.07,5.07V103.42z"/>
</g>
<g>
	<g>
		<path class="st8" d="M159.21,93.91h-9.86c-1.24,0-2.25-1.01-2.25-2.25V81.8c0-1.24,1.01-2.25,2.25-2.25h9.86
			c1.24,0,2.25,1.01,2.25,2.25v9.86C161.46,92.9,160.45,93.91,159.21,93.91z M149.35,81.04c-0.42,0-0.75,0.34-0.75,0.75v9.86
			c0,0.42,0.34,0.75,0.75,0.75h9.86c0.41,0,0.75-0.34,0.75-0.75V81.8c0-0.42-0.34-0.75-0.75-0.75H149.35z"/>
	</g>
	<g>
		<g>
			<path class="st8" d="M172.47,81.62h-1.5v-4.38c0-3.98-3.24-7.22-7.22-7.22h-4.37v-1.5h4.37c4.81,0,8.72,3.91,8.72,8.72V81.62z"/>
		</g>
		<g>
			<path class="st8" d="M137.58,81.62h-1.5v-4.38c0-4.81,3.91-8.72,8.72-8.72h4.37v1.5h-4.37c-3.98,0-7.22,3.24-7.22,7.22V81.62z"/>
		</g>
		<g>
			<path class="st8" d="M163.75,104.92h-4.37v-1.5h4.37c3.98,0,7.22-3.24,7.22-7.22v-4.37h1.5v4.37
				C172.47,101.01,168.56,104.92,163.75,104.92z"/>
		</g>
		<g>
			<path class="st8" d="M149.18,104.92h-4.37c-4.81,0-8.72-3.91-8.72-8.72v-4.37h1.5v4.37c0,3.98,3.24,7.22,7.22,7.22h4.37V104.92z"
				/>
		</g>
	</g>
</g>
<g>
	<path class="st8" d="M85.63,105.23L67.55,87.15c-2.06-2.06-3.19-4.8-3.19-7.71c0-2.91,1.13-5.65,3.19-7.71
		c2.06-2.06,4.8-3.2,7.71-3.2c2.91,0,5.65,1.13,7.71,3.2l2.66,2.66l2.66-2.66c2.06-2.06,4.8-3.2,7.71-3.2c2.91,0,5.65,1.13,7.71,3.2
		c2.06,2.06,3.19,4.8,3.19,7.71c0,2.91-1.13,5.65-3.19,7.71L85.63,105.23z M75.26,70.03c-2.51,0-4.87,0.98-6.65,2.76
		c-1.78,1.78-2.75,4.14-2.75,6.65c0,2.51,0.98,4.88,2.75,6.65l17.02,17.02l17.02-17.02c1.78-1.78,2.75-4.14,2.75-6.65
		c0-2.51-0.98-4.87-2.75-6.65c-1.78-1.78-4.14-2.76-6.65-2.76c-2.51,0-4.87,0.98-6.65,2.76l-3.72,3.72l-3.72-3.72
		C80.13,71.01,77.77,70.03,75.26,70.03z"/>
</g>
<g>
	<path class="st12" d="M617.5-67.41c-3.97-3.97-10.4-3.97-14.36,0l-3.19,3.19l-3.19-3.19c-3.97-3.97-10.4-3.97-14.36,0
		c-3.97,3.97-3.97,10.4,0,14.36l17.55,17.55l17.55-17.55C621.47-57.02,621.47-63.45,617.5-67.41z"/>
</g>
<g>
	<path class="st8" d="M-33.63,136.58h-18.95c-4.81,0-8.72,3.91-8.72,8.72v18.95c0,4.81,3.91,8.72,8.72,8.72h18.95
		c4.81,0,8.72-3.91,8.72-8.72v-18.95C-24.91,140.5-28.82,136.58-33.63,136.58z"/>
	<g>
		<g>
			<path class="st7" d="M-43.1,165.83c-0.41,0-0.75-0.34-0.75-0.75v-20.59c0-0.41,0.34-0.75,0.75-0.75c0.41,0,0.75,0.34,0.75,0.75
				v20.59C-42.35,165.49-42.69,165.83-43.1,165.83z"/>
		</g>
		<g>
			<path class="st7" d="M-32.8,155.53H-53.4c-0.41,0-0.75-0.34-0.75-0.75c0-0.41,0.34-0.75,0.75-0.75h20.59
				c0.41,0,0.75,0.34,0.75,0.75C-32.05,155.19-32.39,155.53-32.8,155.53z"/>
		</g>
	</g>
</g>
<g>
	<g>
		<path class="st8" d="M-110.25,166.58c-8.48,0-15.37-6.9-15.37-15.37c0-8.48,6.9-15.37,15.37-15.37c8.48,0,15.37,6.9,15.37,15.37
			C-94.88,159.68-101.78,166.58-110.25,166.58z M-110.25,138.83c-6.82,0-12.37,5.55-12.37,12.37c0,6.82,5.55,12.37,12.37,12.37
			c6.82,0,12.37-5.55,12.37-12.37C-97.88,144.38-103.43,138.83-110.25,138.83z"/>
	</g>
	<g>
		<path class="st8" d="M-89.34,173.61c-0.38,0-0.77-0.15-1.06-0.44l-11.1-11.1c-0.59-0.59-0.59-1.54,0-2.12
			c0.59-0.59,1.54-0.59,2.12,0l11.1,11.1c0.59,0.59,0.59,1.54,0,2.12C-88.58,173.47-88.96,173.61-89.34,173.61z"/>
	</g>
</g>
<path class="st8" d="M34.92,149.06l-15.9-13.87c-0.28-0.25-0.7-0.25-0.99,0l-15.9,13.87c-0.16,0.14-0.26,0.35-0.26,0.57v22.6
	c0,0.41,0.34,0.75,0.75,0.75h11.58c0.41,0,0.75-0.34,0.75-0.75v-11c0-1.97,1.6-3.57,3.57-3.57s3.57,1.6,3.57,3.57v11
	c0,0.41,0.34,0.75,0.75,0.75h11.58c0.41,0,0.75-0.34,0.75-0.75v-22.6C35.18,149.41,35.09,149.2,34.92,149.06z"/>
<path class="st8" d="M103.71,139.78c-2.06-2.06-4.8-3.19-7.71-3.19s-5.65,1.13-7.71,3.19l-2.66,2.66l-2.66-2.66
	c-4.25-4.25-11.17-4.25-15.42,0c-4.25,4.25-4.25,11.17,0,15.42l18.08,18.08l18.08-18.08C107.97,150.95,107.97,144.03,103.71,139.78z
	"/>
<g>
	<path class="st8" d="M283.46,104.92c-0.15,0-0.29-0.04-0.42-0.13l-12.61-8.51l-12.61,8.51c-0.23,0.16-0.53,0.17-0.77,0.04
		c-0.25-0.13-0.4-0.38-0.4-0.66V69.28c0-0.41,0.34-0.75,0.75-0.75h26.06c0.41,0,0.75,0.34,0.75,0.75v34.89
		c0,0.28-0.15,0.53-0.4,0.66C283.7,104.89,283.58,104.92,283.46,104.92z M258.15,70.03v32.73l11.86-8.01c0.25-0.17,0.59-0.17,0.84,0
		l11.86,8.01V70.03H258.15z"/>
</g>
<g>
	<g>
		<path class="st8" d="M420.64,104.92h-34.89c-0.41,0-0.75-0.34-0.75-0.75V69.28c0-0.41,0.34-0.75,0.75-0.75h34.89
			c0.41,0,0.75,0.34,0.75,0.75v34.89C421.39,104.58,421.06,104.92,420.64,104.92z M386.5,103.42h33.39V70.03H386.5V103.42z"/>
	</g>
	<g>
		<path class="st8" d="M397.38,104.92c-0.41,0-0.75-0.34-0.75-0.75V69.28c0-0.41,0.34-0.75,0.75-0.75s0.75,0.34,0.75,0.75v34.89
			C398.13,104.58,397.8,104.92,397.38,104.92z"/>
	</g>
	<g>
		<path class="st8" d="M409.01,104.92c-0.41,0-0.75-0.34-0.75-0.75V69.28c0-0.41,0.34-0.75,0.75-0.75c0.41,0,0.75,0.34,0.75,0.75
			v34.89C409.76,104.58,409.43,104.92,409.01,104.92z"/>
	</g>
	<g>
		<path class="st8" d="M420.64,81.66h-34.89c-0.41,0-0.75-0.34-0.75-0.75c0-0.41,0.34-0.75,0.75-0.75h34.89
			c0.41,0,0.75,0.34,0.75,0.75C421.39,81.32,421.06,81.66,420.64,81.66z"/>
	</g>
	<g>
		<path class="st8" d="M420.64,93.29h-34.89c-0.41,0-0.75-0.34-0.75-0.75c0-0.41,0.34-0.75,0.75-0.75h34.89
			c0.41,0,0.75,0.34,0.75,0.75C421.39,92.95,421.06,93.29,420.64,93.29z"/>
	</g>
</g>
<g>
	<g>
		<path class="st8" d="M481.75,100.44h-25.93c-0.41,0-0.75-0.34-0.75-0.75V73.76c0-0.41,0.34-0.75,0.75-0.75h25.93
			c0.41,0,0.75,0.34,0.75,0.75v25.93C482.5,100.11,482.16,100.44,481.75,100.44z M456.56,98.94H481V74.51h-24.43V98.94z"/>
	</g>
	<g>
		<path class="st8" d="M481.75,70.03h-25.93c-0.41,0-0.75-0.34-0.75-0.75c0-0.41,0.34-0.75,0.75-0.75h25.93
			c0.41,0,0.75,0.34,0.75,0.75C482.5,69.69,482.16,70.03,481.75,70.03z"/>
	</g>
	<g>
		<path class="st8" d="M481.75,104.92h-25.93c-0.41,0-0.75-0.34-0.75-0.75c0-0.41,0.34-0.75,0.75-0.75h25.93
			c0.41,0,0.75,0.34,0.75,0.75C482.5,104.58,482.16,104.92,481.75,104.92z"/>
	</g>
</g>
<g>
	<g>
		<path class="st8" d="M534.36,104.92c-10.03,0-18.2-8.16-18.2-18.2s8.16-18.2,18.2-18.2s18.2,8.16,18.2,18.2
			S544.4,104.92,534.36,104.92z M534.36,70.03c-9.21,0-16.7,7.49-16.7,16.7c0,9.21,7.49,16.7,16.7,16.7c9.21,0,16.7-7.49,16.7-16.7
			C551.06,77.52,543.57,70.03,534.36,70.03z"/>
	</g>
	<g>
		<path class="st8" d="M540.11,95.39c-0.12,0-0.24-0.03-0.35-0.09l-5.4-2.84l-5.4,2.84c-0.25,0.13-0.56,0.11-0.79-0.06
			c-0.23-0.17-0.35-0.45-0.3-0.73l1.03-6.01l-4.37-4.26c-0.2-0.2-0.28-0.5-0.19-0.77c0.09-0.27,0.32-0.47,0.61-0.51l6.04-0.88
			l2.7-5.47c0.25-0.51,1.09-0.51,1.35,0l2.7,5.47l6.04,0.88c0.28,0.04,0.52,0.24,0.61,0.51c0.09,0.27,0.01,0.57-0.19,0.77
			l-4.37,4.26l1.03,6.01c0.05,0.28-0.07,0.57-0.3,0.73C540.42,95.34,540.27,95.39,540.11,95.39z M534.36,90.86
			c0.12,0,0.24,0.03,0.35,0.09l4.4,2.31l-0.84-4.9c-0.04-0.24,0.04-0.49,0.22-0.66l3.56-3.47l-4.92-0.71
			c-0.25-0.04-0.46-0.19-0.57-0.41l-2.2-4.46l-2.2,4.46c-0.11,0.22-0.32,0.38-0.57,0.41l-4.92,0.71l3.56,3.47
			c0.18,0.17,0.26,0.42,0.22,0.66l-0.84,4.9l4.4-2.31C534.12,90.89,534.24,90.86,534.36,90.86z"/>
	</g>
</g>
<g>
	<g>
		<path class="st8" d="M610.92,104.92h-21.95c-3.17,0-5.75-2.58-5.75-5.75V78.15c0-3.17,2.58-5.75,5.75-5.75h6.81l3.63-3.65
			c0.28-0.28,0.78-0.28,1.06,0l3.63,3.65h6.81c3.17,0,5.75,2.58,5.75,5.75v21.02C616.68,102.34,614.09,104.92,610.92,104.92z
			 M588.97,73.9c-2.34,0-4.25,1.91-4.25,4.25v21.02c0,2.34,1.91,4.25,4.25,4.25h21.95c2.34,0,4.25-1.91,4.25-4.25V78.15
			c0-2.34-1.91-4.25-4.25-4.25h-7.12c-0.2,0-0.39-0.08-0.53-0.22l-3.32-3.33l-3.32,3.33c-0.14,0.14-0.33,0.22-0.53,0.22H588.97z"/>
	</g>
	<g>
		<g>
			<path class="st8" d="M607.96,98.57c-0.41,0-0.75-0.34-0.75-0.75v-3.63c0-1.24-1.01-2.25-2.25-2.25h-10.03
				c-1.24,0-2.25,1.01-2.25,2.25v3.63c0,0.41-0.34,0.75-0.75,0.75c-0.41,0-0.75-0.34-0.75-0.75v-3.63c0-2.07,1.68-3.75,3.75-3.75
				h10.03c2.07,0,3.75,1.68,3.75,3.75v3.63C608.71,98.23,608.38,98.57,607.96,98.57z"/>
		</g>
		<g>
			<path class="st8" d="M599.95,88.11c-2.58,0-4.68-2.1-4.68-4.68c0-2.58,2.1-4.68,4.68-4.68c2.58,0,4.68,2.1,4.68,4.68
				C604.62,86.02,602.52,88.11,599.95,88.11z M599.95,80.26c-1.75,0-3.18,1.42-3.18,3.18c0,1.75,1.42,3.18,3.18,3.18
				c1.75,0,3.18-1.42,3.18-3.18C603.12,81.69,601.7,80.26,599.95,80.26z"/>
		</g>
	</g>
</g>
<g>
	<g>
		<path class="st6" d="M420.64,172.98h-34.89c-0.41,0-0.75-0.34-0.75-0.75v-34.89c0-0.41,0.34-0.75,0.75-0.75h34.89
			c0.41,0,0.75,0.34,0.75,0.75v34.89C421.39,172.64,421.06,172.98,420.64,172.98z M386.5,171.48h33.39v-33.39H386.5V171.48z"/>
	</g>
	<g>
		<path class="st6" d="M397.38,172.98c-0.41,0-0.75-0.34-0.75-0.75v-34.89c0-0.41,0.34-0.75,0.75-0.75s0.75,0.34,0.75,0.75v34.89
			C398.13,172.64,397.8,172.98,397.38,172.98z"/>
	</g>
	<g>
		<path class="st6" d="M409.01,172.98c-0.41,0-0.75-0.34-0.75-0.75v-34.89c0-0.41,0.34-0.75,0.75-0.75c0.41,0,0.75,0.34,0.75,0.75
			v34.89C409.76,172.64,409.43,172.98,409.01,172.98z"/>
	</g>
	<g>
		<path class="st6" d="M420.64,149.72h-34.89c-0.41,0-0.75-0.34-0.75-0.75c0-0.41,0.34-0.75,0.75-0.75h34.89
			c0.41,0,0.75,0.34,0.75,0.75C421.39,149.38,421.06,149.72,420.64,149.72z"/>
	</g>
	<g>
		<path class="st6" d="M420.64,161.35h-34.89c-0.41,0-0.75-0.34-0.75-0.75c0-0.41,0.34-0.75,0.75-0.75h34.89
			c0.41,0,0.75,0.34,0.75,0.75C421.39,161.01,421.06,161.35,420.64,161.35z"/>
	</g>
</g>
<g>
	<g>
		<path class="st6" d="M481.75,168.5h-25.93c-0.41,0-0.75-0.34-0.75-0.75v-25.93c0-0.41,0.34-0.75,0.75-0.75h25.93
			c0.41,0,0.75,0.34,0.75,0.75v25.93C482.5,168.16,482.16,168.5,481.75,168.5z M456.56,167H481v-24.43h-24.43V167z"/>
	</g>
	<g>
		<path class="st6" d="M481.75,138.08h-25.93c-0.41,0-0.75-0.34-0.75-0.75c0-0.41,0.34-0.75,0.75-0.75h25.93
			c0.41,0,0.75,0.34,0.75,0.75C482.5,137.75,482.16,138.08,481.75,138.08z"/>
	</g>
	<g>
		<path class="st6" d="M481.75,172.98h-25.93c-0.41,0-0.75-0.34-0.75-0.75c0-0.41,0.34-0.75,0.75-0.75h25.93
			c0.41,0,0.75,0.34,0.75,0.75C482.5,172.64,482.16,172.98,481.75,172.98z"/>
	</g>
</g>
<g>
	<g>
		<path class="st6" d="M534.36,172.98c-10.03,0-18.2-8.16-18.2-18.2c0-10.03,8.16-18.2,18.2-18.2s18.2,8.16,18.2,18.2
			C552.56,164.81,544.4,172.98,534.36,172.98z M534.36,138.08c-9.21,0-16.7,7.49-16.7,16.7c0,9.21,7.49,16.7,16.7,16.7
			c9.21,0,16.7-7.49,16.7-16.7C551.06,145.57,543.57,138.08,534.36,138.08z"/>
	</g>
	<g>
		<path class="st6" d="M540.11,163.44c-0.12,0-0.24-0.03-0.35-0.09l-5.4-2.84l-5.4,2.84c-0.25,0.13-0.56,0.11-0.79-0.06
			c-0.23-0.17-0.35-0.45-0.3-0.73l1.03-6.01l-4.37-4.26c-0.2-0.2-0.28-0.5-0.19-0.77c0.09-0.27,0.32-0.47,0.61-0.51l6.04-0.88
			l2.7-5.47c0.25-0.51,1.09-0.51,1.35,0l2.7,5.47l6.04,0.88c0.28,0.04,0.52,0.24,0.61,0.51c0.09,0.27,0.01,0.57-0.19,0.77
			l-4.37,4.26l1.03,6.01c0.05,0.28-0.07,0.57-0.3,0.73C540.42,163.39,540.27,163.44,540.11,163.44z M534.36,158.92
			c0.12,0,0.24,0.03,0.35,0.09l4.4,2.32l-0.84-4.9c-0.04-0.24,0.04-0.49,0.22-0.66l3.56-3.47l-4.92-0.71
			c-0.25-0.04-0.46-0.19-0.57-0.41l-2.2-4.46l-2.2,4.46c-0.11,0.22-0.32,0.38-0.57,0.41l-4.92,0.71l3.56,3.47
			c0.18,0.17,0.26,0.42,0.22,0.66l-0.84,4.9l4.4-2.32C534.12,158.95,534.24,158.92,534.36,158.92z"/>
	</g>
</g>
<g>
	<g>
		<path class="st6" d="M610.92,172.98h-21.95c-3.17,0-5.75-2.58-5.75-5.75V146.2c0-3.17,2.58-5.75,5.75-5.75h6.81l3.63-3.65
			c0.28-0.28,0.78-0.28,1.06,0l3.63,3.65h6.81c3.17,0,5.75,2.58,5.75,5.75v21.02C616.68,170.4,614.09,172.98,610.92,172.98z
			 M588.97,141.95c-2.34,0-4.25,1.91-4.25,4.25v21.02c0,2.34,1.91,4.25,4.25,4.25h21.95c2.34,0,4.25-1.91,4.25-4.25V146.2
			c0-2.34-1.91-4.25-4.25-4.25h-7.12c-0.2,0-0.39-0.08-0.53-0.22l-3.32-3.33l-3.32,3.33c-0.14,0.14-0.33,0.22-0.53,0.22H588.97z"/>
	</g>
	<g>
		<g>
			<path class="st6" d="M607.96,166.63c-0.41,0-0.75-0.34-0.75-0.75v-3.64c0-1.24-1.01-2.25-2.25-2.25h-10.03
				c-1.24,0-2.25,1.01-2.25,2.25v3.64c0,0.41-0.34,0.75-0.75,0.75c-0.41,0-0.75-0.34-0.75-0.75v-3.64c0-2.07,1.68-3.75,3.75-3.75
				h10.03c2.07,0,3.75,1.68,3.75,3.75v3.64C608.71,166.29,608.38,166.63,607.96,166.63z"/>
		</g>
		<g>
			<path class="st6" d="M599.95,156.17c-2.58,0-4.68-2.1-4.68-4.68c0-2.58,2.1-4.68,4.68-4.68c2.58,0,4.68,2.1,4.68,4.68
				C604.62,154.07,602.52,156.17,599.95,156.17z M599.95,148.32c-1.75,0-3.18,1.42-3.18,3.18c0,1.75,1.42,3.18,3.18,3.18
				c1.75,0,3.18-1.42,3.18-3.18C603.12,149.74,601.7,148.32,599.95,148.32z"/>
		</g>
	</g>
</g>
<g>
	<g>
		<g>
			<path class="st8" d="M355.12-40.26c-0.39,0-0.76-0.15-1.04-0.43l-14.42-14.42c-1.83-1.83-2.83-4.36-2.75-6.94
				c0.08-2.62,1.22-5.02,3.2-6.76c3.7-3.25,9.42-2.97,13.03,0.64l1.97,1.97l1.97-1.97c3.61-3.61,9.33-3.88,13.03-0.64
				c1.98,1.74,3.11,4.14,3.2,6.76c0.08,2.58-0.92,5.12-2.74,6.94l-14.42,14.42C355.88-40.42,355.51-40.26,355.12-40.26z
				 M346.2-69.58c-1.83,0-3.65,0.62-5.09,1.89c-1.66,1.46-2.62,3.48-2.69,5.68c-0.07,2.2,0.75,4.28,2.31,5.83l14.42,14.42
				l14.38-14.42c1.56-1.56,2.38-3.63,2.31-5.83c-0.07-2.2-1.03-4.22-2.69-5.68c-3.11-2.73-7.93-2.48-10.98,0.57l-3.04,3.04
				l-3.04-3.04C350.45-68.75,348.31-69.58,346.2-69.58z"/>
		</g>
	</g>
	<path class="st12" d="M357.79-35.08c0-1.48-1.2-2.68-2.68-2.68c-1.48,0-2.68,1.2-2.68,2.68s1.2,2.68,2.68,2.68
		C356.6-32.4,357.79-33.6,357.79-35.08z"/>
</g>
<g>
	<g>
		<path class="st8" d="M227.99,17.93h-30.85c-0.41,0-0.75-0.34-0.75-0.75c0-0.41,0.34-0.75,0.75-0.75h30.85
			c0.41,0,0.75,0.34,0.75,0.75C228.74,17.6,228.4,17.93,227.99,17.93z"/>
	</g>
	<g>
		<path class="st8" d="M227.99,5.31h-30.85c-0.41,0-0.75-0.34-0.75-0.75c0-0.41,0.34-0.75,0.75-0.75h30.85
			c0.41,0,0.75,0.34,0.75,0.75C228.74,4.97,228.4,5.31,227.99,5.31z"/>
	</g>
	<g>
		<path class="st8" d="M227.99,30.56h-30.85c-0.41,0-0.75-0.34-0.75-0.75c0-0.41,0.34-0.75,0.75-0.75h30.85
			c0.41,0,0.75,0.34,0.75,0.75C228.74,30.22,228.4,30.56,227.99,30.56z"/>
	</g>
</g>
<g>
	<g>
		<path class="st8" d="M-111.8,35.02h-13.13V8.47h13.13V35.02z M-123.43,33.52h10.13V9.97h-10.13V33.52z"/>
	</g>
	<g>
		<path class="st8" d="M-100.17,35.02h-13.13V-0.65h13.13V35.02z M-111.8,33.52h10.13V0.85h-10.13V33.52z"/>
	</g>
	<g>
		<path class="st8" d="M-88.54,35.02h-13.13V20.1h13.13V35.02z M-100.17,33.52h10.13V21.6h-10.13V33.52z"/>
	</g>
</g>
<g>
	<g>
		<g>
			<g>
				<path class="st8" d="M-27.14,35.02c-0.41,0-0.75-0.34-0.75-0.75V30.1c0-5.11-4.16-9.27-9.27-9.27h-9.91
					c-5.11,0-9.27,4.16-9.27,9.27v4.16c0,0.41-0.34,0.75-0.75,0.75c-0.41,0-0.75-0.34-0.75-0.75V30.1c0-5.94,4.83-10.77,10.77-10.77
					h9.91c5.94,0,10.77,4.83,10.77,10.77v4.16C-26.39,34.68-26.73,35.02-27.14,35.02z"/>
			</g>
			<g>
				<path class="st8" d="M-42.12,17.08c-4.89,0-8.87-3.98-8.87-8.87c0-4.89,3.98-8.87,8.87-8.87s8.87,3.98,8.87,8.87
					C-33.26,13.1-37.23,17.08-42.12,17.08z M-42.12,0.85c-4.06,0-7.37,3.3-7.37,7.37c0,4.06,3.3,7.37,7.37,7.37
					c4.06,0,7.37-3.3,7.37-7.37C-34.76,4.15-38.06,0.85-42.12,0.85z"/>
			</g>
		</g>
	</g>
	<g>
		<g>
			<path class="st8" d="M-60.64,20.83c-0.41,0-0.75-0.34-0.75-0.75V8.98c0-0.41,0.34-0.75,0.75-0.75s0.75,0.34,0.75,0.75v11.1
				C-59.89,20.5-60.23,20.83-60.64,20.83z"/>
		</g>
		<g>
			<path class="st8" d="M-55.09,15.28h-11.1c-0.41,0-0.75-0.34-0.75-0.75c0-0.41,0.34-0.75,0.75-0.75h11.1
				c0.41,0,0.75,0.34,0.75,0.75C-54.34,14.94-54.68,15.28-55.09,15.28z"/>
		</g>
	</g>
</g>
<g>
	<g>
		<path class="st8" d="M36.31,17.93H13.57c-0.41,0-0.75-0.34-0.75-0.75c0-0.41,0.34-0.75,0.75-0.75h22.74
			c0.41,0,0.75,0.34,0.75,0.75C37.06,17.6,36.72,17.93,36.31,17.93z"/>
	</g>
	<g>
		<path class="st8" d="M36.31,5.31H13.57c-0.41,0-0.75-0.34-0.75-0.75c0-0.41,0.34-0.75,0.75-0.75h22.74c0.41,0,0.75,0.34,0.75,0.75
			C37.06,4.97,36.72,5.31,36.31,5.31z"/>
	</g>
	<g>
		<path class="st8" d="M36.31,30.56H13.57c-0.41,0-0.75-0.34-0.75-0.75c0-0.41,0.34-0.75,0.75-0.75h22.74
			c0.41,0,0.75,0.34,0.75,0.75C37.06,30.22,36.72,30.56,36.31,30.56z"/>
	</g>
	<g>
		<path class="st8" d="M2.28,9.12c-0.16,0-0.31-0.05-0.44-0.14C1.61,8.8,1.49,8.52,1.54,8.24l0.41-2.37L0.23,4.2
			C0.02,4-0.05,3.7,0.04,3.43c0.09-0.27,0.32-0.47,0.61-0.51l2.38-0.35l1.06-2.15C4.21,0.16,4.47,0,4.75,0
			C5.04,0,5.3,0.16,5.43,0.42l1.06,2.15l2.38,0.35c0.28,0.04,0.52,0.24,0.61,0.51C9.56,3.7,9.49,4,9.28,4.2L7.56,5.87l0.41,2.37
			C8.02,8.52,7.9,8.8,7.67,8.97C7.44,9.14,7.13,9.16,6.88,9.03L4.75,7.91L2.63,9.03C2.52,9.09,2.4,9.12,2.28,9.12z M2.36,4.18
			l0.91,0.89c0.18,0.17,0.26,0.42,0.22,0.66L3.28,6.99L4.4,6.4c0.22-0.11,0.48-0.11,0.7,0l1.13,0.59L6.02,5.74
			C5.97,5.49,6.06,5.25,6.23,5.07l0.91-0.89L5.88,4C5.64,3.96,5.43,3.81,5.32,3.59L4.75,2.44L4.19,3.59C4.08,3.81,3.87,3.96,3.62,4
			L2.36,4.18z"/>
	</g>
	<g>
		<path class="st8" d="M2.28,21.74c-0.16,0-0.31-0.05-0.44-0.14c-0.23-0.17-0.35-0.45-0.3-0.73l0.41-2.37l-1.72-1.68
			c-0.2-0.2-0.28-0.5-0.19-0.77c0.09-0.27,0.32-0.47,0.61-0.51l2.38-0.35l1.06-2.15c0.13-0.26,0.39-0.42,0.67-0.42
			c0.29,0,0.55,0.16,0.67,0.42l1.06,2.15l2.38,0.35c0.28,0.04,0.52,0.24,0.61,0.51c0.09,0.27,0.01,0.57-0.19,0.77L7.56,18.5
			l0.41,2.37c0.05,0.28-0.07,0.57-0.3,0.73c-0.23,0.17-0.54,0.19-0.79,0.06l-2.12-1.12l-2.13,1.12C2.52,21.71,2.4,21.74,2.28,21.74z
			 M2.36,16.81l0.91,0.89c0.18,0.17,0.26,0.42,0.22,0.66l-0.22,1.26l1.13-0.59c0.22-0.11,0.48-0.11,0.7,0l1.13,0.59l-0.22-1.26
			c-0.04-0.24,0.04-0.49,0.22-0.66l0.91-0.89l-1.26-0.18c-0.24-0.04-0.46-0.19-0.56-0.41l-0.56-1.14l-0.56,1.14
			c-0.11,0.22-0.32,0.37-0.56,0.41L2.36,16.81z"/>
	</g>
	<g>
		<path class="st8" d="M2.28,34.36c-0.16,0-0.31-0.05-0.44-0.14c-0.23-0.17-0.35-0.45-0.3-0.73l0.41-2.37l-1.72-1.68
			c-0.2-0.2-0.28-0.5-0.19-0.77c0.09-0.27,0.32-0.47,0.61-0.51l2.38-0.35l1.06-2.15c0.13-0.26,0.39-0.42,0.67-0.42
			c0.29,0,0.55,0.16,0.67,0.42l1.06,2.15l2.38,0.35c0.28,0.04,0.52,0.24,0.61,0.51c0.09,0.27,0.01,0.57-0.19,0.77l-1.72,1.68
			l0.41,2.37c0.05,0.28-0.07,0.57-0.3,0.73c-0.23,0.17-0.54,0.19-0.79,0.06l-2.12-1.12l-2.13,1.12C2.52,34.33,2.4,34.36,2.28,34.36z
			 M2.36,29.43l0.91,0.89c0.18,0.17,0.26,0.42,0.22,0.66l-0.22,1.26l1.13-0.59c0.22-0.12,0.48-0.12,0.7,0l1.13,0.59l-0.22-1.26
			c-0.04-0.24,0.04-0.49,0.22-0.66l0.91-0.89l-1.26-0.18c-0.24-0.04-0.46-0.19-0.56-0.41l-0.56-1.14l-0.56,1.14
			c-0.11,0.22-0.32,0.38-0.56,0.41L2.36,29.43z"/>
	</g>
</g>
<g>
	<g>
		<path class="st8" d="M85.31,35.02c-9.83,0-17.83-8-17.83-17.83c0-9.83,8-17.83,17.83-17.83c0.41,0,0.75,0.34,0.75,0.75
			s-0.34,0.75-0.75,0.75c-9.01,0-16.33,7.33-16.33,16.33c0,9.01,7.33,16.33,16.33,16.33c9.01,0,16.33-7.33,16.33-16.33
			c0-0.41,0.34-0.75,0.75-0.75c0.41,0,0.75,0.34,0.75,0.75C103.14,27.02,95.14,35.02,85.31,35.02z"/>
	</g>
	<g>
		<path class="st8" d="M90.97,23.59c-0.19,0-0.38-0.07-0.53-0.22l-5.66-5.66c-0.14-0.14-0.22-0.33-0.22-0.53V5.85
			c0-0.41,0.34-0.75,0.75-0.75c0.41,0,0.75,0.34,0.75,0.75v11.02l5.44,5.44c0.29,0.29,0.29,0.77,0,1.06
			C91.35,23.52,91.16,23.59,90.97,23.59z"/>
	</g>
	<path class="st8" d="M90.91,1c0.17-0.65-0.21-1.32-0.86-1.5s-1.32,0.21-1.5,0.86s0.21,1.32,0.86,1.5C90.07,2.04,90.74,1.65,90.91,1
		z"/>
	<path class="st8" d="M94.91,3c0.34-0.58,0.14-1.33-0.45-1.67c-0.58-0.34-1.33-0.14-1.67,0.45c-0.34,0.58-0.14,1.33,0.45,1.67
		C93.83,3.78,94.57,3.58,94.91,3z"/>
	<path class="st8" d="M98.25,5.97c0.48-0.48,0.48-1.25,0-1.73c-0.48-0.48-1.25-0.48-1.73,0c-0.48,0.48-0.48,1.25,0,1.73
		C97,6.44,97.78,6.44,98.25,5.97z"/>
	<path class="st8" d="M100.72,9.7c0.58-0.34,0.78-1.08,0.45-1.67c-0.34-0.58-1.08-0.78-1.67-0.45c-0.58,0.34-0.78,1.08-0.45,1.67
		C99.38,9.84,100.13,10.04,100.72,9.7z"/>
	<path class="st8" d="M102.13,13.94c0.65-0.17,1.04-0.84,0.86-1.5c-0.17-0.65-0.84-1.04-1.5-0.86s-1.04,0.84-0.86,1.5
		C100.81,13.73,101.48,14.12,102.13,13.94z"/>
</g>
<g>
	<g>
		<path class="st8" d="M147.85,33.89c-9.21,0-16.71-7.5-16.71-16.71c0-9.21,7.5-16.71,16.71-16.71s16.71,7.5,16.71,16.71
			C164.55,26.39,157.06,33.89,147.85,33.89z M147.85,1.97c-8.39,0-15.21,6.82-15.21,15.21c0,8.39,6.82,15.21,15.21,15.21
			c8.39,0,15.21-6.82,15.21-15.21C163.05,8.8,156.23,1.97,147.85,1.97z"/>
	</g>
	<polygon class="st8" points="152.02,1.22 143.67,1.22 145.67,-1.5 150.02,-1.5 	"/>
	<polygon class="st8" points="139.51,2.95 133.61,8.85 133.1,5.51 136.18,2.44 	"/>
	<polygon class="st8" points="131.89,13.01 131.89,21.36 129.17,19.36 129.17,15.01 	"/>
	<polygon class="st8" points="133.61,25.51 139.51,31.42 136.18,31.93 133.1,28.85 	"/>
	<polygon class="st8" points="143.67,33.14 152.02,33.14 150.02,35.86 145.67,35.86 	"/>
	<polygon class="st8" points="156.18,31.42 162.08,25.51 162.59,28.85 159.51,31.93 	"/>
	<polygon class="st8" points="163.8,21.36 163.8,13.01 166.52,15.01 166.52,19.36 	"/>
	<polygon class="st8" points="162.08,8.85 156.18,2.95 159.51,2.44 162.59,5.51 	"/>
</g>
<path class="st12" d="M311.3-67.99c0-2.01-1.63-3.64-3.64-3.64s-3.64,1.63-3.64,3.64s1.63,3.64,3.64,3.64S311.3-65.98,311.3-67.99z"
	/>
<g>
	<path class="st8" d="M270.43,34.43c-3.38,0-6.63-0.97-9.45-2.82l-5.82,1.78c-0.27,0.08-0.55,0.01-0.75-0.19
		c-0.2-0.2-0.27-0.48-0.19-0.75l1.78-5.82c-1.85-2.81-2.82-6.07-2.82-9.45c0-9.51,7.74-17.25,17.25-17.25s17.25,7.74,17.25,17.25
		C287.68,26.69,279.94,34.43,270.43,34.43z M261.11,30.04c0.15,0,0.3,0.04,0.42,0.13c2.63,1.81,5.71,2.76,8.9,2.76
		c8.69,0,15.75-7.07,15.75-15.75c0-8.69-7.07-15.75-15.75-15.75c-8.69,0-15.75,7.07-15.75,15.75c0,3.19,0.95,6.27,2.76,8.9
		c0.13,0.19,0.17,0.42,0.1,0.64l-1.47,4.82l4.82-1.47C260.96,30.05,261.03,30.04,261.11,30.04z"/>
</g>
<g>
	<g>
		<path class="st8" d="M335.62,23.59c-0.19,0-0.38-0.07-0.53-0.22l-5.66-5.66c-0.14-0.14-0.22-0.33-0.22-0.53V5.85
			c0-0.41,0.34-0.75,0.75-0.75c0.41,0,0.75,0.34,0.75,0.75v11.02l5.44,5.44c0.29,0.29,0.29,0.77,0,1.06
			C336,23.52,335.81,23.59,335.62,23.59z"/>
	</g>
	<g>
		<path class="st8" d="M329.96,35.01c-4.57,0-9.13-1.74-12.61-5.21c-0.29-0.29-0.29-0.77,0-1.06c0.29-0.29,0.77-0.29,1.06,0
			c6.37,6.37,16.73,6.37,23.1,0c3.08-3.08,4.78-7.19,4.78-11.55c0-4.36-1.7-8.46-4.78-11.55c-3.08-3.09-7.19-4.78-11.55-4.78
			c-4.36,0-8.46,1.7-11.55,4.78c-0.42,0.42-0.82,0.87-1.2,1.34c-0.26,0.32-0.73,0.37-1.05,0.11c-0.32-0.26-0.37-0.73-0.12-1.05
			c0.41-0.51,0.85-1,1.31-1.46c3.37-3.37,7.85-5.22,12.61-5.22c4.76,0,9.24,1.86,12.61,5.22c3.37,3.37,5.22,7.85,5.22,12.61
			c0,4.76-1.86,9.24-5.22,12.61C339.09,33.27,334.52,35.01,329.96,35.01z"/>
	</g>
	<g>
		<path class="st8" d="M316.62,7.25c-0.41,0-0.75-0.33-0.75-0.75l-0.03-5.26c0-0.41,0.33-0.75,0.75-0.75c0.42,0,0.75,0.33,0.75,0.75
			l0.03,4.51l4.51-0.02c0.42,0,0.75,0.33,0.75,0.75c0,0.41-0.33,0.75-0.75,0.75L316.62,7.25C316.63,7.25,316.62,7.25,316.62,7.25z"
			/>
	</g>
</g>
<g>
	
		<linearGradient id="SVGID_00000169526141222820909100000008713248092764665773_" gradientUnits="userSpaceOnUse" x1="551.5686" y1="140.5316" x2="615.8456" y2="140.5316" gradientTransform="matrix(-1 0 0 -1 1172.0425 157.713)">
		<stop  offset="0" style="stop-color:#38D4FF"/>
		<stop  offset="0.4967" style="stop-color:#3098E8"/>
		<stop  offset="1" style="stop-color:#3C75E0"/>
	</linearGradient>
	<path style="fill:url(#SVGID_00000169526141222820909100000008713248092764665773_);" d="M572.7,0.68h31.28
		c9.11,0,16.5,7.39,16.5,16.5c0,9.11-7.39,16.5-16.5,16.5H572.7c-9.11,0-16.5-7.39-16.5-16.5C556.2,8.07,563.58,0.68,572.7,0.68z"/>
	
		<ellipse transform="matrix(0.9765 -0.2155 0.2155 0.9765 10.4831 130.532)" class="st7" cx="603.97" cy="17.18" rx="11.93" ry="11.93"/>
</g>
<g>
	<path class="st0" d="M508.56,33.68h-31.28c-9.11,0-16.5-7.39-16.5-16.5c0-9.11,7.39-16.5,16.5-16.5h31.28
		c9.11,0,16.5,7.39,16.5,16.5C525.06,26.29,517.68,33.68,508.56,33.68z"/>
	
		<ellipse transform="matrix(0.987 -0.1608 0.1608 0.987 3.4469 76.9615)" class="st7" cx="477.29" cy="17.18" rx="11.93" ry="11.93"/>
</g>
<g>
	<g>
		<path class="st8" d="M312.55,87.8c-0.41,0-0.75-0.34-0.75-0.75c0-9.83,8-17.83,17.83-17.83c0.41,0,0.75,0.34,0.75,0.75
			s-0.34,0.75-0.75,0.75c-9.01,0-16.33,7.33-16.33,16.33C313.3,87.46,312.97,87.8,312.55,87.8z"/>
	</g>
	<g>
		<path class="st8" d="M329.64,104.88c-9.83,0-17.83-8-17.83-17.83c0-9.83,8-17.83,17.83-17.83c9.83,0,17.83,8,17.83,17.83
			C347.47,96.88,339.47,104.88,329.64,104.88z M329.64,70.71c-9.01,0-16.33,7.33-16.33,16.33c0,9.01,7.33,16.33,16.33,16.33
			c9.01,0,16.33-7.33,16.33-16.33C345.97,78.04,338.64,70.71,329.64,70.71z"/>
	</g>
	<g>
		<path class="st8" d="M329.64,94.37c-0.41,0-0.75-0.34-0.75-0.75V80.47c0-0.41,0.34-0.75,0.75-0.75c0.41,0,0.75,0.34,0.75,0.75
			v13.14C330.39,94.03,330.05,94.37,329.64,94.37z"/>
	</g>
	<g>
		<path class="st8" d="M336.21,87.8h-13.14c-0.41,0-0.75-0.34-0.75-0.75c0-0.41,0.34-0.75,0.75-0.75h13.14
			c0.41,0,0.75,0.34,0.75,0.75C336.96,87.46,336.62,87.8,336.21,87.8z"/>
	</g>
</g>
<g>
	<circle class="st14" cx="154.28" cy="154.94" r="17.6"/>
	<g>
		<g>
			<path class="st7" d="M151.81,164.77h-7.37v-7.37c0-0.41,0.34-0.75,0.75-0.75c0.41,0,0.75,0.34,0.75,0.75v5.87h5.87
				c0.41,0,0.75,0.34,0.75,0.75C152.56,164.44,152.22,164.77,151.81,164.77z"/>
		</g>
		<g>
			<path class="st7" d="M163.36,153.21c-0.41,0-0.75-0.34-0.75-0.75v-5.87h-5.87c-0.41,0-0.75-0.34-0.75-0.75
				c0-0.41,0.34-0.75,0.75-0.75h7.37v7.37C164.11,152.88,163.78,153.21,163.36,153.21z"/>
		</g>
	</g>
</g>
<g>
	<circle class="st14" cx="212.56" cy="154.94" r="17.6"/>
	<g>
		<g>
			<path class="st7" d="M206.57,159.92c-1.28,0-2.55-0.49-3.52-1.46c-1.94-1.94-1.94-5.11,0-7.05c1.94-1.94,5.11-1.94,7.05,0
				l3.52,3.52l-3.52,3.53C209.13,159.43,207.85,159.92,206.57,159.92z M204.11,152.47c-1.36,1.36-1.36,3.57,0,4.93
				c1.36,1.36,3.57,1.36,4.93,0l2.46-2.46l-2.46-2.46C207.68,151.11,205.47,151.11,204.11,152.47L204.11,152.47z"/>
		</g>
		<g>
			<path class="st7" d="M218.55,159.92c-1.28,0-2.55-0.49-3.52-1.46l-3.52-3.53l3.52-3.52c1.94-1.94,5.11-1.94,7.05,0
				c1.94,1.94,1.94,5.11,0,7.05C221.1,159.43,219.83,159.92,218.55,159.92z M213.62,154.93l2.46,2.46c1.36,1.36,3.57,1.36,4.93,0
				c1.36-1.36,1.36-3.57,0-4.93c-1.36-1.36-3.57-1.36-4.93,0L213.62,154.93z"/>
		</g>
	</g>
</g>
<g>
	<circle class="st14" cx="329.13" cy="154.94" r="17.6"/>
	<g>
		<g>
			<path class="st7" d="M331.8,160.8h-9.88c-1.76,0-3.19-1.43-3.19-3.19v-9.88c0-1.76,1.43-3.19,3.19-3.19h9.88
				c1.76,0,3.19,1.43,3.19,3.19v9.88C334.99,159.37,333.56,160.8,331.8,160.8z M321.92,146.03c-0.93,0-1.69,0.76-1.69,1.69v9.88
				c0,0.93,0.76,1.69,1.69,1.69h9.88c0.93,0,1.69-0.76,1.69-1.69v-9.88c0-0.93-0.76-1.69-1.69-1.69H321.92z"/>
		</g>
		<g>
			<path class="st7" d="M336.34,165.34h-9.88c-1.76,0-3.19-1.43-3.19-3.19h1.5c0,0.93,0.76,1.69,1.69,1.69h9.88
				c0.93,0,1.69-0.76,1.69-1.69v-9.88c0-0.93-0.76-1.69-1.69-1.69v-1.5c1.76,0,3.19,1.43,3.19,3.19v9.88
				C339.53,163.91,338.1,165.34,336.34,165.34z"/>
		</g>
	</g>
</g>
<g>
	<circle class="st14" cx="270.85" cy="154.94" r="17.6"/>
	<g>
		<path class="st7" d="M276.93,164.77h-12.16c-2.07,0-3.76-1.68-3.76-3.76v-12.16c0-2.07,1.68-3.76,3.76-3.76h12.16
			c2.07,0,3.76,1.68,3.76,3.76v12.16C280.68,163.09,279,164.77,276.93,164.77z M264.76,146.6c-1.24,0-2.26,1.01-2.26,2.26v12.16
			c0,1.24,1.01,2.26,2.26,2.26h12.16c1.24,0,2.26-1.01,2.26-2.26v-12.16c0-1.24-1.01-2.26-2.26-2.26H264.76z"/>
	</g>
	<g>
		<path class="st7" d="M270.85,164.77c-0.41,0-0.75-0.34-0.75-0.75v-18.17c0-0.41,0.34-0.75,0.75-0.75c0.41,0,0.75,0.34,0.75,0.75
			v18.17C271.6,164.44,271.26,164.77,270.85,164.77z"/>
	</g>
	<g>
		<path class="st7" d="M270.85,155.68h-9.09c-0.41,0-0.75-0.34-0.75-0.75c0-0.41,0.34-0.75,0.75-0.75h9.09
			c0.41,0,0.75,0.34,0.75,0.75C271.6,155.35,271.26,155.68,270.85,155.68z"/>
	</g>
</g>
<g>
	<g>
		<path class="st8" d="M403.2,38.42c-11.73,0-21.28-9.54-21.28-21.28s9.55-21.28,21.28-21.28c11.73,0,21.28,9.55,21.28,21.28
			S414.93,38.42,403.2,38.42z M403.2-2.63c-10.91,0-19.78,8.87-19.78,19.78c0,10.91,8.87,19.78,19.78,19.78
			c10.91,0,19.78-8.87,19.78-19.78C422.98,6.24,414.11-2.63,403.2-2.63z"/>
	</g>
	<g>
		<path class="st8" d="M403.2,14.31c-1.96,0-3.55,1.59-3.55,3.55s1.59,3.55,3.55,3.55c1.96,0,3.55-1.59,3.55-3.55
			S405.16,14.31,403.2,14.31z"/>
		<path class="st8" d="M409.89,9.87h-1.95c-0.34,0-0.65-0.16-0.85-0.44l-0.61-0.85c-0.27-0.38-0.72-0.61-1.19-0.61h-4.2
			c-0.47,0-0.91,0.23-1.19,0.61l-0.61,0.85c-0.2,0.28-0.51,0.44-0.85,0.44h-1.95c-1.84,0-3.33,1.49-3.33,3.33v9.78
			c0,1.84,1.49,3.33,3.33,3.33h13.39c1.84,0,3.33-1.49,3.33-3.33v-9.78C413.23,11.37,411.74,9.87,409.89,9.87z M403.2,22.8
			c-2.72,0-4.94-2.21-4.94-4.94c0-2.72,2.21-4.94,4.94-4.94s4.94,2.21,4.94,4.94C408.14,20.58,405.92,22.8,403.2,22.8z"/>
	</g>
</g>
<g>
	<path class="st0" d="M572.92,269.95c0-1.78-1.45-3.23-3.23-3.23c-1.78,0-3.23,1.44-3.23,3.23c0,1.78,1.44,3.23,3.23,3.23
		C571.47,273.18,572.92,271.73,572.92,269.95z"/>
	<path class="st0" d="M561.43,269.95c0-1.78-1.44-3.23-3.23-3.23c-1.78,0-3.23,1.44-3.23,3.23c0,1.78,1.45,3.23,3.23,3.23
		C559.99,273.18,561.43,271.73,561.43,269.95z"/>
	<path class="st0" d="M549.95,269.95c0-1.78-1.45-3.23-3.23-3.23c-1.78,0-3.23,1.44-3.23,3.23c0,1.78,1.44,3.23,3.23,3.23
		C548.5,273.18,549.95,271.73,549.95,269.95z"/>
	<path class="st0" d="M523.39,269.95c0-0.99,0.8-1.79,1.79-1.79c0.99,0,1.79,0.8,1.79,1.79c0,0.99-0.8,1.79-1.79,1.79
		C524.2,271.74,523.39,270.94,523.39,269.95z"/>
	<path class="st0" d="M517.54,269.95c0-0.38,0.31-0.69,0.69-0.69s0.69,0.31,0.69,0.69c0,0.38-0.31,0.69-0.69,0.69
		S517.54,270.33,517.54,269.95z"/>
	<path class="st0" d="M615.99,269.95c0-0.99-0.8-1.79-1.79-1.79c-0.99,0-1.79,0.8-1.79,1.79c0,0.99,0.8,1.79,1.79,1.79
		C615.18,271.74,615.99,270.94,615.99,269.95z"/>
	<circle class="st0" cx="621.15" cy="269.95" r="0.69"/>
	<path class="st0" d="M538.46,269.95c0-1.78-1.44-3.23-3.23-3.23c-1.78,0-3.23,1.44-3.23,3.23c0,1.78,1.45,3.23,3.23,3.23
		C537.02,273.18,538.46,271.73,538.46,269.95z"/>
	<path class="st0" d="M577.95,269.95c0-1.78,1.45-3.23,3.23-3.23c1.78,0,3.23,1.44,3.23,3.23c0,1.78-1.44,3.23-3.23,3.23
		C579.39,273.18,577.95,271.73,577.95,269.95z"/>
	<path class="st0" d="M589.43,269.95c0-1.78,1.44-3.23,3.23-3.23c1.78,0,3.23,1.44,3.23,3.23c0,1.78-1.45,3.23-3.23,3.23
		C590.88,273.18,589.43,271.73,589.43,269.95z"/>
	<path class="st0" d="M600.92,269.95c0-1.78,1.45-3.23,3.23-3.23s3.23,1.44,3.23,3.23c0,1.78-1.45,3.23-3.23,3.23
		S600.92,271.73,600.92,269.95z"/>
</g>
<g>
	
		<ellipse transform="matrix(0.7071 -0.7071 0.7071 0.7071 -10.1555 447.0452)" class="st12" cx="534.55" cy="235.78" rx="11.83" ry="11.83"/>
	<g>
		<path class="st7" d="M534.49,230.86h1.26c0.15,0,0.22,0.07,0.22,0.22v9.35c0,0.15-0.07,0.22-0.22,0.22h-1.18
			c-0.15,0-0.22-0.08-0.22-0.22v-7.94c0-0.07-0.03-0.09-0.1-0.07l-1.3,0.36c-0.02,0.01-0.04,0.01-0.07,0.01
			c-0.06,0-0.1-0.02-0.13-0.06c-0.03-0.04-0.05-0.09-0.05-0.15v-0.81c0-0.11,0.06-0.2,0.17-0.25l1.36-0.62
			C534.3,230.88,534.39,230.86,534.49,230.86z"/>
	</g>
</g>
<g>
	
		<ellipse transform="matrix(0.7071 -0.7071 0.7071 0.7071 0.1357 471.8904)" class="st12" cx="569.69" cy="235.78" rx="11.83" ry="11.83"/>
	<g>
		<path class="st7" d="M566.53,240.44v-0.92c0-0.1,0.04-0.19,0.11-0.27c0.44-0.47,1.17-1.3,2.2-2.49l0.9-1.04
			c0.86-1,1.29-1.75,1.29-2.27c0-0.38-0.14-0.7-0.41-0.94c-0.27-0.24-0.62-0.36-1.05-0.36c-0.43,0-0.78,0.12-1.04,0.36
			c-0.27,0.24-0.4,0.57-0.4,0.97v0.31c0,0.15-0.08,0.22-0.22,0.22h-1.19c-0.15,0-0.22-0.07-0.22-0.22v-0.55
			c0.02-0.5,0.16-0.94,0.43-1.32c0.27-0.37,0.64-0.66,1.1-0.87c0.46-0.21,0.98-0.31,1.55-0.31c0.62,0,1.17,0.12,1.64,0.35
			s0.83,0.55,1.08,0.96c0.25,0.41,0.38,0.86,0.38,1.37c0,0.77-0.41,1.65-1.22,2.65c-0.3,0.38-0.65,0.81-1.06,1.27
			c-0.41,0.47-0.82,0.93-1.23,1.39l-0.39,0.43c-0.03,0.03-0.04,0.05-0.03,0.07c0.01,0.02,0.03,0.03,0.07,0.03h3.86
			c0.15,0,0.22,0.08,0.22,0.22v0.95c0,0.15-0.07,0.22-0.22,0.22h-5.91C566.61,240.66,566.53,240.59,566.53,240.44z"/>
	</g>
</g>
<g>
	
		<ellipse transform="matrix(0.7071 -0.7071 0.7071 0.7071 10.4268 496.7354)" class="st12" cx="604.83" cy="235.78" rx="11.83" ry="11.83"/>
	<g>
		<path class="st7" d="M600.79,230.86h1.26c0.15,0,0.22,0.07,0.22,0.22v9.35c0,0.15-0.07,0.22-0.22,0.22h-1.18
			c-0.15,0-0.22-0.08-0.22-0.22v-7.94c0-0.07-0.03-0.09-0.1-0.07l-1.3,0.36c-0.02,0.01-0.04,0.01-0.07,0.01
			c-0.06,0-0.1-0.02-0.13-0.06c-0.03-0.04-0.05-0.09-0.05-0.15v-0.81c0-0.11,0.06-0.2,0.17-0.25l1.36-0.62
			C600.6,230.88,600.68,230.86,600.79,230.86z"/>
		<path class="st7" d="M604.87,239.98c-0.57-0.55-0.86-1.3-0.86-2.25v-3.95c0-0.93,0.29-1.67,0.86-2.22
			c0.57-0.55,1.35-0.82,2.33-0.82c0.98,0,1.76,0.27,2.34,0.82c0.58,0.55,0.88,1.29,0.88,2.22v3.95c0,0.94-0.29,1.69-0.88,2.25
			c-0.58,0.56-1.36,0.83-2.34,0.83C606.22,240.81,605.44,240.54,604.87,239.98z M608.36,238.97c0.29-0.28,0.43-0.67,0.43-1.15v-4.09
			c0-0.48-0.14-0.87-0.43-1.15c-0.29-0.29-0.68-0.43-1.16-0.43c-0.48,0-0.86,0.14-1.14,0.43c-0.29,0.28-0.43,0.67-0.43,1.15v4.09
			c0,0.49,0.14,0.87,0.43,1.15c0.28,0.29,0.67,0.43,1.14,0.43C607.68,239.4,608.07,239.26,608.36,238.97z"/>
	</g>
</g>
<g>
	<path class="st8" d="M367.27,228.23h-24.31c-2.26,0-4.1,1.83-4.1,4.1v24.31c0,2.26,1.83,4.1,4.1,4.1h24.31c2.26,0,4.1-1.83,4.1-4.1
		v-24.31C371.37,230.06,369.53,228.23,367.27,228.23z"/>
	<polygon class="st8" points="381.42,234.58 373.25,238.58 373.25,250.38 381.42,254.38 	"/>
	<g>
		<path class="st7" d="M355.12,252.97c-4.68,0-8.49-3.81-8.49-8.49c0-4.68,3.81-8.49,8.49-8.49c4.68,0,8.49,3.81,8.49,8.49
			C363.61,249.16,359.8,252.97,355.12,252.97z M355.12,237.49c-3.85,0-6.99,3.14-6.99,6.99c0,3.85,3.14,6.99,6.99,6.99
			s6.99-3.14,6.99-6.99C362.11,240.63,358.97,237.49,355.12,237.49z"/>
	</g>
</g>
<g>
	<g>
		<path class="st8" d="M438.3,260.71l-11.79-6.2l-11.79,6.2l2.25-13.13l-9.54-9.3l13.18-1.92l5.9-11.95l5.9,11.95l13.18,1.92
			l-9.54,9.3L438.3,260.71z M426.51,252.82l9.8,5.15l-1.87-10.91l7.93-7.73l-10.96-1.59l-4.9-9.93l-4.9,9.93l-10.96,1.59l7.93,7.73
			l-1.87,10.91L426.51,252.82z"/>
	</g>
</g>
<g>
	<g>
		<g>
			<g>
				<path class="st8" d="M495.86,260.09c-0.41,0-0.75-0.34-0.75-0.75v-4.16c0-5.11-4.16-9.27-9.27-9.27h-9.91
					c-5.11,0-9.27,4.16-9.27,9.27v4.16c0,0.41-0.34,0.75-0.75,0.75c-0.41,0-0.75-0.34-0.75-0.75v-4.16
					c0-5.94,4.83-10.77,10.77-10.77h9.91c5.94,0,10.77,4.83,10.77,10.77v4.16C496.61,259.75,496.27,260.09,495.86,260.09z"/>
			</g>
			<g>
				<path class="st8" d="M480.88,242.15c-4.89,0-8.87-3.98-8.87-8.87c0-4.89,3.98-8.87,8.87-8.87c4.89,0,8.87,3.98,8.87,8.87
					C489.74,238.18,485.77,242.15,480.88,242.15z M480.88,225.92c-4.06,0-7.37,3.3-7.37,7.37c0,4.06,3.3,7.37,7.37,7.37
					c4.06,0,7.37-3.3,7.37-7.37C488.24,229.23,484.94,225.92,480.88,225.92z"/>
			</g>
		</g>
	</g>
</g>
<g>
	<path class="st12" d="M63.9-154.52H31.12c-5.57,0-10.08,4.51-10.08,10.08v16.3c0,5.57,4.51,10.08,10.08,10.08h9.04l7.34,9.34
		l7.34-9.34h9.04c5.57,0,10.08-4.51,10.08-10.08v-16.3C73.98-150.01,69.47-154.52,63.9-154.52z"/>
	<g>
		<path class="st7" d="M63.29-132.5h-2.02v2.97h-1.82v-2.97h-5.85v-1.17l5.31-7.74h2.36v7.42h2.02V-132.5z M55.53-134h3.92v-4.07
			l0.07-1.93c-0.32,0.61-0.71,1.27-1.19,1.98L55.53-134z"/>
	</g>
	<path class="st7" d="M48.15-142.76c-1.78-1.78-4.66-1.78-6.44,0l-1.43,1.43l-1.43-1.43c-1.78-1.78-4.66-1.78-6.44,0
		c-1.78,1.78-1.78,4.66,0,6.44l7.87,7.87l7.87-7.87C49.93-138.1,49.93-140.98,48.15-142.76z"/>
</g>
<g>
	<path class="st12" d="M146.07-154.52h-40.78c-5.57,0-10.08,4.51-10.08,10.08v16.3c0,5.57,4.51,10.08,10.08,10.08h13.04l7.34,9.34
		l7.34-9.34h13.04c5.57,0,10.08-4.51,10.08-10.08v-16.3C156.15-150.01,151.63-154.52,146.07-154.52z"/>
	<g>
		<g>
			<path class="st7" d="M125.66-130.95c1.56-1.09,2.77-2.02,3.64-2.78c0.86-0.76,1.48-1.46,1.86-2.09c0.38-0.63,0.57-1.28,0.57-1.95
				c0-0.64-0.2-1.15-0.6-1.55c-0.4-0.4-0.95-0.59-1.65-0.59c-0.74,0-1.34,0.25-1.77,0.74c-0.44,0.49-0.69,1.18-0.75,2.05l-1.67-0.77
				c0.12-1.14,0.56-2.04,1.31-2.7c0.76-0.66,1.75-0.99,2.99-0.99c0.85,0,1.59,0.16,2.21,0.49c0.62,0.33,1.1,0.78,1.42,1.34
				c0.32,0.56,0.49,1.2,0.49,1.91c0,1.14-0.42,2.23-1.27,3.26c-0.85,1.03-2.25,2.18-4.22,3.44c0.6-0.01,1.25-0.04,1.96-0.04h3.74
				v1.66h-8.26V-130.95z"/>
			<path class="st7" d="M142.34-141.17c0.58,0.28,1.02,0.66,1.32,1.14c0.3,0.48,0.45,1.01,0.45,1.6c0,0.56-0.11,1.06-0.33,1.5
				c-0.22,0.44-0.5,0.78-0.85,1.02c-0.34,0.24-0.69,0.36-1.05,0.36c0.46,0.04,0.87,0.15,1.25,0.38c0.38,0.23,0.68,0.55,0.91,0.97
				c0.23,0.42,0.34,0.91,0.34,1.46c0,0.65-0.18,1.23-0.54,1.75c-0.36,0.52-0.87,0.92-1.52,1.21c-0.65,0.29-1.41,0.43-2.26,0.43
				c-2.15,0-3.57-0.96-4.27-2.88l1.76-0.85c0.18,0.7,0.47,1.21,0.86,1.56c0.4,0.34,0.97,0.51,1.71,0.51c0.72,0,1.28-0.18,1.69-0.53
				c0.41-0.35,0.61-0.83,0.61-1.41c0-0.65-0.2-1.11-0.59-1.38c-0.39-0.27-1.01-0.41-1.86-0.41h-0.54v-1.53h0.49
				c1.49,0,2.23-0.61,2.23-1.84c0-0.6-0.17-1.06-0.51-1.37c-0.34-0.31-0.83-0.47-1.45-0.47c-0.64,0-1.14,0.15-1.52,0.46
				c-0.38,0.31-0.62,0.74-0.73,1.31l-1.76-0.72c0.25-0.86,0.74-1.53,1.47-2c0.73-0.47,1.59-0.7,2.58-0.7
				C141.05-141.59,141.75-141.45,142.34-141.17z"/>
		</g>
		<path class="st7" d="M106.88-131.85c-0.86-1.26-1.37-2.78-1.37-4.42c0-4.32,3.5-7.82,7.82-7.82s7.82,3.5,7.82,7.82
			s-3.5,7.82-7.82,7.82c-1.64,0-3.16-0.51-4.42-1.37l-2.92,0.89L106.88-131.85z"/>
	</g>
</g>
<g>
	<path class="st12" d="M412.71-154.52h-92.78c-5.57,0-10.08,4.51-10.08,10.08v16.3c0,5.57,4.51,10.08,10.08,10.08h39.04l7.34,9.34
		l7.34-9.34h39.04c5.57,0,10.08-4.51,10.08-10.08v-16.3C422.8-150.01,418.28-154.52,412.71-154.52z"/>
	<g>
		<path class="st7" d="M346.44-141.41v11.88h-1.89v-8.78c0-0.41,0.01-0.73,0.02-0.95c-0.41,0.4-0.87,0.74-1.39,1.03
			c-0.52,0.29-1.05,0.49-1.59,0.61l-0.36-1.67c0.31-0.04,0.72-0.17,1.21-0.4c0.5-0.23,0.97-0.5,1.41-0.81
			c0.44-0.31,0.77-0.61,0.97-0.9H346.44z"/>
		<path class="st7" d="M349.39-130.95c1.56-1.09,2.77-2.02,3.64-2.78c0.86-0.76,1.49-1.46,1.86-2.09c0.38-0.63,0.57-1.28,0.57-1.95
			c0-0.64-0.2-1.15-0.6-1.55c-0.4-0.4-0.95-0.59-1.65-0.59c-0.74,0-1.34,0.25-1.77,0.74c-0.44,0.49-0.69,1.18-0.75,2.05l-1.67-0.77
			c0.12-1.14,0.56-2.04,1.31-2.7c0.76-0.66,1.75-0.99,2.99-0.99c0.85,0,1.59,0.16,2.21,0.49c0.62,0.33,1.1,0.78,1.42,1.34
			c0.32,0.56,0.49,1.2,0.49,1.91c0,1.14-0.42,2.23-1.27,3.26c-0.85,1.03-2.25,2.18-4.22,3.44c0.6-0.01,1.25-0.04,1.96-0.04h3.74
			v1.66h-8.26V-130.95z"/>
		<path class="st7" d="M364.53-141.41v11.88h-1.89v-8.78c0-0.41,0.01-0.73,0.02-0.95c-0.41,0.4-0.87,0.74-1.39,1.03
			c-0.52,0.29-1.05,0.49-1.59,0.61l-0.36-1.67c0.31-0.04,0.72-0.17,1.21-0.4c0.5-0.23,0.97-0.5,1.41-0.81
			c0.44-0.31,0.77-0.61,0.97-0.9H364.53z"/>
	</g>
	<path class="st7" d="M336.1-142.76c-1.78-1.78-4.66-1.78-6.44,0l-1.43,1.43l-1.43-1.43c-1.78-1.78-4.66-1.78-6.44,0
		s-1.78,4.66,0,6.44l7.87,7.87l7.87-7.87C337.88-138.1,337.88-140.98,336.1-142.76z"/>
	<g>
		<path class="st7" d="M400.43-141.17c0.58,0.28,1.02,0.66,1.32,1.14c0.3,0.48,0.45,1.01,0.45,1.6c0,0.56-0.11,1.06-0.33,1.5
			c-0.22,0.44-0.5,0.78-0.85,1.02c-0.34,0.24-0.69,0.36-1.05,0.36c0.46,0.04,0.87,0.15,1.25,0.38c0.38,0.23,0.68,0.55,0.91,0.97
			c0.23,0.42,0.34,0.91,0.34,1.46c0,0.65-0.18,1.23-0.54,1.75c-0.36,0.52-0.87,0.92-1.52,1.21s-1.41,0.43-2.26,0.43
			c-2.15,0-3.57-0.96-4.27-2.88l1.76-0.85c0.18,0.7,0.47,1.21,0.86,1.56c0.4,0.34,0.97,0.51,1.71,0.51c0.72,0,1.28-0.18,1.69-0.53
			s0.61-0.83,0.61-1.41c0-0.65-0.2-1.11-0.58-1.38c-0.39-0.27-1.01-0.41-1.86-0.41h-0.54v-1.53h0.49c1.49,0,2.23-0.61,2.23-1.84
			c0-0.6-0.17-1.06-0.51-1.37c-0.34-0.31-0.83-0.47-1.45-0.47c-0.64,0-1.14,0.15-1.52,0.46c-0.38,0.31-0.62,0.74-0.73,1.31
			l-1.76-0.72c0.25-0.86,0.74-1.53,1.47-2c0.73-0.47,1.59-0.7,2.58-0.7C399.15-141.59,399.85-141.45,400.43-141.17z"/>
		<path class="st7" d="M414.03-132.5h-2.02v2.97h-1.82v-2.97h-5.85v-1.17l5.31-7.74h2.36v7.42h2.02V-132.5z M406.27-134h3.92v-4.07
			l0.07-1.93c-0.32,0.61-0.71,1.27-1.19,1.98L406.27-134z"/>
	</g>
	<path class="st7" d="M375.85-131.85c-0.86-1.26-1.37-2.78-1.37-4.42c0-4.32,3.5-7.82,7.82-7.82s7.82,3.5,7.82,7.82
		s-3.5,7.82-7.82,7.82c-1.64,0-3.16-0.51-4.42-1.37l-2.92,0.89L375.85-131.85z"/>
</g>
<g>
	<path class="st12" d="M279.58-154.52h-92.78c-5.57,0-10.08,4.51-10.08,10.08v16.3c0,5.57,4.51,10.08,10.08,10.08h39.04l7.34,9.34
		l7.34-9.34h39.04c5.57,0,10.08-4.51,10.08-10.08v-16.3C289.67-150.01,285.15-154.52,279.58-154.52z"/>
	<g>
		<path class="st7" d="M214.07-141.17c0.58,0.28,1.02,0.66,1.32,1.14c0.3,0.48,0.45,1.01,0.45,1.6c0,0.56-0.11,1.06-0.33,1.5
			c-0.22,0.44-0.5,0.78-0.85,1.02c-0.34,0.24-0.69,0.36-1.05,0.36c0.46,0.04,0.87,0.15,1.25,0.38c0.38,0.23,0.68,0.55,0.91,0.97
			c0.23,0.42,0.34,0.91,0.34,1.46c0,0.65-0.18,1.23-0.54,1.75c-0.36,0.52-0.87,0.92-1.52,1.21c-0.65,0.29-1.41,0.43-2.26,0.43
			c-2.15,0-3.57-0.96-4.27-2.88l1.76-0.85c0.18,0.7,0.47,1.21,0.86,1.56c0.4,0.34,0.97,0.51,1.71,0.51c0.72,0,1.28-0.18,1.69-0.53
			c0.41-0.35,0.61-0.83,0.61-1.41c0-0.65-0.2-1.11-0.59-1.38c-0.39-0.27-1.01-0.41-1.86-0.41h-0.54v-1.53h0.49
			c1.49,0,2.23-0.61,2.23-1.84c0-0.6-0.17-1.06-0.51-1.37c-0.34-0.31-0.83-0.47-1.45-0.47c-0.64,0-1.14,0.15-1.52,0.46
			c-0.38,0.31-0.62,0.74-0.73,1.31l-1.76-0.72c0.25-0.86,0.74-1.53,1.47-2c0.73-0.47,1.59-0.7,2.58-0.7
			C212.79-141.59,213.48-141.45,214.07-141.17z"/>
		<path class="st7" d="M223.08-141.41v11.88h-1.89v-8.78c0-0.41,0.01-0.73,0.02-0.95c-0.41,0.4-0.87,0.74-1.4,1.03
			c-0.52,0.29-1.05,0.49-1.59,0.61l-0.36-1.67c0.31-0.04,0.72-0.17,1.22-0.4c0.5-0.23,0.97-0.5,1.41-0.81
			c0.44-0.31,0.77-0.61,0.97-0.9H223.08z"/>
		<path class="st7" d="M233.16-140.99c0.64,0.4,1.13,1.05,1.48,1.93l-1.69,0.81c-0.35-1.12-1.12-1.67-2.3-1.67
			c-0.58,0-1.09,0.2-1.53,0.59c-0.44,0.4-0.79,0.94-1.03,1.64c-0.25,0.7-0.37,1.48-0.37,2.34v0.32h0.07
			c0.19-0.65,0.58-1.14,1.17-1.48c0.59-0.34,1.24-0.51,1.96-0.51c0.78,0,1.47,0.16,2.07,0.47c0.6,0.31,1.06,0.75,1.39,1.32
			c0.33,0.57,0.5,1.24,0.5,2.01c0,1.19-0.38,2.13-1.13,2.83c-0.76,0.7-1.79,1.04-3.1,1.04c-1.5,0-2.66-0.55-3.47-1.65
			c-0.82-1.1-1.22-2.59-1.22-4.47c0-1.31,0.21-2.42,0.62-3.35c0.41-0.92,0.98-1.62,1.71-2.08c0.73-0.46,1.55-0.69,2.48-0.69
			C231.72-141.59,232.52-141.39,233.16-140.99z M228.95-134.82c-0.43,0.4-0.64,0.93-0.64,1.58c0,0.67,0.21,1.21,0.63,1.62
			c0.42,0.41,0.98,0.61,1.69,0.61c0.73,0,1.3-0.2,1.71-0.59c0.41-0.39,0.61-0.94,0.61-1.65c0-0.68-0.2-1.22-0.61-1.6
			c-0.41-0.38-0.98-0.58-1.71-0.58C229.94-135.42,229.38-135.22,228.95-134.82z"/>
	</g>
	<g>
		<path class="st7" d="M270.4-136.69c0.56,0.32,1,0.76,1.3,1.32c0.31,0.56,0.46,1.22,0.46,1.96c0,1.28-0.38,2.28-1.15,2.99
			c-0.77,0.71-1.79,1.06-3.08,1.06c-1.08,0-1.96-0.22-2.65-0.65c-0.69-0.43-1.24-1.09-1.65-1.96l1.8-0.99
			c0.18,0.65,0.45,1.14,0.82,1.47c0.37,0.33,0.92,0.5,1.65,0.5c0.73,0,1.31-0.2,1.74-0.59c0.43-0.4,0.64-0.95,0.64-1.67
			c0-0.74-0.2-1.32-0.59-1.72c-0.4-0.4-0.97-0.6-1.71-0.6c-1.13,0-1.93,0.34-2.41,1.03l-1.6-0.11l0.74-6.75h6.89v1.66h-5.36
			l-0.41,3.29l-0.04,0.25c0.59-0.64,1.47-0.95,2.65-0.95C269.18-137.16,269.84-137.01,270.4-136.69z"/>
		<path class="st7" d="M278.98-141.41v11.88h-1.89v-8.78c0-0.41,0.01-0.73,0.02-0.95c-0.41,0.4-0.87,0.74-1.39,1.03
			c-0.52,0.29-1.05,0.49-1.59,0.61l-0.36-1.67c0.31-0.04,0.72-0.17,1.21-0.4c0.5-0.23,0.97-0.5,1.41-0.81
			c0.44-0.31,0.77-0.61,0.97-0.9H278.98z"/>
	</g>
	<path class="st7" d="M244.6-131.85c-0.86-1.26-1.37-2.78-1.37-4.42c0-4.32,3.5-7.82,7.82-7.82s7.82,3.5,7.82,7.82
		s-3.5,7.82-7.82,7.82c-1.64,0-3.16-0.51-4.42-1.37l-2.92,0.89L244.6-131.85z"/>
	<g>
		<g>
			<g>
				<path class="st7" d="M202.91-128.44c0-2.89-2.34-5.23-5.23-5.23h-5.17c-2.89,0-5.23,2.34-5.23,5.23H202.91z"/>
				<circle class="st7" cx="195.1" cy="-139.86" r="4.23"/>
			</g>
		</g>
	</g>
</g>
<g>
	<path class="st12" d="M-9.77-154.52h-34.78c-5.57,0-10.08,4.51-10.08,10.08v16.3c0,5.57,4.51,10.08,10.08,10.08h10.04l7.34,9.34
		l7.34-9.34h10.04c5.57,0,10.08-4.51,10.08-10.08v-16.3C0.32-150.01-4.2-154.52-9.77-154.52z"/>
	<g>
		<g>
			<g>
				<g>
					<path class="st7" d="M-29.41-128.44c0-2.89-2.34-5.23-5.23-5.23h-5.17c-2.89,0-5.23,2.34-5.23,5.23H-29.41z"/>
					<circle class="st7" cx="-37.22" cy="-139.86" r="4.23"/>
				</g>
			</g>
		</g>
		<g>
			<path class="st7" d="M-21.66-141.41v11.88h-1.89v-8.78c0-0.41,0.01-0.73,0.02-0.95c-0.41,0.4-0.87,0.74-1.4,1.03
				c-0.52,0.29-1.05,0.49-1.59,0.61l-0.36-1.67c0.31-0.04,0.72-0.17,1.22-0.4c0.5-0.23,0.97-0.5,1.41-0.81
				c0.44-0.31,0.77-0.61,0.97-0.9H-21.66z"/>
			<path class="st7" d="M-18.71-130.95c1.56-1.09,2.77-2.02,3.64-2.78c0.86-0.76,1.48-1.46,1.86-2.09c0.38-0.63,0.57-1.28,0.57-1.95
				c0-0.64-0.2-1.15-0.6-1.55c-0.4-0.4-0.95-0.59-1.65-0.59c-0.74,0-1.34,0.25-1.77,0.74c-0.44,0.49-0.69,1.18-0.75,2.05l-1.67-0.77
				c0.12-1.14,0.56-2.04,1.31-2.7c0.76-0.66,1.75-0.99,2.99-0.99c0.85,0,1.59,0.16,2.21,0.49c0.62,0.33,1.1,0.78,1.42,1.34
				c0.32,0.56,0.49,1.2,0.49,1.91c0,1.14-0.42,2.23-1.27,3.26c-0.85,1.03-2.25,2.18-4.22,3.44c0.6-0.01,1.25-0.04,1.96-0.04h3.74
				v1.66h-8.26V-130.95z"/>
		</g>
	</g>
</g>
<g>
	<path class="st12" d="M-85.26-154.52h-24.78c-5.57,0-10.08,4.51-10.08,10.08v16.3c0,5.57,4.51,10.08,10.08,10.08h5.04l7.34,9.34
		l7.34-9.34h5.04c5.57,0,10.08-4.51,10.08-10.08v-16.3C-75.18-150.01-79.69-154.52-85.26-154.52z"/>
	<path class="st7" d="M-87.82-143.37c-2.22-2.22-5.82-2.22-8.04,0l-1.79,1.79l-1.79-1.79c-2.22-2.22-5.82-2.22-8.04,0
		c-2.22,2.22-2.22,5.82,0,8.04l9.83,9.83l9.83-9.83C-85.6-137.55-85.6-141.15-87.82-143.37z"/>
</g>
<g>
	<path class="st12" d="M605.84-154.52H453.07c-5.57,0-10.08,4.51-10.08,10.08v16.3c0,5.57,4.51,10.08,10.08,10.08h69.04l7.34,9.34
		l7.34-9.34h69.04c5.57,0,10.08-4.51,10.08-10.08v-16.3C615.93-150.01,611.41-154.52,605.84-154.52z"/>
	<path class="st7" d="M470.45-142.76c-1.78-1.78-4.66-1.78-6.44,0l-1.43,1.43l-1.43-1.43c-1.78-1.78-4.66-1.78-6.44,0
		s-1.78,4.66,0,6.44l7.87,7.87l7.87-7.87C472.23-138.1,472.23-140.98,470.45-142.76z"/>
	<path class="st7" d="M511.32-131.85c-0.86-1.26-1.37-2.78-1.37-4.42c0-4.32,3.5-7.82,7.82-7.82c4.32,0,7.82,3.5,7.82,7.82
		s-3.5,7.82-7.82,7.82c-1.64,0-3.16-0.51-4.42-1.37l-2.92,0.89L511.32-131.85z"/>
	<g>
		<g>
			<g>
				<path class="st7" d="M581.34-128.44c0-2.89-2.34-5.23-5.23-5.23h-5.17c-2.89,0-5.23,2.34-5.23,5.23H581.34z"/>
				<circle class="st7" cx="573.53" cy="-139.86" r="4.23"/>
			</g>
		</g>
	</g>
	<g>
		<path class="st7" d="M483.4-141.17c0.58,0.28,1.02,0.66,1.32,1.14c0.3,0.48,0.45,1.01,0.45,1.6c0,0.56-0.11,1.06-0.33,1.5
			c-0.22,0.44-0.5,0.78-0.85,1.02c-0.34,0.24-0.69,0.36-1.05,0.36c0.46,0.04,0.87,0.15,1.25,0.38c0.38,0.23,0.68,0.55,0.91,0.97
			c0.23,0.42,0.34,0.91,0.34,1.46c0,0.65-0.18,1.23-0.54,1.75c-0.36,0.52-0.87,0.92-1.52,1.21c-0.65,0.29-1.41,0.43-2.26,0.43
			c-2.15,0-3.57-0.96-4.27-2.88l1.76-0.85c0.18,0.7,0.47,1.21,0.86,1.56c0.4,0.34,0.97,0.51,1.71,0.51c0.72,0,1.28-0.18,1.69-0.53
			c0.41-0.35,0.61-0.83,0.61-1.41c0-0.65-0.2-1.11-0.59-1.38c-0.39-0.27-1.01-0.41-1.86-0.41h-0.54v-1.53h0.49
			c1.49,0,2.23-0.61,2.23-1.84c0-0.6-0.17-1.06-0.51-1.37c-0.34-0.31-0.83-0.47-1.45-0.47c-0.64,0-1.14,0.15-1.52,0.46
			c-0.38,0.31-0.62,0.74-0.73,1.31l-1.76-0.72c0.25-0.86,0.74-1.53,1.47-2c0.73-0.47,1.59-0.7,2.58-0.7
			C482.11-141.59,482.81-141.45,483.4-141.17z"/>
		<path class="st7" d="M496.99-132.5h-2.02v2.97h-1.82v-2.97h-5.85v-1.17l5.31-7.74h2.36v7.42h2.02V-132.5z M489.24-134h3.92v-4.07
			l0.07-1.93c-0.32,0.61-0.71,1.27-1.19,1.98L489.24-134z"/>
	</g>
	<g>
		<path class="st7" d="M532.25-130.95c1.56-1.09,2.77-2.02,3.64-2.78c0.86-0.76,1.49-1.46,1.86-2.09c0.38-0.63,0.57-1.28,0.57-1.95
			c0-0.64-0.2-1.15-0.6-1.55c-0.4-0.4-0.95-0.59-1.65-0.59c-0.74,0-1.34,0.25-1.77,0.74c-0.44,0.49-0.69,1.18-0.75,2.05l-1.67-0.77
			c0.12-1.14,0.56-2.04,1.31-2.7c0.76-0.66,1.75-0.99,2.99-0.99c0.85,0,1.59,0.16,2.21,0.49c0.62,0.33,1.1,0.78,1.42,1.34
			c0.32,0.56,0.49,1.2,0.49,1.91c0,1.14-0.42,2.23-1.27,3.26c-0.85,1.03-2.25,2.18-4.22,3.44c0.6-0.01,1.25-0.04,1.96-0.04h3.74
			v1.66h-8.26V-130.95z"/>
		<path class="st7" d="M548.92-141.17c0.58,0.28,1.02,0.66,1.32,1.14c0.3,0.48,0.45,1.01,0.45,1.6c0,0.56-0.11,1.06-0.33,1.5
			c-0.22,0.44-0.5,0.78-0.85,1.02c-0.34,0.24-0.69,0.36-1.05,0.36c0.46,0.04,0.87,0.15,1.25,0.38c0.38,0.23,0.68,0.55,0.91,0.97
			c0.23,0.42,0.34,0.91,0.34,1.46c0,0.65-0.18,1.23-0.54,1.75c-0.36,0.52-0.87,0.92-1.52,1.21c-0.65,0.29-1.41,0.43-2.26,0.43
			c-2.15,0-3.57-0.96-4.27-2.88l1.76-0.85c0.18,0.7,0.47,1.21,0.86,1.56c0.4,0.34,0.97,0.51,1.71,0.51c0.72,0,1.28-0.18,1.69-0.53
			c0.41-0.35,0.61-0.83,0.61-1.41c0-0.65-0.2-1.11-0.59-1.38c-0.39-0.27-1.01-0.41-1.86-0.41h-0.54v-1.53h0.49
			c1.49,0,2.23-0.61,2.23-1.84c0-0.6-0.17-1.06-0.51-1.37c-0.34-0.31-0.83-0.47-1.45-0.47c-0.64,0-1.14,0.15-1.52,0.46
			c-0.38,0.31-0.62,0.74-0.73,1.31l-1.76-0.72c0.25-0.86,0.74-1.53,1.47-2c0.73-0.47,1.59-0.7,2.58-0.7
			C547.64-141.59,548.34-141.45,548.92-141.17z"/>
	</g>
	<g>
		<path class="st7" d="M592.19-141.17c0.58,0.28,1.02,0.66,1.32,1.14c0.3,0.48,0.45,1.01,0.45,1.6c0,0.56-0.11,1.06-0.33,1.5
			c-0.22,0.44-0.5,0.78-0.85,1.02c-0.34,0.24-0.69,0.36-1.05,0.36c0.46,0.04,0.87,0.15,1.25,0.38c0.38,0.23,0.68,0.55,0.91,0.97
			c0.23,0.42,0.34,0.91,0.34,1.46c0,0.65-0.18,1.23-0.54,1.75c-0.36,0.52-0.87,0.92-1.52,1.21c-0.65,0.29-1.41,0.43-2.26,0.43
			c-2.15,0-3.57-0.96-4.27-2.88l1.76-0.85c0.18,0.7,0.47,1.21,0.86,1.56c0.4,0.34,0.97,0.51,1.71,0.51c0.72,0,1.28-0.18,1.69-0.53
			s0.61-0.83,0.61-1.41c0-0.65-0.2-1.11-0.58-1.38c-0.39-0.27-1.01-0.41-1.86-0.41h-0.54v-1.53h0.49c1.49,0,2.23-0.61,2.23-1.84
			c0-0.6-0.17-1.06-0.51-1.37c-0.34-0.31-0.83-0.47-1.45-0.47c-0.64,0-1.14,0.15-1.52,0.46c-0.38,0.31-0.62,0.74-0.73,1.31
			l-1.76-0.72c0.25-0.86,0.74-1.53,1.47-2c0.73-0.47,1.59-0.7,2.58-0.7C590.91-141.59,591.61-141.45,592.19-141.17z"/>
		<path class="st7" d="M603.76-140.99c0.64,0.4,1.13,1.05,1.48,1.93l-1.69,0.81c-0.35-1.12-1.12-1.67-2.3-1.67
			c-0.58,0-1.09,0.2-1.53,0.59c-0.44,0.4-0.79,0.94-1.04,1.64c-0.25,0.7-0.37,1.48-0.37,2.34v0.32h0.07
			c0.19-0.65,0.58-1.14,1.17-1.48c0.59-0.34,1.24-0.51,1.96-0.51c0.78,0,1.47,0.16,2.07,0.47c0.6,0.31,1.06,0.75,1.39,1.32
			c0.33,0.57,0.5,1.24,0.5,2.01c0,1.19-0.38,2.13-1.13,2.83c-0.76,0.7-1.79,1.04-3.1,1.04c-1.5,0-2.66-0.55-3.47-1.65
			c-0.82-1.1-1.22-2.59-1.22-4.47c0-1.31,0.21-2.42,0.62-3.35c0.41-0.92,0.98-1.62,1.71-2.08c0.73-0.46,1.55-0.69,2.47-0.69
			C602.32-141.59,603.12-141.39,603.76-140.99z M599.55-134.82c-0.43,0.4-0.64,0.93-0.64,1.58c0,0.67,0.21,1.21,0.63,1.62
			c0.42,0.41,0.98,0.61,1.69,0.61c0.73,0,1.3-0.2,1.71-0.59c0.41-0.39,0.61-0.94,0.61-1.65c0-0.68-0.2-1.22-0.61-1.6
			c-0.41-0.38-0.98-0.58-1.71-0.58C600.54-135.42,599.98-135.22,599.55-134.82z"/>
	</g>
</g>
<g>
	<g>
		<g>
			<g>
				<path class="st8" d="M-216.1,84.78c-0.41,0-0.75-0.34-0.75-0.75v-4.16c0-5.11-4.16-9.27-9.27-9.27h-9.91
					c-5.11,0-9.27,4.16-9.27,9.27v4.16c0,0.41-0.34,0.75-0.75,0.75c-0.41,0-0.75-0.34-0.75-0.75v-4.16
					c0-5.94,4.83-10.77,10.77-10.77h9.91c5.94,0,10.77,4.83,10.77,10.77v4.16C-215.35,84.45-215.68,84.78-216.1,84.78z"/>
			</g>
			<g>
				<path class="st8" d="M-231.07,66.85c-4.89,0-8.87-3.98-8.87-8.87c0-4.89,3.98-8.87,8.87-8.87s8.87,3.98,8.87,8.87
					C-222.21,62.87-226.19,66.85-231.07,66.85z M-231.07,50.62c-4.06,0-7.37,3.3-7.37,7.37c0,4.06,3.3,7.37,7.37,7.37
					c4.06,0,7.37-3.3,7.37-7.37C-223.71,53.92-227.01,50.62-231.07,50.62z"/>
			</g>
		</g>
	</g>
	<g>
		<g>
			<path class="st8" d="M-249.6,70.6c-0.41,0-0.75-0.34-0.75-0.75v-11.1c0-0.41,0.34-0.75,0.75-0.75c0.41,0,0.75,0.34,0.75,0.75
				v11.1C-248.85,70.26-249.18,70.6-249.6,70.6z"/>
		</g>
		<g>
			<path class="st8" d="M-244.05,65.05h-11.1c-0.41,0-0.75-0.34-0.75-0.75c0-0.41,0.34-0.75,0.75-0.75h11.1
				c0.41,0,0.75,0.34,0.75,0.75C-243.3,64.71-243.63,65.05-244.05,65.05z"/>
		</g>
	</g>
</g>
</svg>
