<?xml version="1.0" encoding="utf-8"?>
<!-- Generator: Adobe Illustrator 25.4.0, SVG Export Plug-In . SVG Version: 6.00 Build 0)  -->
<svg version="1.1" id="Layer_1" xmlns="http://www.w3.org/2000/svg" xmlns:xlink="http://www.w3.org/1999/xlink" x="0px" y="0px"
	 viewBox="0 0 4500 568.2" style="enable-background:new 0 0 4500 568.2;" xml:space="preserve">
<style type="text/css">
	.st0{fill:#FEE0E5;}
	.st1{fill:url(#SVGID_1_);}
	.st2{fill:#FFFFFF;}
	.st3{fill:none;stroke:#F9124B;stroke-width:2.9226;stroke-miterlimit:10;}
	.st4{fill:#E6B5C1;}
	.st5{fill:url(#SVGID_00000098937045225485462250000003106872320407208591_);}
	.st6{fill:url(#SVGID_00000158023473509179533230000002014915157659461027_);}
	.st7{fill:url(#SVGID_00000000900852878822043210000009511336385093252242_);}
	.st8{fill:url(#SVGID_00000112615492826603893260000010119205366770049426_);}
	.st9{fill:url(#SVGID_00000018954241308334730940000003532129633763140513_);}
	.st10{fill:url(#SVGID_00000093875295978327791250000014040280071193342096_);}
</style>
<path class="st2" d="M37.05,363.19c3.41,0,6.79,0.08,10.09,0.23C55.99,172.73,213.9,20.29,406.72,20.29
	c150.45,0,283.24,92.32,336.26,231.6c18.67-4.05,37.65-6.15,56.55-6.15c64.69,0,125.89,22.84,174.38,64.72
	c59.14-49.42,133.54-76.46,211.57-76.46c125.96,0,239.59,69.9,296.59,182.44c1.42,2.81,2.81,5.66,4.12,8.55
	c41.81-170.18,178.8-295.28,340.91-295.28c121.69,0,235.05,71.81,299.33,188.51c26.92-9.41,54.45-14.17,82.01-14.17
	c93.79,0,181.8,54.11,234.11,142.57c49.8-34.57,106.61-52.76,165.49-52.76c88.16,0,169.91,40.8,228.79,109.91
	c38.1-20.59,80.96-31.35,124.84-31.35c8.25,0,15.94,0.3,23.1,0.98c5.1-14.7,11.55-29.1,19.28-42.94
	c46.69-83.85,135.52-135.94,231.82-135.94c79.84,0,154.54,35.59,204.79,96.45c50.29-60.86,124.91-96.49,204.79-96.49
	c3.6,0,7.2,0.07,10.76,0.26C3666.6,130.46,3803.55,0,3970.39,0c173.59,0,314.77,141.19,314.77,314.77c0,15.04-1.2,30.37-3.56,45.9
	c4.57-0.22,9.11-0.34,13.57-0.34c63.68,0,125.25,22.95,173.33,64.65c11.48,9.9,22.05,20.74,31.5,32.25V568.2H2880.56h-123.23
	h-1239.6h-43.42H0V365.74C12.19,364.05,24.56,363.19,37.05,363.19z"/>
</svg>
