<?xml version="1.0" encoding="utf-8"?>
<!-- Generator: Adobe Illustrator 25.4.0, SVG Export Plug-In . SVG Version: 6.00 Build 0)  -->
<svg version="1.1" id="Layer_1" xmlns="http://www.w3.org/2000/svg" xmlns:xlink="http://www.w3.org/1999/xlink" x="0px" y="0px"
	 viewBox="0 0 4500 636.83" style="enable-background:new 0 0 4500 636.83;" xml:space="preserve">
<style type="text/css">
	.st0{fill:#FEE0E5;}
	.st1{fill:url(#SVGID_1_);}
	.st2{fill:#FFFFFF;}
	.st3{fill:none;stroke:#F9124B;stroke-width:2.9226;stroke-miterlimit:10;}
	.st4{fill:#E6B5C1;}
	.st5{fill:url(#SVGID_00000143603061934883301070000018080786274867187878_);}
	.st6{fill:url(#SVGID_00000017475639939896896810000007374373766716961961_);}
	.st7{fill:url(#SVGID_00000062192456178386280420000006654322343733127838_);}
	.st8{fill:url(#SVGID_00000157299434281235693260000017913225568417917859_);}
	.st9{fill:url(#SVGID_00000107568814236303409380000010227728505010470041_);}
	.st10{fill:url(#SVGID_00000060733464133224911690000003464928760975806348_);}
</style>
<linearGradient id="SVGID_1_" gradientUnits="userSpaceOnUse" x1="2250" y1="70.5749" x2="2250" y2="1187.8716" gradientTransform="matrix(-1 0 0 1 4500 0)">
	<stop  offset="0" style="stop-color:#F7F7F7"/>
	<stop  offset="0.2277" style="stop-color:#F8EEEE"/>
	<stop  offset="0.6061" style="stop-color:#FBD4D4"/>
	<stop  offset="1" style="stop-color:#FFB3B3"/>
</linearGradient>
<path class="st1" d="M0,187.76v449.06h1522.99c0.86-1.28,1.69-2.55,2.47-3.83c3.56,1.35,7.2,2.63,10.84,3.83h1065.56
	c0.86-1.28,1.69-2.55,2.47-3.83c3.56,1.35,7.2,2.63,10.84,3.83h653.89c30.15,0,58.54-7.58,83.32-20.93
	c2.81,7.09,5.85,14.06,9.11,20.93H4500V268.65c-34.99,3.6-68.36,12.75-99.23,26.55c-32.02-33.15-76.88-53.77-126.6-53.77
	c-63.34,0-118.84,33.45-149.89,83.59c-32.25-40.2-81.79-65.93-137.36-65.93c-30.6,0-59.4,7.8-84.49,21.56
	c-59.93-68.36-147.86-111.52-245.89-111.52c-117.08,0-219.71,61.54-277.46,154.01c-30.15-24.15-68.36-38.62-110.03-38.62
	c-39,0-75,12.71-104.18,34.16c-24.52-55.05-76.42-95.18-138.41-103.12C2980.95,89.85,2860.5,0,2719.09,0
	c-117.26,0-220.12,61.76-277.76,154.54c-35.7-13.39-74.36-20.7-114.75-20.7c-82.39,0-157.61,30.49-215.1,80.77
	c-27.45-17.62-60.04-27.9-95.06-27.9c-26.33,0-51.3,5.81-73.73,16.16C1893.86,83.85,1776.82,0,1640.18,0
	c-117.26,0-220.09,61.76-277.76,154.54c-35.7-13.39-74.36-20.7-114.71-20.7c-108.94,0-205.42,53.29-264.83,135.23
	c-35.25,1.95-67.72,14.21-94.46,33.9C861,241.31,799.28,198.34,727.46,198.34c-52.39,0-99.41,22.91-131.66,59.21
	c-48.71-28.84-105.52-45.37-166.2-45.37c-63,0-121.84,17.81-171.75,48.71c-14.85,5.66-28.76,13.27-41.36,22.57
	c-27.45-61.61-89.18-104.62-160.99-104.62C36.11,178.84,17.44,181.99,0,187.76z"/>
</svg>
