<svg width="227" height="41" viewBox="0 0 227 41" fill="none" xmlns="http://www.w3.org/2000/svg">
<path d="M4.28 18.32C3.50667 18.4 2.85333 18.44 2.32 18.44C2.08 18.44 1.82667 18.44 1.56 18.44C1.32 18.4133 1.09333 18.3867 0.88 18.36C0.64 18.3333 0.4 18.24 0.16 18.08C0.0533333 17.9733 0.0133333 17.84 0.04 17.68C0.04 17.52 0.0533333 17.3467 0.0799999 17.16C0.213333 17.08 0.36 16.9867 0.52 16.88C0.653333 16.7733 0.786667 16.6667 0.92 16.56C0.76 16.5067 0.6 16.44 0.44 16.36C0.28 16.28 0.186667 16.08 0.16 15.76C0.186667 15.7067 0.226667 15.6133 0.28 15.48C0.333333 15.3467 0.386667 15.2133 0.44 15.08C1.32 14.6267 2.2 14.3867 3.08 14.36C3.96 14.3333 4.86667 14.2533 5.8 14.12C5.82667 14.04 5.88 13.96 5.96 13.88C6.04 13.7733 6.09333 13.68 6.12 13.6C6.57333 12.48 7.05333 11.4 7.56 10.36C8.06667 9.32 8.62667 8.28 9.24 7.24C9.24 7.24 9.22667 7.18667 9.2 7.08C8.90667 7.10667 8.61333 7.14667 8.32 7.2C8.02667 7.25333 7.73333 7.30667 7.44 7.36C6.98667 7.44 6.50667 7.53333 6 7.64C5.52 7.72 5.04 7.73333 4.56 7.68C4.37333 7.65333 4.24 7.62667 4.16 7.6C4.10667 7.54667 3.96 7.41333 3.72 7.2C3.72 7.06667 3.73333 6.93333 3.76 6.8C3.78667 6.66667 3.8 6.53333 3.8 6.4C3.96 6.29333 4.10667 6.2 4.24 6.12C4.4 6.04 4.54667 5.93333 4.68 5.8C4.52 5.72 4.34667 5.64 4.16 5.56C4 5.48 3.90667 5.29333 3.88 5C3.90667 4.52 4.18667 4.13333 4.72 3.84C5.01333 3.70667 5.29333 3.58667 5.56 3.48C5.82667 3.34667 6.09333 3.24 6.36 3.16C8.01333 2.62667 9.64 2.18667 11.24 1.84C12.8667 1.49333 14.52 1.21333 16.2 1C18.28 0.759999 20.3333 0.639999 22.36 0.639999C23.1867 0.613331 24 0.613331 24.8 0.639999C25.6267 0.666666 26.4267 0.759999 27.2 0.919998C27.7867 1.05333 28.3333 1.18666 28.84 1.32C29.3733 1.45333 29.84 1.70666 30.24 2.08C30.72 2.53333 30.96 3.05333 30.96 3.64C30.9867 4.22667 30.9333 4.82667 30.8 5.44C30.96 5.70667 31.16 5.92 31.4 6.08C31.6667 6.21333 31.8533 6.42667 31.96 6.72C31.8533 6.77333 31.76 6.81333 31.68 6.84C31.6 6.84 31.4933 6.86667 31.36 6.92C31.4667 7.08 31.56 7.25333 31.64 7.44C31.72 7.6 31.8133 7.77333 31.92 7.96C31.8133 8.01333 31.72 8.08 31.64 8.16C31.56 8.21333 31.4933 8.25333 31.44 8.28C31.3333 8.30667 31.2267 8.33333 31.12 8.36C31.0133 8.36 30.92 8.34666 30.84 8.32C30.3067 8.29333 29.7867 8.28 29.28 8.28C28.8 8.25333 28.3067 8.22667 27.8 8.2C26.8133 8.17333 25.8267 8.16 24.84 8.16C23.88 8.16 22.8933 8.13333 21.88 8.08C21.5067 8.08 21.1467 8.06667 20.8 8.04C20.4533 8.01333 20.0933 7.97333 19.72 7.92C19.56 7.86667 19.3867 7.81333 19.2 7.76C19.0133 7.68 18.7867 7.57333 18.52 7.44C18.4133 7.44 18.2533 7.45333 18.04 7.48C17.8533 7.48 17.64 7.49333 17.4 7.52C17.08 7.97333 16.8267 8.44 16.64 8.92C16.48 9.4 16.28 9.86666 16.04 10.32C15.8267 10.7733 15.6133 11.2267 15.4 11.68C15.2133 12.1333 15.0133 12.6 14.8 13.08C14.9333 13.1333 15.0533 13.1867 15.16 13.24C15.2667 13.2667 15.3733 13.28 15.48 13.28C16.04 13.36 16.5867 13.44 17.12 13.52C17.68 13.5733 18.24 13.6267 18.8 13.68C19.52 13.7333 20.2133 13.8533 20.88 14.04C21.5733 14.2 22.24 14.3733 22.88 14.56C24.1333 14.96 25.0267 15.7333 25.56 16.88C25.5067 17.1733 25.48 17.4533 25.48 17.72C25.5067 17.9867 25.4933 18.2667 25.44 18.56C25.36 18.6133 25.2667 18.6667 25.16 18.72C25.08 18.7733 25.0133 18.8267 24.96 18.88C24.88 18.88 24.8133 18.8933 24.76 18.92C24.7333 18.92 24.6933 18.9067 24.64 18.88C24.0267 18.5867 23.3867 18.3733 22.72 18.24C22.0533 18.08 21.3733 17.96 20.68 17.88C19.6133 17.7733 18.44 17.6933 17.16 17.64C15.88 17.5867 14.36 17.6267 12.6 17.76C12.5733 17.8667 12.52 17.9867 12.44 18.12C12.36 18.2533 12.28 18.3867 12.2 18.52C11.4 20.2533 10.6 21.9733 9.8 23.68C9 25.3867 8.2 27.12 7.4 28.88C7.13333 29.4667 6.88 30.0533 6.64 30.64C6.4 31.2267 6.12 31.8133 5.8 32.4C5.85333 32.08 5.92 31.76 6 31.44C6.08 31.12 6.14667 30.8 6.2 30.48H6.12C6.04 30.6933 5.94667 30.9067 5.84 31.12C5.76 31.3067 5.65333 31.5067 5.52 31.72C5.41333 31.96 5.30667 32.2 5.2 32.44C5.09333 32.6533 4.96 32.88 4.8 33.12C4.66667 32.88 4.61333 32.6533 4.64 32.44C4.69333 32.2 4.73333 31.9733 4.76 31.76C4.81333 31.5467 4.85333 31.3467 4.88 31.16C4.90667 30.9467 4.94667 30.7333 5 30.52C4.73333 31.1867 4.49333 31.8533 4.28 32.52C4.09333 33.1867 4.02667 33.8667 4.08 34.56C3.92 35.0667 3.66667 35.4267 3.32 35.64C3 35.8533 2.57333 35.9733 2.04 36C1.98667 35.9467 1.90667 35.8933 1.8 35.84C1.69333 35.8133 1.6 35.7733 1.52 35.72C1.14667 35.5067 0.853333 35.24 0.64 34.92C0.4 34.6 0.306667 34.1867 0.36 33.68C0.413333 33.12 0.466667 32.56 0.52 32C0.573333 31.44 0.666667 30.8933 0.8 30.36C1.09333 28.92 1.44 27.5067 1.84 26.12C2.24 24.7067 2.65333 23.2933 3.08 21.88C3.24 21.3733 3.41333 20.88 3.6 20.4C3.78667 19.8933 3.97333 19.4 4.16 18.92C4.16 18.84 4.17333 18.76 4.2 18.68C4.22667 18.5733 4.25333 18.4533 4.28 18.32ZM17.56 6.76C18.2267 6.89333 18.8933 6.94667 19.56 6.92C20.2533 6.86667 20.9333 6.86667 21.6 6.92C22.2667 6.49333 22.9333 6.26667 23.6 6.24C24.2667 6.21333 24.9467 6.18667 25.64 6.16C25.2933 6.10667 24.9467 6.06667 24.6 6.04C24.28 6.01333 23.96 5.98667 23.64 5.96C23.5067 5.96 23.36 5.96 23.2 5.96C23.04 5.96 22.8933 5.93333 22.76 5.88C22.4133 5.74667 22.0667 5.68 21.72 5.68C21.3733 5.68 21 5.70667 20.6 5.76C20.4667 5.78667 20.32 5.8 20.16 5.8C20 5.8 19.8533 5.81333 19.72 5.84C19.4267 5.86667 19.1333 5.88 18.84 5.88C18.5733 5.88 18.2933 5.90667 18 5.96C17.92 6.09333 17.84 6.22667 17.76 6.36C17.7067 6.46666 17.64 6.6 17.56 6.76ZM45.8706 26.52C45.5506 26.52 45.3106 26.4667 45.1506 26.36C44.9906 26.2267 44.8306 26.12 44.6706 26.04C44.484 25.96 44.3106 25.8667 44.1506 25.76C44.0173 25.6533 43.8706 25.5733 43.7106 25.52C43.4973 25.44 43.3106 25.3467 43.1506 25.24C42.9906 25.1333 42.804 25.0533 42.5906 25C42.6173 25.2133 42.6706 25.3733 42.7506 25.48C42.8573 25.56 42.9773 25.64 43.1106 25.72C43.484 25.9333 43.8306 26.1467 44.1506 26.36C44.4973 26.5467 44.8573 26.76 45.2306 27C45.524 27.16 45.7906 27.32 46.0306 27.48C46.2973 27.64 46.604 27.8267 46.9506 28.04C46.7106 28.0933 46.524 28.08 46.3906 28C46.284 27.92 46.1773 27.8533 46.0706 27.8C45.9373 27.7467 45.7906 27.6933 45.6306 27.64C45.4706 27.56 45.3106 27.4933 45.1506 27.44C44.884 27.2533 44.644 27.1333 44.4306 27.08C44.2973 27 44.164 26.9333 44.0306 26.88C43.924 26.8 43.804 26.7333 43.6706 26.68C43.5373 26.6267 43.404 26.5733 43.2706 26.52C43.164 26.44 43.044 26.3733 42.9106 26.32C42.7773 26.2667 42.6306 26.2133 42.4706 26.16C42.3106 26.08 42.164 26 42.0306 25.92C41.8973 25.8933 41.7506 25.8667 41.5906 25.84C41.4573 25.7867 41.324 25.7333 41.1906 25.68C41.244 25.8667 41.324 26 41.4306 26.08C41.564 26.1333 41.684 26.2 41.7906 26.28C42.884 27.0267 43.9373 27.7867 44.9506 28.56C45.9906 29.3333 47.0173 30.1467 48.0306 31C48.164 31.1333 48.284 31.2533 48.3906 31.36C48.524 31.4667 48.6573 31.5733 48.7906 31.68C48.7106 31.7867 48.6306 31.8133 48.5506 31.76C48.4706 31.7067 48.3906 31.6667 48.3106 31.64C47.9906 31.3733 47.604 31.12 47.1506 30.88C47.4173 31.2533 47.7373 31.6 48.1106 31.92C48.484 32.2133 48.844 32.5733 49.1906 33C49.0573 32.9733 48.964 32.96 48.9106 32.96C48.8573 32.96 48.804 32.9333 48.7506 32.88C48.3506 32.6667 47.9373 32.4667 47.5106 32.28C47.084 32.0667 46.6706 31.8267 46.2706 31.56C45.044 30.8667 43.8306 30.1733 42.6306 29.48C41.4573 28.7867 40.2573 28.12 39.0306 27.48C37.3773 26.6 35.7106 25.7867 34.0306 25.04C33.844 24.96 33.6573 24.8933 33.4706 24.84C33.3106 24.76 33.124 24.6667 32.9106 24.56C32.6973 24.8 32.5773 25 32.5506 25.16C32.2306 26.1733 31.9106 27.2 31.5906 28.24C31.2706 29.2533 30.9506 30.28 30.6306 31.32C30.4173 32.12 30.2306 32.9067 30.0706 33.68C30.044 33.7333 30.0173 33.7867 29.9906 33.84C29.964 33.8933 29.924 33.9867 29.8706 34.12C29.6573 33.9067 29.5506 33.6933 29.5506 33.48C29.5506 33.2667 29.5106 33.08 29.4306 32.92C29.3773 32.7333 29.324 32.5467 29.2706 32.36C29.2173 32.1467 29.1373 31.9333 29.0306 31.72C28.5773 32.0667 28.3106 32.4667 28.2306 32.92C28.1773 33.3467 28.044 33.7733 27.8306 34.2C27.4573 34.52 27.0573 34.6667 26.6306 34.64C26.284 34.5333 26.0573 34.3467 25.9506 34.08C25.8973 33.68 25.8706 33.3067 25.8706 32.96C25.844 32.6133 25.804 32.2667 25.7506 31.92C25.7506 31.7867 25.764 31.6667 25.7906 31.56C25.8173 31.4267 25.8306 31.2933 25.8306 31.16C25.9373 30.0133 26.1106 28.8933 26.3506 27.8C26.5906 26.7067 26.8706 25.6 27.1906 24.48C27.2173 24.3467 27.2306 24.2267 27.2306 24.12C27.2573 24.0133 27.284 23.8933 27.3106 23.76C27.1506 23.6533 26.9906 23.6267 26.8306 23.68C26.6973 23.7067 26.564 23.7067 26.4306 23.68C26.2706 23.7067 26.124 23.72 25.9906 23.72C25.8573 23.72 25.724 23.7333 25.5906 23.76C25.484 23.6267 25.3906 23.4933 25.3106 23.36C25.204 23.2267 25.0973 23.0933 24.9906 22.96C25.0973 22.8533 25.204 22.7733 25.3106 22.72C25.4173 22.6667 25.5373 22.5867 25.6706 22.48C25.644 22.48 25.6306 22.4667 25.6306 22.44L25.5906 22.4C25.4306 22.3467 25.284 22.3067 25.1506 22.28C25.0173 22.2267 24.924 22.1333 24.8706 22C24.9773 21.8133 25.084 21.6533 25.1906 21.52C25.2706 21.3867 25.4173 21.2667 25.6306 21.16C25.844 21.0267 26.164 20.8667 26.5906 20.68C27.0173 20.4933 27.6306 20.24 28.4306 19.92C28.5373 19.6533 28.644 19.4 28.7506 19.16C28.8573 18.92 28.9506 18.6667 29.0306 18.4C29.484 17.04 29.964 15.72 30.4706 14.44C30.9773 13.1333 31.5373 11.84 32.1506 10.56C32.364 10.16 32.564 9.74667 32.7506 9.32C32.9373 8.89333 33.084 8.45333 33.1906 8C32.6573 7.94667 32.044 8.08 31.3506 8.4C30.684 8.72 30.084 9.14667 29.5506 9.68C29.364 9.57333 29.2306 9.45333 29.1506 9.32C29.0706 9.16 29.004 9 28.9506 8.84C28.8973 8.65333 28.8573 8.48 28.8306 8.32C28.804 8.16 28.7506 8 28.6706 7.84C28.7506 7.14667 29.0973 6.6 29.7106 6.2C29.924 6.06667 30.1506 5.92 30.3906 5.76C30.6306 5.6 30.884 5.45333 31.1506 5.32C31.604 5.13333 32.0573 4.96 32.5106 4.8C32.9906 4.64 33.4573 4.48 33.9106 4.32C34.0706 4.29333 34.2173 4.26666 34.3506 4.24C34.5106 4.18667 34.6706 4.14667 34.8306 4.12C35.2573 3.34666 35.684 2.6 36.1106 1.88C36.564 1.13333 37.1906 0.519998 37.9906 0.0399976C38.124 0.0399976 38.2173 0.0666647 38.2706 0.119999C38.324 0.173332 38.3773 0.213331 38.4306 0.239997C38.484 0.239997 38.5373 0.266665 38.5906 0.319999C38.564 0.533333 38.5506 0.746665 38.5506 0.959998C38.5773 1.17333 38.6173 1.42666 38.6706 1.72C38.5906 1.93333 38.4973 2.17333 38.3906 2.44C38.3106 2.68 38.204 2.93333 38.0706 3.2C38.0973 3.2 38.1373 3.22666 38.1906 3.28C38.324 3.14667 38.444 3.01333 38.5506 2.88C38.6573 2.74667 38.804 2.58667 38.9906 2.4C39.2573 2.34667 39.484 2.21333 39.6706 2C39.884 1.78666 40.1773 1.68 40.5506 1.68C40.4973 1.89333 40.444 2.13333 40.3906 2.4C40.444 2.45333 40.484 2.50667 40.5106 2.56C40.5373 2.58666 40.5773 2.64 40.6306 2.72C40.5773 2.85333 40.524 3 40.4706 3.16C40.444 3.32 40.404 3.49333 40.3506 3.68C40.5106 3.68 40.6573 3.69333 40.7906 3.72C40.9506 3.74667 41.0973 3.76 41.2306 3.76C42.3506 3.89333 43.4573 4.05333 44.5506 4.24C45.644 4.4 46.7373 4.64 47.8306 4.96C49.8573 5.54667 51.2973 6.34667 52.1506 7.36C53.0306 8.37333 53.4306 9.48 53.3506 10.68C53.2973 11.8533 52.8173 13.0533 51.9106 14.28C51.0306 15.48 49.8306 16.5733 48.3106 17.56C46.7373 18.5733 44.9906 19.4 43.0706 20.04C41.1506 20.68 39.204 21.1733 37.2306 21.52C37.3106 21.6533 37.404 21.76 37.5106 21.84C37.644 21.8933 37.7773 21.9467 37.9106 22C39.164 22.5867 40.3906 23.2133 41.5906 23.88C42.7906 24.5467 43.9906 25.2533 45.1906 26C45.2706 26.0533 45.364 26.12 45.4706 26.2C45.5773 26.28 45.7106 26.3867 45.8706 26.52ZM39.1506 8.8C38.9373 9.33333 38.724 9.84 38.5106 10.32C38.2973 10.7733 38.0973 11.2267 37.9106 11.68C37.6973 12.16 37.484 12.6267 37.2706 13.08C37.084 13.5333 36.9106 14.0133 36.7506 14.52C36.5373 14.9733 36.324 15.44 36.1106 15.92C35.924 16.3733 35.7906 16.8533 35.7106 17.36C35.7906 17.3867 35.8706 17.4 35.9506 17.4C36.804 17.4 37.7773 17.2 38.8706 16.8C39.964 16.3733 41.004 15.84 41.9906 15.2C43.004 14.56 43.8573 13.8533 44.5506 13.08C45.244 12.3067 45.6173 11.56 45.6706 10.84C45.7506 10.12 45.4173 9.48 44.6706 8.92C43.924 8.33333 42.5906 7.92 40.6706 7.68C40.2973 7.62667 39.9373 7.58666 39.5906 7.56C39.244 7.53333 38.8973 7.49333 38.5506 7.44C38.4973 7.44 38.4573 7.46666 38.4306 7.52C38.4306 7.54667 38.404 7.58667 38.3506 7.64C38.484 7.69333 38.5906 7.74667 38.6706 7.8C38.7773 7.82667 38.884 7.85333 38.9906 7.88C38.9373 8.01333 38.8973 8.14667 38.8706 8.28C38.8706 8.38667 38.844 8.50667 38.7906 8.64C38.8706 8.66667 38.9906 8.72 39.1506 8.8ZM51.9506 10.48C52.1373 10.1333 52.1906 9.81333 52.1106 9.52C52.0573 9.2 52.044 8.90667 52.0706 8.64C51.4306 7.68 50.764 7.13333 50.0706 7C50.284 7.29333 50.5106 7.57333 50.7506 7.84C51.0173 8.08 51.244 8.29333 51.4306 8.48C51.5106 8.82667 51.5906 9.16 51.6706 9.48C51.7506 9.77333 51.844 10.1067 51.9506 10.48ZM50.8847 21.96C50.938 21.7467 50.978 21.52 51.0047 21.28C51.0314 21.04 51.0714 20.8 51.1247 20.56C51.1247 20.4533 51.1114 20.3867 51.0847 20.36C50.7914 19.9067 50.6714 19.4533 50.7247 19C50.7514 18.5467 50.8714 18.0933 51.0847 17.64C51.218 17.3467 51.3514 17.08 51.4847 16.84C51.6447 16.5733 51.818 16.32 52.0047 16.08C52.458 15.4667 52.9114 14.88 53.3647 14.32C53.8447 13.76 54.3247 13.1867 54.8047 12.6C55.018 12.36 55.2314 12.12 55.4447 11.88C55.658 11.64 55.8847 11.3733 56.1247 11.08C55.938 11 55.7647 10.9333 55.6047 10.88C55.4447 10.8 55.2847 10.72 55.1247 10.64C55.0714 10.5333 55.018 10.4133 54.9647 10.28C54.9114 10.1467 54.8447 9.98667 54.7647 9.8C55.0047 9.64 55.2847 9.44 55.6047 9.2C55.3914 9.14667 55.178 9.10667 54.9647 9.08C54.778 9.02667 54.6447 8.85333 54.5647 8.56C54.5647 8.34667 54.6314 8.14667 54.7647 7.96C54.9247 7.77333 55.1114 7.62667 55.3247 7.52C55.618 7.38667 55.898 7.26667 56.1647 7.16C56.458 7.02667 56.7514 6.92 57.0447 6.84C57.978 6.57333 58.9247 6.36 59.8847 6.2C60.8714 6.01333 61.8714 5.89333 62.8847 5.84C63.3114 5.81333 63.738 5.78667 64.1647 5.76C64.5914 5.70667 65.0314 5.69333 65.4847 5.72C66.2847 5.74666 67.0847 5.78666 67.8847 5.84C68.6847 5.89333 69.4714 5.96 70.2447 6.04C70.7514 6.09333 71.2447 6.14667 71.7247 6.2C72.2314 6.22667 72.7247 6.28 73.2047 6.36C73.5247 6.41333 73.8314 6.49333 74.1247 6.6C74.4447 6.68 74.7247 6.86667 74.9647 7.16C74.8314 7.21333 74.698 7.28 74.5647 7.36C74.458 7.41333 74.338 7.48 74.2047 7.56C74.1514 7.72 74.138 7.89333 74.1647 8.08C74.1914 8.26666 74.218 8.45333 74.2447 8.64C74.298 8.82666 74.3247 9.02666 74.3247 9.24C74.3247 9.42667 74.2447 9.61333 74.0847 9.8C73.978 9.82666 73.858 9.86666 73.7247 9.92C73.5914 9.97333 73.458 10.0133 73.3247 10.04C72.5247 10.2 71.778 10.32 71.0847 10.4C70.5514 10.48 70.0314 10.5467 69.5247 10.6C69.0447 10.6267 68.538 10.6667 68.0047 10.72C67.178 10.8 66.3514 10.88 65.5247 10.96C64.698 11.0133 63.8714 11.0667 63.0447 11.12C62.7514 11.1467 62.458 11.16 62.1647 11.16C61.898 11.1333 61.618 11.12 61.3247 11.12H59.9247C59.3914 11.8933 58.8847 12.6933 58.4047 13.52C57.9514 14.3467 57.458 15.1467 56.9247 15.92C56.9514 15.9733 56.9647 16.04 56.9647 16.12C56.9914 16.2 57.0314 16.2667 57.0847 16.32C57.2447 16.3733 57.3514 16.3867 57.4047 16.36C57.938 16.2267 58.4714 16.0933 59.0047 15.96C59.5647 15.8267 60.1114 15.7067 60.6447 15.6C61.738 15.3867 62.818 15.24 63.8847 15.16C64.978 15.0533 66.0847 15.0267 67.2047 15.08C67.738 15.1333 68.258 15.2 68.7647 15.28C69.298 15.3333 69.8314 15.4133 70.3647 15.52C71.0314 15.6267 71.6314 15.9333 72.1647 16.44C72.218 16.4933 72.258 16.56 72.2847 16.64C72.3114 16.72 72.3647 16.8267 72.4447 16.96C72.258 16.9067 72.1114 16.8667 72.0047 16.84C71.9247 16.7867 71.8314 16.7467 71.7247 16.72C71.5647 16.8267 71.5514 16.9467 71.6847 17.08C71.7914 17.16 71.898 17.24 72.0047 17.32C72.1114 17.3733 72.218 17.4533 72.3247 17.56C72.5114 17.6933 72.5647 17.8667 72.4847 18.08C71.9514 18.1067 71.4314 18.1333 70.9247 18.16C70.418 18.16 69.898 18.1867 69.3647 18.24C69.338 18.2667 69.3247 18.32 69.3247 18.4C69.6447 18.48 69.9647 18.5733 70.2847 18.68C70.6314 18.76 71.018 18.8667 71.4447 19C71.2047 19.1067 70.9914 19.16 70.8047 19.16C70.6447 19.1333 70.4847 19.1333 70.3247 19.16C70.1647 19.16 69.9914 19.16 69.8047 19.16C69.6447 19.16 69.4714 19.1733 69.2847 19.2C69.1247 19.2267 68.9514 19.2533 68.7647 19.28C68.6047 19.28 68.4447 19.2933 68.2847 19.32C68.1247 19.3467 67.9514 19.3733 67.7647 19.4C67.6047 19.4 67.3914 19.4267 67.1247 19.48C68.1114 19.72 69.0047 19.84 69.8047 19.84C70.098 19.84 70.378 19.8667 70.6447 19.92C70.938 19.9467 71.2447 20.04 71.5647 20.2C71.2714 20.3067 70.9914 20.3733 70.7247 20.4C70.4847 20.4267 70.2447 20.4533 70.0047 20.48C68.1647 20.72 66.3514 20.96 64.5647 21.2C62.778 21.4133 60.9647 21.6267 59.1247 21.84C58.298 21.9467 57.4714 22.0667 56.6447 22.2C55.818 22.3067 55.018 22.4933 54.2447 22.76C54.0847 22.8133 53.9247 22.8533 53.7647 22.88C53.6314 22.9067 53.4847 22.9333 53.3247 22.96C53.1114 23.0133 52.9247 23.04 52.7647 23.04C52.3647 23.0933 52.0047 23.0533 51.6847 22.92C51.3647 22.76 51.098 22.44 50.8847 21.96ZM70.7647 26.2C70.6847 26.3067 70.618 26.3867 70.5647 26.44C70.5114 26.4933 70.458 26.5467 70.4047 26.6C70.5114 26.7333 70.6047 26.88 70.6847 27.04C70.7647 27.2 70.858 27.36 70.9647 27.52C70.858 27.6 70.7647 27.68 70.6847 27.76C70.6047 27.8133 70.5114 27.8667 70.4047 27.92C70.2714 27.9733 70.1247 28 69.9647 28C69.8047 28 69.6447 28.0133 69.4847 28.04C68.2847 28.12 67.0714 28.2 65.8447 28.28C64.6447 28.36 63.4314 28.44 62.2047 28.52C61.5114 28.5733 60.8047 28.6267 60.0847 28.68C59.3647 28.7333 58.6047 28.8 57.8047 28.88C58.578 28.9867 59.298 29 59.9647 28.92C60.658 28.8133 61.338 28.7867 62.0047 28.84C61.5514 29.0533 61.0847 29.1867 60.6047 29.24C60.1514 29.2667 59.698 29.32 59.2447 29.4C58.338 29.5333 57.4314 29.6533 56.5247 29.76C55.618 29.8667 54.7114 29.96 53.8047 30.04C53.4047 30.0933 53.0047 30.1067 52.6047 30.08C52.2047 30.0533 51.7514 30.04 51.2447 30.04C51.778 29.7733 52.298 29.6133 52.8047 29.56C53.3114 29.48 53.8047 29.3867 54.2847 29.28H50.4047C50.3514 29.1733 50.298 29.08 50.2447 29C50.1914 28.8933 50.138 28.8133 50.0847 28.76C50.138 28.4933 50.258 28.32 50.4447 28.24C50.6047 28.16 50.7647 28.0667 50.9247 27.96C50.8447 27.9067 50.7514 27.88 50.6447 27.88C50.538 27.88 50.4314 27.88 50.3247 27.88C50.218 27.88 50.1247 27.8667 50.0447 27.84C49.938 27.7867 49.8447 27.6933 49.7647 27.56C49.818 27.3733 49.8847 27.2267 49.9647 27.12C50.178 26.9067 50.4047 26.7333 50.6447 26.6C50.8847 26.4667 51.138 26.3333 51.4047 26.2C52.1247 25.88 52.858 25.6133 53.6047 25.4C54.3514 25.1867 55.1114 25 55.8847 24.84C56.738 24.68 57.578 24.5733 58.4047 24.52C59.258 24.44 60.1114 24.4 60.9647 24.4C61.978 24.4 62.9647 24.4133 63.9247 24.44C64.9114 24.4667 65.898 24.5333 66.8847 24.64C67.178 24.6933 67.458 24.7333 67.7247 24.76C68.018 24.7867 68.3114 24.84 68.6047 24.92C69.0047 25.0267 69.3914 25.1733 69.7647 25.36C70.138 25.5467 70.4714 25.8267 70.7647 26.2ZM56.7247 29.16C56.7514 29.1333 56.7647 29.0933 56.7647 29.04H55.3247C55.2714 29.04 55.2314 29.0533 55.2047 29.08C55.2047 29.08 55.178 29.08 55.1247 29.08C55.1514 29.08 55.1647 29.1067 55.1647 29.16H56.7247ZM95.23 16.84C95.1233 16.92 95.03 16.9867 94.95 17.04C94.8967 17.0933 94.83 17.1467 94.75 17.2C94.8833 17.3333 95.0033 17.48 95.11 17.64C95.2167 17.7733 95.3233 17.9067 95.43 18.04C95.3767 18.2533 95.2833 18.4 95.15 18.48C95.0167 18.56 94.87 18.6 94.71 18.6C94.5233 18.6 94.3367 18.5867 94.15 18.56C93.9633 18.5333 93.7767 18.52 93.59 18.52C93.1633 18.52 92.7367 18.52 92.31 18.52C91.91 18.52 91.4967 18.5333 91.07 18.56C90.2967 18.6133 89.5367 18.6667 88.79 18.72C88.0433 18.7733 87.2833 18.8267 86.51 18.88C85.7633 18.96 85.0167 19.04 84.27 19.12C83.5233 19.2 82.79 19.28 82.07 19.36C81.9367 19.4667 81.8567 19.5333 81.83 19.56C81.4567 20.3067 81.15 21.0667 80.91 21.84C80.6967 22.6133 80.59 23.4133 80.59 24.24C80.59 24.7733 80.67 25.2667 80.83 25.72C81.0167 26.1467 81.35 26.52 81.83 26.84C82.4167 26.9467 82.9767 26.9467 83.51 26.84C84.07 26.7333 84.63 26.6133 85.19 26.48C86.63 26.16 88.0433 25.7867 89.43 25.36C90.8167 24.9067 92.2167 24.4533 93.63 24C94.4567 23.7333 95.2833 23.48 96.11 23.24C96.9367 22.9733 97.7767 22.7067 98.63 22.44C99.1633 22.3067 99.6967 22.2 100.23 22.12C100.763 22.0133 101.337 21.9333 101.95 21.88C101.417 22.2 100.897 22.4533 100.39 22.64C99.91 22.8 99.43 22.9867 98.95 23.2C98.47 23.4133 97.9767 23.6267 97.47 23.84C96.99 24.0267 96.51 24.2533 96.03 24.52L96.63 24.4C96.9767 24.3467 97.2967 24.2667 97.59 24.16C97.91 24.0267 98.2567 23.9733 98.63 24C98.87 24 99.11 23.9467 99.35 23.84C99.6167 23.7067 99.8833 23.6133 100.15 23.56C100.443 23.4533 100.737 23.3467 101.03 23.24C101.35 23.1333 101.683 23.0533 102.03 23C101.95 23.1333 101.87 23.2667 101.79 23.4C101.737 23.5333 101.657 23.6933 101.55 23.88C100.963 24.1467 100.35 24.4267 99.71 24.72C99.0967 24.9867 98.47 25.2667 97.83 25.56C97.83 25.6133 97.8433 25.6533 97.87 25.68C98.0033 25.6533 98.11 25.6267 98.19 25.6C98.2967 25.5733 98.4167 25.5467 98.55 25.52C98.7633 25.4667 98.9633 25.4133 99.15 25.36C99.3367 25.28 99.51 25.3067 99.67 25.44C100.017 25.3067 100.337 25.2 100.63 25.12C100.923 25.0133 101.217 24.92 101.51 24.84C101.51 24.84 101.59 24.8667 101.75 24.92C101.537 25.1333 101.31 25.3067 101.07 25.44C100.83 25.5733 100.577 25.7067 100.31 25.84C99.35 26.2667 98.39 26.6933 97.43 27.12C96.4967 27.5467 95.55 27.9733 94.59 28.4C93.5233 28.8533 92.4567 29.28 91.39 29.68C90.35 30.08 89.2967 30.4933 88.23 30.92C87.35 31.24 86.47 31.5467 85.59 31.84C84.71 32.1067 83.8033 32.32 82.87 32.48C82.5767 32.5333 82.2833 32.56 81.99 32.56C81.7233 32.56 81.4033 32.5333 81.03 32.48C81.3233 32.1867 81.6167 31.9733 81.91 31.84C82.2033 31.68 82.4967 31.5067 82.79 31.32C82.4967 31.1867 82.2033 31.16 81.91 31.24C81.6167 31.32 81.3233 31.36 81.03 31.36C81.0033 31.3333 80.91 31.2133 80.75 31C80.51 30.9467 80.2567 30.9067 79.99 30.88C79.7233 30.8533 79.4567 30.8267 79.19 30.8C78.7367 30.7467 78.2967 30.6667 77.87 30.56C77.47 30.4267 77.07 30.2933 76.67 30.16C75.5233 29.7333 74.83 28.8933 74.59 27.64C74.43 27 74.39 26.36 74.47 25.72C74.63 24.76 74.6567 23.8533 74.55 23C74.47 22.3867 74.47 21.7867 74.55 21.2C74.63 20.5867 74.75 19.9867 74.91 19.4C75.4433 17.6933 76.2033 16.0267 77.19 14.4C77.5633 13.7867 77.95 13.1867 78.35 12.6C78.7767 12.0133 79.19 11.4133 79.59 10.8C79.6967 10.64 79.8033 10.48 79.91 10.32C80.0167 10.16 80.1367 9.97333 80.27 9.76C79.8967 9.76 79.5367 9.76 79.19 9.76C78.87 9.73333 78.5633 9.72 78.27 9.72C77.9233 9.18666 77.8833 8.65333 78.15 8.12C78.2833 8.04 78.4167 7.96 78.55 7.88C78.71 7.77333 78.8967 7.65333 79.11 7.52C78.7633 7.49333 78.47 7.44 78.23 7.36C78.1767 7.28 78.0967 7.2 77.99 7.12C77.91 7.01333 77.83 6.90667 77.75 6.8V6.04C77.9367 5.82667 78.1367 5.66666 78.35 5.56C78.59 5.45333 78.8167 5.36 79.03 5.28C80.15 4.82667 81.2567 4.44 82.35 4.12C83.47 3.8 84.63 3.53333 85.83 3.32C86.6833 3.18667 87.5367 3.08 88.39 3C89.27 2.89333 90.15 2.82667 91.03 2.8C91.7233 2.8 92.39 2.78666 93.03 2.76C93.6967 2.70667 94.3633 2.69333 95.03 2.72C95.83 2.72 96.63 2.74667 97.43 2.8C98.23 2.82667 99.0167 2.90667 99.79 3.04C100.217 3.09333 100.63 3.14666 101.03 3.2C101.457 3.22667 101.883 3.26667 102.31 3.32C102.87 3.4 103.417 3.52 103.95 3.68C104.51 3.81333 105.057 4.04 105.59 4.36C105.457 4.44 105.337 4.52 105.23 4.6C105.123 4.65333 105.003 4.72 104.87 4.8C105.777 5.70667 106.11 6.86667 105.87 8.28C105.737 8.36 105.603 8.44 105.47 8.52C105.337 8.57333 105.203 8.65333 105.07 8.76C104.937 8.65333 104.803 8.57333 104.67 8.52C104.537 8.44 104.403 8.34667 104.27 8.24C103.87 7.94666 103.39 7.76 102.83 7.68C102.03 7.54667 101.23 7.48 100.43 7.48C99.63 7.45333 98.83 7.46666 98.03 7.52C96.4567 7.6 94.8967 7.72 93.35 7.88C92.39 7.98667 91.43 8.10667 90.47 8.24C89.51 8.37333 88.5367 8.50667 87.55 8.64C87.2033 9.2 86.8567 9.76 86.51 10.32C86.19 10.8533 85.87 11.4 85.55 11.96C85.2567 12.4933 84.9367 13.0267 84.59 13.56C84.27 14.0933 84.0033 14.6533 83.79 15.24C83.8967 15.32 83.99 15.36 84.07 15.36C84.63 15.3067 85.19 15.2533 85.75 15.2C86.3367 15.12 86.91 15.08 87.47 15.08C88.35 15.08 89.23 15.1067 90.11 15.16C90.99 15.1867 91.8567 15.3067 92.71 15.52C93.1633 15.6267 93.6033 15.7733 94.03 15.96C94.4567 16.1467 94.8567 16.44 95.23 16.84ZM78.95 25.36C78.9233 25.28 78.91 25.2 78.91 25.12C78.91 25.04 78.8967 24.9467 78.87 24.84C78.87 24.76 78.8833 24.68 78.91 24.6C78.9367 24.52 78.8833 24.44 78.75 24.36C78.6433 24.7067 78.5633 25.04 78.51 25.36C78.4833 25.6533 78.5767 25.96 78.79 26.28C78.8967 26.3333 79.0033 26.3733 79.11 26.4C79.2167 26.4267 79.3367 26.4667 79.47 26.52C79.4967 26.52 79.5367 26.4933 79.59 26.44C79.4833 26.2533 79.3767 26.08 79.27 25.92C79.19 25.7333 79.0833 25.5467 78.95 25.36ZM84.15 17.16C83.8033 17.1067 83.5767 17.0933 83.47 17.12C83.39 17.12 83.2033 17.1867 82.91 17.32C83.1233 17.32 83.3233 17.3067 83.51 17.28C83.7233 17.2533 83.9367 17.2133 84.15 17.16ZM85.99 17C85.6433 16.8133 85.27 16.8133 84.87 17H85.99ZM118.156 28.48C118.076 28.5067 117.996 28.52 117.916 28.52C117.862 28.52 117.796 28.5333 117.716 28.56C117.529 28.9067 117.356 29.2533 117.196 29.6C117.036 29.92 116.876 30.2533 116.716 30.6C116.742 30.68 116.742 30.7333 116.716 30.76C116.822 30.9467 116.889 31.1333 116.916 31.32C116.942 31.48 116.889 31.6533 116.756 31.84C116.516 32.1867 116.182 32.3867 115.756 32.44C115.596 32.4667 115.422 32.4933 115.236 32.52C115.076 32.52 114.916 32.4933 114.756 32.44C114.196 32.28 113.716 32.0267 113.316 31.68C112.942 31.3333 112.702 30.8533 112.596 30.24C112.462 29.6267 112.369 28.96 112.316 28.24C112.236 27.3867 112.209 26.52 112.236 25.64C112.262 24.76 112.329 23.88 112.436 23C112.569 22.1467 112.689 21.28 112.796 20.4C112.902 19.52 113.022 18.64 113.156 17.76C113.262 17.0133 113.409 16.28 113.596 15.56C113.782 14.8133 113.982 14.08 114.196 13.36C114.249 13.1733 114.302 12.9733 114.356 12.76C114.409 12.5467 114.462 12.28 114.516 11.96C114.356 12.1467 114.236 12.28 114.156 12.36C114.102 12.44 114.049 12.5067 113.996 12.56C113.062 13.7067 112.116 14.9733 111.156 16.36C110.222 17.72 109.329 19.1333 108.476 20.6C107.622 22.0667 106.822 23.5467 106.076 25.04C105.329 26.5067 104.676 27.9067 104.116 29.24C103.902 29.7733 103.702 30.2933 103.516 30.8C103.329 31.28 103.129 31.7867 102.916 32.32C102.862 32.48 102.796 32.64 102.716 32.8C102.636 32.9333 102.476 33.0267 102.236 33.08C102.129 32.9467 102.036 32.8267 101.956 32.72C101.849 32.5867 101.729 32.4533 101.596 32.32C101.569 31.9733 101.529 31.64 101.476 31.32C101.396 30.9733 101.382 30.6133 101.436 30.24C101.542 29.4667 101.702 28.7067 101.916 27.96C102.129 27.2133 102.382 26.48 102.676 25.76C103.076 24.7733 103.542 23.6933 104.076 22.52C104.609 21.32 105.169 20.1333 105.756 18.96C106.369 17.76 106.996 16.6 107.636 15.48C108.302 14.36 108.942 13.3467 109.556 12.44C110.382 11.2133 111.236 10.0267 112.116 8.88C113.022 7.70667 113.996 6.57333 115.036 5.48C115.329 5.18666 115.622 4.90666 115.916 4.64C116.209 4.37333 116.489 4.09333 116.756 3.8C117.262 3.29333 117.809 3.02667 118.396 3C118.529 3 118.649 2.98666 118.756 2.96C118.862 2.90667 118.969 2.86667 119.076 2.84C119.369 2.89333 119.609 3.01333 119.796 3.2C120.009 3.36 120.262 3.50667 120.556 3.64C120.742 3.56 120.916 3.48 121.076 3.4C121.262 3.32 121.436 3.24 121.596 3.16C121.969 3.16 122.249 3.25333 122.436 3.44C122.622 3.62666 122.836 3.77333 123.076 3.88C123.209 4.09333 123.276 4.30667 123.276 4.52C123.276 4.70667 123.262 4.90667 123.236 5.12C123.156 5.54666 123.062 5.97333 122.956 6.4C122.876 6.8 122.769 7.21333 122.636 7.64C122.236 9.16 121.836 10.6667 121.436 12.16C121.036 13.6267 120.676 15.12 120.356 16.64C120.276 17.1467 120.169 17.64 120.036 18.12C119.929 18.6 119.849 19.0933 119.796 19.6C119.929 19.4667 120.036 19.3333 120.116 19.2C120.196 19.04 120.289 18.8933 120.396 18.76C121.329 17.2933 122.302 15.88 123.316 14.52C124.329 13.1333 125.369 11.76 126.436 10.4C127.582 8.96 128.796 7.62667 130.076 6.4C131.356 5.17333 132.742 4.02667 134.236 2.96C134.689 2.66667 135.129 2.44 135.556 2.28C135.982 2.12 136.449 2.06667 136.956 2.12C137.116 2.22667 137.262 2.33333 137.396 2.44C137.556 2.52 137.742 2.61333 137.956 2.72C138.222 2.66666 138.502 2.57333 138.796 2.44C139.089 2.30666 139.422 2.32 139.796 2.48C139.902 2.56 140.036 2.65333 140.196 2.76C140.356 2.86667 140.542 2.98667 140.756 3.12C140.889 3.65333 140.916 4.21333 140.836 4.8C140.756 5.36 140.649 5.93333 140.516 6.52C140.569 6.54667 140.609 6.57333 140.636 6.6C140.689 6.62667 140.742 6.65333 140.796 6.68V6.88C139.969 8.77333 139.182 10.76 138.436 12.84C137.689 14.92 136.996 17 136.356 19.08C135.742 21.1333 135.209 23.1467 134.756 25.12C134.302 27.0667 133.969 28.8667 133.756 30.52C133.729 30.3867 133.702 30.2667 133.676 30.16C133.649 30.0267 133.636 29.9067 133.636 29.8H133.516C133.276 30.92 133.049 32.0133 132.836 33.08C132.622 34.1467 132.409 35.24 132.196 36.36C132.062 36.9467 131.982 37.5333 131.956 38.12C131.956 38.7067 131.982 39.2933 132.036 39.88V40.36C131.956 40.4133 131.876 40.4533 131.796 40.48C131.716 40.5067 131.609 40.5467 131.476 40.6C131.156 40.3333 130.889 40.04 130.676 39.72C130.462 39.4267 130.316 39.0533 130.236 38.6C130.102 37.9067 130.022 37.2 129.996 36.48C129.969 35.7867 129.982 35.0667 130.036 34.32C130.089 33.76 130.142 33.2 130.196 32.64C130.276 32.0533 130.342 31.48 130.396 30.92C130.422 30.6533 130.449 30.3867 130.476 30.12C130.529 29.8533 130.489 29.5867 130.356 29.32C130.222 29.56 130.102 29.8533 129.996 30.2C129.889 30.5467 129.809 30.8667 129.756 31.16C129.756 31.2667 129.756 31.3733 129.756 31.48C129.782 31.5867 129.782 31.7067 129.756 31.84C129.676 32.3467 129.409 32.6533 128.956 32.76C128.476 32.92 128.102 32.8267 127.836 32.48C127.702 32.2667 127.582 32.0667 127.476 31.88C127.396 31.6667 127.356 31.4267 127.356 31.16C127.382 30.4933 127.396 29.8267 127.396 29.16C127.396 28.4933 127.436 27.8267 127.516 27.16C127.649 25.3467 127.916 23.56 128.316 21.8C128.716 20.04 129.169 18.28 129.676 16.52C130.022 15.2667 130.409 14.04 130.836 12.84C131.262 11.64 131.742 10.44 132.276 9.24C132.196 9.16 132.129 9.14667 132.076 9.2C132.022 9.25333 131.969 9.30666 131.916 9.36C131.862 9.38667 131.809 9.42667 131.756 9.48C131.729 9.50667 131.689 9.54667 131.636 9.6C130.622 10.5333 129.662 11.52 128.756 12.56C127.876 13.6 127.009 14.6667 126.156 15.76C124.742 17.52 123.422 19.3333 122.196 21.2C120.969 23.04 119.796 24.9333 118.676 26.88C118.569 27.0667 118.476 27.2133 118.396 27.32C118.342 27.4267 118.302 27.5333 118.276 27.64C118.249 27.72 118.222 27.8267 118.196 27.96C118.196 28.0933 118.182 28.2667 118.156 28.48ZM138.636 4.48C138.689 4.48 138.716 4.49333 138.716 4.52C138.742 4.52 138.782 4.52 138.836 4.52C138.889 4.33333 138.929 4.16 138.956 4C139.009 3.81333 139.062 3.64 139.116 3.48C138.956 3.42667 138.849 3.41333 138.796 3.44C138.742 3.44 138.636 3.48 138.476 3.56C138.529 3.69333 138.556 3.84 138.556 4C138.582 4.16 138.609 4.32 138.636 4.48ZM121.556 4.64C121.182 4.85333 121.089 5.17333 121.276 5.6C121.329 5.38667 121.369 5.21333 121.396 5.08C121.449 4.92 121.502 4.77333 121.556 4.64ZM116.796 23.92C116.769 24.1067 116.742 24.28 116.716 24.44C116.716 24.6 116.702 24.7733 116.676 24.96H116.756C116.782 24.7733 116.796 24.6 116.796 24.44C116.822 24.28 116.849 24.1067 116.876 23.92H116.796ZM154.382 28.96C154.408 28.8 154.422 28.64 154.422 28.48C154.448 28.32 154.475 28.1467 154.502 27.96C154.528 27.8 154.528 27.64 154.502 27.48C154.502 27.2933 154.502 27.0933 154.502 26.88C154.262 27.28 154.088 27.6933 153.982 28.12C153.902 28.52 153.822 28.92 153.742 29.32C153.688 29.8533 153.568 30.36 153.382 30.84C153.195 31.2933 152.915 31.7467 152.542 32.2V34.04C152.382 34.3333 152.195 34.52 151.982 34.6C151.768 34.68 151.542 34.6933 151.302 34.64C150.822 34.5867 150.488 34.3467 150.302 33.92C150.222 33.76 150.155 33.5867 150.102 33.4C150.075 33.2133 150.048 33.0267 150.022 32.84C149.968 32.4667 149.928 32.1067 149.902 31.76C149.902 31.3867 149.888 31.0133 149.862 30.64C149.808 30.0533 149.822 29.48 149.902 28.92C149.982 28.36 150.048 27.8 150.102 27.24C150.208 26.5733 150.262 26.1867 150.262 26.08C150.288 25.9733 150.302 25.92 150.302 25.92C150.302 25.92 150.315 25.8667 150.342 25.76C150.395 25.6533 150.502 25.28 150.662 24.64C150.715 24.4267 150.755 24.2533 150.782 24.12C150.035 24.12 149.315 24.1733 148.622 24.28C147.928 24.36 147.222 24.4133 146.502 24.44C146.315 24.6533 146.168 24.88 146.062 25.12C145.982 25.2533 145.808 25.56 145.542 26.04C145.275 26.52 144.995 27.04 144.702 27.6C144.408 28.1333 144.128 28.64 143.862 29.12C143.595 29.6 143.422 29.9067 143.342 30.04C143.235 30.2 143.128 30.36 143.022 30.52C142.942 30.68 142.822 30.8267 142.662 30.96C142.395 31.2 142.168 31.48 141.982 31.8C141.795 32.0933 141.608 32.3867 141.422 32.68C141.128 33.16 140.848 33.6267 140.582 34.08C140.315 34.56 140.035 35.0533 139.742 35.56C139.635 35.6933 139.542 35.84 139.462 36C139.355 36.1867 139.208 36.36 139.022 36.52C139.022 36.2 139.088 35.92 139.222 35.68C139.355 35.44 139.448 35.1733 139.502 34.88C139.368 35.04 139.235 35.16 139.102 35.24C138.968 35.1867 138.902 35.0933 138.902 34.96C138.875 34.8533 138.875 34.7467 138.902 34.64C138.982 34.3733 139.075 34.12 139.182 33.88C139.262 33.64 139.342 33.3867 139.422 33.12C139.555 32.7467 139.702 32.3867 139.862 32.04C139.995 31.6667 140.128 31.2933 140.262 30.92C140.128 30.92 140.048 30.96 140.022 31.04C139.968 31.12 139.915 31.1867 139.862 31.24C139.728 31.4 139.595 31.5733 139.462 31.76C139.302 31.9467 139.155 32.1467 139.022 32.36C138.888 32.52 138.755 32.6533 138.622 32.76C138.462 32.84 138.235 32.8667 137.942 32.84C137.862 32.7867 137.782 32.7067 137.702 32.6C137.595 32.4933 137.488 32.3867 137.382 32.28C137.382 32.1467 137.395 32.0133 137.422 31.88C137.422 31.72 137.422 31.56 137.422 31.4C137.262 31.1867 137.262 30.8 137.422 30.24C137.582 29.6533 137.795 29.04 138.062 28.4C138.302 27.76 138.542 27.1467 138.782 26.56C139.022 25.9467 139.155 25.52 139.182 25.28C138.968 25.2267 138.768 25.2133 138.582 25.24C138.395 25.2667 138.208 25.3067 138.022 25.36C137.835 25.3867 137.648 25.4133 137.462 25.44C137.248 25.44 137.048 25.4 136.862 25.32C136.808 25.24 136.755 25.16 136.702 25.08C136.648 24.9733 136.595 24.8533 136.542 24.72C136.622 24.6133 136.755 24.4667 136.942 24.28C136.808 24.2267 136.688 24.1733 136.582 24.12C136.475 24.04 136.368 23.9733 136.262 23.92C136.288 23.84 136.302 23.7867 136.302 23.76C136.275 23.7067 136.288 23.6533 136.342 23.6C136.475 23.3333 136.648 23.1333 136.862 23C137.075 22.84 137.315 22.6933 137.582 22.56C138.088 22.3467 138.595 22.16 139.102 22C139.582 21.84 140.075 21.6933 140.582 21.56C140.715 21.56 140.902 21.52 141.142 21.44C141.248 21.3067 141.342 21.1733 141.422 21.04C141.528 20.88 141.635 20.72 141.742 20.56C143.022 18.5867 144.368 16.6933 145.782 14.88C147.195 13.0667 148.742 11.3467 150.422 9.72C151.275 8.86667 152.142 8.08 153.022 7.36C153.928 6.61333 154.888 5.93333 155.902 5.32C156.275 5.10666 156.662 4.89333 157.062 4.68C157.462 4.46667 157.875 4.26667 158.302 4.08C158.782 3.86667 159.182 3.73333 159.502 3.68C159.822 3.6 160.288 3.58666 160.902 3.64C161.062 3.69333 161.222 3.77333 161.382 3.88C161.542 3.96 161.702 4.04 161.862 4.12C162.048 4.06666 162.222 4.01333 162.382 3.96C162.568 3.90667 162.755 3.85333 162.942 3.8C162.995 3.77333 163.062 3.77333 163.142 3.8C163.222 3.8 163.302 3.8 163.382 3.8C163.568 3.90667 163.742 4.02667 163.902 4.16C164.088 4.26667 164.275 4.37333 164.462 4.48C164.568 4.69333 164.608 4.90667 164.582 5.12C164.555 5.30666 164.515 5.49333 164.462 5.68C164.248 6.13333 164.048 6.58667 163.862 7.04C163.702 7.49333 163.515 7.94667 163.302 8.4C162.288 10.5067 161.315 12.6267 160.382 14.76C159.475 16.8933 158.622 19.0533 157.822 21.24C157.768 21.3733 157.715 21.52 157.662 21.68C157.635 21.84 157.595 21.9867 157.542 22.12C157.568 22.2267 157.608 22.4133 157.662 22.68C157.635 22.76 157.568 22.88 157.462 23.04C157.542 23.1467 157.608 23.2533 157.662 23.36C157.742 23.4667 157.835 23.5867 157.942 23.72C157.888 23.7733 157.835 23.84 157.782 23.92C157.755 23.9733 157.715 24.0133 157.662 24.04C157.528 24.0667 157.395 24.08 157.262 24.08C157.128 24.08 156.982 24.0933 156.822 24.12C156.582 24.6533 156.382 25.0667 156.222 25.36C156.088 25.6533 155.968 25.8933 155.862 26.08C155.755 26.24 155.648 26.3867 155.542 26.52C155.462 26.6267 155.368 26.7733 155.262 26.96C155.182 27.12 155.062 27.36 154.902 27.68C154.768 27.9733 154.595 28.4 154.382 28.96ZM155.942 11.52C155.755 11.6533 155.502 11.8533 155.182 12.12C153.662 13.48 152.195 14.9067 150.782 16.4C150.248 16.9333 149.795 17.5067 149.422 18.12C149.075 18.7333 148.728 19.3467 148.382 19.96L148.462 20.04C148.648 19.9867 148.782 19.88 148.862 19.72C148.942 19.5333 149.088 19.44 149.302 19.44C149.302 19.6533 149.222 19.84 149.062 20C148.902 20.1333 148.848 20.3067 148.902 20.52C150.075 20.7067 151.075 20.7467 151.902 20.64C152.462 19.0667 153.088 17.5333 153.782 16.04C154.502 14.5467 155.222 13.04 155.942 11.52ZM163.862 5.04C163.728 5.41333 163.595 5.76 163.462 6.08C163.328 6.4 163.195 6.72 163.062 7.04C162.928 7.38667 162.768 7.73333 162.582 8.08C162.422 8.4 162.288 8.77333 162.182 9.2C162.475 8.96 162.675 8.69333 162.782 8.4C162.888 8.10667 163.008 7.82666 163.142 7.56C163.275 7.26667 163.422 6.98667 163.582 6.72C163.742 6.42667 163.795 6.12 163.742 5.8C163.902 5.72 164.022 5.65333 164.102 5.6C164.102 5.52 164.102 5.42667 164.102 5.32C164.128 5.21333 164.048 5.12 163.862 5.04ZM155.142 24.84C155.088 24.9733 154.995 25.12 154.862 25.28C154.755 25.4133 154.768 25.5867 154.902 25.8C155.008 25.5333 155.075 25.3333 155.102 25.2C155.102 25.1467 155.102 25.0933 155.102 25.04C155.102 24.96 155.115 24.8933 155.142 24.84ZM172.473 16.2C172.526 16.3333 172.579 16.4667 172.633 16.6C172.686 16.7333 172.739 16.8667 172.793 17C173.006 18.1733 173.366 19.36 173.873 20.56C174.379 21.7333 174.899 22.8533 175.433 23.92C175.966 24.9867 176.473 25.96 176.953 26.84C177.433 27.6933 177.766 28.36 177.953 28.84C177.819 28.92 177.699 28.9867 177.593 29.04C177.513 29.0933 177.406 29.1467 177.273 29.2C177.326 29.3867 177.353 29.5733 177.353 29.76C177.353 29.92 177.379 30.12 177.433 30.36C177.059 30.0133 176.806 29.64 176.673 29.24C176.539 28.84 176.353 28.48 176.113 28.16C175.899 28.2133 175.726 28.24 175.593 28.24C175.646 28.5333 175.726 28.7867 175.833 29C175.966 29.2133 176.086 29.4267 176.193 29.64C176.273 29.8533 176.366 30.0667 176.473 30.28C176.579 30.4933 176.699 30.7333 176.833 31C176.806 31.0533 176.779 31.1333 176.753 31.24C176.726 31.32 176.713 31.4267 176.713 31.56C176.713 31.6667 176.713 31.7733 176.713 31.88C176.739 31.96 176.753 32.0533 176.753 32.16C176.619 32.5333 176.419 32.8 176.153 32.96C175.913 33.0933 175.646 33.1733 175.353 33.2C174.926 33.2 174.553 33.1467 174.233 33.04C174.046 32.96 173.899 32.9733 173.793 33.08C173.686 33.1867 173.579 33.2933 173.473 33.4C173.366 33.5333 173.259 33.64 173.153 33.72C173.046 33.8 172.913 33.8 172.753 33.72C172.619 33.64 172.446 33.4667 172.233 33.2C172.046 32.9333 171.859 32.64 171.673 32.32C171.486 32 171.313 31.6933 171.153 31.4C171.019 31.1067 170.913 30.8933 170.833 30.76C170.459 30.0933 170.126 29.36 169.833 28.56C169.699 28.2667 169.593 27.96 169.513 27.64C169.433 27.2933 169.339 26.9467 169.233 26.6C169.019 25.72 168.779 24.8533 168.513 24C168.246 23.1467 167.913 22.3067 167.513 21.48C167.459 21.4267 167.419 21.3733 167.393 21.32C167.393 21.24 167.366 21.1733 167.313 21.12C167.206 21.1467 167.113 21.1733 167.033 21.2C166.979 21.2 166.899 21.2 166.793 21.2C165.806 22.24 164.859 23.3067 163.952 24.4C163.072 25.4933 162.206 26.6 161.353 27.72C160.846 28.4133 160.366 29.1067 159.912 29.8C159.459 30.4667 158.992 31.1467 158.512 31.84C158.432 31.9733 158.339 32.1067 158.232 32.24C158.126 32.3467 157.966 32.4133 157.752 32.44C157.672 32.3067 157.592 32.1733 157.512 32.04C157.406 31.9067 157.312 31.7733 157.232 31.64C157.179 31.4 157.179 31.16 157.232 30.92C157.259 30.68 157.219 30.4533 157.112 30.24C156.819 30.4267 156.592 30.6667 156.432 30.96C156.246 31.2533 155.992 31.5067 155.672 31.72C155.566 31.5867 155.552 31.4667 155.632 31.36C155.712 31.2533 155.779 31.1333 155.832 31C155.779 30.8667 155.739 30.72 155.712 30.56C155.659 30.4 155.632 30.24 155.632 30.08C155.659 29.8933 155.712 29.7067 155.792 29.52C155.872 29.3333 155.952 29.1467 156.033 28.96C156.646 27.76 157.432 26.6 158.392 25.48C159.459 24.2 160.513 22.92 161.553 21.64C162.619 20.36 163.713 19.08 164.833 17.8C164.993 17.5867 165.153 17.4 165.313 17.24C165.473 17.0533 165.633 16.8667 165.793 16.68C165.686 15.9333 165.579 15.2 165.473 14.48C165.366 13.76 165.286 13.0267 165.233 12.28C165.179 11.5867 165.153 10.88 165.153 10.16C165.153 9.41333 165.153 8.68 165.153 7.96C165.286 7.8 165.419 7.65333 165.553 7.52C165.686 7.36 165.819 7.21333 165.953 7.08C166.193 7.18667 166.379 7.34666 166.513 7.56C166.646 7.74667 166.753 7.96 166.833 8.2C166.913 8.41333 166.993 8.64 167.073 8.88C167.153 9.12 167.273 9.34667 167.433 9.56C167.379 9.18667 167.339 8.86667 167.313 8.6C167.313 8.33333 167.313 8.05333 167.313 7.76C167.233 7.22667 167.206 6.74667 167.233 6.32C167.233 6.18666 167.233 6.06666 167.233 5.96C167.259 5.82666 167.313 5.73333 167.393 5.68C167.553 5.54667 167.619 5.4 167.593 5.24C167.566 5.08 167.606 4.93333 167.713 4.8C167.873 4.74667 167.979 4.77333 168.033 4.88C168.086 4.96 168.139 5.04 168.193 5.12C168.406 5.54666 168.606 5.96 168.793 6.36C168.979 6.76 169.139 7.18667 169.273 7.64C169.486 8.17333 169.659 8.73333 169.793 9.32C169.953 9.88 170.126 10.44 170.313 11C170.339 11.1867 170.419 11.4267 170.553 11.72C170.766 11.56 170.939 11.4133 171.073 11.28C171.233 11.1467 171.379 11.0133 171.513 10.88C172.686 9.86667 173.846 8.88 174.993 7.92C176.139 6.93333 177.286 5.93333 178.433 4.92C178.859 4.54667 179.273 4.16 179.673 3.76C180.099 3.33333 180.539 2.90667 180.993 2.48C181.233 2.26667 181.473 2.05333 181.713 1.84C181.979 1.62666 182.286 1.44 182.633 1.28C183.033 1.38667 183.379 1.57333 183.673 1.84C183.966 2.10666 184.259 2.38667 184.553 2.68C184.659 2.6 184.753 2.52 184.832 2.44C184.939 2.36 185.059 2.28 185.193 2.2C185.353 2.17333 185.433 2.22667 185.433 2.36C185.459 2.46667 185.499 2.56 185.553 2.64C185.606 2.69333 185.673 2.74667 185.753 2.8C185.859 2.85333 185.953 2.90667 186.033 2.96C185.979 3.09333 185.939 3.24 185.913 3.4C185.886 3.53333 185.846 3.68 185.793 3.84C185.793 3.92 185.806 4.01333 185.833 4.12C185.859 4.22666 185.899 4.34666 185.953 4.48C185.579 4.96 185.166 5.38666 184.713 5.76C184.286 6.13333 183.833 6.50666 183.352 6.88C182.579 7.49333 181.793 8.09333 180.993 8.68C180.193 9.26667 179.406 9.85333 178.633 10.44C177.939 10.9733 177.233 11.5067 176.513 12.04C175.819 12.5733 175.113 13.1067 174.393 13.64C174.099 13.8533 173.819 14.0933 173.553 14.36C173.286 14.6 173.006 14.8533 172.713 15.12C172.473 15.3067 172.379 15.56 172.433 15.88C172.193 15.8267 171.993 15.8933 171.833 16.08C171.886 16.32 171.926 16.48 171.953 16.56C171.979 16.64 172.086 16.7867 172.273 17C172.299 16.8667 172.326 16.7333 172.353 16.6C172.379 16.4667 172.419 16.3333 172.473 16.2ZM173.513 22.8C173.433 23.28 173.566 23.7067 173.913 24.08C173.966 24 174.006 23.9333 174.033 23.88C174.086 23.8267 174.139 23.7733 174.193 23.72C174.139 23.5867 174.086 23.48 174.033 23.4C173.979 23.2933 173.926 23.1867 173.873 23.08C174.006 22.9467 174.059 22.84 174.033 22.76C174.006 22.6533 173.966 22.56 173.913 22.48C173.699 21.92 173.473 21.36 173.233 20.8C172.993 20.2133 172.766 19.64 172.553 19.08C172.499 19.0267 172.459 18.96 172.433 18.88C172.433 18.8 172.366 18.76 172.233 18.76C172.259 19 172.299 19.2933 172.353 19.64C172.433 19.9867 172.513 20.3467 172.593 20.72C172.699 21.0667 172.793 21.4 172.873 21.72C172.953 22.0133 173.033 22.24 173.113 22.4C173.166 22.48 173.206 22.5733 173.233 22.68C173.286 22.76 173.379 22.8 173.513 22.8ZM181.275 21.96C181.329 21.7467 181.369 21.52 181.395 21.28C181.422 21.04 181.462 20.8 181.515 20.56C181.515 20.4533 181.502 20.3867 181.475 20.36C181.182 19.9067 181.062 19.4533 181.115 19C181.142 18.5467 181.262 18.0933 181.475 17.64C181.609 17.3467 181.742 17.08 181.875 16.84C182.035 16.5733 182.209 16.32 182.395 16.08C182.849 15.4667 183.302 14.88 183.755 14.32C184.235 13.76 184.715 13.1867 185.195 12.6C185.409 12.36 185.622 12.12 185.835 11.88C186.049 11.64 186.275 11.3733 186.515 11.08C186.329 11 186.155 10.9333 185.995 10.88C185.835 10.8 185.675 10.72 185.515 10.64C185.462 10.5333 185.409 10.4133 185.355 10.28C185.302 10.1467 185.235 9.98667 185.155 9.8C185.395 9.64 185.675 9.44 185.995 9.2C185.782 9.14667 185.569 9.10667 185.355 9.08C185.169 9.02667 185.035 8.85333 184.955 8.56C184.955 8.34667 185.022 8.14667 185.155 7.96C185.315 7.77333 185.502 7.62667 185.715 7.52C186.009 7.38667 186.289 7.26667 186.555 7.16C186.849 7.02667 187.142 6.92 187.435 6.84C188.369 6.57333 189.315 6.36 190.275 6.2C191.262 6.01333 192.262 5.89333 193.275 5.84C193.702 5.81333 194.129 5.78667 194.555 5.76C194.982 5.70667 195.422 5.69333 195.875 5.72C196.675 5.74666 197.475 5.78666 198.275 5.84C199.075 5.89333 199.862 5.96 200.635 6.04C201.142 6.09333 201.635 6.14667 202.115 6.2C202.622 6.22667 203.115 6.28 203.595 6.36C203.915 6.41333 204.222 6.49333 204.515 6.6C204.835 6.68 205.115 6.86667 205.355 7.16C205.222 7.21333 205.089 7.28 204.955 7.36C204.849 7.41333 204.729 7.48 204.595 7.56C204.542 7.72 204.529 7.89333 204.555 8.08C204.582 8.26666 204.609 8.45333 204.635 8.64C204.689 8.82666 204.715 9.02666 204.715 9.24C204.715 9.42667 204.635 9.61333 204.475 9.8C204.369 9.82666 204.249 9.86666 204.115 9.92C203.982 9.97333 203.849 10.0133 203.715 10.04C202.915 10.2 202.169 10.32 201.475 10.4C200.942 10.48 200.422 10.5467 199.915 10.6C199.435 10.6267 198.929 10.6667 198.395 10.72C197.569 10.8 196.742 10.88 195.915 10.96C195.089 11.0133 194.262 11.0667 193.435 11.12C193.142 11.1467 192.849 11.16 192.555 11.16C192.289 11.1333 192.009 11.12 191.715 11.12H190.315C189.782 11.8933 189.275 12.6933 188.795 13.52C188.342 14.3467 187.849 15.1467 187.315 15.92C187.342 15.9733 187.355 16.04 187.355 16.12C187.382 16.2 187.422 16.2667 187.475 16.32C187.635 16.3733 187.742 16.3867 187.795 16.36C188.329 16.2267 188.862 16.0933 189.395 15.96C189.955 15.8267 190.502 15.7067 191.035 15.6C192.129 15.3867 193.209 15.24 194.275 15.16C195.369 15.0533 196.475 15.0267 197.595 15.08C198.129 15.1333 198.649 15.2 199.155 15.28C199.689 15.3333 200.222 15.4133 200.755 15.52C201.422 15.6267 202.022 15.9333 202.555 16.44C202.609 16.4933 202.649 16.56 202.675 16.64C202.702 16.72 202.755 16.8267 202.835 16.96C202.649 16.9067 202.502 16.8667 202.395 16.84C202.315 16.7867 202.222 16.7467 202.115 16.72C201.955 16.8267 201.942 16.9467 202.075 17.08C202.182 17.16 202.289 17.24 202.395 17.32C202.502 17.3733 202.609 17.4533 202.715 17.56C202.902 17.6933 202.955 17.8667 202.875 18.08C202.342 18.1067 201.822 18.1333 201.315 18.16C200.809 18.16 200.289 18.1867 199.755 18.24C199.729 18.2667 199.715 18.32 199.715 18.4C200.035 18.48 200.355 18.5733 200.675 18.68C201.022 18.76 201.409 18.8667 201.835 19C201.595 19.1067 201.382 19.16 201.195 19.16C201.035 19.1333 200.875 19.1333 200.715 19.16C200.555 19.16 200.382 19.16 200.195 19.16C200.035 19.16 199.862 19.1733 199.675 19.2C199.515 19.2267 199.342 19.2533 199.155 19.28C198.995 19.28 198.835 19.2933 198.675 19.32C198.515 19.3467 198.342 19.3733 198.155 19.4C197.995 19.4 197.782 19.4267 197.515 19.48C198.502 19.72 199.395 19.84 200.195 19.84C200.489 19.84 200.769 19.8667 201.035 19.92C201.329 19.9467 201.635 20.04 201.955 20.2C201.662 20.3067 201.382 20.3733 201.115 20.4C200.875 20.4267 200.635 20.4533 200.395 20.48C198.555 20.72 196.742 20.96 194.955 21.2C193.169 21.4133 191.355 21.6267 189.515 21.84C188.689 21.9467 187.862 22.0667 187.035 22.2C186.209 22.3067 185.409 22.4933 184.635 22.76C184.475 22.8133 184.315 22.8533 184.155 22.88C184.022 22.9067 183.875 22.9333 183.715 22.96C183.502 23.0133 183.315 23.04 183.155 23.04C182.755 23.0933 182.395 23.0533 182.075 22.92C181.755 22.76 181.489 22.44 181.275 21.96ZM201.155 26.2C201.075 26.3067 201.009 26.3867 200.955 26.44C200.902 26.4933 200.849 26.5467 200.795 26.6C200.902 26.7333 200.995 26.88 201.075 27.04C201.155 27.2 201.249 27.36 201.355 27.52C201.249 27.6 201.155 27.68 201.075 27.76C200.995 27.8133 200.902 27.8667 200.795 27.92C200.662 27.9733 200.515 28 200.355 28C200.195 28 200.035 28.0133 199.875 28.04C198.675 28.12 197.462 28.2 196.235 28.28C195.035 28.36 193.822 28.44 192.595 28.52C191.902 28.5733 191.195 28.6267 190.475 28.68C189.755 28.7333 188.995 28.8 188.195 28.88C188.969 28.9867 189.689 29 190.355 28.92C191.049 28.8133 191.729 28.7867 192.395 28.84C191.942 29.0533 191.475 29.1867 190.995 29.24C190.542 29.2667 190.089 29.32 189.635 29.4C188.729 29.5333 187.822 29.6533 186.915 29.76C186.009 29.8667 185.102 29.96 184.195 30.04C183.795 30.0933 183.395 30.1067 182.995 30.08C182.595 30.0533 182.142 30.04 181.635 30.04C182.169 29.7733 182.689 29.6133 183.195 29.56C183.702 29.48 184.195 29.3867 184.675 29.28H180.795C180.742 29.1733 180.689 29.08 180.635 29C180.582 28.8933 180.529 28.8133 180.475 28.76C180.529 28.4933 180.649 28.32 180.835 28.24C180.995 28.16 181.155 28.0667 181.315 27.96C181.235 27.9067 181.142 27.88 181.035 27.88C180.929 27.88 180.822 27.88 180.715 27.88C180.609 27.88 180.515 27.8667 180.435 27.84C180.329 27.7867 180.235 27.6933 180.155 27.56C180.209 27.3733 180.275 27.2267 180.355 27.12C180.569 26.9067 180.795 26.7333 181.035 26.6C181.275 26.4667 181.529 26.3333 181.795 26.2C182.515 25.88 183.249 25.6133 183.995 25.4C184.742 25.1867 185.502 25 186.275 24.84C187.129 24.68 187.969 24.5733 188.795 24.52C189.649 24.44 190.502 24.4 191.355 24.4C192.369 24.4 193.355 24.4133 194.315 24.44C195.302 24.4667 196.289 24.5333 197.275 24.64C197.569 24.6933 197.849 24.7333 198.115 24.76C198.409 24.7867 198.702 24.84 198.995 24.92C199.395 25.0267 199.782 25.1733 200.155 25.36C200.529 25.5467 200.862 25.8267 201.155 26.2ZM187.115 29.16C187.142 29.1333 187.155 29.0933 187.155 29.04H185.715C185.662 29.04 185.622 29.0533 185.595 29.08C185.595 29.08 185.569 29.08 185.515 29.08C185.542 29.08 185.555 29.1067 185.555 29.16H187.115ZM210.421 19.68C209.887 19.44 209.381 19.1733 208.901 18.88C208.421 18.5867 207.981 18.2133 207.581 17.76C207.527 17.8933 207.487 18.0133 207.461 18.12C207.434 18.2267 207.394 18.3467 207.341 18.48C207.234 18.3467 207.141 18.24 207.061 18.16C206.981 18.0533 206.914 17.9333 206.861 17.8C206.727 17.5067 206.594 17.2133 206.461 16.92C206.354 16.6267 206.261 16.3333 206.181 16.04C205.994 15.1867 206.021 14.3333 206.261 13.48C206.501 12.6267 206.874 11.8 207.381 11C207.914 10.2 208.541 9.44 209.261 8.72C210.007 7.97333 210.781 7.29333 211.581 6.68C212.381 6.06666 213.167 5.53333 213.941 5.08C214.714 4.6 215.421 4.2 216.061 3.88C216.541 3.64 217.101 3.41333 217.741 3.2C218.407 2.98667 219.087 2.8 219.781 2.64C220.474 2.48 221.167 2.37333 221.861 2.32C222.581 2.24 223.221 2.24 223.781 2.32C223.861 2.32 223.821 2.36 223.661 2.44C223.501 2.52 223.314 2.6 223.101 2.68C222.887 2.76 222.701 2.84 222.541 2.92C222.407 3 222.394 3.05333 222.501 3.08C223.007 2.94667 223.487 2.93333 223.941 3.04C224.421 3.12 224.887 3.37333 225.341 3.8V4.28C225.101 4.30667 224.861 4.32 224.621 4.32C224.407 4.32 224.194 4.33333 223.981 4.36C223.981 4.38667 223.967 4.41333 223.941 4.44C223.941 4.44 223.941 4.45333 223.941 4.48C224.154 4.53333 224.354 4.6 224.541 4.68C224.727 4.76 224.914 4.82667 225.101 4.88C225.127 5.01333 225.114 5.09333 225.061 5.12C225.034 5.14667 224.981 5.17333 224.901 5.2C224.767 5.22667 224.634 5.25333 224.501 5.28C224.394 5.28 224.261 5.30667 224.101 5.36C224.207 5.49333 224.301 5.54666 224.381 5.52C224.487 5.49333 224.581 5.49333 224.661 5.52C224.741 5.54666 224.821 5.56 224.901 5.56C225.007 5.56 225.101 5.57333 225.181 5.6C225.341 5.6 225.527 5.62666 225.741 5.68C225.847 5.70667 225.941 5.73333 226.021 5.76C226.101 5.78667 226.207 5.82667 226.341 5.88C225.887 5.93333 225.461 5.98666 225.061 6.04C224.687 6.06667 224.301 6.10667 223.901 6.16C223.767 6.29333 223.647 6.41333 223.541 6.52C223.434 6.62666 223.314 6.73333 223.181 6.84C223.634 6.81333 224.061 6.78667 224.461 6.76C224.887 6.73333 225.301 6.72 225.701 6.72C225.807 6.72 225.901 6.72 225.981 6.72C226.087 6.72 226.234 6.74667 226.421 6.8C225.807 6.93333 225.234 7.06667 224.701 7.2C224.194 7.30667 223.674 7.41333 223.141 7.52C222.341 7.70666 221.527 7.90666 220.701 8.12C219.874 8.33333 219.074 8.58667 218.301 8.88C217.527 9.17333 216.794 9.53333 216.101 9.96C215.434 10.36 214.847 10.8533 214.341 11.44C213.887 11.9467 213.594 12.4533 213.461 12.96C213.354 13.4667 213.541 13.9067 214.021 14.28C214.207 14.4133 214.381 14.5333 214.541 14.64C214.727 14.7467 214.927 14.8533 215.141 14.96C215.514 15.1733 215.887 15.36 216.261 15.52C216.634 15.68 217.007 15.8667 217.381 16.08C217.781 16.32 218.167 16.56 218.541 16.8C218.914 17.04 219.287 17.2933 219.661 17.56C220.114 17.9067 220.541 18.32 220.941 18.8C221.367 19.3067 221.621 19.8667 221.701 20.48C221.807 21.0933 221.781 21.72 221.621 22.36C221.487 22.9733 221.247 23.6 220.901 24.24C220.581 24.8533 220.207 25.44 219.781 26C219.381 26.56 218.941 27.08 218.461 27.56C218.007 28.0133 217.594 28.4 217.221 28.72C215.701 29.9467 214.021 31.0133 212.181 31.92C210.367 32.8267 208.674 33.6 207.101 34.24C206.994 34.2933 206.874 34.3333 206.741 34.36C206.634 34.4133 206.514 34.4667 206.381 34.52C206.354 34.5467 206.274 34.5333 206.141 34.48C206.354 34.1867 206.607 33.9733 206.901 33.84C207.194 33.7067 207.461 33.5467 207.701 33.36C207.994 33.2 208.274 33.04 208.541 32.88C208.807 32.6933 209.087 32.5067 209.381 32.32C208.767 32.32 208.194 32.4667 207.661 32.76C207.394 32.8933 207.127 33.0267 206.861 33.16C206.621 33.32 206.341 33.44 206.021 33.52C205.967 33.44 205.927 33.36 205.901 33.28C205.874 33.2267 205.834 33.1467 205.781 33.04C205.647 33.0667 205.514 33.08 205.381 33.08C205.247 33.08 205.114 33.08 204.981 33.08C204.927 32.9733 204.874 32.8667 204.821 32.76C204.741 32.6533 204.661 32.5333 204.581 32.4C204.714 32.32 204.847 32.24 204.981 32.16C205.087 32.0533 205.221 31.9333 205.381 31.8C204.661 31.9333 203.967 32.0133 203.301 32.04C203.167 32.0667 202.927 32.08 202.581 32.08C202.287 32.0533 202.021 31.9867 201.781 31.88C201.541 31.7733 201.327 31.5733 201.141 31.28C201.167 31.12 201.181 30.96 201.181 30.8C201.181 30.64 201.087 30.4933 200.901 30.36C200.927 30.1733 200.967 30.0133 201.021 29.88C201.074 29.8267 201.127 29.8 201.181 29.8C202.007 29.8 202.901 29.6667 203.861 29.4C204.821 29.1067 205.781 28.7467 206.741 28.32C207.701 27.8667 208.634 27.3733 209.541 26.84C210.447 26.28 211.261 25.7333 211.981 25.2C213.207 24.2933 213.967 23.5733 214.261 23.04C214.581 22.5067 214.594 22.0667 214.301 21.72C214.007 21.3467 213.487 21.0267 212.741 20.76C212.021 20.4667 211.247 20.1067 210.421 19.68ZM219.861 21.8C219.941 21.3733 219.954 21.0933 219.901 20.96C219.847 20.8267 219.674 20.6 219.381 20.28C219.487 20.5733 219.567 20.84 219.621 21.08C219.701 21.2933 219.781 21.5333 219.861 21.8ZM218.141 18.32C218.301 18.4533 218.421 18.56 218.501 18.64C218.607 18.6933 218.701 18.76 218.781 18.84C218.754 18.5733 218.541 18.4 218.141 18.32Z" fill="#FAFCFF"/>
</svg>
