<?xml version="1.0" encoding="utf-8"?>
<!-- Generator: Adobe Illustrator 25.4.0, SVG Export Plug-In . SVG Version: 6.00 Build 0)  -->
<svg version="1.1" id="Layer_1" xmlns="http://www.w3.org/2000/svg" xmlns:xlink="http://www.w3.org/1999/xlink" x="0px" y="0px"
	 viewBox="0 0 540.83 97.89" style="enable-background:new 0 0 540.83 97.89;" xml:space="preserve">
<style type="text/css">
	.st0{fill:#575756;stroke:#FFFFFF;stroke-miterlimit:10;}
	.st1{fill:#003763;}
	.st2{fill:#E4022D;}
	.st3{fill:#FFFFFF;}
</style>
<g>
	<g>
		<path class="st0" d="M139.93,70.36v13.86h-2.23V73.06l-3.62,11.16h-2.15l-3.62-11.16v11.16h-2.23V70.36h3.42l3.5,10.79l3.5-10.79
			H139.93z"/>
		<path class="st0" d="M145.26,71.45c0,0.38-0.14,0.72-0.43,1c-0.28,0.29-0.63,0.43-1.02,0.43c-0.4,0-0.74-0.14-1.02-0.43
			c-0.28-0.28-0.43-0.62-0.43-1c0-0.39,0.14-0.74,0.43-1.02c0.28-0.29,0.63-0.43,1.02-0.43c0.4,0,0.74,0.14,1.02,0.43
			C145.12,70.72,145.26,71.06,145.26,71.45z M142.69,84.22v-9.96h2.27v9.96H142.69z"/>
		<path class="st0" d="M149.97,79.21v5.01h-2.24v-9.96h2.17v1.33c0.27-0.46,0.65-0.84,1.15-1.13c0.5-0.29,1.05-0.44,1.63-0.44
			c1.18,0,2.12,0.4,2.83,1.21c0.71,0.8,1.07,1.87,1.07,3.21v5.79h-2.27v-5.21c0-1.06-0.17-1.84-0.52-2.35
			c-0.34-0.51-0.87-0.76-1.59-0.76c-0.37,0-0.73,0.12-1.08,0.37c-0.35,0.25-0.62,0.58-0.8,1.01
			C150.08,77.75,149.97,78.4,149.97,79.21z"/>
		<path class="st0" d="M161.81,71.45c0,0.38-0.14,0.72-0.43,1c-0.29,0.29-0.63,0.43-1.03,0.43c-0.4,0-0.74-0.14-1.02-0.43
			c-0.29-0.28-0.43-0.62-0.43-1c0-0.39,0.14-0.74,0.43-1.02c0.28-0.29,0.62-0.43,1.02-0.43c0.4,0,0.74,0.14,1.03,0.43
			C161.67,70.72,161.81,71.06,161.81,71.45z M159.25,84.22v-9.96h2.27v9.96H159.25z"/>
		<path class="st0" d="M163.36,82.37l1.41-1.45c0.4,0.54,0.84,0.97,1.31,1.27c0.46,0.28,0.96,0.42,1.49,0.42
			c0.5,0,0.93-0.11,1.28-0.31c0.35-0.21,0.53-0.48,0.53-0.82c0-0.35-0.17-0.61-0.51-0.81c-0.34-0.19-0.74-0.37-1.2-0.55
			c-0.54-0.17-1.1-0.36-1.67-0.58c-0.77-0.28-1.33-0.63-1.69-1.08c-0.36-0.44-0.54-0.93-0.54-1.49c0-0.82,0.38-1.52,1.15-2.1
			c0.77-0.58,1.68-0.86,2.72-0.86c1.12,0,2.02,0.27,2.72,0.8c0.36,0.28,0.64,0.62,0.85,1.03l-1.39,1.35
			c-0.19-0.32-0.4-0.58-0.66-0.78c-0.44-0.39-0.99-0.58-1.65-0.58c-0.39,0-0.72,0.1-1,0.29c-0.29,0.19-0.43,0.42-0.43,0.69
			c0,0.29,0.16,0.54,0.48,0.73c0.32,0.2,0.79,0.39,1.41,0.58c0.23,0.07,0.49,0.14,0.78,0.24c0.97,0.32,1.7,0.73,2.2,1.23
			c0.5,0.5,0.75,1.1,0.75,1.81c0,0.82-0.4,1.53-1.19,2.13c-0.79,0.6-1.81,0.91-3.04,0.91c-1.04,0-1.95-0.24-2.75-0.72
			C164.2,83.42,163.74,82.97,163.36,82.37z"/>
		<path class="st0" d="M176.4,71.06v3.2h2.17v1.83h-2.17v5.07c0,0.48,0.11,0.81,0.35,0.98c0.23,0.18,0.56,0.27,0.98,0.27h0.84v1.81
			h-1.37c-1.07,0-1.86-0.24-2.35-0.72c-0.49-0.48-0.73-1.18-0.73-2.12v-5.29h-1.71v-1.83h1.71v-3.2H176.4z"/>
		<path class="st0" d="M180.45,84.22v-9.96h2.13v1.49c0.33-0.49,0.73-0.87,1.21-1.13c0.57-0.34,1.24-0.52,2.01-0.52h0.16v2.03h-0.24
			c-0.94,0-1.69,0.29-2.25,0.85c-0.52,0.56-0.77,1.42-0.77,2.6v4.63H180.45z"/>
		<path class="st0" d="M190.72,83.84l-3.91-9.58h2.35l2.7,6.8l2.68-6.8h2.33l-5.55,13.82h-2.3L190.72,83.84z"/>
		<path class="st0" d="M207.89,84.46c-1.46,0-2.7-0.5-3.73-1.5c-1.03-1-1.54-2.24-1.54-3.71c0-1.47,0.51-2.71,1.54-3.72
			c1.03-1.01,2.27-1.51,3.73-1.51c1.47,0,2.72,0.5,3.74,1.51c1.02,1.01,1.53,2.25,1.53,3.72c0,1.47-0.51,2.71-1.53,3.71
			C210.61,83.96,209.37,84.46,207.89,84.46z M207.89,82.59c0.82,0,1.53-0.32,2.12-0.94c0.59-0.63,0.89-1.43,0.89-2.4
			c0-0.95-0.29-1.76-0.89-2.4c-0.59-0.64-1.29-0.96-2.12-0.96c-0.81,0-1.51,0.32-2.1,0.96c-0.59,0.64-0.88,1.44-0.88,2.4
			c0,0.97,0.29,1.77,0.88,2.4C206.39,82.27,207.09,82.59,207.89,82.59z"/>
		<path class="st0" d="M215.61,73.2c0-0.93,0.26-1.63,0.79-2.12c0.52-0.49,1.32-0.73,2.4-0.73h1.09v1.81h-0.66
			c-0.42,0-0.75,0.09-0.99,0.27c-0.23,0.18-0.35,0.51-0.35,0.98v0.83h1.99v1.83h-1.99v8.13h-2.29v-8.13h-1.71v-1.83h1.71V73.2z"/>
		<path class="st0" d="M236,84.22h-8.25V70.36h2.33v11.91H236V84.22z"/>
		<path class="st0" d="M241.96,77.8c0.76,0,1.54,0,2.35,0c0-0.65-0.25-1.14-0.76-1.46c-0.5-0.33-1.23-0.48-2.19-0.48h-0.06
			c-0.9,0-1.85,0.21-2.86,0.64l-0.58-1.77c1.05-0.45,2.2-0.68,3.46-0.7h0.04c1.67,0,2.95,0.32,3.85,0.97
			c0.89,0.64,1.34,1.67,1.34,3.07v6.16h-2.15v-1.09c-0.42,0.42-0.95,0.75-1.56,0.98c-0.62,0.23-1.24,0.35-1.88,0.35
			c-1.19,0-2.16-0.32-2.89-0.95c-0.74-0.63-1.11-1.4-1.11-2.32c0-1.02,0.46-1.86,1.37-2.53C239.19,78.09,240.39,77.8,241.96,77.8z
			 M241.34,82.67c0.58,0,1.16-0.14,1.73-0.43c0.57-0.28,0.98-0.61,1.23-0.98v-1.69c-0.74,0-1.41,0-2.01,0
			c-1.14,0-1.93,0.15-2.38,0.44c-0.44,0.33-0.66,0.73-0.66,1.19c0,0.42,0.18,0.77,0.56,1.05C240.18,82.53,240.69,82.67,241.34,82.67
			z"/>
		<path class="st0" d="M251.42,79.21v5.01h-2.24v-9.96h2.17v1.33c0.26-0.46,0.65-0.84,1.15-1.13c0.5-0.29,1.05-0.44,1.63-0.44
			c1.18,0,2.12,0.4,2.83,1.21c0.71,0.8,1.06,1.87,1.06,3.21v5.79h-2.27v-5.21c0-1.06-0.17-1.84-0.52-2.35
			c-0.35-0.51-0.88-0.76-1.59-0.76c-0.37,0-0.73,0.12-1.08,0.37c-0.35,0.25-0.62,0.58-0.81,1.01
			C251.53,77.75,251.42,78.4,251.42,79.21z"/>
		<path class="st0" d="M264.83,74.02c1.18,0,2.19,0.48,3.04,1.43v-5.09h2.27v13.86h-2.19v-1.25c-0.84,0.99-1.87,1.49-3.12,1.49
			c-1.46,0-2.64-0.52-3.54-1.55c-0.9-1.03-1.35-2.25-1.35-3.66c0-1.41,0.45-2.63,1.35-3.67C262.19,74.54,263.37,74.02,264.83,74.02z
			 M267.85,79.88c0.04-0.44,0.04-0.86,0-1.27c-0.08-0.76-0.36-1.38-0.83-1.89c-0.53-0.56-1.19-0.83-1.97-0.83
			c-0.87,0-1.56,0.32-2.07,0.96c-0.5,0.64-0.76,1.44-0.76,2.4c0,0.97,0.25,1.77,0.76,2.4c0.5,0.63,1.19,0.94,2.07,0.94
			c0.78,0,1.44-0.28,1.97-0.83C267.5,81.25,267.77,80.62,267.85,79.88z"/>
		<path class="st0" d="M274.21,85.09h-0.1c-0.4,0-0.74-0.14-1.04-0.41c-0.29-0.28-0.44-0.62-0.44-1.02c0-0.41,0.14-0.75,0.44-1.03
			c0.29-0.28,0.64-0.42,1.04-0.42c0.41,0,0.75,0.13,1.03,0.4c0.33,0.32,0.5,0.76,0.5,1.33c0,0.97-0.24,1.77-0.72,2.41
			c-0.47,0.6-1,1.01-1.59,1.25l-0.6-0.66c0.54-0.35,0.95-0.74,1.21-1.19C274.07,85.55,274.16,85.33,274.21,85.09z"/>
		<path class="st0" d="M284.72,84.22V70.36h2.33v13.86H284.72z"/>
		<path class="st0" d="M292.08,79.21v5.01h-2.25v-9.96H292v1.33c0.26-0.46,0.65-0.84,1.15-1.13c0.5-0.29,1.05-0.44,1.63-0.44
			c1.18,0,2.12,0.4,2.83,1.21c0.71,0.8,1.07,1.87,1.07,3.21v5.79h-2.27v-5.21c0-1.06-0.17-1.84-0.52-2.35
			c-0.34-0.51-0.88-0.76-1.59-0.76c-0.37,0-0.73,0.12-1.08,0.37c-0.35,0.25-0.62,0.58-0.8,1.01
			C292.19,77.75,292.08,78.4,292.08,79.21z"/>
		<path class="st0" d="M301.67,73.2c0-0.93,0.26-1.63,0.79-2.12c0.52-0.49,1.32-0.73,2.4-0.73h1.09v1.81h-0.66
			c-0.42,0-0.75,0.09-0.99,0.27c-0.23,0.18-0.35,0.51-0.35,0.98v0.83h1.99v1.83h-1.99v8.13h-2.29v-8.13h-1.71v-1.83h1.71V73.2z"/>
		<path class="st0" d="M307.79,84.22v-9.96h2.13v1.49c0.33-0.49,0.73-0.87,1.21-1.13c0.57-0.34,1.24-0.52,2.01-0.52h0.16v2.03h-0.24
			c-0.94,0-1.69,0.29-2.25,0.85c-0.52,0.56-0.78,1.42-0.78,2.6v4.63H307.79z"/>
		<path class="st0" d="M319.08,77.8c0.75,0,1.54,0,2.34,0c0-0.65-0.25-1.14-0.76-1.46c-0.5-0.33-1.23-0.48-2.18-0.48h-0.06
			c-0.9,0-1.86,0.21-2.86,0.64l-0.58-1.77c1.05-0.45,2.2-0.68,3.46-0.7h0.04c1.67,0,2.95,0.32,3.84,0.97
			c0.9,0.64,1.34,1.67,1.34,3.07v6.16h-2.15v-1.09c-0.42,0.42-0.94,0.75-1.56,0.98c-0.62,0.23-1.24,0.35-1.88,0.35
			c-1.2,0-2.16-0.32-2.9-0.95c-0.73-0.63-1.1-1.4-1.1-2.32c0-1.02,0.46-1.86,1.37-2.53C316.31,78.09,317.52,77.8,319.08,77.8z
			 M318.47,82.67c0.58,0,1.16-0.14,1.73-0.43c0.57-0.28,0.98-0.61,1.23-0.98v-1.69c-0.74,0-1.41,0-2.01,0
			c-1.14,0-1.93,0.15-2.38,0.44c-0.44,0.33-0.66,0.73-0.66,1.19c0,0.42,0.19,0.77,0.56,1.05C317.31,82.53,317.82,82.67,318.47,82.67
			z"/>
		<path class="st0" d="M325.38,82.37l1.41-1.45c0.4,0.54,0.84,0.97,1.31,1.27c0.46,0.28,0.96,0.42,1.49,0.42
			c0.5,0,0.93-0.11,1.28-0.31c0.35-0.21,0.53-0.48,0.53-0.82c0-0.35-0.17-0.61-0.51-0.81c-0.34-0.19-0.74-0.37-1.2-0.55
			c-0.54-0.17-1.1-0.36-1.67-0.58c-0.77-0.28-1.33-0.63-1.69-1.08c-0.36-0.44-0.54-0.93-0.54-1.49c0-0.82,0.39-1.52,1.15-2.1
			c0.77-0.58,1.68-0.86,2.73-0.86c1.11,0,2.02,0.27,2.72,0.8c0.36,0.28,0.64,0.62,0.85,1.03l-1.39,1.35
			c-0.19-0.32-0.4-0.58-0.66-0.78c-0.44-0.39-0.99-0.58-1.65-0.58c-0.38,0-0.72,0.1-1.01,0.29c-0.28,0.19-0.43,0.42-0.43,0.69
			c0,0.29,0.16,0.54,0.48,0.73c0.32,0.2,0.79,0.39,1.41,0.58c0.23,0.07,0.48,0.14,0.78,0.24c0.97,0.32,1.7,0.73,2.2,1.23
			c0.5,0.5,0.75,1.1,0.75,1.81c0,0.82-0.4,1.53-1.19,2.13c-0.8,0.6-1.81,0.91-3.04,0.91c-1.03,0-1.95-0.24-2.74-0.72
			C326.22,83.42,325.76,82.97,325.38,82.37z"/>
		<path class="st0" d="M338.42,71.06v3.2h2.17v1.83h-2.17v5.07c0,0.48,0.11,0.81,0.35,0.98c0.23,0.18,0.56,0.27,0.98,0.27h0.84v1.81
			h-1.37c-1.07,0-1.85-0.24-2.35-0.72c-0.49-0.48-0.73-1.18-0.73-2.12v-5.29h-1.71v-1.83h1.71v-3.2H338.42z"/>
		<path class="st0" d="M342.47,84.22v-9.96h2.13v1.49c0.33-0.49,0.74-0.87,1.21-1.13c0.57-0.34,1.24-0.52,2.01-0.52h0.16v2.03h-0.24
			c-0.94,0-1.69,0.29-2.25,0.85c-0.52,0.56-0.78,1.42-0.78,2.6v4.63H342.47z"/>
		<path class="st0" d="M356.15,79.27v-5.01h2.27v9.96h-2.17v-1.31c-0.28,0.49-0.65,0.86-1.11,1.11c-0.54,0.29-1.11,0.44-1.69,0.44
			c-1.17,0-2.11-0.4-2.81-1.19c-0.71-0.8-1.06-1.87-1.06-3.22v-5.79h2.25v5.23c0,1.05,0.17,1.83,0.53,2.34
			c0.35,0.51,0.88,0.76,1.6,0.76c0.36,0,0.72-0.12,1.08-0.37c0.36-0.25,0.63-0.58,0.81-0.98C356.04,80.75,356.15,80.09,356.15,79.27
			z"/>
		<path class="st0" d="M360.34,79.25c0-1.43,0.54-2.66,1.62-3.69c1.08-1.03,2.44-1.54,4.1-1.54c1.3,0,2.52,0.42,3.66,1.25
			l-0.73,1.77c-1-0.77-1.97-1.15-2.92-1.15c-1.02,0-1.85,0.33-2.48,0.98c-0.64,0.65-0.96,1.45-0.96,2.38c0,0.94,0.32,1.73,0.96,2.37
			c0.64,0.65,1.46,0.97,2.48,0.97c0.97,0,1.95-0.38,2.96-1.13l0.73,1.77c-1.1,0.82-2.33,1.23-3.7,1.23c-1.66,0-3.03-0.51-4.1-1.53
			C360.88,81.91,360.34,80.68,360.34,79.25z"/>
		<path class="st0" d="M374.69,71.06v3.2h2.17v1.83h-2.17v5.07c0,0.48,0.11,0.81,0.35,0.98c0.23,0.18,0.56,0.27,0.98,0.27h0.84v1.81
			h-1.37c-1.07,0-1.86-0.24-2.35-0.72c-0.49-0.48-0.74-1.18-0.74-2.12v-5.29h-1.71v-1.83h1.71v-3.2H374.69z"/>
		<path class="st0" d="M385.32,79.27v-5.01h2.27v9.96h-2.17v-1.31c-0.28,0.49-0.65,0.86-1.11,1.11c-0.54,0.29-1.11,0.44-1.69,0.44
			c-1.17,0-2.1-0.4-2.81-1.19c-0.71-0.8-1.06-1.87-1.06-3.22v-5.79h2.25v5.23c0,1.05,0.17,1.83,0.53,2.34
			c0.35,0.51,0.89,0.76,1.6,0.76c0.36,0,0.71-0.12,1.07-0.37c0.36-0.25,0.63-0.58,0.82-0.98C385.22,80.75,385.32,80.09,385.32,79.27
			z"/>
		<path class="st0" d="M390.21,84.22v-9.96h2.13v1.49c0.33-0.49,0.74-0.87,1.21-1.13c0.57-0.34,1.24-0.52,2.01-0.52h0.16v2.03h-0.24
			c-0.94,0-1.69,0.29-2.25,0.85c-0.52,0.56-0.77,1.42-0.77,2.6v4.63H390.21z"/>
		<path class="st0" d="M398.77,80.24c0.14,0.61,0.42,1.11,0.86,1.49c0.63,0.58,1.48,0.88,2.52,0.88c1.1,0,2.13-0.41,3.08-1.21
			l0.68,1.67c-1.07,0.93-2.35,1.39-3.82,1.39c-1.68,0-3.05-0.48-4.11-1.43c-1.05-0.95-1.58-2.21-1.58-3.76
			c0-1.52,0.47-2.78,1.4-3.77c0.93-0.99,2.16-1.48,3.67-1.48c1.48,0,2.7,0.49,3.65,1.47c0.95,0.98,1.42,2.19,1.42,3.64
			c0,0.4-0.03,0.77-0.1,1.11H398.77z M398.73,78.45h5.53c-0.03-0.65-0.3-1.24-0.82-1.78c-0.51-0.54-1.17-0.8-1.97-0.8
			c-0.82,0-1.5,0.29-2.03,0.88C399.07,77.18,398.83,77.75,398.73,78.45z"/>
		<path class="st0" d="M418.31,77.8c0.76,0,1.54,0,2.35,0c0-0.65-0.25-1.14-0.76-1.46c-0.51-0.33-1.23-0.48-2.19-0.48h-0.06
			c-0.9,0-1.86,0.21-2.86,0.64l-0.58-1.77c1.05-0.45,2.2-0.68,3.46-0.7h0.04c1.67,0,2.95,0.32,3.85,0.97
			c0.89,0.64,1.34,1.67,1.34,3.07v6.16h-2.15v-1.09c-0.43,0.42-0.95,0.75-1.56,0.98c-0.62,0.23-1.25,0.35-1.88,0.35
			c-1.2,0-2.16-0.32-2.9-0.95c-0.73-0.63-1.1-1.4-1.1-2.32c0-1.02,0.46-1.86,1.37-2.53C415.54,78.09,416.75,77.8,418.31,77.8z
			 M417.69,82.67c0.58,0,1.16-0.14,1.73-0.43c0.57-0.28,0.98-0.61,1.24-0.98v-1.69c-0.75,0-1.41,0-2.01,0
			c-1.14,0-1.93,0.15-2.38,0.44c-0.44,0.33-0.65,0.73-0.65,1.19c0,0.42,0.18,0.77,0.56,1.05C416.53,82.53,417.04,82.67,417.69,82.67
			z"/>
		<path class="st0" d="M427.77,79.21v5.01h-2.25v-9.96h2.17v1.33c0.26-0.46,0.65-0.84,1.15-1.13c0.5-0.29,1.05-0.44,1.63-0.44
			c1.18,0,2.12,0.4,2.84,1.21c0.71,0.8,1.06,1.87,1.06,3.21v5.79h-2.27v-5.21c0-1.06-0.17-1.84-0.52-2.35
			c-0.34-0.51-0.88-0.76-1.59-0.76c-0.37,0-0.73,0.12-1.08,0.37c-0.35,0.25-0.62,0.58-0.8,1.01
			C427.88,77.75,427.77,78.4,427.77,79.21z"/>
		<path class="st0" d="M441.19,74.02c1.18,0,2.19,0.48,3.04,1.43v-5.09h2.27v13.86h-2.18v-1.25c-0.84,0.99-1.88,1.49-3.12,1.49
			c-1.46,0-2.64-0.52-3.54-1.55c-0.9-1.03-1.35-2.25-1.35-3.66c0-1.41,0.45-2.63,1.35-3.67C438.55,74.54,439.73,74.02,441.19,74.02z
			 M444.21,79.88c0.04-0.44,0.04-0.86,0-1.27c-0.08-0.76-0.36-1.38-0.83-1.89c-0.53-0.56-1.19-0.83-1.97-0.83
			c-0.88,0-1.56,0.32-2.07,0.96c-0.5,0.64-0.76,1.44-0.76,2.4c0,0.97,0.25,1.77,0.76,2.4c0.5,0.63,1.19,0.94,2.07,0.94
			c0.78,0,1.44-0.28,1.97-0.83C443.85,81.25,444.13,80.62,444.21,79.88z"/>
		<path class="st0" d="M460.2,72.31v11.91h-2.32V72.31h-4.24v-1.95h10.8v1.95H460.2z"/>
		<path class="st0" d="M464.89,84.22v-9.96h2.13v1.49c0.33-0.49,0.73-0.87,1.21-1.13c0.57-0.34,1.24-0.52,2.01-0.52h0.16v2.03h-0.24
			c-0.94,0-1.69,0.29-2.25,0.85c-0.51,0.56-0.77,1.42-0.77,2.6v4.63H464.89z"/>
		<path class="st0" d="M476.18,77.8c0.75,0,1.54,0,2.35,0c0-0.65-0.25-1.14-0.76-1.46s-1.23-0.48-2.19-0.48h-0.06
			c-0.9,0-1.86,0.21-2.86,0.64l-0.58-1.77c1.05-0.45,2.2-0.68,3.46-0.7h0.04c1.67,0,2.95,0.32,3.85,0.97
			c0.9,0.64,1.34,1.67,1.34,3.07v6.16h-2.15v-1.09c-0.42,0.42-0.94,0.75-1.56,0.98c-0.62,0.23-1.24,0.35-1.88,0.35
			c-1.19,0-2.16-0.32-2.89-0.95c-0.74-0.63-1.1-1.4-1.1-2.32c0-1.02,0.46-1.86,1.37-2.53C473.41,78.09,474.62,77.8,476.18,77.8z
			 M475.57,82.67c0.58,0,1.16-0.14,1.73-0.43c0.57-0.28,0.98-0.61,1.23-0.98v-1.69c-0.74,0-1.41,0-2.01,0
			c-1.14,0-1.94,0.15-2.39,0.44c-0.44,0.33-0.66,0.73-0.66,1.19c0,0.42,0.18,0.77,0.56,1.05C474.4,82.53,474.92,82.67,475.57,82.67z
			"/>
		<path class="st0" d="M485.64,79.21v5.01h-2.25v-9.96h2.17v1.33c0.26-0.46,0.65-0.84,1.15-1.13c0.5-0.29,1.04-0.44,1.63-0.44
			c1.18,0,2.12,0.4,2.83,1.21c0.71,0.8,1.06,1.87,1.06,3.21v5.79h-2.26v-5.21c0-1.06-0.17-1.84-0.52-2.35
			c-0.34-0.51-0.88-0.76-1.59-0.76c-0.37,0-0.73,0.12-1.08,0.37c-0.35,0.25-0.62,0.58-0.81,1.01
			C485.75,77.75,485.64,78.4,485.64,79.21z"/>
		<path class="st0" d="M493.95,82.37l1.41-1.45c0.4,0.54,0.83,0.97,1.31,1.27c0.46,0.28,0.96,0.42,1.49,0.42
			c0.5,0,0.93-0.11,1.28-0.31c0.35-0.21,0.53-0.48,0.53-0.82c0-0.35-0.17-0.61-0.51-0.81c-0.34-0.19-0.74-0.37-1.2-0.55
			c-0.54-0.17-1.1-0.36-1.67-0.58c-0.77-0.28-1.33-0.63-1.69-1.08c-0.36-0.44-0.54-0.93-0.54-1.49c0-0.82,0.39-1.52,1.15-2.1
			c0.77-0.58,1.68-0.86,2.72-0.86c1.11,0,2.02,0.27,2.72,0.8c0.36,0.28,0.64,0.62,0.86,1.03l-1.39,1.35
			c-0.19-0.32-0.4-0.58-0.66-0.78c-0.43-0.39-0.99-0.58-1.65-0.58c-0.38,0-0.72,0.1-1,0.29c-0.29,0.19-0.43,0.42-0.43,0.69
			c0,0.29,0.16,0.54,0.48,0.73c0.32,0.2,0.79,0.39,1.41,0.58c0.22,0.07,0.49,0.14,0.78,0.24c0.96,0.32,1.7,0.73,2.2,1.23
			c0.5,0.5,0.74,1.1,0.74,1.81c0,0.82-0.4,1.53-1.19,2.13c-0.79,0.6-1.81,0.91-3.04,0.91c-1.03,0-1.95-0.24-2.74-0.72
			C494.79,83.42,494.33,82.97,493.95,82.37z"/>
		<path class="st0" d="M509.39,84.46c-1.22,0-2.24-0.47-3.06-1.41v5.03h-2.25V74.26h2.17v1.27c0.86-1.01,1.91-1.51,3.14-1.51
			c1.44,0,2.62,0.52,3.53,1.56c0.91,1.04,1.36,2.26,1.36,3.67c0,1.41-0.45,2.62-1.36,3.66C512.02,83.94,510.84,84.46,509.39,84.46z
			 M506.35,79.88c0.08,0.74,0.35,1.36,0.83,1.87c0.53,0.55,1.19,0.83,1.99,0.83c0.86,0,1.55-0.32,2.06-0.94
			c0.51-0.63,0.77-1.43,0.77-2.4c0-0.95-0.26-1.76-0.77-2.4c-0.51-0.64-1.2-0.96-2.06-0.96c-0.79,0-1.46,0.28-1.99,0.83
			c-0.48,0.5-0.76,1.13-0.83,1.89C506.31,79.02,506.31,79.45,506.35,79.88z"/>
		<path class="st0" d="M520.76,84.46c-1.46,0-2.7-0.5-3.73-1.5c-1.03-1-1.54-2.24-1.54-3.71c0-1.47,0.51-2.71,1.54-3.72
			c1.03-1.01,2.27-1.51,3.73-1.51c1.47,0,2.72,0.5,3.74,1.51c1.02,1.01,1.53,2.25,1.53,3.72c0,1.47-0.51,2.71-1.53,3.71
			C523.48,83.96,522.23,84.46,520.76,84.46z M520.76,82.59c0.82,0,1.53-0.32,2.12-0.94c0.59-0.63,0.88-1.43,0.88-2.4
			c0-0.95-0.29-1.76-0.88-2.4c-0.59-0.64-1.29-0.96-2.12-0.96c-0.81,0-1.51,0.32-2.1,0.96c-0.59,0.64-0.89,1.44-0.89,2.4
			c0,0.97,0.29,1.77,0.89,2.4C519.25,82.27,519.95,82.59,520.76,82.59z"/>
		<path class="st0" d="M527.97,84.22v-9.96h2.13v1.49c0.33-0.49,0.74-0.87,1.21-1.13c0.57-0.34,1.24-0.52,2.01-0.52h0.16v2.03h-0.24
			c-0.94,0-1.69,0.29-2.25,0.85c-0.52,0.56-0.77,1.42-0.77,2.6v4.63H527.97z"/>
		<path class="st0" d="M538.67,71.06v3.2h2.17v1.83h-2.17v5.07c0,0.48,0.11,0.81,0.35,0.98c0.23,0.18,0.56,0.27,0.98,0.27h0.83v1.81
			h-1.37c-1.08,0-1.86-0.24-2.35-0.72c-0.49-0.48-0.73-1.18-0.73-2.12v-5.29h-1.71v-1.83h1.71v-3.2H538.67z"/>
	</g>
	<g>
		<g>
			<g>
				<g>
					<g>
						<g>
							<path class="st1" d="M75.58,46.71c-8.51-5.78-19.39-3.42-25.11,5.27c-4.78,7.26-11.98,8.16-14.77,8.16
								c-9.1,0-15.32-6.39-17.17-13.02h-0.01c-0.01-0.07-0.03-0.12-0.04-0.18c-0.02-0.08-0.04-0.15-0.06-0.23
								c-0.73-2.76-0.9-4.08-0.9-7.02c0-15.83,16.24-33.45,39.64-33.45c23.95,0,37.66,18.23,41.19,28.37
								c-0.06-0.18-0.11-0.36-0.17-0.54C91.37,14.26,72.57,0,50.44,0C22.58,0,0,22.58,0,50.45c0,24.9,17.96,46.21,42.87,46.21
								c19.87,0,33.23-11.14,39.35-26.5C85.59,61.77,83.2,51.9,75.58,46.71z"/>
						</g>
						<g>
							<path class="st2" d="M98.66,35.6c-2.94-9.89-16.75-29.35-41.5-29.35c-23.39,0-39.64,17.62-39.64,33.45
								c0,2.94,0.18,4.25,0.9,7.02c-0.31-1.21-0.46-2.41-0.46-3.6c0-16.48,16.51-27.91,33.47-27.91c22.97,0,41.59,18.62,41.59,41.59
								c0,18.01-10.36,33.59-25.41,41.08l0,0.01c19.41-7.03,33.27-25.62,33.27-47.44C100.88,45.28,100.18,40.72,98.66,35.6z"/>
						</g>
					</g>
				</g>
			</g>
		</g>
	</g>
	<g>
		<path class="st3" d="M159.24,41.69v13.67h-4.88v-9.41h-25.8v-4.26h13.15v-5.76H126.1v-4.26h36.04v4.26h-15.6v5.76H159.24z
			 M159.24,16.85v11.69h-4.88v-7.39H129v-4.31H159.24z"/>
		<path class="st3" d="M200.34,40.99h-12.75v7.12h15.6v4.26h-36.04v-4.26h15.56v-7.12h-12.66V18.04h30.2v4.26h-25.4v5.1h25.4v4.18
			h-25.4v5.14h25.49V40.99z"/>
		<path class="st3" d="M216.77,48.11V35.93h4.62v12.18h6.55V35.93h4.66v12.18h11.65v4.26h-36.04v-4.26H216.77z M236.46,41.2V22.39
			H211.1v-4.35h30.24V41.2H236.46z"/>
		<path class="st3" d="M284.85,38.48h-36.04v-4h15.6v-2.55h-12.7V16.5h30.2v4h-25.45v1.94h25.45v3.65h-25.45v1.98h25.53v3.87H269.2
			v2.55h15.65V38.48z M276.45,48.11c0,1.23-0.25,2.38-0.76,3.47c-0.51,1.08-1.2,2.02-2.05,2.82c-0.88,0.82-1.89,1.47-3.03,1.95
			c-1.14,0.49-2.38,0.73-3.69,0.73c-1.32,0-2.56-0.24-3.72-0.73c-1.16-0.48-2.18-1.13-3.06-1.95c-0.85-0.79-1.53-1.73-2.04-2.82
			c-0.51-1.08-0.77-2.24-0.77-3.47c0-1.23,0.26-2.38,0.77-3.45c0.51-1.07,1.19-2,2.04-2.79c0.88-0.82,1.9-1.47,3.06-1.95
			c1.16-0.49,2.39-0.73,3.72-0.73c1.32,0,2.55,0.24,3.69,0.73c1.14,0.48,2.15,1.14,3.03,1.95c0.85,0.79,1.53,1.72,2.05,2.79
			C276.2,45.73,276.45,46.88,276.45,48.11z M271.75,48.06c0-1.32-0.47-2.45-1.41-3.41c-0.94-0.95-2.08-1.43-3.43-1.43
			c-1.35,0-2.5,0.48-3.45,1.43c-0.95,0.95-1.43,2.09-1.43,3.41c0,1.32,0.48,2.45,1.43,3.39c0.95,0.93,2.1,1.41,3.45,1.41
			c1.35,0,2.49-0.47,3.43-1.41C271.28,50.51,271.75,49.38,271.75,48.06z"/>
		<path class="st3" d="M289.64,40.82h36.04v4.31h-15.6v10.11h-4.88V45.13h-15.56V40.82z M297.33,21.66h20.61V16.7h4.84v18.86h-30.24
			V16.7h4.79V21.66z M317.94,25.88h-20.61v5.41h20.61V25.88z"/>
	</g>
</g>
</svg>
