<svg width="16" height="18" viewBox="0 0 16 18" fill="none" xmlns="http://www.w3.org/2000/svg">
<g clip-path="url(#clip0_473_825)">
<path d="M9.57264 11.449H2.3042C2.07684 11.449 1.89307 11.241 1.89307 10.9849C1.89307 10.7288 2.07684 10.5209 2.3042 10.5209H9.57264C9.8 10.5209 9.98377 10.7288 9.98377 10.9849C9.98377 11.241 9.8 11.449 9.57264 11.449Z" fill="white"/>
<path d="M7.21072 17.3409C7.07407 17.3433 6.88323 17.3162 6.74423 17.1811C6.39082 16.8381 6.59462 16.0345 7.18716 15.4259L13.6275 8.83141C13.8866 8.56589 14.1517 8.46955 14.2989 8.4672C14.339 8.4672 14.3943 8.47308 14.4262 8.50362L15.2378 9.29195C15.3356 9.38711 15.2626 9.75719 14.9304 10.0979L8.49124 16.6924C8.10485 17.0871 7.61479 17.3362 7.21072 17.3409Z" fill="#12416B"/>
<path d="M14.7808 8.23693C14.7808 8.23693 14.9139 8.10417 15.0753 7.94321C15.2378 7.78108 15.5571 7.83513 15.7856 8.06305C16.0142 8.29097 16.0683 8.60936 15.9058 8.77149C15.7432 8.93362 15.6113 9.0652 15.6113 9.0652" fill="#12416B"/>
<path d="M6.69118 17.3362C6.63935 17.2857 6.60165 17.2258 6.57338 17.1576C6.46264 17.2657 6.19523 17.563 6.07507 18C6.53097 17.8625 6.82783 17.5677 6.91972 17.4654C6.83961 17.4419 6.75951 17.402 6.69118 17.3362Z" fill="#12416B"/>
<path d="M14.9523 8.89803L12.9806 10.8644L13.3138 11.1967L15.2855 9.23032L14.9523 8.89803Z" fill="white"/>
<path d="M10.1805 15.9393H12.149C12.473 15.9393 12.738 15.675 12.738 15.3519V13.2406" fill="#12416B"/>
<path d="M12.738 0.587429C12.738 0.264343 12.473 0 12.149 0H0.589015C0.265057 0 0 0.264343 0 0.587429V15.3519C0 15.675 0.265057 15.9393 0.589015 15.9393H5.91842L12.738 8.90307V0.587429Z" fill="#12416B"/>
<path d="M9.98374 2.51537H3.01099V3.63149H9.98374V2.51537Z" fill="white"/>
<path d="M11.1618 5.74623H1.83301V6.86235H11.1618V5.74623Z" fill="white"/>
<path d="M11.1618 8.93127H1.83301V10.0474H11.1618V8.93127Z" fill="white"/>
<path d="M8.54071 13.2336H1.83301V12.1175H9.62214L8.54071 13.2336Z" fill="white"/>
</g>
<defs>
<clipPath id="clip0_473_825">
<rect width="16" height="18" fill="white"/>
</clipPath>
</defs>
</svg>
