<svg width="14" height="16" viewBox="0 0 14 16" fill="none" xmlns="http://www.w3.org/2000/svg">
<g clip-path="url(#clip0_472_32)">
<path d="M12.7045 5.17734C12.7045 2.32306 10.1459 0 6.99768 0C3.85406 0 1.29552 2.32306 1.29552 5.17734V6.83847H0V16H1.30481H3.02289H10.9818H12.6998H14.0046V6.83847H12.7091V5.17734H12.7045ZM8.34428 13.7697H5.65108L6.3058 10.9702C5.7068 10.7299 5.28889 10.186 5.28889 9.55362C5.28889 8.69776 6.05506 8.00211 6.99768 8.00211C7.9403 8.00211 8.70647 8.69776 8.70647 9.55362C8.70647 10.186 8.28856 10.7299 7.68955 10.9702L8.34428 13.7697ZM10.9957 6.83847H3.00431V5.17734C3.00431 3.17892 4.79668 1.55152 6.99768 1.55152C9.19867 1.55152 10.991 3.17892 10.991 5.17734V6.83847H10.9957Z" fill="#12416B"/>
</g>
<defs>
<clipPath id="clip0_472_32">
<rect width="14" height="16" fill="white"/>
</clipPath>
</defs>
</svg>
