<?xml version="1.0" encoding="utf-8"?>
<!-- Generator: Adobe Illustrator 25.4.0, SVG Export Plug-In . SVG Version: 6.00 Build 0)  -->
<svg version="1.1" id="Layer_1" xmlns="http://www.w3.org/2000/svg" xmlns:xlink="http://www.w3.org/1999/xlink" x="0px" y="0px"
	 viewBox="0 0 62 62" style="enable-background:new 0 0 62 62;" xml:space="preserve">
<style type="text/css">
	.st0{fill:#4D4D4D;}
</style>
<g>
	<path class="st0" d="M-447.68-411.74l-3.95-3.96c-0.87-0.87-21.23-21.47-21.23-39.54c0-1.54,0.08-3.07,0.23-4.55l0.58-5.57
		l5.54,0.59c0.07,0,0.31,0.02,0.67,0.02c2.42,0,8.65-0.58,14.24-5.94l3.94-3.78l1.27,1.26l2.63,2.52
		c5.59,5.36,11.82,5.94,14.24,5.94c0.4,0,0.65-0.02,0.7-0.02l5.48-0.52l0.61,5.48c0.15,1.49,0.23,3.02,0.23,4.56
		c0,18.07-20.36,38.67-21.23,39.54L-447.68-411.74z M-468.74-461.25l-0.19,1.86c-0.14,1.35-0.21,2.75-0.21,4.16
		c0,16.54,19.32,36.08,20.14,36.91l1.32,1.32l1.32-1.32c0.82-0.82,20.14-20.36,20.14-36.91c0-1.41-0.07-2.81-0.21-4.16l-0.2-1.83
		l-1.95,0.18c-0.14,0.01-0.46,0.03-0.93,0.03c-2.87,0-10.25-0.68-16.82-6.97l-1.35-1.29l-0.03,0.03l0,0l-1.32,1.27
		c-6.57,6.29-13.95,6.97-16.81,6.97c-0.45,0-0.77-0.02-0.9-0.03l-0.13-0.01L-468.74-461.25z"/>
	<path class="st0" d="M-428.29-459.2c0,0-10.4,1.12-19.33-7.44c-0.02,0.02-0.04,0.04-0.06,0.06c-0.02-0.02-0.04-0.04-0.06-0.06
		c-8.93,8.56-19.33,7.44-19.33,7.44c-0.13,1.25-0.2,2.57-0.2,3.97c0,15.96,19.6,35.6,19.6,35.6s19.6-19.64,19.6-35.6
		C-428.09-456.63-428.16-457.95-428.29-459.2z"/>
</g>
<g>
	<path class="st0" d="M-313.29-445.77h-30.95c-2.14,0-3.87,1.73-3.87,3.87v25.99c0,2.14,1.73,3.87,3.87,3.87h30.95
		c2.14,0,3.87-1.73,3.87-3.87v-25.99C-309.42-444.04-311.15-445.77-313.29-445.77z M-326.4-427.85v9.13c0,0.73-1.06,1.32-2.37,1.32
		c-1.31,0-2.37-0.59-2.37-1.32v-9.13c-2.13-0.92-3.63-3.04-3.63-5.51c0-3.31,2.68-6,6-6c3.31,0,6,2.68,6,6
		C-322.77-430.89-324.26-428.77-326.4-427.85z"/>
	<path class="st0" d="M-328.77-467.43c6.85,0,12.63,7.17,12.63,15.66v2.91c0,1.28,1.04,2.32,2.32,2.32h2.07
		c1.28,0,2.32-1.04,2.32-2.32v-2.91c0-12.3-8.71-22.37-19.34-22.37c-10.64,0-19.34,10.07-19.34,22.37v2.91
		c0,1.28,1.04,2.32,2.32,2.32h2.07c1.28,0,2.32-1.04,2.32-2.32v-2.91C-341.4-460.26-335.61-467.43-328.77-467.43z"/>
</g>
<g>
	<path class="st0" d="M-207.52-449.5c-10.68,0-19.34,8.66-19.34,19.34s8.66,19.34,19.34,19.34c10.68,0,19.34-8.66,19.34-19.34
		S-196.83-449.5-207.52-449.5z M-205.15-429.09v9.13c0,0.73-1.06,1.32-2.37,1.32c-1.31,0-2.37-0.59-2.37-1.32v-9.13
		c-2.13-0.92-3.63-3.04-3.63-5.51c0-3.31,2.68-6,6-6c3.31,0,6,2.68,6,6C-201.52-432.13-203.01-430.01-205.15-429.09z"/>
	<path class="st0" d="M-207.52-468.67c6.85,0,12.63,7.17,12.63,15.66v2.91c0,1.28,1.04,2.32,2.32,2.32h2.07
		c1.28,0,2.32-1.04,2.32-2.32v-2.91c0-12.3-8.71-22.37-19.34-22.37c-10.64,0-19.34,10.07-19.34,22.37v2.91
		c0,1.28,1.04,2.32,2.32,2.32h2.07c1.28,0,2.32-1.04,2.32-2.32v-2.91C-220.15-461.5-214.36-468.67-207.52-468.67z"/>
</g>
<g>
	<path class="st0" d="M-87.66-411.74l-3.95-3.96c-0.87-0.87-21.23-21.47-21.23-39.54c0-1.54,0.08-3.07,0.23-4.55l0.58-5.57
		l5.54,0.59c0.07,0,0.31,0.02,0.67,0.02c2.42,0,8.65-0.58,14.24-5.94l3.95-3.78l1.27,1.26l2.63,2.52
		c5.59,5.36,11.82,5.94,14.24,5.94c0.4,0,0.65-0.02,0.7-0.02l5.48-0.52l0.61,5.48c0.15,1.49,0.23,3.02,0.23,4.56
		c0,18.07-20.36,38.67-21.23,39.54L-87.66-411.74z M-108.71-461.25l-0.19,1.86c-0.14,1.35-0.21,2.75-0.21,4.16
		c0,16.54,19.32,36.08,20.14,36.91l1.32,1.32l1.32-1.32c0.82-0.82,20.14-20.36,20.14-36.91c0-1.41-0.07-2.81-0.21-4.16l-0.2-1.83
		l-1.95,0.18c-0.14,0.01-0.46,0.03-0.93,0.03c-2.87,0-10.25-0.68-16.81-6.97l-1.35-1.29l-0.03,0.03l0,0l-1.32,1.27
		c-6.57,6.29-13.95,6.97-16.81,6.97c-0.45,0-0.77-0.02-0.9-0.03l-0.13-0.01L-108.71-461.25z"/>
	<path class="st0" d="M-68.26-459.2c0,0-10.4,1.12-19.33-7.44c-0.02,0.02-0.04,0.04-0.06,0.06c-0.02-0.02-0.04-0.04-0.06-0.06
		c-8.93,8.56-19.33,7.44-19.33,7.44c-0.13,1.25-0.2,2.57-0.2,3.97c0,15.96,19.6,35.6,19.6,35.6s19.6-19.64,19.6-35.6
		C-68.06-456.63-68.13-457.95-68.26-459.2z M-94.88-439.62l-4.93-6.99l1.63-1.15l3.74,5.31l17.51-13.05l1.2,1.6L-94.88-439.62z"/>
</g>
<g>
	
		<rect x="3.36" y="-437.16" transform="matrix(0.943 -0.3329 0.3329 0.943 144.3828 -22.1849)" class="st0" width="8.18" height="9.4"/>
	<polygon class="st0" points="64.01,-432.24 60.73,-428.96 42.71,-428.96 39.7,-438.8 58,-445.26 54.06,-456.43 52.93,-459.63 
		50.9,-465.39 -4.37,-445.88 -1.21,-436.92 11.57,-441.43 15.52,-430.26 35.08,-437.17 39.1,-424.08 39.1,-424.08 39.1,-424.08 
		60.73,-424.08 64.01,-420.8 66.38,-420.8 66.38,-432.24 	"/>
</g>
<g>
	<path class="st0" d="M-435.34-350.69h-24.68c-0.79,0-1.43,0.86-1.43,1.91v42.94c0,1.05,0.64,1.91,1.43,1.91h24.68
		c0.79,0,1.43-0.86,1.43-1.91v-42.94C-433.91-349.83-434.55-350.69-435.34-350.69z M-442.56-305.75h-10.25
		c-0.43,0-0.79-0.47-0.79-1.05c0-0.58,0.35-1.05,0.79-1.05h10.25c0.44,0,0.79,0.47,0.79,1.05
		C-441.77-306.22-442.13-305.75-442.56-305.75z M-436.38-311.22c0,0.86-0.53,1.56-1.18,1.56h-20.25c-0.65,0-1.18-0.7-1.18-1.56
		v-35.24c0-0.86,0.53-1.56,1.18-1.56h20.25c0.65,0,1.18,0.7,1.18,1.56V-311.22z"/>
	<g>
		<path class="st0" d="M-442.91-330.1h-9.55c-0.66,0-1.19,0.54-1.19,1.19v8.02c0,0.66,0.54,1.19,1.19,1.19h9.55
			c0.66,0,1.19-0.53,1.19-1.19v-8.02C-441.71-329.56-442.25-330.1-442.91-330.1z M-446.95-324.56v2.82c0,0.22-0.33,0.41-0.73,0.41
			c-0.4,0-0.73-0.18-0.73-0.41v-2.82c-0.66-0.28-1.12-0.94-1.12-1.7c0-1.02,0.83-1.85,1.85-1.85c1.02,0,1.85,0.83,1.85,1.85
			C-445.83-325.5-446.29-324.85-446.95-324.56z"/>
		<path class="st0" d="M-447.68-336.78c2.11,0,3.9,2.21,3.9,4.83v0.9c0,0.4,0.32,0.72,0.72,0.72h0.64c0.4,0,0.72-0.32,0.72-0.72
			v-0.9c0-3.8-2.69-6.9-5.97-6.9c-3.28,0-5.97,3.11-5.97,6.9v0.9c0,0.4,0.32,0.72,0.72,0.72h0.64c0.4,0,0.72-0.32,0.72-0.72v-0.9
			C-451.58-334.57-449.8-336.78-447.68-336.78z"/>
	</g>
</g>
<g>
	<path class="st0" d="M-188.01-357.29h-39.02c-1.25,0-2.26,1.1-2.26,2.44v55.06c0,1.35,1.02,2.45,2.26,2.45h39.02
		c1.25,0,2.27-1.1,2.27-2.45v-55.06C-185.74-356.19-186.76-357.29-188.01-357.29z M-199.42-299.66h-16.2c-0.69,0-1.25-0.6-1.25-1.35
		c0-0.74,0.56-1.34,1.25-1.34h16.2c0.69,0,1.25,0.6,1.25,1.34C-198.17-300.26-198.73-299.66-199.42-299.66z M-189.65-306.68
		c0,1.1-0.83,2.01-1.86,2.01h-32.02c-1.02,0-1.86-0.9-1.86-2.01v-45.18c0-1.1,0.84-2.01,1.86-2.01h32.02c1.02,0,1.86,0.9,1.86,2.01
		V-306.68z"/>
	<g>
		<path class="st0" d="M-202.09-331.61h-12.14c-0.84,0-1.52,0.68-1.52,1.52v10.19c0,0.84,0.68,1.52,1.52,1.52h12.14
			c0.84,0,1.52-0.68,1.52-1.52v-10.19C-200.57-330.93-201.25-331.61-202.09-331.61z M-207.23-324.58v3.58
			c0,0.29-0.42,0.52-0.93,0.52s-0.93-0.23-0.93-0.52v-3.58c-0.84-0.36-1.42-1.19-1.42-2.16c0-1.3,1.05-2.35,2.35-2.35
			c1.3,0,2.35,1.05,2.35,2.35C-205.81-325.77-206.39-324.94-207.23-324.58z"/>
		<path class="st0" d="M-208.16-340.1c2.69,0,4.95,2.81,4.95,6.14v1.14c0,0.5,0.41,0.91,0.91,0.91h0.81c0.5,0,0.91-0.41,0.91-0.91
			v-1.14c0-4.82-3.41-8.77-7.58-8.77c-4.17,0-7.58,3.95-7.58,8.77v1.14c0,0.5,0.41,0.91,0.91,0.91h0.81c0.5,0,0.91-0.41,0.91-0.91
			v-1.14C-213.11-337.29-210.84-340.1-208.16-340.1z"/>
	</g>
</g>
<g>
	<g>
		<path class="st0" d="M-341.2-355.68h-25.84c-1.05,0-1.91,0.85-1.91,1.91v52.01c0,1.05,0.86,1.91,1.91,1.91h25.84
			c1.06,0,1.91-0.85,1.91-1.91v-52.01C-339.29-354.83-340.14-355.68-341.2-355.68z M-354.12-305.9c-2.99,0-5.41-2.42-5.41-5.41
			s2.42-5.41,5.41-5.41c2.99,0,5.41,2.42,5.41,5.41S-351.13-305.9-354.12-305.9z M-343.42-339.45h-21.39v-4.26h21.39V-339.45z
			 M-343.42-345.65h-21.39v-4.26h21.39V-345.65z"/>
		<path class="st0" d="M-290.5-355.68h-46.07c-1.05,0-1.91,0.9-1.91,2v36.92c0,1.11,0.86,2,1.91,2h19.04v9.16h-5.93
			c-1.05,0-1.91,0.85-1.91,1.91v2.83c0,1.06,0.85,1.91,1.91,1.91h19.85c1.05,0,1.91-0.85,1.91-1.91v-2.83
			c0-1.05-0.86-1.91-1.91-1.91h-5.93v-9.16h19.04c1.05,0,1.91-0.9,1.91-2v-36.92C-288.59-354.78-289.44-355.68-290.5-355.68z
			 M-291.8-319.14c0,0.96-0.74,1.75-1.66,1.75h-40.13c-0.92,0-1.66-0.78-1.66-1.75v-32.16c0-0.96,0.74-1.75,1.66-1.75h40.13
			c0.92,0,1.66,0.78,1.66,1.75V-319.14z"/>
	</g>
	<g>
		<path class="st0" d="M-308.98-335.69h-12.14c-0.84,0-1.52,0.68-1.52,1.52v10.19c0,0.84,0.68,1.52,1.52,1.52h12.14
			c0.84,0,1.52-0.68,1.52-1.52v-10.19C-307.46-335.01-308.14-335.69-308.98-335.69z M-314.12-328.66v3.58
			c0,0.29-0.42,0.52-0.93,0.52c-0.51,0-0.93-0.23-0.93-0.52v-3.58c-0.84-0.36-1.42-1.19-1.42-2.16c0-1.3,1.05-2.35,2.35-2.35
			c1.3,0,2.35,1.05,2.35,2.35C-312.7-329.85-313.28-329.02-314.12-328.66z"/>
		<path class="st0" d="M-315.05-344.18c2.69,0,4.95,2.81,4.95,6.14v1.14c0,0.5,0.41,0.91,0.91,0.91h0.81c0.5,0,0.91-0.41,0.91-0.91
			v-1.14c0-4.82-3.41-8.77-7.58-8.77c-4.17,0-7.59,3.95-7.59,8.77v1.14c0,0.5,0.41,0.91,0.91,0.91h0.81c0.5,0,0.91-0.41,0.91-0.91
			v-1.14C-320-341.37-317.73-344.18-315.05-344.18z"/>
	</g>
</g>
<g>
	<g>
		<path class="st0" d="M-62.44-358.17h-50.43c-0.76,0-1.39,0.63-1.39,1.39v32.25c0,0.77,0.63,1.39,1.39,1.39h50.43
			c0.76,0,1.39-0.62,1.39-1.39v-32.25C-61.05-357.54-61.68-358.17-62.44-358.17z M-63.97-326.29c0,0.68-0.56,1.24-1.24,1.24h-44.9
			c-0.68,0-1.24-0.56-1.24-1.24v-28.72c0-0.68,0.56-1.24,1.24-1.24h44.9c0.68,0,1.24,0.56,1.24,1.24V-326.29z"/>
		<path class="st0" d="M-60.83-321.33c-0.12-0.65-0.77-1.18-1.42-1.18h-50.81c-0.66,0-1.3,0.53-1.42,1.18l-4.54,23.69
			c-0.12,0.65,0.31,1.18,0.97,1.18h60.8c0.66,0,1.09-0.53,0.97-1.18L-60.83-321.33z M-94.4-303.46h13.49c0.79,0,1.44,0.64,1.44,1.44
			c0,0.79-0.64,1.44-1.44,1.44H-94.4c-0.79,0-1.44-0.65-1.44-1.44C-95.84-302.82-95.19-303.46-94.4-303.46z M-59.24-297.96h-56.83
			c-0.38,0-0.69-0.31-0.69-0.69c0-0.38,0.31-0.69,0.69-0.69h56.83c0.38,0,0.69,0.31,0.69,0.69
			C-58.55-298.27-58.86-297.96-59.24-297.96z"/>
	</g>
	<g>
		<path class="st0" d="M-81.59-341.98h-12.14c-0.84,0-1.52,0.68-1.52,1.52v10.19c0,0.84,0.68,1.52,1.52,1.52h12.14
			c0.84,0,1.52-0.68,1.52-1.52v-10.19C-80.07-341.3-80.75-341.98-81.59-341.98z M-86.73-334.96v3.58c0,0.29-0.42,0.52-0.93,0.52
			c-0.51,0-0.93-0.23-0.93-0.52v-3.58c-0.84-0.36-1.42-1.19-1.42-2.16c0-1.3,1.05-2.35,2.35-2.35c1.3,0,2.35,1.05,2.35,2.35
			C-85.31-336.15-85.89-335.32-86.73-334.96z"/>
		<path class="st0" d="M-87.66-350.48c2.69,0,4.95,2.81,4.95,6.14v1.14c0,0.5,0.41,0.91,0.91,0.91h0.81c0.5,0,0.91-0.41,0.91-0.91
			v-1.14c0-4.82-3.41-8.77-7.58-8.77c-4.17,0-7.58,3.95-7.58,8.77v1.14c0,0.5,0.41,0.91,0.91,0.91h0.81c0.5,0,0.91-0.41,0.91-0.91
			v-1.14C-92.61-347.66-90.34-350.48-87.66-350.48z"/>
	</g>
</g>
<path class="st0" d="M-184.64-62.9l-11.18-17.67c-0.53-0.83-0.4-2.08,0.2-2.86c4.88-6.32,5.57-15.27,1.05-22.42
	c-5.77-9.13-17.86-11.85-26.99-6.07c-9.13,5.78-11.85,17.86-6.07,26.98c4.52,7.14,12.9,10.36,20.7,8.66
	c0.96-0.21,2.14,0.21,2.67,1.04l11.18,17.68c0.53,0.83,1.62,1.08,2.45,0.55l5.44-3.44C-184.36-60.97-184.12-62.07-184.64-62.9z
	 M-204.43-84.46c-5.98,3.78-13.89,2-17.66-3.97c-3.78-5.98-2-13.88,3.98-17.66c5.97-3.78,13.88-2,17.66,3.97
	C-196.68-96.15-198.46-88.24-204.43-84.46z M-189.43-61.13c-0.64,0.4-1.37,0.38-1.65-0.06l-3.82-6.04
	c-0.28-0.44,0.01-1.11,0.65-1.52c0.64-0.4,1.38-0.38,1.65,0.06l3.82,6.04C-188.5-62.21-188.8-61.53-189.43-61.13z"/>
<g>
	<path class="st0" d="M62,35.93v-9.86h-6.17c-0.66-3.33-1.97-6.42-3.79-9.14l4.36-4.36l-6.97-6.97l-4.36,4.36
		c-2.72-1.82-5.81-3.13-9.14-3.79V0h-9.86v6.17c-3.33,0.66-6.42,1.96-9.14,3.79l-4.36-4.36l-6.97,6.97l4.36,4.36
		c-1.82,2.72-3.13,5.81-3.79,9.14H0v9.86h6.17c0.66,3.33,1.96,6.42,3.79,9.14l-4.36,4.36l6.97,6.97l4.36-4.36
		c2.72,1.82,5.81,3.13,9.14,3.78V62h9.86v-6.17c3.33-0.66,6.42-1.96,9.14-3.78l4.36,4.36l6.97-6.97l-4.36-4.36
		c1.82-2.72,3.13-5.81,3.79-9.14H62z M31,45.23c-7.86,0-14.24-6.37-14.24-14.23c0-7.86,6.37-14.23,14.24-14.23
		c7.86,0,14.23,6.37,14.23,14.23C45.23,38.86,38.86,45.23,31,45.23z"/>
	<path class="st0" d="M31,38.94c0.95,0,1.71-0.43,1.71-0.95v-6.6c1.55-0.67,2.62-2.2,2.62-3.98c0-2.4-1.94-4.34-4.34-4.34
		c-2.39,0-4.34,1.94-4.34,4.34c0,1.78,1.08,3.32,2.62,3.98v6.6C29.29,38.51,30.05,38.94,31,38.94z"/>
</g>
<g>
	<path class="st0" d="M57.65-224.8v-2.23H29.59v-0.64c0-2.13-1.72-3.86-3.85-3.86H6.55c-2.13,0-3.85,1.72-3.85,3.86v0.64H-3.1v42.01
		l7.78-39.77H57.65z"/>
	<path class="st0" d="M31.52-201.81c-1.3,0-2.35,1.05-2.35,2.35c0,0.97,0.59,1.8,1.42,2.16v3.58c0,0.29,0.41,0.52,0.93,0.52
		c0.51,0,0.93-0.23,0.93-0.52v-3.58c0.84-0.36,1.42-1.19,1.42-2.16C33.87-200.76,32.82-201.81,31.52-201.81z"/>
	<path class="st0" d="M57.65-223.1H6.08l-8.15,41.65h59.02l0.7-3.57l7.45-38.08H57.65z M39.1-192.62c0,0.84-0.68,1.52-1.52,1.52
		H25.45c-0.84,0-1.52-0.68-1.52-1.52v-10.19c0-0.84,0.68-1.52,1.52-1.52h12.14c0.84,0,1.52,0.68,1.52,1.52V-192.62z M39.1-205.54
		c0,0.5-0.41,0.91-0.91,0.91h-0.81c-0.5,0-0.91-0.41-0.91-0.91v-1.14c0-3.33-2.27-6.14-4.95-6.14c-2.68,0-4.95,2.81-4.95,6.14v1.14
		c0,0.5-0.41,0.91-0.91,0.91h-0.81c-0.5,0-0.91-0.41-0.91-0.91v-1.14c0-4.82,3.41-8.77,7.58-8.77c4.17,0,7.58,3.95,7.58,8.77
		V-205.54z"/>
</g>
<g>
	<g>
		<g>
			<path class="st0" d="M-62.44-237.35h-50.43c-0.76,0-1.39,0.62-1.39,1.39v32.25c0,0.77,0.63,1.39,1.39,1.39h50.43
				c0.76,0,1.39-0.62,1.39-1.39v-32.25C-61.05-236.72-61.68-237.35-62.44-237.35z M-63.97-205.47c0,0.68-0.56,1.24-1.24,1.24h-44.9
				c-0.68,0-1.24-0.56-1.24-1.24v-28.72c0-0.68,0.56-1.24,1.24-1.24h44.9c0.68,0,1.24,0.56,1.24,1.24V-205.47z"/>
			<path class="st0" d="M-60.83-200.51c-0.12-0.64-0.77-1.18-1.42-1.18h-50.81c-0.66,0-1.3,0.53-1.42,1.18l-4.54,23.69
				c-0.12,0.65,0.31,1.18,0.97,1.18h60.8c0.66,0,1.09-0.53,0.97-1.18L-60.83-200.51z M-94.4-182.64h13.49
				c0.79,0,1.44,0.64,1.44,1.44c0,0.79-0.64,1.44-1.44,1.44H-94.4c-0.79,0-1.44-0.65-1.44-1.44C-95.84-182-95.19-182.64-94.4-182.64
				z M-59.24-177.15h-56.83c-0.38,0-0.69-0.31-0.69-0.69c0-0.38,0.31-0.69,0.69-0.69h56.83c0.38,0,0.69,0.31,0.69,0.69
				C-58.55-177.45-58.86-177.15-59.24-177.15z"/>
		</g>
	</g>
	<g>
		<path class="st0" d="M-87.66-209.68l-1.3-1.31c-0.29-0.29-7-7.09-7-13.05c0-0.51,0.03-1.01,0.08-1.5l0.19-1.84l1.83,0.2
			c0.02,0,0.1,0.01,0.22,0.01c0.8,0,2.85-0.19,4.7-1.96l1.3-1.25l0.42,0.42l0.87,0.83c1.84,1.77,3.9,1.96,4.7,1.96
			c0.13,0,0.21-0.01,0.23-0.01l1.81-0.17l0.2,1.81c0.05,0.49,0.08,1,0.08,1.5c0,5.96-6.72,12.76-7,13.05L-87.66-209.68z
			 M-94.6-226.02l-0.06,0.61c-0.05,0.45-0.07,0.91-0.07,1.37c0,5.46,6.37,11.91,6.64,12.18l0.43,0.44l0.43-0.44
			c0.27-0.27,6.64-6.72,6.64-12.18c0-0.47-0.02-0.93-0.07-1.37l-0.07-0.6l-0.64,0.06c-0.05,0-0.15,0.01-0.31,0.01
			c-0.95,0-3.38-0.22-5.55-2.3l-0.44-0.43l-0.01,0.01l0,0l-0.44,0.42c-2.17,2.08-4.6,2.3-5.55,2.3c-0.15,0-0.25-0.01-0.3-0.01
			l-0.04,0L-94.6-226.02z"/>
		<path class="st0" d="M-81.26-225.34c0,0-3.43,0.37-6.38-2.46c-0.01,0.01-0.01,0.01-0.02,0.02c-0.01-0.01-0.01-0.01-0.02-0.02
			c-2.95,2.82-6.38,2.46-6.38,2.46c-0.04,0.41-0.07,0.85-0.07,1.31c0,5.27,6.47,11.75,6.47,11.75s6.47-6.48,6.47-11.75
			C-81.19-224.49-81.21-224.93-81.26-225.34z"/>
	</g>
</g>
<g>
	<path class="st0" d="M-207.52-175.14l-3.95-3.96c-0.87-0.87-21.23-21.47-21.23-39.54c0-1.54,0.08-3.07,0.23-4.55l0.58-5.57
		l5.54,0.59c0.07,0,0.31,0.02,0.67,0.02c2.42,0,8.65-0.58,14.24-5.94l3.95-3.78l1.27,1.26l2.63,2.52
		c5.59,5.36,11.82,5.94,14.24,5.94c0.4,0,0.65-0.02,0.7-0.02l5.48-0.51l0.61,5.48c0.15,1.49,0.23,3.02,0.23,4.56
		c0,18.07-20.36,38.67-21.23,39.54L-207.52-175.14z M-228.57-224.65l-0.19,1.86c-0.14,1.35-0.21,2.75-0.21,4.16
		c0,16.54,19.32,36.09,20.14,36.91l1.32,1.32l1.32-1.32c0.82-0.82,20.14-20.37,20.14-36.91c0-1.41-0.07-2.81-0.21-4.16l-0.2-1.83
		l-1.95,0.18c-0.14,0.01-0.46,0.03-0.93,0.03c-2.87,0-10.25-0.68-16.81-6.97l-1.35-1.29l-0.03,0.03l0,0l-1.32,1.27
		c-6.57,6.29-13.95,6.97-16.81,6.97c-0.45,0-0.77-0.02-0.9-0.03l-0.13-0.01L-228.57-224.65z"/>
	<path class="st0" d="M-188.12-222.6c0,0-10.4,1.12-19.33-7.44c-0.02,0.02-0.04,0.04-0.06,0.05c-0.02-0.02-0.04-0.04-0.06-0.05
		c-8.93,8.56-19.33,7.44-19.33,7.44c-0.13,1.25-0.2,2.57-0.2,3.97c0,15.96,19.6,35.6,19.6,35.6s19.6-19.64,19.6-35.6
		C-187.92-220.03-187.99-221.35-188.12-222.6z M-197.32-201.21l-1.41,1.41l-8.78-8.78l-8.78,8.78l-1.41-1.41l8.78-8.78l-8.78-8.78
		l1.41-1.41l8.78,8.78l8.78-8.78l1.41,1.41l-8.78,8.78L-197.32-201.21z"/>
</g>
<path class="st0" d="M-478.04-89.01c1.69-15.27,14.63-27.15,30.35-27.15c15.72,0,28.66,11.88,30.35,27.15
	c0.2,1.86,0.26,1.75-0.73,0.17c-1.08-1.73-3-2.89-5.19-2.89c-2.19,0-4.11,1.15-5.19,2.89c-0.99,1.59-0.84,1.59-1.83,0
	c-1.08-1.73-3-2.89-5.19-2.89c-2.19,0-4.11,1.15-5.19,2.89c-0.99,1.59-0.84,1.59-1.83,0c-0.96-1.55-2.61-2.63-4.51-2.84v30.4
	c0,3.18-2.59,5.77-5.77,5.77c-3.18,0-5.77-2.59-5.77-5.77h1.36c0,2.43,1.98,4.41,4.41,4.41c2.43,0,4.41-1.98,4.41-4.41v-30.4
	c-1.91,0.21-3.55,1.29-4.51,2.84c-0.99,1.59-0.84,1.59-1.83,0c-1.08-1.73-3-2.89-5.19-2.89c-2.19,0-4.11,1.15-5.19,2.89
	c-0.99,1.59-0.85,1.59-1.83,0c-1.08-1.73-3-2.89-5.19-2.89c-2.19,0-4.11,1.15-5.19,2.89C-478.29-87.25-478.24-87.15-478.04-89.01z"
	/>
<g>
	<g>
		<path class="st0" d="M-328.77-187.96c-19.34,0-34.66-16.66-35.31-17.37l-1.06-1.17l1.06-1.17c0.64-0.71,15.97-17.37,35.31-17.37
			c19.34,0,34.66,16.66,35.31,17.37l1.06,1.17l-1.06,1.17C-294.1-204.62-309.43-187.96-328.77-187.96z M-360.36-206.5
			c3.81,3.72,16.65,15.07,31.59,15.07c14.94,0,27.78-11.34,31.59-15.06c-3.81-3.72-16.65-15.06-31.59-15.06
			C-343.73-221.56-356.55-210.22-360.36-206.5z"/>
	</g>
	<g>
		<path class="st0" d="M-328.77-192.08c-7.95,0-14.42-6.47-14.42-14.42c0-7.95,6.47-14.42,14.42-14.42
			c7.95,0,14.42,6.47,14.42,14.42C-314.35-198.55-320.82-192.08-328.77-192.08z M-328.77-218.22c-6.46,0-11.72,5.26-11.72,11.72
			s5.26,11.72,11.72,11.72c6.46,0,11.72-5.26,11.72-11.72S-322.3-218.22-328.77-218.22z"/>
	</g>
	<path class="st0" d="M-319.26-206.5c0,5.25-4.26,9.51-9.51,9.51c-5.25,0-9.51-4.26-9.51-9.51c0-5.25,4.26-9.51,9.51-9.51
		C-323.51-216.01-319.26-211.75-319.26-206.5z"/>
</g>
<g>
	<polygon class="st0" points="-107.04,15.22 -96.76,29.33 -94.68,27.11 -104.62,13.46 -104.65,8.52 -111.94,2.86 -114.87,5 
		-111.73,13.67 	"/>
	<path class="st0" d="M-83.77,36.58l-6.6,7.04l10.74,14.75c0.97,1.34,3.04,2.35,4.59,2.25c1.55-0.1,3.27-1.36,3.83-2.79
		c0.56-1.43,0.21-3.69-0.76-5.03L-83.77,36.58z M-74.32,57.61c-1.01,0.73-2.42,0.51-3.15-0.5c-0.73-1.01-0.51-2.42,0.5-3.15
		c1.01-0.73,2.42-0.51,3.15,0.5C-73.09,55.46-73.31,56.87-74.32,57.61z"/>
	<path class="st0" d="M-60.44,9.2l-9.62,9.62l-6.68-6.68l9.62-9.62c-1.71-0.76-3.54-1.14-5.37-1.14c-3.37,0-6.73,1.28-9.3,3.85
		c-3.83,3.83-4.81,9.45-2.93,14.19l-8.77,9.34l-2.08,2.22l-19.56,20.85c-1.5,1.5-1.07,4.37,0.97,6.41c1.22,1.22,2.74,1.86,4.08,1.86
		c0.9,0,1.72-0.29,2.33-0.89l16.18-17.24l6.6-7.04l7.64-8.14c1.56,0.62,3.22,0.93,4.87,0.93c3.37,0,6.74-1.28,9.31-3.86
		C-59.18,19.9-58.29,14.04-60.44,9.2z M-107.95,55.14c-0.43,0.43-0.99,0.64-1.55,0.64c-0.56,0-1.12-0.21-1.55-0.64
		c-0.86-0.86-0.86-2.25,0-3.11c0.43-0.43,0.99-0.64,1.55-0.64c0.56,0,1.12,0.21,1.55,0.64C-107.1,52.89-107.1,54.29-107.95,55.14z"
		/>
</g>
<g>
	<g>
		<path class="st0" d="M-416.16-179.19h-63.06l31.53-54.61L-416.16-179.19z M-474.22-182.08h53.07l-26.53-45.96L-474.22-182.08z"/>
	</g>
	<g>
		<path class="st0" d="M-446.02-194.44c-0.07,0.65-0.67,1.18-1.32,1.18h-0.69c-0.65,0-1.25-0.53-1.32-1.18l-2.11-18.91
			c-0.07-0.65,0.4-1.18,1.06-1.18h5.44c0.65,0,1.13,0.53,1.06,1.18L-446.02-194.44z"/>
		<path class="st0" d="M-444.95-188.62c0,1.51-1.22,2.74-2.74,2.74c-1.51,0-2.74-1.22-2.74-2.74c0-1.51,1.22-2.74,2.74-2.74
			C-446.17-191.36-444.95-190.14-444.95-188.62z"/>
	</g>
</g>
<g>
	<path class="st0" d="M-207.52,59.7c-15.83,0-28.7-12.88-28.7-28.7s12.88-28.7,28.7-28.7c15.83,0,28.7,12.88,28.7,28.7
		S-191.69,59.7-207.52,59.7z M-207.52,6.21c-13.67,0-24.79,11.12-24.79,24.79s11.12,24.79,24.79,24.79
		c13.67,0,24.79-11.12,24.79-24.79S-193.85,6.21-207.52,6.21z"/>
	<rect x="-220.11" y="26.5" class="st0" width="25.18" height="9"/>
</g>
<path class="st0" d="M58.95-96.32c-3.02-8.06-9.42-14.45-17.48-17.47c-0.28-0.11-0.56-0.23-0.84-0.33c-3.02-1.03-6.26-1.6-9.63-1.6
	s-6.61,0.57-9.63,1.6c-0.29,0.1-0.56,0.22-0.84,0.33c-8.06,3.02-14.46,9.42-17.48,17.47c-0.04,0.1-0.07,0.2-0.1,0.3l0,0l-0.03,0.09
	c-1.14,3.15-1.78,6.54-1.78,10.09c0,3.69,0.67,7.22,1.9,10.48c3.02,8.06,9.43,14.47,17.49,17.49c3.26,1.22,6.79,1.9,10.48,1.9
	c3.69,0,7.22-0.67,10.48-1.9c8.06-3.02,14.47-9.43,17.49-17.49c1.22-3.26,1.9-6.79,1.9-10.48C60.87-89.53,60.18-93.05,58.95-96.32z
	 M57.25-75.95c-2.85,7.52-8.83,13.51-16.36,16.36c-0.09,0.03-0.17,0.07-0.26,0.1l-4.53-12.1c0.21-0.08,0.42-0.15,0.63-0.23
	c3.75-1.54,6.76-4.54,8.29-8.3c0.09-0.21,0.16-0.43,0.24-0.65l12.08,4.57C57.32-76.11,57.28-76.03,57.25-75.95z M4.62-76.27
	l12.15-4.39c0.07,0.18,0.13,0.37,0.2,0.55c1.54,3.75,4.54,6.76,8.29,8.29c0.21,0.08,0.42,0.16,0.63,0.23l-4.53,12.1
	c-0.09-0.03-0.18-0.07-0.26-0.1c-7.52-2.85-13.51-8.83-16.36-16.36C4.71-76.05,4.66-76.16,4.62-76.27z M4.76-95.73
	c2.8-7.42,8.66-13.45,16.35-16.34c0.1-0.04,0.2-0.08,0.3-0.11l4.45,12.1c-0.2,0.07-0.39,0.15-0.59,0.23
	c-3.83,1.56-6.79,4.58-8.3,8.28c-0.07,0.18-0.14,0.37-0.2,0.55L4.64-95.41C4.68-95.51,4.72-95.62,4.76-95.73z M57.33-95.48
	l-12.06,4.56c-0.08-0.22-0.15-0.44-0.24-0.65c-1.52-3.7-4.47-6.72-8.3-8.28c-0.19-0.08-0.39-0.16-0.59-0.23l4.45-12.1
	c0.1,0.04,0.2,0.08,0.29,0.11c7.68,2.89,13.55,8.93,16.35,16.34C57.27-95.65,57.3-95.56,57.33-95.48z M35.3-73.21
	c-1.35,0.46-2.8,0.72-4.3,0.72c-1.51,0-2.95-0.26-4.3-0.72c-0.29-0.1-0.57-0.19-0.85-0.31c-3.23-1.35-5.82-3.94-7.17-7.17
	c-0.12-0.28-0.21-0.56-0.31-0.85c-0.02-0.06-0.05-0.12-0.07-0.18c-0.07-0.23-0.13-0.47-0.2-0.71c-0.04-0.14-0.07-0.27-0.1-0.41
	c-0.05-0.24-0.1-0.48-0.14-0.72c-0.03-0.16-0.05-0.31-0.07-0.47c-0.03-0.22-0.06-0.45-0.08-0.67c-0.02-0.23-0.03-0.46-0.04-0.69
	c0-0.15-0.02-0.3-0.02-0.45c0-1.32,0.2-2.64,0.59-3.92c0.04-0.11,0.06-0.23,0.1-0.34c0-0.01,0.01-0.03,0.01-0.04
	c0.1-0.29,0.2-0.57,0.32-0.85c1.35-3.23,3.94-5.8,7.17-7.15c0.28-0.12,0.56-0.23,0.84-0.32c1.35-0.46,2.79-0.72,4.3-0.72
	c1.51,0,2.95,0.26,4.3,0.72c0.29,0.1,0.57,0.21,0.84,0.32c3.23,1.35,5.82,3.93,7.17,7.15c0.12,0.28,0.22,0.56,0.32,0.85
	c0.46,1.35,0.71,2.8,0.71,4.3c0,1.51-0.26,2.95-0.72,4.3c-0.1,0.29-0.19,0.57-0.31,0.85c-1.35,3.23-3.94,5.82-7.17,7.17
	C35.87-73.41,35.59-73.31,35.3-73.21z"/>
<path class="st0" d="M-128.41-104.09v36.5h81.5v-36.5H-128.41z M-108.63-85.51h-4.83l3.42,3.42l-1.41,1.41l-3.42-3.42v4.84h-2v-4.84
	l-3.42,3.42l-1.41-1.41l3.42-3.42h-4.84v-2h4.84l-3.42-3.42l1.41-1.41l3.42,3.42v-4.83h2v4.84l3.42-3.42l1.41,1.41l-3.42,3.42h4.84
	V-85.51z M-90.05-85.51h-4.83l3.42,3.42l-1.41,1.41l-3.42-3.42v4.84h-2v-4.84l-3.42,3.42l-1.41-1.41l3.42-3.42h-4.84v-2h4.84
	l-3.42-3.42l1.41-1.41l3.42,3.42v-4.83h2v4.84l3.42-3.42l1.41,1.41l-3.42,3.42h4.84V-85.51z M-71.46-85.51h-4.83l3.42,3.42
	l-1.41,1.41l-3.42-3.42v4.84h-2v-4.84l-3.42,3.42l-1.41-1.41l3.42-3.42h-4.84v-2h4.84l-3.42-3.42l1.41-1.41l3.42,3.42v-4.83h2v4.84
	l3.42-3.42l1.41,1.41l-3.42,3.42h4.84V-85.51z M-52.88-79.68h-14.5v-2h14.5V-79.68z"/>
<g>
	<path class="st0" d="M59.57-298.63H2.43V-356h57.15V-298.63z M5.78-301.99h50.43v-50.65H5.78V-301.99z"/>
	<path class="st0" d="M9.4-349.11v43.6h43.2v-43.6H9.4z M20.63-336.96h3.68v3.68h-3.68V-336.96z M20.63-331.86h3.68v3.68h-3.68
		V-331.86z M20.63-326.75h3.68v3.68h-3.68V-326.75z M26.86-310.69c-2.2,0-3.99-1.79-3.99-3.99c0-2.2,1.78-3.99,3.99-3.99
		c1.43,0,2.67,0.76,3.38,1.89H27.7c-1.16,0-2.1,0.94-2.1,2.1s0.94,2.1,2.1,2.1h2.54C29.53-311.45,28.29-310.69,26.86-310.69z
		 M30-331.86v3.68h-3.68v-3.68H30z M26.32-333.28v-3.68H30v3.68H26.32z M30-326.75v3.68h-3.68v-3.68H30z M35.68-331.86v3.68H32
		v-3.68H35.68z M32-333.28v-3.68h3.68v3.68H32z M35.68-326.75v3.68H32v-3.68H35.68z M38.71-313.42h-8.08H27.7
		c-0.69,0-1.26-0.56-1.26-1.26c0-0.69,0.57-1.26,1.26-1.26h2.93h8.08c0.69,0,1.26,0.56,1.26,1.26
		C39.97-313.98,39.4-313.42,38.71-313.42z M41.37-323.07h-3.68v-3.68h3.68V-323.07z M41.37-328.17h-3.68v-3.68h3.68V-328.17z
		 M41.37-333.28h-3.68v-3.68h3.68V-333.28z M41.37-339.22H20.63v-4.61h20.74V-339.22z"/>
</g>
<path class="st0" d="M-308.11-101.52c-6.49,0-11.98,4.28-13.8,10.18h-41.96v6.52v2.03v12.63h6.61V-82.8h4.38v7.03h6.61v-7.03h3.67
	v9.18h6.61v-9.18h14.08c1.82,5.89,7.31,10.17,13.8,10.17c7.98,0,14.45-6.47,14.45-14.45C-293.66-95.05-300.13-101.52-308.11-101.52z
	 M-308.11-80.96c-3.38,0-6.11-2.74-6.11-6.11c0-3.38,2.74-6.11,6.11-6.11c3.38,0,6.11,2.74,6.11,6.11
	C-302-83.7-304.73-80.96-308.11-80.96z"/>
<g>
	<path class="st0" d="M-337.26,14.43c0.12,1.95,0.14,2,0.14,2c0.69,2.2,1.44,4.45,1.67,5c0,0,0,0,0.21,0.5
		c0.1,0.26,0.21,0.51,0.32,0.77c0.11,0.26,0.25,0.5,0.38,0.76c0.53,1,1.02,2.03,1.64,3.02c0.6,1,1.21,2.01,1.91,3.01
		c0.34,0.5,0.34,0.5,0.34,0.5c0.38,0.55,0.77,1.11,0.87,1.24c0.1,0.13,0.48,0.64,0.63,0.83c0.15,0.2,0.59,0.77,0.99,1.29
		c0.39,0.51,1.54,2.01,1.67,2.19c0.14,0.18,0.35,0.47,0.47,0.66c0.12,0.18,0.32,0.48,0.45,0.66c0.12,0.18,0.28,0.42,0.35,0.55
		c0.07,0.12,0.33,0.54,0.4,0.66c0.07,0.12,0.31,0.54,0.37,0.66c0.06,0.12,0.33,0.64,0.46,0.89c0,0,0,0,0.11,0.22
		c0.12,0.22,0.19,0.45,0.29,0.67c0.1,0.22,0.2,0.44,0.29,0.67c0.09,0.22,0.16,0.44,0.23,0.66c0.08,0.22,0.08,0.22,0.08,0.22
		c0.09,0.25,0.21,0.65,0.27,0.89c0,0,0,0,0.06,0.22c0.48,1.78,0.66,3.53,0.6,5.21c-0.05,1.67-0.37,3.27-0.81,4.74
		c-0.43,1.47-1,2.82-1.61,4c-0.59,1.19-1.22,2.21-1.77,3.05c-0.56,0.84-1.04,1.49-1.39,1.93c-0.35,0.44-0.35,0.44-0.35,0.44
		c-0.11,0.13-0.12,0.27-0.04,0.33c0.09,0.05,0.31,0.02,0.5-0.07c0,0,0,0,0.58-0.33c0.58-0.34,1.4-0.86,2.36-1.58
		c0.96-0.72,2.05-1.64,3.17-2.77c1.1-1.14,2.22-2.49,3.19-4.05c0.63-1.01,0.63-1.01,0.63-1.01c0.55-1.26,0.83-1.7,0.6-0.96
		c0,0,0,0-0.26,0.62c-0.43,1.05-0.96,2.01-1.48,2.85c-0.52,0.85-1.05,1.58-1.51,2.18c-0.47,0.61-0.87,1.07-1.14,1.39
		c-0.29,0.32-0.29,0.32-0.29,0.32c-0.08,0.09-0.09,0.22-0.01,0.28c0.08,0.06,0.27,0.06,0.43,0.01c0,0,0,0,0.49-0.2
		c0.5-0.2,1.21-0.51,2.05-0.97c0.85-0.45,1.82-1.05,2.85-1.8c1.02-0.76,2.08-1.68,3.07-2.78c0.98-1.1,1.88-2.37,2.54-3.8
		c0.67-1.43,1.09-3.01,1.18-4.66c0.01-0.21,0.01-0.21,0.01-0.21c0.01-0.23,0.01-0.5,0.01-0.62c0-0.12-0.04-0.8-0.07-1.26
		c0,0,0,0-0.05-0.42c-0.05-0.43-0.15-0.84-0.25-1.27c-0.09-0.43-0.09-0.43-0.09-0.43c-0.16-0.46-0.35-1.02-0.44-1.25
		c-0.08-0.23-0.4-0.97-0.47-1.14c-0.07-0.17-0.21-0.45-0.3-0.61c-0.09-0.17-0.24-0.44-0.33-0.61c-0.09-0.17-0.17-0.32-0.19-0.35
		c-0.01-0.02-0.03-0.05-0.03-0.06c-0.01-0.01-0.01-0.02-0.01-0.02c0,0-0.01-0.03-0.04-0.06c-0.02-0.04-0.07-0.13-0.12-0.2
		c-0.04-0.08-0.22-0.38-0.4-0.68c-0.17-0.3-0.39-0.67-0.48-0.82c-0.09-0.15-0.25-0.44-0.37-0.64c0,0,0,0-0.09-0.17
		c-0.17-0.35-0.38-0.7-0.57-1.04c-0.19-0.34-0.19-0.34-0.19-0.34c-0.21-0.38-0.53-1.01-0.72-1.39c0,0,0,0-0.18-0.34
		c-0.38-0.7-0.66-1.39-0.98-2.07c-0.08-0.17-0.08-0.17-0.08-0.17c-0.08-0.19-0.21-0.49-0.29-0.67c0,0,0,0-0.06-0.17
		c-0.14-0.34-0.27-0.67-0.4-1c-0.12-0.33-0.12-0.33-0.12-0.33c-0.11-0.36-0.31-0.95-0.45-1.31c0,0,0,0-0.06-0.32
		c-0.14-0.64-0.34-1.27-0.41-1.87c-0.04-0.3-0.04-0.3-0.04-0.3c-0.05-0.33-0.1-0.73-0.11-0.89c-0.01-0.16-0.04-0.71-0.04-0.87
		c0-0.16,0-0.81,0-1.12c0,0,0,0,0.04-0.27c0.04-0.27,0.08-0.53,0.11-0.79c0.02-0.12,0.02-0.12,0.02-0.12
		c0.02-0.14,0.06-0.37,0.1-0.51c0,0,0,0,0.03-0.12c0.06-0.25,0.06-0.25,0.06-0.25c0.07-0.26,0.19-0.68,0.28-0.93c0,0,0,0,0.08-0.22
		c0.08-0.22,0.15-0.44,0.24-0.64c0.09-0.21,0.18-0.41,0.27-0.6c0.09-0.19,0.09-0.19,0.09-0.19c0.09-0.2,0.25-0.52,0.35-0.7
		c0,0,0,0,0.09-0.16c0.18-0.32,0.32-0.61,0.47-0.86c0.15-0.24,0.28-0.45,0.39-0.62c0.2-0.35,0.2-0.35,0.2-0.35
		c0.06-0.1,0.03-0.22-0.06-0.27c-0.1-0.05-0.22-0.05-0.29-0.02c-0.06,0.04-0.75,0.45-1,0.61c0,0,0,0-0.3,0.19
		c-0.3,0.19-0.61,0.43-0.97,0.7c-0.18,0.14-0.18,0.14-0.18,0.14c-0.21,0.16-0.55,0.44-0.75,0.61c0,0,0,0-0.2,0.17
		c-0.2,0.18-0.2,0.18-0.2,0.18c-0.23,0.2-0.59,0.55-0.8,0.78c0,0,0,0-0.2,0.22c-0.2,0.22-0.2,0.22-0.2,0.22
		c-0.23,0.25-0.5,0.58-0.6,0.71c-0.1,0.14-0.53,0.76-0.72,1.06c-0.19,0.3-0.81,1.43-0.96,1.78c0,0,0,0-0.13,0.32
		c-0.12,0.33-0.12,0.33-0.12,0.33c-0.12,0.37-0.31,0.98-0.41,1.36c0,0,0,0-0.09,0.35c-0.09,0.36-0.1,0.71-0.16,1.08
		c-0.21,1.47-0.21,1.47-0.21,1.47c0.19,1.7,0.38,3.25,0.42,3.44c0.04,0.19,0,0.5-0.18,0.27c0,0,0,0-0.14-0.2
		c-0.32-0.46-0.67-0.91-1.01-1.37c-0.33-0.45-0.7-0.9-1-1.36c-0.31-0.46-0.63-0.92-0.94-1.38c-1.29-1.83-2.36-3.65-3.34-5.42
		c-0.24-0.45-0.42-0.89-0.65-1.33c-0.11-0.22-0.11-0.22-0.11-0.22c-0.12-0.24-0.25-0.51-0.29-0.6c-0.04-0.09-0.11-0.24-0.14-0.33
		c-0.04-0.09-0.22-0.55-0.42-1.02c-0.2-0.47-0.61-1.88-0.68-2.11c0,0,0,0-0.06-0.2c-0.06-0.21-0.06-0.21-0.06-0.21
		c-0.05-0.22-0.13-0.59-0.18-0.82c-0.04-0.22-0.18-0.98-0.21-1.2c-0.03-0.22-0.13-1.12-0.18-1.54c0,0,0,0,0.01-0.37
		c0.01-0.38,0.01-0.38,0.01-0.38c0.01-0.39,0.02-0.88,0.02-1.08c0,0,0,0,0.02-0.17c0.03-0.18,0.05-0.34,0.07-0.51
		c0.05-0.34,0.05-0.34,0.05-0.34c0.05-0.36,0.16-0.94,0.24-1.3c0,0,0,0,0.07-0.3c0.08-0.31,0.08-0.31,0.08-0.31
		c0.08-0.32,0.23-0.83,0.34-1.14c0,0,0,0,0.1-0.27c0.09-0.27,0.09-0.27,0.09-0.27c0.1-0.27,0.27-0.71,0.39-0.97c0,0,0,0,0.1-0.22
		c0.2-0.43,0.36-0.83,0.53-1.18c0.18-0.34,0.18-0.34,0.18-0.34c0.15-0.28,0.35-0.68,0.45-0.88c0.1-0.2,0.1-0.4,0-0.44
		c-0.1-0.04-0.3,0.03-0.44,0.14c0,0,0,0-0.47,0.39c-0.23,0.2-0.52,0.46-0.85,0.75c-0.33,0.3-0.66,0.66-1.05,1.06
		c-0.2,0.21-0.2,0.21-0.2,0.21c-0.23,0.24-0.59,0.65-0.8,0.92c0,0,0,0-0.2,0.26c-0.2,0.26-0.2,0.26-0.2,0.26
		c-0.24,0.3-0.61,0.81-0.81,1.14c0,0,0,0-0.2,0.31c-0.19,0.31-0.19,0.31-0.19,0.31c-0.22,0.36-0.55,0.98-0.74,1.37
		c0,0,0,0-0.18,0.36c-0.09,0.19-0.17,0.37-0.26,0.56c-0.09,0.19-0.14,0.39-0.21,0.58c-0.13,0.4-0.26,0.81-0.39,1.22
		c-0.12,0.42-0.12,0.42-0.12,0.42c-0.08,0.48-0.18,1.07-0.23,1.31c-0.05,0.25-0.1,1.11-0.11,1.36c-0.01,0.25-0.04,1.15-0.04,1.41
		c0,0,0,0,0.02,0.24C-337.3,13.95-337.28,14.19-337.26,14.43z"/>
	<path class="st0" d="M-347.27,53.05c0.66,1.43,1.56,2.7,2.54,3.8c0.98,1.09,2.05,2.02,3.06,2.77c1.03,0.75,2.01,1.35,2.85,1.8
		c0.85,0.45,1.55,0.77,2.05,0.97c0.49,0.2,0.49,0.2,0.49,0.2c0.16,0.05,0.35,0.04,0.43-0.02c0.08-0.06,0.07-0.18-0.02-0.27
		c0,0,0,0-0.28-0.32c-0.28-0.33-0.68-0.79-1.14-1.39c-0.46-0.6-0.99-1.34-1.51-2.19c-0.53-0.85-1.05-1.8-1.48-2.85
		c-0.44-1.05-0.81-2.18-1-3.38c-0.2-1.19-0.25-2.44-0.08-3.72c0.02-0.16,0.02-0.16,0.02-0.16c0.02-0.18,0.05-0.39,0.06-0.48
		c0.02-0.09,0.09-0.47,0.11-0.64c0,0,0,0,0.05-0.17c0.04-0.16,0.04-0.16,0.04-0.16c0.05-0.18,0.13-0.47,0.18-0.65
		c0.05-0.18,0.31-0.95,0.43-1.31c0,0,0,0,0.14-0.33c0.07-0.16,0.07-0.16,0.07-0.16c0.07-0.18,0.19-0.44,0.25-0.57
		c0.06-0.14,0.17-0.35,0.24-0.49c0.06-0.13,0.18-0.36,0.25-0.49c0.08-0.13,0.32-0.57,0.54-0.96c0.22-0.39,0.87-1.56,0.95-1.71
		c0.08-0.15,0.24-0.44,0.36-0.64c0,0,0,0,0.1-0.2c0.2-0.39,0.38-0.78,0.57-1.17c0.38-0.79,0.7-1.56,1.01-2.34
		c0.32-0.77,0.54-1.57,0.79-2.35c0.14-0.38,0.22-0.78,0.3-1.17c0.08-0.39,0.08-0.39,0.08-0.39c0.09-0.43,0.32-2.17,0.51-3.87
		c0,0,0,0-0.21-1.47c-0.05-0.37-0.07-0.72-0.16-1.08c-0.09-0.35-0.09-0.35-0.09-0.35c-0.1-0.38-0.28-0.99-0.4-1.36
		c0,0,0,0-0.12-0.33c-0.13-0.32-0.25-0.64-0.41-0.94c-0.34-0.6-0.34-0.6-0.34-0.6c-0.38-0.61-0.77-1.22-0.87-1.36
		c-0.1-0.14-0.56-0.71-0.79-0.97c0,0,0,0-0.2-0.22c-0.21-0.22-0.21-0.22-0.21-0.22c-0.21-0.22-0.57-0.57-0.8-0.78c0,0,0,0-0.2-0.18
		c-0.19-0.17-0.19-0.17-0.19-0.17c-0.2-0.18-0.54-0.46-0.75-0.62c0,0,0,0-0.18-0.13c-0.36-0.26-0.67-0.51-0.97-0.7
		c-0.3-0.19-0.56-0.35-0.77-0.48c-0.43-0.26-0.43-0.26-0.43-0.26c-0.12-0.07-0.3-0.09-0.4-0.05c-0.09,0.05-0.12,0.17-0.06,0.27
		c0,0,0,0,0.21,0.35c0.1,0.17,0.23,0.38,0.39,0.63c0.15,0.25,0.29,0.54,0.47,0.85c0.09,0.16,0.09,0.16,0.09,0.16
		c0.1,0.19,0.26,0.5,0.35,0.7c0,0,0,0,0.09,0.19c0.09,0.19,0.09,0.19,0.09,0.19c0.1,0.22,0.25,0.59,0.34,0.83c0,0,0,0,0.08,0.22
		c0.08,0.21,0.08,0.21,0.08,0.21c0.09,0.25,0.21,0.67,0.28,0.94c0,0,0,0,0.06,0.24c0.03,0.12,0.06,0.25,0.09,0.37
		c0.03,0.13,0.03,0.26,0.06,0.39c0.04,0.26,0.08,0.52,0.12,0.78c0.04,0.27,0.02,0.54,0.04,0.82c0.01,0.28,0.01,0.28,0.01,0.28
		c0,0.31-0.01,0.7-0.03,0.86c-0.01,0.16-0.08,0.85-0.13,1.18c0,0,0,0-0.04,0.31c-0.07,0.61-0.27,1.23-0.41,1.87
		c-0.06,0.32-0.06,0.32-0.06,0.32c-0.13,0.36-0.33,0.95-0.45,1.3c0,0,0,0-0.12,0.33c-0.13,0.34-0.26,0.67-0.4,1.01
		c-0.07,0.17-0.07,0.17-0.07,0.17c-0.07,0.19-0.2,0.49-0.29,0.67c0,0,0,0-0.08,0.17c-0.32,0.68-0.59,1.37-0.98,2.07
		c-0.18,0.35-0.35,0.69-0.52,1.05c-0.16,0.35-0.38,0.69-0.56,1.04c-0.19,0.34-0.39,0.69-0.57,1.04c-0.09,0.17-0.09,0.17-0.09,0.17
		c-0.12,0.2-0.28,0.49-0.37,0.64c-0.09,0.15-0.3,0.52-0.48,0.82c-0.17,0.3-0.35,0.61-0.4,0.68c-0.04,0.07-0.1,0.17-0.12,0.2
		c-0.02,0.04-0.04,0.07-0.04,0.08c0,0,0,0,0.01-0.02c0.01-0.01-0.01,0.02-0.02,0.03c-0.01,0.01-0.02,0.04-0.03,0.06
		c-0.01,0.02-0.09,0.17-0.18,0.34c-0.09,0.17-0.24,0.44-0.33,0.61c-0.09,0.17-0.23,0.45-0.3,0.62c-0.08,0.17-0.22,0.5-0.32,0.72
		c-0.1,0.22-0.43,1.21-0.59,1.68c0,0,0,0-0.09,0.42c-0.1,0.42-0.1,0.42-0.1,0.42c-0.08,0.46-0.2,1.22-0.26,1.69c0,0,0,0-0.01,0.42
		c0,0.21,0,0.21,0,0.21c-0.01,0.23-0.01,0.6,0,0.83c0,0,0,0,0.01,0.2C-348.36,50.04-347.94,51.62-347.27,53.05z"/>
</g>
<g>
	
		<rect x="-484.61" y="32.06" transform="matrix(0.7071 -0.7071 0.7071 0.7071 -161.4401 -319.0594)" class="st0" width="37.5" height="6.56"/>
	
		<rect x="-462.82" y="28.01" transform="matrix(0.7071 -0.7071 0.7071 0.7071 -153.5429 -308.1029)" class="st0" width="28.27" height="6.56"/>
	
		<rect x="-479.69" y="9.56" transform="matrix(0.7071 -0.7071 0.7071 0.7071 -154.6544 -330.5952)" class="st0" width="6.56" height="23.67"/>
	
		<rect x="-422.25" y="28.77" transform="matrix(0.7071 -0.7071 0.7071 0.7071 -151.4241 -284.3582)" class="st0" width="6.56" height="23.67"/>
	
		<rect x="-450.26" y="24.75" transform="matrix(0.7071 -0.7071 0.7071 0.7071 -146.2064 -296.915)" class="st0" width="37.5" height="6.56"/>
</g>
</svg>
