<svg width="196" height="45" viewBox="0 0 196 45" fill="none" xmlns="http://www.w3.org/2000/svg">
<g filter="url(#filter0_d_478_1317)">
<path d="M181.799 36.5819L175.632 27.959L169.257 36.5819H160.373L171.19 22.4195L160.738 8.46609H169.884L175.841 16.6709L181.956 8.46609H190.631L180.179 22.2104L191.049 36.5819H181.799Z" fill="white"/>
<path d="M146.671 8.04803C151.026 8.04803 154.37 9.09323 156.705 11.1836C159.039 13.2392 160.206 16.3574 160.206 20.5381V36.5819H152.576V33.0805C151.043 35.6935 148.186 37 144.006 37C141.846 37 139.964 36.6342 138.362 35.9025C136.794 35.1709 135.592 34.1606 134.756 32.8715C133.919 31.5824 133.501 30.1191 133.501 28.4816C133.501 25.8687 134.477 23.8131 136.428 22.315C138.414 20.8169 141.462 20.0678 145.573 20.0678H152.054C152.054 18.291 151.514 16.9322 150.434 15.9915C149.354 15.016 147.733 14.5283 145.573 14.5283C144.075 14.5283 142.595 14.7721 141.131 15.2599C139.703 15.7128 138.483 16.3399 137.473 17.1413L134.547 11.4449C136.08 10.3649 137.909 9.52873 140.034 8.93645C142.194 8.34417 144.406 8.04803 146.671 8.04803ZM146.044 31.5127C147.437 31.5127 148.674 31.1992 149.754 30.572C150.834 29.9101 151.601 28.952 152.054 27.6977V24.8235H146.462C143.117 24.8235 141.445 25.9209 141.445 28.1158C141.445 29.161 141.846 29.9972 142.647 30.6243C143.483 31.2166 144.615 31.5127 146.044 31.5127Z" fill="white"/>
<path d="M122.941 36.5819L122.888 14.6328L112.123 32.7147H108.308L97.5946 15.1031V36.5819H89.6511V0H96.6539L110.346 22.733L123.829 0H130.78L130.884 36.5819H122.941Z" fill="white"/>
<path d="M70.9985 37C69.57 37 68.3681 36.5123 67.3925 35.5367C66.417 34.5612 65.9293 33.3418 65.9293 31.8786C65.9293 30.3804 66.417 29.1785 67.3925 28.2726C68.3681 27.3319 69.57 26.8616 70.9985 26.8616C72.4269 26.8616 73.6289 27.3319 74.6044 28.2726C75.5799 29.1785 76.0677 30.3804 76.0677 31.8786C76.0677 33.3418 75.5799 34.5612 74.6044 35.5367C73.6289 36.5123 72.4269 37 70.9985 37Z" fill="white"/>
<path d="M57.0267 36.5819L49.9716 26.3912H49.5535H42.1848V36.5819H33.7188V0H49.5535C52.7936 0 55.5982 0.540018 57.9673 1.62006C60.3713 2.70009 62.2178 4.23305 63.5069 6.21893C64.796 8.2048 65.4405 10.5565 65.4405 13.274C65.4405 15.9915 64.7785 18.3432 63.4546 20.3291C62.1655 22.2801 60.319 23.7782 57.9151 24.8234L66.1199 36.5819H57.0267ZM56.8699 13.274C56.8699 11.2185 56.2079 9.65066 54.884 8.57062C53.5601 7.45574 51.6265 6.8983 49.0832 6.8983H42.1848V19.6497H49.0832C51.6265 19.6497 53.5601 19.0923 54.884 17.9774C56.2079 16.8625 56.8699 15.2947 56.8699 13.274Z" fill="white"/>
<path d="M12.4661 6.79378V16.4619H29.3983V23.2556H12.4661V36.5819H4V0H31.6455V6.79378H12.4661Z" fill="white"/>
</g>
<defs>
<filter id="filter0_d_478_1317" x="0" y="0" width="195.049" height="45" filterUnits="userSpaceOnUse" color-interpolation-filters="sRGB">
<feFlood flood-opacity="0" result="BackgroundImageFix"/>
<feColorMatrix in="SourceAlpha" type="matrix" values="0 0 0 0 0 0 0 0 0 0 0 0 0 0 0 0 0 0 127 0" result="hardAlpha"/>
<feOffset dy="4"/>
<feGaussianBlur stdDeviation="2"/>
<feComposite in2="hardAlpha" operator="out"/>
<feColorMatrix type="matrix" values="0 0 0 0 0 0 0 0 0 0 0 0 0 0 0 0 0 0 0.25 0"/>
<feBlend mode="normal" in2="BackgroundImageFix" result="effect1_dropShadow_478_1317"/>
<feBlend mode="normal" in="SourceGraphic" in2="effect1_dropShadow_478_1317" result="shape"/>
</filter>
</defs>
</svg>
