<?xml version="1.0" encoding="utf-8"?>
<!-- Generator: Adobe Illustrator 25.4.0, SVG Export Plug-In . SVG Version: 6.00 Build 0)  -->
<svg version="1.1" id="_xF91C_迹_x5F_1" xmlns="http://www.w3.org/2000/svg" xmlns:xlink="http://www.w3.org/1999/xlink" x="0px"
	 y="0px" viewBox="0 0 1268 638.41" style="enable-background:new 0 0 1268 638.41;" xml:space="preserve">
<style type="text/css">
	.st0{fill:#CCCCCC;}
</style>
<g>
	<path class="st0" d="M585.33,274.9l10.33-1.65l5.16-3.1l1.49-3.72v-5.16l5.53-5.99h5.16l1.45-3.3l-2.38-6.2h5.47h3.3l3.51,2.89
		l6.4-1.03l0.21-3.1l3.92-2.69l3.3,0.83l-0.62,5.58l2.27,1.86l1.24,1.86l-5.58,1.65l-3.72,6.2l0.41,6.61l7.44-0.41l-0.41-4.54
		l-2.69-6.82l3.3-1.24l3.3,0.41l4.54,0.83l5.78,3.72l3.92,3.1v5.37l-2.27,2.68l-4.96-4.54l-4.34,1.03l-0.83,5.37l10.33,4.96
		l3.51-2.27v-5.16l5.16-4.13l-2.48-6.2l-3.92-6.61l-9.5-7.23l-2.27-5.99l2.69-2.27l5.16,5.58l11.57,4.54l4.54,4.13l4.13,6.61v5.37
		l3.92,4.75l-3.72,6.2l1.65,2.48l9.09-1.65l3.1-3.51l-2.07,4.96l3.1,0.21h6.2l-4.54-3.72l-0.21-3.51l-4.13-4.13l-1.65-3.72
		l-1.65-2.27l5.58-2.48l5.58,1.03l-1.24,2.89l3.3,3.72v-4.34h4.34l1.45-2.68l2.27-2.27l-2.27-4.34v-4.54l4.34-3.1v-3.51l5.58-5.37
		l4.34-1.45l4.13,2.27l2.89-0.21v1.03l-4.54,0.62l2.89,3.3l1.65,2.27l4.75-2.07l4.75-1.03l-1.65-1.45l-3.51-0.62v-3.1l5.16-1.03
		l3.92-2.27l5.16-1.86v2.69l-4.96,2.27l-2.27,3.92l-2.4-0.26l2.07,2.32l6.69,2.99l2.48,3.25l3.41,4.49v3.72l-4.65,1.86l-9.29-2.17
		l-6.2-1.86l-5.89,0.31l-2.63,2.01l-7.28,3.56H706l-3.41,3.41h-3.72l-1.39,0.46l-0.62,3.72l1.7,2.01l1.39,3.56l1.86,4.03l6.35-0.15
		l3.41,1.86l5.73-2.01l6.97,1.08l5.11-0.46l-0.46,12.55l-3.87,5.73l-3.87,3.87l-9.91-2.17l-6.97,0.46l-12.55-2.01l-5.89-3.1
		l-5.89-1.24l-8.06,1.55l0.46,9.45l-3.41-1.55l-7.59-3.25l-4.65-2.79l-12.08-2.48l-2.63-5.42v-7.44l-0.93-5.83l-16.52,2.89
		l-14.46-1.45l-9.29,4.96l-8.06,3.51h-4.96l-2.48-1.76l-3.25-0.93l-5.11,6.04l-4.65,4.65l-6.04,2.63v8.21l-4.96,6.97l-7.75,5.89
		l-7.9,8.52l-6.35,13.32l2.79,2.94l0.77,11.31l-3.56,11.77l4.65,6.35l10.69,12.86l10.22,9.29l9.29,7.44l12.08-3.65l7.28,1.64
		l8.77-3.25l6.1-3.87l11.15,1.24l3.87,6.97c0,0,6.97,1.24,7.44,0.93c0.46-0.31,7.13,5.89,7.13,5.89l-4.34,10.84l4.96,8.67l7.9,13.63
		l3.1,11.31l1.7,6.35l-4.34,5.58l-2.48,12.08l0.77,6.04l6.04,10.69l4.96,10.84l0.31,13.32l5.73,4.65l0.93,8.83l4.65,3.72l-1.7,4.8
		l3.25,7.28l14.1-1.7l11.93-4.18l7.75-7.44l5.58-6.82l11.62-11l0.15-7.59l5.27-0.93l3.41-11.93l-4.49-4.03l3.41-8.98l8.21-2.63
		l10.53-5.42v-14.25l-4.49-9.6v-12.7l4.49-9.45l6.2-8.52l9.14-10.53l9.45-9.76l8.21-12.24l4.03-12.08l-8.52,1.08l-12.08,1.55
		l-6.82-0.93l-2.01-4.49l-3.72-3.41l-10.07-11.93l-2.01-6.97l-2.63-1.7l-0.46-8.52l-4.49-5.73l-8.06-12.39l-4.49-12.24l-0.93-4.03
		l2.17,1.24l2.17,5.89l1.55,3.41l3.72-1.86l1.7,2.63l5.89,6.51l4.8,9.45l1.86,6.51l0.62,3.72l4.49,1.7l4.96,8.36l4.18,3.56
		l-1.55,7.75l2.79,6.82l5.42-1.08l8.98-2.79l8.52-4.18l8.67-7.44l7.59-0.15l6.51-4.96l5.27-7.75l7.59-3.87l0.93-6.2l-8.21-3.25
		l-5.11-3.56l-4.65,3.41l-8.83,1.08l-4.65-3.72l-5.11-7.9l-5.58-5.58l0.31-7.13l7.9-3.25l-0.77,7.59l4.8,4.18l8.98,5.27l4.96-2.17
		l4.65-1.55l2.32,6.35l8.98,1.55l15.49-0.77l10.07,4.03l4.34,10.22l8.36,3.72l6.04-5.11v6.2l1.24,13.94l4.49,7.28l3.56,8.83
		l2.94,7.28l2.94,6.66l6.51-1.86l3.56-4.8l1.55,3.72l-2.48,4.03l0.62,5.89l4.34,0.62l4.03-3.41l1.08-3.25l-6.35-4.49l-2.01-5.42
		l-0.15-10.69l0.46-5.42l4.8-1.39l12.39-11.15l6.97-6.04l0.77-0.46v-3.25l5.58-2.94c0,0,9.14,0.15,9.6-0.15
		c0.46-0.31,3.56,3.41,3.56,3.41l1.24,7.13l5.73,2.94v6.2l0.93,4.34l6.51-1.24l3.25-3.25l2.48,9.6l1.39,8.21l-0.77,8.21l0.77,6.51
		l4.96,4.49l1.39,8.83l3.87,3.56l0.93,3.41l-3.87-0.77l-4.65-6.2l-5.11-3.56l-7.44-4.03l-1.24,5.89l3.1,7.75l8.98,1.24l4.49,8.52
		l5.73,8.83l6.35,6.04l5.27,4.34l1.55,2.17l3.41,3.72l6.04,1.08l20.29,2.01l9.76,2.63l13.63,0.62h8.98l3.87,3.25l-2.32,2.94
		l3.72-1.86l9.6-7.75v-2.48l-7.75,3.72l-3.72,1.55l-5.58-1.86c0,0-6.2-0.62-7.13-0.62s-18.59-1.24-18.59-1.24l-5.11-2.94l2.63-0.46
		l-0.15-2.01h-8.98l-10.38-0.77l-8.21-2.01l-2.17-4.34l2.01-7.9c0,0-6.97-4.18-7.13-4.65c-0.15-0.46-4.34-7.44-4.34-7.44l2.79-1.55
		l2.63,2.01l14.1,0.15l2.32,4.18l3.1,8.36l14.1,2.94l9.76-4.49l6.82,2.17l2.48,2.79l3.25,0.15l5.27,4.34l6.2,1.55l-3.1-9.76
		l0.15-5.89c0,0-4.65-1.24-5.11-0.31c-0.46,0.93-4.03,3.25-4.03,3.25l-5.11-1.7v3.1l-5.89-1.55l3.1-4.03l-0.62-3.41l3.25-0.46
		l-0.77-5.11l-2.48-4.34l2.32-5.2l3.1-2.08l8.36-1.24l2.48-6.2l3.87,1.24l2.94,4.34l6.66,0.77l3.72-6.82l-3.72-8.06l-5.27-8.36
		l-3.25-5.42l-7.44-2.79l1.86-9.91l-2.32-5.11l-3.87,0.15l-2.94,9.45l4.34,7.75l2.01,8.21l6.04,4.34v6.66l-2.94,1.7l-2.79,6.2
		l-3.56,0.46l-1.24-2.79l-2.48,0.93l0.16,1.7l-2.32,1.08l-4.34-3.41l-0.46-2.32l-2.79,1.24l-8.67,10.22l-4.34,1.24l-7.28,4.49
		l-6.04,3.25h-2.79l-14.56-0.62l-4.18-7.59l-0.31-6.82l-6.04-5.42l-7.75-6.2l3.41-12.86l3.1-3.25l3.87,6.04l5.11,3.25l6.97,1.39
		l-3.1,6.51l6.82-2.48l6.04-5.11l3.1-1.86l-0.77-12.24l-11.15-6.2l-0.93-9.29l5.89-6.2l7.59-2.94l0.31,5.27l-1.86,2.63l1.39,3.41
		l4.18,1.08l3.87-5.11l-2.48-6.2l3.25-2.94l7.75-1.86l6.51-4.96l12.55-11.31l8.98-7.75l1.24-7.13l-4.49-10.38l-4.49-9.45l5.73-4.8
		l3.72-3.1l-8.67-1.24l-3.56,4.49l-1.55-6.82l2.48-4.65l7.44-2.79l3.41,0.31l-2.94,4.49l4.03-1.86l3.87-1.7l2.79,1.86l4.34,1.86
		l-2.94,5.42l4.03,2.17l2.32,1.7l-0.62,7.13l-2.63,6.04l10.07-5.11l5.58,0.93l3.1,3.1l-4.8,4.8l2.94,5.73l11-8.52l6.82-1.24
		l5.89-4.34l9.91-3.72l4.49-7.59l0.93-10.22v-9.6l1.7-2.63l4.8,3.56l2.79-2.48l4.8-2.01v-4.8l-4.8-0.93l-5.11-3.87l0.31-4.96
		l4.34,0.31l-3.1-5.27l-1.08-3.56l3.87-4.8l2.94,2.94l-1.24-5.58l-3.1-7.13V197.4l-1.7-1.7l-4.18,3.25l0.62,7.75v14.56v11.15
		l0.31,1.55v1.55l-2.17,3.1l0.62,4.96l-2.01,2.32h-3.1l0.31,15.18l-2.63,5.11l-5.11,6.04l-3.25-2.94l-2.48,4.03l-0.62,3.72
		l-3.56,0.77l-4.8-2.01l-5.42,2.63l-2.32,2.32l-4.03-0.31l-5.42-0.77l3.41-3.87l-2.01-4.96l-4.18-6.51l-1.39-5.58l12.39-9.6
		l6.04-2.94l4.34,0.93l13.94-16.42l6.04-8.83l1.86-5.58l0.62-7.13l0.93-8.36l-4.65-5.11l-5.11,1.55l-5.27-1.55l-4.96-4.03
		l18.43-16.88l7.75-5.27l9.76-0.93l13.17-2.79l7.59,4.03l6.82,2.94l5.73-2.32l1.55-0.93l-3.25-2.63l9.14-7.59l10.38-4.18l2.01,6.66
		l4.49,0.46l5.11-4.18l1.39-4.18l5.58-1.24l-1.39,3.56l-6.35,7.59l-6.35,3.25l-8.52,11l-6.82,3.72l-6.04,9.76l2.48,9.91l3.56,4.8
		l-0.15,4.49l6.35-3.87l2.94-7.28l4.03-0.46l0.62-4.18l5.11-0.46l-0.15-6.04l5.27-3.1l-0.62-4.65l-2.32-1.39l2.48-1.24l-0.77-2.63
		l-3.25-0.46l5.27-7.13l4.65-1.24l2.79,1.24l7.44-4.65l9.14,3.87l7.13-6.2l11.93-8.21l11.15-0.93l2.01,1.08l-2.48-7.44l-4.34-3.41
		h4.18l5.42-0.93l1.7-6.97l8.98,4.65l9.14,2.94l4.8,3.25v-10.84l-4.18-1.08l-2.17-4.03l-1.39-2.63l-28.04-13.48l-12.86-2.01h-8.52
		l-1.55,6.35l-4.65,0.31l-2.94-2.94l5.89-3.72l-3.41-1.24l-8.06,1.55l0.31,2.17l-6.2-0.31l-13.63-1.55l-5.27-1.86l-2.48-6.2
		l-13.94-0.93h-11.62l-8.67-6.04l-5.73-3.87l-8.06-0.93h-19.36l-4.03,4.18l2.48,3.72l-6.51,3.41l-13.94-1.86l-6.35-4.18l-4.18,8.21
		l-7.59-6.04l-2.63-8.21l-9.14-4.8h-6.97l-3.56,4.03l-10.07-2.63l-16.73-2.79l-13.17,2.48l-11,1.24l-7.59,1.39l-1.86-3.1l11-4.18
		l12.7-7.75l3.1-3.41l-3.56-7.28l-12.7-2.79l-4.96,4.03l-4.65-4.03l-6.82-3.72l-15.49,8.98l-7.9,6.66l-13.32-3.41l-6.82,2.17
		l-12.24,3.56l-6.04,4.18l-4.18,2.63l4.8,2.32l-4.96,3.41l-7.9-3.25l-6.97,1.7l-2.17,3.41l0.62,6.51l7.13-0.31l0.46,6.35l-2.63-0.15
		l-2.63-3.56l-3.56-2.01l-10.22-1.55l-5.89,4.03l2.63,1.08l2.63,5.42l-8.21-2.79l-1.08-5.89l-6.35,2.32l2.01,6.97l1.55,4.03
		l0.62,6.51l11.31,0.77l2.63,7.59l-1.7,5.58l-2.63-11.77l-6.2-0.93l-2.79,4.34l0.93,5.89l-4.18,3.25l-8.67,1.86l-4.8-1.08l7.75-1.86
		l3.41-5.58l0.46-5.11l-2.94-2.63v-6.82l-0.31-7.75l-1.7-0.46l2.79-8.36l-4.34-2.79l-3.1-2.48l-7.13,5.89l-4.65,7.13l-3.25,5.11
		l1.24,7.75l8.36,1.86l0.31,4.65l-0.15,2.32l-7.44-3.87l-11.77-5.42l-10.84-2.48l-6.97-1.7l-4.03-5.58l-7.28-6.97l1.08-6.66
		l6.82-5.89l13.79-8.52l8.36-4.96l9.91-2.63l7.44-2.63l1.08-3.25l-3.56-1.08l-8.98,1.86l-7.44,1.86l-14.87,2.01l-5.42,7.44
		l-7.9,7.28l-5.11,5.73l-5.89,7.13l-0.31,9.91l5.73,1.7l8.98,1.24H807l2.17,2.79l8.98,5.27l-0.31,5.73l-4.65,2.32l-2.01-5.73
		l-11,1.08l-7.9,2.94l-3.72-3.72l-11.93,6.35l-5.73,5.73l-9.14-0.46l-7.28,6.04l-11.15,1.24l-0.93,4.65l3.56,2.63l-3.1,0.62
		l-8.21-4.18l-3.25-0.15l3.72,3.72l1.08,3.56l-6.82-3.1l-3.56-1.39l-0.15-6.97l-5.73-6.04l9.45,2.32l10.38,2.32l8.98-3.41l0.31-4.96
		l-8.83-3.56l-9.29-5.89l-7.28-0.46l-6.97-4.18l-6.97,2.01l-0.62-4.34l4.18,1.08l-0.62-1.86l-7.59-2.79h-8.52l-7.44-0.93l-7.13,2.48
		c0,0-9.29,2.79-9.76,2.63c-0.46-0.15-4.03,2.79-4.03,2.79l-5.89,2.79l-8.98,4.34l5.42,0.15l-0.93,2.17l-7.13,8.36l-7.13,9.91
		l-10.07,7.28l-9.91,5.27l-3.87,9.45l2.79,9.91l2.01,5.11l10.38-0.46l7.9-6.66l2.63,6.97l6.97,10.69l6.82-3.72l3.72-5.89l4.65-5.11
		l4.34-1.39l-5.42-4.18l-2.17-10.53l6.04-6.35l6.51-6.82l1.7-5.42l9.45-3.56l3.87,1.7l-6.04,8.83l-6.97,5.42l-1.24,5.58l0.15,7.9
		l-5.58,0.31l0.77,3.87l5.42-0.15l8.05,0.62l4.8-1.55l7.9-3.41l4.34,2.17l-0.77,4.18l-6.97,0.15l-9.91,2.79l-4.96-0.93l0.16,5.73
		l5.73-2.63l3.72,3.72l-0.93,4.65l-8.36-1.86l-4.03-1.86l-0.46,6.66l-2.32,2.32l-0.31,4.96l-2.48,1.55l-5.42-2.01l-8.52,1.08
		l-4.03,0.93l-8.36-1.24l-9.76,3.56l2.17-8.67l3.41,2.48l4.18-0.15l0.93-2.48v-6.82l-4.65-1.55l-2.94-2.94l-6.2,3.72l0.15,7.59
		l-1.55,7.13l-6.2,2.48l-8.21,6.66l-6.97,5.42l-3.1-1.55l2.79-6.35l-3.25-3.72l-8.98-5.27c0,0-3.41-6.82-3.1-7.75
		c0.31-0.93-0.93-5.58-0.93-5.58l-2.94-4.8l-6.2-2.79l-4.49,6.97l-0.15,4.18l2.17,5.58l-4.96,0.31l-6.04,2.94l-3.72,6.51l1.86,4.03
		l-4.34,2.17l2.63,3.87l9.76-1.39l2.32-4.49l0.93,0.31l0.46-8.83l2.32-2.63l2.48,0.31l2.79,6.82l-0.93,4.34l-2.63,3.56l1.7,2.63
		l-2.17,3.72l-1.08,2.94l4.49-2.01l4.8,0.15l0.62-2.17l10.38-0.77l3.1-1.24l2.63,1.24v3.87l-6.56,2.01l-6.45,2.94l-7.59,0.46
		l-2.01,1.86l9.14,6.51l2.63,7.59v7.13l-7.28,0.15l-13.94-0.31h-4.65l-3.72,6.2l3.56,8.83l-3.41,4.03l2.63,6.2l0.77,4.03l6.51-1.24
		l2.32,1.7l2.63,1.39L585.33,274.9z"/>
	<polygon class="st0" points="756.97,471.12 761,480.72 756.97,486.3 755.42,495.59 758.21,503.65 765.95,501.79 771.53,492.49 
		778.97,477.62 778.97,465.85 777.11,452.22 769.36,464.92 765.64,467.4 757.28,467.09 	"/>
	<path class="st0" d="M1133.7,437.04l-11.15-6.2l-4.96-7.13c0,0-7.44-3.41-8.67-3.41s-19.83-8.67-19.83-8.67l-2.17,5.27l-7.13-0.93
		l-2.79-4.34l-7.13-3.1l-1.55,2.79l1.55,0.31l4.34,6.82l1.86,5.58l11.77,2.48l6.82,8.67l-3.72,2.48l6.51,2.17l7.44,1.86l2.79,3.41
		l5.89-6.51h6.82l5.58,6.51h8.36h5.58L1133.7,437.04z"/>
	<polygon class="st0" points="1087.23,461.82 1098.07,473.29 1104.11,473.29 1106.74,458.42 1109.53,448.81 1113.56,457.18 
		1117.9,462.75 1121.31,469.26 1128.43,480.72 1135.87,488.78 1145.16,499.31 1147.02,508.6 1147.02,523.48 1144.23,536.18 
		1137.72,542.68 1135.25,551.36 1127.19,549.5 1124.09,556.32 1117.12,553.22 1107.05,554.15 1100.24,547.95 1094.66,533.08 
		1088.78,535.25 1085.06,538.97 1076.69,527.19 1065.54,522.55 1059.96,523.17 1049.12,528.43 1045.4,535.25 1037.35,537.11 
		1030.84,535.56 1018.14,541.13 1012.25,534.94 1012.25,530.91 1010.08,524.71 1007.29,513.87 1005.13,504.27 1008.22,490.64 
		1007.91,488.47 1023.41,485.37 1028.67,479.48 1036.42,480.41 1036.73,475.15 1036.73,469.57 1046.33,466.16 1050.36,461.51 
		1056.24,461.2 1060.58,465.54 1063.37,461.51 1065.23,454.08 1072.97,452.53 1083.2,448.81 1086.3,448.81 1089.7,455.63 
		1088.78,459.03 	"/>
	<polygon class="st0" points="1117.59,560.96 1125.02,566.54 1130.29,563.75 1130.29,571.19 1130.29,578.31 1120.69,578.31 
		1114.8,566.23 	"/>
	<path class="st0" d="M1201.24,578.31l-7.44,3.1l3.72,4.65l3.72,2.79h8.67l2.17-8.98l3.41-4.03l4.65-8.36h3.41l5.27-3.72l4.34-9.91
		l2.79-1.55l-4.34-3.41c0,0-2.48,0.31-2.79,0c-0.31-0.31-4.96-9.29-4.96-9.29l-8.98-1.55l7.44,8.05l2.79,8.36l-2.17,6.51h-3.72
		l-5.89,5.89l-4.34,6.2l-5.27,3.72L1201.24,578.31z"/>
	<path class="st0" d="M357.31,622.3l12.39,9.29l-6.2,6.82l-11.77-4.34l-13.63-11.77l-6.2-8.05v-16.11l3.72-13.63l-3.72-18.59
		l8.67-13.63l1.24-14.87l6.2-12.39l2.79-14.87l3.41-9.91v-9.91l-3.41-7.44l-7.75-11.15l-8.05-11.77l-15.49-11.77l-4.34-13.84
		l-3.92-6.82l4.34-14.25c0,0,7.23-10.12,6.61-10.33c-0.62-0.21,4.75-10.01,4.75-10.01v-7.14l-5.16-6.4l-4.54,1.24l-0.21,3.1
		l-4.34,1.45l-6.4-3.51l-5.58-8.05l-1.45-3.1l-6.2-6.2l-10.33-3.3l-9.91-7.02l-5.37-3.3l-7.64,1.86l-7.64-3.51h-11.57l-11.57-9.09
		l-2.07-7.85l-9.29-11.77l-9.5-7.64l-1.86-8.67l-7.44-8.67l-2.69-1.86v8.06l4.54,4.34l8.06,11.36l2.07,6.61l0.41,2.27l-3.3-1.03
		l-6.2-4.96l-1.24-5.78l-6.82-6.2l-1.45-4.96l-4.54-7.85l-1.65-6.61l-8.26-8.67l-3.51,2.27c0,0-7.44-8.67-7.23-9.29
		c0.21-0.62-4.13-8.26-4.13-8.26l-7.85-11.98l3.51-9.71l3.51-13.01l-3.3-7.85l-7.85-5.78l-4.96-7.85l-1.65-6.61l-8.67-5.37
		l-7.85-4.13l-2.89-7.85l-16.32-11.77l-8.26-5.37l-11.57-3.3l-15.7-0.83l-8.88,3.1l-7.85,6.61l-4.13,7.85l-8.06,5.16l-7.02,3.72
		l-15.08,3.92l-11.57,5.37L0,203.03l2.68-6.4l11.77-4.75l14.04-5.37l11.77-8.06l0.41-5.78l-10.95-1.03l-8.05-5.16l-8.67-4.96
		l-0.41-7.02l8.47-3.92h5.78l6.82-5.16l-4.75-7.23l-10.12,5.16l-10.95-5.16l5.99-4.75c0,0,7.44-0.41,8.06,0
		c0.62,0.41,7.44,1.86,7.44,1.86l4.75-4.34l-12.19-2.68l-13.01-3.51l-0.83-4.96l7.23-1.45l13.84-9.71l9.29-1.86l14.04-0.83l9.5,2.89
		l35.11,5.78l14.25,2.69l8.47,1.86l12.6-6.4l9.5-0.83l5.99-5.99l10.53,6.82l13.22-1.24l24.78,11.15l7.64,3.1l5.78-2.89l0.41-2.89
		l-10.12,0.21l-6.4-6.4l-7.23-1.45l15.08-2.27l3.3-4.96h-7.85l-8.67,0.83l-7.23-4.75l2.48-7.02l-4.54-2.48l-6.82,8.47l-4.96,2.89
		l-10.33-6.61L158,86.33l3.72-7.44h13.43l6.82,2.48l5.99,0.21l1.24,6.61l-4.34,2.48l-2.89,0.62l2.89,1.86l4.96-3.51l5.16-1.45
		l3.1,4.34h9.5h8.26l5.58-6.4l7.02-3.3l-4.75-8.06l-8.47-1.03l-12.19,4.34l-5.16-2.27l-1.03-2.07h-6.2l-3.72-4.34l-4.54,1.24
		l-2.48,1.65l-5.99-2.89l-6.61-1.86l-3.51-1.45l8.47-2.27l4.34-3.92l9.71-3.1l2.89,1.65l-0.21,3.51l6.4,1.45l4.54,2.07l6.2,4.13
		l7.44,1.24l-1.45-3.51l0.41-3.72l-1.65-3.72l-5.16,1.86c0,0-8.06-3.51-8.06-2.89c0,0.62-3.51-2.07-3.51-2.07l7.23-4.75l2.69-3.92
		h4.96l6.4,2.07l-1.24,3.92l-3.51,2.68l1.65,1.65l0.83,2.07l2.07,1.65l5.37,3.72l6.4,0.62l0.83,3.3l-1.24,4.54l2.89,6.2l2.89,7.85
		l-3.92,4.75l2.27,4.75l1.45,4.75l1.86,3.1l3.92,3.92l4.75,2.27c0,0,0.41,2.89-0.21,3.1c-0.62,0.21-7.02,4.13-7.02,4.13l-0.62,6.82
		l9.29-1.03l10.33,0.83V120l-6.2-7.02l7.02-2.48l6.4,6.4l0.83,7.02l-0.21,5.99l4.34-6.4l1.65-7.02l-3.51-4.75
		c0,0-5.16-2.68-5.37-3.3c-0.21-0.62,2.69-8.47,2.69-8.47s-2.48-1.65-3.1-1.45c-0.62,0.21-6.82,4.75-6.82,4.75l-4.96-0.83
		l-7.64-10.12l2.69-3.1l4.54,0.83l-2.27-3.51l3.3-2.89l4.13,0.83l4.13-1.24l-2.07,8.67l5.99,0.21l2.48-0.83l1.65-2.89l-1.24-4.54
		l8.88-3.51l6.4,1.86c0,0,4.96-0.41,4.34,1.03c-0.62,1.45-6.61,5.78-6.61,5.78s-7.23,2.68-5.99,4.75c1.24,2.07,2.07,5.37,2.07,5.37
		l1.45,5.99l4.96,3.3l-0.62,5.16l6.82,7.64l3.1,5.16l7.23,3.92l1.86-10.95l2.68-6.82l-6.4-1.03l-7.02-4.96l-1.65-11.15l4.54-5.37
		l5.16-5.58c0,0,5.58,0.62,4.96,1.24c-0.62,0.62-6.4,6.82-6.4,6.82l3.92,6.82l3.72,2.07l0.83-8.26l1.24-7.02l7.02-2.07l3.3-5.78
		l-8.67-0.83l-9.5,0.41h-14.04l-3.1-3.1l-5.58-0.62l-4.13,3.3l-7.02-4.54l-6.61-1.24l-6.61,4.54l-8.88-5.99l-6.82-3.1l-1.03-3.92
		l8.88,2.27l5.78-2.07l5.99,1.86l4.75,3.1l4.13-1.03l4.13,3.1l1.45-3.92l-6.2-4.13l3.92-3.92l-4.75-3.51l-7.23-4.34l-3.1,2.27
		l0.83,6.2l-6.4-3.51l-3.1,2.68l-3.1,0.21l-0.83-4.54l-1.65-1.24l-5.99-0.21v-5.37l-1.86-3.1h7.44l5.37,2.07l2.89,2.07l5.37,0.41
		l9.09-1.65l3.51,3.92l4.54,1.24l5.99,4.34c0,0,2.27,0.62,2.89,0.83c0.62,0.21-3.3,4.13-3.3,4.13l-3.92-2.27l-0.83,2.48l3.51,1.24
		l3.72,1.03l6.82,0.21l4.13-0.83l6.61-3.3l3.1-5.58l4.13,4.13l5.16-3.92l-2.07-3.3l-11.15-6.2l-6.82,4.75l-8.67,0.83l-9.09-1.65
		l4.13-3.72l3.72,0.41l-2.89-5.78h-2.68l-3.1,2.07l-3.51-4.34l6.61-6.61l5.16-3.51l9.29,4.75l2.07,1.65l7.64,3.92l6.82,3.92
		l5.16,4.75l-1.65-3.72l-6.4-4.75l3.1-3.51l4.96,2.07l9.5,0.83l4.75-2.69l2.48-3.3l-12.6,1.86l-9.29-0.62l-13.22-3.72l-4.75-5.99
		l1.03-2.68l9.71-3.51l6.61-0.83l9.5-4.13l7.02-3.3l7.02-1.24l13.43,1.45l13.43-1.45l11.15,3.72l5.78-0.41l5.99,2.27l4.75,0.62
		l6.61,2.89h3.72L379,21.48l5.37-0.41l5.58-2.69l11.36-1.86l9.5-0.41l5.99,2.27l7.44-5.37l-1.03-4.34l8.47-1.45l14.04-2.48
		l1.24-1.65h11.98l15.9-3.1l7.23,1.86L493.22,0l7.44,3.51l16.52,3.72l2.68,3.1l-4.34,1.03l-4.96,5.37l6.61-1.65l5.99,0.21v5.99
		l-10.12,4.96v10.33L518,31.6l4.13-6.2l8.26-1.65l18.59-1.24l5.16,3.92l-3.92,1.86l-12.81,4.54l-4.75,10.12l1.45,5.58l-3.3,4.96
		l-3.1,8.88l5.37,1.65l-2.27,6.82l-5.99,6.4l4.54,7.44l-9.29,10.53l3.72,9.09l-1.24,4.96l-7.85,3.3l7.02,5.78l-4.54,4.54
		l-15.49-2.69c0,0-9.91,4.13-9.5,4.96c0.41,0.83-8.47,11.77-8.88,11.15c-0.41-0.62-12.19,4.96-12.19,4.96l-6.61,12.39l-14.04,9.91
		l-15.08-1.45l-7.23-4.75l-12.19-10.12l-0.62-10.12l-3.3-11.15l0.83-6.2l5.58-1.86h4.54l0.21-6.4l-3.51-3.51l-4.75,6.4l-5.99-2.27
		l-1.45-4.34l3.1-1.45V101l-4.96-3.72l-6.2-10.33l1.03-7.23l-6.4-4.13l-3.51-7.85l-7.44-1.24l-10.12,1.45l-10.74-6.2l-7.64,2.27
		l-5.78-9.09l0.21-8.47l9.91,2.89l10.53-2.68l-2.07-5.37l6.82-3.51l-4.54-2.07l-9.09-2.07l5.99-4.75l9.29,0.62h3.72l3.1-5.99
		l-4.75-1.03l-6.2,1.24l-1.65,3.3l-8.05-0.21l-2.68,4.75l-11.77,7.23l-8.67,4.96l-6.2,10.33l-7.23-0.21l-2.27,5.16l3.92,2.89
		l-3.72,7.64l-10.12-5.16c0,0-8.06-0.62-8.67,0c-0.62,0.62-18.8,3.51-18.8,3.51l-2.27,0.62l2.69,1.45l7.02-0.83l8.26,1.65l9.09-0.83
		l6.2,2.89l4.34,0.62l-0.41,2.89l-6.4,1.45l-1.45,5.99l6.82,1.45l9.09,1.24l2.48,4.54l8.06,3.1l9.5,10.33l8.47,4.75l8.05,7.64
		l-1.86,4.75l8.67,2.07l4.96,5.37l6.2,0.41l-0.21,6.82l-9.71,6.4l3.3,2.89l-1.24,1.24l-7.23-5.99l-0.21-4.75l-3.72-2.68l-2.07,4.75
		l4.54,4.13l2.89,2.89l4.34,2.69l0.62,4.34l-2.27-0.21l1.86,2.68l-2.27,1.45l-4.54-2.89l-4.96-1.65l-2.58-3.48l-2.17-2.92l1.03,8.47
		c0,0,6.4,1.24,7.02,0.83s3.3,2.48,3.3,2.48l-0.62,1.45L357.31,158l-3.72-3.3l-5.58-5.99l-11.15-2.07l-8.47-0.62l-5.99-5.58
		l3.51-0.62l7.44,1.24l3.3-2.89l5.78-0.41l-0.62-6.4l5.16-3.92l-7.44-9.09l-3.92,2.69l-5.78-7.85l-4.34-1.86l-7.85,2.48l-5.16-2.27
		c0,0-1.65,1.24-1.65,2.07c0,0.83,5.37,4.54,5.37,4.54l-5.16,3.1l4.96,4.13l-2.07,5.37l-6.2,2.07l-2.68,5.58l-5.16-3.51l0.21,5.58
		l6.82,1.45l4.75,0.21l2.69,3.51l3.92,2.68l-4.75,1.86l-4.34,1.86l-0.83,2.48l-5.37-1.24l1.24-3.72l4.34-1.03l-0.62-2.27l-3.92-0.62
		l-2.68,3.1l-2.27,1.45l-3.72-2.27l-0.62-6.61l1.86-5.37l-2.07-0.62l-2.69,5.58l-5.37,7.23l-6.82,1.65l-5.99,7.64
		c0,0-4.54,0.41-5.16,1.45c-0.62,1.03-2.27,8.47-2.27,8.47l1.45,4.34l5.16,1.45l0.41,9.5l3.82-0.21l7.13,3.72l10.74,1.24l5.99,3.92
		l8.47,0.62l0.41,11.98l5.78,2.89l4.34,3.92l2.07-2.89l-0.21-7.02l-2.68-7.44l6.82-1.03l2.27-4.34l4.13-7.02l-3.3-4.54l-10.12-5.58
		l9.09-11.98l-1.45-6.82l6.82,1.86l5.78,1.24h2.07l3.92,6.4l10.33,3.72l3.51,5.99l5.16,3.51l5.37-6.61l2.89-4.96l4.13,4.96
		l5.16,10.53l5.99,11.36l8.06,5.99l8.26,5.78l2.27,7.23l-1.24,9.5l7.44,2.48l0.41,8.26l-7.85-0.41l-8.88-1.03h-7.02l6.61-10.33
		l4.54-8.26l-6.61,0.41l-5.78,4.13l-15.08,0.21l-9.71,0.62l-5.16,6.4l3.72,1.65l5.37-3.3l5.58,4.34l0.21,8.47l3.51,2.69l8.26-2.07
		l3.1,0.62l1.65,3.72l-9.71,1.45l-1.45,2.27l-10.95,7.23l-1.86-7.23l5.16-3.1l-2.68-1.86l-9.71,5.99l-13.22,9.09l5.58,8.47
		l-10.95,3.51l-10.53,7.64l1.45,5.58l-1.65,4.54l-5.99,4.75l-10.33,8.67l0.62,9.29l3.51,6.82l-0.83,6.2h-5.37l-3.72-7.02l0.83-6.61
		l-4.75-3.1l-9.5,1.65l-7.85-2.89l-8.36,1.45l-10.22,1.86l-4.96,5.78l-7.64,10.12l0.62,13.84l2.89,9.09l9.5,3.3l7.44-4.13l5.99-3.51
		l1.65-2.07l8.47,2.27l4.96-3.3l10.53-6.4l6.4,2.27l8.06-0.62l7.85,2.89l11.57,4.13l5.16,3.3l7.02,1.45l7.85,2.07l-0.83,1.65
		l-1.65,1.65l-8.26,0.41l-9.29-4.75l-4.13,2.89l-5.37-3.72l-8.67-3.72l-3.1-4.34l-9.29-0.21l-3.51-3.51l-4.75,4.75l-3.51,2.69
		l-5.58,3.92l-4.54,7.44l1.24,5.78l17.14-0.21l0.83,9.5l-1.03,9.71l2.48,2.89l7.64,1.86h4.54l5.99,0.62l7.44-8.67l9.29-1.86
		l7.23-1.03l7.44,5.78l9.09,1.24l7.23-0.21l9.09,7.44l8.26,3.72l10.74,9l6.4-3.83l7.23,4.75l5.99,7.23l4.75,7.23l9.71,1.86
		l14.04,8.67l5.78,1.65l8.67,6.2l8.47,7.23l1.86-4.34l2.68,4.34l-0.62,9.29l-5.78,8.67l-5.58,6.4l-2.27,11.36l-3.3,6.61l-3.3,8.26
		l-8.05,6.61l0.62,5.37l-12.19,1.45l-10.74,8.67l1.24,7.85l-5.16,5.16l-7.64,13.01l-5.37,3.3l-7.44,5.37l-7.85-2.48l2.48,4.54
		c0,0,3.92,2.27,4.54,2.48c0.62,0.21-3.92,5.58-3.92,5.58l-9.5,7.44l-5.99-0.21l-3.92,5.58l-2.68,6.4l-7.64-5.16l1.86,5.99
		l2.07,0.83l1.24,2.07l-3.72,3.3l-0.21,3.1l-7.44,3.92l-0.41,3.92l4.34,1.86h2.48l2.27,4.75l-7.44,6.2l-7.02,6.2l-0.21,4.75
		l2.89,3.72l0.21,3.92L357.31,622.3z"/>
	<polygon class="st0" points="519.34,136.21 515.32,139 524.61,141.48 517.18,148.3 509.74,142.25 509.74,150.77 524.61,148.92 
		529.88,150.77 540.72,150.77 540.72,147.37 549.71,150.77 552.8,145.51 554.15,139.93 547.54,134.66 544.44,130.95 541.96,137.14 
		534.22,133.73 530.19,130.95 524.3,130.95 520.58,134.35 	"/>
</g>
</svg>
