<?xml version="1.0" encoding="utf-8"?>
<!-- Generator: Adobe Illustrator 25.4.0, SVG Export Plug-In . SVG Version: 6.00 Build 0)  -->
<svg version="1.1" xmlns="http://www.w3.org/2000/svg" xmlns:xlink="http://www.w3.org/1999/xlink" x="0px" y="0px"
	 viewBox="0 0 56.47 61.66" style="enable-background:new 0 0 56.47 61.66;" xml:space="preserve">
<style type="text/css">
	.st0{display:none;}
	.st1{fill-rule:evenodd;clip-rule:evenodd;fill:#FFFFFF;}
	.st2{fill-rule:evenodd;clip-rule:evenodd;fill:#4C4F47;}
	.st3{fill-rule:evenodd;clip-rule:evenodd;fill:#83C21D;}
	.st4{fill:#4C4F47;}
	.st5{fill:#83877C;}
</style>
<g id="_xF917_叱" class="st0">
</g>
<g id="Layer_1" class="st0">
</g>
<g id="及灑婆增鏑">
</g>
<g id="昆穽設陷">
</g>
<g id="Page_1">
</g>
<g id="Layer_1_00000036973776653070397810000012020874870333897644_">
	<path class="st2" d="M22.8,45.54c-3.73,4.63-8.98,11.32-10.9,13.63C6.26,65.96-4,57.42,1.64,50.64c1.92-2.31,6.74-8.01,11.34-13.24
		C15.38,40.74,18.97,43.92,22.8,45.54L22.8,45.54z M32.35,5.03c9.62-0.85,18.09,6.15,18.93,15.63c0.83,9.48-6.29,17.84-15.91,18.69
		c-9.62,0.85-18.09-6.15-18.93-15.63C15.6,14.24,22.72,5.87,32.35,5.03L32.35,5.03z M31.9,0c12.44-1.09,23.41,7.95,24.48,20.2
		c1.08,12.25-8.14,23.07-20.58,24.17c-12.44,1.09-23.41-7.95-24.48-20.2C10.24,11.91,19.46,1.09,31.9,0L31.9,0z"/>
</g>
</svg>
