<?xml version="1.0" encoding="utf-8"?>
<!-- Generator: Adobe Illustrator 25.4.0, SVG Export Plug-In . SVG Version: 6.00 Build 0)  -->
<svg version="1.1" id="Layer_1" xmlns="http://www.w3.org/2000/svg" xmlns:xlink="http://www.w3.org/1999/xlink" x="0px" y="0px"
	 viewBox="0 0 62 62" style="enable-background:new 0 0 62 62;" xml:space="preserve">
<style type="text/css">
	.st0{fill:#4D4D4D;}
</style>
<g>
	<path class="st0" d="M62,35.93v-9.86h-6.17c-0.66-3.33-1.97-6.42-3.79-9.14l4.36-4.36l-6.97-6.97l-4.36,4.36
		c-2.72-1.82-5.81-3.13-9.14-3.79V0h-9.86v6.17c-3.33,0.66-6.42,1.96-9.14,3.79l-4.36-4.36l-6.97,6.97l4.36,4.36
		c-1.82,2.72-3.13,5.81-3.79,9.14H0v9.86h6.17c0.66,3.33,1.96,6.42,3.79,9.14l-4.36,4.36l6.97,6.97l4.36-4.36
		c2.72,1.82,5.81,3.13,9.14,3.78V62h9.86v-6.17c3.33-0.66,6.42-1.96,9.14-3.78l4.36,4.36l6.97-6.97l-4.36-4.36
		c1.82-2.72,3.13-5.81,3.79-9.14H62z M31,45.23c-7.86,0-14.24-6.37-14.24-14.23c0-7.86,6.37-14.23,14.24-14.23
		c7.86,0,14.23,6.37,14.23,14.23C45.23,38.86,38.86,45.23,31,45.23z"/>
	<path class="st0" d="M31,38.94c0.95,0,1.71-0.43,1.71-0.95v-6.6c1.55-0.67,2.62-2.2,2.62-3.98c0-2.4-1.94-4.34-4.34-4.34
		c-2.39,0-4.34,1.94-4.34,4.34c0,1.78,1.08,3.32,2.62,3.98v6.6C29.29,38.51,30.05,38.94,31,38.94z"/>
</g>
</svg>
