<?xml version="1.0" encoding="utf-8"?>
<!-- Generator: Adobe Illustrator 25.4.0, SVG Export Plug-In . SVG Version: 6.00 Build 0)  -->
<svg version="1.1" id="Layer_1" xmlns="http://www.w3.org/2000/svg" xmlns:xlink="http://www.w3.org/1999/xlink" x="0px" y="0px"
	 viewBox="0 0 38.69 62.1" style="enable-background:new 0 0 38.69 62.1;" xml:space="preserve">
<style type="text/css">
	.st0{fill:#4D4D4D;}
</style>
<g>
	<path class="st0" d="M34.82,28.37H3.87C1.73,28.37,0,30.1,0,32.24v25.99c0,2.14,1.73,3.87,3.87,3.87h30.95
		c2.14,0,3.87-1.73,3.87-3.87V32.24C38.69,30.1,36.96,28.37,34.82,28.37z M21.71,46.29v9.13c0,0.73-1.06,1.32-2.37,1.32
		c-1.31,0-2.37-0.59-2.37-1.32v-9.13c-2.13-0.92-3.63-3.04-3.63-5.51c0-3.31,2.68-6,6-6c3.31,0,6,2.68,6,6
		C25.34,43.26,23.85,45.37,21.71,46.29z"/>
	<path class="st0" d="M19.34,6.71c6.85,0,12.63,7.17,12.63,15.66v2.91c0,1.28,1.04,2.32,2.32,2.32h2.07c1.28,0,2.32-1.04,2.32-2.32
		v-2.91C38.69,10.07,29.98,0,19.34,0C8.71,0,0,10.07,0,22.37v2.91c0,1.28,1.04,2.32,2.32,2.32h2.07c1.28,0,2.32-1.04,2.32-2.32
		v-2.91C6.71,13.88,12.5,6.71,19.34,6.71z"/>
</g>
</svg>
