<svg width="15" height="11" viewBox="0 0 15 11" fill="none" xmlns="http://www.w3.org/2000/svg">
<path d="M14.8389 4.05538C14.8701 3.14955 14.6729 2.25049 14.2656 1.44169C13.9893 1.10983 13.6059 0.885866 13.1821 0.808841C11.4291 0.649062 9.66897 0.583573 7.90908 0.612657C6.15561 0.582253 4.40177 0.645628 2.65501 0.802513C2.30966 0.865619 1.99007 1.02834 1.73523 1.27082C1.16824 1.79609 1.10524 2.69475 1.04225 3.45417C0.950843 4.81959 0.950843 6.18964 1.04225 7.55506C1.06047 7.98249 1.12383 8.40678 1.23124 8.82077C1.3072 9.1404 1.46089 9.43612 1.67853 9.68145C1.9351 9.93678 2.26214 10.1088 2.61721 10.1751C3.9754 10.3435 5.34392 10.4133 6.71211 10.3839C8.91706 10.4156 10.8511 10.3839 13.138 10.2067C13.5017 10.1445 13.838 9.97227 14.1018 9.71309C14.2782 9.53584 14.41 9.31889 14.4861 9.08024C14.7114 8.38576 14.8221 7.65892 14.8137 6.92854C14.8389 6.57414 14.8389 4.43509 14.8389 4.05538ZM6.48532 7.30825V3.39088L10.2148 5.35906C9.16905 5.94129 7.78939 6.59945 6.48532 7.30825Z" fill="white"/>
</svg>
