<?xml version="1.0" encoding="utf-8"?>
<!-- Generator: Adobe Illustrator 25.4.0, SVG Export Plug-In . SVG Version: 6.00 Build 0)  -->
<svg version="1.1" id="레이어_1" xmlns="http://www.w3.org/2000/svg" xmlns:xlink="http://www.w3.org/1999/xlink" x="0px"
	 y="0px" viewBox="0 0 87.62 26.3" style="enable-background:new 0 0 87.62 26.3;" xml:space="preserve">
<style type="text/css">
	.st0{fill:#E83827;}
	.st1{fill:#323333;}
	.st2{fill:#E8373E;}
</style>
<g>
	<g>
		<g>
			<path class="st0" d="M-72.67,12.59L-72.67,12.59c-1.17,0-2.11,0.94-2.11,2.11V27h4.22V14.7C-70.56,13.54-71.5,12.59-72.67,12.59"
				/>
			<path class="st0" d="M-79.02,12.59h-6.12c-1.17,0-2.11,0.94-2.11,2.11c0,1.17,0.94,2.11,2.11,2.11h4.23
				c0.47,0,0.85,0.38,0.85,0.85V27h4.22V15.77C-75.84,14.01-77.26,12.59-79.02,12.59"/>
			<path class="st0" d="M-61.5,22.97c-1.75,0-3.17-1.42-3.17-3.17c0-1.75,1.42-3.17,3.17-3.17c1.75,0,3.17,1.42,3.17,3.17
				C-58.33,21.55-59.75,22.97-61.5,22.97 M-51.18,12.59c-1.17,0-2.11,0.94-2.11,2.11v3.09h-1.29c-0.87-3-3.64-5.2-6.92-5.2
				c-3.98,0-7.2,3.23-7.2,7.21c0,3.98,3.23,7.2,7.2,7.2c3.21,0,5.92-2.09,6.86-4.99h1.35V27h4.22V14.7
				C-49.06,13.54-50.01,12.59-51.18,12.59"/>
			<path class="st0" d="M-43.81,17.66c0-0.47,0.38-0.85,0.85-0.85h1.35v5.96h-1.35c-0.47,0-0.85-0.38-0.85-0.85V17.66z
				 M-48.05,15.77v1.05v5.94v0.03v1.05c0,1.75,1.42,3.18,3.18,3.18h8.16v-4.22h-1.13v-5.96h1.13v-4.22h-8.16
				C-46.63,12.59-48.05,14.01-48.05,15.77"/>
			<path class="st0" d="M-22.64,22.88c-1.18,0-2.14,0.96-2.14,2.14c0,1.18,0.96,2.14,2.14,2.14c1.18,0,2.13-0.96,2.13-2.14
				C-20.5,23.83-21.46,22.88-22.64,22.88"/>
			<path class="st0" d="M-93.77,20.75c0.04-0.31,0.06-0.62,0.06-0.95c0-0.32-0.02-0.63-0.06-0.93h1.46v1.88H-93.77z M-100.92,22.97
				c-1.75,0-3.17-1.42-3.17-3.17c0-1.75,1.42-3.17,3.17-3.17c1.75,0,3.17,1.42,3.17,3.17C-97.74,21.55-99.16,22.97-100.92,22.97
				 M-90.2,12.59c-1.17,0-2.11,0.94-2.11,2.11v0.38v0.12h-3.05c-1.32-1.6-3.32-2.62-5.55-2.62c-3.98,0-7.21,3.23-7.21,7.21
				c0,3.98,3.23,7.2,7.21,7.2c2.23,0,4.23-1.02,5.55-2.61h3.05v0.12V27h4.22V14.7C-88.09,13.54-89.03,12.59-90.2,12.59"/>
			<path class="st0" d="M-30.71,12.6c-2.73,0-4.94,2.21-4.94,4.94V27h4.22v-9.46c0-0.39,0.32-0.71,0.71-0.71
				c0.4,0,0.71,0.32,0.71,0.71V27h4.22v-9.46C-25.77,14.81-27.98,12.6-30.71,12.6"/>
			<path class="st1" d="M-106.83,3.16h7.11c0.14,0,0.22,0.12,0.22,0.27c0,0.17-0.08,0.28-0.22,0.28h-3.24v1.1h1.45
				c0.78,0,0.86,0.04,0.86,0.8v1.68c0,0.15-0.12,0.24-0.32,0.24c-0.2,0-0.32-0.09-0.32-0.24V5.48c0-0.13-0.02-0.14-0.13-0.14h-4.4
				c-0.16,0-0.24-0.11-0.24-0.28c0-0.18,0.08-0.27,0.24-0.27h2.23V3.7h-3.24c-0.14,0-0.21-0.11-0.21-0.28
				C-107.05,3.27-106.97,3.16-106.83,3.16 M-102.94-0.53v0.38c0,1.2,1.35,1.84,2.55,2.03c0.14,0.03,0.22,0.19,0.16,0.36
				c-0.04,0.15-0.16,0.21-0.33,0.18c-1.17-0.21-2.29-0.73-2.7-1.67c-0.41,0.95-1.52,1.45-2.68,1.68c-0.18,0.03-0.3-0.02-0.36-0.18
				c-0.05-0.17,0.02-0.34,0.17-0.37c1.25-0.21,2.53-0.85,2.53-2.04v-0.38c0-0.15,0.12-0.25,0.33-0.25
				C-103.06-0.78-102.94-0.68-102.94-0.53"/>
			<path class="st1" d="M-98.08,0.96h2.56V-0.2c0-0.14,0.12-0.23,0.31-0.23c0.2,0,0.31,0.09,0.31,0.23v2.78
				c0,0.79-0.13,0.81-0.86,0.81h-2.1c-0.86,0-0.85-0.13-0.85-0.82V-0.2c0-0.14,0.12-0.23,0.31-0.23c0.2,0,0.31,0.09,0.31,0.23V0.96z
				 M-98.08,2.7c0,0.14,0.03,0.16,0.17,0.16h2.22c0.15,0,0.17-0.02,0.17-0.17V1.48h-2.56V2.7z M-92.7,7.19
				c0,0.14-0.12,0.23-0.31,0.23c-0.2,0-0.32-0.09-0.32-0.23V5.12c0-0.13-0.03-0.14-0.15-0.14h-4.23c-0.16,0-0.24-0.1-0.24-0.27
				c0-0.18,0.08-0.27,0.24-0.27h4.46c0.4,0,0.55,0.11,0.55,0.52V7.19z M-93.31-0.6c0-0.15,0.12-0.23,0.3-0.23
				c0.2,0,0.31,0.08,0.31,0.23v1.91h1.2c0.15,0,0.23,0.1,0.23,0.28c0,0.18-0.08,0.28-0.23,0.28h-1.2v1.85
				c0,0.17-0.11,0.26-0.31,0.26c-0.2,0-0.3-0.09-0.3-0.26V-0.6z"/>
			<path class="st1" d="M-86.92,7.18c0,0.17-0.12,0.26-0.31,0.26c-0.21,0-0.33-0.09-0.33-0.26V4.53h-3.23
				c-0.14,0-0.22-0.1-0.22-0.28c0-0.18,0.08-0.28,0.22-0.28h7.1c0.15,0,0.23,0.1,0.23,0.28c0,0.18-0.08,0.28-0.23,0.28h-3.23V7.18z
				 M-89.24,0.65h4v-1c0-0.15,0.13-0.24,0.31-0.24c0.21,0,0.33,0.09,0.33,0.24v2.8c0,0.38-0.17,0.51-0.57,0.51h-4.16
				c-0.41,0-0.55-0.14-0.55-0.52v-2.79c0-0.15,0.12-0.24,0.32-0.24c0.2,0,0.32,0.09,0.32,0.24V0.65z M-89.24,2.26
				c0,0.14,0.03,0.15,0.17,0.15h3.66c0.15,0,0.17-0.01,0.17-0.16V1.18h-4V2.26z"/>
			<path class="st1" d="M-82.52,0.42c0-0.42,0.12-0.56,0.58-0.56h2.95c0.15,0,0.24,0.11,0.24,0.29c0,0.17-0.09,0.28-0.24,0.28h-2.71
				c-0.17,0-0.19,0.03-0.19,0.17v1.51h2.6c0.15,0,0.23,0.11,0.23,0.28c0,0.18-0.08,0.27-0.23,0.27h-2.6v1.62
				c0,0.16,0.03,0.19,0.18,0.19c1.32,0.03,2.35-0.04,3.22-0.24c0.13-0.03,0.25,0.04,0.29,0.2c0.03,0.18-0.04,0.3-0.17,0.33
				c-0.9,0.22-2.02,0.29-3.54,0.26c-0.45-0.01-0.61-0.17-0.61-0.63V0.42z M-76.82-0.61c0-0.14,0.11-0.24,0.31-0.24
				c0.2,0,0.31,0.1,0.31,0.24V7c0,0.17-0.12,0.26-0.31,0.26c-0.2,0-0.31-0.09-0.31-0.26V2.47h-1.52c-0.16,0-0.25-0.1-0.25-0.27
				c0-0.19,0.09-0.29,0.25-0.29h1.52V-0.61z"/>
			<path class="st1" d="M-70.61-0.29c1.11,0,1.84,0.76,1.84,1.87c0,1.11-0.73,1.87-1.84,1.87c-1.13,0-1.86-0.75-1.86-1.87
				C-72.47,0.46-71.74-0.29-70.61-0.29 M-70.61,2.91c0.79,0,1.25-0.59,1.25-1.33c0-0.75-0.46-1.33-1.25-1.33
				c-0.8,0-1.26,0.58-1.26,1.33C-71.87,2.32-71.41,2.91-70.61,2.91 M-65.59,7.25c0,0.15-0.12,0.24-0.31,0.24
				c-0.2,0-0.32-0.09-0.32-0.24V5.2c0-0.12-0.03-0.13-0.14-0.13h-4.52c-0.16,0-0.24-0.11-0.24-0.28c0-0.17,0.08-0.28,0.24-0.28h4.74
				c0.4,0,0.55,0.12,0.55,0.51V7.25z M-66.2-0.6c0-0.15,0.11-0.23,0.3-0.23c0.2,0,0.3,0.08,0.3,0.23v4.39c0,0.17-0.1,0.25-0.3,0.25
				c-0.22,0-0.3-0.1-0.3-0.25V1.84h-1.25V3.7c0,0.16-0.11,0.25-0.3,0.25c-0.23,0-0.31-0.11-0.31-0.25v-4.15
				c0-0.13,0.11-0.22,0.31-0.22c0.2,0,0.3,0.09,0.3,0.22v1.74h1.25V-0.6z"/>
			<path class="st1" d="M-64.01,0.42c0-0.42,0.12-0.56,0.59-0.56h3.01c0.15,0,0.24,0.11,0.24,0.29c0,0.17-0.09,0.28-0.24,0.28h-2.79
				c-0.16,0-0.18,0.03-0.18,0.17v1.5h2.83c0.15,0,0.24,0.1,0.24,0.27c0,0.18-0.09,0.28-0.24,0.28h-2.83v1.62
				c0,0.16,0.03,0.18,0.18,0.19c1.55,0.02,2.7-0.04,3.66-0.28c0.12-0.03,0.25,0.05,0.28,0.21c0.04,0.18-0.04,0.29-0.15,0.33
				c-0.97,0.25-2.19,0.31-3.98,0.29c-0.45,0-0.62-0.17-0.62-0.62V0.42z M-58.46-0.6c0-0.15,0.11-0.24,0.3-0.24
				c0.21,0,0.32,0.09,0.32,0.24V7c0,0.17-0.12,0.26-0.32,0.26c-0.2,0-0.3-0.09-0.3-0.26V-0.6z"/>
			<path class="st1" d="M-55.35,1.75h2.56v-1.88c0-0.15,0.12-0.24,0.31-0.24c0.19,0,0.31,0.09,0.31,0.24v4.55
				c0,0.38-0.17,0.52-0.58,0.52h-2.67c-0.42,0-0.56-0.14-0.56-0.53v-4.54c0-0.14,0.12-0.23,0.32-0.23c0.2,0,0.31,0.09,0.31,0.23
				V1.75z M-55.35,4.23c0,0.14,0.02,0.16,0.16,0.16h2.23c0.15,0,0.17-0.02,0.17-0.16V2.27h-2.56V4.23z M-50.45-0.59
				c0-0.15,0.12-0.24,0.31-0.24c0.21,0,0.31,0.09,0.31,0.24V7c0,0.17-0.11,0.26-0.31,0.26S-50.45,7.17-50.45,7V-0.59z"/>
			<path class="st1" d="M-47.98,0.42c0-0.42,0.12-0.56,0.59-0.56h3.01c0.15,0,0.24,0.11,0.24,0.29c0,0.17-0.09,0.28-0.24,0.28h-2.79
				c-0.16,0-0.18,0.03-0.18,0.17v1.5h2.83c0.15,0,0.24,0.1,0.24,0.27c0,0.18-0.09,0.28-0.24,0.28h-2.83v1.62
				c0,0.16,0.03,0.18,0.18,0.19c1.55,0.02,2.7-0.04,3.66-0.28c0.12-0.03,0.25,0.05,0.28,0.21c0.04,0.18-0.04,0.29-0.15,0.33
				c-0.97,0.25-2.19,0.31-3.98,0.29c-0.45,0-0.62-0.17-0.62-0.62V0.42z M-42.42-0.6c0-0.15,0.11-0.24,0.3-0.24
				c0.21,0,0.32,0.09,0.32,0.24V7c0,0.17-0.12,0.26-0.32,0.26c-0.2,0-0.3-0.09-0.3-0.26V-0.6z"/>
			<path class="st1" d="M-38.67-0.04c0.51,0,0.46,0.33,0.46,0.84c-0.06,1.68-0.54,3.04-1.77,4.21c-0.06,0.06-0.13,0.09-0.2,0.09
				c-0.15,0-0.31-0.14-0.31-0.3c0-0.07,0.04-0.14,0.1-0.2c1.17-1.04,1.58-2.43,1.58-3.91c0-0.14-0.02-0.17-0.15-0.17h-1.1
				c-0.14,0-0.23-0.1-0.23-0.28c0-0.17,0.09-0.27,0.23-0.27H-38.67z M-36.44-0.04c0.52,0,0.47,0.34,0.47,0.85
				c-0.03,1.87-0.36,3.32-1.64,4.71c-0.06,0.07-0.14,0.1-0.21,0.1c-0.18,0-0.32-0.17-0.32-0.3c0-0.07,0.03-0.14,0.07-0.2
				c1.2-1.34,1.48-2.72,1.49-4.43c0-0.14-0.02-0.18-0.16-0.18h-0.89c-0.14,0-0.23-0.1-0.23-0.28c0-0.17,0.09-0.27,0.23-0.27H-36.44z
				 M-34.78-0.59c0-0.15,0.11-0.24,0.3-0.24c0.2,0,0.3,0.09,0.3,0.24v2.74h1.2c0.15,0,0.23,0.1,0.23,0.28
				c0,0.18-0.08,0.28-0.23,0.28h-1.2V7c0,0.17-0.1,0.26-0.3,0.26c-0.2,0-0.3-0.09-0.3-0.26V-0.59z"/>
			<path class="st1" d="M-31.71,5.11c-0.17,0.1-0.31,0.05-0.41-0.11c-0.09-0.15-0.06-0.3,0.09-0.39c1.01-0.61,1.86-1.44,1.86-3.14
				V0.49h-1.71c-0.15,0-0.22-0.12-0.22-0.29c0-0.16,0.08-0.27,0.22-0.27h4.11c0.15,0,0.23,0.11,0.23,0.27
				c0,0.17-0.08,0.29-0.23,0.29h-1.75v0.99c0,1.68,0.98,2.52,1.93,3c0.14,0.07,0.17,0.24,0.09,0.39c-0.1,0.17-0.22,0.21-0.4,0.12
				c-0.83-0.43-1.62-1.15-1.92-2.11C-30.1,3.86-30.81,4.62-31.71,5.11 M-25.77-0.6V7c0,0.17-0.12,0.26-0.32,0.26
				c-0.2,0-0.3-0.09-0.3-0.26V-0.6c0-0.15,0.11-0.24,0.3-0.24C-25.88-0.84-25.77-0.75-25.77-0.6"/>
		</g>
	</g>
</g>
<g>
	<path class="st0" d="M-31.67-290.57L-31.67-290.57c-2.37,0-4.29,1.92-4.29,4.28v24.96h8.57v-24.96
		C-27.39-288.65-29.31-290.57-31.67-290.57"/>
	<path class="st0" d="M-44.56-290.57h-12.42c-2.37,0-4.28,1.92-4.28,4.28c0,2.37,1.92,4.28,4.28,4.28h8.57
		c0.95,0,1.72,0.77,1.72,1.72v18.96h8.57v-22.79C-38.12-287.68-41-290.57-44.56-290.57"/>
	<path class="st0" d="M-9-269.51c-3.55,0-6.43-2.88-6.43-6.43c0-3.55,2.88-6.43,6.43-6.43c3.55,0,6.43,2.88,6.43,6.43
		C-2.57-272.39-5.45-269.51-9-269.51 M11.94-290.57c-2.37,0-4.28,1.92-4.28,4.28v6.26H5.04C3.27-286.11-2.34-290.57-9-290.57
		c-8.07,0-14.62,6.54-14.62,14.62c0,8.07,6.55,14.62,14.62,14.62c6.51,0,12.02-4.25,13.92-10.13h2.74v10.13h8.57v-24.96
		C16.22-288.65,14.3-290.57,11.94-290.57"/>
	<path class="st0" d="M26.88-280.28c0-0.95,0.77-1.72,1.72-1.72h2.73v12.1h-2.73c-0.95,0-1.72-0.77-1.72-1.72V-280.28z
		 M18.28-284.12v2.12v12.04v0.06v2.12c0,3.56,2.89,6.45,6.45,6.45H41.3v-8.57H39V-282h2.3v-8.57H24.73
		C21.17-290.57,18.28-287.68,18.28-284.12"/>
	<path class="st0" d="M69.85-269.7c-2.39,0-4.33,1.94-4.33,4.33c0,2.39,1.94,4.33,4.33,4.33c2.39,0,4.33-1.94,4.33-4.33
		C74.18-267.76,72.24-269.7,69.85-269.7"/>
	<path class="st0" d="M-74.51-274.02c0.08-0.63,0.13-1.27,0.13-1.92c0-0.64-0.05-1.27-0.12-1.89h2.96v3.82H-74.51z M-89-269.51
		c-3.55,0-6.43-2.88-6.43-6.43c0-3.55,2.88-6.43,6.43-6.43c3.55,0,6.43,2.88,6.43,6.43C-82.56-272.39-85.44-269.51-89-269.51
		 M-67.25-290.57c-2.37,0-4.28,1.92-4.28,4.28v0.77v0.25h-6.19c-2.68-3.24-6.74-5.31-11.27-5.31c-8.07,0-14.62,6.54-14.62,14.62
		c0,8.07,6.55,14.62,14.62,14.62c4.53,0,8.59-2.06,11.27-5.31h6.19v0.25v5.06h8.57v-24.96C-62.97-288.65-64.89-290.57-67.25-290.57"
		/>
	<path class="st0" d="M53.48-290.55c-5.54,0-10.02,4.49-10.02,10.02v19.21h8.57v-19.21c0-0.8,0.65-1.45,1.45-1.45
		c0.8,0,1.45,0.65,1.45,1.45v19.21h8.57v-19.21C63.5-286.07,59.01-290.55,53.48-290.55"/>
</g>
<g>
	<path class="st0" d="M35.45,11.74L35.45,11.74c-1.16,0-2.11,0.94-2.11,2.11v12.3h4.22v-12.3C37.57,12.69,36.62,11.74,35.45,11.74"
		/>
	<path class="st0" d="M29.1,11.75h-6.12c-1.17,0-2.11,0.94-2.11,2.11c0,1.17,0.95,2.11,2.11,2.11h4.23c0.47,0,0.85,0.38,0.85,0.85
		v9.34h4.22V14.92C32.28,13.17,30.86,11.75,29.1,11.75"/>
	<path class="st0" d="M46.62,22.12c-1.75,0-3.17-1.42-3.17-3.17c0-1.75,1.42-3.17,3.17-3.17s3.17,1.42,3.17,3.17
		C49.8,20.7,48.38,22.12,46.62,22.12 M56.95,11.74c-1.17,0-2.11,0.94-2.11,2.11v3.09h-1.29c-0.87-3-3.64-5.2-6.92-5.2
		c-3.98,0-7.2,3.23-7.2,7.2s3.23,7.21,7.2,7.21c3.21,0,5.92-2.1,6.86-4.99h1.35v4.99h4.22v-12.3
		C59.06,12.69,58.11,11.74,56.95,11.74"/>
	<path class="st0" d="M64.31,16.82c0-0.47,0.38-0.85,0.85-0.85h1.35v5.96h-1.35c-0.47,0-0.85-0.38-0.85-0.85V16.82z M60.07,14.92
		v1.05v5.93v0.03v1.05c0,1.75,1.42,3.18,3.18,3.18h8.17v-4.22h-1.13v-5.96h1.13v-4.22h-8.17C61.49,11.75,60.07,13.17,60.07,14.92"/>
	<path class="st0" d="M85.48,22.03c-1.18,0-2.13,0.96-2.13,2.14c0,1.18,0.96,2.13,2.13,2.13c1.18,0,2.14-0.96,2.14-2.13
		C87.62,22.99,86.66,22.03,85.48,22.03"/>
	<path class="st0" d="M14.35,19.9c0.04-0.31,0.06-0.63,0.06-0.95c0-0.32-0.02-0.63-0.06-0.93h1.46v1.88H14.35z M7.21,22.12
		c-1.75,0-3.17-1.42-3.17-3.17c0-1.75,1.42-3.17,3.17-3.17c1.75,0,3.17,1.42,3.17,3.17C10.38,20.7,8.96,22.12,7.21,22.12
		 M17.92,11.74c-1.17,0-2.11,0.94-2.11,2.11v0.38v0.12h-3.05c-1.32-1.6-3.32-2.61-5.55-2.61c-3.98,0-7.21,3.23-7.21,7.2
		s3.23,7.21,7.21,7.21c2.23,0,4.23-1.02,5.55-2.62h3.05v0.12v2.49h4.22v-12.3C20.03,12.69,19.09,11.74,17.92,11.74"/>
	<path class="st0" d="M77.42,11.75c-2.73,0-4.94,2.21-4.94,4.94v9.46h4.22v-9.46c0-0.39,0.32-0.71,0.71-0.71
		c0.4,0,0.71,0.32,0.71,0.71v9.46h4.22v-9.46C82.35,13.96,80.14,11.75,77.42,11.75"/>
	<path class="st1" d="M8.09,1.04c-0.13,0-0.14,0.01-0.14,0.13v2.71c0,0.12,0.02,0.14,0.14,0.14h0.31c0.62,0,1.22-0.05,1.68-0.17
		l0.07-0.01c0.1,0,0.18,0.08,0.18,0.23c0,0.09-0.05,0.16-0.12,0.18c-0.5,0.12-1.24,0.18-2,0.18H7.85C7.58,4.44,7.47,4.29,7.47,3.97
		V1.3c0-0.63,0.04-0.67,0.71-0.67h1.54c0.12,0,0.18,0.08,0.18,0.2c0,0.14-0.06,0.21-0.18,0.21H8.09z M12.13,0.18
		c0-0.12,0.08-0.18,0.23-0.18c0.15,0,0.23,0.06,0.23,0.18V6c0,0.12-0.08,0.19-0.23,0.19c-0.15,0-0.23-0.07-0.23-0.19V2.77h-0.94
		v3.08c0,0.12-0.08,0.19-0.23,0.19c-0.16,0-0.24-0.07-0.24-0.19V0.29c0-0.1,0.08-0.17,0.24-0.17c0.14,0,0.23,0.07,0.23,0.17v2.04
		h0.94V0.18z"/>
	<path class="st1" d="M13.54,1.71c-0.13,0-0.18-0.07-0.18-0.2s0.06-0.21,0.18-0.21h3.43c0.12,0,0.18,0.08,0.18,0.21
		c0,0.13-0.05,0.2-0.18,0.2H13.54z M15.28,2.14c0.93,0,1.45,0.38,1.45,1.02c0,0.64-0.52,1.02-1.45,1.02s-1.45-0.38-1.45-1.02
		C13.83,2.52,14.34,2.14,15.28,2.14 M14.43,0.66c-0.12,0-0.18-0.08-0.18-0.21c0-0.12,0.05-0.2,0.18-0.2h1.67
		c0.12,0,0.18,0.07,0.18,0.2c0,0.13-0.05,0.21-0.18,0.21H14.43z M15.28,3.83c0.64,0,0.98-0.25,0.98-0.67c0-0.42-0.34-0.67-0.98-0.67
		c-0.65,0-0.98,0.25-0.98,0.67C14.3,3.58,14.64,3.83,15.28,3.83 M14.4,4.71c0-0.12,0.1-0.18,0.25-0.18c0.15,0,0.25,0.07,0.25,0.18
		v1.02c0,0.1,0.01,0.11,0.12,0.11h3.27c0.13,0,0.18,0.07,0.18,0.21c0,0.13-0.05,0.2-0.18,0.2h-3.46c-0.31,0-0.42-0.08-0.42-0.4V4.71
		z M17.76,0.18C17.76,0.07,17.85,0,18,0c0.14,0,0.24,0.07,0.24,0.18v2.13h0.91c0.12,0,0.18,0.07,0.18,0.21
		c0,0.14-0.05,0.21-0.18,0.21h-0.91v1.93c0,0.13-0.09,0.2-0.24,0.2c-0.15,0-0.24-0.07-0.24-0.2V0.18z"/>
	<path class="st1" d="M19.91,0.86c0-0.29,0.11-0.4,0.39-0.4h2.24c0.28,0,0.39,0.12,0.39,0.4v2c0,0.3-0.11,0.41-0.39,0.41H20.3
		c-0.29,0-0.39-0.1-0.39-0.41V0.86z M20.52,0.87c-0.11,0-0.12,0.02-0.12,0.12v1.76c0,0.1,0.01,0.12,0.12,0.12h1.81
		c0.11,0,0.12-0.01,0.12-0.12V0.99c0-0.1-0.02-0.12-0.12-0.12H20.52z M20.75,4.17c0-0.12,0.09-0.18,0.25-0.18
		c0.15,0,0.25,0.06,0.25,0.18v1.47c0,0.09,0.01,0.11,0.12,0.11h3.33c0.12,0,0.18,0.07,0.18,0.21c0,0.13-0.06,0.21-0.18,0.21h-3.5
		c-0.31,0-0.44-0.1-0.44-0.41V4.17z M24.17,0.18c0-0.12,0.1-0.18,0.24-0.18c0.15,0,0.24,0.06,0.24,0.18v4.14
		c0,0.13-0.08,0.2-0.24,0.2c-0.16,0-0.24-0.07-0.24-0.2V0.18z"/>
	<path class="st1" d="M25.81,2.92c-0.11,0-0.16-0.08-0.16-0.2c0-0.12,0.05-0.21,0.16-0.21h3.97c0.15-0.37,0.23-0.78,0.23-1.27V0.8
		c0-0.1-0.01-0.12-0.12-0.12h-3.25c-0.12,0-0.18-0.08-0.18-0.21c0-0.14,0.07-0.21,0.18-0.21h3.5c0.34,0,0.37,0.17,0.37,0.57v0.25
		c0,0.54-0.07,1-0.26,1.42h1c0.11,0,0.17,0.09,0.17,0.21c0,0.12-0.06,0.2-0.17,0.2h-2.47V4.1h1.35c0.31,0,0.44,0.09,0.44,0.4v1.64
		c0,0.11-0.09,0.18-0.25,0.18c-0.15,0-0.25-0.08-0.25-0.18V4.63c0-0.1-0.01-0.1-0.11-0.1h-3.37c-0.12,0-0.18-0.07-0.18-0.21
		c0-0.13,0.06-0.21,0.18-0.21h1.7V2.92H25.81z"/>
	<polygon class="st2" points="37.06,5.41 37.06,5.74 33.64,5.74 33.64,5.41 35.22,5.41 35.22,0.84 33.75,1.4 33.75,1.02 35.4,0.39 
		35.61,0.39 35.61,5.41 	"/>
	<path class="st2" d="M37.48,3.46c-0.11,0-0.17-0.08-0.17-0.21c0-0.12,0.06-0.2,0.17-0.2h5.44c0.11,0,0.17,0.09,0.17,0.2
		c0,0.13-0.06,0.21-0.17,0.21H37.48z M40.2,4.07c1.39,0,2.06,0.38,2.06,1.11c0,0.72-0.67,1.09-2.06,1.09c-1.4,0-2.07-0.37-2.07-1.09
		C38.14,4.44,38.81,4.07,40.2,4.07 M38.21,0.67c0-0.31,0.1-0.44,0.44-0.44h3.42c0.12,0,0.18,0.07,0.18,0.21
		c0,0.14-0.06,0.21-0.18,0.21h-3.23c-0.11,0-0.12,0.02-0.12,0.12v1.06c0,0.11,0.02,0.12,0.12,0.12h3.25c0.12,0,0.18,0.08,0.18,0.21
		c0,0.14-0.07,0.21-0.19,0.21h-3.42c-0.32,0-0.45-0.08-0.45-0.44V0.67z M40.2,5.88c1.12,0,1.56-0.26,1.56-0.71
		c0-0.45-0.44-0.71-1.56-0.71c-1.12,0-1.58,0.26-1.58,0.71C38.63,5.62,39.08,5.88,40.2,5.88"/>
	<path class="st1" d="M47.68,2.43c0-0.12,0.1-0.18,0.25-0.18c0.15,0,0.24,0.07,0.24,0.18v0.76h2.47c0.11,0,0.17,0.09,0.17,0.21
		c0,0.12-0.06,0.2-0.17,0.2h-5.44c-0.11,0-0.16-0.08-0.16-0.2c0-0.12,0.05-0.21,0.16-0.21h2.47V2.43z M45.9,2.58
		c-0.14,0.03-0.27-0.05-0.27-0.23c0-0.09,0.05-0.17,0.14-0.18c0.96-0.14,1.88-0.58,1.88-1.4V0.72h-1.72c-0.12,0-0.18-0.08-0.18-0.2
		c0-0.14,0.05-0.21,0.18-0.21h4.01c0.12,0,0.18,0.07,0.18,0.21c0,0.12-0.06,0.2-0.18,0.2h-1.73v0.05c0,0.81,0.98,1.27,1.89,1.39
		c0.09,0.01,0.14,0.1,0.14,0.18c0,0.14-0.09,0.25-0.27,0.23c-0.89-0.12-1.7-0.53-2.04-1.15C47.61,2.06,46.79,2.45,45.9,2.58
		 M47.93,4.14c1.4,0,2.07,0.37,2.07,1.09c0,0.71-0.67,1.08-2.07,1.08c-1.4,0-2.08-0.37-2.08-1.08C45.86,4.51,46.53,4.14,47.93,4.14
		 M47.93,5.92c1.12,0,1.58-0.26,1.58-0.69c0-0.44-0.45-0.7-1.58-0.7c-1.12,0-1.59,0.26-1.59,0.7C46.35,5.66,46.81,5.92,47.93,5.92"
		/>
	<path class="st1" d="M51.32,1.52c-0.13,0-0.18-0.08-0.18-0.2c0-0.13,0.06-0.2,0.18-0.2h3.43c0.12,0,0.18,0.07,0.18,0.2
		c0,0.12-0.05,0.2-0.18,0.2H51.32z M53.06,1.84c0.94,0,1.46,0.34,1.46,0.91c0,0.57-0.52,0.91-1.46,0.91c-0.95,0-1.47-0.34-1.47-0.91
		C51.6,2.18,52.11,1.84,53.06,1.84 M52.22,0.55c-0.12,0-0.18-0.07-0.18-0.2c0-0.12,0.05-0.19,0.18-0.19h1.66
		c0.12,0,0.18,0.07,0.18,0.19c0,0.13-0.05,0.2-0.18,0.2H52.22z M53.06,3.32c0.65,0,0.99-0.2,0.99-0.57c0-0.37-0.34-0.56-0.99-0.56
		c-0.66,0-1,0.2-1,0.56C52.07,3.12,52.41,3.32,53.06,3.32 M52.16,4.21c0-0.11,0.09-0.18,0.24-0.18c0.15,0,0.24,0.07,0.24,0.18v0.59
		h2.92V4.21c0-0.11,0.09-0.18,0.23-0.18c0.14,0,0.24,0.07,0.24,0.18v1.75c0,0.29-0.13,0.38-0.44,0.38h-2.99
		c-0.31,0-0.43-0.1-0.43-0.39V4.21z M52.63,5.19v0.65c0,0.1,0.01,0.12,0.12,0.12h2.67c0.11,0,0.13-0.01,0.13-0.12V5.19H52.63z
		 M55.54,0.18c0-0.12,0.1-0.18,0.24-0.18c0.14,0,0.24,0.07,0.24,0.18v1.75h0.91c0.12,0,0.18,0.08,0.18,0.21
		c0,0.14-0.05,0.22-0.18,0.22h-0.91v1.17c0,0.14-0.09,0.2-0.24,0.2c-0.15,0-0.24-0.07-0.24-0.2V0.18z"/>
	<path class="st1" d="M57.46,3.05h5.44c0.11,0,0.17,0.09,0.17,0.21c0,0.13-0.06,0.21-0.17,0.21h-2.47v0.84h1.11
		c0.6,0,0.66,0.04,0.66,0.61V6.2c0,0.12-0.09,0.18-0.25,0.18c-0.15,0-0.25-0.07-0.25-0.18V4.83c0-0.1-0.01-0.11-0.1-0.11h-3.37
		c-0.12,0-0.19-0.08-0.19-0.21c0-0.14,0.06-0.2,0.19-0.2h1.7V3.47h-2.47c-0.11,0-0.16-0.08-0.16-0.21
		C57.3,3.14,57.36,3.05,57.46,3.05 M60.44,0.24v0.29c0,0.92,1.03,1.4,1.95,1.55c0.11,0.02,0.17,0.14,0.12,0.28
		c-0.04,0.12-0.12,0.16-0.25,0.14c-0.89-0.16-1.75-0.56-2.07-1.27c-0.31,0.72-1.16,1.11-2.05,1.28c-0.14,0.02-0.23-0.01-0.27-0.14
		C57.83,2.24,57.89,2.11,58,2.09c0.96-0.16,1.94-0.65,1.94-1.56V0.24c0-0.12,0.09-0.19,0.25-0.19C60.35,0.05,60.44,0.12,60.44,0.24"
		/>
	<path class="st1" d="M64.15,1.38h1.96V0.48c0-0.11,0.09-0.18,0.24-0.18c0.16,0,0.24,0.07,0.24,0.18v2.13c0,0.61-0.1,0.62-0.65,0.62
		h-1.61c-0.65,0-0.65-0.1-0.65-0.63V0.48c0-0.11,0.1-0.18,0.24-0.18c0.15,0,0.24,0.07,0.24,0.18V1.38z M64.15,2.71
		c0,0.11,0.02,0.12,0.13,0.12h1.7c0.12,0,0.13-0.01,0.13-0.13V1.77h-1.96V2.71z M68.27,6.13c0,0.11-0.09,0.18-0.24,0.18
		c-0.15,0-0.25-0.07-0.25-0.18V4.55c0-0.1-0.02-0.11-0.12-0.11h-3.23c-0.12,0-0.18-0.08-0.18-0.2c0-0.14,0.06-0.21,0.18-0.21h3.41
		c0.31,0,0.42,0.08,0.42,0.4V6.13z M67.8,0.18c0-0.12,0.09-0.18,0.23-0.18c0.15,0,0.24,0.06,0.24,0.18v1.46h0.92
		c0.12,0,0.18,0.08,0.18,0.21c0,0.14-0.06,0.21-0.18,0.21h-0.92v1.42c0,0.13-0.08,0.2-0.24,0.2c-0.15,0-0.23-0.07-0.23-0.2V0.18z"/>
	<path class="st1" d="M71.06,0.36c0.85,0,1.41,0.57,1.41,1.4c0,0.83-0.56,1.4-1.41,1.4c-0.86,0-1.41-0.57-1.41-1.4
		C69.65,0.93,70.2,0.36,71.06,0.36 M71.06,2.75c0.6,0,0.95-0.44,0.95-0.99c0-0.56-0.35-0.99-0.95-0.99c-0.61,0-0.96,0.44-0.96,0.99
		C70.1,2.32,70.45,2.75,71.06,2.75 M71.39,4.62h3.03V3.89c0-0.11,0.09-0.18,0.24-0.18c0.16,0,0.24,0.07,0.24,0.18v1.77
		c0,0.64-0.1,0.61-0.7,0.61h-2.6c-0.68,0-0.68-0.04-0.68-0.62V3.89c0-0.11,0.09-0.18,0.23-0.18c0.15,0,0.25,0.07,0.25,0.18V4.62z
		 M71.39,5.75c0,0.11,0.01,0.12,0.12,0.12h2.78c0.12,0,0.12-0.01,0.12-0.12V5.01h-3.03V5.75z M74.43,0.18
		c0-0.12,0.08-0.18,0.23-0.18c0.17,0,0.23,0.07,0.23,0.18v3.01c0,0.13-0.08,0.19-0.23,0.19c-0.17,0-0.23-0.07-0.23-0.19V1.94h-0.95
		v1.22c0,0.13-0.08,0.2-0.23,0.2c-0.18,0-0.24-0.09-0.24-0.2V0.29c0-0.1,0.08-0.17,0.24-0.17c0.16,0,0.23,0.08,0.23,0.17v1.23h0.95
		V0.18z"/>
</g>
</svg>
