<?xml version="1.0" encoding="utf-8"?>
<!-- Generator: Adobe Illustrator 25.4.0, SVG Export Plug-In . SVG Version: 6.00 Build 0)  -->
<svg version="1.1" id="_xF91C_迹_x5F_1" xmlns="http://www.w3.org/2000/svg" xmlns:xlink="http://www.w3.org/1999/xlink" x="0px"
	 y="0px" viewBox="0 0 1168.84 1168.84" style="enable-background:new 0 0 1168.84 1168.84;" xml:space="preserve">
<style type="text/css">
	.st0{fill:#FFFFFF;}
	.st1{fill:#ED1C24;}
	.st2{fill:#22B573;}
</style>
<rect x="-7579.51" y="-5067.67" class="st0" width="5000" height="5000"/>
<g>
	<g>
		<g>
			<path class="st1" d="M-4134.62-2352.69c98.42,0,193.87,19.27,283.71,57.26c43.18,18.26,84.83,40.87,123.8,67.2
				c38.6,26.08,74.91,56.03,107.9,89.03c32.99,32.99,62.95,69.3,89.03,107.9c26.32,38.96,48.93,80.62,67.2,123.8
				c38,89.84,57.26,185.29,57.26,283.71c0,98.42-19.27,193.87-57.26,283.71c-18.26,43.18-40.87,84.83-67.2,123.8
				c-26.08,38.6-56.03,74.91-89.03,107.9c-32.99,32.99-69.3,62.95-107.9,89.03c-38.96,26.32-80.62,48.93-123.8,67.2
				c-89.84,38-185.29,57.26-283.71,57.26c-98.42,0-193.87-19.27-283.71-57.26c-43.18-18.26-84.83-40.87-123.8-67.2
				c-38.6-26.08-74.91-56.03-107.9-89.03c-32.99-32.99-62.95-69.3-89.03-107.9c-26.32-38.96-48.93-80.62-67.2-123.8
				c-38-89.84-57.26-185.29-57.26-283.71c0-98.42,19.27-193.87,57.26-283.71c18.26-43.18,40.87-84.83,67.2-123.8
				c26.08-38.6,56.03-74.91,89.03-107.9c32.99-32.99,69.3-62.95,107.9-89.03c38.96-26.32,80.62-48.93,123.8-67.2
				C-4328.49-2333.42-4233.04-2352.69-4134.62-2352.69 M-4134.62-2392.69c-424.65,0-768.89,344.25-768.89,768.89
				s344.25,768.89,768.89,768.89s768.89-344.25,768.89-768.89S-3709.97-2392.69-4134.62-2392.69L-4134.62-2392.69z"/>
		</g>
	</g>
	<path class="st1" d="M-4134.62-2208.22c-322.77,0-584.42,261.65-584.42,584.42s261.65,584.42,584.42,584.42
		s584.42-261.65,584.42-584.42S-3811.85-2208.22-4134.62-2208.22z M-3919.1-1264.53l-215.66-215.56l-215.66,215.56l-143.51-143.49
		l215.56-215.77l-215.56-215.54l143.51-143.72l215.66,215.56l215.66-215.35l143.7,143.51l-215.56,215.54l215.66,215.77
		L-3919.1-1264.53z"/>
</g>
<g>
	<path class="st1" d="M-6022.4-2392.65c-424.65,0-768.89,344.25-768.89,768.89s344.25,768.89,768.89,768.89
		s768.89-344.25,768.89-768.89S-5597.75-2392.65-6022.4-2392.65z M-5560.27-1161.62c-60.06,60.06-129.96,107.2-207.78,140.11
		c-80.5,34.05-166.08,51.31-254.36,51.31c-88.28,0-173.86-17.26-254.36-51.31c-77.81-32.91-147.72-80.05-207.78-140.11
		c-60.06-60.06-107.2-129.96-140.11-207.78c-34.05-80.5-51.31-166.08-51.31-254.36s17.26-173.86,51.31-254.36
		c32.91-77.81,80.05-147.72,140.11-207.78c60.06-60.06,129.96-107.2,207.78-140.11c80.5-34.05,166.08-51.31,254.36-51.31
		c88.28,0,173.86,17.26,254.36,51.31c77.81,32.91,147.72,80.05,207.78,140.11c60.06,60.06,107.2,129.96,140.11,207.78
		c34.05,80.5,51.31,166.08,51.31,254.36s-17.26,173.86-51.31,254.36C-5453.07-1291.59-5500.21-1221.68-5560.27-1161.62z"/>
	<path class="st1" d="M-6022.4-1552.68c-169.49,0-320.65,107.54-376.13,267.6c-10.43,30.09,5.51,62.94,35.6,73.38
		c30.09,10.43,62.94-5.51,73.38-35.6c39.4-113.67,146.77-190.04,267.16-190.04c120.39,0,227.75,76.37,267.16,190.04
		c8.26,23.84,30.6,38.8,54.48,38.8c6.26,0,12.64-1.03,18.89-3.2c30.09-10.43,46.03-43.28,35.6-73.38
		C-5701.76-1445.14-5852.91-1552.68-6022.4-1552.68z"/>
	
		<ellipse transform="matrix(0.7071 -0.7071 0.7071 0.7071 -537.9244 -4978.5991)" class="st1" cx="-6278.66" cy="-1839.97" rx="103.53" ry="103.53"/>
	<circle class="st1" cx="-5766.14" cy="-1839.97" r="103.53"/>
</g>
<g>
	<path class="st2" d="M-4135.59-4280.47c-424.65,0-768.89,344.25-768.89,768.89s344.25,768.89,768.89,768.89
		s768.89-344.25,768.89-768.89S-3710.94-4280.47-4135.59-4280.47z M-3673.45-3049.45c-60.06,60.06-129.96,107.2-207.78,140.11
		c-80.5,34.05-166.08,51.31-254.36,51.31c-88.28,0-173.86-17.26-254.36-51.31c-77.81-32.91-147.72-80.05-207.78-140.11
		c-60.06-60.06-107.2-129.96-140.11-207.78c-34.05-80.5-51.31-166.08-51.31-254.36s17.26-173.86,51.31-254.36
		c32.91-77.81,80.05-147.72,140.11-207.78c60.06-60.06,129.96-107.2,207.78-140.11c80.5-34.05,166.08-51.31,254.36-51.31
		c88.28,0,173.86,17.26,254.36,51.31c77.81,32.91,147.72,80.05,207.78,140.11c60.06,60.06,107.2,129.96,140.11,207.78
		c34.05,80.5,51.31,166.08,51.31,254.36s-17.26,173.86-51.31,254.36C-3566.26-3179.41-3613.4-3109.51-3673.45-3049.45z"/>
	<path class="st2" d="M-3795.05-3357.8c-30.09-10.43-62.95,5.5-73.38,35.6c-39.4,113.67-146.77,190.04-267.16,190.04
		c-120.39,0-227.75-76.37-267.16-190.04c-10.43-30.09-43.28-46.04-73.38-35.6c-30.09,10.43-46.03,43.28-35.6,73.38
		c55.48,160.06,206.64,267.6,376.13,267.6c169.49,0,320.65-107.54,376.13-267.6C-3749.02-3314.51-3764.96-3347.37-3795.05-3357.8z"
		/>
	<circle class="st2" cx="-4391.85" cy="-3727.79" r="103.53"/>
	<circle class="st2" cx="-3879.33" cy="-3727.79" r="103.53"/>
</g>
<g>
	<circle class="st0" cx="584.49" cy="584.33" r="584"/>
	<path class="st2" d="M584.42,0C261.65,0,0,261.65,0,584.42s261.65,584.42,584.42,584.42s584.42-261.65,584.42-584.42
		S907.19,0,584.42,0z M486.97,895.82l-0.42-0.4l-0.19,0.4l-285.2-285.27l141.71-141.74l143.68,143.7l339.43-339.5l141.71,141.55
		L486.97,895.82z"/>
</g>
</svg>
