<?xml version="1.0" encoding="utf-8"?>
<!-- Generator: Adobe Illustrator 25.4.0, SVG Export Plug-In . SVG Version: 6.00 Build 0)  -->
<svg version="1.1" id="Layer_1" xmlns="http://www.w3.org/2000/svg" xmlns:xlink="http://www.w3.org/1999/xlink" x="0px" y="0px"
	 viewBox="0 0 600 600" style="enable-background:new 0 0 600 600;" xml:space="preserve">
<style type="text/css">
	.st0{fill:#4D4D4D;}
</style>
<g>
	<path class="st0" d="M62.68,94.51l-3.95-3.96C57.86,89.69,37.5,69.08,37.5,51.02c0-1.54,0.08-3.07,0.23-4.55l0.58-5.57l5.54,0.59
		c0.07,0,0.31,0.02,0.67,0.02c2.42,0,8.65-0.58,14.24-5.94l3.94-3.78l1.27,1.26l2.63,2.52c5.59,5.36,11.82,5.94,14.24,5.94
		c0.4,0,0.65-0.02,0.7-0.02l5.48-0.52l0.61,5.48c0.15,1.49,0.23,3.02,0.23,4.56c0,18.07-20.36,38.67-21.23,39.54L62.68,94.51z
		 M41.62,45l-0.19,1.86c-0.14,1.35-0.21,2.75-0.21,4.16c0,16.54,19.32,36.09,20.14,36.91l1.32,1.32l1.32-1.32
		c0.82-0.82,20.14-20.36,20.14-36.91c0-1.41-0.07-2.81-0.21-4.16l-0.2-1.83l-1.95,0.18c-0.14,0.01-0.46,0.03-0.93,0.03
		c-2.87,0-10.25-0.68-16.82-6.97l-1.35-1.29L62.65,37l0,0l-1.32,1.27c-6.57,6.29-13.95,6.97-16.81,6.97c-0.45,0-0.77-0.02-0.9-0.03
		l-0.13-0.01L41.62,45z"/>
	<path class="st0" d="M82.07,47.05c0,0-10.4,1.12-19.33-7.44c-0.02,0.02-0.04,0.04-0.06,0.06c-0.02-0.02-0.04-0.04-0.06-0.06
		c-8.93,8.56-19.33,7.44-19.33,7.44c-0.13,1.25-0.2,2.57-0.2,3.97c0,15.96,19.6,35.6,19.6,35.6s19.6-19.64,19.6-35.6
		C82.27,49.62,82.2,48.3,82.07,47.05z"/>
</g>
<g>
	<path class="st0" d="M197.07,60.48h-30.95c-2.14,0-3.87,1.73-3.87,3.87v25.99c0,2.14,1.73,3.87,3.87,3.87h30.95
		c2.14,0,3.87-1.73,3.87-3.87V64.34C200.94,62.21,199.21,60.48,197.07,60.48z M183.96,78.4v9.13c0,0.73-1.06,1.32-2.37,1.32
		c-1.31,0-2.37-0.59-2.37-1.32V78.4c-2.13-0.92-3.63-3.04-3.63-5.51c0-3.31,2.68-6,6-6c3.31,0,6,2.68,6,6
		C187.59,75.36,186.1,77.48,183.96,78.4z"/>
	<path class="st0" d="M181.59,38.82c6.85,0,12.63,7.17,12.63,15.66v2.91c0,1.28,1.04,2.32,2.32,2.32h2.07
		c1.28,0,2.32-1.04,2.32-2.32v-2.91c0-12.3-8.71-22.37-19.34-22.37c-10.64,0-19.34,10.07-19.34,22.37v2.91
		c0,1.28,1.04,2.32,2.32,2.32h2.07c1.28,0,2.32-1.04,2.32-2.32v-2.91C168.96,45.99,174.75,38.82,181.59,38.82z"/>
</g>
<g>
	<path class="st0" d="M302.84,56.75c-10.68,0-19.34,8.66-19.34,19.34s8.66,19.34,19.34,19.34c10.68,0,19.34-8.66,19.34-19.34
		S313.53,56.75,302.84,56.75z M305.21,77.16v9.13c0,0.73-1.06,1.32-2.37,1.32c-1.31,0-2.37-0.59-2.37-1.32v-9.13
		c-2.13-0.92-3.63-3.04-3.63-5.51c0-3.31,2.68-6,6-6c3.31,0,6,2.68,6,6C308.84,74.12,307.35,76.24,305.21,77.16z"/>
	<path class="st0" d="M302.84,37.58c6.85,0,12.63,7.17,12.63,15.66v2.91c0,1.28,1.04,2.32,2.32,2.32h2.07
		c1.28,0,2.32-1.04,2.32-2.32v-2.91c0-12.3-8.71-22.37-19.34-22.37c-10.64,0-19.34,10.07-19.34,22.37v2.91
		c0,1.28,1.04,2.32,2.32,2.32h2.07c1.28,0,2.32-1.04,2.32-2.32v-2.91C290.21,44.75,296,37.58,302.84,37.58z"/>
</g>
<g>
	<path class="st0" d="M422.7,94.51l-3.95-3.96c-0.87-0.87-21.23-21.47-21.23-39.54c0-1.54,0.08-3.07,0.23-4.55l0.58-5.57l5.54,0.59
		c0.07,0,0.31,0.02,0.67,0.02c2.42,0,8.65-0.58,14.24-5.94l3.95-3.78l1.27,1.26l2.63,2.52c5.59,5.36,11.82,5.94,14.24,5.94
		c0.4,0,0.65-0.02,0.7-0.02l5.48-0.52l0.61,5.48c0.15,1.49,0.23,3.02,0.23,4.56c0,18.07-20.36,38.67-21.23,39.54L422.7,94.51z
		 M401.65,45l-0.19,1.86c-0.14,1.35-0.21,2.75-0.21,4.16c0,16.54,19.32,36.09,20.14,36.91l1.32,1.32l1.32-1.32
		c0.82-0.82,20.14-20.36,20.14-36.91c0-1.41-0.07-2.81-0.21-4.16l-0.2-1.83l-1.95,0.18c-0.14,0.01-0.46,0.03-0.93,0.03
		c-2.87,0-10.25-0.68-16.81-6.97l-1.35-1.29L422.68,37l0,0l-1.32,1.27c-6.57,6.29-13.95,6.97-16.81,6.97c-0.45,0-0.77-0.02-0.9-0.03
		l-0.13-0.01L401.65,45z"/>
	<path class="st0" d="M442.1,47.05c0,0-10.4,1.12-19.33-7.44c-0.02,0.02-0.04,0.04-0.06,0.06c-0.02-0.02-0.04-0.04-0.06-0.06
		c-8.93,8.56-19.33,7.44-19.33,7.44c-0.13,1.25-0.2,2.57-0.2,3.97c0,15.96,19.6,35.6,19.6,35.6s19.6-19.64,19.6-35.6
		C442.3,49.62,442.23,48.3,442.1,47.05z M415.48,66.63l-4.93-6.99l1.63-1.15l3.74,5.31l17.51-13.05l1.2,1.6L415.48,66.63z"/>
</g>
<g>
	
		<rect x="513.72" y="69.09" transform="matrix(0.943 -0.3329 0.3329 0.943 4.9672 176.5786)" class="st0" width="8.18" height="9.4"/>
	<polygon class="st0" points="574.37,74.01 571.09,77.29 553.07,77.29 550.06,67.45 568.36,60.99 564.42,49.82 563.29,46.62 
		561.26,40.86 505.99,60.37 509.15,69.33 521.93,64.82 525.88,75.99 545.44,69.08 549.46,82.17 549.46,82.17 549.46,82.17 
		571.09,82.17 574.37,85.45 576.74,85.45 576.74,74.01 	"/>
</g>
<g>
	<path class="st0" d="M75.02,155.56H50.33c-0.79,0-1.43,0.86-1.43,1.91v42.94c0,1.05,0.64,1.91,1.43,1.91h24.68
		c0.79,0,1.43-0.86,1.43-1.91v-42.94C76.45,156.41,75.81,155.56,75.02,155.56z M67.8,200.5H57.55c-0.43,0-0.79-0.47-0.79-1.05
		c0-0.58,0.35-1.05,0.79-1.05H67.8c0.44,0,0.79,0.47,0.79,1.05C68.59,200.03,68.23,200.5,67.8,200.5z M73.98,195.03
		c0,0.86-0.53,1.56-1.18,1.56H52.55c-0.65,0-1.18-0.7-1.18-1.56v-35.24c0-0.86,0.53-1.56,1.18-1.56H72.8c0.65,0,1.18,0.7,1.18,1.56
		V195.03z"/>
	<g>
		<path class="st0" d="M67.45,176.15H57.9c-0.66,0-1.19,0.54-1.19,1.19v8.02c0,0.66,0.54,1.19,1.19,1.19h9.55
			c0.66,0,1.19-0.53,1.19-1.19v-8.02C68.65,176.69,68.11,176.15,67.45,176.15z M63.41,181.69v2.82c0,0.22-0.33,0.41-0.73,0.41
			c-0.4,0-0.73-0.18-0.73-0.41v-2.82c-0.66-0.28-1.12-0.94-1.12-1.7c0-1.02,0.83-1.85,1.85-1.85c1.02,0,1.85,0.83,1.85,1.85
			C64.53,180.75,64.07,181.4,63.41,181.69z"/>
		<path class="st0" d="M62.68,169.47c2.11,0,3.9,2.21,3.9,4.83v0.9c0,0.4,0.32,0.72,0.72,0.72h0.64c0.4,0,0.72-0.32,0.72-0.72v-0.9
			c0-3.8-2.69-6.9-5.97-6.9s-5.97,3.11-5.97,6.9v0.9c0,0.4,0.32,0.72,0.72,0.72h0.64c0.4,0,0.72-0.32,0.72-0.72v-0.9
			C58.78,171.68,60.56,169.47,62.68,169.47z"/>
	</g>
</g>
<g>
	<path class="st0" d="M322.35,148.96h-39.02c-1.25,0-2.26,1.1-2.26,2.44v55.06c0,1.35,1.02,2.45,2.26,2.45h39.02
		c1.25,0,2.27-1.1,2.27-2.45V151.4C324.62,150.06,323.6,148.96,322.35,148.96z M310.94,206.59h-16.2c-0.69,0-1.25-0.6-1.25-1.35
		c0-0.74,0.56-1.34,1.25-1.34h16.2c0.69,0,1.25,0.6,1.25,1.34C312.19,205.99,311.63,206.59,310.94,206.59z M320.71,199.57
		c0,1.1-0.83,2.01-1.86,2.01h-32.02c-1.02,0-1.86-0.9-1.86-2.01v-45.18c0-1.1,0.84-2.01,1.86-2.01h32.02c1.02,0,1.86,0.9,1.86,2.01
		V199.57z"/>
	<g>
		<path class="st0" d="M308.27,174.64h-12.14c-0.84,0-1.52,0.68-1.52,1.52v10.19c0,0.84,0.68,1.52,1.52,1.52h12.14
			c0.84,0,1.52-0.68,1.52-1.52v-10.19C309.79,175.32,309.11,174.64,308.27,174.64z M303.13,181.67v3.58c0,0.29-0.42,0.52-0.93,0.52
			s-0.93-0.23-0.93-0.52v-3.58c-0.84-0.36-1.42-1.19-1.42-2.16c0-1.3,1.05-2.35,2.35-2.35c1.3,0,2.35,1.05,2.35,2.35
			C304.55,180.48,303.97,181.31,303.13,181.67z"/>
		<path class="st0" d="M302.2,166.15c2.69,0,4.95,2.81,4.95,6.14v1.14c0,0.5,0.41,0.91,0.91,0.91h0.81c0.5,0,0.91-0.41,0.91-0.91
			v-1.14c0-4.82-3.41-8.77-7.58-8.77c-4.17,0-7.58,3.95-7.58,8.77v1.14c0,0.5,0.41,0.91,0.91,0.91h0.81c0.5,0,0.91-0.41,0.91-0.91
			v-1.14C297.25,168.96,299.52,166.15,302.2,166.15z"/>
	</g>
</g>
<g>
	<g>
		<path class="st0" d="M169.16,150.57h-25.84c-1.05,0-1.91,0.85-1.91,1.91v52.01c0,1.05,0.86,1.91,1.91,1.91h25.84
			c1.06,0,1.91-0.85,1.91-1.91v-52.01C171.07,151.42,170.22,150.57,169.16,150.57z M156.24,200.35c-2.99,0-5.41-2.42-5.41-5.41
			c0-2.99,2.42-5.41,5.41-5.41c2.99,0,5.41,2.42,5.41,5.41C161.65,197.93,159.23,200.35,156.24,200.35z M166.94,166.8h-21.39v-4.26
			h21.39V166.8z M166.94,160.6h-21.39v-4.26h21.39V160.6z"/>
		<path class="st0" d="M219.86,150.57H173.8c-1.05,0-1.91,0.9-1.91,2v36.92c0,1.11,0.86,2,1.91,2h19.04v9.16h-5.93
			c-1.05,0-1.91,0.85-1.91,1.91v2.83c0,1.06,0.85,1.91,1.91,1.91h19.85c1.05,0,1.91-0.85,1.91-1.91v-2.83
			c0-1.05-0.86-1.91-1.91-1.91h-5.93v-9.16h19.04c1.05,0,1.91-0.9,1.91-2v-36.92C221.77,151.47,220.92,150.57,219.86,150.57z
			 M218.56,187.11c0,0.96-0.74,1.75-1.66,1.75h-40.13c-0.92,0-1.66-0.78-1.66-1.75v-32.16c0-0.96,0.74-1.75,1.66-1.75h40.13
			c0.92,0,1.66,0.78,1.66,1.75V187.11z"/>
	</g>
	<g>
		<path class="st0" d="M201.38,170.56h-12.14c-0.84,0-1.52,0.68-1.52,1.52v10.19c0,0.84,0.68,1.52,1.52,1.52h12.14
			c0.84,0,1.52-0.68,1.52-1.52v-10.19C202.9,171.24,202.22,170.56,201.38,170.56z M196.24,177.59v3.58c0,0.29-0.42,0.52-0.93,0.52
			c-0.51,0-0.93-0.23-0.93-0.52v-3.58c-0.84-0.36-1.42-1.19-1.42-2.16c0-1.3,1.05-2.35,2.35-2.35c1.3,0,2.35,1.05,2.35,2.35
			C197.66,176.4,197.08,177.23,196.24,177.59z"/>
		<path class="st0" d="M195.31,162.07c2.69,0,4.95,2.81,4.95,6.14v1.14c0,0.5,0.41,0.91,0.91,0.91h0.81c0.5,0,0.91-0.41,0.91-0.91
			v-1.14c0-4.82-3.41-8.77-7.58-8.77c-4.17,0-7.59,3.95-7.59,8.77v1.14c0,0.5,0.41,0.91,0.91,0.91h0.81c0.5,0,0.91-0.41,0.91-0.91
			v-1.14C190.36,164.88,192.63,162.07,195.31,162.07z"/>
	</g>
</g>
<g>
	<g>
		<path class="st0" d="M447.92,148.09h-50.43c-0.76,0-1.39,0.63-1.39,1.39v32.25c0,0.77,0.63,1.39,1.39,1.39h50.43
			c0.76,0,1.39-0.62,1.39-1.39v-32.25C449.31,148.71,448.68,148.09,447.92,148.09z M446.39,179.96c0,0.68-0.56,1.24-1.24,1.24h-44.9
			c-0.68,0-1.24-0.56-1.24-1.24v-28.72c0-0.68,0.56-1.24,1.24-1.24h44.9c0.68,0,1.24,0.56,1.24,1.24V179.96z"/>
		<path class="st0" d="M449.53,184.92c-0.12-0.65-0.77-1.18-1.42-1.18H397.3c-0.66,0-1.3,0.53-1.42,1.18l-4.54,23.69
			c-0.12,0.65,0.31,1.18,0.97,1.18h60.8c0.66,0,1.09-0.53,0.97-1.18L449.53,184.92z M415.96,202.79h13.49
			c0.79,0,1.44,0.64,1.44,1.44c0,0.79-0.64,1.44-1.44,1.44h-13.49c-0.79,0-1.44-0.65-1.44-1.44
			C414.52,203.43,415.17,202.79,415.96,202.79z M451.12,208.29h-56.83c-0.38,0-0.69-0.31-0.69-0.69c0-0.38,0.31-0.69,0.69-0.69
			h56.83c0.38,0,0.69,0.31,0.69,0.69C451.81,207.98,451.5,208.29,451.12,208.29z"/>
	</g>
	<g>
		<path class="st0" d="M428.77,164.27h-12.14c-0.84,0-1.52,0.68-1.52,1.52v10.19c0,0.84,0.68,1.52,1.52,1.52h12.14
			c0.84,0,1.52-0.68,1.52-1.52v-10.19C430.29,164.95,429.61,164.27,428.77,164.27z M423.63,171.29v3.58c0,0.29-0.42,0.52-0.93,0.52
			c-0.51,0-0.93-0.23-0.93-0.52v-3.58c-0.84-0.36-1.42-1.19-1.42-2.16c0-1.3,1.05-2.35,2.35-2.35c1.3,0,2.35,1.05,2.35,2.35
			C425.05,170.1,424.47,170.93,423.63,171.29z"/>
		<path class="st0" d="M422.7,155.77c2.69,0,4.95,2.81,4.95,6.14v1.14c0,0.5,0.41,0.91,0.91,0.91h0.81c0.5,0,0.91-0.41,0.91-0.91
			v-1.14c0-4.82-3.41-8.77-7.58-8.77c-4.17,0-7.58,3.95-7.58,8.77v1.14c0,0.5,0.41,0.91,0.91,0.91h0.81c0.5,0,0.91-0.41,0.91-0.91
			v-1.14C417.75,158.59,420.02,155.77,422.7,155.77z"/>
	</g>
</g>
<path class="st0" d="M325.72,443.35l-11.18-17.67c-0.53-0.83-0.4-2.08,0.2-2.86c4.88-6.32,5.57-15.27,1.05-22.42
	c-5.77-9.13-17.86-11.85-26.99-6.07c-9.13,5.78-11.85,17.86-6.07,26.98c4.52,7.14,12.9,10.36,20.7,8.66
	c0.96-0.21,2.14,0.21,2.67,1.04l11.18,17.68c0.53,0.83,1.62,1.08,2.45,0.55l5.44-3.44C326,445.28,326.24,444.18,325.72,443.35z
	 M305.93,421.79c-5.98,3.78-13.89,2-17.66-3.97c-3.78-5.98-2-13.88,3.98-17.66c5.97-3.78,13.88-2,17.66,3.97
	C313.68,410.1,311.9,418.01,305.93,421.79z M320.93,445.12c-0.64,0.4-1.37,0.38-1.65-0.06l-3.82-6.04
	c-0.28-0.44,0.01-1.11,0.65-1.52c0.64-0.4,1.38-0.38,1.65,0.06l3.82,6.04C321.86,444.04,321.56,444.72,320.93,445.12z"/>
<g>
	<path class="st0" d="M572.36,542.18v-9.86h-6.17c-0.66-3.33-1.97-6.42-3.79-9.14l4.36-4.36l-6.97-6.97l-4.36,4.36
		c-2.72-1.82-5.81-3.13-9.14-3.79v-6.17h-9.86v6.17c-3.33,0.66-6.42,1.96-9.14,3.79l-4.36-4.36l-6.97,6.97l4.36,4.36
		c-1.82,2.72-3.13,5.81-3.79,9.14h-6.17v9.86h6.17c0.66,3.33,1.96,6.42,3.79,9.14l-4.36,4.36l6.97,6.97l4.36-4.36
		c2.72,1.82,5.81,3.13,9.14,3.78v6.17h9.86v-6.17c3.33-0.66,6.42-1.96,9.14-3.78l4.36,4.36l6.97-6.97l-4.36-4.36
		c1.82-2.72,3.13-5.81,3.79-9.14H572.36z M541.36,551.48c-7.86,0-14.24-6.37-14.24-14.23c0-7.86,6.37-14.23,14.24-14.23
		c7.86,0,14.23,6.37,14.23,14.23C555.59,545.11,549.22,551.48,541.36,551.48z"/>
	<path class="st0" d="M541.36,545.19c0.95,0,1.71-0.43,1.71-0.95v-6.6c1.55-0.67,2.62-2.2,2.62-3.98c0-2.4-1.94-4.34-4.34-4.34
		c-2.39,0-4.34,1.94-4.34,4.34c0,1.78,1.08,3.32,2.62,3.98v6.6C539.65,544.76,540.41,545.19,541.36,545.19z"/>
</g>
<g>
	<path class="st0" d="M568.01,281.45v-2.23h-28.06v-0.64c0-2.13-1.72-3.86-3.85-3.86h-19.19c-2.13,0-3.85,1.72-3.85,3.86v0.64h-5.79
		v42.01l7.78-39.77H568.01z"/>
	<path class="st0" d="M541.88,304.44c-1.3,0-2.35,1.05-2.35,2.35c0,0.97,0.59,1.8,1.42,2.16v3.58c0,0.29,0.41,0.52,0.93,0.52
		c0.51,0,0.93-0.23,0.93-0.52v-3.58c0.84-0.36,1.42-1.19,1.42-2.16C544.23,305.49,543.18,304.44,541.88,304.44z"/>
	<path class="st0" d="M568.01,283.15h-51.57l-8.15,41.65h59.02l0.7-3.57l7.45-38.08H568.01z M549.46,313.63
		c0,0.84-0.68,1.52-1.52,1.52h-12.14c-0.84,0-1.52-0.68-1.52-1.52v-10.19c0-0.84,0.68-1.52,1.52-1.52h12.14
		c0.84,0,1.52,0.68,1.52,1.52V313.63z M549.46,300.71c0,0.5-0.41,0.91-0.91,0.91h-0.81c-0.5,0-0.91-0.41-0.91-0.91v-1.14
		c0-3.33-2.27-6.14-4.95-6.14c-2.68,0-4.95,2.81-4.95,6.14v1.14c0,0.5-0.41,0.91-0.91,0.91h-0.81c-0.5,0-0.91-0.41-0.91-0.91v-1.14
		c0-4.82,3.41-8.77,7.58-8.77c4.17,0,7.58,3.95,7.58,8.77V300.71z"/>
</g>
<g>
	<g>
		<g>
			<path class="st0" d="M447.92,268.9h-50.43c-0.76,0-1.39,0.62-1.39,1.39v32.25c0,0.77,0.63,1.39,1.39,1.39h50.43
				c0.76,0,1.39-0.62,1.39-1.39v-32.25C449.31,269.53,448.68,268.9,447.92,268.9z M446.39,300.78c0,0.68-0.56,1.24-1.24,1.24h-44.9
				c-0.68,0-1.24-0.56-1.24-1.24v-28.72c0-0.68,0.56-1.24,1.24-1.24h44.9c0.68,0,1.24,0.56,1.24,1.24V300.78z"/>
			<path class="st0" d="M449.53,305.74c-0.12-0.64-0.77-1.18-1.42-1.18H397.3c-0.66,0-1.3,0.53-1.42,1.18l-4.54,23.69
				c-0.12,0.65,0.31,1.18,0.97,1.18h60.8c0.66,0,1.09-0.53,0.97-1.18L449.53,305.74z M415.96,323.61h13.49
				c0.79,0,1.44,0.64,1.44,1.44c0,0.79-0.64,1.44-1.44,1.44h-13.49c-0.79,0-1.44-0.65-1.44-1.44
				C414.52,324.25,415.17,323.61,415.96,323.61z M451.12,329.1h-56.83c-0.38,0-0.69-0.31-0.69-0.69c0-0.38,0.31-0.69,0.69-0.69
				h56.83c0.38,0,0.69,0.31,0.69,0.69C451.81,328.8,451.5,329.1,451.12,329.1z"/>
		</g>
	</g>
	<g>
		<path class="st0" d="M422.7,296.57l-1.3-1.31c-0.29-0.29-7-7.08-7-13.05c0-0.51,0.03-1.01,0.08-1.5l0.19-1.84l1.83,0.2
			c0.02,0,0.1,0.01,0.22,0.01c0.8,0,2.85-0.19,4.7-1.96l1.3-1.25l0.42,0.42l0.87,0.83c1.84,1.77,3.9,1.96,4.7,1.96
			c0.13,0,0.21-0.01,0.23-0.01l1.81-0.17l0.2,1.81c0.05,0.49,0.08,1,0.08,1.5c0,5.96-6.72,12.76-7,13.05L422.7,296.57z
			 M415.76,280.23l-0.06,0.61c-0.05,0.45-0.07,0.91-0.07,1.37c0,5.46,6.37,11.91,6.64,12.18l0.43,0.44l0.43-0.44
			c0.27-0.27,6.64-6.72,6.64-12.18c0-0.47-0.02-0.93-0.07-1.37l-0.07-0.6L429,280.3c-0.05,0-0.15,0.01-0.31,0.01
			c-0.95,0-3.38-0.22-5.55-2.3l-0.44-0.43l-0.01,0.01l0,0l-0.44,0.42c-2.17,2.08-4.6,2.3-5.55,2.3c-0.15,0-0.25-0.01-0.3-0.01
			l-0.04,0L415.76,280.23z"/>
		<path class="st0" d="M429.1,280.91c0,0-3.43,0.37-6.38-2.46c-0.01,0.01-0.01,0.01-0.02,0.02c-0.01-0.01-0.01-0.01-0.02-0.02
			c-2.95,2.82-6.38,2.46-6.38,2.46c-0.04,0.41-0.07,0.85-0.07,1.31c0,5.27,6.47,11.75,6.47,11.75s6.47-6.48,6.47-11.75
			C429.17,281.76,429.15,281.32,429.1,280.91z"/>
	</g>
</g>
<g>
	<path class="st0" d="M302.84,331.11l-3.95-3.96c-0.87-0.87-21.23-21.47-21.23-39.54c0-1.54,0.08-3.07,0.23-4.55l0.58-5.57
		l5.54,0.59c0.07,0,0.31,0.02,0.67,0.02c2.42,0,8.65-0.58,14.24-5.94l3.95-3.78l1.27,1.26l2.63,2.52
		c5.59,5.36,11.82,5.94,14.24,5.94c0.4,0,0.65-0.02,0.7-0.02l5.48-0.51l0.61,5.48c0.15,1.49,0.23,3.02,0.23,4.56
		c0,18.07-20.36,38.67-21.23,39.54L302.84,331.11z M281.79,281.6l-0.19,1.86c-0.14,1.35-0.21,2.75-0.21,4.16
		c0,16.54,19.32,36.09,20.14,36.91l1.32,1.32l1.32-1.32c0.82-0.82,20.14-20.37,20.14-36.91c0-1.41-0.07-2.81-0.21-4.16l-0.2-1.83
		l-1.95,0.18c-0.14,0.01-0.46,0.03-0.93,0.03c-2.87,0-10.25-0.68-16.81-6.97l-1.35-1.29l-0.03,0.03l0,0l-1.32,1.27
		c-6.57,6.29-13.95,6.97-16.81,6.97c-0.45,0-0.77-0.02-0.9-0.03l-0.13-0.01L281.79,281.6z"/>
	<path class="st0" d="M322.24,283.65c0,0-10.4,1.12-19.33-7.44c-0.02,0.02-0.04,0.04-0.06,0.05c-0.02-0.02-0.04-0.04-0.06-0.05
		c-8.93,8.56-19.33,7.44-19.33,7.44c-0.13,1.25-0.2,2.57-0.2,3.97c0,15.96,19.6,35.6,19.6,35.6s19.6-19.64,19.6-35.6
		C322.44,286.22,322.37,284.9,322.24,283.65z M313.04,305.04l-1.41,1.41l-8.78-8.78l-8.78,8.78l-1.41-1.41l8.78-8.78l-8.78-8.78
		l1.41-1.41l8.78,8.78l8.78-8.78l1.41,1.41l-8.78,8.78L313.04,305.04z"/>
</g>
<path class="st0" d="M32.33,417.24c1.69-15.27,14.63-27.15,30.35-27.15c15.72,0,28.66,11.88,30.35,27.15
	c0.21,1.86,0.26,1.75-0.73,0.17c-1.08-1.73-3-2.89-5.19-2.89s-4.11,1.15-5.19,2.89c-0.99,1.59-0.84,1.59-1.83,0
	c-1.08-1.73-3-2.89-5.19-2.89c-2.19,0-4.11,1.15-5.19,2.89c-0.99,1.59-0.84,1.59-1.84,0c-0.96-1.55-2.61-2.63-4.51-2.84v30.4
	c0,3.18-2.59,5.77-5.77,5.77c-3.18,0-5.77-2.59-5.77-5.77h1.36c0,2.43,1.98,4.41,4.41,4.41c2.43,0,4.41-1.98,4.41-4.41v-30.4
	c-1.91,0.21-3.55,1.29-4.51,2.84c-0.99,1.59-0.84,1.59-1.83,0c-1.08-1.73-3-2.89-5.19-2.89c-2.19,0-4.11,1.15-5.19,2.89
	c-0.99,1.59-0.85,1.59-1.83,0c-1.08-1.73-3-2.89-5.19-2.89c-2.19,0-4.11,1.15-5.19,2.89C32.07,419,32.12,419.1,32.33,417.24z"/>
<g>
	<g>
		<path class="st0" d="M181.59,318.29c-19.34,0-34.66-16.66-35.31-17.37l-1.06-1.17l1.06-1.17c0.64-0.71,15.97-17.37,35.31-17.37
			c19.34,0,34.66,16.66,35.31,17.37l1.06,1.17l-1.06,1.17C216.26,301.63,200.93,318.29,181.59,318.29z M150,299.75
			c3.81,3.72,16.65,15.07,31.59,15.07c14.94,0,27.78-11.34,31.59-15.06c-3.81-3.72-16.65-15.06-31.59-15.06
			C166.63,284.69,153.81,296.03,150,299.75z"/>
	</g>
	<g>
		<path class="st0" d="M181.59,314.17c-7.95,0-14.42-6.47-14.42-14.42c0-7.95,6.47-14.42,14.42-14.42c7.95,0,14.42,6.47,14.42,14.42
			C196.01,307.7,189.54,314.17,181.59,314.17z M181.59,288.03c-6.46,0-11.72,5.26-11.72,11.72s5.26,11.72,11.72,11.72
			c6.46,0,11.72-5.26,11.72-11.72S188.06,288.03,181.59,288.03z"/>
	</g>
	<path class="st0" d="M191.1,299.75c0,5.25-4.26,9.51-9.51,9.51c-5.25,0-9.51-4.26-9.51-9.51c0-5.25,4.26-9.51,9.51-9.51
		C186.85,290.24,191.1,294.5,191.1,299.75z"/>
</g>
<g>
	<polygon class="st0" points="403.33,521.47 413.6,535.58 415.68,533.36 405.74,519.71 405.71,514.77 398.42,509.11 395.49,511.25 
		398.63,519.92 	"/>
	<path class="st0" d="M426.59,542.83l-6.6,7.04l10.74,14.75c0.97,1.34,3.04,2.35,4.59,2.25c1.55-0.1,3.27-1.36,3.83-2.79
		c0.56-1.43,0.21-3.69-0.76-5.03L426.59,542.83z M436.04,563.86c-1.01,0.73-2.42,0.51-3.15-0.5c-0.73-1.01-0.51-2.42,0.5-3.15
		c1.01-0.73,2.42-0.51,3.15,0.5C437.27,561.71,437.05,563.12,436.04,563.86z"/>
	<path class="st0" d="M449.92,515.45l-9.62,9.62l-6.68-6.68l9.62-9.62c-1.71-0.76-3.54-1.14-5.37-1.14c-3.37,0-6.73,1.28-9.3,3.85
		c-3.84,3.83-4.81,9.45-2.93,14.19l-8.77,9.34l-2.08,2.22l-19.56,20.85c-1.5,1.5-1.07,4.37,0.97,6.41c1.22,1.22,2.74,1.86,4.08,1.86
		c0.9,0,1.72-0.29,2.33-0.89l16.18-17.24l6.6-7.04l7.64-8.14c1.56,0.62,3.22,0.93,4.87,0.93c3.37,0,6.74-1.28,9.31-3.86
		C451.18,526.15,452.08,520.29,449.92,515.45z M402.41,561.39c-0.43,0.43-0.99,0.64-1.55,0.64c-0.56,0-1.12-0.21-1.55-0.64
		c-0.86-0.86-0.86-2.25,0-3.11c0.43-0.43,0.99-0.64,1.55-0.64c0.56,0,1.12,0.21,1.55,0.64
		C403.26,559.14,403.26,560.54,402.41,561.39z"/>
</g>
<g>
	<g>
		<path class="st0" d="M94.2,327.06H31.15l31.53-54.61L94.2,327.06z M36.14,324.17h53.07l-26.53-45.96L36.14,324.17z"/>
	</g>
	<g>
		<path class="st0" d="M64.34,311.81c-0.07,0.65-0.67,1.18-1.32,1.18h-0.69c-0.65,0-1.25-0.53-1.32-1.18L58.9,292.9
			c-0.07-0.65,0.4-1.18,1.06-1.18h5.44c0.65,0,1.13,0.53,1.06,1.18L64.34,311.81z"/>
		<path class="st0" d="M65.41,317.63c0,1.51-1.22,2.74-2.74,2.74c-1.51,0-2.74-1.22-2.74-2.74c0-1.51,1.22-2.74,2.74-2.74
			C64.19,314.89,65.41,316.11,65.41,317.63z"/>
	</g>
</g>
<g>
	<path class="st0" d="M302.84,565.95c-15.83,0-28.7-12.88-28.7-28.7s12.88-28.7,28.7-28.7c15.83,0,28.7,12.88,28.7,28.7
		S318.67,565.95,302.84,565.95z M302.84,512.46c-13.67,0-24.79,11.12-24.79,24.79s11.12,24.79,24.79,24.79
		c13.67,0,24.79-11.12,24.79-24.79S316.51,512.46,302.84,512.46z"/>
	<rect x="290.25" y="532.75" class="st0" width="25.18" height="9"/>
</g>
<path class="st0" d="M569.32,409.93c-3.02-8.06-9.42-14.45-17.48-17.47c-0.28-0.11-0.56-0.23-0.84-0.33
	c-3.02-1.03-6.26-1.6-9.63-1.6c-3.37,0-6.61,0.57-9.63,1.6c-0.29,0.1-0.56,0.22-0.84,0.33c-8.06,3.02-14.46,9.42-17.48,17.47
	c-0.04,0.1-0.07,0.2-0.1,0.3l0,0l-0.03,0.09c-1.14,3.15-1.78,6.54-1.78,10.09c0,3.69,0.67,7.22,1.9,10.48
	c3.02,8.06,9.43,14.47,17.49,17.49c3.26,1.22,6.79,1.9,10.48,1.9c3.69,0,7.22-0.67,10.48-1.9c8.06-3.02,14.47-9.43,17.49-17.49
	c1.22-3.26,1.9-6.79,1.9-10.48C571.23,416.72,570.54,413.2,569.32,409.93z M567.61,430.3c-2.85,7.52-8.83,13.51-16.36,16.36
	c-0.09,0.03-0.17,0.07-0.26,0.1l-4.53-12.1c0.21-0.08,0.42-0.15,0.63-0.23c3.75-1.54,6.76-4.54,8.29-8.3
	c0.09-0.21,0.16-0.43,0.24-0.65l12.08,4.57C567.68,430.14,567.64,430.22,567.61,430.3z M514.99,429.98l12.15-4.39
	c0.07,0.18,0.13,0.37,0.2,0.55c1.54,3.75,4.54,6.76,8.29,8.29c0.21,0.09,0.42,0.16,0.63,0.23l-4.53,12.1
	c-0.09-0.03-0.18-0.07-0.26-0.1c-7.52-2.85-13.51-8.83-16.36-16.36C515.07,430.2,515.02,430.09,514.99,429.98z M515.12,410.52
	c2.8-7.42,8.67-13.45,16.35-16.34c0.1-0.04,0.2-0.08,0.3-0.11l4.45,12.1c-0.2,0.07-0.39,0.15-0.59,0.23
	c-3.83,1.56-6.79,4.58-8.3,8.28c-0.07,0.18-0.14,0.37-0.2,0.55L515,410.84C515.04,410.74,515.08,410.63,515.12,410.52z
	 M567.69,410.77l-12.06,4.56c-0.08-0.22-0.15-0.44-0.24-0.65c-1.52-3.7-4.47-6.72-8.3-8.28c-0.19-0.08-0.39-0.16-0.59-0.23
	l4.45-12.1c0.1,0.04,0.2,0.08,0.29,0.11c7.68,2.89,13.55,8.93,16.35,16.34C567.63,410.6,567.66,410.69,567.69,410.77z
	 M545.66,433.04c-1.35,0.46-2.8,0.72-4.3,0.72c-1.51,0-2.95-0.26-4.3-0.72c-0.29-0.1-0.57-0.19-0.85-0.31
	c-3.23-1.35-5.82-3.94-7.17-7.17c-0.12-0.28-0.21-0.56-0.31-0.85c-0.02-0.06-0.05-0.12-0.07-0.18c-0.07-0.23-0.13-0.47-0.2-0.71
	c-0.04-0.14-0.07-0.27-0.1-0.41c-0.05-0.24-0.1-0.48-0.14-0.72c-0.03-0.16-0.05-0.31-0.07-0.47c-0.03-0.22-0.06-0.45-0.08-0.67
	c-0.02-0.23-0.03-0.46-0.04-0.69c0-0.15-0.02-0.3-0.02-0.45c0-1.32,0.2-2.64,0.59-3.92c0.04-0.11,0.06-0.23,0.1-0.34
	c0-0.01,0.01-0.03,0.01-0.04c0.1-0.29,0.2-0.57,0.32-0.85c1.35-3.23,3.94-5.8,7.17-7.15c0.28-0.12,0.56-0.23,0.84-0.32
	c1.35-0.46,2.79-0.72,4.3-0.72c1.51,0,2.95,0.26,4.3,0.72c0.29,0.1,0.57,0.21,0.84,0.32c3.23,1.35,5.82,3.93,7.17,7.15
	c0.12,0.28,0.22,0.56,0.32,0.85c0.46,1.35,0.71,2.8,0.71,4.3c0,1.51-0.26,2.95-0.72,4.3c-0.1,0.29-0.19,0.57-0.31,0.85
	c-1.35,3.23-3.94,5.82-7.17,7.17C546.23,432.84,545.95,432.94,545.66,433.04z"/>
<path class="st0" d="M381.95,402.16v36.5h81.5v-36.5H381.95z M401.73,420.74h-4.83l3.42,3.42l-1.41,1.41l-3.42-3.42v4.84h-2v-4.84
	l-3.42,3.42l-1.41-1.41l3.42-3.42h-4.84v-2h4.84l-3.42-3.42l1.41-1.41l3.42,3.42v-4.83h2v4.84l3.42-3.42l1.41,1.41l-3.42,3.42h4.84
	V420.74z M420.31,420.74h-4.83l3.42,3.42l-1.41,1.41l-3.42-3.42v4.84h-2v-4.84l-3.42,3.42l-1.41-1.41l3.42-3.42h-4.84v-2h4.84
	l-3.42-3.42l1.41-1.41l3.42,3.42v-4.83h2v4.84l3.42-3.42l1.41,1.41l-3.42,3.42h4.84V420.74z M438.9,420.74h-4.83l3.42,3.42
	l-1.41,1.41l-3.42-3.42v4.84h-2v-4.84l-3.42,3.42l-1.41-1.41l3.42-3.42h-4.84v-2h4.84l-3.42-3.42l1.41-1.41l3.42,3.42v-4.83h2v4.84
	l3.42-3.42l1.41,1.41l-3.42,3.42h4.84V420.74z M457.48,426.57h-14.5v-2h14.5V426.57z"/>
<g>
	<path class="st0" d="M569.93,207.62h-57.15v-57.36h57.15V207.62z M516.14,204.26h50.43v-50.65h-50.43V204.26z"/>
	<path class="st0" d="M519.76,157.14v43.6h43.2v-43.6H519.76z M530.99,169.29h3.68v3.68h-3.68V169.29z M530.99,174.39h3.68v3.68
		h-3.68V174.39z M530.99,179.5h3.68v3.68h-3.68V179.5z M537.22,195.56c-2.2,0-3.99-1.79-3.99-3.99c0-2.2,1.78-3.99,3.99-3.99
		c1.43,0,2.67,0.76,3.38,1.89h-2.54c-1.16,0-2.1,0.94-2.1,2.1s0.94,2.1,2.1,2.1h2.54C539.89,194.8,538.65,195.56,537.22,195.56z
		 M540.36,174.39v3.68h-3.68v-3.68H540.36z M536.68,172.97v-3.68h3.68v3.68H536.68z M540.36,179.5v3.68h-3.68v-3.68H540.36z
		 M546.04,174.39v3.68h-3.68v-3.68H546.04z M542.36,172.97v-3.68h3.68v3.68H542.36z M546.04,179.5v3.68h-3.68v-3.68H546.04z
		 M549.07,192.83h-8.08h-2.93c-0.69,0-1.26-0.56-1.26-1.26c0-0.69,0.57-1.26,1.26-1.26h2.93h8.08c0.69,0,1.26,0.56,1.26,1.26
		C550.33,192.27,549.76,192.83,549.07,192.83z M551.73,183.18h-3.68v-3.68h3.68V183.18z M551.73,178.08h-3.68v-3.68h3.68V178.08z
		 M551.73,172.97h-3.68v-3.68h3.68V172.97z M551.73,167.03h-20.74v-4.61h20.74V167.03z"/>
</g>
<path class="st0" d="M202.25,404.73c-6.49,0-11.98,4.28-13.8,10.18h-41.96v6.52v2.03v12.63h6.61v-12.63h4.38v7.03h6.61v-7.03h3.66
	v9.18h6.61v-9.18h14.08c1.82,5.89,7.31,10.17,13.8,10.17c7.98,0,14.45-6.47,14.45-14.45C216.7,411.2,210.23,404.73,202.25,404.73z
	 M202.25,425.29c-3.38,0-6.11-2.74-6.11-6.11c0-3.38,2.74-6.11,6.11-6.11c3.38,0,6.11,2.74,6.11,6.11
	C208.36,422.55,205.63,425.29,202.25,425.29z"/>
<g>
	<path class="st0" d="M173.1,520.68c0.12,1.95,0.14,2,0.14,2c0.69,2.2,1.44,4.45,1.67,5c0,0,0,0,0.21,0.5
		c0.1,0.26,0.21,0.51,0.32,0.77c0.11,0.26,0.25,0.5,0.38,0.76c0.53,1,1.02,2.03,1.64,3.02c0.6,1,1.21,2.01,1.91,3.01
		c0.34,0.5,0.34,0.5,0.34,0.5c0.38,0.55,0.77,1.11,0.87,1.24c0.1,0.13,0.48,0.64,0.63,0.83c0.15,0.2,0.59,0.77,0.99,1.29
		c0.39,0.51,1.54,2.01,1.67,2.19c0.14,0.18,0.35,0.47,0.47,0.66c0.12,0.18,0.32,0.48,0.45,0.66c0.12,0.18,0.28,0.42,0.35,0.55
		c0.07,0.12,0.33,0.54,0.4,0.66c0.07,0.12,0.31,0.54,0.37,0.66c0.06,0.12,0.33,0.64,0.46,0.89c0,0,0,0,0.11,0.22
		c0.12,0.22,0.19,0.45,0.29,0.67c0.1,0.22,0.2,0.44,0.29,0.67c0.09,0.22,0.16,0.44,0.23,0.67c0.08,0.22,0.08,0.22,0.08,0.22
		c0.09,0.25,0.21,0.65,0.27,0.89c0,0,0,0,0.06,0.22c0.48,1.78,0.66,3.53,0.6,5.21c-0.05,1.67-0.37,3.27-0.81,4.74
		c-0.43,1.47-1,2.82-1.61,4c-0.59,1.19-1.22,2.21-1.77,3.05c-0.56,0.84-1.04,1.49-1.39,1.93c-0.35,0.44-0.35,0.44-0.35,0.44
		c-0.11,0.13-0.12,0.27-0.04,0.33c0.09,0.05,0.31,0.02,0.5-0.07c0,0,0,0,0.58-0.33c0.58-0.34,1.4-0.86,2.36-1.58
		c0.96-0.72,2.05-1.64,3.17-2.77c1.1-1.14,2.22-2.49,3.19-4.05c0.63-1.01,0.63-1.01,0.63-1.01c0.55-1.26,0.83-1.7,0.6-0.96
		c0,0,0,0-0.26,0.62c-0.43,1.05-0.96,2.01-1.48,2.85c-0.52,0.85-1.05,1.58-1.51,2.18c-0.47,0.61-0.87,1.07-1.14,1.39
		c-0.29,0.32-0.29,0.32-0.29,0.32c-0.08,0.09-0.09,0.22-0.01,0.28c0.08,0.06,0.27,0.06,0.43,0.01c0,0,0,0,0.49-0.2
		c0.5-0.2,1.21-0.51,2.05-0.97c0.85-0.45,1.82-1.05,2.85-1.8c1.02-0.76,2.08-1.68,3.07-2.78c0.98-1.1,1.88-2.37,2.54-3.8
		c0.67-1.43,1.09-3.01,1.18-4.66c0.01-0.21,0.01-0.21,0.01-0.21c0.01-0.23,0.01-0.5,0.01-0.62c0-0.12-0.04-0.8-0.07-1.26
		c0,0,0,0-0.05-0.42c-0.05-0.43-0.15-0.84-0.25-1.27c-0.09-0.43-0.09-0.43-0.09-0.43c-0.16-0.46-0.35-1.02-0.44-1.25
		c-0.08-0.23-0.4-0.97-0.47-1.14c-0.07-0.17-0.21-0.45-0.3-0.61c-0.09-0.17-0.24-0.44-0.33-0.61c-0.09-0.17-0.17-0.32-0.19-0.35
		c-0.01-0.02-0.03-0.05-0.03-0.06c-0.01-0.01-0.01-0.02-0.01-0.02c0,0-0.01-0.03-0.04-0.06c-0.02-0.04-0.07-0.13-0.12-0.2
		c-0.04-0.08-0.22-0.38-0.4-0.68c-0.17-0.3-0.39-0.67-0.48-0.82c-0.09-0.15-0.25-0.44-0.37-0.64c0,0,0,0-0.09-0.17
		c-0.17-0.35-0.38-0.7-0.57-1.04c-0.19-0.34-0.19-0.34-0.19-0.34c-0.21-0.38-0.53-1.01-0.72-1.39c0,0,0,0-0.18-0.34
		c-0.38-0.7-0.66-1.39-0.98-2.07c-0.08-0.17-0.08-0.17-0.08-0.17c-0.08-0.19-0.21-0.49-0.29-0.67c0,0,0,0-0.06-0.17
		c-0.14-0.34-0.27-0.67-0.4-1c-0.12-0.33-0.12-0.33-0.12-0.33c-0.11-0.36-0.31-0.95-0.45-1.31c0,0,0,0-0.06-0.32
		c-0.14-0.64-0.34-1.27-0.41-1.87c-0.04-0.3-0.04-0.3-0.04-0.3c-0.05-0.33-0.1-0.73-0.11-0.89c-0.01-0.16-0.04-0.71-0.04-0.87
		c0-0.16,0-0.81,0-1.12c0,0,0,0,0.04-0.27c0.04-0.27,0.08-0.53,0.11-0.79c0.02-0.12,0.02-0.12,0.02-0.12
		c0.02-0.14,0.06-0.37,0.1-0.51c0,0,0,0,0.03-0.12c0.06-0.25,0.06-0.25,0.06-0.25c0.07-0.26,0.19-0.68,0.28-0.93c0,0,0,0,0.08-0.22
		c0.08-0.22,0.15-0.44,0.24-0.64c0.09-0.21,0.18-0.41,0.27-0.6c0.09-0.19,0.09-0.19,0.09-0.19c0.09-0.2,0.25-0.52,0.35-0.7
		c0,0,0,0,0.09-0.16c0.18-0.32,0.32-0.61,0.47-0.86c0.15-0.24,0.28-0.45,0.39-0.62c0.21-0.35,0.21-0.35,0.21-0.35
		c0.06-0.1,0.03-0.22-0.06-0.27c-0.1-0.05-0.22-0.05-0.29-0.02c-0.06,0.04-0.75,0.45-1,0.61c0,0,0,0-0.3,0.19
		c-0.3,0.19-0.61,0.43-0.97,0.7c-0.18,0.14-0.18,0.14-0.18,0.14c-0.21,0.16-0.55,0.44-0.75,0.61c0,0,0,0-0.2,0.17
		c-0.2,0.18-0.2,0.18-0.2,0.18c-0.23,0.2-0.59,0.55-0.8,0.78c0,0,0,0-0.2,0.22c-0.2,0.22-0.2,0.22-0.2,0.22
		c-0.23,0.25-0.5,0.58-0.6,0.71c-0.1,0.14-0.53,0.76-0.72,1.06c-0.19,0.3-0.81,1.43-0.96,1.78c0,0,0,0-0.13,0.32
		c-0.12,0.33-0.12,0.33-0.12,0.33c-0.12,0.37-0.31,0.98-0.41,1.36c0,0,0,0-0.09,0.35c-0.09,0.36-0.1,0.71-0.16,1.08
		c-0.21,1.47-0.21,1.47-0.21,1.47c0.19,1.7,0.38,3.25,0.42,3.44c0.04,0.19,0,0.5-0.18,0.27c0,0,0,0-0.14-0.2
		c-0.32-0.46-0.67-0.91-1.01-1.37c-0.33-0.45-0.7-0.9-1-1.36c-0.31-0.46-0.63-0.92-0.94-1.38c-1.29-1.83-2.36-3.65-3.34-5.42
		c-0.24-0.45-0.42-0.89-0.65-1.33c-0.11-0.22-0.11-0.22-0.11-0.22c-0.12-0.24-0.25-0.51-0.29-0.6c-0.04-0.09-0.11-0.24-0.14-0.33
		c-0.04-0.09-0.22-0.55-0.42-1.02c-0.2-0.47-0.61-1.88-0.68-2.11c0,0,0,0-0.06-0.2c-0.06-0.21-0.06-0.21-0.06-0.21
		c-0.05-0.22-0.13-0.59-0.18-0.82c-0.04-0.22-0.18-0.98-0.21-1.2c-0.03-0.22-0.13-1.12-0.18-1.54c0,0,0,0,0.01-0.37
		c0.01-0.38,0.01-0.38,0.01-0.38c0.01-0.39,0.02-0.88,0.02-1.08c0,0,0,0,0.02-0.17c0.03-0.18,0.05-0.34,0.07-0.51
		c0.05-0.34,0.05-0.34,0.05-0.34c0.05-0.36,0.16-0.94,0.24-1.3c0,0,0,0,0.07-0.3c0.08-0.31,0.08-0.31,0.08-0.31
		c0.08-0.32,0.23-0.83,0.34-1.14c0,0,0,0,0.1-0.27c0.09-0.27,0.09-0.27,0.09-0.27c0.1-0.27,0.27-0.71,0.39-0.97c0,0,0,0,0.1-0.22
		c0.2-0.43,0.36-0.83,0.53-1.18c0.18-0.34,0.18-0.34,0.18-0.34c0.15-0.28,0.35-0.68,0.45-0.88c0.1-0.2,0.1-0.4,0-0.44
		c-0.1-0.04-0.3,0.03-0.44,0.14c0,0,0,0-0.47,0.39c-0.23,0.2-0.52,0.46-0.85,0.75c-0.33,0.3-0.66,0.66-1.05,1.06
		c-0.2,0.21-0.2,0.21-0.2,0.21c-0.23,0.24-0.59,0.65-0.8,0.92c0,0,0,0-0.2,0.26c-0.2,0.26-0.2,0.26-0.2,0.26
		c-0.24,0.3-0.61,0.81-0.81,1.14c0,0,0,0-0.2,0.31c-0.19,0.31-0.19,0.31-0.19,0.31c-0.22,0.36-0.55,0.98-0.74,1.37
		c0,0,0,0-0.18,0.36c-0.09,0.19-0.17,0.37-0.26,0.56c-0.09,0.19-0.14,0.39-0.21,0.58c-0.13,0.4-0.26,0.81-0.39,1.22
		c-0.12,0.42-0.12,0.42-0.12,0.42c-0.08,0.48-0.18,1.07-0.23,1.31c-0.05,0.25-0.1,1.11-0.11,1.36c-0.01,0.25-0.04,1.15-0.04,1.41
		c0,0,0,0,0.02,0.24C173.06,520.2,173.09,520.44,173.1,520.68z"/>
	<path class="st0" d="M163.09,559.3c0.66,1.43,1.56,2.7,2.54,3.8c0.98,1.09,2.05,2.02,3.06,2.77c1.03,0.75,2.01,1.35,2.85,1.8
		c0.85,0.45,1.55,0.77,2.05,0.97c0.49,0.2,0.49,0.2,0.49,0.2c0.16,0.05,0.35,0.04,0.43-0.02c0.08-0.06,0.07-0.18-0.02-0.27
		c0,0,0,0-0.28-0.32c-0.28-0.33-0.68-0.79-1.14-1.39c-0.46-0.6-0.99-1.34-1.51-2.19c-0.53-0.85-1.05-1.8-1.48-2.85
		c-0.44-1.05-0.81-2.18-1-3.38c-0.2-1.19-0.25-2.44-0.08-3.72c0.02-0.16,0.02-0.16,0.02-0.16c0.02-0.18,0.05-0.39,0.06-0.48
		c0.02-0.09,0.09-0.47,0.11-0.64c0,0,0,0,0.05-0.16c0.04-0.16,0.04-0.16,0.04-0.16c0.05-0.18,0.13-0.47,0.18-0.65
		c0.05-0.18,0.31-0.95,0.43-1.31c0,0,0,0,0.14-0.33c0.07-0.16,0.07-0.16,0.07-0.16c0.07-0.18,0.19-0.44,0.25-0.57
		c0.06-0.14,0.17-0.35,0.24-0.49c0.06-0.13,0.18-0.36,0.25-0.49c0.08-0.13,0.32-0.57,0.54-0.96c0.22-0.39,0.87-1.56,0.95-1.71
		c0.08-0.15,0.24-0.44,0.36-0.64c0,0,0,0,0.1-0.2c0.2-0.39,0.38-0.78,0.57-1.17c0.38-0.79,0.7-1.56,1.01-2.34
		c0.32-0.77,0.54-1.57,0.79-2.35c0.14-0.38,0.22-0.78,0.3-1.17c0.08-0.39,0.08-0.39,0.08-0.39c0.09-0.43,0.32-2.17,0.51-3.87
		c0,0,0,0-0.21-1.47c-0.05-0.37-0.07-0.72-0.16-1.08c-0.09-0.35-0.09-0.35-0.09-0.35c-0.1-0.38-0.28-0.99-0.4-1.36
		c0,0,0,0-0.12-0.33c-0.13-0.32-0.25-0.64-0.41-0.94c-0.34-0.6-0.34-0.6-0.34-0.6c-0.38-0.61-0.77-1.22-0.87-1.36
		c-0.1-0.14-0.56-0.71-0.79-0.97c0,0,0,0-0.2-0.22c-0.21-0.22-0.21-0.22-0.21-0.22c-0.21-0.22-0.57-0.57-0.8-0.78c0,0,0,0-0.2-0.18
		c-0.19-0.17-0.19-0.17-0.19-0.17c-0.2-0.18-0.54-0.46-0.75-0.62c0,0,0,0-0.18-0.13c-0.36-0.26-0.67-0.51-0.97-0.7
		c-0.3-0.19-0.56-0.35-0.77-0.48c-0.43-0.26-0.43-0.26-0.43-0.26c-0.12-0.07-0.3-0.09-0.4-0.05c-0.09,0.05-0.12,0.17-0.06,0.27
		c0,0,0,0,0.21,0.35c0.1,0.17,0.23,0.38,0.39,0.63c0.15,0.25,0.29,0.54,0.47,0.85c0.09,0.16,0.09,0.16,0.09,0.16
		c0.1,0.19,0.26,0.5,0.35,0.7c0,0,0,0,0.09,0.19c0.09,0.19,0.09,0.19,0.09,0.19c0.1,0.22,0.25,0.59,0.34,0.83c0,0,0,0,0.08,0.22
		c0.08,0.21,0.08,0.21,0.08,0.21c0.09,0.25,0.21,0.67,0.28,0.94c0,0,0,0,0.06,0.24c0.03,0.12,0.06,0.25,0.09,0.37
		c0.03,0.13,0.03,0.26,0.06,0.39c0.04,0.26,0.08,0.52,0.12,0.78c0.04,0.27,0.02,0.54,0.04,0.82c0.01,0.28,0.01,0.28,0.01,0.28
		c0,0.31-0.01,0.7-0.03,0.86c-0.01,0.16-0.08,0.85-0.13,1.18c0,0,0,0-0.04,0.31c-0.07,0.61-0.27,1.23-0.41,1.87
		c-0.06,0.32-0.06,0.32-0.06,0.32c-0.13,0.36-0.33,0.95-0.45,1.3c0,0,0,0-0.12,0.33c-0.13,0.34-0.26,0.67-0.4,1.01
		c-0.07,0.17-0.07,0.17-0.07,0.17c-0.07,0.19-0.2,0.49-0.29,0.67c0,0,0,0-0.08,0.17c-0.32,0.68-0.59,1.37-0.98,2.07
		c-0.18,0.35-0.35,0.69-0.52,1.05c-0.16,0.35-0.38,0.69-0.56,1.04c-0.19,0.34-0.39,0.69-0.57,1.04c-0.09,0.17-0.09,0.17-0.09,0.17
		c-0.12,0.2-0.28,0.49-0.37,0.64c-0.09,0.15-0.3,0.52-0.48,0.82c-0.17,0.3-0.35,0.61-0.4,0.68c-0.04,0.07-0.1,0.17-0.12,0.2
		c-0.02,0.04-0.04,0.07-0.04,0.08c0,0,0,0,0.01-0.02c0.01-0.01-0.01,0.02-0.02,0.03c-0.01,0.01-0.02,0.04-0.03,0.06
		c-0.01,0.02-0.09,0.17-0.18,0.34c-0.09,0.17-0.24,0.44-0.33,0.61c-0.09,0.17-0.23,0.45-0.3,0.62c-0.08,0.17-0.22,0.5-0.32,0.72
		c-0.1,0.22-0.43,1.21-0.59,1.68c0,0,0,0-0.09,0.42c-0.1,0.42-0.1,0.42-0.1,0.42c-0.08,0.46-0.2,1.22-0.26,1.69c0,0,0,0-0.01,0.42
		c0,0.21,0,0.21,0,0.21c-0.01,0.23-0.01,0.6,0,0.83c0,0,0,0,0.01,0.2C162,556.29,162.42,557.87,163.09,559.3z"/>
</g>
<g>
	
		<rect x="25.75" y="538.31" transform="matrix(0.7071 -0.7071 0.7071 0.7071 -369.9318 190.097)" class="st0" width="37.5" height="6.56"/>
	
		<rect x="47.54" y="534.26" transform="matrix(0.7071 -0.7071 0.7071 0.7071 -362.0346 201.0536)" class="st0" width="28.27" height="6.56"/>
	
		<rect x="30.67" y="515.81" transform="matrix(0.7071 -0.7071 0.7071 0.7071 -363.1461 178.542)" class="st0" width="6.56" height="23.67"/>
	
		<rect x="88.12" y="535.02" transform="matrix(0.7071 -0.7071 0.7071 0.7071 -359.9158 224.7962)" class="st0" width="6.56" height="23.67"/>
	
		<rect x="60.1" y="531" transform="matrix(0.7071 -0.7071 0.7071 0.7071 -354.6982 212.2415)" class="st0" width="37.5" height="6.56"/>
</g>
</svg>
