<?xml version="1.0" encoding="utf-8"?>
<!-- Generator: Adobe Illustrator 25.4.0, SVG Export Plug-In . SVG Version: 6.00 Build 0)  -->
<svg version="1.1" id="Layer_1" xmlns="http://www.w3.org/2000/svg" xmlns:xlink="http://www.w3.org/1999/xlink" x="0px" y="0px"
	 viewBox="0 0 63.06 54.61" style="enable-background:new 0 0 63.06 54.61;" xml:space="preserve">
<style type="text/css">
	.st0{fill:#4D4D4D;}
</style>
<g>
	<path class="st0" d="M31.53-177.94l-3.95-3.96c-0.87-0.87-21.23-21.47-21.23-39.54c0-1.54,0.08-3.07,0.23-4.55l0.58-5.57l5.54,0.59
		c0.07,0,0.31,0.02,0.67,0.02c2.42,0,8.65-0.58,14.24-5.94l3.94-3.78l1.27,1.26l2.63,2.52c5.59,5.36,11.82,5.94,14.24,5.94
		c0.4,0,0.65-0.02,0.7-0.02l5.48-0.52l0.61,5.48c0.15,1.49,0.23,3.02,0.23,4.56c0,18.07-20.36,38.67-21.23,39.54L31.53-177.94z
		 M10.48-227.45l-0.19,1.86c-0.14,1.35-0.21,2.75-0.21,4.16c0,16.54,19.32,36.09,20.14,36.91l1.32,1.32l1.32-1.32
		c0.82-0.82,20.14-20.36,20.14-36.91c0-1.41-0.07-2.81-0.21-4.16l-0.2-1.83l-1.95,0.18c-0.14,0.01-0.46,0.03-0.93,0.03
		c-2.87,0-10.25-0.68-16.82-6.97l-1.35-1.29l-0.03,0.03l0,0l-1.32,1.27c-6.57,6.29-13.95,6.97-16.81,6.97
		c-0.45,0-0.77-0.02-0.9-0.03l-0.13-0.01L10.48-227.45z"/>
	<path class="st0" d="M50.92-225.4c0,0-10.4,1.12-19.33-7.44c-0.02,0.02-0.04,0.04-0.06,0.06c-0.02-0.02-0.04-0.04-0.06-0.06
		c-8.93,8.56-19.33,7.44-19.33,7.44c-0.13,1.25-0.2,2.57-0.2,3.97c0,15.96,19.6,35.6,19.6,35.6s19.6-19.64,19.6-35.6
		C51.12-222.83,51.05-224.15,50.92-225.4z"/>
</g>
<g>
	<path class="st0" d="M165.92-211.97h-30.95c-2.14,0-3.87,1.73-3.87,3.87v25.99c0,2.14,1.73,3.87,3.87,3.87h30.95
		c2.14,0,3.87-1.73,3.87-3.87v-25.99C169.79-210.24,168.06-211.97,165.92-211.97z M152.82-194.05v9.13c0,0.73-1.06,1.32-2.37,1.32
		c-1.31,0-2.37-0.59-2.37-1.32v-9.13c-2.13-0.92-3.63-3.04-3.63-5.51c0-3.31,2.68-6,6-6c3.31,0,6,2.68,6,6
		C156.44-197.09,154.95-194.97,152.82-194.05z"/>
	<path class="st0" d="M150.45-233.63c6.85,0,12.63,7.17,12.63,15.66v2.91c0,1.28,1.04,2.32,2.32,2.32h2.07
		c1.28,0,2.32-1.04,2.32-2.32v-2.91c0-12.3-8.71-22.37-19.34-22.37c-10.64,0-19.34,10.07-19.34,22.37v2.91
		c0,1.28,1.04,2.32,2.32,2.32h2.07c1.28,0,2.32-1.04,2.32-2.32v-2.91C137.82-226.46,143.6-233.63,150.45-233.63z"/>
</g>
<g>
	<path class="st0" d="M271.7-215.7c-10.68,0-19.34,8.66-19.34,19.34c0,10.68,8.66,19.34,19.34,19.34c10.68,0,19.34-8.66,19.34-19.34
		C291.04-207.04,282.38-215.7,271.7-215.7z M274.07-195.29v9.13c0,0.73-1.06,1.32-2.37,1.32c-1.31,0-2.37-0.59-2.37-1.32v-9.13
		c-2.13-0.92-3.63-3.04-3.63-5.51c0-3.31,2.68-6,6-6c3.31,0,6,2.68,6,6C277.69-198.33,276.2-196.21,274.07-195.29z"/>
	<path class="st0" d="M271.7-234.88c6.85,0,12.63,7.17,12.63,15.66v2.91c0,1.28,1.04,2.32,2.32,2.32h2.07
		c1.28,0,2.32-1.04,2.32-2.32v-2.91c0-12.3-8.71-22.37-19.34-22.37c-10.64,0-19.34,10.07-19.34,22.37v2.91
		c0,1.28,1.04,2.32,2.32,2.32h2.07c1.28,0,2.32-1.04,2.32-2.32v-2.91C259.07-227.7,264.85-234.88,271.7-234.88z"/>
</g>
<g>
	<path class="st0" d="M391.56-177.94l-3.95-3.96c-0.87-0.87-21.23-21.47-21.23-39.54c0-1.54,0.08-3.07,0.23-4.55l0.58-5.57
		l5.54,0.59c0.07,0,0.31,0.02,0.67,0.02c2.42,0,8.65-0.58,14.24-5.94l3.95-3.78l1.27,1.26l2.63,2.52
		c5.59,5.36,11.82,5.94,14.24,5.94c0.4,0,0.65-0.02,0.7-0.02l5.48-0.52l0.61,5.48c0.15,1.49,0.23,3.02,0.23,4.56
		c0,18.07-20.36,38.67-21.23,39.54L391.56-177.94z M370.5-227.45l-0.19,1.86c-0.14,1.35-0.21,2.75-0.21,4.16
		c0,16.54,19.32,36.09,20.14,36.91l1.32,1.32l1.32-1.32c0.82-0.82,20.14-20.36,20.14-36.91c0-1.41-0.07-2.81-0.21-4.16l-0.2-1.83
		l-1.95,0.18c-0.14,0.01-0.46,0.03-0.93,0.03c-2.87,0-10.25-0.68-16.81-6.97l-1.35-1.29l-0.03,0.03l0,0l-1.32,1.27
		c-6.57,6.29-13.95,6.97-16.81,6.97c-0.45,0-0.77-0.02-0.9-0.03l-0.13-0.01L370.5-227.45z"/>
	<path class="st0" d="M410.95-225.4c0,0-10.4,1.12-19.33-7.44c-0.02,0.02-0.04,0.04-0.06,0.06c-0.02-0.02-0.04-0.04-0.06-0.06
		c-8.93,8.56-19.33,7.44-19.33,7.44c-0.13,1.25-0.2,2.57-0.2,3.97c0,15.96,19.6,35.6,19.6,35.6s19.6-19.64,19.6-35.6
		C411.15-222.83,411.08-224.15,410.95-225.4z M384.33-205.82l-4.93-6.99l1.63-1.15l3.74,5.31l17.51-13.05l1.2,1.6L384.33-205.82z"/>
</g>
<g>
	
		<rect x="482.57" y="-203.36" transform="matrix(0.943 -0.3329 0.3329 0.943 93.8852 150.6716)" class="st0" width="8.18" height="9.4"/>
	<polygon class="st0" points="543.22,-198.44 539.95,-195.16 521.92,-195.16 518.91,-205 537.21,-211.46 533.27,-222.63 
		532.14,-225.83 530.11,-231.59 474.84,-212.08 478,-203.12 490.79,-207.63 494.73,-196.46 514.29,-203.37 518.31,-190.28 
		518.31,-190.28 518.31,-190.28 539.94,-190.28 543.22,-187 545.59,-187 545.59,-198.44 	"/>
</g>
<g>
	<path class="st0" d="M43.87-116.89H19.19c-0.79,0-1.43,0.86-1.43,1.91v42.94c0,1.05,0.64,1.91,1.43,1.91h24.68
		c0.79,0,1.43-0.86,1.43-1.91v-42.94C45.3-116.04,44.66-116.89,43.87-116.89z M36.65-71.95H26.4c-0.43,0-0.79-0.47-0.79-1.05
		c0-0.58,0.35-1.05,0.79-1.05h10.25c0.44,0,0.79,0.47,0.79,1.05C37.44-72.42,37.09-71.95,36.65-71.95z M42.83-77.42
		c0,0.86-0.53,1.56-1.18,1.56H21.4c-0.65,0-1.18-0.7-1.18-1.56v-35.24c0-0.86,0.53-1.56,1.18-1.56h20.25c0.65,0,1.18,0.7,1.18,1.56
		V-77.42z"/>
	<g>
		<path class="st0" d="M36.3-96.3h-9.55c-0.66,0-1.19,0.54-1.19,1.19v8.02c0,0.66,0.54,1.19,1.19,1.19h9.55
			c0.66,0,1.19-0.53,1.19-1.19v-8.02C37.5-95.76,36.96-96.3,36.3-96.3z M32.26-90.76v2.82c0,0.22-0.33,0.41-0.73,0.41
			c-0.4,0-0.73-0.18-0.73-0.41v-2.82c-0.66-0.28-1.12-0.94-1.12-1.7c0-1.02,0.83-1.85,1.85-1.85c1.02,0,1.85,0.83,1.85,1.85
			C33.38-91.7,32.92-91.05,32.26-90.76z"/>
		<path class="st0" d="M31.53-102.98c2.11,0,3.9,2.21,3.9,4.83v0.9c0,0.4,0.32,0.72,0.72,0.72h0.64c0.4,0,0.72-0.32,0.72-0.72v-0.9
			c0-3.8-2.69-6.9-5.97-6.9s-5.97,3.11-5.97,6.9v0.9c0,0.4,0.32,0.72,0.72,0.72h0.64c0.4,0,0.72-0.32,0.72-0.72v-0.9
			C27.63-100.77,29.42-102.98,31.53-102.98z"/>
	</g>
</g>
<g>
	<path class="st0" d="M291.21-123.49h-39.02c-1.25,0-2.26,1.1-2.26,2.44v55.06c0,1.35,1.02,2.45,2.26,2.45h39.02
		c1.25,0,2.27-1.1,2.27-2.45v-55.06C293.47-122.39,292.45-123.49,291.21-123.49z M279.79-65.86h-16.2c-0.69,0-1.25-0.6-1.25-1.35
		c0-0.74,0.56-1.34,1.25-1.34h16.2c0.69,0,1.25,0.6,1.25,1.34C281.04-66.46,280.48-65.86,279.79-65.86z M289.56-72.88
		c0,1.1-0.83,2.01-1.86,2.01h-32.02c-1.02,0-1.86-0.9-1.86-2.01v-45.18c0-1.1,0.84-2.01,1.86-2.01h32.02c1.02,0,1.86,0.9,1.86,2.01
		V-72.88z"/>
	<g>
		<path class="st0" d="M277.12-97.81h-12.14c-0.84,0-1.52,0.68-1.52,1.52v10.19c0,0.84,0.68,1.52,1.52,1.52h12.14
			c0.84,0,1.52-0.68,1.52-1.52v-10.19C278.64-97.13,277.96-97.81,277.12-97.81z M271.98-90.78v3.58c0,0.29-0.42,0.52-0.93,0.52
			c-0.51,0-0.93-0.23-0.93-0.52v-3.58c-0.84-0.36-1.42-1.19-1.42-2.16c0-1.3,1.05-2.35,2.35-2.35c1.3,0,2.35,1.05,2.35,2.35
			C273.41-91.97,272.82-91.14,271.98-90.78z"/>
		<path class="st0" d="M271.05-106.3c2.69,0,4.95,2.81,4.95,6.14v1.14c0,0.5,0.41,0.91,0.91,0.91h0.81c0.5,0,0.91-0.41,0.91-0.91
			v-1.14c0-4.82-3.41-8.77-7.58-8.77c-4.17,0-7.58,3.95-7.58,8.77v1.14c0,0.5,0.41,0.91,0.91,0.91h0.81c0.5,0,0.91-0.41,0.91-0.91
			v-1.14C266.1-103.49,268.37-106.3,271.05-106.3z"/>
	</g>
</g>
<g>
	<g>
		<path class="st0" d="M138.01-121.88h-25.84c-1.05,0-1.91,0.85-1.91,1.91v52.01c0,1.05,0.86,1.91,1.91,1.91h25.84
			c1.06,0,1.91-0.85,1.91-1.91v-52.01C139.92-121.03,139.07-121.88,138.01-121.88z M125.1-72.1c-2.99,0-5.41-2.42-5.41-5.41
			c0-2.99,2.42-5.41,5.41-5.41c2.99,0,5.41,2.42,5.41,5.41C130.51-74.52,128.08-72.1,125.1-72.1z M135.79-105.65H114.4v-4.26h21.39
			V-105.65z M135.79-111.85H114.4v-4.26h21.39V-111.85z"/>
		<path class="st0" d="M188.72-121.88h-46.07c-1.05,0-1.91,0.9-1.91,2v36.92c0,1.11,0.86,2,1.91,2h19.04v9.16h-5.93
			c-1.05,0-1.91,0.85-1.91,1.91v2.83c0,1.06,0.85,1.91,1.91,1.91h19.85c1.05,0,1.91-0.85,1.91-1.91v-2.83
			c0-1.05-0.86-1.91-1.91-1.91h-5.93v-9.16h19.04c1.05,0,1.91-0.9,1.91-2v-36.92C190.62-120.98,189.77-121.88,188.72-121.88z
			 M187.41-85.34c0,0.96-0.74,1.75-1.66,1.75h-40.13c-0.92,0-1.66-0.78-1.66-1.75v-32.16c0-0.96,0.74-1.75,1.66-1.75h40.13
			c0.92,0,1.66,0.78,1.66,1.75V-85.34z"/>
	</g>
	<g>
		<path class="st0" d="M170.23-101.89H158.1c-0.84,0-1.52,0.68-1.52,1.52v10.19c0,0.84,0.68,1.52,1.52,1.52h12.14
			c0.84,0,1.52-0.68,1.52-1.52v-10.19C171.75-101.21,171.07-101.89,170.23-101.89z M165.09-94.86v3.58c0,0.29-0.42,0.52-0.93,0.52
			c-0.51,0-0.93-0.23-0.93-0.52v-3.58c-0.84-0.36-1.42-1.19-1.42-2.16c0-1.3,1.05-2.35,2.35-2.35c1.3,0,2.35,1.05,2.35,2.35
			C166.52-96.05,165.93-95.22,165.09-94.86z"/>
		<path class="st0" d="M164.16-110.38c2.69,0,4.95,2.81,4.95,6.14v1.14c0,0.5,0.41,0.91,0.91,0.91h0.81c0.5,0,0.91-0.41,0.91-0.91
			v-1.14c0-4.82-3.41-8.77-7.59-8.77s-7.58,3.95-7.58,8.77v1.14c0,0.5,0.41,0.91,0.91,0.91h0.81c0.5,0,0.91-0.41,0.91-0.91v-1.14
			C159.21-107.57,161.48-110.38,164.16-110.38z"/>
	</g>
</g>
<g>
	<g>
		<path class="st0" d="M416.77-124.37h-50.43c-0.76,0-1.39,0.63-1.39,1.39v32.25c0,0.77,0.63,1.39,1.39,1.39h50.43
			c0.76,0,1.39-0.62,1.39-1.39v-32.25C418.16-123.74,417.53-124.37,416.77-124.37z M415.24-92.49c0,0.68-0.56,1.24-1.24,1.24h-44.9
			c-0.68,0-1.24-0.56-1.24-1.24v-28.72c0-0.68,0.56-1.24,1.24-1.24h44.9c0.68,0,1.24,0.56,1.24,1.24V-92.49z"/>
		<path class="st0" d="M418.39-87.53c-0.12-0.65-0.77-1.18-1.42-1.18h-50.81c-0.66,0-1.3,0.53-1.42,1.18l-4.54,23.69
			c-0.12,0.65,0.31,1.18,0.97,1.18h60.8c0.66,0,1.09-0.53,0.97-1.18L418.39-87.53z M384.81-69.66h13.49c0.79,0,1.44,0.64,1.44,1.44
			c0,0.79-0.64,1.44-1.44,1.44h-13.49c-0.79,0-1.44-0.65-1.44-1.44C383.38-69.02,384.02-69.66,384.81-69.66z M419.97-64.16h-56.83
			c-0.38,0-0.69-0.31-0.69-0.69c0-0.38,0.31-0.69,0.69-0.69h56.83c0.38,0,0.69,0.31,0.69,0.69
			C420.66-64.47,420.35-64.16,419.97-64.16z"/>
	</g>
	<g>
		<path class="st0" d="M397.62-108.18h-12.14c-0.84,0-1.52,0.68-1.52,1.52v10.19c0,0.84,0.68,1.52,1.52,1.52h12.14
			c0.84,0,1.52-0.68,1.52-1.52v-10.19C399.14-107.5,398.46-108.18,397.62-108.18z M392.48-101.16v3.58c0,0.29-0.42,0.52-0.93,0.52
			c-0.51,0-0.93-0.23-0.93-0.52v-3.58c-0.84-0.36-1.42-1.19-1.42-2.16c0-1.3,1.05-2.35,2.35-2.35c1.3,0,2.35,1.05,2.35,2.35
			C393.91-102.35,393.32-101.52,392.48-101.16z"/>
		<path class="st0" d="M391.55-116.68c2.69,0,4.95,2.81,4.95,6.14v1.14c0,0.5,0.41,0.91,0.91,0.91h0.81c0.5,0,0.91-0.41,0.91-0.91
			v-1.14c0-4.82-3.41-8.77-7.58-8.77c-4.17,0-7.58,3.95-7.58,8.77v1.14c0,0.5,0.41,0.91,0.91,0.91h0.81c0.5,0,0.91-0.41,0.91-0.91
			v-1.14C386.6-113.86,388.87-116.68,391.55-116.68z"/>
	</g>
</g>
<path class="st0" d="M294.57,170.9l-11.18-17.67c-0.53-0.83-0.4-2.08,0.2-2.86c4.88-6.32,5.57-15.27,1.05-22.42
	c-5.77-9.13-17.86-11.85-26.99-6.07c-9.13,5.78-11.85,17.86-6.07,26.98c4.52,7.14,12.9,10.36,20.7,8.66
	c0.96-0.21,2.14,0.21,2.67,1.04l11.18,17.68c0.53,0.83,1.62,1.08,2.45,0.55l5.44-3.44C294.85,172.83,295.1,171.73,294.57,170.9z
	 M274.78,149.34c-5.98,3.78-13.89,2-17.66-3.97c-3.78-5.98-2-13.88,3.98-17.66c5.97-3.78,13.88-2,17.66,3.97
	C282.53,137.65,280.75,145.56,274.78,149.34z M289.78,172.67c-0.64,0.4-1.37,0.38-1.65-0.06l-3.82-6.04
	c-0.28-0.44,0.01-1.11,0.65-1.52c0.64-0.4,1.38-0.38,1.65,0.06l3.82,6.04C290.71,171.59,290.42,172.27,289.78,172.67z"/>
<g>
	<path class="st0" d="M541.21,269.73v-9.86h-6.17c-0.66-3.33-1.97-6.42-3.79-9.14l4.36-4.36l-6.97-6.97l-4.36,4.36
		c-2.72-1.82-5.81-3.13-9.14-3.79v-6.17h-9.86v6.17c-3.33,0.66-6.42,1.96-9.14,3.79l-4.36-4.36l-6.97,6.97l4.36,4.36
		c-1.82,2.72-3.13,5.81-3.79,9.14h-6.17v9.86h6.17c0.66,3.33,1.96,6.42,3.79,9.14l-4.36,4.36l6.97,6.97l4.36-4.36
		c2.72,1.82,5.81,3.13,9.14,3.78v6.17h9.86v-6.17c3.33-0.66,6.42-1.96,9.14-3.78l4.36,4.36l6.97-6.97l-4.36-4.36
		c1.82-2.72,3.13-5.81,3.79-9.14H541.21z M510.21,279.03c-7.86,0-14.24-6.37-14.24-14.23c0-7.86,6.37-14.23,14.24-14.23
		c7.86,0,14.23,6.37,14.23,14.23C524.45,272.66,518.07,279.03,510.21,279.03z"/>
	<path class="st0" d="M510.21,272.74c0.95,0,1.71-0.43,1.71-0.95v-6.6c1.55-0.67,2.62-2.2,2.62-3.98c0-2.4-1.94-4.34-4.34-4.34
		c-2.39,0-4.34,1.94-4.34,4.34c0,1.78,1.08,3.32,2.62,3.98v6.6C508.5,272.31,509.26,272.74,510.21,272.74z"/>
</g>
<g>
	<path class="st0" d="M536.86,9V6.76H508.8V6.12c0-2.13-1.72-3.86-3.85-3.86h-19.19c-2.13,0-3.85,1.72-3.85,3.86v0.64h-5.79v42.01
		L483.89,9H536.86z"/>
	<path class="st0" d="M510.73,31.99c-1.3,0-2.35,1.05-2.35,2.35c0,0.97,0.59,1.8,1.42,2.16v3.58c0,0.29,0.41,0.52,0.93,0.52
		c0.51,0,0.93-0.23,0.93-0.52V36.5c0.84-0.36,1.42-1.19,1.42-2.16C513.08,33.04,512.03,31.99,510.73,31.99z"/>
	<path class="st0" d="M536.86,10.7h-51.57l-8.15,41.65h59.02l0.7-3.57l7.45-38.08H536.86z M518.31,41.18c0,0.84-0.68,1.52-1.52,1.52
		h-12.14c-0.84,0-1.52-0.68-1.52-1.52V30.99c0-0.84,0.68-1.52,1.52-1.52h12.14c0.84,0,1.52,0.68,1.52,1.52V41.18z M518.31,28.26
		c0,0.5-0.41,0.91-0.91,0.91h-0.81c-0.5,0-0.91-0.41-0.91-0.91v-1.14c0-3.33-2.27-6.14-4.95-6.14c-2.68,0-4.95,2.81-4.95,6.14v1.14
		c0,0.5-0.41,0.91-0.91,0.91h-0.81c-0.5,0-0.91-0.41-0.91-0.91v-1.14c0-4.82,3.41-8.77,7.58-8.77c4.17,0,7.58,3.95,7.58,8.77V28.26z
		"/>
</g>
<g>
	<g>
		<g>
			<path class="st0" d="M416.77-3.55h-50.43c-0.76,0-1.39,0.62-1.39,1.39V30.1c0,0.77,0.63,1.39,1.39,1.39h50.43
				c0.76,0,1.39-0.62,1.39-1.39V-2.16C418.16-2.92,417.53-3.55,416.77-3.55z M415.24,28.33c0,0.68-0.56,1.24-1.24,1.24h-44.9
				c-0.68,0-1.24-0.56-1.24-1.24V-0.39c0-0.68,0.56-1.24,1.24-1.24h44.9c0.68,0,1.24,0.56,1.24,1.24V28.33z"/>
			<path class="st0" d="M418.39,33.29c-0.12-0.64-0.77-1.18-1.42-1.18h-50.81c-0.66,0-1.3,0.53-1.42,1.18l-4.54,23.69
				c-0.12,0.65,0.31,1.18,0.97,1.18h60.8c0.66,0,1.09-0.53,0.97-1.18L418.39,33.29z M384.81,51.16h13.49c0.79,0,1.44,0.64,1.44,1.44
				c0,0.79-0.64,1.44-1.44,1.44h-13.49c-0.79,0-1.44-0.65-1.44-1.44C383.38,51.8,384.02,51.16,384.81,51.16z M419.97,56.65h-56.83
				c-0.38,0-0.69-0.31-0.69-0.69c0-0.38,0.31-0.69,0.69-0.69h56.83c0.38,0,0.69,0.31,0.69,0.69
				C420.66,56.35,420.35,56.65,419.97,56.65z"/>
		</g>
	</g>
	<g>
		<path class="st0" d="M391.56,24.12l-1.3-1.31c-0.29-0.29-7-7.08-7-13.05c0-0.51,0.03-1.01,0.08-1.5l0.19-1.84l1.83,0.2
			c0.02,0,0.1,0.01,0.22,0.01c0.8,0,2.85-0.19,4.7-1.96l1.3-1.25l0.42,0.42l0.87,0.83c1.84,1.77,3.9,1.96,4.7,1.96
			c0.13,0,0.21-0.01,0.23-0.01l1.81-0.17l0.2,1.81c0.05,0.49,0.08,1,0.08,1.5c0,5.96-6.72,12.76-7,13.05L391.56,24.12z M384.61,7.78
			l-0.06,0.61c-0.05,0.45-0.07,0.91-0.07,1.37c0,5.46,6.37,11.91,6.64,12.18l0.43,0.44l0.43-0.44c0.27-0.27,6.64-6.72,6.64-12.18
			c0-0.47-0.02-0.93-0.07-1.37l-0.07-0.6l-0.64,0.06c-0.05,0-0.15,0.01-0.31,0.01c-0.95,0-3.38-0.22-5.55-2.3l-0.44-0.43l-0.01,0.01
			l0,0l-0.44,0.42c-2.17,2.08-4.6,2.3-5.55,2.3c-0.15,0-0.25-0.01-0.3-0.01l-0.04,0L384.61,7.78z"/>
		<path class="st0" d="M397.95,8.46c0,0-3.43,0.37-6.38-2.46c-0.01,0.01-0.01,0.01-0.02,0.02c-0.01-0.01-0.01-0.01-0.02-0.02
			c-2.95,2.82-6.38,2.46-6.38,2.46c-0.04,0.41-0.07,0.85-0.07,1.31c0,5.27,6.47,11.75,6.47,11.75s6.47-6.48,6.47-11.75
			C398.02,9.31,398,8.87,397.95,8.46z"/>
	</g>
</g>
<g>
	<path class="st0" d="M271.7,58.66l-3.95-3.96c-0.87-0.87-21.23-21.47-21.23-39.54c0-1.54,0.08-3.07,0.23-4.55l0.58-5.57l5.54,0.59
		c0.07,0,0.31,0.02,0.67,0.02c2.42,0,8.65-0.58,14.24-5.94l3.95-3.78l1.27,1.26l2.63,2.52c5.59,5.36,11.82,5.94,14.24,5.94
		c0.4,0,0.65-0.02,0.7-0.02l5.48-0.51l0.61,5.48c0.15,1.49,0.23,3.02,0.23,4.56c0,18.07-20.36,38.67-21.23,39.54L271.7,58.66z
		 M250.64,9.15L250.45,11c-0.14,1.35-0.21,2.75-0.21,4.16c0,16.54,19.32,36.09,20.14,36.91l1.32,1.32l1.32-1.32
		c0.82-0.82,20.14-20.37,20.14-36.91c0-1.41-0.07-2.81-0.21-4.16l-0.2-1.83l-1.95,0.18c-0.14,0.01-0.46,0.03-0.93,0.03
		c-2.87,0-10.25-0.68-16.81-6.97l-1.35-1.29l-0.03,0.03l0,0l-1.32,1.27c-6.57,6.29-13.95,6.97-16.81,6.97
		c-0.45,0-0.77-0.02-0.9-0.03l-0.13-0.01L250.64,9.15z"/>
	<path class="st0" d="M291.09,11.2c0,0-10.4,1.12-19.33-7.44c-0.02,0.02-0.04,0.04-0.06,0.05c-0.02-0.02-0.04-0.04-0.06-0.05
		c-8.93,8.56-19.33,7.44-19.33,7.44c-0.13,1.25-0.2,2.57-0.2,3.97c0,15.96,19.6,35.6,19.6,35.6s19.6-19.64,19.6-35.6
		C291.29,13.77,291.22,12.45,291.09,11.2z M281.89,32.58L280.48,34l-8.78-8.78L262.92,34l-1.41-1.41l8.78-8.78l-8.78-8.78l1.41-1.41
		l8.78,8.78l8.78-8.78l1.41,1.41l-8.78,8.78L281.89,32.58z"/>
</g>
<path class="st0" d="M1.18,144.79c1.69-15.27,14.63-27.15,30.35-27.15c15.72,0,28.66,11.88,30.35,27.15
	c0.21,1.86,0.26,1.75-0.73,0.17c-1.08-1.73-3-2.89-5.19-2.89c-2.19,0-4.11,1.15-5.19,2.89c-0.99,1.59-0.84,1.59-1.84,0
	c-1.08-1.73-3-2.89-5.19-2.89c-2.19,0-4.11,1.15-5.19,2.89c-0.99,1.59-0.84,1.59-1.83,0c-0.96-1.55-2.61-2.63-4.51-2.84v30.4
	c0,3.18-2.59,5.77-5.77,5.77c-3.18,0-5.77-2.59-5.77-5.77h1.36c0,2.43,1.98,4.41,4.41,4.41c2.43,0,4.41-1.98,4.41-4.41v-30.4
	c-1.91,0.21-3.55,1.29-4.51,2.84c-0.99,1.59-0.84,1.59-1.83,0c-1.08-1.73-3-2.89-5.19-2.89c-2.19,0-4.11,1.15-5.19,2.89
	c-0.99,1.59-0.85,1.59-1.84,0c-1.08-1.73-3-2.89-5.19-2.89c-2.19,0-4.11,1.15-5.19,2.89C0.92,146.54,0.97,146.65,1.18,144.79z"/>
<g>
	<g>
		<path class="st0" d="M150.45,45.84c-19.34,0-34.66-16.66-35.31-17.37l-1.06-1.17l1.06-1.17c0.64-0.71,15.97-17.37,35.31-17.37
			c19.34,0,34.66,16.66,35.31,17.37l1.06,1.17l-1.06,1.17C185.11,29.18,169.78,45.84,150.45,45.84z M118.86,27.3
			c3.81,3.72,16.65,15.07,31.59,15.07c14.94,0,27.78-11.34,31.59-15.06c-3.81-3.72-16.65-15.06-31.59-15.06
			C135.48,12.24,122.66,23.58,118.86,27.3z"/>
	</g>
	<g>
		<path class="st0" d="M150.45,41.72c-7.95,0-14.42-6.47-14.42-14.42c0-7.95,6.47-14.42,14.42-14.42c7.95,0,14.42,6.47,14.42,14.42
			C164.87,35.25,158.4,41.72,150.45,41.72z M150.45,15.58c-6.46,0-11.72,5.26-11.72,11.72s5.26,11.72,11.72,11.72
			c6.46,0,11.72-5.26,11.72-11.72S156.91,15.58,150.45,15.58z"/>
	</g>
	<path class="st0" d="M159.96,27.3c0,5.25-4.26,9.51-9.51,9.51c-5.25,0-9.51-4.26-9.51-9.51c0-5.25,4.26-9.51,9.51-9.51
		C155.7,17.79,159.96,22.05,159.96,27.3z"/>
</g>
<g>
	<polygon class="st0" points="372.18,249.02 382.45,263.13 384.54,260.91 374.59,247.26 374.56,242.32 367.27,236.66 364.34,238.8 
		367.49,247.47 	"/>
	<path class="st0" d="M395.44,270.38l-6.6,7.04l10.74,14.75c0.97,1.34,3.04,2.35,4.59,2.25c1.55-0.1,3.27-1.36,3.83-2.79
		c0.56-1.43,0.21-3.69-0.76-5.03L395.44,270.38z M404.89,291.41c-1.01,0.73-2.42,0.51-3.15-0.5c-0.73-1.01-0.51-2.42,0.5-3.15
		c1.01-0.73,2.42-0.51,3.15,0.5C406.12,289.26,405.9,290.67,404.89,291.41z"/>
	<path class="st0" d="M418.78,243l-9.62,9.62l-6.68-6.68l9.62-9.62c-1.71-0.76-3.54-1.14-5.37-1.14c-3.37,0-6.73,1.28-9.3,3.85
		c-3.83,3.83-4.81,9.45-2.93,14.19l-8.77,9.34l-2.08,2.22l-19.56,20.85c-1.5,1.5-1.07,4.37,0.97,6.41c1.22,1.22,2.74,1.86,4.08,1.86
		c0.9,0,1.72-0.29,2.33-0.89l16.18-17.24l6.6-7.04l7.64-8.14c1.56,0.62,3.22,0.93,4.87,0.93c3.37,0,6.74-1.28,9.31-3.86
		C420.03,253.7,420.93,247.84,418.78,243z M371.26,288.94c-0.43,0.43-0.99,0.64-1.55,0.64s-1.12-0.21-1.55-0.64
		c-0.86-0.86-0.86-2.25,0-3.11c0.43-0.43,0.99-0.64,1.55-0.64s1.12,0.21,1.55,0.64C372.12,286.69,372.12,288.09,371.26,288.94z"/>
</g>
<g>
	<g>
		<path class="st0" d="M63.06,54.61H0L31.53,0L63.06,54.61z M4.99,51.72h53.07L31.53,5.77L4.99,51.72z"/>
	</g>
	<g>
		<path class="st0" d="M33.19,39.36c-0.07,0.65-0.67,1.18-1.32,1.18h-0.69c-0.65,0-1.25-0.53-1.32-1.18l-2.11-18.91
			c-0.07-0.65,0.4-1.18,1.06-1.18h5.44c0.65,0,1.13,0.53,1.06,1.18L33.19,39.36z"/>
		<path class="st0" d="M34.26,45.18c0,1.51-1.22,2.74-2.74,2.74c-1.51,0-2.74-1.22-2.74-2.74c0-1.51,1.22-2.74,2.74-2.74
			C33.04,42.44,34.26,43.66,34.26,45.18z"/>
	</g>
</g>
<g>
	<path class="st0" d="M271.7,293.5c-15.83,0-28.7-12.88-28.7-28.7s12.88-28.7,28.7-28.7c15.83,0,28.7,12.88,28.7,28.7
		S287.52,293.5,271.7,293.5z M271.7,240.01c-13.67,0-24.79,11.12-24.79,24.79c0,13.67,11.12,24.79,24.79,24.79
		c13.67,0,24.79-11.12,24.79-24.79C296.49,251.13,285.37,240.01,271.7,240.01z"/>
	<rect x="259.11" y="260.3" class="st0" width="25.18" height="9"/>
</g>
<path class="st0" d="M538.17,137.48c-3.02-8.06-9.42-14.45-17.48-17.47c-0.28-0.11-0.56-0.23-0.84-0.33
	c-3.02-1.03-6.26-1.6-9.63-1.6s-6.61,0.57-9.63,1.6c-0.29,0.1-0.56,0.22-0.84,0.33c-8.06,3.02-14.46,9.42-17.48,17.47
	c-0.04,0.1-0.07,0.2-0.1,0.3l0,0l-0.03,0.09c-1.14,3.15-1.78,6.54-1.78,10.09c0,3.69,0.67,7.22,1.9,10.48
	c3.02,8.06,9.43,14.47,17.49,17.49c3.26,1.22,6.79,1.9,10.48,1.9c3.69,0,7.22-0.67,10.48-1.9c8.06-3.02,14.47-9.43,17.49-17.49
	c1.22-3.26,1.9-6.79,1.9-10.48C540.08,144.27,539.39,140.75,538.17,137.48z M536.47,157.85c-2.85,7.52-8.83,13.51-16.36,16.36
	c-0.09,0.03-0.17,0.07-0.26,0.1l-4.53-12.1c0.21-0.08,0.42-0.15,0.63-0.23c3.75-1.54,6.76-4.54,8.29-8.3
	c0.09-0.21,0.16-0.43,0.24-0.65l12.08,4.57C536.53,157.69,536.5,157.77,536.47,157.85z M483.84,157.53l12.15-4.39
	c0.07,0.18,0.13,0.37,0.2,0.55c1.54,3.75,4.54,6.76,8.29,8.29c0.21,0.08,0.42,0.16,0.63,0.23l-4.53,12.1
	c-0.09-0.03-0.18-0.07-0.26-0.1c-7.52-2.85-13.51-8.83-16.36-16.36C483.92,157.75,483.88,157.64,483.84,157.53z M483.97,138.07
	c2.8-7.42,8.67-13.45,16.35-16.34c0.1-0.04,0.2-0.08,0.3-0.11l4.45,12.1c-0.2,0.07-0.39,0.15-0.59,0.23
	c-3.83,1.56-6.79,4.58-8.3,8.28c-0.07,0.18-0.14,0.37-0.2,0.55l-12.12-4.38C483.89,138.29,483.93,138.18,483.97,138.07z
	 M536.54,138.32l-12.06,4.56c-0.08-0.22-0.15-0.44-0.24-0.65c-1.52-3.7-4.47-6.72-8.3-8.28c-0.19-0.08-0.39-0.16-0.59-0.23
	l4.45-12.1c0.1,0.04,0.2,0.08,0.29,0.11c7.68,2.89,13.55,8.93,16.35,16.34C536.48,138.15,536.51,138.24,536.54,138.32z
	 M514.52,160.59c-1.35,0.46-2.8,0.72-4.3,0.72c-1.51,0-2.95-0.26-4.3-0.72c-0.29-0.1-0.57-0.19-0.85-0.31
	c-3.23-1.35-5.82-3.94-7.17-7.17c-0.12-0.28-0.21-0.56-0.31-0.85c-0.02-0.06-0.05-0.12-0.07-0.18c-0.07-0.23-0.13-0.47-0.2-0.71
	c-0.04-0.14-0.07-0.27-0.1-0.41c-0.05-0.24-0.1-0.48-0.14-0.72c-0.03-0.16-0.05-0.31-0.07-0.47c-0.03-0.22-0.06-0.45-0.08-0.67
	c-0.02-0.23-0.03-0.46-0.04-0.69c0-0.15-0.02-0.3-0.02-0.45c0-1.32,0.2-2.64,0.59-3.92c0.04-0.11,0.06-0.23,0.1-0.34
	c0-0.01,0.01-0.03,0.01-0.04c0.1-0.29,0.2-0.57,0.32-0.85c1.35-3.23,3.94-5.8,7.17-7.15c0.28-0.12,0.56-0.23,0.84-0.32
	c1.35-0.46,2.79-0.72,4.3-0.72c1.51,0,2.95,0.26,4.3,0.72c0.29,0.1,0.57,0.21,0.84,0.32c3.23,1.35,5.82,3.93,7.17,7.15
	c0.12,0.28,0.22,0.56,0.32,0.85c0.46,1.35,0.71,2.8,0.71,4.3c0,1.51-0.26,2.95-0.72,4.3c-0.1,0.29-0.19,0.57-0.31,0.85
	c-1.35,3.23-3.94,5.82-7.17,7.17C515.09,160.39,514.8,160.49,514.52,160.59z"/>
<path class="st0" d="M350.81,129.71v36.5h81.5v-36.5H350.81z M370.58,148.29h-4.83l3.42,3.42l-1.41,1.41l-3.42-3.42v4.84h-2v-4.84
	l-3.42,3.42l-1.41-1.41l3.42-3.42h-4.84v-2h4.84l-3.42-3.42l1.41-1.41l3.42,3.42v-4.83h2v4.84l3.42-3.42l1.41,1.41l-3.42,3.42h4.84
	V148.29z M389.17,148.29h-4.83l3.42,3.42l-1.41,1.41l-3.42-3.42v4.84h-2v-4.84l-3.42,3.42l-1.41-1.41l3.42-3.42h-4.84v-2h4.84
	l-3.42-3.42l1.41-1.41l3.42,3.42v-4.83h2v4.84l3.42-3.42l1.41,1.41l-3.42,3.42h4.84V148.29z M407.75,148.29h-4.83l3.42,3.42
	l-1.41,1.41l-3.42-3.42v4.84h-2v-4.84l-3.42,3.42l-1.41-1.41l3.42-3.42h-4.84v-2h4.84l-3.42-3.42l1.41-1.41l3.42,3.42v-4.83h2v4.84
	l3.42-3.42l1.41,1.41l-3.42,3.42h4.84V148.29z M426.33,154.12h-14.5v-2h14.5V154.12z"/>
<g>
	<path class="st0" d="M538.79-64.83h-57.15v-57.36h57.15V-64.83z M485-68.19h50.43v-50.65H485V-68.19z"/>
	<path class="st0" d="M488.61-115.31v43.6h43.2v-43.6H488.61z M499.85-103.16h3.68v3.68h-3.68V-103.16z M499.85-98.06h3.68v3.68
		h-3.68V-98.06z M499.85-92.95h3.68v3.68h-3.68V-92.95z M506.07-76.89c-2.2,0-3.99-1.79-3.99-3.99c0-2.2,1.78-3.99,3.99-3.99
		c1.43,0,2.67,0.76,3.38,1.89h-2.54c-1.16,0-2.1,0.94-2.1,2.1c0,1.16,0.94,2.1,2.1,2.1h2.54C508.74-77.65,507.5-76.89,506.07-76.89z
		 M509.21-98.06v3.68h-3.68v-3.68H509.21z M505.53-99.48v-3.68h3.68v3.68H505.53z M509.21-92.95v3.68h-3.68v-3.68H509.21z
		 M514.9-98.06v3.68h-3.68v-3.68H514.9z M511.21-99.48v-3.68h3.68v3.68H511.21z M514.9-92.95v3.68h-3.68v-3.68H514.9z M517.92-79.62
		h-8.08h-2.93c-0.69,0-1.26-0.56-1.26-1.26c0-0.69,0.57-1.26,1.26-1.26h2.93h8.08c0.69,0,1.26,0.56,1.26,1.26
		C519.18-80.18,518.61-79.62,517.92-79.62z M520.58-89.27h-3.68v-3.68h3.68V-89.27z M520.58-94.38h-3.68v-3.68h3.68V-94.38z
		 M520.58-99.48h-3.68v-3.68h3.68V-99.48z M520.58-105.42h-20.74v-4.61h20.74V-105.42z"/>
</g>
<path class="st0" d="M171.1,132.28c-6.49,0-11.98,4.28-13.8,10.18h-41.96v6.52V151v12.63h6.61V151h4.38v7.03h6.61V151h3.67v9.18
	h6.61V151h14.08c1.82,5.89,7.31,10.17,13.8,10.17c7.98,0,14.45-6.47,14.45-14.45C185.55,138.75,179.08,132.28,171.1,132.28z
	 M171.1,152.84c-3.38,0-6.11-2.74-6.11-6.11c0-3.38,2.74-6.11,6.11-6.11c3.38,0,6.11,2.74,6.11,6.11
	C177.22,150.1,174.48,152.84,171.1,152.84z"/>
<g>
	<path class="st0" d="M141.95,248.23c0.12,1.95,0.14,2,0.14,2c0.69,2.2,1.44,4.45,1.67,5c0,0,0,0,0.21,0.5
		c0.1,0.26,0.21,0.51,0.32,0.77c0.11,0.26,0.25,0.5,0.38,0.76c0.53,1,1.02,2.03,1.64,3.02c0.6,1,1.21,2.01,1.91,3.01
		c0.34,0.5,0.34,0.5,0.34,0.5c0.38,0.55,0.77,1.11,0.87,1.24c0.1,0.13,0.48,0.64,0.63,0.83c0.15,0.2,0.59,0.77,0.99,1.29
		c0.39,0.51,1.54,2.01,1.67,2.19c0.14,0.18,0.35,0.47,0.47,0.66c0.12,0.18,0.32,0.48,0.45,0.66c0.12,0.18,0.28,0.42,0.35,0.55
		c0.07,0.12,0.33,0.54,0.4,0.66c0.07,0.12,0.31,0.54,0.37,0.66c0.06,0.12,0.33,0.64,0.46,0.89c0,0,0,0,0.11,0.22
		c0.12,0.22,0.19,0.45,0.29,0.67c0.1,0.22,0.2,0.44,0.29,0.67c0.09,0.22,0.16,0.44,0.23,0.66c0.08,0.22,0.08,0.22,0.08,0.22
		c0.09,0.25,0.21,0.65,0.27,0.89c0,0,0,0,0.06,0.22c0.48,1.78,0.66,3.53,0.6,5.21c-0.05,1.67-0.37,3.27-0.81,4.74
		c-0.43,1.47-1,2.82-1.61,4c-0.59,1.19-1.22,2.21-1.77,3.05c-0.56,0.84-1.04,1.49-1.39,1.93c-0.35,0.44-0.35,0.44-0.35,0.44
		c-0.11,0.13-0.12,0.27-0.04,0.33c0.09,0.05,0.31,0.02,0.5-0.07c0,0,0,0,0.58-0.33c0.58-0.34,1.4-0.86,2.36-1.58
		c0.96-0.72,2.05-1.64,3.17-2.77c1.1-1.14,2.22-2.49,3.19-4.05c0.63-1.01,0.63-1.01,0.63-1.01c0.55-1.26,0.83-1.7,0.6-0.96
		c0,0,0,0-0.26,0.62c-0.43,1.05-0.96,2.01-1.48,2.85c-0.52,0.85-1.05,1.58-1.51,2.18c-0.47,0.61-0.87,1.07-1.14,1.39
		c-0.29,0.32-0.29,0.32-0.29,0.32c-0.08,0.09-0.09,0.22-0.01,0.28c0.08,0.06,0.27,0.06,0.43,0.01c0,0,0,0,0.49-0.2
		c0.5-0.2,1.21-0.51,2.05-0.97c0.85-0.45,1.82-1.05,2.85-1.8c1.02-0.76,2.08-1.68,3.07-2.78c0.98-1.1,1.88-2.37,2.54-3.8
		c0.67-1.43,1.09-3.01,1.18-4.66c0.01-0.21,0.01-0.21,0.01-0.21c0.01-0.23,0.01-0.5,0.01-0.62c0-0.12-0.04-0.8-0.07-1.26
		c0,0,0,0-0.05-0.42c-0.05-0.43-0.15-0.84-0.25-1.27c-0.09-0.43-0.09-0.43-0.09-0.43c-0.16-0.46-0.35-1.02-0.44-1.25
		c-0.08-0.23-0.4-0.97-0.47-1.14c-0.07-0.17-0.21-0.45-0.3-0.61c-0.09-0.17-0.24-0.44-0.33-0.61c-0.09-0.17-0.17-0.32-0.19-0.35
		c-0.01-0.02-0.03-0.05-0.03-0.06c-0.01-0.01-0.01-0.02-0.01-0.02c0,0-0.01-0.03-0.04-0.06c-0.02-0.04-0.07-0.13-0.12-0.2
		c-0.04-0.08-0.22-0.38-0.4-0.68c-0.17-0.3-0.39-0.67-0.48-0.82c-0.09-0.15-0.25-0.44-0.37-0.64c0,0,0,0-0.09-0.17
		c-0.17-0.35-0.38-0.7-0.57-1.04c-0.19-0.34-0.19-0.34-0.19-0.34c-0.21-0.38-0.53-1.01-0.72-1.39c0,0,0,0-0.18-0.34
		c-0.38-0.7-0.66-1.39-0.98-2.07c-0.08-0.17-0.08-0.17-0.08-0.17c-0.08-0.19-0.21-0.49-0.29-0.67c0,0,0,0-0.06-0.17
		c-0.14-0.34-0.27-0.67-0.4-1c-0.12-0.33-0.12-0.33-0.12-0.33c-0.11-0.36-0.31-0.95-0.45-1.31c0,0,0,0-0.06-0.32
		c-0.14-0.64-0.34-1.27-0.41-1.87c-0.04-0.3-0.04-0.3-0.04-0.3c-0.05-0.33-0.1-0.73-0.11-0.89c-0.01-0.16-0.04-0.71-0.04-0.87
		c0-0.16,0-0.81,0-1.12c0,0,0,0,0.04-0.27c0.04-0.27,0.08-0.53,0.11-0.79c0.02-0.12,0.02-0.12,0.02-0.12
		c0.02-0.14,0.06-0.37,0.1-0.51c0,0,0,0,0.03-0.12c0.06-0.25,0.06-0.25,0.06-0.25c0.07-0.26,0.19-0.68,0.28-0.93c0,0,0,0,0.08-0.22
		c0.08-0.22,0.15-0.44,0.24-0.64c0.09-0.21,0.18-0.41,0.27-0.6c0.09-0.19,0.09-0.19,0.09-0.19c0.09-0.2,0.25-0.52,0.35-0.7
		c0,0,0,0,0.09-0.16c0.18-0.32,0.32-0.61,0.47-0.86c0.15-0.24,0.28-0.45,0.39-0.62c0.21-0.35,0.21-0.35,0.21-0.35
		c0.06-0.1,0.03-0.22-0.06-0.27c-0.1-0.05-0.22-0.05-0.29-0.02c-0.06,0.04-0.75,0.45-1,0.61c0,0,0,0-0.3,0.19
		c-0.3,0.19-0.61,0.43-0.97,0.7c-0.18,0.14-0.18,0.14-0.18,0.14c-0.21,0.16-0.55,0.44-0.75,0.61c0,0,0,0-0.2,0.17
		c-0.2,0.18-0.2,0.18-0.2,0.18c-0.23,0.2-0.59,0.55-0.8,0.78c0,0,0,0-0.2,0.22c-0.2,0.22-0.2,0.22-0.2,0.22
		c-0.23,0.25-0.5,0.58-0.6,0.71c-0.1,0.14-0.53,0.76-0.72,1.06c-0.19,0.3-0.81,1.43-0.96,1.78c0,0,0,0-0.13,0.32
		c-0.12,0.33-0.12,0.33-0.12,0.33c-0.12,0.37-0.31,0.98-0.41,1.36c0,0,0,0-0.09,0.35c-0.09,0.36-0.1,0.71-0.16,1.08
		c-0.21,1.47-0.21,1.47-0.21,1.47c0.19,1.7,0.38,3.25,0.42,3.44c0.04,0.19,0,0.5-0.18,0.27c0,0,0,0-0.14-0.2
		c-0.32-0.46-0.67-0.91-1.01-1.37c-0.33-0.45-0.7-0.9-1-1.36c-0.31-0.46-0.63-0.92-0.94-1.38c-1.29-1.83-2.36-3.65-3.34-5.42
		c-0.24-0.45-0.42-0.89-0.65-1.33c-0.11-0.22-0.11-0.22-0.11-0.22c-0.12-0.24-0.25-0.51-0.29-0.6c-0.04-0.09-0.11-0.24-0.14-0.33
		c-0.04-0.09-0.22-0.55-0.42-1.02c-0.2-0.47-0.61-1.88-0.68-2.11c0,0,0,0-0.06-0.2c-0.06-0.21-0.06-0.21-0.06-0.21
		c-0.05-0.22-0.13-0.59-0.18-0.82c-0.04-0.22-0.18-0.98-0.21-1.2c-0.03-0.22-0.13-1.12-0.18-1.54c0,0,0,0,0.01-0.37
		c0.01-0.38,0.01-0.38,0.01-0.38c0.01-0.39,0.02-0.88,0.02-1.08c0,0,0,0,0.02-0.17c0.03-0.18,0.05-0.34,0.07-0.51
		c0.05-0.34,0.05-0.34,0.05-0.34c0.05-0.36,0.16-0.94,0.24-1.3c0,0,0,0,0.07-0.3c0.08-0.31,0.08-0.31,0.08-0.31
		c0.08-0.32,0.23-0.83,0.34-1.14c0,0,0,0,0.1-0.27c0.09-0.27,0.09-0.27,0.09-0.27c0.1-0.27,0.27-0.71,0.39-0.97c0,0,0,0,0.1-0.22
		c0.2-0.43,0.36-0.83,0.53-1.18c0.18-0.34,0.18-0.34,0.18-0.34c0.15-0.28,0.35-0.68,0.45-0.88c0.1-0.2,0.1-0.4,0-0.44
		c-0.1-0.04-0.3,0.03-0.44,0.14c0,0,0,0-0.47,0.39c-0.23,0.2-0.52,0.46-0.85,0.75c-0.33,0.3-0.66,0.66-1.05,1.06
		c-0.2,0.21-0.2,0.21-0.2,0.21c-0.23,0.24-0.59,0.65-0.8,0.92c0,0,0,0-0.2,0.26c-0.2,0.26-0.2,0.26-0.2,0.26
		c-0.24,0.3-0.61,0.81-0.81,1.14c0,0,0,0-0.2,0.31c-0.19,0.31-0.19,0.31-0.19,0.31c-0.22,0.36-0.55,0.98-0.74,1.37
		c0,0,0,0-0.18,0.36c-0.09,0.19-0.17,0.37-0.26,0.56c-0.09,0.19-0.14,0.39-0.21,0.58c-0.13,0.4-0.26,0.81-0.39,1.22
		c-0.12,0.42-0.12,0.42-0.12,0.42c-0.08,0.48-0.18,1.07-0.23,1.31c-0.05,0.25-0.1,1.11-0.11,1.36c-0.01,0.25-0.04,1.15-0.04,1.41
		c0,0,0,0,0.02,0.24C141.91,247.75,141.94,247.99,141.95,248.23z"/>
	<path class="st0" d="M131.94,286.85c0.66,1.43,1.56,2.7,2.54,3.8c0.98,1.09,2.05,2.02,3.06,2.77c1.03,0.75,2.01,1.35,2.85,1.8
		c0.85,0.45,1.55,0.77,2.05,0.97c0.49,0.2,0.49,0.2,0.49,0.2c0.16,0.05,0.35,0.04,0.43-0.02c0.08-0.06,0.07-0.18-0.02-0.27
		c0,0,0,0-0.28-0.32c-0.28-0.33-0.68-0.79-1.14-1.39c-0.46-0.6-0.99-1.34-1.51-2.19c-0.53-0.85-1.05-1.8-1.48-2.85
		c-0.44-1.05-0.81-2.18-1-3.38c-0.2-1.19-0.25-2.44-0.09-3.72c0.02-0.16,0.02-0.16,0.02-0.16c0.02-0.18,0.05-0.39,0.06-0.48
		c0.02-0.09,0.08-0.47,0.11-0.64c0,0,0,0,0.05-0.16c0.04-0.16,0.04-0.16,0.04-0.16c0.05-0.18,0.13-0.47,0.18-0.65
		c0.05-0.18,0.31-0.95,0.43-1.31c0,0,0,0,0.14-0.33c0.07-0.16,0.07-0.16,0.07-0.16c0.07-0.18,0.19-0.44,0.25-0.57
		c0.06-0.14,0.17-0.35,0.24-0.49c0.06-0.13,0.18-0.36,0.25-0.49c0.08-0.13,0.32-0.57,0.54-0.96c0.22-0.39,0.87-1.56,0.95-1.71
		c0.08-0.15,0.24-0.44,0.36-0.64c0,0,0,0,0.1-0.2c0.2-0.39,0.38-0.78,0.57-1.17c0.38-0.79,0.7-1.56,1.01-2.34
		c0.32-0.77,0.54-1.57,0.79-2.35c0.14-0.38,0.22-0.78,0.3-1.17c0.08-0.39,0.08-0.39,0.08-0.39c0.09-0.43,0.32-2.17,0.51-3.87
		c0,0,0,0-0.21-1.47c-0.05-0.37-0.07-0.72-0.16-1.08c-0.09-0.35-0.09-0.35-0.09-0.35c-0.1-0.38-0.28-0.99-0.4-1.36
		c0,0,0,0-0.12-0.33c-0.13-0.32-0.25-0.64-0.41-0.94c-0.34-0.6-0.34-0.6-0.34-0.6c-0.38-0.61-0.77-1.22-0.87-1.36
		c-0.1-0.14-0.56-0.71-0.79-0.97c0,0,0,0-0.2-0.22c-0.21-0.22-0.21-0.22-0.21-0.22c-0.21-0.22-0.57-0.57-0.8-0.78c0,0,0,0-0.2-0.18
		c-0.19-0.17-0.19-0.17-0.19-0.17c-0.2-0.18-0.54-0.46-0.75-0.62c0,0,0,0-0.18-0.13c-0.36-0.26-0.67-0.51-0.97-0.7
		c-0.3-0.19-0.56-0.35-0.77-0.48c-0.43-0.26-0.43-0.26-0.43-0.26c-0.12-0.07-0.3-0.09-0.4-0.05c-0.09,0.05-0.12,0.17-0.06,0.27
		c0,0,0,0,0.21,0.35c0.1,0.17,0.23,0.38,0.39,0.63c0.15,0.25,0.29,0.54,0.47,0.85c0.09,0.16,0.09,0.16,0.09,0.16
		c0.1,0.19,0.26,0.5,0.35,0.7c0,0,0,0,0.09,0.19c0.09,0.19,0.09,0.19,0.09,0.19c0.1,0.22,0.25,0.59,0.34,0.83c0,0,0,0,0.08,0.22
		c0.08,0.21,0.08,0.21,0.08,0.21c0.09,0.25,0.21,0.67,0.28,0.94c0,0,0,0,0.06,0.24c0.03,0.12,0.06,0.25,0.09,0.37
		c0.03,0.13,0.03,0.26,0.06,0.39c0.04,0.26,0.08,0.52,0.12,0.78c0.04,0.27,0.02,0.54,0.04,0.82c0.01,0.28,0.01,0.28,0.01,0.28
		c0,0.31-0.01,0.7-0.03,0.86c-0.01,0.16-0.08,0.85-0.13,1.18c0,0,0,0-0.04,0.31c-0.07,0.61-0.27,1.23-0.41,1.87
		c-0.06,0.32-0.06,0.32-0.06,0.32c-0.13,0.36-0.33,0.95-0.45,1.3c0,0,0,0-0.12,0.33c-0.13,0.34-0.26,0.67-0.4,1.01
		c-0.07,0.17-0.07,0.17-0.07,0.17c-0.07,0.19-0.2,0.49-0.29,0.67c0,0,0,0-0.08,0.17c-0.32,0.68-0.59,1.37-0.98,2.07
		c-0.18,0.35-0.35,0.69-0.52,1.05c-0.16,0.35-0.38,0.69-0.56,1.04c-0.19,0.34-0.39,0.69-0.57,1.04c-0.09,0.17-0.09,0.17-0.09,0.17
		c-0.12,0.2-0.28,0.49-0.37,0.64c-0.09,0.15-0.3,0.52-0.48,0.82c-0.17,0.3-0.35,0.61-0.4,0.68c-0.04,0.07-0.1,0.17-0.12,0.2
		c-0.02,0.04-0.04,0.07-0.04,0.08c0,0,0,0,0.01-0.02c0.01-0.01-0.01,0.02-0.02,0.03c-0.01,0.01-0.02,0.04-0.03,0.06
		c-0.01,0.02-0.09,0.17-0.18,0.34c-0.09,0.17-0.24,0.44-0.33,0.61c-0.09,0.17-0.23,0.45-0.3,0.62c-0.08,0.17-0.22,0.5-0.32,0.72
		c-0.1,0.22-0.43,1.21-0.59,1.68c0,0,0,0-0.09,0.42c-0.1,0.42-0.1,0.42-0.1,0.42c-0.08,0.46-0.2,1.22-0.26,1.69c0,0,0,0-0.01,0.42
		c0,0.21,0,0.21,0,0.21c-0.01,0.23-0.01,0.6,0,0.83c0,0,0,0,0.01,0.2C130.85,283.84,131.28,285.42,131.94,286.85z"/>
</g>
<g>
	
		<rect x="-5.4" y="265.86" transform="matrix(0.7071 -0.7071 0.7071 0.7071 -186.4033 88.2736)" class="st0" width="37.5" height="6.56"/>
	
		<rect x="16.39" y="261.81" transform="matrix(0.7071 -0.7071 0.7071 0.7071 -178.5061 99.2301)" class="st0" width="28.27" height="6.56"/>
	
		<rect x="-0.47" y="243.36" transform="matrix(0.7071 -0.7071 0.7071 0.7071 -179.6222 76.7243)" class="st0" width="6.56" height="23.67"/>
	
		<rect x="56.97" y="262.57" transform="matrix(0.7071 -0.7071 0.7071 0.7071 -176.3878 122.9734)" class="st0" width="6.56" height="23.67"/>
	
		<rect x="28.95" y="258.55" transform="matrix(0.7071 -0.7071 0.7071 0.7071 -171.1697 110.4181)" class="st0" width="37.5" height="6.56"/>
</g>
</svg>
