<?xml version="1.0" encoding="utf-8"?>
<!-- Generator: Adobe Illustrator 25.4.0, SVG Export Plug-In . SVG Version: 6.00 Build 0)  -->
<svg version="1.1" id="Layer_1" xmlns="http://www.w3.org/2000/svg" xmlns:xlink="http://www.w3.org/1999/xlink" x="0px" y="0px"
	 viewBox="0 0 63.06 54.61" style="enable-background:new 0 0 63.06 54.61;" xml:space="preserve">
<style type="text/css">
	.st0{fill:#4D4D4D;}
</style>
<g>
	<g>
		<path class="st0" d="M63.06,54.61H0L31.53,0L63.06,54.61z M4.99,51.72h53.07L31.53,5.77L4.99,51.72z"/>
	</g>
	<g>
		<path class="st0" d="M33.19,39.36c-0.07,0.65-0.67,1.18-1.32,1.18h-0.69c-0.65,0-1.25-0.53-1.32-1.18l-2.11-18.91
			c-0.07-0.65,0.4-1.18,1.06-1.18h5.44c0.65,0,1.13,0.53,1.06,1.18L33.19,39.36z"/>
		<path class="st0" d="M34.26,45.18c0,1.51-1.22,2.74-2.74,2.74c-1.51,0-2.74-1.22-2.74-2.74c0-1.51,1.22-2.74,2.74-2.74
			C33.04,42.44,34.26,43.66,34.26,45.18z"/>
	</g>
</g>
</svg>
