<?xml version="1.0" encoding="utf-8"?>
<!-- Generator: Adobe Illustrator 25.4.0, SVG Export Plug-In . SVG Version: 6.00 Build 0)  -->
<svg version="1.1" xmlns="http://www.w3.org/2000/svg" xmlns:xlink="http://www.w3.org/1999/xlink" x="0px" y="0px"
	 viewBox="0 0 82.12 61.97" style="enable-background:new 0 0 82.12 61.97;" xml:space="preserve">
<style type="text/css">
	.st0{fill:white;}
	.st1{fill:#444444;}
	.st2{fill-rule:evenodd;clip-rule:evenodd;fill:#FFFFFF;}
	.st3{fill:#FCFCFC;}
</style>
<g id="_xF91C_迹_3">
	<rect x="414.06" y="-167.59" class="st0" width="600" height="600"/>
</g>
<g id="_xF91C_迹_2">
	<circle class="st1" cx="526.56" cy="-15.09" r="56.25"/>
	<circle class="st1" cx="651.56" cy="-15.09" r="56.25"/>
	<circle class="st1" cx="776.56" cy="-15.09" r="56.25"/>
	<path class="st1" d="M957.81-15.09c0-31.07-25.18-56.25-56.25-56.25c-31.07,0-56.25,25.18-56.25,56.25
		c0,31.07,25.18,56.25,56.25,56.25C932.62,41.16,957.81,15.97,957.81-15.09z"/>
	<circle class="st1" cx="526.56" cy="109.91" r="56.25"/>
	<path class="st1" d="M957.81,109.91c0-31.07-25.18-56.25-56.25-56.25c-31.07,0-56.25,25.18-56.25,56.25
		c0,31.07,25.18,56.25,56.25,56.25C932.62,166.16,957.81,140.97,957.81,109.91z"/>
	<circle class="st1" cx="526.56" cy="234.91" r="56.25"/>
	<circle class="st1" cx="651.56" cy="234.91" r="56.25"/>
	<circle class="st1" cx="776.56" cy="234.91" r="56.25"/>
	<path class="st1" d="M957.81,234.91c0-31.07-25.18-56.25-56.25-56.25c-31.07,0-56.25,25.18-56.25,56.25s25.18,56.25,56.25,56.25
		C932.62,291.16,957.81,265.97,957.81,234.91z"/>
	<circle class="st1" cx="526.56" cy="359.91" r="56.25"/>
	<circle class="st1" cx="651.56" cy="359.91" r="56.25"/>
	<circle class="st1" cx="776.56" cy="359.91" r="56.25"/>
	<path class="st1" d="M957.81,359.91c0-31.07-25.18-56.25-56.25-56.25c-31.07,0-56.25,25.18-56.25,56.25s25.18,56.25,56.25,56.25
		C932.62,416.16,957.81,390.97,957.81,359.91z"/>
	<circle class="st1" cx="651.56" cy="109.91" r="56.25"/>
	<circle class="st1" cx="776.56" cy="109.91" r="56.25"/>
</g>
<g id="_xF91C_迹_5">
	<g>
		<g>
			<path class="st0" d="M816.73,131.83c-3.42,0-4.85-2.69-6.79-7.12c-1.63-3.72-3.48-7.93-8.05-7.93c-5.19,0-6.93,5.13-8.33,9.26
				c-0.81,2.4-1.74,5.12-2.92,5.12c-5.11,0-9.7,1.17-11.44,2.91c-0.29,0.29-1.03,1.02-2.84,11.6l-4.91-80.59
				c-0.05-0.84-0.74-1.49-1.57-1.5c-0.01,0-0.01,0-0.01,0c-0.84,0-1.53,0.64-1.59,1.47l-5.55,71.31c-0.69-1.05-1.31-1.95-1.66-2.3
				c-0.91-0.9-2.56-0.96-8.2-0.69c-1.3,0.06-2.53,0.12-3.45,0.12c-0.48,0-1.36-1.28-2-2.21c-1.55-2.27-3.68-5.37-7.94-5.37
				c-4.2,0-6.48,3.09-8.15,5.35c-0.77,1.04-1.72,2.34-2.29,2.34h-3.52c0.5,1.08,1.02,2.14,1.59,3.17h1.93
				c2.17,0,3.53-1.84,4.85-3.63c1.47-2,2.99-4.06,5.59-4.06c2.41,0,3.67,1.58,5.32,3.99c1.21,1.77,2.46,3.59,4.62,3.59
				c0.96,0,2.25-0.06,3.6-0.13c1.88-0.09,4.96-0.24,5.95-0.06c0.62,0.81,2.28,3.45,3.62,5.69c0.36,0.59,1.05,0.89,1.73,0.73
				c0.67-0.16,1.17-0.74,1.21-1.43l4.13-57.7l4.37,77.15c0.05,0.81,0.7,1.46,1.52,1.5c0.02,0,0.05,0,0.07,0
				c0.79,0,1.46-0.58,1.57-1.36c1.55-10.9,3.58-22.98,4.36-24.85c0.84-0.65,3.96-1.87,9.08-1.87c3.46,0,4.71-3.7,5.93-7.27
				c1.46-4.29,2.61-7.1,5.32-7.1c2.37,0,3.5,2.29,5.14,6.04c1.76,4.02,3.96,9.01,9.7,9.01h10.17c0.52-1.04,1.02-2.1,1.48-3.17
				H816.73z"/>
		</g>
		<path class="st0" d="M815.79,87.17c0-7.86-14.23-11.01-14.23,2.24c0-13.25-14.23-10.09-14.23-2.24c0,7.86,12.23,19.97,14.23,19.97
			C803.56,107.14,815.79,95.03,815.79,87.17z"/>
	</g>
	<g>
		<path class="st0" d="M661.64,68.14c0-2.11-2.22-3.83-4.96-3.83l0,0c-2.74,0-4.96,1.71-4.96,3.83v76.51c0,2.11,2.22,3.83,4.96,3.83
			l0,0c2.74,0,4.96-1.71,4.96-3.83V68.14z"/>
		<path class="st0" d="M670.57,141.6c0-7.67-6.22-13.89-13.89-13.89c-7.67,0-13.89,6.22-13.89,13.89c0,7.67,6.22,13.89,13.89,13.89
			C664.36,155.5,670.57,149.28,670.57,141.6z"/>
		<path class="st1" d="M665.31,141.6c0-4.76-3.86-8.62-8.62-8.62c-4.76,0-8.62,3.86-8.62,8.62c0,4.76,3.86,8.62,8.62,8.62
			C661.45,150.23,665.31,146.36,665.31,141.6z"/>
		<path class="st1" d="M658.65,86.22c0-0.84-0.88-1.52-1.97-1.52l0,0c-1.09,0-1.97,0.68-1.97,1.52v46.77c0,0.84,0.88,1.52,1.97,1.52
			l0,0c1.09,0,1.97-0.68,1.97-1.52V86.22z"/>
		<path class="st0" d="M645.16,124.92h-11.39c-0.67,0-1.22-0.55-1.22-1.22c0-0.67,0.55-1.22,1.22-1.22h11.39
			c0.67,0,1.22,0.55,1.22,1.22C646.38,124.37,645.83,124.92,645.16,124.92z"/>
		<path class="st0" d="M645.16,120.03h-5.29c-0.67,0-1.22-0.55-1.22-1.22c0-0.67,0.55-1.22,1.22-1.22h5.29
			c0.67,0,1.22,0.55,1.22,1.22C646.38,119.49,645.83,120.03,645.16,120.03z"/>
		<path class="st0" d="M645.16,115.15h-11.39c-0.67,0-1.22-0.55-1.22-1.22c0-0.67,0.55-1.22,1.22-1.22h11.39
			c0.67,0,1.22,0.55,1.22,1.22C646.38,114.6,645.83,115.15,645.16,115.15z"/>
		<path class="st0" d="M645.16,110.27h-5.29c-0.67,0-1.22-0.55-1.22-1.22c0-0.67,0.55-1.22,1.22-1.22h5.29
			c0.67,0,1.22,0.55,1.22,1.22C646.38,109.72,645.83,110.27,645.16,110.27z"/>
		<path class="st0" d="M645.16,105.38h-11.39c-0.67,0-1.22-0.55-1.22-1.22c0-0.67,0.55-1.22,1.22-1.22h11.39
			c0.67,0,1.22,0.55,1.22,1.22C646.38,104.83,645.83,105.38,645.16,105.38z"/>
		<path class="st0" d="M645.16,100.5h-5.29c-0.67,0-1.22-0.55-1.22-1.22c0-0.67,0.55-1.22,1.22-1.22h5.29
			c0.67,0,1.22,0.55,1.22,1.22C646.38,99.95,645.83,100.5,645.16,100.5z"/>
		<path class="st0" d="M645.16,95.62h-11.39c-0.67,0-1.22-0.55-1.22-1.22c0-0.67,0.55-1.22,1.22-1.22h11.39
			c0.67,0,1.22,0.55,1.22,1.22C646.38,95.07,645.83,95.62,645.16,95.62z"/>
		<path class="st0" d="M645.16,90.73h-5.29c-0.67,0-1.22-0.55-1.22-1.22c0-0.67,0.55-1.22,1.22-1.22h5.29
			c0.67,0,1.22,0.55,1.22,1.22C646.38,90.19,645.83,90.73,645.16,90.73z"/>
		<path class="st0" d="M645.16,85.85h-11.39c-0.67,0-1.22-0.55-1.22-1.22c0-0.67,0.55-1.22,1.22-1.22h11.39
			c0.67,0,1.22,0.55,1.22,1.22C646.38,85.3,645.83,85.85,645.16,85.85z"/>
	</g>
	<g>
		<g>
			<g>
				<path class="st1" d="M504.27,124.29c-0.6,1.05-0.38,2.3,0.48,2.79l7.77,4.42c0.86,0.49,2.04,0.03,2.64-1.02l16.86-29.66
					c1.86-3.04,2.33-5.72,1.47-6.21l-7.77-4.42c-0.86-0.49-2.78,1.26-4.58,4.44L504.27,124.29z"/>
				<path class="st0" d="M513.28,132.78L513.28,132.78c-0.46,0-0.91-0.12-1.3-0.34l-7.77-4.42c-0.7-0.4-1.18-1.11-1.32-1.95
					c-0.13-0.78,0.02-1.6,0.44-2.33l16.85-29.65c0.87-1.52,3.11-5.07,5.21-5.07c0.31,0,0.61,0.08,0.87,0.22l7.77,4.42
					c0.3,0.17,0.7,0.52,0.88,1.22c0.37,1.45-0.37,3.94-1.95,6.52l-16.84,29.62C515.49,132.11,514.41,132.78,513.28,132.78z
					 M525.32,91.23c-0.43,0.17-1.73,1.29-3.24,3.94l-16.86,29.65c-0.16,0.29-0.23,0.61-0.18,0.88c0.02,0.11,0.08,0.32,0.25,0.42
					l7.77,4.42c0.28,0.16,0.81-0.02,1.15-0.61l16.86-29.66c1.57-2.57,1.81-4.32,1.73-4.8L525.32,91.23z"/>
			</g>
			<path class="st0" d="M493.48,142.58c-0.42,0.74-0.16,1.67,0.58,2.09l8.8,5c0.74,0.42,1.68,0.17,2.1-0.57l0,0
				c0.42-0.74,0.16-1.67-0.58-2.09l-8.8-5C494.84,141.59,493.9,141.85,493.48,142.58L493.48,142.58z"/>
			
				<rect x="495.55" y="134.01" transform="matrix(0.4942 -0.8694 0.8694 0.4942 136.0808 507.6755)" class="st0" width="17.52" height="5.77"/>
			<polygon class="st0" points="528.11,91.27 531.34,93.08 543.2,68.44 			"/>
			<path class="st0" d="M532.68,99.77c-0.18,0-0.37-0.05-0.54-0.14l-4.37-2.48c-0.53-0.3-0.71-0.97-0.41-1.49
				c0.3-0.53,0.97-0.71,1.49-0.41l4.37,2.48c0.53,0.3,0.71,0.97,0.41,1.49C533.43,99.58,533.06,99.77,532.68,99.77z"/>
			<path class="st0" d="M529.98,103.28c-0.18,0-0.37-0.05-0.54-0.14l-3.83-2.18c-0.53-0.3-0.71-0.97-0.41-1.49
				c0.3-0.53,0.97-0.71,1.49-0.41l3.83,2.18c0.53,0.3,0.71,0.97,0.41,1.49C530.73,103.08,530.36,103.28,529.98,103.28z"/>
			<path class="st0" d="M527.81,107.08c-0.18,0-0.37-0.05-0.54-0.14l-3.83-2.18c-0.53-0.3-0.71-0.97-0.41-1.49
				c0.3-0.53,0.97-0.71,1.49-0.41l3.83,2.18c0.53,0.3,0.71,0.97,0.41,1.49C528.57,106.89,528.2,107.08,527.81,107.08z"/>
			<path class="st0" d="M525.65,110.89c-0.18,0-0.37-0.05-0.54-0.14l-3.83-2.18c-0.53-0.3-0.71-0.97-0.41-1.49
				c0.3-0.53,0.97-0.71,1.49-0.41l3.83,2.18c0.53,0.3,0.71,0.97,0.41,1.49C526.4,110.69,526.03,110.89,525.65,110.89z"/>
			<path class="st0" d="M523.49,114.7c-0.18,0-0.37-0.05-0.54-0.14l-3.83-2.18c-0.53-0.3-0.71-0.97-0.41-1.49
				c0.3-0.53,0.97-0.71,1.49-0.41l3.83,2.18c0.53,0.3,0.71,0.97,0.41,1.49C524.24,114.5,523.87,114.7,523.49,114.7z"/>
			<path class="st0" d="M521.32,118.51c-0.18,0-0.37-0.05-0.54-0.14l-3.83-2.18c-0.53-0.3-0.71-0.97-0.41-1.49
				c0.3-0.53,0.97-0.71,1.49-0.41l3.83,2.18c0.53,0.3,0.71,0.97,0.41,1.49C522.07,118.31,521.7,118.51,521.32,118.51z"/>
			<path class="st0" d="M503.4,125.82l10.89,6.19l6.36-11.2c0,0-0.09-1.77-4.85-4.47c-4.75-2.7-6.04-1.72-6.04-1.72L503.4,125.82z"
				/>
			<path class="st1" d="M515.87,118.09l3.83,2.18l-1.08,1.9l-3.83-2.18c-0.53-0.3-0.71-0.97-0.41-1.49
				C514.67,117.97,515.34,117.79,515.87,118.09z"/>
			<path class="st1" d="M513.7,121.9l3.83,2.18l-1.08,1.9l-3.83-2.18c-0.53-0.3-0.71-0.97-0.41-1.49
				C512.51,121.78,513.18,121.6,513.7,121.9z"/>
		</g>
		<g>
			<path class="st0" d="M542.53,116.84c0,4.78,3.87,8.65,8.65,8.65c4.78,0,8.65-3.87,8.65-8.65c0-4.78-8.65-18.62-8.65-18.62
				S542.53,112.06,542.53,116.84z"/>
			<path class="st1" d="M551.18,120.04c0-1.5-1.21-2.71-2.71-2.71c-1.5,0-2.71,1.21-2.71,2.71c0,1.5,1.21,2.71,2.71,2.71
				C549.97,122.76,551.18,121.54,551.18,120.04z"/>
		</g>
	</g>
	<g>
		<g>
			<rect x="655.65" y="6.82" class="st0" width="11.43" height="8.3"/>
			<path class="st1" d="M667.7,15.76h-12.68V6.2h12.68V15.76z M656.27,14.5h10.17V7.45h-10.17V14.5z"/>
		</g>
		<g>
			<path class="st0" d="M645.26-48.67c-0.73-1.47-2.01-2.32-2.87-1.9l-5.17,2.55c-0.86,0.42-0.96,1.96-0.24,3.43l18.05,36.66
				c0.72,1.47,2.01,2.33,2.86,1.9l5.17-2.55c0.86-0.42,0.96-1.96,0.24-3.43L645.26-48.67z"/>
			<path class="st0" d="M642.17-55.97c0.29,0.6-1.06,2.98-3.57,4.22c-2.51,1.24-5.23,0.86-5.52,0.26c-0.29-0.6,1.72-1.65,4.23-2.89
				C639.82-55.61,641.88-56.56,642.17-55.97z"/>
			<path class="st2" d="M666.18-11.53c0.68,1.38,1.29,2.85-4.87,5.89c-6.16,3.04-6.95,1.66-7.63,0.28
				c-0.68-1.38,0.11-3.76,4.78-6.06C663.13-13.73,665.5-12.91,666.18-11.53z"/>
			<path class="st2" d="M647.41-49.65c-0.78-1.57-1.35-3.31-7.83-0.11c-6.48,3.19-5.45,4.71-4.68,6.28
				c0.77,1.57,3.26,2.62,7.93,0.31C647.5-45.47,648.18-48.08,647.41-49.65z"/>
			
				<rect x="637.35" y="-53.17" transform="matrix(0.8969 -0.4423 0.4423 0.8969 87.4684 278.1945)" class="st0" width="5.76" height="9.45"/>
			<path class="st2" d="M664.97-8.35c0-2.73-2.21-4.94-4.94-4.94c-2.73,0-4.94,2.21-4.94,4.94s2.21,4.94,4.94,4.94
				C662.75-3.41,664.97-5.62,664.97-8.35z"/>
		</g>
		<path class="st3" d="M681.53,15.59c0-2.25-1.13-4.08-2.52-4.08H624.1c-1.39,0-2.52,1.83-2.52,4.08v2.28
			c0,2.25,1.13,4.08,2.52,4.08h54.92c1.39,0,2.52-1.83,2.52-4.08V15.59z"/>
		<path class="st0" d="M635.91,21.96c-8.34-8.34-12.37-17.29-11.63-25.87c0.7-8.2,5.6-15.56,14.55-21.89l4.35,6.16
			c-7.06,4.99-10.89,10.49-11.39,16.37c-0.68,7.95,4.76,15.2,9.45,19.89L635.91,21.96z"/>
		<g>
			<path class="st0" d="M649.93-24.51c0-3.71-3-6.71-6.71-6.71c-3.71,0-6.71,3-6.71,6.71c0,3.7,3,6.71,6.71,6.71
				C646.92-17.8,649.93-20.81,649.93-24.51z"/>
			<path class="st1" d="M643.22-16.55c-4.39,0-7.97-3.57-7.97-7.96c0-4.39,3.57-7.97,7.97-7.97s7.97,3.57,7.97,7.97
				C651.18-20.12,647.61-16.55,643.22-16.55z M643.22-29.96c-3.01,0-5.45,2.44-5.45,5.45c0,3,2.44,5.45,5.45,5.45
				c3.01,0,5.45-2.44,5.45-5.45C648.67-27.52,646.22-29.96,643.22-29.96z"/>
		</g>
		<g>
			<path class="st3" d="M675.42,2.73c0-0.88-1.07-1.6-2.4-1.6h-23.34c-1.32,0-2.39,0.72-2.39,1.6v1.83c0,0.88,1.07,1.6,2.39,1.6
				h23.34c1.32,0,2.4-0.72,2.4-1.6V2.73z"/>
			<path class="st1" d="M673.03,6.79h-23.34c-1.7,0-3.02-0.98-3.02-2.23V2.73c0-1.25,1.33-2.23,3.02-2.23h23.34
				c1.7,0,3.02,0.98,3.02,2.23v1.83C676.05,5.81,674.72,6.79,673.03,6.79z M649.69,1.76c-1.01,0-1.77,0.51-1.77,0.97v1.83
				c0,0.46,0.75,0.97,1.77,0.97h23.34c1.01,0,1.77-0.51,1.77-0.97V2.73c0-0.46-0.76-0.97-1.77-0.97H649.69z"/>
		</g>
		<g>
			<path class="st0" d="M664.07,6.16c0-1.5-1.21-2.71-2.71-2.71s-2.71,1.21-2.71,2.71c0,1.5,1.21,2.71,2.71,2.71
				S664.07,7.66,664.07,6.16z"/>
			<path class="st1" d="M661.36,9.5c-1.84,0-3.34-1.5-3.34-3.34c0-1.84,1.5-3.34,3.34-3.34c1.84,0,3.34,1.5,3.34,3.34
				C664.7,8,663.2,9.5,661.36,9.5z M661.36,4.07c-1.15,0-2.08,0.93-2.08,2.08c0,1.15,0.94,2.09,2.08,2.09
				c1.15,0,2.08-0.94,2.08-2.09C663.44,5.01,662.51,4.07,661.36,4.07z"/>
		</g>
	</g>
	<g>
		<path class="st0" d="M680.09,215.35h-5.32c-0.49-1.34-1.76-2.31-3.28-2.31c-0.07,0-0.13,0.01-0.2,0.02
			c-2.77-3.93-6.91-6.99-11.81-8.6c-0.24-1.05-1-1.82-1.91-1.82h-12.31c-0.93,0-1.71,0.82-1.93,1.92
			c-4.78,1.63-8.81,4.65-11.53,8.51c-0.07,0-0.13-0.02-0.2-0.02c-1.51,0-2.79,0.96-3.28,2.31h-5.32c-6,0-10.87,4.87-10.87,10.87
			v30.09c0,6,4.87,10.87,10.87,10.87h57.06c6,0,10.87-4.87,10.87-10.87v-30.09C690.96,220.22,686.09,215.35,680.09,215.35z
			 M644.07,207.19c0.34,0.33,0.75,0.54,1.21,0.54h12.31c0.49,0,0.93-0.23,1.27-0.6c4.11,1.39,7.58,3.93,9.98,7.17
			c-0.26,0.31-0.48,0.66-0.62,1.06H634.9c-0.14-0.39-0.36-0.75-0.62-1.06C636.63,211.1,640.04,208.6,644.07,207.19z"/>
		<path class="st1" d="M651.56,261.58c-11.2,0-20.31-9.11-20.31-20.31c0-11.2,9.11-20.31,20.31-20.31s20.31,9.11,20.31,20.31
			C671.87,252.47,662.76,261.58,651.56,261.58z M651.56,225.03c-8.95,0-16.24,7.28-16.24,16.24c0,8.95,7.29,16.24,16.24,16.24
			s16.24-7.28,16.24-16.24C667.79,232.31,660.51,225.03,651.56,225.03z"/>
		<polygon class="st1" points="662.84,239.27 653.55,239.27 653.55,229.98 649.56,229.98 649.56,239.27 640.28,239.27 
			640.28,243.26 649.56,243.26 649.56,252.55 653.55,252.55 653.55,243.26 662.84,243.26 		"/>
	</g>
	<g>
		
			<rect x="801.66" y="192.42" transform="matrix(0.7071 -0.7071 0.7071 0.7071 88.4526 628.8214)" class="st3" width="3.26" height="30.43"/>
		
			<rect x="779.73" y="215.51" transform="matrix(0.7071 -0.7071 0.7071 0.7071 66.5262 619.7712)" class="st3" width="3.26" height="28.14"/>
		
			<rect x="774.92" y="218.45" transform="matrix(0.7071 -0.7071 0.7071 0.7071 61.7082 617.7625)" class="st3" width="3.26" height="31.9"/>
		
			<rect x="770.11" y="224.07" transform="matrix(0.7071 -0.7071 0.7071 0.7071 56.8952 615.7628)" class="st3" width="3.26" height="30.27"/>
		
			<rect x="765.3" y="232.42" transform="matrix(0.7071 -0.7071 0.7071 0.7071 52.0868 613.7711)" class="st3" width="3.26" height="23.18"/>
		
			<rect x="796.85" y="200.85" transform="matrix(0.7071 -0.7071 0.7071 0.7071 83.6361 626.817)" class="st3" width="3.26" height="23.18"/>
		
			<rect x="784.54" y="213.54" transform="matrix(0.7071 -0.7071 0.7071 0.7071 71.3215 621.738)" class="st3" width="3.26" height="22.47"/>
		
			<rect x="748.2" y="247.05" transform="matrix(0.7071 -0.7071 0.7071 0.7071 34.9864 606.6965)" class="st3" width="3.26" height="28.14"/>
		
			<rect x="753" y="245.07" transform="matrix(0.7071 -0.7071 0.7071 0.7071 39.7845 608.6661)" class="st3" width="3.26" height="22.47"/>
		<g>
			<path class="st3" d="M794.27,218.14C794.27,218.14,794.27,218.14,794.27,218.14c-2.67-10.56-1.15-19.37,4.29-24.8
				c0.01-0.01,0.02-0.01,0.02-0.02l-2.86-2.86c-0.01,0.01-0.02,0.01-0.02,0.02c-6.48,6.48-8.37,16.65-5.35,28.64c0,0,0,0,0,0
				c2.67,10.56,1.14,19.37-4.29,24.8c-5.43,5.43-14.24,6.95-24.8,4.29c-12-3.03-22.17-1.13-28.65,5.35c0,0,0,0,0,0l2.86,2.86
				c0,0,0,0,0,0c5.43-5.43,14.24-6.95,24.8-4.29c12,3.03,22.17,1.13,28.65-5.35C795.39,240.31,797.29,230.14,794.27,218.14z"/>
			<path class="st1" d="M731.2,253.56l0.71-0.71c6.74-6.74,17.25-8.73,29.6-5.61c10.21,2.58,18.67,1.15,23.85-4.02
				c3.45-3.45,5.28-8.47,5.28-14.5c0-2.91-0.42-6.06-1.25-9.35l-0.03-0.12c-0.93-3.73-1.41-7.34-1.41-10.72
				c0-7.66,2.44-14.14,7.05-18.75l0.71-0.71l0.73,0.68l3.59,3.59l-0.75,0.71c-3.45,3.45-5.28,8.46-5.28,14.5
				c0,2.85,0.4,5.93,1.2,9.14l0.05,0.21c0.95,3.78,1.44,7.42,1.44,10.84c0,7.66-2.44,14.15-7.05,18.76
				c-6.74,6.74-17.25,8.73-29.6,5.61c-10.14-2.56-18.56-1.17-23.74,3.91l-0.55,1.09L731.2,253.56z M792.63,228.73
				c0,6.57-2.03,12.08-5.86,15.91c-5.69,5.69-14.83,7.3-25.75,4.55c-11.2-2.83-20.73-1.27-26.97,4.39l1.45,1.45
				c5.72-5.13,14.56-6.5,25.03-3.86c11.64,2.94,21.48,1.13,27.69-5.08c4.23-4.23,6.46-10.22,6.46-17.34c0-3.03-0.4-6.25-1.19-9.6
				h-0.21l0-0.88c-2.58-10.32-1.17-19.27,3.91-24.93l-1.45-1.45c-3.78,4.15-5.79,9.89-5.79,16.64c0,3.25,0.46,6.74,1.38,10.35
				l0.03,0.12C792.2,222.41,792.63,225.68,792.63,228.73z"/>
		</g>
		<g>
			<path class="st3" d="M762.73,249.68c-2.67-10.56-1.14-19.37,4.29-24.8c5.43-5.43,14.24-6.95,24.8-4.29
				c12,3.03,22.17,1.13,28.65-5.35c0.01-0.01,0.01-0.01,0.02-0.02l-2.86-2.86c-0.01,0.01-0.01,0.02-0.02,0.02
				c-5.43,5.43-14.24,6.95-24.8,4.29c-12-3.03-22.17-1.13-28.65,5.35c-6.48,6.48-8.38,16.65-5.35,28.65
				c2.67,10.56,1.14,19.37-4.29,24.8c0,0,0,0,0,0l2.86,2.86c0,0,0,0,0,0C763.86,271.85,765.76,261.68,762.73,249.68z"/>
			<path class="st1" d="M753.09,275.45l0.73-0.69c3.45-3.45,5.28-8.46,5.28-14.49c0-2.92-0.42-6.06-1.25-9.35
				c-0.95-3.78-1.44-7.42-1.44-10.84c0-7.66,2.44-14.15,7.05-18.76c6.74-6.74,17.25-8.73,29.6-5.61
				c10.21,2.58,18.67,1.15,23.85-4.02l0.71-0.71l0.73,0.68l3.59,3.59l-0.75,0.71c-6.73,6.74-17.25,8.73-29.6,5.61
				c-10.21-2.58-18.68-1.15-23.85,4.02c-3.45,3.45-5.28,8.46-5.28,14.5c0,2.92,0.42,6.06,1.25,9.35c0.95,3.78,1.44,7.42,1.44,10.84
				c0,7.5-2.33,13.87-6.76,18.46v2.01L753.09,275.45z M761.09,260.27c0,6.17-1.79,11.4-5.18,15.18l1.45,1.45
				c3.78-4.18,5.77-9.9,5.77-16.62c0-3.25-0.46-6.74-1.38-10.35c-0.87-3.45-1.31-6.76-1.31-9.84c0-6.57,2.03-12.08,5.86-15.91
				c5.69-5.69,14.83-7.3,25.75-4.55c11.21,2.83,20.75,1.26,26.99-4.42l-1.45-1.45c-5.74,5.15-14.58,6.53-25.05,3.88
				c-11.64-2.94-21.48-1.13-27.69,5.08c-4.23,4.23-6.46,10.22-6.46,17.34c0,3.25,0.46,6.74,1.38,10.35
				C760.65,253.87,761.09,257.19,761.09,260.27z"/>
		</g>
	</g>
	<g>
		<g>
			<g>
				
					<rect x="795.81" y="-20.16" transform="matrix(0.9915 -0.1302 0.1302 0.9915 9.2703 104.4742)" class="st0" width="15.72" height="3"/>
				<path class="st0" d="M812.05-15.23c1.41-0.19,2.29-2.33,1.97-4.8c-0.32-2.46-1.73-4.31-3.14-4.12c-1.41,0.19-2.29,2.33-1.97,4.8
					C809.23-16.89,810.64-15.04,812.05-15.23z"/>
			</g>
			<g>
				
					<rect x="785.34" y="-38.29" transform="matrix(0.6086 -0.7935 0.7935 0.6086 339.634 614.9789)" class="st0" width="15.72" height="3"/>
				<path class="st0" d="M801.56-40.29c0.87-1.13-0.03-3.27-2-4.79c-1.97-1.51-4.27-1.82-5.14-0.69c-0.87,1.13,0.03,3.27,2,4.78
					C798.39-39.47,800.69-39.16,801.56-40.29z"/>
			</g>
			<g>
				
					<rect x="771.49" y="-50.07" transform="matrix(0.9914 -0.1305 0.1305 0.9914 12.1221 100.5359)" class="st0" width="3" height="15.73"/>
				<path class="st0" d="M776.42-50.59c-0.18-1.41-2.33-2.29-4.8-1.97c-2.46,0.32-4.31,1.73-4.13,3.14c0.19,1.41,2.33,2.29,4.8,1.97
					C774.76-47.77,776.61-49.18,776.42-50.59z"/>
			</g>
			<g>
				
					<rect x="753.37" y="-39.6" transform="matrix(0.6088 -0.7933 0.7933 0.6088 320.4906 586.4409)" class="st0" width="3" height="15.73"/>
				<path class="st0" d="M751.37-40.1c-1.13-0.87-3.27,0.03-4.79,2c-1.51,1.97-1.82,4.27-0.69,5.14c1.13,0.87,3.27-0.03,4.78-2
					C752.19-36.93,752.5-39.23,751.37-40.1z"/>
			</g>
			<g>
				
					<rect x="741.59" y="-13.03" transform="matrix(0.9915 -0.1302 0.1302 0.9915 7.883 97.5002)" class="st0" width="15.73" height="3"/>
				<path class="st0" d="M741.07-14.96c-1.41,0.19-2.29,2.34-1.97,4.8c0.33,2.47,1.73,4.31,3.14,4.13c1.41-0.19,2.29-2.33,1.97-4.8
					C743.89-13.3,742.48-15.15,741.07-14.96z"/>
			</g>
			<g>
				
					<rect x="752.05" y="5.1" transform="matrix(0.6086 -0.7935 0.7935 0.6086 292.1738 605.5418)" class="st0" width="15.73" height="3"/>
				<path class="st0" d="M751.56,10.1c-0.87,1.13,0.03,3.27,2,4.79c1.97,1.51,4.27,1.82,5.14,0.69c0.87-1.13-0.03-3.27-2-4.79
					C754.73,9.28,752.42,8.97,751.56,10.1z"/>
			</g>
			<g>
				
					<rect x="778.63" y="4.15" transform="matrix(0.9914 -0.1305 0.1305 0.9914 5.105 101.9242)" class="st0" width="3" height="15.73"/>
				<path class="st0" d="M776.69,20.4c0.19,1.41,2.34,2.29,4.8,1.97c2.46-0.32,4.31-1.73,4.12-3.14c-0.19-1.41-2.33-2.29-4.8-1.97
					C778.35,17.58,776.51,18.99,776.69,20.4z"/>
			</g>
			<g>
				
					<rect x="796.75" y="-6.31" transform="matrix(0.6087 -0.7934 0.7934 0.6087 311.0861 633.9123)" class="st0" width="3" height="15.73"/>
				<path class="st0" d="M801.75,9.91c1.13,0.87,3.27-0.03,4.79-2c1.51-1.97,1.82-4.27,0.69-5.14c-1.13-0.87-3.27,0.03-4.78,2
					C800.93,6.74,800.62,9.04,801.75,9.91z"/>
			</g>
			<g>
				<g>
					
						<rect x="774.09" y="-36.23" transform="matrix(0.2588 -0.9659 0.9659 0.2588 613.5862 729.1963)" class="st0" width="15.72" height="2"/>
					<path class="st0" d="M786.48-42.16c0.37-1.38-0.45-2.79-1.82-3.16c-1.38-0.37-2.79,0.45-3.16,1.82
						c-0.37,1.37,0.45,2.79,1.82,3.16C784.7-39.96,786.11-40.78,786.48-42.16z"/>
				</g>
				<g>
					
						<rect x="765.14" y="-41.01" transform="matrix(0.866 -0.5 0.5 0.866 119.2066 378.6133)" class="st0" width="2" height="15.73"/>
					<path class="st0" d="M764.44-41.24c-0.71-1.23-2.29-1.66-3.52-0.94c-1.23,0.71-1.66,2.29-0.94,3.52
						c0.71,1.23,2.29,1.66,3.52,0.94C764.73-38.43,765.15-40.01,764.44-41.24z"/>
				</g>
				<g>
					
						<rect x="755.42" y="-28.35" transform="matrix(0.2588 -0.9659 0.9659 0.2588 580.4316 715.4625)" class="st0" width="2" height="15.72"/>
					<path class="st0" d="M749.5-25.01c-1.38-0.37-2.79,0.44-3.16,1.82c-0.37,1.37,0.45,2.79,1.82,3.16
						c1.38,0.37,2.79-0.45,3.16-1.82C751.69-23.23,750.87-24.65,749.5-25.01z"/>
				</g>
				<g>
					
						<rect x="750.64" y="-5.67" transform="matrix(0.8661 -0.4999 0.4999 0.8661 103.9235 378.5706)" class="st0" width="15.73" height="2"/>
					<path class="st0" d="M750.41-2.97c-1.23,0.71-1.66,2.29-0.94,3.52c0.71,1.23,2.29,1.66,3.52,0.94
						c1.23-0.71,1.66-2.29,0.94-3.52C753.22-3.26,751.64-3.68,750.41-2.97z"/>
				</g>
				<g>
					
						<rect x="763.3" y="4.04" transform="matrix(0.2588 -0.9659 0.9659 0.2588 566.6924 748.6199)" class="st0" width="15.72" height="2"/>
					<path class="st0" d="M766.64,11.97c-0.37,1.37,0.45,2.79,1.82,3.15c1.38,0.37,2.79-0.44,3.16-1.82
						c0.37-1.38-0.45-2.79-1.83-3.16C768.42,9.78,767.01,10.59,766.64,11.97z"/>
				</g>
				<g>
					<rect x="785.98" y="-4.9" transform="matrix(0.866 -0.5 0.5 0.866 103.9519 393.879)" class="st0" width="2" height="15.72"/>
					<path class="st0" d="M788.68,11.06c0.71,1.23,2.29,1.65,3.52,0.94c1.23-0.71,1.66-2.29,0.95-3.52
						c-0.71-1.23-2.29-1.66-3.52-0.94C788.39,8.25,787.97,9.82,788.68,11.06z"/>
				</g>
				<g>
					
						<rect x="795.69" y="-17.56" transform="matrix(0.2588 -0.9659 0.9659 0.2588 599.9056 762.3694)" class="st0" width="2" height="15.72"/>
					<path class="st0" d="M803.62-5.18C805-4.8,806.41-5.62,806.78-7c0.37-1.37-0.45-2.79-1.82-3.16c-1.38-0.37-2.79,0.45-3.16,1.82
						C801.43-6.96,802.25-5.54,803.62-5.18z"/>
				</g>
				<g>
					
						<rect x="786.75" y="-26.52" transform="matrix(0.8661 -0.4999 0.4999 0.8661 119.1793 393.8276)" class="st0" width="15.72" height="2"/>
					<path class="st0" d="M802.71-27.22c1.23-0.71,1.66-2.29,0.94-3.52c-0.71-1.23-2.29-1.65-3.52-0.94
						c-1.23,0.71-1.66,2.29-0.95,3.52C799.9-26.93,801.48-26.5,802.71-27.22z"/>
				</g>
			</g>
			<g>
				<path class="st1" d="M779.45,6.85c12.12-1.6,20.65-12.71,19.06-24.83c-1.6-12.12-12.71-20.65-24.83-19.06
					c-12.12,1.6-20.65,12.71-19.05,24.83C756.21-0.09,767.33,8.45,779.45,6.85z"/>
				<path class="st0" d="M776.53,8.04C776.53,8.04,776.53,8.04,776.53,8.04c-11.55,0-21.4-8.65-22.91-20.12
					c-1.67-12.65,7.27-24.29,19.91-25.96c1.01-0.13,2.04-0.2,3.05-0.2c11.55,0,21.4,8.65,22.91,20.12
					c1.67,12.65-7.27,24.29-19.92,25.96C778.57,7.97,777.54,8.04,776.53,8.04z M776.59-36.23c-0.92,0-1.86,0.06-2.79,0.18
					c-11.55,1.52-19.71,12.16-18.19,23.71c1.38,10.48,10.38,18.38,20.93,18.38c0,0,0,0,0,0c0.92,0,1.86-0.06,2.78-0.18
					c11.55-1.52,19.72-12.16,18.2-23.71C796.13-28.33,787.14-36.23,776.59-36.23z"/>
			</g>
		</g>
		<path class="st3" d="M785.35-24.52c0-2.7-2.19-4.9-4.9-4.9c-2.7,0-4.9,2.19-4.9,4.9c0,2.7,2.19,4.9,4.9,4.9
			C783.16-19.62,785.35-21.81,785.35-24.52z"/>
	</g>
	<g>
		<g>
			<g>
				
					<rect x="524.63" y="-135.69" transform="matrix(0.6091 -0.7931 0.7931 0.6091 313.3604 365.4343)" class="st1" width="5.52" height="1.05"/>
				<path class="st1" d="M530.32-136.39c0.3-0.4-0.01-1.15-0.7-1.68c-0.69-0.53-1.5-0.64-1.8-0.24c-0.3,0.4,0.01,1.15,0.7,1.68
					C529.21-136.11,530.02-136,530.32-136.39z"/>
			</g>
			<g>
				
					<rect x="519.76" y="-139.83" transform="matrix(0.9914 -0.1307 0.1307 0.9914 22.3832 66.8399)" class="st1" width="1.05" height="5.52"/>
				<path class="st1" d="M521.5-140.01c-0.07-0.5-0.82-0.8-1.68-0.69c-0.86,0.11-1.51,0.61-1.45,1.1c0.07,0.5,0.82,0.8,1.68,0.69
					C520.91-139.02,521.56-139.51,521.5-140.01z"/>
			</g>
			<g>
				
					<rect x="513.4" y="-136.15" transform="matrix(0.6088 -0.7934 0.7934 0.6088 306.9012 355.5404)" class="st1" width="1.05" height="5.52"/>
				<path class="st1" d="M512.7-136.33c-0.4-0.31-1.15,0.01-1.68,0.7c-0.53,0.69-0.64,1.5-0.24,1.8c0.4,0.3,1.15-0.01,1.68-0.7
					C512.99-135.21,513.1-136.02,512.7-136.33z"/>
			</g>
			<g>
				
					<rect x="509.27" y="-126.82" transform="matrix(0.9914 -0.1305 0.1305 0.9914 20.8584 65.7343)" class="st1" width="5.52" height="1.05"/>
				<path class="st1" d="M509.08-127.5c-0.5,0.07-0.81,0.82-0.69,1.68c0.11,0.87,0.61,1.51,1.1,1.45c0.5-0.07,0.8-0.82,0.69-1.68
					C510.07-126.92,509.58-127.57,509.08-127.5z"/>
			</g>
			<g>
				
					<rect x="512.94" y="-120.46" transform="matrix(0.609 -0.7932 0.7932 0.609 296.7738 362.1473)" class="st1" width="5.52" height="1.05"/>
				<path class="st1" d="M512.77-118.71c-0.3,0.4,0.01,1.15,0.7,1.68c0.69,0.53,1.5,0.64,1.8,0.24c0.3-0.4-0.01-1.15-0.7-1.68
					C513.88-118.99,513.07-119.1,512.77-118.71z"/>
			</g>
			<g>
				
					<rect x="522.27" y="-120.79" transform="matrix(0.9914 -0.1307 0.1307 0.9914 19.9124 67.3199)" class="st1" width="1.05" height="5.52"/>
				<path class="st1" d="M521.59-115.09c0.07,0.5,0.82,0.8,1.68,0.69c0.87-0.11,1.51-0.61,1.45-1.1c-0.07-0.5-0.82-0.81-1.68-0.69
					C522.18-116.08,521.53-115.59,521.59-115.09z"/>
			</g>
			<g>
				
					<rect x="528.63" y="-124.47" transform="matrix(0.6088 -0.7933 0.7933 0.6088 303.578 372.1924)" class="st1" width="1.05" height="5.52"/>
				<path class="st1" d="M530.39-118.77c0.4,0.3,1.15-0.01,1.68-0.7c0.53-0.69,0.64-1.5,0.24-1.8c-0.4-0.3-1.15,0.01-1.68,0.7
					C530.1-119.88,529.99-119.08,530.39-118.77z"/>
			</g>
			<g>
				
					<rect x="528.3" y="-129.33" transform="matrix(0.9914 -0.1305 0.1305 0.9914 21.3588 68.2242)" class="st1" width="5.52" height="1.05"/>
				<path class="st1" d="M534-127.6c0.5-0.07,0.8-0.82,0.69-1.68c-0.11-0.86-0.61-1.51-1.1-1.45c-0.49,0.07-0.8,0.82-0.69,1.68
					C533.01-128.18,533.51-127.53,534-127.6z"/>
			</g>
			<g>
				<g>
					
						<rect x="517.53" y="-136.65" transform="matrix(0.866 -0.5 0.5 0.866 136.3402 241.019)" class="st1" width="0.7" height="5.52"/>
					<path class="st1" d="M517.29-136.73c-0.25-0.43-0.8-0.58-1.24-0.33c-0.43,0.25-0.58,0.8-0.33,1.24
						c0.25,0.43,0.8,0.58,1.24,0.33C517.39-135.74,517.54-136.3,517.29-136.73z"/>
				</g>
				<g>
					
						<rect x="514.13" y="-132.2" transform="matrix(0.2588 -0.9659 0.9659 0.2588 506.3398 401.0048)" class="st1" width="0.7" height="5.52"/>
					<path class="st1" d="M512.04-131.03c-0.48-0.13-0.98,0.16-1.11,0.64c-0.13,0.48,0.16,0.98,0.64,1.11
						c0.48,0.13,0.98-0.16,1.11-0.64C512.81-130.41,512.53-130.9,512.04-131.03z"/>
				</g>
				<g>
					
						<rect x="512.45" y="-124.24" transform="matrix(0.866 -0.5 0.5 0.866 130.9683 241.0035)" class="st1" width="5.52" height="0.7"/>
					<path class="st1" d="M512.37-123.29c-0.43,0.25-0.58,0.8-0.33,1.24c0.25,0.43,0.8,0.58,1.24,0.33c0.43-0.25,0.58-0.8,0.33-1.24
						C513.35-123.4,512.8-123.54,512.37-123.29z"/>
				</g>
				<g>
					
						<rect x="516.89" y="-120.83" transform="matrix(0.2589 -0.9659 0.9659 0.2589 501.4714 412.6432)" class="st1" width="5.52" height="0.7"/>
					<path class="st1" d="M518.06-118.05c-0.13,0.48,0.16,0.98,0.64,1.11c0.48,0.13,0.98-0.16,1.11-0.64
						c0.13-0.48-0.16-0.98-0.64-1.11C518.69-118.82,518.19-118.53,518.06-118.05z"/>
				</g>
				<g>
					
						<rect x="524.85" y="-123.97" transform="matrix(0.866 -0.5 0.5 0.866 130.9832 246.3763)" class="st1" width="0.7" height="5.52"/>
					<path class="st1" d="M525.8-118.37c0.25,0.43,0.8,0.58,1.23,0.33c0.43-0.25,0.58-0.8,0.33-1.24c-0.25-0.43-0.8-0.58-1.24-0.33
						C525.7-119.36,525.55-118.8,525.8-118.37z"/>
				</g>
				<g>
					
						<rect x="528.26" y="-128.42" transform="matrix(0.2588 -0.9659 0.9659 0.2588 513.1673 417.467)" class="st1" width="0.7" height="5.52"/>
					<path class="st1" d="M531.05-124.07c0.48,0.13,0.98-0.16,1.11-0.64c0.13-0.48-0.16-0.98-0.64-1.11
						c-0.48-0.13-0.98,0.16-1.11,0.64C530.28-124.69,530.56-124.2,531.05-124.07z"/>
				</g>
				<g>
					
						<rect x="525.12" y="-131.56" transform="matrix(0.866 -0.5 0.5 0.866 136.3476 246.3839)" class="st1" width="5.52" height="0.7"/>
					<path class="st1" d="M530.72-131.81c0.43-0.25,0.58-0.8,0.33-1.24c-0.25-0.43-0.8-0.58-1.24-0.33
						c-0.43,0.25-0.58,0.8-0.33,1.24C529.74-131.7,530.29-131.55,530.72-131.81z"/>
				</g>
				<g>
					
						<rect x="520.68" y="-134.97" transform="matrix(0.2589 -0.9659 0.9659 0.2589 517.9561 405.826)" class="st1" width="5.52" height="0.7"/>
					<path class="st1" d="M525.03-137.05c0.13-0.48-0.16-0.98-0.64-1.11c-0.48-0.13-0.98,0.16-1.11,0.64
						c-0.13,0.48,0.16,0.98,0.64,1.11C524.4-136.28,524.9-136.57,525.03-137.05z"/>
				</g>
			</g>
			<g>
				<path class="st1" d="M527.71-122.82c2.61-3.4,1.97-8.28-1.43-10.89c-3.4-2.61-8.28-1.97-10.89,1.43
					c-2.61,3.4-1.97,8.28,1.43,10.89C520.22-118.77,525.1-119.42,527.71-122.82z"/>
				<path class="st1" d="M527.28-121.8L527.28-121.8c-2.87,2.87-7.46,3.17-10.68,0.69c-3.55-2.73-4.23-7.83-1.5-11.39
					c0.22-0.28,0.46-0.56,0.71-0.81c2.87-2.87,7.46-3.16,10.68-0.69c3.55,2.73,4.22,7.83,1.5,11.39
					C527.77-122.32,527.53-122.05,527.28-121.8z"/>
			</g>
		</g>
		<path class="st0" d="M521.39-132.07c-0.67-0.67-1.76-0.67-2.43,0c-0.67,0.67-0.67,1.76,0,2.43c0.67,0.67,1.76,0.67,2.43,0
			C522.06-130.31,522.06-131.4,521.39-132.07z"/>
	</g>
	<g>
		<g>
			<g>
				<g>
					<g>
						<path class="st1" d="M901.84,234.93l-17.44-17.44c-4-4-3.59-11.79,1.46-16.84l0.14-0.14c5.05-5.05,12.83-5.46,16.84-1.46
							l17.44,17.44L901.84,234.93z"/>
						<path class="st0" d="M901.4,235.38l-17.44-17.44c-4.41-4.41-3.74-12.53,1.46-17.73l0.14-0.14c2.76-2.76,6.48-4.34,10.21-4.34
							c2.99,0,5.66,1.02,7.52,2.89l17.44,17.44c0.25,0.25,0.25,0.64,0,0.89l-18.43,18.43c-0.12,0.12-0.28,0.19-0.45,0.19
							C901.68,235.56,901.52,235.5,901.4,235.38z M902.39,199.5c-1.62-1.62-3.98-2.52-6.63-2.52c-3.39,0-6.79,1.45-9.32,3.98
							l-0.14,0.14c-4.64,4.64-5.32,12.09-1.46,15.95l17,17l17.54-17.54L902.39,199.5z"/>
					</g>
					<path class="st0" d="M887.8,202.57c0.16-0.19,0.33-0.38,0.51-0.56l0.1-0.11c3.82-3.81,9.7-4.12,12.72-1.1l13.17,13.17
						l-1.17,1.17l-13.18-13.17C897.08,199.1,891.61,199.25,887.8,202.57z"/>
					<path class="st0" d="M940.39,235.72l-17.44-17.44c-0.24-0.24-0.65-0.24-0.89,0l-18.43,18.43c-0.25,0.25-0.25,0.64,0,0.89
						l17.44,17.44c1.86,1.86,4.53,2.89,7.52,2.89c3.72,0,7.45-1.59,10.21-4.35l0.14-0.14c2.52-2.51,4.05-5.79,4.31-9.21
						C943.49,240.89,942.45,237.78,940.39,235.72z"/>
					<path class="st1" d="M936.43,251.2c0.19-0.17,0.38-0.34,0.55-0.52l0.11-0.1c3.82-3.82,4.12-9.69,1.1-12.71l-13.17-13.17
						l-1.18,1.17l13.17,13.17C939.9,241.92,939.75,247.39,936.43,251.2z"/>
				</g>
			</g>
		</g>
		<g>
			<g>
				<path class="st1" d="M868.1,264.8c7.51,7.51,19.69,7.51,27.21,0c7.51-7.51,7.51-19.69,0-27.21c-7.51-7.51-19.69-7.51-27.21,0
					C860.59,245.11,860.59,257.29,868.1,264.8z"/>
			</g>
			<g>
				<path class="st0" d="M894.34,240.44l-23.4,23.4c3,2.56,6.77,3.96,10.76,3.96c4.43,0,8.6-1.73,11.74-4.86
					C899.6,256.78,899.9,246.95,894.34,240.44z"/>
			</g>
			<g>
				<path class="st0" d="M881.7,235.6c3.35,0,6.6,1.07,9.26,3.04l-21.82,21.82c-1.97-2.67-3.04-5.92-3.04-9.26
					c0-4.17,1.62-8.08,4.57-11.03C873.62,237.22,877.54,235.6,881.7,235.6L881.7,235.6z M881.7,234.6c-4.43,0-8.6,1.73-11.74,4.86
					c-3.13,3.13-4.86,7.3-4.86,11.74c0,3.99,1.4,7.76,3.96,10.76l23.4-23.4C889.46,236,885.69,234.6,881.7,234.6L881.7,234.6z"/>
			</g>
		</g>
	</g>
	<g>
		<g>
			<g>
				<path class="st0" d="M530.48-50.65v15.75c0,3.54,4.2,6.42,9.38,6.42h12.44L530.48-50.65z"/>
				<path class="st0" d="M552.17-28.53h-12.44c-5.18,0-9.38-2.87-9.38-6.42V-50.7h-21.54c-5.18,0-9.38,2.87-9.38,6.42v59.37
					c0,3.54,4.2,6.42,9.38,6.42h33.99c5.18,0,9.38-2.87,9.38-6.42L552.17-28.53z"/>
				<g>
					<path class="st1" d="M553.68-28.48h-13.82c-5.18,0-9.38-2.87-9.38-6.42v-16.79h-2.96v16.79c0,5.25,5.42,9.37,12.33,9.37h13.82
						V-28.48z"/>
				</g>
			</g>
		</g>
		<rect x="503.17" y="-14.19" class="st1" width="46.04" height="3.48"/>
		<rect x="503.17" y="-23.46" class="st1" width="46.04" height="3.48"/>
		<rect x="503.17" y="-4.92" class="st1" width="46.04" height="3.48"/>
		<rect x="503.17" y="4.36" class="st1" width="46.04" height="3.48"/>
		<rect x="503.17" y="13.63" class="st1" width="46.04" height="3.48"/>
		<path class="st1" d="M521.55-37.11c-0.01,0-0.02,0-0.03,0c-0.27-0.01-0.49-0.21-0.54-0.47l-1.46-7.65l-0.73,4.47
			c-0.05,0.28-0.29,0.49-0.57,0.49h-4.15c-0.21,0-0.4-0.11-0.5-0.29l-0.41-0.7h-2.82l-1.18,3.75c-0.08,0.25-0.31,0.43-0.59,0.41
			c-0.27-0.01-0.49-0.21-0.54-0.47l-1.46-7.65l-0.73,4.47c-0.05,0.28-0.29,0.49-0.57,0.49h-1.84c-0.32,0-0.58-0.26-0.58-0.58
			c0-0.32,0.26-0.58,0.58-0.58h1.34l1.18-7.22c0.04-0.28,0.28-0.48,0.56-0.49c0.29,0,0.52,0.19,0.58,0.47l1.64,8.61l0.61-1.96
			c0.08-0.24,0.3-0.41,0.55-0.41h3.57c0.21,0,0.4,0.11,0.5,0.29l0.41,0.7h3.33l1.18-7.22c0.04-0.28,0.28-0.48,0.56-0.49
			c0.26,0,0.52,0.19,0.58,0.47l1.65,8.61l0.61-1.96c0.08-0.24,0.3-0.41,0.55-0.41h3.57c0.32,0,0.58,0.26,0.58,0.58
			c0,0.32-0.26,0.58-0.58,0.58h-3.15l-1.18,3.75C522.03-37.27,521.81-37.11,521.55-37.11z"/>
		<path class="st1" d="M526.43-27.66h-5.32c-0.32,0-0.58-0.26-0.58-0.58l-0.04-5h-1.67v5c0,0.32-0.26,0.58-0.58,0.58h-9.11
			c-0.32,0-0.58-0.26-0.58-0.58v-4.06h-1.39l-0.01,4.06c0,0.32-0.26,0.58-0.58,0.58h-3.14c-0.32,0-0.58-0.26-0.58-0.58
			c0-0.32,0.26-0.58,0.58-0.58H506l0.01-4.06c0-0.32,0.26-0.58,0.58-0.58h2.55c0.32,0,0.58,0.26,0.58,0.58v4.06h7.95v-5
			c0-0.32,0.26-0.58,0.58-0.58h2.82c0.32,0,0.58,0.26,0.58,0.58l0.04,5h4.74c0.32,0,0.58,0.26,0.58,0.58
			C527.01-27.92,526.75-27.66,526.43-27.66z"/>
	</g>
	<g>
		<path class="st0" d="M803.99,375.17c0.02,0.62-0.46,1.13-1.08,1.15l-29.58,1.03c-0.62,0.02-1.14-0.46-1.16-1.08l0,0
			c-0.02-0.62,0.46-1.14,1.08-1.16l29.58-1.03C803.45,374.07,803.97,374.55,803.99,375.17L803.99,375.17z"/>
		<path class="st0" d="M823.62,369.89c-0.08-2.16-1.17-3.41-3.07-4.28l-24.94-20.35c0,0-0.91-0.59-2.01-0.55l-41.68,1.45
			c-1.1,0.04-1.95,0.96-1.92,2.06l0.94,26.8c0.04,1.1,0.96,1.95,2.06,1.92l41.68-1.46c0.22-0.01,0.44-0.05,0.63-0.13l25.54-0.89
			l0-0.1C822.75,373.88,823.69,372.05,823.62,369.89z"/>
		<g>
			<path class="st0" d="M790.55,346.07c-0.07-1.93-1.69-3.44-3.62-3.38c-1.93,0.07-3.44,1.69-3.38,3.62
				c0.07,1.93,1.69,3.44,3.62,3.37C789.1,349.62,790.62,348,790.55,346.07z"/>
			<path class="st0" d="M786.84,340.73c-0.33,0-0.61-0.26-0.62-0.6l-0.14-4.09c-0.01-0.34,0.26-0.63,0.6-0.64
				c0.36-0.03,0.63,0.26,0.64,0.6l0.14,4.09c0.01,0.34-0.26,0.63-0.6,0.64C786.85,340.73,786.85,340.73,786.84,340.73z"/>
			<path class="st0" d="M783.83,341.65c-0.21,0-0.41-0.1-0.53-0.29l-2.17-3.47c-0.18-0.29-0.09-0.67,0.2-0.86
				c0.29-0.18,0.67-0.09,0.86,0.2l2.17,3.47c0.18,0.29,0.09,0.67-0.2,0.86C784.05,341.62,783.94,341.65,783.83,341.65z"/>
			<path class="st0" d="M781.68,343.95c-0.1,0-0.2-0.02-0.29-0.07l-3.62-1.92c-0.3-0.16-0.42-0.54-0.26-0.84
				c0.16-0.3,0.53-0.42,0.84-0.26l3.62,1.92c0.3,0.16,0.42,0.54,0.26,0.84C782.11,343.83,781.9,343.95,781.68,343.95z"/>
			<path class="st0" d="M792.21,343.58c-0.21,0-0.41-0.1-0.53-0.29c-0.18-0.29-0.09-0.67,0.2-0.86l3.47-2.17
				c0.29-0.18,0.67-0.09,0.86,0.2c0.18,0.29,0.09,0.67-0.2,0.86l-3.47,2.17C792.44,343.55,792.32,343.58,792.21,343.58z"/>
			<path class="st0" d="M789.91,341.44c-0.1,0-0.2-0.02-0.29-0.07c-0.3-0.16-0.42-0.54-0.26-0.84l1.92-3.62
				c0.16-0.3,0.53-0.42,0.84-0.26c0.3,0.16,0.42,0.54,0.26,0.84l-1.92,3.62C790.34,341.32,790.13,341.44,789.91,341.44z"/>
		</g>
		<g>
			<path class="st0" d="M792.09,351.64c-0.03-0.92-0.86-1.64-1.84-1.61l-13.18,0.46c-0.98,0.04-1.75,0.81-1.72,1.74l0.75,21.5
				c0.03,0.92,0.85,1.65,1.84,1.61l13.18-0.46c0.99-0.04,1.76-0.81,1.72-1.73L792.09,351.64z"/>
			<path class="st1" d="M777.87,375.59c-1.09,0-1.98-0.81-2.01-1.85l-0.75-21.5c-0.04-1.06,0.84-1.95,1.96-1.99l13.25-0.46
				c1.1,0,1.98,0.81,2.02,1.85l0.75,21.5c0.04,1.06-0.84,1.95-1.96,1.99L777.87,375.59z M790.31,350.28l-13.23,0.46
				c-0.84,0.03-1.51,0.69-1.48,1.48l0.75,21.5c0.03,0.77,0.69,1.37,1.52,1.37l0.06,0l13.18-0.46c0.85-0.03,1.51-0.69,1.48-1.48
				l-0.75-21.5C791.81,350.88,791.14,350.28,790.31,350.28z"/>
		</g>
		<g>
			<path class="st0" d="M810.1,358.22c-0.03-0.79-10.11-8.53-10.11-8.53l-5.15,0.18c-0.99,0.03-1.75,0.81-1.72,1.74l0.75,21.5
				c0.03,0.92,0.85,1.64,1.84,1.61l13.17-0.46c0.99-0.03,1.76-0.81,1.72-1.73L810.1,358.22z"/>
			<path class="st1" d="M795.64,374.97c-1.1,0-1.98-0.81-2.02-1.85l-0.75-21.5c-0.04-1.06,0.84-1.95,1.96-1.99l5.24-0.18l0.07,0.05
				c3.06,2.35,10.18,7.89,10.21,8.72l0.5,14.3c0.02,0.52-0.18,1.01-0.55,1.38c-0.37,0.37-0.87,0.59-1.41,0.61L795.64,374.97z
				 M799.91,349.94l-5.07,0.18c-0.84,0.03-1.51,0.69-1.48,1.48l0.75,21.5c0.03,0.77,0.7,1.37,1.52,1.37l0.06,0l13.17-0.46
				c0.41-0.01,0.79-0.18,1.08-0.46c0.28-0.28,0.42-0.64,0.41-1.02l-0.5-14.3C809.63,357.58,803.67,352.83,799.91,349.94z"/>
		</g>
		<path class="st1" d="M791.31,357.82c0.04,1.1-0.82,2.02-1.92,2.05l-10.78,0.38c-1.1,0.04-2.02-0.82-2.06-1.91l-0.13-3.85
			c-0.04-1.1,0.82-2.02,1.92-2.06l10.78-0.38c1.1-0.04,2.02,0.82,2.06,1.92L791.31,357.82z"/>
		<path class="st1" d="M807.28,356.74c0.04,1.1-1.32,2.56-2.42,2.59l-8.3,0.29c-1.1,0.04-2.02-0.82-2.05-1.92l-0.13-3.85
			c-0.04-1.1,0.82-2.02,1.91-2.06l4-0.14C801.38,351.63,807.28,356.74,807.28,356.74z"/>
		<g>
			<g>
				<path class="st0" d="M769.67,378.21c-0.11-3.02-2.64-5.39-5.67-5.28c-3.02,0.11-5.39,2.64-5.28,5.67
					c0.1,3.02,2.64,5.39,5.67,5.28C767.41,383.77,769.77,381.23,769.67,378.21z"/>
				<path class="st1" d="M764.2,372.92c2.94,0,5.37,2.33,5.47,5.29c0.1,3.02-2.26,5.56-5.28,5.67c-0.07,0-0.13,0-0.2,0
					c-2.94,0-5.37-2.33-5.47-5.29c-0.11-3.03,2.26-5.56,5.28-5.67C764.07,372.92,764.14,372.92,764.2,372.92L764.2,372.92z
					 M764.2,372.37c-0.07,0-0.14,0-0.22,0c-3.32,0.12-5.93,2.91-5.81,6.23c0.11,3.26,2.75,5.81,6.02,5.81c0.07,0,0.14,0,0.22,0
					c3.32-0.11,5.93-2.91,5.81-6.23C770.1,374.92,767.46,372.37,764.2,372.37L764.2,372.37z"/>
			</g>
			<path class="st1" d="M768,378.26c-0.07-2.1-1.84-3.74-3.94-3.67c-2.1,0.07-3.74,1.83-3.67,3.93c0.07,2.1,1.83,3.74,3.93,3.67
				C766.43,382.13,768.07,380.36,768,378.26z"/>
		</g>
		<g>
			<g>
				<path class="st0" d="M817.18,376.76c-0.11-3.02-2.64-5.39-5.67-5.28c-3.02,0.11-5.39,2.64-5.28,5.67
					c0.1,3.02,2.64,5.39,5.67,5.28C814.91,382.32,817.28,379.78,817.18,376.76z"/>
				<path class="st1" d="M811.7,371.47c2.94,0,5.37,2.33,5.47,5.29c0.1,3.02-2.26,5.56-5.28,5.67c-0.07,0-0.13,0-0.2,0
					c-2.94,0-5.37-2.33-5.47-5.29c-0.11-3.02,2.26-5.56,5.28-5.67C811.57,371.47,811.64,371.47,811.7,371.47L811.7,371.47z
					 M811.7,370.92c-0.07,0-0.14,0-0.22,0c-3.32,0.12-5.93,2.91-5.81,6.23c0.11,3.26,2.75,5.81,6.02,5.81c0.07,0,0.14,0,0.22,0
					c3.32-0.11,5.93-2.91,5.81-6.23C817.61,373.48,814.97,370.92,811.7,370.92L811.7,370.92z"/>
			</g>
			<path class="st1" d="M815.5,376.82c-0.07-2.1-1.84-3.74-3.94-3.67c-2.1,0.07-3.74,1.83-3.67,3.93c0.07,2.1,1.83,3.74,3.93,3.67
				C813.93,380.68,815.57,378.92,815.5,376.82z"/>
		</g>
		<polygon class="st1" points="764.1,355.5 762.97,353.69 760.7,355.11 760.6,352.43 758.46,352.51 758.56,355.18 756.19,353.93 
			755.19,355.82 757.55,357.08 755.28,358.5 756.41,360.31 758.69,358.89 758.78,361.57 760.92,361.49 760.83,358.82 763.19,360.07 
			764.2,358.18 761.83,356.93 		"/>
		<path class="st1" d="M818.75,365.16c-0.95-0.92-2.17-1.18-2.74-0.59c-0.56,0.58-0.25,1.8,0.69,2.72c0.95,0.91,2.17,1.18,2.74,0.59
			C820,367.29,819.7,366.07,818.75,365.16z"/>
		<path class="st0" d="M784,360.31c-0.13,0-0.24-0.11-0.25-0.24l-0.27-7.82c0-0.14,0.1-0.25,0.24-0.26c0.14,0,0.25,0.1,0.26,0.24
			l0.27,7.82C784.25,360.19,784.15,360.31,784,360.31C784.01,360.31,784,360.31,784,360.31z"/>
		<path class="st0" d="M746.35,355.28c0,0-12.49-0.09-12.54-0.77c-0.05-0.67,12-3.72,12-3.72c0.84-0.22,1.68,0.6,1.88,1.83
			c0.2,1.23-0.32,2.41-1.17,2.63C746.48,355.27,746.41,355.28,746.35,355.28z"/>
		<path class="st0" d="M747.01,363.89c0,0-17.46,0.1-17.51-0.57c-0.05-0.67,16.98-3.92,16.98-3.92c0.84-0.22,1.69,0.6,1.88,1.83
			c0.2,1.23-0.32,2.41-1.17,2.63C747.13,363.88,747.06,363.89,747.01,363.89z"/>
		<path class="st0" d="M747.66,372.5c0,0-12.49-0.1-12.54-0.77c-0.05-0.67,12-3.73,12-3.73c0.84-0.22,1.69,0.6,1.88,1.83
			c0.2,1.23-0.32,2.41-1.17,2.63C747.79,372.49,747.72,372.5,747.66,372.5z"/>
	</g>
	<g>
		<path class="st0" d="M693.88,364.25c-3.59,4.35-8.5,7.75-13.35,10.55c-5.54,3.2-11.62,5.37-17.87,6.67
			c-12.8,2.67-26.35,0.44-37.92-5.51c-5.64-2.9-11.43-6.76-15.49-11.71c9.89,5.66,20.76,9.75,32.03,11.5
			c12.25,1.91,24.44,0.07,36.08-3.92C683.08,369.86,688.63,367.26,693.88,364.25z"/>
		<path class="st0" d="M609.24,355.57c3.59-4.35,8.5-7.75,13.35-10.55c5.54-3.2,11.62-5.37,17.87-6.67
			c12.8-2.67,26.35-0.44,37.92,5.51c5.64,2.9,11.43,6.76,15.49,11.71c-9.89-5.66-20.76-9.75-32.03-11.5
			c-12.25-1.91-24.44-0.07-36.08,3.92C620.04,349.95,614.49,352.56,609.24,355.57z"/>
		<path class="st0" d="M665.02,359.91c0-7.43-6.03-13.46-13.46-13.46c-7.43,0-13.46,6.03-13.46,13.46c0,7.44,6.03,13.46,13.46,13.46
			C658.99,373.37,665.02,367.34,665.02,359.91z"/>
		<path class="st1" d="M660.37,359.91c0-4.87-3.95-8.81-8.81-8.81s-8.81,3.95-8.81,8.81c0,4.87,3.95,8.82,8.81,8.82
			S660.37,364.78,660.37,359.91z"/>
		<path class="st0" d="M651.51,356.76c0.37-1.99-1.34-3.7-3.33-3.33c-1.11,0.21-2.01,1.11-2.23,2.21c-0.39,2,1.34,3.73,3.34,3.35
			C650.4,358.78,651.3,357.87,651.51,356.76z"/>
	</g>
	<g>
		<g>
			<path class="st0" d="M938.89,379.04h-74.67c-2.06,0-3.72-1.67-3.72-3.73c0-2.06,1.67-3.73,3.72-3.73h74.67
				c2.06,0,3.72,1.67,3.72,3.73C942.62,377.38,940.95,379.04,938.89,379.04z"/>
			<path class="st0" d="M884.94,364.48c0,1.81-1.31,3.28-2.93,3.28h-8.19c-1.62,0-2.93-1.47-2.93-3.28l0,0
				c0-1.81,1.31-3.28,2.93-3.28h8.19C883.64,361.2,884.94,362.67,884.94,364.48L884.94,364.48z"/>
			<path class="st0" d="M883.08,353.33c0,2.85-2.31,5.16-5.16,5.16c-2.85,0-5.16-2.31-5.16-5.16c0-2.85,2.31-5.16,5.16-5.16
				C880.77,348.17,883.08,350.48,883.08,353.33z"/>
			<path class="st0" d="M887.51,367.76h44.38c-0.25-8.01-3.08-16.3-11.15-16.3h-12.51c-0.96,0-20.72,0-20.72,0V367.76z"/>
			<path class="st0" d="M942.62,357.52c0-2.06-1.67-3.72-3.73-3.72c-2.06,0-3.72,1.67-3.72,3.72v33.37h7.45V357.52z"/>
			<path class="st0" d="M867.95,344.01c0-2.06-1.67-3.73-3.72-3.73c-2.06,0-3.73,1.67-3.73,3.73v46.88h7.45V344.01z"/>
		</g>
		<polygon class="st0" points="937.33,335.58 930.66,335.58 930.66,328.92 927.07,328.92 927.07,335.58 920.41,335.58 
			920.41,339.18 927.07,339.18 927.07,345.84 930.66,345.84 930.66,339.18 937.33,339.18 		"/>
	</g>
	<path class="st0" d="M546.19,321.49c-2.13,0-3.85,1.72-3.85,3.85c0,1.4,0.76,2.62,1.88,3.29c-0.81,11.63-5.9,20.11-13.3,22.5
		c-0.62-0.58-1.45-0.94-2.37-0.94h-3.96c-0.92,0-1.76,0.37-2.38,0.95c-7.42-2.37-12.54-10.86-13.34-22.51
		c1.12-0.67,1.88-1.89,1.88-3.29c0-2.13-1.72-3.85-3.85-3.85c-2.13,0-3.85,1.72-3.85,3.85c0,1.49,0.86,2.78,2.11,3.41
		c0.9,13.46,7.11,23.28,16.15,26.01c0.46,1.39,1.75,2.39,3.29,2.39h0.09v32.62c-3.91,0.85-6.84,4.34-6.84,8.5c0,4.8,3.9,8.7,8.7,8.7
		c4.8,0,8.7-3.9,8.7-8.7c0-4.16-2.94-7.65-6.84-8.5v-11.35c0.98,0.52,2.09,0.82,3.28,0.82c3.86,0,7-3.14,7-7c0-3.86-3.14-7-7-7
		c-1.18,0-2.3,0.3-3.28,0.82v-8.93h0.15c1.55,0,2.84-1.02,3.3-2.41c9.01-2.75,15.2-12.56,16.09-25.99c1.25-0.64,2.11-1.92,2.11-3.41
		C550.04,323.21,548.31,321.49,546.19,321.49z M532.76,398.28c0,3.43-2.79,6.23-6.23,6.23c-3.43,0-6.23-2.79-6.23-6.23
		c0-2.79,1.84-5.15,4.37-5.94v2.59c-1.18,0.66-1.99,1.9-1.99,3.35c0,2.13,1.72,3.85,3.85,3.85c2.13,0,3.85-1.72,3.85-3.85
		c0-1.45-0.81-2.7-1.99-3.35v-2.59C530.92,393.12,532.76,395.49,532.76,398.28z M531.67,368.97c1.81,0,3.28,1.47,3.28,3.28
		c0,1.81-1.47,3.28-3.28,3.28c-1.81,0-3.28-1.47-3.28-3.28C528.39,370.44,529.86,368.97,531.67,368.97z"/>
	<g>
		<polygon class="st0" points="562.06,224.24 553.54,209.49 535.07,220.16 535.07,198.83 518.04,198.83 518.04,220.16 
			499.57,209.49 491.06,224.24 509.53,234.91 491.06,245.57 499.57,260.32 518.04,249.65 518.04,270.98 535.07,270.98 
			535.07,249.65 553.54,260.32 562.06,245.57 543.59,234.91 		"/>
	</g>
	<path class="st3" d="M890.17,21.98c-2.97-0.31-5.23-4.04-5.94-17.56c-0.14-2.68-0.23-5.36-0.17-8.05c0.08-3.61,0.95-7.19,0.56-10.8
		c-0.32-2.93-1.29-5.75-2.31-8.52c-1.58-4.3-3.32-8.67-3.64-13.29c-0.22-3.14-0.53-8.03,1.02-10.88c1.77-3.26,5.24-5.05,9.74-5.05
		c2.85,0,4.49,0.6,5.94,1.12c1.45,0.53,2.82,1.03,6.22,1.03c3.42,0,4.55-0.4,5.75-0.82c1.26-0.44,2.69-0.95,5.53-0.95
		c5.93,0,9.61,2.79,10.63,4.67c1.32,2.42,1.13,6.27,1.06,8.93c-0.09,3.51-0.71,7-1.78,10.35c-1.5,4.68-3.89,9.16-4.26,14.05
		c-0.26,3.37,0.51,6.73,0.66,10.08c0.12,2.73,0.17,5.47,0.03,8.2c-0.07,1.35-0.4,5.62-1.07,9.35c-0.43,2.39-0.3,6.84-5.31,6.84
		c-4.26,0-5.6-5.14-6.13-8.52c-0.4-2.56-0.45-5.16-0.8-7.73c-0.3-2.2-0.8-4.37-1.51-6.47c-0.32-0.95-1.42-5.05-2.53-5.01
		c-1.74,0.05-2.76,4.95-3.21,6.2c-0.73,2.05-1.05,4.08-1.36,6.22c-0.25,1.75-0.34,3.7-0.58,5.45c-0.22,1.61-2.02,11.19-6.43,11.19
		L890.17,21.98z"/>
	<path class="st0" d="M939.11,96.71c0-20.74-37.55-26.59-37.55,4.17c0-30.76-37.55-24.91-37.55-4.17
		c0,20.74,31.72,52.71,37.55,52.71C907.39,149.42,939.11,117.45,939.11,96.71z"/>
	<g>
		<g>
			<path class="st0" d="M78.39,50.12H3.73C1.67,50.12,0,48.45,0,46.4c0-2.06,1.67-3.73,3.72-3.73h74.67c2.06,0,3.72,1.67,3.72,3.73
				C82.12,48.45,80.45,50.12,78.39,50.12z"/>
			<path class="st0" d="M24.45,35.56c0,1.81-1.31,3.28-2.93,3.28h-8.19c-1.62,0-2.93-1.47-2.93-3.28l0,0c0-1.81,1.31-3.28,2.93-3.28
				h8.19C23.14,32.28,24.45,33.75,24.45,35.56L24.45,35.56z"/>
			<path class="st0" d="M22.58,24.4c0,2.85-2.31,5.16-5.16,5.16c-2.85,0-5.16-2.31-5.16-5.16c0-2.85,2.31-5.16,5.16-5.16
				C20.27,19.24,22.58,21.55,22.58,24.4z"/>
			<path class="st0" d="M27.01,38.84h44.38c-0.25-8.01-3.08-16.3-11.15-16.3H47.73c-0.95,0-20.72,0-20.72,0V38.84z"/>
			<path class="st0" d="M82.12,28.59c0-2.06-1.67-3.72-3.73-3.72c-2.06,0-3.72,1.67-3.72,3.72v33.37h7.45V28.59z"/>
			<path class="st0" d="M7.45,15.09c0-2.06-1.67-3.73-3.72-3.73C1.67,11.36,0,13.03,0,15.09v46.88h7.45V15.09z"/>
		</g>
		<polygon class="st0" points="76.83,6.66 70.16,6.66 70.16,0 66.57,0 66.57,6.66 59.91,6.66 59.91,10.25 66.57,10.25 66.57,16.92 
			70.16,16.92 70.16,10.25 76.83,10.25 		"/>
	</g>
</g>
<g id="_xF91C_迹_8">
	<g>
		<path class="st1" d="M582.15-87.87c-0.05,0-0.1,0-0.16-0.01c-0.69-0.07-1.23-0.6-1.33-1.29l-7.52-54.84l-13.19,49.46
			c-0.18,0.69-0.82,1.15-1.53,1.11c-0.71-0.04-1.29-0.57-1.4-1.28l-8.34-55.93l-8.97,52.81c-0.11,0.64-0.62,1.14-1.27,1.23
			c-0.65,0.09-1.28-0.25-1.56-0.84c-2.03-4.27-4.66-9.24-5.69-10.49l-20.46-0.04c-0.83,0-1.5-0.68-1.49-1.51
			c0-0.83,0.67-1.49,1.5-1.49c0,0,0,0,0.01,0l21,0.05c0.16,0,0.31,0.03,0.46,0.07c0.49,0.16,1.55,0.51,5.33,7.94l9.77-57.5
			c0.12-0.73,0.77-1.28,1.49-1.25c0.74,0.01,1.36,0.55,1.47,1.28l8.65,58.07l13.25-49.68c0.18-0.69,0.82-1.15,1.54-1.11
			c0.71,0.04,1.3,0.59,1.39,1.29l7.77,56.68c0.82-1.86,1.86-4.1,3.11-6.56c0.26-0.5,0.77-0.82,1.34-0.82h311.1
			c0.83,0,1.5,0.67,1.5,1.5s-0.67,1.5-1.5,1.5H588.24c-2.98,5.96-4.67,10.59-4.68,10.63C583.34-88.26,582.77-87.87,582.15-87.87z"/>
		<g>
			<path class="st1" d="M898.42-91.16c-5.49,0-9.96-4.47-9.96-9.96c0-5.49,4.47-9.96,9.96-9.96c5.49,0,9.96,4.47,9.96,9.96
				C908.37-95.63,903.91-91.16,898.42-91.16z M898.42-109.1c-4.4,0-7.99,3.58-7.99,7.98c0,4.4,3.58,7.98,7.99,7.98
				c4.4,0,7.98-3.58,7.98-7.98C906.4-105.52,902.82-109.1,898.42-109.1z"/>
			<path class="st1" d="M898.42-94.12c-3.86,0-7-3.14-7-7s3.14-7,7-7s7,3.14,7,7S902.27-94.12,898.42-94.12z M898.42-106.14
				c-2.77,0-5.02,2.25-5.02,5.02c0,2.77,2.25,5.02,5.02,5.02c2.77,0,5.02-2.25,5.02-5.02C903.44-103.89,901.19-106.14,898.42-106.14
				z"/>
			<path class="st1" d="M902.45-101.12c0-2.23-1.81-4.03-4.04-4.03c-2.23,0-4.03,1.81-4.03,4.03s1.8,4.04,4.03,4.04
				C900.64-97.08,902.45-98.89,902.45-101.12z"/>
		</g>
		<g>
			<path class="st1" d="M609.5-115.27h-9.39c0.01,1.09,0.23,2.05,0.66,2.88c0.43,0.83,1,1.46,1.71,1.88
				c0.71,0.42,1.49,0.63,2.35,0.63c0.57,0,1.1-0.07,1.57-0.2c0.47-0.13,0.93-0.35,1.38-0.63c0.45-0.29,0.86-0.59,1.23-0.92
				c0.38-0.33,0.86-0.77,1.46-1.34c0.25-0.21,0.6-0.32,1.05-0.32c0.49,0,0.89,0.13,1.2,0.4c0.3,0.27,0.46,0.65,0.46,1.14
				c0,0.43-0.17,0.94-0.51,1.52c-0.34,0.58-0.85,1.14-1.54,1.67c-0.69,0.53-1.55,0.98-2.58,1.33c-1.04,0.35-2.23,0.53-3.58,0.53
				c-3.08,0-5.48-0.88-7.19-2.64s-2.57-4.14-2.57-7.15c0-1.42,0.21-2.73,0.63-3.95c0.42-1.21,1.04-2.25,1.85-3.12
				c0.81-0.87,1.8-1.53,2.99-2s2.5-0.69,3.94-0.69c1.88,0,3.48,0.4,4.83,1.19c1.34,0.79,2.35,1.81,3.01,3.07
				c0.67,1.25,1,2.53,1,3.83c0,1.21-0.35,1.99-1.04,2.35S610.75-115.27,609.5-115.27z M600.11-117.99h8.7
				c-0.12-1.64-0.56-2.87-1.33-3.68c-0.77-0.81-1.78-1.22-3.03-1.22c-1.2,0-2.18,0.41-2.94,1.24
				C600.74-120.83,600.28-119.61,600.11-117.99z"/>
			<path class="st1" d="M630.65-109.43v-0.47c-0.64,0.74-1.28,1.34-1.91,1.8s-1.31,0.81-2.04,1.05c-0.73,0.24-1.53,0.36-2.4,0.36
				c-1.15,0-2.21-0.24-3.19-0.73c-0.98-0.49-1.83-1.18-2.54-2.08c-0.71-0.9-1.26-1.96-1.63-3.18c-0.37-1.22-0.55-2.54-0.55-3.96
				c0-3,0.73-5.34,2.2-7.01c1.46-1.68,3.39-2.51,5.78-2.51c1.38,0,2.55,0.24,3.5,0.71c0.95,0.47,1.88,1.2,2.78,2.19v-7.08
				c0-0.98,0.2-1.73,0.59-2.23c0.39-0.5,0.95-0.76,1.68-0.76c0.73,0,1.29,0.23,1.68,0.69c0.39,0.46,0.59,1.15,0.59,2.05v21.16
				c0,0.91-0.21,1.6-0.63,2.06c-0.42,0.46-0.97,0.69-1.63,0.69c-0.66,0-1.2-0.24-1.63-0.71
				C630.86-107.88,630.65-108.55,630.65-109.43z M621.21-116.48c0,1.3,0.2,2.41,0.61,3.32c0.4,0.91,0.96,1.6,1.66,2.07
				c0.7,0.46,1.47,0.69,2.3,0.69c0.84,0,1.61-0.22,2.31-0.66c0.7-0.44,1.25-1.11,1.67-2.02c0.42-0.91,0.62-2.04,0.62-3.4
				c0-1.28-0.21-2.38-0.62-3.3c-0.42-0.92-0.98-1.62-1.69-2.11c-0.71-0.49-1.49-0.73-2.33-0.73c-0.88,0-1.66,0.25-2.36,0.75
				c-0.69,0.5-1.23,1.21-1.61,2.14C621.4-118.79,621.21-117.71,621.21-116.48z"/>
			<path class="st1" d="M666.96-112.63c0,0.6-0.18,1.24-0.54,1.92c-0.36,0.68-0.9,1.33-1.63,1.94c-0.73,0.62-1.66,1.11-2.77,1.49
				c-1.11,0.38-2.37,0.56-3.76,0.56c-2.96,0-5.28-0.86-6.94-2.59c-1.66-1.73-2.5-4.05-2.5-6.95c0-1.97,0.38-3.71,1.14-5.22
				c0.76-1.51,1.86-2.68,3.3-3.51c1.44-0.83,3.16-1.24,5.17-1.24c1.24,0,2.38,0.18,3.42,0.54c1.04,0.36,1.92,0.83,2.64,1.41
				c0.72,0.57,1.27,1.19,1.65,1.84c0.38,0.65,0.57,1.26,0.57,1.82c0,0.57-0.21,1.06-0.64,1.46c-0.43,0.4-0.95,0.6-1.56,0.6
				c-0.4,0-0.73-0.1-0.99-0.31c-0.26-0.21-0.56-0.54-0.89-0.99c-0.59-0.89-1.2-1.56-1.84-2c-0.64-0.45-1.45-0.67-2.44-0.67
				c-1.42,0-2.56,0.55-3.43,1.66c-0.87,1.11-1.3,2.62-1.3,4.54c0,0.9,0.11,1.73,0.33,2.49c0.22,0.76,0.54,1.4,0.97,1.93
				c0.42,0.53,0.93,0.94,1.53,1.21c0.6,0.28,1.25,0.41,1.97,0.41c0.96,0,1.79-0.22,2.47-0.67c0.69-0.45,1.29-1.12,1.82-2.04
				c0.29-0.54,0.61-0.96,0.95-1.27c0.34-0.3,0.76-0.46,1.25-0.46c0.59,0,1.07,0.22,1.46,0.67
				C666.77-113.61,666.96-113.14,666.96-112.63z"/>
			<path class="st1" d="M683.27-109.4c-1.16,0.9-2.28,1.58-3.37,2.03c-1.08,0.45-2.3,0.68-3.65,0.68c-1.23,0-2.31-0.24-3.24-0.73
				c-0.93-0.49-1.65-1.15-2.15-1.98c-0.5-0.83-0.76-1.73-0.76-2.71c0-1.31,0.42-2.43,1.25-3.36c0.83-0.93,1.97-1.55,3.43-1.86
				c0.3-0.07,1.06-0.23,2.27-0.47c1.21-0.25,2.24-0.47,3.1-0.68c0.86-0.21,1.8-0.45,2.8-0.75c-0.06-1.27-0.31-2.19-0.76-2.79
				c-0.45-0.59-1.39-0.89-2.8-0.89c-1.22,0-2.14,0.17-2.75,0.51c-0.62,0.34-1.14,0.85-1.58,1.53c-0.44,0.68-0.75,1.13-0.93,1.34
				c-0.18,0.22-0.57,0.33-1.17,0.33c-0.54,0-1-0.17-1.4-0.52c-0.39-0.35-0.59-0.79-0.59-1.33c0-0.84,0.3-1.66,0.9-2.46
				c0.6-0.8,1.53-1.45,2.79-1.97c1.27-0.52,2.84-0.77,4.73-0.77c2.11,0,3.77,0.25,4.97,0.75c1.21,0.5,2.06,1.29,2.56,2.36
				c0.5,1.08,0.75,2.51,0.75,4.29c0,1.12,0,2.08-0.01,2.87c-0.01,0.79-0.01,1.66-0.03,2.62c0,0.9,0.15,1.84,0.45,2.82
				c0.3,0.98,0.45,1.61,0.45,1.89c0,0.49-0.23,0.94-0.69,1.34c-0.46,0.4-0.99,0.61-1.57,0.61c-0.49,0-0.98-0.23-1.46-0.69
				C684.32-107.85,683.81-108.52,683.27-109.4z M682.96-116.34c-0.7,0.26-1.73,0.53-3.07,0.82c-1.34,0.29-2.27,0.5-2.79,0.63
				c-0.52,0.13-1.01,0.4-1.48,0.79c-0.47,0.39-0.7,0.94-0.7,1.64c0,0.73,0.28,1.34,0.83,1.85c0.55,0.51,1.27,0.76,2.16,0.76
				c0.95,0,1.83-0.21,2.63-0.62c0.8-0.42,1.39-0.95,1.77-1.61c0.43-0.73,0.65-1.92,0.65-3.59V-116.34z"/>
			<path class="st1" d="M692.54-109.61v-20.81c0-0.96,0.21-1.69,0.64-2.18c0.43-0.49,1-0.74,1.73-0.74c0.73,0,1.31,0.24,1.76,0.73
				c0.45,0.49,0.67,1.22,0.67,2.19v20.81c0,0.97-0.23,1.7-0.68,2.19c-0.45,0.49-1.03,0.73-1.75,0.73c-0.7,0-1.27-0.25-1.71-0.76
				C692.76-107.95,692.54-108.67,692.54-109.61z"/>
			<g>
				<path class="st1" d="M713.69-129c0.72,0,5.15-4.38,5.15-7.22c0-2.84-5.15-3.98-5.15,0.81c0-4.79-5.15-3.65-5.15-0.81
					C708.55-133.38,712.97-129,713.69-129z"/>
				<g>
					<path class="st1" d="M642.37-126.2c-0.7,0-1.27,0.24-1.71,0.72c-0.44,0.48-0.66,1.2-0.66,2.14v13.73
						c0,0.94,0.22,1.66,0.66,2.16c0.44,0.5,1.01,0.76,1.71,0.76c0.7,0,1.28-0.25,1.74-0.74c0.46-0.49,0.69-1.22,0.69-2.18v-13.87
						c0-0.86-0.23-1.52-0.69-2C643.65-125.96,643.07-126.2,642.37-126.2z"/>
					<path class="st1" d="M642.4-129c0.72,0,5.15-4.38,5.15-7.22c0-2.84-5.15-3.98-5.15,0.81c0-4.79-5.15-3.65-5.15-0.81
						C637.25-133.38,641.67-129,642.4-129z"/>
				</g>
				<path class="st1" d="M713.67-126.2c-0.7,0-1.27,0.24-1.71,0.72c-0.44,0.48-0.66,1.2-0.66,2.14v13.73c0,0.94,0.22,1.66,0.66,2.16
					c0.44,0.5,1.01,0.76,1.71,0.76s1.28-0.25,1.74-0.74c0.46-0.49,0.69-1.22,0.69-2.18v-13.87c0-0.86-0.23-1.52-0.69-2
					C714.95-125.96,714.37-126.2,713.67-126.2z"/>
			</g>
			<path class="st1" d="M738.26-112.63c0,0.6-0.18,1.24-0.54,1.92c-0.36,0.68-0.9,1.33-1.63,1.94c-0.73,0.62-1.66,1.11-2.77,1.49
				c-1.11,0.38-2.37,0.56-3.76,0.56c-2.96,0-5.28-0.86-6.94-2.59c-1.66-1.73-2.5-4.05-2.5-6.95c0-1.97,0.38-3.71,1.14-5.22
				c0.76-1.51,1.86-2.68,3.3-3.51s3.16-1.24,5.17-1.24c1.24,0,2.38,0.18,3.42,0.54c1.04,0.36,1.92,0.83,2.64,1.41
				c0.72,0.57,1.27,1.19,1.65,1.84c0.38,0.65,0.57,1.26,0.57,1.82c0,0.57-0.21,1.06-0.64,1.46c-0.43,0.4-0.95,0.6-1.56,0.6
				c-0.4,0-0.73-0.1-0.99-0.31c-0.26-0.21-0.56-0.54-0.89-0.99c-0.59-0.89-1.2-1.56-1.84-2c-0.64-0.45-1.45-0.67-2.43-0.67
				c-1.42,0-2.56,0.55-3.43,1.66c-0.87,1.11-1.3,2.62-1.3,4.54c0,0.9,0.11,1.73,0.33,2.49c0.22,0.76,0.54,1.4,0.97,1.93
				c0.42,0.53,0.93,0.94,1.53,1.21c0.6,0.28,1.25,0.41,1.97,0.41c0.96,0,1.78-0.22,2.47-0.67c0.69-0.45,1.29-1.12,1.82-2.04
				c0.29-0.54,0.61-0.96,0.95-1.27c0.34-0.3,0.76-0.46,1.25-0.46c0.59,0,1.07,0.22,1.46,0.67
				C738.07-113.61,738.26-113.14,738.26-112.63z"/>
			<path class="st1" d="M768.55-123.55v0.58c0.84-1.11,1.77-1.93,2.77-2.45c1-0.52,2.15-0.78,3.45-0.78c1.27,0,2.4,0.28,3.39,0.83
				s1.74,1.33,2.23,2.34c0.32,0.59,0.52,1.22,0.62,1.9c0.09,0.68,0.14,1.55,0.14,2.6v8.93c0,0.96-0.22,1.69-0.66,2.18
				c-0.44,0.49-1.01,0.74-1.71,0.74c-0.71,0-1.29-0.25-1.74-0.76c-0.45-0.5-0.67-1.22-0.67-2.16v-8c0-1.58-0.22-2.79-0.66-3.63
				c-0.44-0.84-1.32-1.26-2.63-1.26c-0.86,0-1.63,0.25-2.34,0.76c-0.7,0.51-1.22,1.21-1.55,2.1c-0.23,0.71-0.35,2.05-0.35,4.01v6.01
				c0,0.97-0.23,1.7-0.68,2.19c-0.45,0.49-1.03,0.73-1.75,0.73c-0.69,0-1.26-0.25-1.71-0.76c-0.45-0.5-0.67-1.22-0.67-2.16v-13.87
				c0-0.91,0.2-1.6,0.6-2.05c0.4-0.45,0.94-0.68,1.63-0.68c0.42,0,0.8,0.1,1.14,0.3c0.34,0.2,0.61,0.5,0.82,0.9
				C768.44-124.61,768.55-124.12,768.55-123.55z"/>
			<path class="st1" d="M801.38-112.97c0,1.32-0.32,2.46-0.97,3.4c-0.64,0.94-1.6,1.66-2.86,2.14c-1.26,0.49-2.79,0.73-4.6,0.73
				c-1.72,0-3.2-0.26-4.43-0.79c-1.23-0.53-2.14-1.19-2.72-1.98c-0.59-0.79-0.88-1.58-0.88-2.38c0-0.53,0.19-0.98,0.56-1.35
				s0.85-0.56,1.42-0.56c0.5,0,0.89,0.12,1.16,0.37c0.27,0.25,0.53,0.59,0.77,1.04c0.49,0.86,1.08,1.49,1.77,1.92
				c0.69,0.42,1.62,0.63,2.8,0.63c0.96,0,1.75-0.21,2.36-0.64c0.62-0.43,0.92-0.92,0.92-1.47c0-0.84-0.32-1.46-0.96-1.85
				c-0.64-0.39-1.69-0.76-3.16-1.11c-1.65-0.41-3-0.84-4.03-1.29s-1.87-1.05-2.49-1.78c-0.62-0.74-0.93-1.65-0.93-2.72
				c0-0.96,0.29-1.87,0.86-2.72c0.57-0.86,1.42-1.54,2.54-2.05c1.12-0.51,2.47-0.76,4.05-0.76c1.24,0,2.36,0.13,3.35,0.39
				c0.99,0.26,1.82,0.6,2.48,1.04c0.66,0.43,1.17,0.91,1.51,1.44c0.35,0.53,0.52,1.04,0.52,1.55c0,0.55-0.18,1-0.55,1.35
				c-0.37,0.35-0.89,0.53-1.57,0.53c-0.49,0-0.91-0.14-1.26-0.42s-0.74-0.7-1.19-1.27c-0.36-0.47-0.79-0.84-1.28-1.12
				s-1.16-0.42-2-0.42c-0.87,0-1.59,0.18-2.16,0.55c-0.57,0.37-0.86,0.83-0.86,1.38c0,0.5,0.21,0.92,0.63,1.24
				c0.42,0.32,0.99,0.59,1.7,0.8c0.71,0.21,1.7,0.47,2.95,0.77c1.49,0.36,2.7,0.8,3.65,1.3c0.94,0.5,1.66,1.1,2.14,1.78
				C801.14-114.63,801.38-113.84,801.38-112.97z"/>
			<path class="st1" d="M829.89-112.97c0,1.32-0.32,2.46-0.97,3.4c-0.64,0.94-1.6,1.66-2.86,2.14c-1.26,0.49-2.79,0.73-4.6,0.73
				c-1.72,0-3.2-0.26-4.43-0.79c-1.23-0.53-2.14-1.19-2.72-1.98c-0.59-0.79-0.88-1.58-0.88-2.38c0-0.53,0.19-0.98,0.56-1.35
				s0.85-0.56,1.42-0.56c0.5,0,0.89,0.12,1.16,0.37c0.27,0.25,0.53,0.59,0.77,1.04c0.49,0.86,1.08,1.49,1.77,1.92
				c0.69,0.42,1.62,0.63,2.8,0.63c0.96,0,1.75-0.21,2.36-0.64c0.62-0.43,0.92-0.92,0.92-1.47c0-0.84-0.32-1.46-0.96-1.85
				c-0.64-0.39-1.69-0.76-3.16-1.11c-1.65-0.41-3-0.84-4.03-1.29c-1.04-0.45-1.87-1.05-2.49-1.78c-0.62-0.74-0.93-1.65-0.93-2.72
				c0-0.96,0.29-1.87,0.86-2.72s1.42-1.54,2.54-2.05c1.12-0.51,2.47-0.76,4.05-0.76c1.24,0,2.36,0.13,3.35,0.39
				c0.99,0.26,1.82,0.6,2.48,1.04c0.66,0.43,1.17,0.91,1.51,1.44c0.35,0.53,0.52,1.04,0.52,1.55c0,0.55-0.18,1-0.55,1.35
				c-0.37,0.35-0.89,0.53-1.57,0.53c-0.49,0-0.91-0.14-1.26-0.42s-0.74-0.7-1.19-1.27c-0.36-0.47-0.79-0.84-1.28-1.12
				s-1.16-0.42-2-0.42c-0.87,0-1.59,0.18-2.16,0.55s-0.86,0.83-0.86,1.38c0,0.5,0.21,0.92,0.63,1.24c0.42,0.32,0.99,0.59,1.71,0.8
				c0.71,0.21,1.7,0.47,2.95,0.77c1.49,0.36,2.7,0.8,3.65,1.3c0.94,0.5,1.66,1.1,2.14,1.78
				C829.65-114.63,829.89-113.84,829.89-112.97z"/>
			<path class="st1" d="M847.35-115.27h-9.39c0.01,1.09,0.23,2.05,0.66,2.88c0.43,0.83,1,1.46,1.71,1.88
				c0.71,0.42,1.49,0.63,2.35,0.63c0.57,0,1.1-0.07,1.57-0.2c0.47-0.13,0.93-0.35,1.38-0.63s0.86-0.59,1.23-0.92
				c0.38-0.33,0.86-0.77,1.46-1.34c0.25-0.21,0.6-0.32,1.05-0.32c0.49,0,0.89,0.13,1.2,0.4c0.3,0.27,0.46,0.65,0.46,1.14
				c0,0.43-0.17,0.94-0.51,1.52c-0.34,0.58-0.85,1.14-1.54,1.67c-0.69,0.53-1.55,0.98-2.58,1.33c-1.04,0.35-2.23,0.53-3.58,0.53
				c-3.08,0-5.48-0.88-7.19-2.64c-1.71-1.76-2.57-4.14-2.57-7.15c0-1.42,0.21-2.73,0.63-3.95c0.42-1.21,1.04-2.25,1.85-3.12
				c0.81-0.87,1.8-1.53,2.99-2c1.18-0.46,2.5-0.69,3.94-0.69c1.88,0,3.48,0.4,4.83,1.19c1.34,0.79,2.35,1.81,3.01,3.07
				c0.67,1.25,1,2.53,1,3.83c0,1.21-0.35,1.99-1.04,2.35S848.6-115.27,847.35-115.27z M837.96-117.99h8.7
				c-0.12-1.64-0.56-2.87-1.33-3.68c-0.77-0.81-1.78-1.22-3.03-1.22c-1.2,0-2.18,0.41-2.94,1.24
				C838.59-120.83,838.13-119.61,837.96-117.99z"/>
			<path class="st1" d="M855.61-125.78h0.53v-2.88c0-0.77,0.02-1.38,0.06-1.82c0.04-0.44,0.16-0.82,0.34-1.13
				c0.19-0.33,0.46-0.59,0.81-0.8c0.35-0.2,0.74-0.31,1.18-0.31c0.61,0,1.16,0.23,1.65,0.69c0.33,0.3,0.54,0.68,0.62,1.12
				c0.09,0.44,0.13,1.06,0.13,1.87v3.27h1.76c0.68,0,1.2,0.16,1.56,0.48c0.36,0.32,0.54,0.74,0.54,1.24c0,0.64-0.25,1.1-0.76,1.35
				c-0.51,0.26-1.24,0.39-2.19,0.39h-0.9v8.82c0,0.75,0.03,1.33,0.08,1.73c0.05,0.4,0.19,0.73,0.42,0.98
				c0.23,0.25,0.6,0.38,1.12,0.38c0.28,0,0.66-0.05,1.14-0.15s0.86-0.15,1.12-0.15c0.39,0,0.74,0.16,1.05,0.47
				c0.31,0.31,0.47,0.69,0.47,1.15c0,0.77-0.42,1.37-1.27,1.78c-0.84,0.41-2.06,0.62-3.64,0.62c-1.5,0-2.64-0.25-3.41-0.76
				c-0.77-0.5-1.28-1.2-1.52-2.09c-0.24-0.89-0.36-2.08-0.36-3.57v-9.21h-0.63c-0.69,0-1.22-0.16-1.58-0.49
				c-0.36-0.33-0.55-0.74-0.55-1.25c0-0.5,0.19-0.92,0.57-1.24C854.33-125.62,854.88-125.78,855.61-125.78z"/>
		</g>
	</g>
	<g>
		<g>
			<g>
				<path class="st1" d="M757.77-123.15c-3.82-3.82-10.01-3.82-13.82,0c-3.82,3.82-3.82,10.01,0,13.82c3.82,3.82,10.01,3.82,13.82,0
					C761.58-113.14,761.58-119.33,757.77-123.15z"/>
			</g>
			<g>
				<path class="st0" d="M744.88-111.15l11.07-11.07c-1.42-1.21-3.2-1.87-5.09-1.87c-2.1,0-4.07,0.82-5.55,2.3
					C742.39-118.88,742.25-114.23,744.88-111.15z"/>
			</g>
			<g>
				<path class="st0" d="M756.79-120.62c0.93,1.26,1.44,2.8,1.44,4.38c0,1.97-0.77,3.82-2.16,5.22c-1.39,1.39-3.25,2.16-5.22,2.16
					c-1.58,0-3.12-0.51-4.38-1.44L756.79-120.62L756.79-120.62z M756.83-121.33l-11.07,11.07c1.42,1.21,3.21,1.87,5.09,1.87
					c2.1,0,4.07-0.82,5.55-2.3c1.48-1.48,2.3-3.45,2.3-5.55C758.7-118.12,758.04-119.91,756.83-121.33L756.83-121.33z"/>
			</g>
		</g>
	</g>
	<g>
		<path class="st1" d="M884.44-85.04c0,3.07-2.49,5.55-5.55,5.55h-29.15c-3.07,0-5.55-2.49-5.55-5.55v-15.37
			c0-3.07,2.49-5.55,5.55-5.55h29.15c3.07,0,5.55,2.49,5.55,5.55V-85.04z"/>
		<path class="st1" d="M864.31-90.34c-6.61,0-11.99-4.9-11.99-10.92c0-6.02,5.38-10.92,11.99-10.92c6.61,0,11.99,4.9,11.99,10.92
			C876.3-95.24,870.92-90.34,864.31-90.34z M864.31-110.79c-5.84,0-10.6,4.28-10.6,9.53c0,5.26,4.75,9.53,10.6,9.53
			c5.84,0,10.6-4.28,10.6-9.53C874.91-106.52,870.16-110.79,864.31-110.79z"/>
		<path class="st1" d="M868.41-111.17c0,0.72-0.46,1.3-1.02,1.3h-6.29c-0.56,0-1.02-0.58-1.02-1.3l0,0c0-0.72,0.46-1.3,1.02-1.3
			h6.29C867.96-112.47,868.41-111.89,868.41-111.17L868.41-111.17z"/>
		<path class="st0" d="M864.31-82.35c-5.72,0-10.38-4.66-10.38-10.38c0-5.72,4.66-10.38,10.38-10.38c5.72,0,10.38,4.66,10.38,10.38
			C874.69-87.01,870.03-82.35,864.31-82.35z M864.31-101.03c-4.57,0-8.3,3.72-8.3,8.3c0,4.57,3.72,8.3,8.3,8.3
			c4.57,0,8.3-3.72,8.3-8.3C872.61-97.31,868.89-101.03,864.31-101.03z"/>
		<g>
			<rect x="858.55" y="-93.75" class="st0" width="11.53" height="2.04"/>
			<rect x="863.29" y="-98.49" class="st0" width="2.04" height="11.53"/>
		</g>
		<g>
			<path class="st1" d="M855.91-105.36c0-0.99-0.8-1.79-1.79-1.79c-0.99,0-1.79,0.8-1.79,1.79s0.8,1.79,1.79,1.79
				C855.11-103.58,855.91-104.38,855.91-105.36z"/>
			<path class="st1" d="M876.28-105.36c0-0.99-0.8-1.79-1.79-1.79s-1.79,0.8-1.79,1.79s0.8,1.79,1.79,1.79
				S876.28-104.38,876.28-105.36z"/>
		</g>
	</g>
</g>
</svg>
