<?xml version="1.0" encoding="utf-8"?>
<!-- Generator: Adobe Illustrator 25.4.0, SVG Export Plug-In . SVG Version: 6.00 Build 0)  -->
<svg version="1.1" id="Layer_1" xmlns="http://www.w3.org/2000/svg" xmlns:xlink="http://www.w3.org/1999/xlink" x="0px" y="0px"
	 viewBox="0 0 710.31 733.27" style="enable-background:new 0 0 710.31 733.27;" xml:space="preserve">
<style type="text/css">
	.st0{fill:#FFFFFF;}
	.st1{fill:#FFB000;}
	.st2{fill:#374954;}
	.st3{opacity:0.2;fill:#374954;}
	.st4{fill:#939393;}
	.st5{fill:#D6D6D6;}
	.st6{fill:#C4C4C4;}
	.st7{opacity:0.2;}
	.st8{fill:#E22020;}
	.st9{fill:#41A6D8;}
	.st10{fill:#37D3B9;}
	.st11{fill:#0AA597;}
	.st12{fill:#EAEAEA;}
	.st13{fill:#D2F1FF;}
	.st14{fill:#B8EDFF;}
	.st15{fill:#0D8274;}
	.st16{fill:#DDDDDD;}
	.st17{fill:#CCCCCC;}
	.st18{fill:#FFDC97;}
	.st19{fill:#FF5E33;}
	.st20{fill:#FF2F06;}
	.st21{fill:#FFBD1A;}
	.st22{fill:#FFD04D;}
	.st23{opacity:0.5;}
	.st24{fill:#4EDDC1;}
	.st25{fill:#C91212;}
	.st26{fill:#686868;}
	.st27{fill:#5B5B5B;}
</style>
<rect x="1723.46" y="-675.1" class="st0" width="3000" height="3000"/>
<g>
	<circle class="st1" cx="2670.68" cy="-120.6" r="357.63"/>
	<g>
		<g>
			<polygon class="st2" points="2538.62,142.71 2499,142.71 2581.54,-104.91 2621.16,-104.91 			"/>
			<polygon class="st2" points="2802.75,142.71 2842.37,142.71 2759.83,-104.91 2720.21,-104.91 			"/>
		</g>
		<path class="st2" d="M2770.66,5.69h-199.95c-52.37,0-94.82-42.45-94.82-94.82v-199.95c0-52.37,42.45-94.82,94.82-94.82h199.95
			c52.37,0,94.82,42.45,94.82,94.82v199.95C2865.48-36.76,2823.03,5.69,2770.66,5.69z"/>
		<path class="st0" d="M2822.97-181.86v-101.69c0-35.88-29.08-64.96-64.96-64.96h-174.65c-35.88,0-64.96,29.08-64.96,64.96v101.69
			H2822.97z"/>
		<g>
			<circle class="st0" cx="2563.38" cy="-95.01" r="29.71"/>
			<circle class="st0" cx="2777.99" cy="-95.01" r="29.71"/>
		</g>
		<g>
			<rect x="2616.21" y="-38.88" class="st0" width="108.95" height="8.25"/>
			<rect x="2616.21" y="-53.74" class="st0" width="108.95" height="8.25"/>
		</g>
		<rect x="2539.45" y="51.91" class="st2" width="262.48" height="33.02"/>
		<path class="st3" d="M2758.01-348.51h-29.03c-18.09,49.28-51.71,115.39-111.81,166.65h205.8v-101.69
			C2822.97-319.43,2793.89-348.51,2758.01-348.51z"/>
	</g>
</g>
<g>
	<rect x="2021.87" y="694.16" class="st4" width="58.38" height="578.87"/>
	<g>
		<rect x="1864.73" y="-478.23" class="st5" width="372.66" height="1386.31"/>
		<polygon class="st6" points="1864.73,-478.23 2237.39,-478.23 2202.9,-443.04 1899.22,-443.04 		"/>
		<polygon class="st6" points="2237.39,908.08 1864.73,908.08 1899.22,872.89 2202.9,872.89 		"/>
	</g>
	<g>
		<rect x="1899.22" y="-139.36" class="st2" width="303.67" height="1012.25"/>
		<rect x="1899.22" y="-443.04" class="st1" width="303.67" height="303.67"/>
		<g class="st7">
			<path class="st2" d="M2197.93-438.07v298.71V867.92h-293.74V-139.36v-298.71H2197.93 M2202.9-443.04h-303.68v303.67V872.89
				h303.68V-139.36V-443.04L2202.9-443.04z"/>
		</g>
	</g>
	<g>
		<g>
			<polygon class="st2" points="1991.45,-172.35 1973.56,-172.35 2010.82,-284.12 2028.7,-284.12 			"/>
			<polygon class="st2" points="2110.67,-172.35 2128.55,-172.35 2091.3,-284.12 2073.41,-284.12 			"/>
		</g>
		<path class="st2" d="M2096.18-234.19h-90.25c-23.64,0-42.8-19.16-42.8-42.8v-90.25c0-23.64,19.16-42.8,42.8-42.8h90.25
			c23.64,0,42.8,19.16,42.8,42.8V-277C2138.99-253.36,2119.82-234.19,2096.18-234.19z"/>
		<path class="st0" d="M2119.8-317.79v-45.9c0-16.19-13.13-29.32-29.32-29.32h-78.83c-16.19,0-29.32,13.13-29.32,29.32v45.9H2119.8z
			"/>
		<g>
			
				<ellipse transform="matrix(0.9349 -0.3549 0.3549 0.9349 229.5748 692.4634)" class="st0" cx="2002.62" cy="-279.65" rx="13.41" ry="13.41"/>
			
				<ellipse transform="matrix(0.2284 -0.9736 0.9736 0.2284 1892.1393 1828.2122)" class="st0" cx="2099.49" cy="-279.65" rx="13.41" ry="13.41"/>
		</g>
		<g>
			<rect x="2026.47" y="-254.31" class="st0" width="49.18" height="3.73"/>
			<rect x="2026.47" y="-261.02" class="st0" width="49.18" height="3.73"/>
		</g>
		<rect x="1991.82" y="-213.33" class="st2" width="118.48" height="14.9"/>
		<path class="st3" d="M2090.48-393.02h-13.1c-8.17,22.24-23.34,52.09-50.47,75.23h92.9v-45.9
			C2119.8-379.89,2106.67-393.02,2090.48-393.02z"/>
	</g>
	<g>
		<g>
			<path class="st0" d="M2042.55-12.61l43.13,56l-23.3,17.39l-29.91-40.7c-12,26.43-30.96,41.22-53.56,41.39V31.91
				c21.74-2.43,36.7-33.91,37.74-81.56h-33.56v-26.96h94.95v26.96h-31.83C2045.85-36.26,2044.64-23.91,2042.55-12.61z
				 M2119.94-80.09V68.43h-29.39V-80.09H2119.94z"/>
			<path class="st0" d="M2042.72,136.58h33.04v26.78h-96.35v-26.78h33.22v-18.43h30.09V136.58z M2070.72,215.71
				c0,26.43-16.35,46.26-43.13,46.26c-26.78,0-43.13-19.83-43.13-46.26c0-26.26,16.35-46.26,43.13-46.26
				C2054.37,169.45,2070.72,189.45,2070.72,215.71z M2042.72,215.71c0-12.7-5.57-21.04-15.13-21.04c-9.56,0-15.13,8.35-15.13,21.04
				s5.57,21.04,15.13,21.04C2037.16,236.75,2042.72,228.41,2042.72,215.71z M2133.16,201.45h-17.39v65.74h-29.39V118.67h29.39v54.26
				h17.39V201.45z"/>
			<path class="st0" d="M2027.24,374.99c-11.48,10.96-28.35,18.78-48.35,19.3v-22.96c17.91-1.22,29.91-10.78,33.74-21.91h-32v-22.26
				h32.87v-12.35h29.74v12.35h32.69v14.26h15.3v-24h29.39v75.65h-29.39V365.6h-19.48v-16.17h-29.22c-0.35,2.09-1.04,4.35-1.91,6.43
				l38.43,16.87l-11.3,20.87L2027.24,374.99z M2122.2,445.94v20h-134.26v-42.61h103.82v-5.22h-104.17v-19.83h133.04v42.26h-103.82
				v5.39H2122.2z"/>
		</g>
		<g>
			<path class="st0" d="M1983.05,782.01v5.37h23.7v14.53h-47.55v4.1h48.67v5.37h-55.9v-14.61h47.55v-4.02h-47.7v-5.37h23.77v-5.37
				h-28.02v-5.67h63.57v5.67H1983.05z M1977.68,764.95c-6.48,4.92-17.51,7.38-27.58,7.6v-5.59c10.21-0.3,22.51-3.2,25.34-9.69
				h-24.15v-5.51h24.3v-5.81h7.53v5.81h24.22v5.51h-24.15c-0.3,1.12-0.74,2.16-1.34,3.13l26.76,6.78l-1.64,5.44L1977.68,764.95z"/>
			<path class="st0" d="M2040.14,780.74c-12.22,0-19.97-6.41-19.97-15.8c0-9.32,7.75-15.8,19.97-15.8c12.15,0,19.9,6.48,19.9,15.8
				C2060.04,774.34,2052.29,780.74,2040.14,780.74z M2071.44,784.62h7.23v26.68h-53.21v-26.68h7.3v6.71h38.68V784.62z
				 M2040.14,774.71c7.45,0,12.52-3.65,12.52-9.76c0-6.11-5.07-9.76-12.52-9.76c-7.45,0-12.6,3.65-12.6,9.76
				C2027.54,771.06,2032.69,774.71,2040.14,774.71z M2071.44,805.27v-8.05h-38.68v8.05H2071.44z M2078.67,748.47v32.64h-7.38v-32.64
				H2078.67z"/>
			<path class="st0" d="M2154.55,791.33h-28.4v22.28h-7.6v-22.28h-27.58v-7.01h63.57V791.33z M2142.32,756.9h-47.18v-6.93H2150
				v29.07h-7.68V756.9z"/>
		</g>
		<g>
			<circle class="st1" cx="2051.06" cy="607.3" r="95.65"/>
			<g>
				<path class="st2" d="M2067.52,657.93h-22.49v-81.62h-17.89v-19.63h40.37V657.93z"/>
			</g>
		</g>
	</g>
</g>
<path class="st8" d="M1989.9,1718.8c-69.13,0-125.17,56.04-125.17,125.17c0,69.13,125.17,284.06,125.17,284.06
	s125.17-214.93,125.17-284.06C2115.08,1774.85,2059.03,1718.8,1989.9,1718.8z M1989.9,1932.85c-49.08,0-88.87-39.79-88.87-88.87
	c0-49.08,39.79-88.87,88.87-88.87c49.08,0,88.87,39.79,88.87,88.87C2078.77,1893.06,2038.98,1932.85,1989.9,1932.85z"/>
<path class="st9" d="M2304.7,1718.8c-69.13,0-125.17,56.04-125.17,125.17c0,69.13,125.17,284.06,125.17,284.06
	s125.17-214.93,125.17-284.06C2429.87,1774.85,2373.83,1718.8,2304.7,1718.8z M2304.7,1932.85c-49.08,0-88.87-39.79-88.87-88.87
	c0-49.08,39.79-88.87,88.87-88.87c49.08,0,88.87,39.79,88.87,88.87C2393.57,1893.06,2353.78,1932.85,2304.7,1932.85z"/>
<path class="st1" d="M2619.5,1718.8c-69.13,0-125.17,56.04-125.17,125.17c0,69.13,125.17,284.06,125.17,284.06
	s125.17-214.93,125.17-284.06C2744.67,1774.85,2688.63,1718.8,2619.5,1718.8z M2619.5,1932.85c-49.08,0-88.87-39.79-88.87-88.87
	c0-49.08,39.79-88.87,88.87-88.87c49.08,0,88.87,39.79,88.87,88.87C2708.37,1893.06,2668.58,1932.85,2619.5,1932.85z"/>
<path class="st10" d="M2934.3,1718.8c-69.13,0-125.17,56.04-125.17,125.17c0,69.13,125.17,284.06,125.17,284.06
	s125.17-214.93,125.17-284.06C3059.47,1774.85,3003.43,1718.8,2934.3,1718.8z M2934.3,1932.85c-49.08,0-88.87-39.79-88.87-88.87
	c0-49.08,39.79-88.87,88.87-88.87c49.08,0,88.87,39.79,88.87,88.87C3023.17,1893.06,2983.38,1932.85,2934.3,1932.85z"/>
<g>
	<rect x="3200.14" y="-380.88" class="st11" width="580.51" height="509.3"/>
	<path class="st12" d="M3780.65-380.88h-580.51v0c0-53.77,43.59-97.35,97.35-97.35h385.81
		C3737.07-478.23,3780.65-434.64,3780.65-380.88L3780.65-380.88z"/>
	<path class="st12" d="M3490.51-20.31c-102.96,0-201.06-8.82-290.37-24.76v173.5h580.51V-45.03
		C3691.41-29.11,3593.38-20.31,3490.51-20.31z"/>
	<g>
		<g>
			<path class="st13" d="M3733.31-90.62h-485.83c-8.54,0-15.46-6.92-15.46-15.45v-216.08c0-8.54,6.92-15.45,15.46-15.45h485.83
				c8.54,0,15.45,6.92,15.45,15.45v216.08C3748.76-97.54,3741.84-90.62,3733.31-90.62z"/>
			<path class="st14" d="M3748.76-106.08v-216.08c0-8.54-6.92-15.45-15.45-15.45h-123.9c-26.83,73.05-76.66,171.02-165.73,246.99
				h289.63C3741.84-90.62,3748.76-97.54,3748.76-106.08z"/>
			<path class="st2" d="M3733.31-337.61h-485.83c-8.54,0-15.46,6.92-15.46,15.45v2.57h516.74v-2.57
				C3748.76-330.69,3741.85-337.61,3733.31-337.61z"/>
		</g>
		<path class="st2" d="M3576.36-90.62c-6.44-10.17-10.19-22.22-10.19-35.16c0-36.34,29.46-65.8,65.8-65.8s65.8,29.46,65.8,65.8
			c0,12.93-3.75,24.98-10.19,35.16h18.52c5.06-10.66,7.9-22.57,7.9-35.16c0-45.3-36.73-82.03-82.03-82.03
			c-45.3,0-82.03,36.73-82.03,82.03c0,12.58,2.84,24.5,7.9,35.16H3576.36z"/>
	</g>
	<g>
		<g>
			<path class="st0" d="M3436.97-75.3h16.54c8.46,0,13.22,4.39,13.22,11.35c0,2.71-1.82,5.79-4.44,6.77
				c3.64,1.17,6.21,4.72,6.21,8.41c0,7.06-5.05,11.54-13.6,11.54h-17.94V-75.3z M3453.14-59.88c3.22,0,5.09-1.4,5.09-4.06
				c0-2.66-1.87-4.11-5.09-4.11h-7.66v8.18H3453.14z M3454.54-44.46c3.36,0,5.47-1.5,5.47-4.3c0-2.8-2.1-4.3-5.47-4.3h-9.06v8.6
				H3454.54z"/>
			<path class="st0" d="M3472.48-75.3h8.5v21.21c0,6.07,3.36,10.14,8.92,10.14s8.92-4.07,8.92-10.14V-75.3h8.5v21.21
				c0,10.79-6.96,17.8-17.43,17.8c-10.47,0-17.43-7.01-17.43-17.8V-75.3z"/>
			<path class="st0" d="M3543.68-63.8h-8.78c-0.51-3.32-2.99-5.33-7.06-5.33c-3.97,0-6.17,1.59-6.17,3.88
				c0,2.85,2.94,3.83,10.37,5.37c8.78,1.82,11.77,6.17,11.77,11.87c0,7.29-6.87,11.73-15.37,11.73c-9.39,0-16.26-5.09-16.63-13.22
				h8.74c0.47,3.64,3.64,6.07,8.5,6.07c3.46,0,6.03-1.73,6.03-4.21c0-3.04-2.57-4.25-9.35-5.51c-8.27-1.54-12.76-4.95-12.76-12.1
				c0-6.87,6.82-10.98,15.42-10.98C3536.91-76.23,3543.26-71.04,3543.68-63.8z"/>
		</g>
		<g>
			<g>
				<path class="st15" d="M3410.63-59.2h-119.91c-2.23,0-4.05-1.81-4.05-4.05l0,0c0-2.23,1.81-4.05,4.05-4.05h119.91
					c2.23,0,4.05,1.81,4.05,4.05l0,0C3414.68-61.01,3412.87-59.2,3410.63-59.2z"/>
				<path class="st15" d="M3410.63-45.22h-119.91c-2.23,0-4.05-1.81-4.05-4.05l0,0c0-2.23,1.81-4.05,4.05-4.05h119.91
					c2.23,0,4.05,1.81,4.05,4.05l0,0C3414.68-47.03,3412.87-45.22,3410.63-45.22z"/>
			</g>
			<g>
				<path class="st15" d="M3690.07-59.2h-119.91c-2.23,0-4.05-1.81-4.05-4.05l0,0c0-2.23,1.81-4.05,4.05-4.05h119.91
					c2.23,0,4.05,1.81,4.05,4.05l0,0C3694.12-61.01,3692.3-59.2,3690.07-59.2z"/>
				<path class="st15" d="M3690.07-45.22h-119.91c-2.23,0-4.05-1.81-4.05-4.05l0,0c0-2.23,1.81-4.05,4.05-4.05h119.91
					c2.23,0,4.05,1.81,4.05,4.05l0,0C3694.12-47.03,3692.3-45.22,3690.07-45.22z"/>
			</g>
		</g>
	</g>
	<g>
		<path class="st16" d="M3780.65-45.03c-33.74,6.02-68.73,11.02-104.77,14.91l0,0l-36.75,99.95v18.93l11.93,39.66h129.59V-45.03z"/>
		<path class="st16" d="M3200.14-45.03c33.74,6.02,68.73,11.02,104.77,14.91l0,0l36.75,99.95v18.93l-11.93,39.66h-129.59V-45.03z"/>
	</g>
	<rect x="3200.14" y="109.49" class="st17" width="580.51" height="18.93"/>
	<path class="st12" d="M3220.42,173.91h539.96c11.2,0,20.27-9.08,20.27-20.27v-25.21h-580.51v25.21
		C3200.14,164.83,3209.22,173.91,3220.42,173.91z"/>
	<rect x="3341.66" y="69.83" class="st17" width="297.47" height="18.93"/>
	<path class="st1" d="M3542.86,117.61h-104.93c-3.77,0-6.82-3.05-6.82-6.82V55.92c0-3.77,3.05-6.82,6.82-6.82h104.93
		c3.77,0,6.82,3.05,6.82,6.82v54.87C3549.68,114.55,3546.63,117.61,3542.86,117.61z"/>
	<g>
		<g>
			<path class="st0" d="M3341.66,69.83v18.93h-56.6c-34.1,0-61.74-27.64-61.74-61.73l0,0L3341.66,69.83z"/>
			<path class="st18" d="M3279.11,47.2c-4.89,9.16-9.39,21.93-10.95,39.19c5.37,1.53,11.04,2.36,16.9,2.36h56.6V69.83L3279.11,47.2z
				"/>
		</g>
		<g>
			<path class="st0" d="M3639.13,69.83v18.93h56.6c34.1,0,61.73-27.64,61.73-61.73l0,0L3639.13,69.83z"/>
			<path class="st18" d="M3701.68,47.2c4.89,9.16,9.39,21.93,10.95,39.19c-5.37,1.53-11.04,2.36-16.9,2.36h-56.6V69.83L3701.68,47.2
				z"/>
		</g>
	</g>
	<path class="st16" d="M3277.68-476.3c37.7,31.9,118.82,53.97,212.83,53.97c93.82,0,174.81-21.98,212.61-53.78
		c-6.54-1.38-13.31-2.12-20.26-2.12h-385.81C3290.42-478.23,3283.94-477.56,3277.68-476.3z"/>
	<g>
		<path class="st2" d="M3292.99,255.04L3292.99,255.04c-19.17,0-34.7-15.54-34.7-34.7v-46.42h69.41v46.42
			C3327.69,239.5,3312.15,255.04,3292.99,255.04z"/>
		<path class="st2" d="M3687.81,254.62L3687.81,254.62c-19.17,0-34.7-15.54-34.7-34.7v-46.42h69.41v46.42
			C3722.51,239.08,3706.97,254.62,3687.81,254.62z"/>
	</g>
	<g>
		<g>
			<path class="st2" d="M3182.95-210.96h-39.53c-4.52,0-8.18-3.66-8.18-8.18v-64.77c0-4.52,3.66-8.18,8.18-8.18h39.53
				c4.52,0,8.18,3.66,8.18,8.18v64.77C3191.13-214.62,3187.47-210.96,3182.95-210.96z"/>
			<g>
				<rect x="3171.3" y="-274.06" class="st2" width="28.85" height="6.31"/>
				<rect x="3171.3" y="-235.3" class="st2" width="28.85" height="6.31"/>
			</g>
		</g>
		<g>
			<path class="st2" d="M3797.85-210.96h39.53c4.52,0,8.18-3.66,8.18-8.18v-64.77c0-4.52-3.66-8.18-8.18-8.18h-39.53
				c-4.52,0-8.18,3.66-8.18,8.18v64.77C3789.67-214.62,3793.33-210.96,3797.85-210.96z"/>
			<g>
				
					<rect x="3780.65" y="-274.06" transform="matrix(-1 -1.224647e-16 1.224647e-16 -1 7590.1494 -541.809)" class="st2" width="28.85" height="6.31"/>
				
					<rect x="3780.65" y="-235.3" transform="matrix(-1 -1.224647e-16 1.224647e-16 -1 7590.1494 -464.2871)" class="st2" width="28.85" height="6.31"/>
			</g>
		</g>
	</g>
</g>
<g>
	<rect x="3936.77" y="-380.88" class="st19" width="580.51" height="509.3"/>
	<path class="st12" d="M4517.28-380.88h-580.51v0c0-53.77,43.59-97.35,97.35-97.35h385.81
		C4473.7-478.23,4517.28-434.64,4517.28-380.88L4517.28-380.88z"/>
	<path class="st12" d="M4227.14-20.31c-102.96,0-201.06-8.82-290.37-24.76v173.5h580.51V-45.03
		C4428.04-29.11,4330.01-20.31,4227.14-20.31z"/>
	<g>
		<g>
			<path class="st13" d="M4469.94-90.62h-485.83c-8.54,0-15.46-6.92-15.46-15.45v-216.08c0-8.54,6.92-15.45,15.46-15.45h485.83
				c8.54,0,15.46,6.92,15.46,15.45v216.08C4485.4-97.54,4478.48-90.62,4469.94-90.62z"/>
			<path class="st14" d="M4485.4-106.08v-216.08c0-8.54-6.92-15.45-15.46-15.45h-123.9c-26.83,73.05-76.66,171.02-165.73,246.99
				h289.63C4478.48-90.62,4485.4-97.54,4485.4-106.08z"/>
			<path class="st2" d="M4469.94-337.61h-485.83c-8.54,0-15.46,6.92-15.46,15.45v2.57h516.74v-2.57
				C4485.4-330.69,4478.48-337.61,4469.94-337.61z"/>
		</g>
		<path class="st2" d="M4312.99-90.62c-6.44-10.17-10.19-22.22-10.19-35.16c0-36.34,29.46-65.8,65.8-65.8s65.8,29.46,65.8,65.8
			c0,12.93-3.75,24.98-10.19,35.16h18.52c5.06-10.66,7.9-22.57,7.9-35.16c0-45.3-36.73-82.03-82.03-82.03s-82.03,36.73-82.03,82.03
			c0,12.58,2.84,24.5,7.9,35.16H4312.99z"/>
	</g>
	<g>
		<g>
			<path class="st0" d="M4173.6-75.3h16.54c8.46,0,13.22,4.39,13.22,11.35c0,2.71-1.82,5.79-4.44,6.77
				c3.64,1.17,6.21,4.72,6.21,8.41c0,7.06-5.05,11.54-13.6,11.54h-17.94V-75.3z M4189.77-59.88c3.22,0,5.09-1.4,5.09-4.06
				c0-2.66-1.87-4.11-5.09-4.11h-7.66v8.18H4189.77z M4191.17-44.46c3.36,0,5.47-1.5,5.47-4.3c0-2.8-2.1-4.3-5.47-4.3h-9.06v8.6
				H4191.17z"/>
			<path class="st0" d="M4209.11-75.3h8.5v21.21c0,6.07,3.36,10.14,8.92,10.14s8.92-4.07,8.92-10.14V-75.3h8.5v21.21
				c0,10.79-6.96,17.8-17.43,17.8c-10.47,0-17.43-7.01-17.43-17.8V-75.3z"/>
			<path class="st0" d="M4280.31-63.8h-8.78c-0.51-3.32-2.99-5.33-7.06-5.33c-3.97,0-6.17,1.59-6.17,3.88
				c0,2.85,2.94,3.83,10.37,5.37c8.78,1.82,11.77,6.17,11.77,11.87c0,7.29-6.87,11.73-15.37,11.73c-9.39,0-16.26-5.09-16.63-13.22
				h8.74c0.47,3.64,3.64,6.07,8.5,6.07c3.46,0,6.03-1.73,6.03-4.21c0-3.04-2.57-4.25-9.34-5.51c-8.27-1.54-12.76-4.95-12.76-12.1
				c0-6.87,6.82-10.98,15.42-10.98C4273.54-76.23,4279.89-71.04,4280.31-63.8z"/>
		</g>
		<g>
			<g>
				<path class="st20" d="M4147.26-59.2h-119.91c-2.23,0-4.05-1.81-4.05-4.05l0,0c0-2.23,1.81-4.05,4.05-4.05h119.91
					c2.23,0,4.05,1.81,4.05,4.05l0,0C4151.31-61.01,4149.5-59.2,4147.26-59.2z"/>
				<path class="st20" d="M4147.26-45.22h-119.91c-2.23,0-4.05-1.81-4.05-4.05l0,0c0-2.23,1.81-4.05,4.05-4.05h119.91
					c2.23,0,4.05,1.81,4.05,4.05l0,0C4151.31-47.03,4149.5-45.22,4147.26-45.22z"/>
			</g>
			<g>
				<path class="st20" d="M4426.7-59.2h-119.91c-2.23,0-4.05-1.81-4.05-4.05l0,0c0-2.23,1.81-4.05,4.05-4.05h119.91
					c2.23,0,4.05,1.81,4.05,4.05l0,0C4430.75-61.01,4428.94-59.2,4426.7-59.2z"/>
				<path class="st20" d="M4426.7-45.22h-119.91c-2.23,0-4.05-1.81-4.05-4.05l0,0c0-2.23,1.81-4.05,4.05-4.05h119.91
					c2.23,0,4.05,1.81,4.05,4.05l0,0C4430.75-47.03,4428.94-45.22,4426.7-45.22z"/>
			</g>
		</g>
	</g>
	<g>
		<path class="st16" d="M4517.28-45.03c-33.74,6.02-68.73,11.02-104.77,14.91l0,0l-36.75,99.95v18.93l11.93,39.66h129.59V-45.03z"/>
		<path class="st16" d="M3936.77-45.03c33.74,6.02,68.73,11.02,104.77,14.91l0,0l36.75,99.95v18.93l-11.93,39.66h-129.59V-45.03z"/>
	</g>
	<rect x="3936.77" y="109.49" class="st17" width="580.51" height="18.93"/>
	<path class="st12" d="M3957.05,173.91h539.96c11.2,0,20.27-9.08,20.27-20.27v-25.21h-580.51v25.21
		C3936.77,164.83,3945.85,173.91,3957.05,173.91z"/>
	<rect x="4078.29" y="69.83" class="st17" width="297.47" height="18.93"/>
	<path class="st1" d="M4279.49,117.61h-104.93c-3.77,0-6.82-3.05-6.82-6.82V55.92c0-3.77,3.05-6.82,6.82-6.82h104.93
		c3.77,0,6.82,3.05,6.82,6.82v54.87C4286.31,114.55,4283.26,117.61,4279.49,117.61z"/>
	<g>
		<g>
			<path class="st0" d="M4078.29,69.83v18.93h-56.6c-34.1,0-61.74-27.64-61.74-61.73l0,0L4078.29,69.83z"/>
			<path class="st18" d="M4015.74,47.2c-4.89,9.16-9.39,21.93-10.95,39.19c5.37,1.53,11.04,2.36,16.9,2.36h56.6V69.83L4015.74,47.2z
				"/>
		</g>
		<g>
			<path class="st0" d="M4375.76,69.83v18.93h56.6c34.1,0,61.73-27.64,61.73-61.73l0,0L4375.76,69.83z"/>
			<path class="st18" d="M4438.31,47.2c4.89,9.16,9.39,21.93,10.95,39.19c-5.37,1.53-11.04,2.36-16.9,2.36h-56.6V69.83L4438.31,47.2
				z"/>
		</g>
	</g>
	<path class="st16" d="M4014.31-476.3c37.7,31.9,118.82,53.97,212.83,53.97c93.82,0,174.81-21.98,212.61-53.78
		c-6.54-1.38-13.31-2.12-20.26-2.12h-385.81C4027.05-478.23,4020.57-477.56,4014.31-476.3z"/>
	<g>
		<path class="st2" d="M4029.62,255.04L4029.62,255.04c-19.17,0-34.7-15.54-34.7-34.7v-46.42h69.41v46.42
			C4064.32,239.5,4048.78,255.04,4029.62,255.04z"/>
		<path class="st2" d="M4424.44,254.62L4424.44,254.62c-19.17,0-34.7-15.54-34.7-34.7v-46.42h69.41v46.42
			C4459.14,239.08,4443.6,254.62,4424.44,254.62z"/>
	</g>
	<g>
		<g>
			<path class="st2" d="M3919.58-210.96h-39.53c-4.52,0-8.18-3.66-8.18-8.18v-64.77c0-4.52,3.66-8.18,8.18-8.18h39.53
				c4.52,0,8.18,3.66,8.18,8.18v64.77C3927.76-214.62,3924.1-210.96,3919.58-210.96z"/>
			<g>
				<rect x="3907.93" y="-274.06" class="st2" width="28.85" height="6.31"/>
				<rect x="3907.93" y="-235.3" class="st2" width="28.85" height="6.31"/>
			</g>
		</g>
		<g>
			<path class="st2" d="M4534.48-210.96H4574c4.52,0,8.18-3.66,8.18-8.18v-64.77c0-4.52-3.66-8.18-8.18-8.18h-39.53
				c-4.52,0-8.18,3.66-8.18,8.18v64.77C4526.3-214.62,4529.96-210.96,4534.48-210.96z"/>
			<g>
				
					<rect x="4517.28" y="-274.06" transform="matrix(-1 -1.224647e-16 1.224647e-16 -1 9063.4102 -541.809)" class="st2" width="28.85" height="6.31"/>
				
					<rect x="4517.28" y="-235.3" transform="matrix(-1 -1.224647e-16 1.224647e-16 -1 9063.4102 -464.2871)" class="st2" width="28.85" height="6.31"/>
			</g>
		</g>
	</g>
</g>
<g>
	<path class="st21" d="M4478.2,939.9h-502.35V773.93c0-57.69,46.77-104.46,104.46-104.46h293.43c57.69,0,104.46,46.77,104.46,104.46
		V939.9z"/>
	<path class="st22" d="M4548.61,1132.71h-643.17v-125.44c0-48.26,39.12-87.37,87.37-87.37h468.42c48.26,0,87.37,39.12,87.37,87.37
		V1132.71z"/>
	<g>
		<path class="st2" d="M4004.58,1260.04L4004.58,1260.04c-21.6,0-39.11-17.51-39.11-39.11v-52.31h78.21v52.31
			C4043.69,1242.53,4026.18,1260.04,4004.58,1260.04z"/>
		<path class="st2" d="M4449.47,1259.57L4449.47,1259.57c-21.6,0-39.11-17.51-39.11-39.11v-52.31h78.21v52.31
			C4488.58,1242.06,4471.07,1259.57,4449.47,1259.57z"/>
	</g>
	<g>
		<g>
			<path class="st2" d="M3961.21,869.81h-34.32c-3.92,0-7.1-3.18-7.1-7.1v-56.23c0-3.92,3.18-7.1,7.1-7.1h34.32
				c3.92,0,7.1,3.18,7.1,7.1v56.23C3968.31,866.63,3965.13,869.81,3961.21,869.81z"/>
			<g>
				<rect x="3951.09" y="815.03" class="st2" width="25.04" height="5.48"/>
				<rect x="3951.09" y="848.68" class="st2" width="25.04" height="5.48"/>
			</g>
		</g>
		<g>
			<path class="st2" d="M4492.85,869.81h34.31c3.92,0,7.1-3.18,7.1-7.1v-56.23c0-3.92-3.18-7.1-7.1-7.1h-34.31
				c-3.92,0-7.1,3.18-7.1,7.1v56.23C4485.75,866.63,4488.93,869.81,4492.85,869.81z"/>
			<g>
				
					<rect x="4477.92" y="815.03" transform="matrix(-1 -1.224647e-16 1.224647e-16 -1 8980.8838 1635.5437)" class="st2" width="25.04" height="5.48"/>
				
					<rect x="4477.92" y="848.68" transform="matrix(-1 -1.224647e-16 1.224647e-16 -1 8980.8838 1702.8396)" class="st2" width="25.04" height="5.48"/>
			</g>
		</g>
	</g>
	<g>
		<path class="st13" d="M4443.61,902.84h-433.16V771.29c0-38.74,31.4-70.14,70.14-70.14h292.88c38.74,0,70.14,31.4,70.14,70.14
			V902.84z"/>
		<path class="st14" d="M4200.53,902.84h243.08V771.29c0-38.74-31.4-70.14-70.14-70.14h-64.74
			C4294.05,756.66,4263.58,833.21,4200.53,902.84z"/>
		<path class="st2" d="M4305.48,902.84c-5.72-9.02-9.04-19.72-9.04-31.19c0-32.24,26.14-58.38,58.38-58.38s58.38,26.14,58.38,58.38
			c0,11.47-3.32,22.16-9.04,31.19h16.43c4.49-9.45,7.01-20.03,7.01-31.19c0-40.19-32.58-72.78-72.78-72.78s-72.78,32.58-72.78,72.78
			c0,11.16,2.52,21.74,7.01,31.19H4305.48z"/>
	</g>
	<g>
		<path class="st21" d="M4289.25,1017.37H4164.8c-2.42,0-4.38-1.96-4.38-4.38v-0.36c0-2.42,1.96-4.38,4.38-4.38h124.45
			c2.42,0,4.38,1.96,4.38,4.38v0.36C4293.63,1015.41,4291.67,1017.37,4289.25,1017.37z"/>
		<path class="st21" d="M4289.25,1033.12H4164.8c-2.42,0-4.38-1.96-4.38-4.38v-0.36c0-2.42,1.96-4.38,4.38-4.38h124.45
			c2.42,0,4.38,1.96,4.38,4.38v0.36C4293.63,1031.16,4291.67,1033.12,4289.25,1033.12z"/>
	</g>
	<path class="st16" d="M4538.96,1167.64H3915.1c-5.33,0-9.65-4.32-9.65-9.65v-25.28h643.17v25.28
		C4548.61,1163.32,4544.29,1167.64,4538.96,1167.64z"/>
	<path class="st1" d="M4286.15,1188.56h-118.24c-4.24,0-7.68-3.44-7.68-7.68v-61.83c0-4.24,3.44-7.68,7.68-7.68h118.24
		c4.24,0,7.68,3.44,7.68,7.68v61.83C4293.83,1185.12,4290.39,1188.56,4286.15,1188.56z"/>
	<g class="st23">
		<path class="st21" d="M3905.44,1010.81v121.89h159.86l6.94-60.03v-21.33l-82.82-131.45
			C3943.04,919.9,3905.44,960.6,3905.44,1010.81z"/>
		<path class="st21" d="M4548.61,1010.81v121.89h-159.86l-6.94-60.03v-21.33l82.82-131.45
			C4511.02,919.9,4548.61,960.6,4548.61,1010.81z"/>
	</g>
	<rect x="4072.24" y="1051.34" class="st21" width="309.58" height="21.33"/>
	<g>
		<g>
			<path class="st0" d="M4072.24,1051.34v21.33h-58.91c-35.48,0-64.25-31.14-64.25-69.56l0,0L4072.24,1051.34z"/>
			<path class="st18" d="M4007.14,1025.85c-5.09,10.32-9.77,24.71-11.4,44.16c5.59,1.72,11.49,2.66,17.59,2.66h58.91v-21.33
				L4007.14,1025.85z"/>
		</g>
		<g>
			<path class="st0" d="M4381.82,1051.34v21.33h58.91c35.48,0,64.25-31.14,64.25-69.56l0,0L4381.82,1051.34z"/>
			<path class="st18" d="M4446.91,1025.85c5.09,10.32,9.77,24.71,11.4,44.16c-5.59,1.72-11.49,2.66-17.59,2.66h-58.91v-21.33
				L4446.91,1025.85z"/>
		</g>
	</g>
	<g>
		<path class="st22" d="M4342.03,669.47h-230l11.79-69.13c1.74-10.19,10.57-17.64,20.9-17.64h164.61c10.33,0,19.16,7.45,20.9,17.64
			L4342.03,669.47z"/>
		<g>
			<path class="st2" d="M4194.66,611.5h-15.69v38.71h-10.77V611.5h-15.69v-9.53h42.15V611.5z"/>
			<path class="st2" d="M4223.03,640.86h-18.71l-3.37,9.35h-11.13l18.71-48.25h11.19l18.71,48.25h-12.02L4223.03,640.86z
				 M4219.71,631.51l-6.04-16.81l-6.04,16.81H4219.71z"/>
			<path class="st2" d="M4256.13,625.89l-15.45-23.92h12.79l9.71,15.75l10-15.75h12.25l-15.51,23.56l16.04,24.68h-12.61
				l-10.36-16.63l-10.6,16.63h-12.25L4256.13,625.89z"/>
			<path class="st2" d="M4301.54,601.97v48.25h-10.77v-48.25H4301.54z"/>
		</g>
	</g>
</g>
<g>
	<path class="st10" d="M3741.57,939.9h-502.35V773.93c0-57.69,46.77-104.46,104.46-104.46h293.43
		c57.69,0,104.46,46.77,104.46,104.46V939.9z"/>
	<path class="st24" d="M3811.98,1132.71h-643.17v-125.44c0-48.26,39.12-87.37,87.37-87.37h468.42c48.26,0,87.37,39.12,87.37,87.37
		V1132.71z"/>
	<g>
		<path class="st2" d="M3267.95,1260.04L3267.95,1260.04c-21.6,0-39.11-17.51-39.11-39.11v-52.31h78.21v52.31
			C3307.06,1242.53,3289.55,1260.04,3267.95,1260.04z"/>
		<path class="st2" d="M3712.84,1259.57L3712.84,1259.57c-21.6,0-39.11-17.51-39.11-39.11v-52.31h78.21v52.31
			C3751.95,1242.06,3734.44,1259.57,3712.84,1259.57z"/>
	</g>
	<g>
		<g>
			<path class="st2" d="M3224.58,869.81h-34.32c-3.92,0-7.1-3.18-7.1-7.1v-56.23c0-3.92,3.18-7.1,7.1-7.1h34.32
				c3.92,0,7.1,3.18,7.1,7.1v56.23C3231.68,866.63,3228.5,869.81,3224.58,869.81z"/>
			<g>
				<rect x="3214.46" y="815.03" class="st2" width="25.04" height="5.48"/>
				<rect x="3214.46" y="848.68" class="st2" width="25.04" height="5.48"/>
			</g>
		</g>
		<g>
			<path class="st2" d="M3756.22,869.81h34.32c3.92,0,7.1-3.18,7.1-7.1v-56.23c0-3.92-3.18-7.1-7.1-7.1h-34.32
				c-3.92,0-7.1,3.18-7.1,7.1v56.23C3749.12,866.63,3752.3,869.81,3756.22,869.81z"/>
			<g>
				
					<rect x="3741.29" y="815.03" transform="matrix(-1 -1.224647e-16 1.224647e-16 -1 7507.623 1635.5437)" class="st2" width="25.04" height="5.48"/>
				
					<rect x="3741.29" y="848.68" transform="matrix(-1 -1.224647e-16 1.224647e-16 -1 7507.623 1702.8396)" class="st2" width="25.04" height="5.48"/>
			</g>
		</g>
	</g>
	<g>
		<path class="st13" d="M3706.98,902.84h-433.16V771.29c0-38.74,31.4-70.14,70.14-70.14h292.88c38.74,0,70.14,31.4,70.14,70.14
			V902.84z"/>
		<path class="st14" d="M3463.9,902.84h243.08V771.29c0-38.74-31.4-70.14-70.14-70.14h-64.74
			C3557.42,756.66,3526.95,833.21,3463.9,902.84z"/>
		<path class="st2" d="M3568.85,902.84c-5.72-9.02-9.04-19.72-9.04-31.19c0-32.24,26.14-58.38,58.38-58.38
			c32.24,0,58.38,26.14,58.38,58.38c0,11.47-3.32,22.16-9.04,31.19h16.43c4.49-9.45,7.01-20.03,7.01-31.19
			c0-40.19-32.58-72.78-72.78-72.78s-72.78,32.58-72.78,72.78c0,11.16,2.52,21.74,7.01,31.19H3568.85z"/>
	</g>
	<g>
		<path class="st10" d="M3552.62,1017.37h-124.45c-2.42,0-4.38-1.96-4.38-4.38v-0.36c0-2.42,1.96-4.38,4.38-4.38h124.45
			c2.42,0,4.38,1.96,4.38,4.38v0.36C3557,1015.41,3555.04,1017.37,3552.62,1017.37z"/>
		<path class="st10" d="M3552.62,1033.12h-124.45c-2.42,0-4.38-1.96-4.38-4.38v-0.36c0-2.42,1.96-4.38,4.38-4.38h124.45
			c2.42,0,4.38,1.96,4.38,4.38v0.36C3557,1031.16,3555.04,1033.12,3552.62,1033.12z"/>
	</g>
	<path class="st16" d="M3802.33,1167.64h-623.86c-5.33,0-9.65-4.32-9.65-9.65v-25.28h643.17v25.28
		C3811.98,1163.32,3807.66,1167.64,3802.33,1167.64z"/>
	<path class="st17" d="M3549.52,1188.56h-118.24c-4.24,0-7.68-3.44-7.68-7.68v-61.83c0-4.24,3.44-7.68,7.68-7.68h118.24
		c4.24,0,7.68,3.44,7.68,7.68v61.83C3557.2,1185.12,3553.76,1188.56,3549.52,1188.56z"/>
	<g>
		<path class="st10" d="M3168.81,1010.81v121.89h159.86l6.94-60.03v-21.33l-82.82-131.45
			C3206.41,919.9,3168.81,960.6,3168.81,1010.81z"/>
		<path class="st10" d="M3811.98,1010.81v121.89h-159.86l-6.94-60.03v-21.33l82.82-131.45
			C3774.39,919.9,3811.98,960.6,3811.98,1010.81z"/>
	</g>
	<rect x="3335.61" y="1051.34" class="st10" width="309.58" height="21.33"/>
	<g>
		<g>
			<path class="st0" d="M3335.61,1051.34v21.33h-58.91c-35.48,0-64.25-31.14-64.25-69.56l0,0L3335.61,1051.34z"/>
			<path class="st18" d="M3270.51,1025.85c-5.09,10.32-9.77,24.71-11.4,44.16c5.59,1.72,11.49,2.66,17.59,2.66h58.91v-21.33
				L3270.51,1025.85z"/>
		</g>
		<g>
			<path class="st0" d="M3645.19,1051.34v21.33h58.91c35.48,0,64.25-31.14,64.25-69.56l0,0L3645.19,1051.34z"/>
			<path class="st18" d="M3710.28,1025.85c5.09,10.32,9.77,24.71,11.4,44.16c-5.59,1.72-11.49,2.66-17.59,2.66h-58.91v-21.33
				L3710.28,1025.85z"/>
		</g>
	</g>
	<g>
		<path class="st10" d="M3328.34,620.78c0-9.88,7.4-17.12,17.44-17.12c8.96,0,14.96,5.4,16.28,12.28h-7.36
			c-0.76-3.12-4.08-5.6-8.76-5.6c-5.92,0-10.32,4.36-10.32,10.44c0,6.04,4.4,10.44,10.32,10.44c4.68,0,8.52-3.08,9.08-6.04h7.36
			c-1,6.56-7.56,12.72-16.6,12.72C3335.74,637.9,3328.34,630.66,3328.34,620.78z"/>
		<path class="st10" d="M3384.94,630.78h-12.64l-2.28,6.32h-7.52l12.64-32.59h7.56l12.64,32.59h-8.12L3384.94,630.78z
			 M3382.7,624.46l-4.08-11.36l-4.08,11.36H3382.7z"/>
		<path class="st10" d="M3418.02,637.1l-6.32-10.28h-5.8v10.28h-7.28v-32.59h13.12c8.28,0,13.12,4.4,13.12,11.16
			c0,4.48-2.12,7.92-5.96,9.72l7.56,11.72H3418.02z M3405.9,620.38h5.52c3.84,0,6.16-1.64,6.16-4.72c0-3.08-2.32-4.72-6.16-4.72
			h-5.52V620.38z"/>
		<path class="st10" d="M3466.77,614.35h-7.52c-0.44-2.84-2.56-4.56-6.04-4.56c-3.4,0-5.28,1.36-5.28,3.32
			c0,2.44,2.52,3.28,8.88,4.6c7.52,1.56,10.08,5.28,10.08,10.16c0,6.24-5.88,10.04-13.16,10.04c-8.04,0-13.92-4.36-14.24-11.32h7.48
			c0.4,3.12,3.12,5.2,7.28,5.2c2.96,0,5.16-1.48,5.16-3.6c0-2.6-2.2-3.64-8-4.72c-7.08-1.32-10.92-4.24-10.92-10.36
			c0-5.88,5.84-9.4,13.2-9.4C3460.98,603.71,3466.42,608.15,3466.77,614.35z"/>
		<path class="st10" d="M3500.14,604.51v32.59h-7.28v-13.24h-14.4v13.24h-7.28v-32.59h7.28v12.92h14.4v-12.92H3500.14z"/>
		<path class="st10" d="M3525.86,630.78h-12.64l-2.28,6.32h-7.52l12.64-32.59h7.56l12.64,32.59h-8.12L3525.86,630.78z
			 M3523.62,624.46l-4.08-11.36l-4.08,11.36H3523.62z"/>
		<path class="st10" d="M3558.94,637.1l-6.32-10.28h-5.8v10.28h-7.28v-32.59h13.12c8.28,0,13.12,4.4,13.12,11.16
			c0,4.48-2.12,7.92-5.96,9.72l7.56,11.72H3558.94z M3546.82,620.38h5.52c3.84,0,6.16-1.64,6.16-4.72c0-3.08-2.32-4.72-6.16-4.72
			h-5.52V620.38z"/>
		<path class="st10" d="M3578.02,604.51v32.59h-7.28v-32.59H3578.02z"/>
		<path class="st10" d="M3583.78,604.51h6.08l16.28,19.6v-20h7.28v32.59h-6.08l-16.28-19.6v20h-7.28V604.51z"/>
		<path class="st10" d="M3651.73,614.59h-8c-1.36-2.4-4.44-4.24-8.4-4.24c-5.92,0-10.32,4.36-10.32,10.44
			c0,6.12,4.4,10.56,10.32,10.56c5.08,0,8.6-3.12,9.36-6.32h-9.96v-6.16h17.72v1.92c0,9.88-7.4,17.12-17.28,17.12
			c-10.04,0-17.44-7.24-17.44-17.12s7.4-17.12,17.44-17.12C3643.69,603.67,3649.85,608.47,3651.73,614.59z"/>
	</g>
	<g>
		<path class="st10" d="M3490.4,465.28c40.02,0,76.17,16.85,101.75,43.82l6.17-6.08c-27.15-28.57-65.49-46.4-107.92-46.4
			c-42.43,0-80.77,17.84-107.92,46.4l6.17,6.08C3414.22,482.13,3450.38,465.28,3490.4,465.28z"/>
		<path class="st10" d="M3490.4,506.84c28.45,0,54.12,12.1,72.15,31.43l6.17-6.08c-19.6-20.92-47.46-34.01-78.32-34.01
			c-30.86,0-58.71,13.09-78.32,34.01l6.17,6.08C3436.28,518.94,3461.95,506.84,3490.4,506.84z"/>
		<path class="st10" d="M3490.4,548.4c16.88,0,32.07,7.36,42.54,19.04l6.18-6.08c-12.05-13.27-29.42-21.61-48.71-21.61
			c-19.29,0-36.67,8.34-48.71,21.61l6.18,6.08C3458.33,555.76,3473.52,548.4,3490.4,548.4z"/>
	</g>
</g>
<g>
	<path class="st8" d="M4478.2,1807.9h-502.35v-165.96c0-57.69,46.77-104.46,104.46-104.46h293.43
		c57.69,0,104.46,46.77,104.46,104.46V1807.9z"/>
	<path class="st8" d="M4548.61,2000.71h-643.17v-125.44c0-48.26,39.12-87.37,87.37-87.37h468.42c48.26,0,87.37,39.12,87.37,87.37
		V2000.71z"/>
	<g>
		<path class="st2" d="M4004.58,2128.04L4004.58,2128.04c-21.6,0-39.11-17.51-39.11-39.11v-52.31h78.21v52.31
			C4043.69,2110.53,4026.18,2128.04,4004.58,2128.04z"/>
		<path class="st2" d="M4449.47,2127.57L4449.47,2127.57c-21.6,0-39.11-17.51-39.11-39.11v-52.31h78.21v52.31
			C4488.58,2110.06,4471.07,2127.57,4449.47,2127.57z"/>
	</g>
	<g>
		<g>
			<path class="st2" d="M3961.21,1737.81h-34.32c-3.92,0-7.1-3.18-7.1-7.1v-56.23c0-3.92,3.18-7.1,7.1-7.1h34.32
				c3.92,0,7.1,3.18,7.1,7.1v56.23C3968.31,1734.63,3965.13,1737.81,3961.21,1737.81z"/>
			<g>
				<rect x="3951.09" y="1683.03" class="st2" width="25.04" height="5.48"/>
				<rect x="3951.09" y="1716.68" class="st2" width="25.04" height="5.48"/>
			</g>
		</g>
		<g>
			<path class="st2" d="M4492.85,1737.81h34.31c3.92,0,7.1-3.18,7.1-7.1v-56.23c0-3.92-3.18-7.1-7.1-7.1h-34.31
				c-3.92,0-7.1,3.18-7.1,7.1v56.23C4485.75,1734.63,4488.93,1737.81,4492.85,1737.81z"/>
			<g>
				
					<rect x="4477.92" y="1683.03" transform="matrix(-1 -1.224647e-16 1.224647e-16 -1 8980.8838 3371.5437)" class="st2" width="25.04" height="5.48"/>
				
					<rect x="4477.92" y="1716.68" transform="matrix(-1 -1.224647e-16 1.224647e-16 -1 8980.8838 3438.8396)" class="st2" width="25.04" height="5.48"/>
			</g>
		</g>
	</g>
	<g>
		<path class="st13" d="M4443.61,1770.84h-433.16v-131.55c0-38.74,31.4-70.14,70.14-70.14h292.88c38.74,0,70.14,31.4,70.14,70.14
			V1770.84z"/>
		<path class="st14" d="M4200.53,1770.84h243.08v-131.55c0-38.74-31.4-70.14-70.14-70.14h-64.74
			C4294.05,1624.66,4263.58,1701.21,4200.53,1770.84z"/>
		<path class="st2" d="M4305.48,1770.84c-5.72-9.02-9.04-19.72-9.04-31.19c0-32.24,26.14-58.38,58.38-58.38s58.38,26.14,58.38,58.38
			c0,11.47-3.32,22.16-9.04,31.19h16.43c4.49-9.45,7.01-20.03,7.01-31.19c0-40.19-32.58-72.78-72.78-72.78s-72.78,32.58-72.78,72.78
			c0,11.16,2.52,21.74,7.01,31.19H4305.48z"/>
	</g>
	<g>
		<path class="st25" d="M4289.25,1885.37H4164.8c-2.42,0-4.38-1.96-4.38-4.38v-0.36c0-2.42,1.96-4.38,4.38-4.38h124.45
			c2.42,0,4.38,1.96,4.38,4.38v0.36C4293.63,1883.41,4291.67,1885.37,4289.25,1885.37z"/>
		<path class="st25" d="M4289.25,1901.12H4164.8c-2.42,0-4.38-1.96-4.38-4.38v-0.36c0-2.42,1.96-4.38,4.38-4.38h124.45
			c2.42,0,4.38,1.96,4.38,4.38v0.36C4293.63,1899.16,4291.67,1901.12,4289.25,1901.12z"/>
	</g>
	<path class="st16" d="M4538.96,2035.64H3915.1c-5.33,0-9.65-4.32-9.65-9.65v-25.28h643.17v25.28
		C4548.61,2031.32,4544.29,2035.64,4538.96,2035.64z"/>
	<path class="st17" d="M4286.15,2056.56h-118.24c-4.24,0-7.68-3.44-7.68-7.68v-61.83c0-4.24,3.44-7.68,7.68-7.68h118.24
		c4.24,0,7.68,3.44,7.68,7.68v61.83C4293.83,2053.12,4290.39,2056.56,4286.15,2056.56z"/>
	<g>
		<path class="st25" d="M3905.44,1878.81v121.89h159.86l6.94-60.03v-21.33l-82.82-131.45
			C3943.04,1787.9,3905.44,1828.6,3905.44,1878.81z"/>
		<path class="st25" d="M4548.61,1878.81v121.89h-159.86l-6.94-60.03v-21.33l82.82-131.45
			C4511.02,1787.9,4548.61,1828.6,4548.61,1878.81z"/>
	</g>
	<rect x="4072.24" y="1919.34" class="st25" width="309.58" height="21.33"/>
	<g>
		<g>
			<path class="st0" d="M4072.24,1919.34v21.33h-58.91c-35.48,0-64.25-31.14-64.25-69.56l0,0L4072.24,1919.34z"/>
			<path class="st18" d="M4007.14,1893.85c-5.09,10.32-9.77,24.71-11.4,44.16c5.59,1.72,11.49,2.66,17.59,2.66h58.91v-21.33
				L4007.14,1893.85z"/>
		</g>
		<g>
			<path class="st0" d="M4381.82,1919.34v21.33h58.91c35.48,0,64.25-31.14,64.25-69.56l0,0L4381.82,1919.34z"/>
			<path class="st18" d="M4446.91,1893.85c5.09,10.32,9.77,24.71,11.4,44.16c-5.59,1.72-11.49,2.66-17.59,2.66h-58.91v-21.33
				L4446.91,1893.85z"/>
		</g>
	</g>
</g>
<g>
	<path class="st26" d="M3741.57,1807.9h-502.35v-165.96c0-57.69,46.77-104.46,104.46-104.46h293.43
		c57.69,0,104.46,46.77,104.46,104.46V1807.9z"/>
	<path class="st26" d="M3811.98,2000.71h-643.17v-125.44c0-48.26,39.12-87.37,87.37-87.37h468.42c48.26,0,87.37,39.12,87.37,87.37
		V2000.71z"/>
	<g>
		<path class="st2" d="M3267.95,2128.04L3267.95,2128.04c-21.6,0-39.11-17.51-39.11-39.11v-52.31h78.21v52.31
			C3307.06,2110.53,3289.55,2128.04,3267.95,2128.04z"/>
		<path class="st2" d="M3712.84,2127.57L3712.84,2127.57c-21.6,0-39.11-17.51-39.11-39.11v-52.31h78.21v52.31
			C3751.95,2110.06,3734.44,2127.57,3712.84,2127.57z"/>
	</g>
	<g>
		<g>
			<path class="st2" d="M3224.58,1737.81h-34.32c-3.92,0-7.1-3.18-7.1-7.1v-56.23c0-3.92,3.18-7.1,7.1-7.1h34.32
				c3.92,0,7.1,3.18,7.1,7.1v56.23C3231.68,1734.63,3228.5,1737.81,3224.58,1737.81z"/>
			<g>
				<rect x="3214.46" y="1683.03" class="st2" width="25.04" height="5.48"/>
				<rect x="3214.46" y="1716.68" class="st2" width="25.04" height="5.48"/>
			</g>
		</g>
		<g>
			<path class="st2" d="M3756.22,1737.81h34.32c3.92,0,7.1-3.18,7.1-7.1v-56.23c0-3.92-3.18-7.1-7.1-7.1h-34.32
				c-3.92,0-7.1,3.18-7.1,7.1v56.23C3749.12,1734.63,3752.3,1737.81,3756.22,1737.81z"/>
			<g>
				
					<rect x="3741.29" y="1683.03" transform="matrix(-1 -1.224647e-16 1.224647e-16 -1 7507.623 3371.5437)" class="st2" width="25.04" height="5.48"/>
				
					<rect x="3741.29" y="1716.68" transform="matrix(-1 -1.224647e-16 1.224647e-16 -1 7507.623 3438.8396)" class="st2" width="25.04" height="5.48"/>
			</g>
		</g>
	</g>
	<g>
		<path class="st13" d="M3706.98,1770.84h-433.16v-131.55c0-38.74,31.4-70.14,70.14-70.14h292.88c38.74,0,70.14,31.4,70.14,70.14
			V1770.84z"/>
		<path class="st14" d="M3463.9,1770.84h243.08v-131.55c0-38.74-31.4-70.14-70.14-70.14h-64.74
			C3557.42,1624.66,3526.95,1701.21,3463.9,1770.84z"/>
		<path class="st2" d="M3568.85,1770.84c-5.72-9.02-9.04-19.72-9.04-31.19c0-32.24,26.14-58.38,58.38-58.38
			c32.24,0,58.38,26.14,58.38,58.38c0,11.47-3.32,22.16-9.04,31.19h16.43c4.49-9.45,7.01-20.03,7.01-31.19
			c0-40.19-32.58-72.78-72.78-72.78s-72.78,32.58-72.78,72.78c0,11.16,2.52,21.74,7.01,31.19H3568.85z"/>
	</g>
	<g>
		<path class="st27" d="M3552.62,1885.37h-124.45c-2.42,0-4.38-1.96-4.38-4.38v-0.36c0-2.42,1.96-4.38,4.38-4.38h124.45
			c2.42,0,4.38,1.96,4.38,4.38v0.36C3557,1883.41,3555.04,1885.37,3552.62,1885.37z"/>
		<path class="st27" d="M3552.62,1901.12h-124.45c-2.42,0-4.38-1.96-4.38-4.38v-0.36c0-2.42,1.96-4.38,4.38-4.38h124.45
			c2.42,0,4.38,1.96,4.38,4.38v0.36C3557,1899.16,3555.04,1901.12,3552.62,1901.12z"/>
	</g>
	<path class="st16" d="M3802.33,2035.64h-623.86c-5.33,0-9.65-4.32-9.65-9.65v-25.28h643.17v25.28
		C3811.98,2031.32,3807.66,2035.64,3802.33,2035.64z"/>
	<path class="st17" d="M3549.52,2056.56h-118.24c-4.24,0-7.68-3.44-7.68-7.68v-61.83c0-4.24,3.44-7.68,7.68-7.68h118.24
		c4.24,0,7.68,3.44,7.68,7.68v61.83C3557.2,2053.12,3553.76,2056.56,3549.52,2056.56z"/>
	<g>
		<path class="st27" d="M3168.81,1878.81v121.89h159.86l6.94-60.03v-21.33l-82.82-131.45
			C3206.41,1787.9,3168.81,1828.6,3168.81,1878.81z"/>
		<path class="st27" d="M3811.98,1878.81v121.89h-159.86l-6.94-60.03v-21.33l82.82-131.45
			C3774.39,1787.9,3811.98,1828.6,3811.98,1878.81z"/>
	</g>
	<rect x="3335.61" y="1919.34" class="st27" width="309.58" height="21.33"/>
	<g>
		<g>
			<path class="st0" d="M3335.61,1919.34v21.33h-58.91c-35.48,0-64.25-31.14-64.25-69.56l0,0L3335.61,1919.34z"/>
			<path class="st18" d="M3270.51,1893.85c-5.09,10.32-9.77,24.71-11.4,44.16c5.59,1.72,11.49,2.66,17.59,2.66h58.91v-21.33
				L3270.51,1893.85z"/>
		</g>
		<g>
			<path class="st0" d="M3645.19,1919.34v21.33h58.91c35.48,0,64.25-31.14,64.25-69.56l0,0L3645.19,1919.34z"/>
			<path class="st18" d="M3710.28,1893.85c5.09,10.32,9.77,24.71,11.4,44.16c-5.59,1.72-11.49,2.66-17.59,2.66h-58.91v-21.33
				L3710.28,1893.85z"/>
		</g>
	</g>
</g>
<g>
	<g>
		<g>
			<polygon class="st17" points="2365,1563.04 2328.69,1563.04 2475.39,1195.13 2511.69,1195.13 			"/>
			<polygon class="st17" points="2999.39,1563.04 3035.69,1563.04 2889,1195.13 2852.69,1195.13 			"/>
		</g>
		<rect x="2439.19" y="1299.04" class="st17" width="486" height="29"/>
		<rect x="2385.19" y="1445.04" class="st17" width="594" height="29"/>
	</g>
	<g>
		<path class="st12" d="M2746.23,405.76h-128.07c-5.24,0-9.49-4.25-9.49-9.49l0,0c0-5.24,4.25-9.49,9.49-9.49h128.07
			c5.24,0,9.49,4.25,9.49,9.49l0,0C2755.71,401.51,2751.47,405.76,2746.23,405.76z"/>
		
			<rect x="2638.74" y="426.85" transform="matrix(-1.836970e-16 1 -1 -1.836970e-16 3118.5291 -2245.8572)" class="st12" width="86.91" height="18.97"/>
	</g>
	<rect x="2391.94" y="566.12" class="st2" width="580.51" height="599.3"/>
	<path class="st12" d="M2972.45,566.12h-580.51v0c0-53.77,43.59-97.35,97.35-97.35h385.81
		C2928.86,468.77,2972.45,512.36,2972.45,566.12L2972.45,566.12z"/>
	<path class="st12" d="M2682.31,926.69c-102.96,0-201.06-8.82-290.37-24.76v263.5h580.51V901.97
		C2883.2,917.89,2785.18,926.69,2682.31,926.69z"/>
	<g>
		<g>
			<path class="st13" d="M2925.11,856.38h-485.83c-8.54,0-15.46-6.92-15.46-15.45V624.85c0-8.54,6.92-15.45,15.46-15.45h485.83
				c8.54,0,15.46,6.92,15.46,15.45v216.08C2940.56,849.46,2933.64,856.38,2925.11,856.38z"/>
			<path class="st14" d="M2940.56,840.92V624.85c0-8.54-6.92-15.45-15.46-15.45h-123.9c-26.83,73.05-76.66,171.02-165.73,246.99
				h289.63C2933.64,856.38,2940.56,849.46,2940.56,840.92z"/>
			<path class="st0" d="M2925.11,609.39h-485.83c-8.54,0-15.46,6.92-15.46,15.45v2.57h516.74v-2.57
				C2940.56,616.31,2933.64,609.39,2925.11,609.39z"/>
		</g>
		<path class="st2" d="M2768.15,856.38c-6.44-10.17-10.19-22.22-10.19-35.16c0-36.34,29.46-65.8,65.8-65.8s65.8,29.46,65.8,65.8
			c0,12.93-3.75,24.98-10.19,35.16h18.52c5.06-10.66,7.9-22.57,7.9-35.16c0-45.3-36.73-82.03-82.03-82.03
			c-45.3,0-82.03,36.73-82.03,82.03c0,12.58,2.84,24.5,7.9,35.16H2768.15z"/>
	</g>
	<g>
		<path class="st16" d="M2972.45,901.97c-33.74,6.02-68.73,11.02-104.77,14.91l0,0l-36.75,189.95v18.93l11.93,39.66h129.59V901.97z"
			/>
		<path class="st16" d="M2391.94,901.97c33.74,6.02,68.73,11.02,104.77,14.91l0,0l36.75,189.95v18.93l-11.93,39.66h-129.59V901.97z"
			/>
	</g>
	<rect x="2391.94" y="1146.49" class="st17" width="580.51" height="18.93"/>
	<path class="st12" d="M2412.21,1210.91h539.96c11.2,0,20.27-9.08,20.27-20.27v-25.21h-580.51v25.21
		C2391.94,1201.83,2401.01,1210.91,2412.21,1210.91z"/>
	<rect x="2533.46" y="1106.83" class="st17" width="297.47" height="18.93"/>
	<path class="st1" d="M2734.66,1154.61h-104.93c-3.77,0-6.82-3.05-6.82-6.82v-54.87c0-3.77,3.05-6.82,6.82-6.82h104.93
		c3.77,0,6.82,3.05,6.82,6.82v54.87C2741.48,1151.55,2738.43,1154.61,2734.66,1154.61z"/>
	<g>
		<g>
			<path class="st0" d="M2533.46,1106.83v18.93h-56.6c-34.1,0-61.73-27.64-61.73-61.73l0,0L2533.46,1106.83z"/>
			<path class="st18" d="M2470.91,1084.2c-4.89,9.16-9.39,21.93-10.95,39.19c5.37,1.53,11.04,2.36,16.9,2.36h56.6v-18.93
				L2470.91,1084.2z"/>
		</g>
		<g>
			<path class="st0" d="M2830.93,1106.83v18.93h56.6c34.1,0,61.73-27.64,61.73-61.73l0,0L2830.93,1106.83z"/>
			<path class="st18" d="M2893.48,1084.2c4.89,9.16,9.39,21.93,10.95,39.19c-5.37,1.53-11.04,2.36-16.9,2.36h-56.6v-18.93
				L2893.48,1084.2z"/>
		</g>
	</g>
	<path class="st16" d="M2469.47,470.7c37.7,31.9,118.82,53.97,212.83,53.97c93.82,0,174.81-21.98,212.61-53.78
		c-6.54-1.38-13.31-2.12-20.26-2.12h-385.81C2482.21,468.77,2475.74,469.44,2469.47,470.7z"/>
	<g>
		<path class="st2" d="M2457.83,1264.16L2457.83,1264.16c-9.47,0-17.15-7.68-17.15-17.15v-35.89h34.31V1247
			C2474.98,1256.48,2467.3,1264.16,2457.83,1264.16z"/>
		<path class="st2" d="M2906.56,1263.95L2906.56,1263.95c-9.47,0-17.15-7.68-17.15-17.15v-35.89h34.31v35.89
			C2923.71,1256.27,2916.03,1263.95,2906.56,1263.95z"/>
	</g>
	<g>
		<path class="st16" d="M2744.42,1036.2h-124.45c-2.42,0-4.38-1.96-4.38-4.38v-0.36c0-2.42,1.96-4.38,4.38-4.38h124.45
			c2.42,0,4.38,1.96,4.38,4.38v0.36C2748.8,1034.23,2746.84,1036.2,2744.42,1036.2z"/>
		<path class="st16" d="M2744.42,1019.61h-124.45c-2.42,0-4.38-1.96-4.38-4.38v-0.36c0-2.42,1.96-4.38,4.38-4.38h124.45
			c2.42,0,4.38,1.96,4.38,4.38v0.36C2748.8,1017.65,2746.84,1019.61,2744.42,1019.61z"/>
		<path class="st16" d="M2744.42,1003.03h-124.45c-2.42,0-4.38-1.96-4.38-4.38v-0.36c0-2.42,1.96-4.38,4.38-4.38h124.45
			c2.42,0,4.38,1.96,4.38,4.38v0.36C2748.8,1001.07,2746.84,1003.03,2744.42,1003.03z"/>
		<path class="st16" d="M2744.42,1052.78h-124.45c-2.42,0-4.38-1.96-4.38-4.38v-0.36c0-2.42,1.96-4.38,4.38-4.38h124.45
			c2.42,0,4.38,1.96,4.38,4.38v0.36C2748.8,1050.82,2746.84,1052.78,2744.42,1052.78z"/>
	</g>
</g>
<g>
	<rect x="64.9" y="97.35" class="st19" width="580.51" height="509.3"/>
	<path class="st12" d="M645.41,97.35H64.9v0C64.9,43.59,108.49,0,162.25,0h385.81C601.83,0,645.41,43.59,645.41,97.35L645.41,97.35z
		"/>
	<path class="st12" d="M355.27,457.92c-102.96,0-201.06-8.82-290.37-24.76v173.5h580.51V433.2
		C556.17,449.12,458.14,457.92,355.27,457.92z"/>
	<g>
		<g>
			<path class="st13" d="M598.07,387.61H112.24c-8.54,0-15.46-6.92-15.46-15.45V156.08c0-8.54,6.92-15.45,15.46-15.45h485.83
				c8.54,0,15.45,6.92,15.45,15.45v216.08C613.53,380.69,606.61,387.61,598.07,387.61z"/>
			<path class="st14" d="M613.53,372.15V156.08c0-8.54-6.92-15.45-15.45-15.45h-123.9c-26.83,73.05-76.66,171.02-165.73,246.99
				h289.63C606.61,387.61,613.53,380.69,613.53,372.15z"/>
			<path class="st2" d="M598.07,140.62H112.24c-8.54,0-15.46,6.92-15.46,15.45v2.57h516.74v-2.57
				C613.53,147.54,606.61,140.62,598.07,140.62z"/>
		</g>
		<path class="st2" d="M441.12,387.61c-6.44-10.17-10.19-22.22-10.19-35.16c0-36.34,29.46-65.8,65.8-65.8
			c36.34,0,65.8,29.46,65.8,65.8c0,12.93-3.75,24.98-10.19,35.16h18.52c5.06-10.66,7.9-22.57,7.9-35.16
			c0-45.3-36.73-82.03-82.03-82.03s-82.03,36.73-82.03,82.03c0,12.58,2.84,24.5,7.9,35.16H441.12z"/>
	</g>
	<g>
		<g>
			<path class="st0" d="M301.73,402.93h16.54c8.46,0,13.22,4.39,13.22,11.35c0,2.71-1.82,5.79-4.44,6.77
				c3.64,1.17,6.21,4.72,6.21,8.41c0,7.06-5.05,11.54-13.6,11.54h-17.94V402.93z M317.9,418.35c3.22,0,5.09-1.4,5.09-4.06
				s-1.87-4.11-5.09-4.11h-7.66v8.18H317.9z M319.3,433.77c3.36,0,5.47-1.5,5.47-4.3c0-2.8-2.1-4.3-5.47-4.3h-9.06v8.6H319.3z"/>
			<path class="st0" d="M337.24,402.93h8.5v21.21c0,6.07,3.36,10.14,8.92,10.14s8.92-4.07,8.92-10.14v-21.21h8.5v21.21
				c0,10.79-6.96,17.8-17.43,17.8c-10.47,0-17.43-7.01-17.43-17.8V402.93z"/>
			<path class="st0" d="M408.44,414.43h-8.78c-0.51-3.32-2.99-5.33-7.06-5.33c-3.97,0-6.17,1.59-6.17,3.88
				c0,2.85,2.94,3.83,10.37,5.37c8.78,1.82,11.77,6.17,11.77,11.87c0,7.29-6.87,11.73-15.37,11.73c-9.39,0-16.26-5.09-16.63-13.22
				h8.74c0.47,3.64,3.64,6.07,8.5,6.07c3.46,0,6.03-1.73,6.03-4.21c0-3.04-2.57-4.25-9.35-5.51c-8.27-1.54-12.76-4.95-12.76-12.1
				c0-6.87,6.82-10.98,15.42-10.98C401.67,402,408.02,407.19,408.44,414.43z"/>
		</g>
		<g>
			<g>
				<path class="st20" d="M275.39,419.03H155.48c-2.23,0-4.05-1.81-4.05-4.05l0,0c0-2.23,1.81-4.05,4.05-4.05h119.91
					c2.23,0,4.05,1.81,4.05,4.05l0,0C279.44,417.22,277.63,419.03,275.39,419.03z"/>
				<path class="st20" d="M275.39,433.01H155.48c-2.23,0-4.05-1.81-4.05-4.05l0,0c0-2.23,1.81-4.05,4.05-4.05h119.91
					c2.23,0,4.05,1.81,4.05,4.05l0,0C279.44,431.2,277.63,433.01,275.39,433.01z"/>
			</g>
			<g>
				<path class="st20" d="M554.83,419.03H434.92c-2.23,0-4.05-1.81-4.05-4.05l0,0c0-2.23,1.81-4.05,4.05-4.05h119.91
					c2.23,0,4.05,1.81,4.05,4.05l0,0C558.88,417.22,557.07,419.03,554.83,419.03z"/>
				<path class="st20" d="M554.83,433.01H434.92c-2.23,0-4.05-1.81-4.05-4.05l0,0c0-2.23,1.81-4.05,4.05-4.05h119.91
					c2.23,0,4.05,1.81,4.05,4.05l0,0C558.88,431.2,557.07,433.01,554.83,433.01z"/>
			</g>
		</g>
	</g>
	<g>
		<path class="st16" d="M645.41,433.2c-33.74,6.02-68.73,11.02-104.77,14.91l0,0l-36.75,99.95v18.93l11.93,39.66h129.59V433.2z"/>
		<path class="st16" d="M64.9,433.2c33.74,6.02,68.73,11.02,104.77,14.91l0,0l36.75,99.95v18.93l-11.93,39.66H64.9V433.2z"/>
	</g>
	<rect x="64.9" y="587.72" class="st17" width="580.51" height="18.93"/>
	<path class="st12" d="M85.18,652.14h539.96c11.2,0,20.27-9.08,20.27-20.27v-25.21H64.9v25.21
		C64.9,643.06,73.98,652.14,85.18,652.14z"/>
	<rect x="206.42" y="548.06" class="st17" width="297.47" height="18.93"/>
	<path class="st1" d="M407.62,595.83H302.69c-3.77,0-6.82-3.05-6.82-6.82v-54.87c0-3.77,3.05-6.82,6.82-6.82h104.93
		c3.77,0,6.82,3.05,6.82,6.82v54.87C414.44,592.78,411.39,595.83,407.62,595.83z"/>
	<g>
		<g>
			<path class="st0" d="M206.42,548.06v18.93h-56.6c-34.1,0-61.73-27.64-61.73-61.73l0,0L206.42,548.06z"/>
			<path class="st18" d="M143.88,525.43c-4.89,9.16-9.39,21.93-10.95,39.19c5.37,1.53,11.04,2.36,16.9,2.36h56.6v-18.93
				L143.88,525.43z"/>
		</g>
		<g>
			<path class="st0" d="M503.89,548.06v18.93h56.6c34.1,0,61.73-27.64,61.73-61.73l0,0L503.89,548.06z"/>
			<path class="st18" d="M566.44,525.43c4.89,9.16,9.39,21.93,10.95,39.19c-5.37,1.53-11.04,2.36-16.9,2.36h-56.6v-18.93
				L566.44,525.43z"/>
		</g>
	</g>
	<path class="st16" d="M142.44,1.93c37.7,31.9,118.82,53.97,212.83,53.97c93.82,0,174.81-21.98,212.61-53.78
		C561.34,0.73,554.56,0,547.62,0H161.81C155.18,0,148.7,0.67,142.44,1.93z"/>
	<g>
		<path class="st2" d="M157.75,733.27L157.75,733.27c-19.17,0-34.7-15.54-34.7-34.7v-46.42h69.41v46.42
			C192.45,717.73,176.91,733.27,157.75,733.27z"/>
		<path class="st2" d="M552.57,732.85L552.57,732.85c-19.17,0-34.7-15.54-34.7-34.7v-46.42h69.41v46.42
			C587.27,717.31,571.73,732.85,552.57,732.85z"/>
	</g>
	<g>
		<g>
			<path class="st2" d="M47.71,267.27H8.18c-4.52,0-8.18-3.66-8.18-8.18v-64.77c0-4.52,3.66-8.18,8.18-8.18h39.53
				c4.52,0,8.18,3.66,8.18,8.18v64.77C55.89,263.61,52.23,267.27,47.71,267.27z"/>
			<g>
				<rect x="36.06" y="204.17" class="st2" width="28.85" height="6.31"/>
				<rect x="36.06" y="242.93" class="st2" width="28.85" height="6.31"/>
			</g>
		</g>
		<g>
			<path class="st2" d="M662.61,267.27h39.53c4.52,0,8.18-3.66,8.18-8.18v-64.77c0-4.52-3.66-8.18-8.18-8.18h-39.53
				c-4.52,0-8.18,3.66-8.18,8.18v64.77C654.43,263.61,658.09,267.27,662.61,267.27z"/>
			<g>
				
					<rect x="645.41" y="204.17" transform="matrix(-1 -1.224647e-16 1.224647e-16 -1 1319.6705 414.6503)" class="st2" width="28.85" height="6.31"/>
				
					<rect x="645.41" y="242.93" transform="matrix(-1 -1.224647e-16 1.224647e-16 -1 1319.6705 492.1721)" class="st2" width="28.85" height="6.31"/>
			</g>
		</g>
	</g>
</g>
</svg>
