<?xml version="1.0" encoding="utf-8"?>
<!-- Generator: Adobe Illustrator 25.4.0, SVG Export Plug-In . SVG Version: 6.00 Build 0)  -->
<svg version="1.1" id="Layer_1" xmlns="http://www.w3.org/2000/svg" xmlns:xlink="http://www.w3.org/1999/xlink" x="0px" y="0px"
	 viewBox="0 0 108 165.35" style="enable-background:new 0 0 108 165.35;" xml:space="preserve">
<style type="text/css">
	.st0{fill:white;}
	.st1{fill:#F7F8F8;}
</style>
<g>
	<path class="st0" d="M89.9,74.58H83.3V64.24H0v88.18c0,7.14,5.79,12.93,12.93,12.93h57.45c7.14,0,12.93-5.79,12.93-12.93v-11.78
		h6.61c9.98,0,18.1-8.12,18.1-18.1V92.68C108,82.7,99.88,74.58,89.9,74.58z M23.55,154.44H13.21V74.58h10.34V154.44z M97.66,122.55
		c0,4.28-3.48,7.75-7.75,7.75H83.3V84.92h6.61c4.28,0,7.75,3.48,7.75,7.76V122.55z"/>
	<path class="st0" d="M27.25,14.41c0.14,0.84,0.34,1.69,0.52,2.57c0.16,0.88,0.49,1.74,0.75,2.62c0.14,0.44,0.28,0.89,0.42,1.34
		c0.15,0.44,0.32,0.8,0.48,1.21c0.32,0.79,0.64,1.6,0.98,2.39c0.32,0.77,0.65,1.54,0.97,2.31c0.32,0.72,0.66,1.44,0.88,2.17
		c0.24,0.73,0.54,1.44,0.78,2.15c0.17,0.72,0.36,1.42,0.57,2.12c0.12,0.35,0.14,0.69,0.2,1.04c0.05,0.34,0.13,0.68,0.19,1.03
		l0.1,0.51c0.02,0.17,0.02,0.33,0.03,0.5c0.02,0.33,0.05,0.66,0.08,0.99c0.12,0.67,0,1.28,0.02,1.91c-0.04,1.25-0.25,2.43-0.53,3.53
		c-0.12,0.57-0.36,1.05-0.51,1.58c-0.18,0.5-0.43,0.95-0.62,1.42c-0.24,0.44-0.46,0.86-0.67,1.24c-0.24,0.38-0.46,0.72-0.66,1.04
		c-0.22,0.31-0.42,0.59-0.59,0.83c-0.19,0.24-0.35,0.44-0.48,0.6c-0.27,0.31-0.43,0.49-0.43,0.49s0.23-0.02,0.66-0.11
		c0.42-0.11,1.05-0.27,1.81-0.6c0.38-0.17,0.78-0.38,1.24-0.62c0.43-0.26,0.88-0.57,1.38-0.91c0.46-0.37,0.95-0.78,1.44-1.25
		c0.23-0.24,0.46-0.5,0.7-0.78c0.24-0.27,0.5-0.54,0.7-0.86c0.89-1.22,1.7-2.71,2.24-4.38c0.25-0.84,0.55-1.72,0.65-2.63
		c0.07-0.45,0.14-0.92,0.19-1.39c0.02-0.23,0.06-0.47,0.08-0.71l0-0.7c-0.01-0.93,0.03-1.92-0.1-2.87c-0.13-0.94-0.27-1.9-0.45-2.86
		c-0.23-0.93-0.49-1.85-0.77-2.77c-0.15-0.45-0.26-0.94-0.45-1.37l-0.55-1.31l-0.57-1.3l-0.53-1.17c-0.37-0.78-0.77-1.55-1.15-2.32
		c-0.18-0.38-0.4-0.78-0.55-1.13c-0.16-0.34-0.32-0.69-0.47-1.03c-0.3-0.69-0.66-1.35-0.94-2.04c-0.29-0.69-0.55-1.37-0.85-2.03
		c-0.24-0.66-0.45-1.31-0.7-1.95c-0.23-0.63-0.35-1.24-0.55-1.85C32,8.44,31.95,7.87,31.81,7.3c-0.09-0.55-0.12-1.08-0.18-1.6
		c0.02-0.48-0.04-1.01,0.04-1.44c0.03-0.23,0.05-0.45,0.08-0.67c0.04-0.21,0.1-0.4,0.14-0.61c0.07-0.42,0.25-0.73,0.37-1.08
		c0.31-0.62,0.62-1.15,0.9-1.44C33.42,0.15,33.6,0,33.6,0s-0.06,0-0.17,0.01c-0.11,0.01-0.29,0.02-0.5,0.08
		c-0.44,0.09-1.08,0.3-1.83,0.78c-0.34,0.25-0.77,0.54-1.13,0.94c-0.18,0.19-0.4,0.4-0.58,0.63c-0.17,0.24-0.34,0.49-0.52,0.75
		C28.8,3.3,28.7,3.44,28.62,3.58c-0.07,0.14-0.14,0.29-0.21,0.44c-0.14,0.31-0.29,0.62-0.44,0.94c-0.23,0.65-0.45,1.36-0.62,2.11
		C27.22,7.8,27.07,8.6,27.02,9.4C27,10.18,26.96,11.03,27,11.86C27.06,12.69,27.15,13.54,27.25,14.41z"/>
	<path class="st0" d="M47.3,19.04c0.12,0.73,0.29,1.47,0.45,2.23c0.14,0.77,0.43,1.51,0.65,2.28c0.12,0.38,0.25,0.77,0.37,1.16
		c0.13,0.38,0.28,0.7,0.42,1.05c0.28,0.69,0.55,1.39,0.86,2.08c0.28,0.67,0.56,1.34,0.85,2.01c0.28,0.63,0.57,1.25,0.76,1.89
		c0.21,0.63,0.47,1.25,0.68,1.87c0.14,0.62,0.32,1.24,0.5,1.84c0.11,0.31,0.13,0.6,0.18,0.9c0.04,0.3,0.11,0.6,0.17,0.89l0.09,0.44
		c0.02,0.15,0.02,0.29,0.03,0.43c0.01,0.29,0.04,0.57,0.07,0.86c0.1,0.58,0,1.11,0.02,1.66c-0.03,1.09-0.21,2.11-0.46,3.07
		c-0.1,0.49-0.31,0.92-0.44,1.37c-0.16,0.44-0.37,0.83-0.54,1.23c-0.21,0.38-0.4,0.74-0.58,1.07c-0.21,0.33-0.4,0.63-0.58,0.9
		c-0.19,0.27-0.37,0.51-0.52,0.72c-0.16,0.21-0.3,0.38-0.42,0.52c-0.24,0.27-0.38,0.43-0.38,0.43s0.2-0.01,0.57-0.1
		c0.37-0.1,0.91-0.24,1.58-0.52c0.33-0.14,0.68-0.33,1.08-0.54c0.37-0.23,0.77-0.5,1.2-0.79c0.4-0.32,0.83-0.68,1.25-1.09
		c0.2-0.21,0.4-0.44,0.61-0.67c0.21-0.24,0.43-0.47,0.61-0.75c0.77-1.06,1.48-2.35,1.95-3.81c0.22-0.73,0.48-1.5,0.56-2.29
		c0.06-0.4,0.12-0.8,0.17-1.21c0.02-0.2,0.05-0.41,0.07-0.62l0-0.61c-0.01-0.81,0.02-1.67-0.09-2.49c-0.11-0.82-0.23-1.65-0.39-2.49
		c-0.2-0.81-0.43-1.61-0.67-2.41c-0.13-0.39-0.22-0.82-0.39-1.19l-0.48-1.14l-0.5-1.13l-0.46-1.01c-0.32-0.68-0.67-1.35-1-2.02
		c-0.16-0.33-0.35-0.68-0.48-0.98c-0.14-0.3-0.28-0.6-0.41-0.89c-0.26-0.6-0.58-1.17-0.82-1.77c-0.25-0.6-0.47-1.19-0.74-1.77
		c-0.21-0.57-0.39-1.14-0.6-1.69c-0.2-0.55-0.3-1.08-0.48-1.61c-0.16-0.52-0.2-1.01-0.33-1.51c-0.08-0.48-0.11-0.94-0.16-1.39
		c0.02-0.42-0.03-0.88,0.03-1.25c0.02-0.2,0.04-0.39,0.07-0.58c0.03-0.18,0.09-0.35,0.12-0.53c0.07-0.36,0.22-0.64,0.32-0.94
		c0.27-0.54,0.54-1,0.79-1.25c0.23-0.28,0.39-0.41,0.39-0.41s-0.05,0-0.15,0c-0.1,0.01-0.25,0.02-0.43,0.07
		c-0.38,0.08-0.94,0.26-1.59,0.67c-0.3,0.22-0.67,0.47-0.98,0.82c-0.16,0.17-0.35,0.34-0.5,0.55c-0.15,0.21-0.3,0.43-0.45,0.65
		c-0.08,0.12-0.17,0.23-0.23,0.35c-0.06,0.13-0.12,0.25-0.19,0.38c-0.12,0.27-0.25,0.54-0.39,0.82c-0.2,0.56-0.39,1.19-0.54,1.83
		c-0.1,0.63-0.23,1.33-0.27,2.02c-0.02,0.68-0.05,1.42-0.02,2.14C47.14,17.54,47.22,18.28,47.3,19.04z"/>
</g>
</svg>
