<?xml version="1.0" encoding="utf-8"?>
<!-- Generator: Adobe Illustrator 25.4.0, SVG Export Plug-In . SVG Version: 6.00 Build 0)  -->
<svg version="1.1" id="Layer_1" xmlns="http://www.w3.org/2000/svg" xmlns:xlink="http://www.w3.org/1999/xlink" x="0px" y="0px"
	 viewBox="0 0 800 800" style="enable-background:new 0 0 800 800;" xml:space="preserve">
<style type="text/css">
	.st0{fill:#444A4C;}
	.st1{fill:#F7F8F8;}
</style>
<g>
	<path class="st0" d="M102.07,452.27v6.77h51.63v-7.96c5.07-2.67,9.69-6.08,13.73-10.07c0.29,0.16,0.59,0.31,0.9,0.45
		c1.05,0.49,2.16,0.89,3.28,1.19c11.11,2.97,23.51-3.73,29.48-15.95c3.11-6.35,4.01-13.32,2.54-19.61
		c-1.56-6.72-5.6-11.9-11.36-14.6c-1.05-0.49-2.16-0.89-3.28-1.2c-1.67-0.45-3.37-0.67-5.08-0.69c-0.36-2.22-0.83-4.4-1.43-6.52
		H70.9c-1.4,5-2.17,10.26-2.17,15.71C68.73,423,82.37,443.01,102.07,452.27z M184.65,399.79c0-0.16-0.01-0.31-0.01-0.46
		c0.71,0.05,1.42,0.16,2.11,0.35c0.59,0.16,1.16,0.37,1.71,0.62c3.15,1.47,5.4,4.49,6.33,8.5c1.03,4.43,0.35,9.42-1.92,14.06
		c-4.07,8.33-12.25,13.24-19.02,11.43c-0.16-0.04-0.31-0.1-0.47-0.15C180.46,424.52,184.65,412.65,184.65,399.79z M89.03,397.77
		c-0.1,5.06,0.64,21.42,13.43,31.37v8.18c-18.66-11.02-20.21-32.58-20.19-39.47L89.03,397.77z"/>
	<path class="st0" d="M108.84,328.47c0.16,0.98,0.39,1.96,0.6,2.98c0.19,1.02,0.57,2.02,0.87,3.05c0.16,0.51,0.33,1.03,0.49,1.55
		c0.18,0.51,0.37,0.93,0.55,1.4c0.38,0.92,0.74,1.85,1.14,2.77c0.38,0.89,0.75,1.78,1.13,2.68c0.38,0.84,0.77,1.67,1.02,2.52
		c0.27,0.84,0.63,1.67,0.9,2.5c0.19,0.83,0.42,1.65,0.66,2.46c0.14,0.41,0.17,0.81,0.24,1.21c0.06,0.4,0.15,0.79,0.22,1.19
		l0.12,0.59c0.03,0.2,0.02,0.38,0.04,0.58c0.02,0.38,0.05,0.76,0.09,1.14c0.13,0.78,0,1.48,0.02,2.22
		c-0.04,1.45-0.28,2.82-0.61,4.09c-0.13,0.66-0.42,1.22-0.59,1.83c-0.21,0.59-0.5,1.1-0.71,1.65c-0.28,0.51-0.54,0.99-0.78,1.43
		c-0.28,0.44-0.54,0.84-0.77,1.2c-0.26,0.36-0.49,0.68-0.69,0.96c-0.22,0.27-0.41,0.51-0.56,0.7c-0.31,0.37-0.5,0.57-0.5,0.57
		s0.26-0.02,0.76-0.13c0.49-0.13,1.22-0.32,2.1-0.7c0.44-0.19,0.91-0.44,1.43-0.72c0.5-0.3,1.03-0.66,1.6-1.06
		c0.53-0.43,1.1-0.91,1.67-1.46c0.27-0.28,0.54-0.59,0.81-0.9c0.27-0.31,0.58-0.63,0.81-1c1.03-1.42,1.98-3.14,2.6-5.09
		c0.29-0.97,0.64-2,0.75-3.05c0.08-0.53,0.16-1.06,0.22-1.61c0.03-0.27,0.07-0.55,0.09-0.82l0-0.81c-0.01-1.08,0.03-2.23-0.12-3.33
		c-0.15-1.09-0.31-2.21-0.52-3.32c-0.27-1.08-0.57-2.14-0.9-3.22c-0.18-0.53-0.3-1.09-0.52-1.59l-0.64-1.52l-0.66-1.51l-0.62-1.35
		c-0.42-0.91-0.89-1.8-1.33-2.69c-0.21-0.44-0.47-0.9-0.64-1.31c-0.19-0.4-0.37-0.8-0.55-1.19c-0.35-0.8-0.77-1.56-1.09-2.36
		c-0.33-0.8-0.63-1.59-0.99-2.36c-0.28-0.77-0.52-1.52-0.81-2.26c-0.27-0.74-0.41-1.44-0.64-2.15c-0.21-0.7-0.27-1.35-0.44-2.01
		c-0.1-0.64-0.14-1.25-0.21-1.86c0.02-0.56-0.04-1.17,0.04-1.67c0.03-0.27,0.06-0.52,0.09-0.77c0.04-0.25,0.12-0.47,0.17-0.7
		c0.09-0.48,0.29-0.85,0.43-1.26c0.36-0.72,0.72-1.33,1.05-1.67c0.31-0.37,0.52-0.54,0.52-0.54s-0.07,0-0.2,0.01
		c-0.13,0.01-0.33,0.02-0.58,0.09c-0.51,0.11-1.25,0.35-2.12,0.9c-0.4,0.3-0.9,0.63-1.31,1.09c-0.22,0.23-0.46,0.46-0.67,0.73
		c-0.19,0.28-0.4,0.57-0.61,0.87c-0.1,0.15-0.22,0.31-0.31,0.47c-0.08,0.17-0.16,0.34-0.25,0.51c-0.17,0.35-0.34,0.72-0.51,1.09
		c-0.27,0.75-0.52,1.58-0.73,2.45c-0.13,0.85-0.31,1.78-0.37,2.7c-0.03,0.91-0.07,1.9-0.03,2.86
		C108.62,326.47,108.73,327.46,108.84,328.47z"/>
	<path class="st0" d="M132.12,333.85c0.14,0.85,0.34,1.71,0.52,2.59c0.16,0.89,0.5,1.75,0.76,2.65c0.14,0.45,0.28,0.9,0.43,1.35
		c0.15,0.44,0.32,0.81,0.48,1.22c0.33,0.8,0.64,1.61,0.99,2.41c0.33,0.77,0.65,1.55,0.98,2.33c0.33,0.73,0.67,1.46,0.89,2.19
		c0.24,0.73,0.55,1.45,0.78,2.17c0.17,0.72,0.37,1.43,0.58,2.14c0.13,0.36,0.15,0.7,0.21,1.05c0.05,0.35,0.13,0.69,0.19,1.04
		l0.1,0.52c0.02,0.17,0.02,0.33,0.03,0.5c0.01,0.33,0.05,0.66,0.08,1c0.12,0.68,0,1.29,0.02,1.93c-0.04,1.26-0.25,2.45-0.53,3.56
		c-0.12,0.57-0.36,1.06-0.51,1.59c-0.19,0.51-0.43,0.96-0.62,1.43c-0.24,0.44-0.47,0.86-0.68,1.25c-0.24,0.38-0.47,0.73-0.67,1.04
		c-0.22,0.31-0.42,0.59-0.6,0.84c-0.19,0.24-0.35,0.44-0.48,0.61c-0.27,0.32-0.44,0.5-0.44,0.5s0.23-0.02,0.66-0.12
		c0.42-0.11,1.06-0.27,1.83-0.61c0.38-0.17,0.79-0.39,1.25-0.62c0.43-0.26,0.89-0.57,1.39-0.92c0.46-0.38,0.96-0.79,1.45-1.27
		c0.24-0.25,0.47-0.51,0.71-0.78c0.24-0.27,0.5-0.55,0.7-0.87c0.89-1.24,1.72-2.73,2.26-4.43c0.25-0.85,0.56-1.74,0.65-2.65
		c0.07-0.46,0.14-0.93,0.19-1.4c0.03-0.24,0.06-0.48,0.08-0.71l0-0.71c-0.01-0.94,0.03-1.94-0.1-2.89
		c-0.13-0.95-0.27-1.92-0.45-2.89c-0.23-0.94-0.5-1.87-0.78-2.8c-0.15-0.46-0.26-0.95-0.46-1.38l-0.56-1.32l-0.58-1.31l-0.54-1.18
		c-0.37-0.79-0.77-1.57-1.16-2.34c-0.19-0.38-0.41-0.78-0.56-1.14c-0.16-0.35-0.32-0.69-0.48-1.04c-0.31-0.7-0.67-1.36-0.94-2.06
		c-0.29-0.69-0.55-1.38-0.86-2.05c-0.24-0.67-0.45-1.32-0.7-1.97c-0.23-0.64-0.35-1.26-0.55-1.87c-0.18-0.61-0.24-1.17-0.38-1.75
		c-0.09-0.56-0.12-1.09-0.18-1.62c0.02-0.49-0.04-1.02,0.04-1.45c0.03-0.23,0.05-0.46,0.08-0.67c0.04-0.21,0.1-0.41,0.14-0.61
		c0.08-0.42,0.25-0.74,0.37-1.09c0.31-0.62,0.63-1.16,0.91-1.45c0.27-0.32,0.45-0.47,0.45-0.47s-0.06,0-0.17,0.01
		c-0.11,0.01-0.29,0.02-0.5,0.08c-0.44,0.09-1.09,0.31-1.84,0.78c-0.35,0.26-0.78,0.54-1.14,0.95c-0.19,0.2-0.4,0.4-0.58,0.63
		c-0.17,0.24-0.35,0.49-0.53,0.75c-0.09,0.13-0.19,0.27-0.27,0.41c-0.07,0.15-0.14,0.29-0.22,0.44c-0.14,0.31-0.29,0.62-0.45,0.95
		c-0.23,0.66-0.45,1.38-0.63,2.13c-0.12,0.74-0.27,1.55-0.32,2.35c-0.02,0.79-0.06,1.65-0.02,2.49
		C131.93,332.1,132.02,332.96,132.12,333.85z"/>
	<path class="st0" d="M199.83,469.73H63.87c-2.79,0-5.05,2.26-5.05,5.05c0,2.79,2.26,5.05,5.05,5.05h18.89
		c-0.03,0.3-0.05,0.61-0.05,0.92c0,4.57,3.7,8.27,8.27,8.27h82.67c4.57,0,8.27-3.7,8.27-8.27c0-0.31-0.02-0.62-0.05-0.92h17.97
		c2.79,0,5.05-2.26,5.05-5.05C204.88,472,202.62,469.73,199.83,469.73z"/>
</g>
<g>
	<path class="st0" d="M412.71,385.3c-13.99-0.2-29.21,12.94-36.31,32.62c-6.45,17.89-4.31,35.89,4.31,45.62
		c12.09,12.85,13.57-7.05,13.57-7.05c-0.39-21.19,18.6-51.54,18.6-51.54C422.29,391.49,418.88,386.66,412.71,385.3z"/>
	<path class="st0" d="M430.7,391.79c-5.49-2.84-11.09-1.26-12.53,15.08c0,0-4.93,35.42-18.6,51.54c0,0-11.46,16.3,5.71,14.01
		c12.6-2.08,25.57-14.62,32.03-32.51C444.42,420.21,441.3,400.46,430.7,391.79z"/>
	<path class="st0" d="M390.25,346.8c9.89-6.33,8.95-10.46,5.25-13.04c-9.2-3.94-22.83,0.6-32.89,11.68
		c-9.14,10.07-12.62,22.56-9.57,31.33c4.5,11.79,10.89-0.97,10.89-0.97C369.44,361.69,390.25,346.8,390.25,346.8z"/>
	<path class="st0" d="M396.89,376.56c10.06-11.08,13.38-24.99,8.72-33.61c-2.85-3.37-6.99-3.86-12.39,6.56
		c0,0-12.9,22.07-26.33,29.01c0,0-12.01,7.66-0.04,10.82C375.76,391.39,387.76,386.63,396.89,376.56z"/>
	<path class="st0" d="M421.88,364.71c8.85-2.79,23.95,1.43,23.95,1.43c6.82,2.29,8.42,0.26,8.23-2.5
		c-1.65-5.9-9.05-10.66-18.2-11.21c-8.31-0.5-15.6,2.64-18.62,7.46C413.34,366.55,421.88,364.71,421.88,364.71z"/>
	<path class="st0" d="M445.68,369.6c0,0-15.48,2.32-23.95-1.43c0,0-8.26-2.8-5.18,4.13c2.43,5.03,9.31,8.93,17.62,9.43
		c9.15,0.54,17.06-3.21,19.39-8.74C454.08,370.33,452.72,368.18,445.68,369.6z"/>
</g>
<g>
	<path class="st0" d="M444.77,654.63h-6.61v-10.34h-83.3v88.18c0,7.14,5.79,12.93,12.93,12.93h57.45c7.14,0,12.93-5.79,12.93-12.93
		V720.7h6.61c9.98,0,18.1-8.12,18.1-18.1v-29.87C462.87,662.75,454.75,654.63,444.77,654.63z M378.42,734.48h-10.34v-79.85h10.34
		V734.48z M452.53,702.6c0,4.28-3.48,7.75-7.75,7.75h-6.61v-45.38h6.61c4.28,0,7.75,3.48,7.75,7.76V702.6z"/>
	<path class="st0" d="M382.12,594.46c0.14,0.84,0.34,1.69,0.52,2.57c0.16,0.88,0.49,1.74,0.75,2.62c0.14,0.44,0.28,0.89,0.42,1.34
		c0.15,0.44,0.32,0.8,0.48,1.21c0.32,0.79,0.64,1.6,0.98,2.39c0.32,0.77,0.65,1.54,0.97,2.31c0.32,0.72,0.66,1.44,0.88,2.17
		c0.24,0.73,0.54,1.44,0.78,2.15c0.17,0.72,0.36,1.42,0.57,2.12c0.12,0.35,0.14,0.69,0.21,1.04c0.05,0.34,0.13,0.68,0.19,1.03
		l0.1,0.51c0.02,0.17,0.02,0.33,0.03,0.5c0.02,0.33,0.05,0.66,0.08,0.99c0.12,0.67,0,1.28,0.02,1.91c-0.04,1.25-0.25,2.43-0.53,3.53
		c-0.12,0.57-0.36,1.05-0.51,1.58c-0.18,0.5-0.43,0.95-0.62,1.42c-0.24,0.44-0.46,0.86-0.67,1.24c-0.24,0.38-0.46,0.72-0.66,1.04
		c-0.22,0.31-0.42,0.59-0.59,0.83c-0.19,0.24-0.35,0.44-0.48,0.6c-0.27,0.31-0.43,0.49-0.43,0.49s0.23-0.02,0.66-0.11
		c0.42-0.11,1.05-0.27,1.81-0.6c0.38-0.17,0.78-0.38,1.24-0.62c0.43-0.26,0.88-0.57,1.38-0.91c0.46-0.37,0.95-0.78,1.44-1.25
		c0.23-0.24,0.46-0.5,0.7-0.78c0.24-0.27,0.5-0.54,0.7-0.86c0.89-1.22,1.7-2.71,2.24-4.38c0.25-0.84,0.55-1.72,0.65-2.63
		c0.07-0.45,0.14-0.92,0.19-1.39c0.02-0.23,0.06-0.47,0.08-0.71l0-0.7c-0.01-0.93,0.03-1.92-0.1-2.87c-0.13-0.94-0.27-1.9-0.45-2.86
		c-0.23-0.93-0.49-1.85-0.77-2.77c-0.15-0.45-0.26-0.94-0.45-1.37l-0.55-1.31l-0.57-1.3l-0.53-1.17c-0.37-0.78-0.77-1.55-1.15-2.32
		c-0.18-0.38-0.4-0.78-0.55-1.13c-0.16-0.34-0.32-0.69-0.47-1.03c-0.3-0.69-0.66-1.35-0.94-2.04c-0.29-0.69-0.55-1.37-0.85-2.03
		c-0.24-0.66-0.45-1.31-0.7-1.95c-0.23-0.63-0.35-1.24-0.55-1.85c-0.18-0.6-0.24-1.16-0.38-1.74c-0.09-0.55-0.12-1.08-0.18-1.6
		c0.02-0.48-0.04-1.01,0.04-1.44c0.03-0.23,0.05-0.45,0.08-0.67c0.04-0.21,0.1-0.4,0.14-0.61c0.07-0.42,0.25-0.73,0.37-1.08
		c0.31-0.62,0.62-1.15,0.9-1.44c0.27-0.32,0.45-0.47,0.45-0.47s-0.06,0-0.17,0.01c-0.11,0.01-0.29,0.02-0.5,0.08
		c-0.44,0.09-1.08,0.3-1.83,0.78c-0.34,0.25-0.77,0.54-1.13,0.94c-0.18,0.19-0.4,0.4-0.58,0.63c-0.17,0.24-0.34,0.49-0.52,0.75
		c-0.09,0.13-0.19,0.27-0.27,0.41c-0.07,0.14-0.14,0.29-0.21,0.44c-0.14,0.31-0.29,0.62-0.44,0.94c-0.23,0.65-0.45,1.36-0.62,2.11
		c-0.11,0.73-0.27,1.53-0.31,2.33c-0.02,0.79-0.06,1.63-0.02,2.46C381.93,592.73,382.02,593.58,382.12,594.46z"/>
	<path class="st0" d="M402.17,599.09c0.12,0.73,0.29,1.47,0.45,2.23c0.14,0.77,0.43,1.51,0.65,2.28c0.12,0.38,0.25,0.77,0.37,1.16
		c0.13,0.38,0.28,0.7,0.42,1.05c0.28,0.69,0.55,1.39,0.86,2.08c0.28,0.67,0.56,1.34,0.85,2.01c0.28,0.63,0.57,1.25,0.76,1.89
		c0.21,0.63,0.47,1.25,0.68,1.87c0.14,0.62,0.32,1.24,0.5,1.84c0.11,0.31,0.13,0.6,0.18,0.9c0.04,0.3,0.11,0.6,0.17,0.89l0.09,0.44
		c0.02,0.15,0.02,0.29,0.03,0.43c0.01,0.29,0.04,0.57,0.07,0.86c0.1,0.58,0,1.11,0.02,1.66c-0.03,1.09-0.21,2.11-0.46,3.07
		c-0.1,0.49-0.31,0.92-0.44,1.37c-0.16,0.44-0.37,0.83-0.54,1.23c-0.21,0.38-0.4,0.74-0.58,1.07c-0.21,0.33-0.4,0.63-0.58,0.9
		c-0.19,0.27-0.37,0.51-0.52,0.72c-0.16,0.21-0.3,0.38-0.42,0.52c-0.24,0.27-0.38,0.43-0.38,0.43s0.2-0.01,0.57-0.1
		c0.37-0.1,0.91-0.24,1.58-0.52c0.33-0.14,0.68-0.33,1.08-0.54c0.37-0.23,0.77-0.5,1.2-0.79c0.4-0.32,0.83-0.68,1.25-1.09
		c0.2-0.21,0.4-0.44,0.61-0.67c0.21-0.24,0.43-0.47,0.61-0.75c0.77-1.06,1.48-2.35,1.95-3.81c0.22-0.73,0.48-1.5,0.56-2.29
		c0.06-0.4,0.12-0.8,0.17-1.21c0.02-0.2,0.05-0.41,0.07-0.62l0-0.61c-0.01-0.81,0.02-1.67-0.09-2.49c-0.11-0.82-0.23-1.65-0.39-2.49
		c-0.2-0.81-0.43-1.61-0.67-2.41c-0.13-0.39-0.22-0.82-0.39-1.19l-0.48-1.14l-0.5-1.13l-0.46-1.01c-0.32-0.68-0.67-1.35-1-2.02
		c-0.16-0.33-0.35-0.68-0.48-0.98c-0.14-0.3-0.28-0.6-0.41-0.89c-0.26-0.6-0.58-1.17-0.82-1.77c-0.25-0.6-0.47-1.19-0.74-1.77
		c-0.21-0.57-0.39-1.14-0.6-1.69c-0.2-0.55-0.3-1.08-0.48-1.61c-0.16-0.52-0.2-1.01-0.33-1.51c-0.08-0.48-0.11-0.94-0.16-1.39
		c0.02-0.42-0.03-0.88,0.03-1.25c0.02-0.2,0.04-0.39,0.07-0.58c0.03-0.18,0.09-0.35,0.12-0.53c0.07-0.36,0.22-0.64,0.32-0.94
		c0.27-0.54,0.54-1,0.79-1.25c0.23-0.28,0.39-0.41,0.39-0.41s-0.05,0-0.15,0c-0.1,0.01-0.25,0.02-0.43,0.07
		c-0.38,0.08-0.94,0.26-1.59,0.67c-0.3,0.22-0.67,0.47-0.98,0.82c-0.16,0.17-0.35,0.34-0.5,0.55c-0.15,0.21-0.3,0.43-0.45,0.65
		c-0.08,0.12-0.17,0.23-0.23,0.35c-0.06,0.13-0.12,0.25-0.19,0.38c-0.12,0.27-0.25,0.54-0.39,0.82c-0.2,0.56-0.39,1.19-0.54,1.83
		c-0.1,0.63-0.23,1.33-0.27,2.02c-0.02,0.68-0.05,1.42-0.02,2.14C402.01,597.59,402.09,598.33,402.17,599.09z"/>
</g>
<g>
	<path class="st0" d="M353.23,163.01c0,11.5,4.78,22.45,13.17,30.29h56.55c8.39-7.84,13.17-18.79,13.17-30.29
		c0-0.78-0.03-1.56-0.07-2.34H353.3C353.26,161.44,353.23,162.22,353.23,163.01z"/>
	<path class="st0" d="M439,119.33v-16h-87.44v14.76l-1.38,1.42c-11.28,11.64-17.5,26.96-17.5,43.15c0,17.93,7.77,34.98,21.32,46.77
		l1.41,1.23h78.53l1.41-1.23c13.55-11.79,21.32-28.84,21.32-46.77c0-16.19-6.21-31.51-17.5-43.15L439,119.33z M430.15,200.67H359.2
		c-10.53-9.83-16.53-23.58-16.53-38c0-12.88,4.69-25.11,13.26-34.67h77.48c8.57,9.55,13.26,21.78,13.26,34.67
		C446.68,177.09,440.68,190.84,430.15,200.67z"/>
	<path class="st0" d="M474.91,88.99c-8.2-7.71-23.15-7.29-25.78-7.15h-28.21C414.63,74.59,405.35,70,395,70
		c-6.76,0-13.06,1.96-18.38,5.34H325.5l1.18,4.35l17.28,0.32l20.55,8.54c-1.16,2.24-2.09,4.62-2.74,7.11h51.56v0.17h36l0.44-0.01
		c3.52-0.22,12.31,0.32,15.56,3.37c0.61,0.57,1.01,1.21,1.01,2.48v45.67h14v-45.67C480.33,96.7,478.46,92.32,474.91,88.99z"/>
</g>
<g>
	<path class="st0" d="M665.02,115.17h-57.74l24.84,107h32.9h1h32.04l24.21-107h-56.26H665.02z M688.77,211h-23.1h-0.72h-23.72
		l-17.91-84.9h41.62h0.72h40.55L688.77,211z"/>
	<path class="st0" d="M722.27,107.25c0,0,0.1-7.86,0.1-8.22c0-4.87-5.45-8.81-12.18-8.81h-3.21V73.76h-11.32V65h-18.58v8.76h-52.78
		v16.46h-4.86c-6.73,0-12.18,3.95-12.18,8.81c0,0.36,0.1,8.22,0.1,8.22H722.27z M634,81.5h62.5v5H634V81.5z"/>
</g>
<g>
	<rect x="147.83" y="130.21" class="st0" width="17.92" height="5.71"/>
	<rect x="99.01" y="130.21" class="st0" width="17.92" height="5.71"/>
	<rect x="123.42" y="130.21" class="st0" width="17.92" height="5.71"/>
	<path class="st0" d="M168.07,81.24C168,67.84,152.82,57,134.09,57c-18.73,0-33.91,10.84-33.98,24.24H63.63v5.9v29.48v104.52h137.5
		V116.62V87.14v-5.9H168.07z M133.56,68.81c5.28,0,9.57,4.15,9.57,9.26c0,5.12-4.28,9.26-9.57,9.26c-5.28,0-9.57-4.15-9.57-9.26
		C123.99,72.95,128.28,68.81,133.56,68.81z M189.96,121.46v3.09v5.03v0.63h-17.72v5.71h17.72v3.15v71.18H74.8V137.5v-1.58h17.72
		v-5.71H74.8v-0.63v-5.03v-3.09v-4.84h115.16V121.46z"/>
	<path class="st0" d="M88.72,171.1c-0.71,1.35-1.07,2.78-1.07,4.29c0,1.08,0.19,2.12,0.57,3.12c0.47,1.26,1.16,2.24,2.08,2.93
		c0.92,0.7,2.13,1.15,3.64,1.36c0.29,0.04,0.51,0.07,0.67,0.07c0.09,0,0.22,0,0.4,0c0.07,0,0.19,0,0.36,0c0.17,0,0.43,0,0.77,0
		c0.86,0,1.63-0.11,2.29-0.33c0.66-0.22,1.32-0.53,1.97-0.94l0.3-1.37l-0.38,0.14c-0.11,0.02-0.31,0.07-0.59,0.14
		c-0.29,0.07-0.56,0.1-0.81,0.1c-1.06,0-2.03-0.42-2.9-1.25c-0.87-0.84-1.61-2.08-2.23-3.72c-0.2-0.55-0.34-1.01-0.42-1.37
		c-0.08-0.37-0.15-0.8-0.2-1.3c-0.05-0.5-0.08-0.94-0.08-1.3c0-2.17,0.65-3.26,1.94-3.26c0.22,0,0.42,0.02,0.61,0.05
		c0.19,0.03,0.42,0.14,0.7,0.33c0.28,0.18,0.61,0.45,0.98,0.79l0.43,0.45l0.22,0.24l0.16,0.17l0.94-0.93l-2.18-3.16h-0.49
		c-0.86,0-1.67,0.12-2.41,0.36c-0.75,0.24-1.45,0.58-2.12,1.01C90.48,168.62,89.43,169.75,88.72,171.1z"/>
	<path class="st0" d="M110.11,166.4c-2.37,0-4.19,0.75-5.44,2.25c-1.25,1.5-1.87,3.5-1.87,5.99c0,2.47,0.62,4.46,1.87,5.96
		c1.25,1.5,3.03,2.25,5.35,2.25h2.32c1.98,0,3.59-0.58,4.83-1.75c1.15-1.08,1.9-2.56,2.24-4.46c0.14-0.8,0.22-1.54,0.22-2.23
		c0-2.38-0.64-4.29-1.92-5.73c-1.33-1.51-3.15-2.27-5.45-2.27H110.11z M112.86,170.6c0.16,0.74,0.28,1.63,0.35,2.66
		c0,0.27,0,0.55,0,0.82c0,0.27,0,0.55,0,0.82c0,0.11,0,0.27,0,0.46c0,0.2,0,0.38,0,0.57c0,0.37-0.03,0.78-0.09,1.24
		c-0.06,0.46-0.12,0.82-0.18,1.1c-0.18,1.08-0.4,1.82-0.67,2.23c-0.27,0.41-0.63,0.62-1.08,0.62c-0.45,0-0.81-0.21-1.07-0.63
		c-0.26-0.42-0.49-1.16-0.69-2.21c-0.11-0.59-0.18-1.01-0.22-1.24c-0.04-0.23-0.05-0.61-0.05-1.13v-1.24v-1.44
		c0.07-1.01,0.19-1.88,0.35-2.63c0.16-0.74,0.32-1.27,0.49-1.6c0.31-0.53,0.7-0.79,1.19-0.79c0.52,0,0.92,0.26,1.19,0.79
		C112.54,169.33,112.7,169.86,112.86,170.6z"/>
	<path class="st0" d="M123.64,178.79l-0.03,0.62v0.18l-0.08,0.39c-0.11,0.35-0.31,0.62-0.59,0.81l-0.13,0.07l-0.11,0.07v1.58h7.63
		v-1.65h-0.11l-0.16-0.1c-0.38-0.25-0.59-0.64-0.65-1.17v-0.17v-0.62V168.7h1.59h0.51h0.97v10.09l-0.03,0.62v0.18l-0.08,0.39
		c-0.11,0.35-0.31,0.62-0.59,0.81l-0.13,0.07l-0.11,0.07v1.58h7.63v-1.65h-0.11l-0.16-0.1c-0.38-0.25-0.59-0.64-0.65-1.17v-0.17
		v-0.62V168.7h2.1v-1.75h-2.08v-5.52v-0.69l0.03-0.34l0.03-0.28c0.02-0.21,0.05-0.38,0.11-0.52c0.04-0.09,0.08-0.2,0.13-0.31
		c0.11-0.14,0.24-0.21,0.4-0.21c0.22,0,0.38,0.1,0.5,0.3c0.12,0.2,0.2,0.47,0.26,0.82l0.08,0.38l0.05,0.38h1.24v-3.22l-0.3-0.1
		l-0.24-0.1c-0.34-0.12-0.61-0.19-0.8-0.23c-0.19-0.03-0.45-0.05-0.8-0.05c-2.1,0-3.7,0.56-4.8,1.69c-1.1,1.12-1.65,2.86-1.65,5.2
		l-0.03,1.14v1.65h-1h-0.51h-1.56v-5.52v-0.69l0.03-0.34l0.03-0.28c0.02-0.21,0.05-0.38,0.11-0.52c0.04-0.09,0.08-0.2,0.13-0.31
		c0.11-0.14,0.24-0.21,0.4-0.21c0.22,0,0.38,0.1,0.5,0.3c0.12,0.2,0.2,0.47,0.26,0.82l0.08,0.38l0.05,0.38h1.24v-3.22l-0.3-0.1
		l-0.24-0.1c-0.34-0.12-0.61-0.19-0.8-0.23c-0.19-0.03-0.45-0.05-0.8-0.05c-2.1,0-3.7,0.56-4.8,1.69c-1.1,1.12-1.65,2.86-1.65,5.2
		l-0.03,1.14v1.65h-1.51v1.75h1.48V178.79z"/>
	<path class="st0" d="M149.29,182.8c0.16,0,0.39,0.02,0.67,0.07c0.29,0.05,0.67,0.07,1.16,0.07c2.01,0,3.67-0.44,4.96-1.33
		c1.29-0.89,2.21-2.13,2.75-3.72l-1.03-0.78l-0.13,0.27l-0.14,0.27l-0.35,0.54c-0.16,0.25-0.33,0.47-0.51,0.66
		c-0.18,0.19-0.37,0.38-0.57,0.56c-0.47,0.41-0.91,0.69-1.34,0.85c-0.42,0.16-0.89,0.24-1.39,0.24c-1.01,0-1.91-0.37-2.71-1.13
		c-0.8-0.75-1.34-1.77-1.63-3.07c-0.04-0.16-0.08-0.38-0.14-0.67c-0.05-0.28-0.08-0.56-0.08-0.84H159v-0.34l-0.03-0.38l-0.13-1.27
		c-0.34-2.1-1.03-3.69-2.05-4.77c-1.1-1.14-2.62-1.72-4.56-1.72c-0.23,0-0.46,0-0.69,0c-0.23,0-0.45,0-0.69,0c-0.11,0-0.29,0-0.55,0
		c-0.26,0-0.46,0-0.61,0c-2.28,0-4.05,0.77-5.29,2.3c-1.17,1.44-1.75,3.42-1.75,5.94c0,2.36,0.56,4.25,1.69,5.68
		C145.46,181.68,147.11,182.53,149.29,182.8z M148.91,172.41c0.11-1.18,0.24-2.04,0.4-2.59c0.16-0.54,0.37-0.95,0.62-1.23
		c0.25-0.27,0.54-0.41,0.86-0.41c0.59,0,1.02,0.31,1.27,0.92c0.07,0.21,0.13,0.42,0.19,0.63c0.05,0.22,0.12,0.56,0.19,1.04
		l0.13,1.67v0.54h-3.67V172.41z"/>
	<path class="st0" d="M164.03,168.63c-1.17,1.44-1.75,3.42-1.75,5.94c0,2.36,0.56,4.25,1.69,5.68c1.12,1.43,2.77,2.28,4.95,2.56
		c0.16,0,0.39,0.02,0.67,0.07c0.29,0.05,0.67,0.07,1.16,0.07c2.01,0,3.67-0.44,4.96-1.33c1.29-0.89,2.21-2.13,2.75-3.72l-1.03-0.78
		l-0.13,0.27l-0.14,0.27l-0.35,0.54c-0.16,0.25-0.33,0.47-0.51,0.66c-0.18,0.19-0.37,0.38-0.57,0.56c-0.47,0.41-0.91,0.69-1.33,0.85
		c-0.42,0.16-0.89,0.24-1.39,0.24c-1.01,0-1.91-0.37-2.71-1.13c-0.8-0.75-1.34-1.77-1.63-3.07c-0.04-0.16-0.08-0.38-0.13-0.67
		c-0.05-0.28-0.08-0.56-0.08-0.84h10.17v-0.34l-0.03-0.38l-0.13-1.27c-0.34-2.1-1.03-3.69-2.05-4.77c-1.1-1.14-2.62-1.72-4.56-1.72
		c-0.23,0-0.46,0-0.69,0c-0.23,0-0.45,0-0.69,0c-0.11,0-0.29,0-0.55,0c-0.26,0-0.46,0-0.61,0
		C167.03,166.33,165.27,167.1,164.03,168.63z M168.54,172.41c0.11-1.18,0.24-2.04,0.4-2.59c0.16-0.54,0.37-0.95,0.62-1.23
		c0.25-0.27,0.54-0.41,0.86-0.41c0.59,0,1.02,0.31,1.27,0.92c0.07,0.21,0.13,0.42,0.19,0.63c0.05,0.22,0.12,0.56,0.19,1.04
		l0.13,1.67v0.54h-3.67V172.41z"/>
</g>
<path class="st0" d="M141.49,653.98c-7.33,0.46-15.31,1.52-21.62,3.73c-7.86-10.72-30.62-38.94-61.56-52.59l-3.64,8.23
	c33.04,14.59,57.04,48.29,60.27,52.97c2.68,9.18-2.4,18.24-7.18,24.28c-11.27-2.93-24.31,3.32-31.02,15.66
	c-7.71,14.18-4.13,31.02,8,37.62c12.13,6.6,28.21,0.45,35.92-13.72c6.96-12.8,4.72-27.76-4.7-35.41c3.99-5.35,7.89-12.47,8.63-20.43
	c4.33,3.82,9.24,9.08,11.44,14.73c-0.24,0.23-0.49,0.45-0.71,0.7c-7.27,8.07-5.46,21.54,4.03,30.09c9.49,8.54,23.08,8.92,30.34,0.85
	c7.27-8.07,5.46-21.55-4.03-30.09c-6.45-5.81-14.8-7.83-21.76-6c-3.51-7.93-10.3-14.61-15.51-18.89c3.79-0.81,8.02-1.33,12.15-1.64
	c44.12,45.4,82.61-13.41,82.61-13.41C183.02,618.06,152.8,641.96,141.49,653.98z M116.25,707.99c2.03,6.43,1.94,21.21-12.98,31.1
	l-2.44-5.11c14.16-9.39,10.26-22.8,10.08-23.37L116.25,707.99z M150.37,688.48c13.72,3.48,17.71,14.45,17.9,19.77l-4.67-0.56
	c-0.02-0.47-0.68-11.47-13.69-14.77L150.37,688.48z"/>
<g>
	<path class="st0" d="M618.07,392.48c1.89,11.53,8.21,21.59,17.18,28.33h53.27c8.97-6.74,15.29-16.8,17.18-28.33H618.07z"/>
	<path class="st0" d="M762.63,367.96c-2.51-2.64-6.01-3.98-10.41-3.98c-7.75,0-17.38,4.34-23.83,7.82
		c-0.76-3.47-1.78-6.89-3.09-10.23l-1.49-3.81H599.95l-1.49,3.81c-3.1,7.93-4.67,16.27-4.67,24.79c0,24.82,13.35,46.57,33.24,58.47
		v11.63h74.36v-14.68c6.77-4.84,12.62-10.89,17.24-17.82c3.8,1.11,7.47,1.67,10.94,1.67c31.57,0,36.58-43,36.78-44.83l0.02-0.28
		C766.64,375.08,765.39,370.86,762.63,367.96z M695.52,431.21h-67.28c-13.63-10.24-22.46-26.54-22.46-44.86
		c0-5.66,0.84-11.23,2.51-16.6h107.17c1.51,4.87,2.34,9.9,2.48,15.01l-5.98,26.82C708.05,419.32,702.4,426.04,695.52,431.21z
		 M756.38,379.84c-0.29,2.34-4.82,35.78-26.83,35.78c-1.86,0-3.83-0.23-5.89-0.68c4.04-8.7,6.31-18.38,6.31-28.59
		c0-1.31-0.05-2.61-0.12-3.9c5.79-3.38,15.89-8.47,22.37-8.47c1.06,0,2.47,0.15,3.16,0.87
		C756.12,375.63,756.49,377.44,756.38,379.84z"/>
</g>
<g>
	<path class="st0" d="M624.96,629.15c-3.98,0-7.21,3.23-7.21,7.21c0,3.98,3.23,7.21,7.21,7.21c3.98,0,7.21-3.23,7.21-7.21
		C632.17,632.38,628.94,629.15,624.96,629.15z"/>
	<path class="st0" d="M688.32,629.15c-3.98,0-7.21,3.23-7.21,7.21c0,3.98,3.23,7.21,7.21,7.21c3.98,0,7.21-3.23,7.21-7.21
		C695.53,632.38,692.3,629.15,688.32,629.15z"/>
	<circle class="st0" cx="710.68" cy="636.37" r="7.21"/>
	<path class="st0" d="M733.42,657.72v-42.34h-28.36c0.01-0.24,0.03-0.48,0.03-0.72c0-4.52-2.69-8.18-6-8.18h-64.02
		c-3.32,0-6,3.66-6,8.18c0,0.24,0.01,0.48,0.03,0.72h-28.12v42.34h13.98v76.66h-5.63c-5.53,0-10.01,4.48-10.01,10.01v16.76h133.12
		V744.4c0-5.53-4.48-10.01-10.01-10.01h-4.74v-76.66H733.42z M659.54,728.4c-3.61-2.72-5.96-7.04-5.96-11.9
		c0-1.5,0.22-2.98,0.67-4.4h28.42c0.4,1.29,0.62,2.62,0.66,3.98l-1.58,7.11c-1.04,2.05-2.54,3.83-4.36,5.21H659.54z M708.36,734.39
		h-29.43v-3.18c1.8-1.28,3.35-2.89,4.57-4.73c1.01,0.29,1.98,0.44,2.9,0.44c8.37,0,9.7-11.4,9.75-11.89l0.01-0.07
		c0.07-1.44-0.26-2.56-0.99-3.33c-0.67-0.7-1.59-1.05-2.76-1.05c-2.06,0-4.61,1.15-6.32,2.07c-0.2-0.92-0.47-1.83-0.82-2.71
		l-0.4-1.01h-32.85l-0.4,1.01c-0.82,2.1-1.24,4.31-1.24,6.57c0,6.58,3.54,12.35,8.81,15.5v2.38h-34.95v-76.66h22.81v9.32h8.6
		c0,0.05-0.01,0.1-0.01,0.14c0,3.67,2.98,6.65,6.65,6.65v7.18h10.85v-7.36c2.95-0.69,5.14-3.32,5.14-6.47c0-0.05-0.01-0.1-0.01-0.14
		h8.15v-9.32h21.91V734.39z M686.49,715.47c1.54-0.9,4.21-2.24,5.93-2.24c0.28,0,0.66,0.04,0.84,0.23c0.2,0.21,0.29,0.69,0.27,1.32
		c-0.08,0.62-1.28,9.49-7.11,9.49c-0.49,0-1.02-0.06-1.56-0.18c1.07-2.31,1.67-4.88,1.67-7.58
		C686.52,716.16,686.51,715.81,686.49,715.47z M614.95,648.4h-4.66v-23.7H724.1v23.7h-6.43H614.95z"/>
	<path class="st0" d="M661.85,600.27h9.32v-9.58l-0.02-0.09c0.31-0.38,2.18-2.13,9.88-2.13h25.27c1.64,2.96,4.8,4.97,8.42,4.97
		c5.32,0,9.63-4.31,9.63-9.63c0-5.32-4.31-9.63-9.63-9.63c-3.63,0-6.78,2.01-8.42,4.97h-25.27c-8.59,0-14.22,1.86-17.21,5.7
		c-2.1,2.69-2.12,5.41-1.96,6.77V600.27z"/>
</g>
<path class="st1" d="M800,269.92v-4.96H533.87V0h-4.97v264.97H268.75V0h-4.97v264.97H0v4.96h263.78V526.6H0v4.96h263.78V800h4.97
	V531.56H528.9V800h4.97V531.56H800v-4.96H533.87V269.92H800z M528.9,526.6H268.75V269.92H528.9V526.6z"/>
</svg>
