<?xml version="1.0" encoding="utf-8"?>
<!-- Generator: Adobe Illustrator 25.4.0, SVG Export Plug-In . SVG Version: 6.00 Build 0)  -->
<svg version="1.1" id="레이어_1" xmlns="http://www.w3.org/2000/svg" xmlns:xlink="http://www.w3.org/1999/xlink" x="0px"
	 y="0px" viewBox="0 0 135.82 153.21" style="enable-background:new 0 0 135.82 153.21;" xml:space="preserve">
<style type="text/css">
	.st0{fill:#FFFFFF;}
	.st1{fill:#424242;}
	.st2{fill:#2B2B2B;}
	.st3{fill:#575757;}
	.st4{fill:#4F4F4F;}
	.st5{fill:#474747;}
	.st6{fill:none;}
</style>
<g>
	<path class="st0" d="M81.26,97.45h-61.7c-1.93,0-3.49-1.77-3.49-3.95c0-2.18,1.56-3.95,3.49-3.95h61.7c1.93,0,3.49,1.77,3.49,3.95
		C84.75,95.68,83.19,97.45,81.26,97.45z"/>
	<path class="st5" d="M61.21,147.6c-1.16,0.02-2.78-0.21-3.96-1.36c-3-2.92-1.27-9.76,3.76-14.94l54.67-56.13
		c2.2-2.26,4.45-3.08,5.7-3.1c0.34,0,0.81,0.05,1.08,0.31l6.89,6.71c0.83,0.81,0.21,3.96-2.61,6.86l-54.66,56.13
		C68.8,145.44,64.64,147.56,61.21,147.6L61.21,147.6z"/>
	<g>
		<g>
			<path class="st5" d="M125.47,70.11c0,0,1.13-1.13,2.5-2.5c1.38-1.38,4.09-0.92,6.03,1.02c1.94,1.94,2.4,4.65,1.02,6.03
				c-1.38,1.38-2.5,2.5-2.5,2.5"/>
		</g>
		<path class="st5" d="M56.8,147.56c-0.44-0.43-0.76-0.94-1-1.52c-0.94,0.92-3.21,3.45-4.23,7.17c3.87-1.17,6.39-3.68,7.17-4.55
			C58.06,148.46,57.38,148.12,56.8,147.56z"/>
	</g>
	
		<rect x="108.14" y="83.52" transform="matrix(0.7071 -0.7071 0.7071 0.7071 -25.3343 109.8829)" class="st0" width="23.67" height="4"/>
	<path class="st5" d="M86.42,135.67h16.71c2.75,0,5-2.25,5-5V112.7"/>
	<g>
		<path class="st5" d="M108.13,5c0-2.75-2.25-5-5-5H5C2.25,0,0,2.25,0,5v125.67c0,2.75,2.25,5,5,5h45.24l57.89-59.89V5z"/>
	</g>
	<rect x="25.56" y="21.41" class="st0" width="59.19" height="9.5"/>
	<rect x="15.56" y="48.91" class="st0" width="79.19" height="9.5"/>
	<rect x="15.56" y="76.02" class="st0" width="79.19" height="9.5"/>
	<polygon class="st0" points="72.5,112.64 15.56,112.64 15.56,103.14 81.68,103.14 	"/>
</g>
</svg>
