<?xml version="1.0" encoding="utf-8"?>
<!-- Generator: Adobe Illustrator 25.4.0, SVG Export Plug-In . SVG Version: 6.00 Build 0)  -->
<svg version="1.1" id="레이어_1" xmlns="http://www.w3.org/2000/svg" xmlns:xlink="http://www.w3.org/1999/xlink" x="0px"
	 y="0px" viewBox="0 0 127.31 127.77" style="enable-background:new 0 0 127.31 127.77;" xml:space="preserve">
<style type="text/css">
	.st0{fill:#FFFFFF;}
	.st1{fill:#424242;}
	.st2{fill:#2B2B2B;}
	.st3{fill:#575757;}
	.st4{fill:#4F4F4F;}
	.st5{fill:#474747;}
	.st6{fill:none;}
</style>
<g>
	<g>
		<path class="st5" d="M120.67,39.08c0,2.32-1.34,4.21-3,4.21h-4.4c-1.65,0-2.99-1.88-2.99-4.21V18.09c0-2.33,1.34-4.21,2.99-4.21
			h4.4c1.65,0,3,1.88,3,4.21V39.08z"/>
		<path class="st5" d="M119.67,106.99c0,1.93-1.74,3.5-3.89,3.5h-0.61c-2.15,0-3.89-1.57-3.89-3.5V41.55c0-1.93,1.74-3.5,3.89-3.5
			h0.61c2.15,0,3.89,1.57,3.89,3.5V106.99z"/>
		<g>
			<path class="st5" d="M123.66,40.27c-0.55,0-1-0.45-1-1V20.93l-3.61-2.85c-0.43-0.34-0.51-0.97-0.17-1.41
				c0.34-0.43,0.97-0.51,1.41-0.16l3.99,3.15c0.24,0.19,0.38,0.48,0.38,0.79v18.83C124.66,39.82,124.22,40.27,123.66,40.27z"/>
		</g>
	</g>
	<g>
		<path class="st0" d="M124.81,71.03c0,1.88-1.52,3.41-3.41,3.41h-16.72c-1.88,0-3.41-1.53-3.41-3.41V54.35
			c0-1.88,1.53-3.41,3.41-3.41h16.72c1.88,0,3.41,1.53,3.41,3.41V71.03z"/>
		<path class="st5" d="M121.4,76.94h-16.72c-3.26,0-5.91-2.65-5.91-5.91V54.35c0-3.26,2.65-5.91,5.91-5.91h16.72
			c3.26,0,5.91,2.65,5.91,5.91v16.68C127.31,74.29,124.66,76.94,121.4,76.94z M104.68,53.44c-0.5,0-0.91,0.41-0.91,0.91v16.68
			c0,0.5,0.41,0.91,0.91,0.91h16.72c0.5,0,0.91-0.41,0.91-0.91V54.35c0-0.5-0.41-0.91-0.91-0.91H104.68z"/>
	</g>
	<path class="st5" d="M107.31,120.77c0,3.85-3.15,7-7,7H7c-3.85,0-7-3.15-7-7V7c0-3.85,3.15-7,7-7h93.31c3.85,0,7,3.15,7,7V120.77z"
		/>
	<path class="st0" d="M85.42,36.38c0,2.75-2.25,5-5,5H26.89c-2.75,0-5-2.25-5-5v-9.74c0-2.75,2.25-5,5-5h53.53c2.75,0,5,2.25,5,5
		V36.38z"/>
</g>
</svg>
