<svg width="2321" height="293" viewBox="0 0 2321 293" fill="none" xmlns="http://www.w3.org/2000/svg">
<g clip-path="url(#clip0_593_2)">
<path d="M19.1096 187.284C20.8684 187.284 22.6117 187.325 24.3138 187.402C28.8784 89.0706 110.325 10.4628 209.777 10.4628C287.376 10.4628 355.866 58.0689 383.213 129.89C392.842 127.802 402.632 126.719 412.38 126.719C445.745 126.719 477.311 138.497 502.321 160.093C532.824 134.609 571.198 120.665 611.444 120.665C676.412 120.665 735.019 156.71 764.419 214.743C765.151 216.192 765.868 217.662 766.544 219.152C788.108 131.396 858.765 66.8867 942.378 66.8867C1005.14 66.8867 1063.61 103.917 1096.77 164.094C1110.65 159.242 1124.85 156.787 1139.06 156.787C1187.44 156.787 1232.83 184.69 1259.81 230.306C1285.5 212.479 1314.8 203.099 1345.17 203.099C1390.64 203.099 1432.8 224.138 1463.17 259.776C1482.83 249.158 1504.93 243.61 1527.56 243.61C1531.82 243.61 1535.79 243.764 1539.48 244.115C1542.11 236.535 1545.44 229.109 1549.42 221.973C1573.5 178.734 1619.32 151.873 1668.99 151.873C1710.17 151.873 1748.7 170.226 1774.62 201.609C1800.55 170.226 1839.04 151.853 1880.24 151.853C1882.1 151.853 1883.96 151.889 1885.79 151.987C1891.15 67.2735 1961.79 0 2047.84 0C2137.37 0 2210.19 72.8065 2210.19 162.315C2210.19 170.071 2209.57 177.976 2208.35 185.984C2210.71 185.871 2213.05 185.809 2215.35 185.809C2248.2 185.809 2279.95 197.644 2304.75 219.147C2310.67 224.252 2316.13 229.842 2321 235.777V293H1485.73H1422.17H782.811H760.416H0V188.599C6.28733 187.727 12.6675 187.284 19.1096 187.284Z" fill="white"/>
</g>
<defs>
<clipPath id="clip0_593_2">
<rect width="2321" height="293" fill="white"/>
</clipPath>
</defs>
</svg>
