<?xml version="1.0" encoding="utf-8"?>
<!-- Generator: Adobe Illustrator 25.4.0, SVG Export Plug-In . SVG Version: 6.00 Build 0)  -->
<svg version="1.1" id="Layer_1" xmlns="http://www.w3.org/2000/svg" xmlns:xlink="http://www.w3.org/1999/xlink" x="0px" y="0px"
	 viewBox="0 0 50.36 62.72" style="enable-background:new 0 0 50.36 62.72;" xml:space="preserve">
<style type="text/css">
	.st0{fill:#4D4D4D;}
</style>
<g>
	<path class="st0" d="M25.18,62.72l-3.95-3.96C20.36,57.89,0,37.29,0,19.22c0-1.54,0.08-3.07,0.23-4.55L0.81,9.1L6.35,9.7
		c0.07,0,0.31,0.02,0.67,0.02c2.42,0,8.65-0.58,14.24-5.94L25.2,0l1.27,1.26l2.63,2.52c5.59,5.36,11.82,5.94,14.24,5.94
		c0.4,0,0.65-0.02,0.7-0.02l5.48-0.52l0.61,5.48c0.15,1.49,0.23,3.02,0.23,4.56c0,18.07-20.36,38.67-21.23,39.54L25.18,62.72z
		 M4.13,13.2l-0.19,1.86c-0.14,1.35-0.21,2.75-0.21,4.16c0,16.54,19.32,36.08,20.14,36.91l1.32,1.32l1.32-1.32
		c0.82-0.82,20.14-20.36,20.14-36.91c0-1.41-0.07-2.81-0.21-4.16l-0.2-1.83l-1.95,0.18c-0.14,0.01-0.46,0.03-0.93,0.03
		c-2.87,0-10.25-0.68-16.81-6.97l-1.35-1.29L25.15,5.2l0,0l-1.32,1.27c-6.57,6.29-13.95,6.97-16.81,6.97c-0.45,0-0.77-0.02-0.9-0.03
		L5.98,13.4L4.13,13.2z"/>
	<path class="st0" d="M44.57,15.25c0,0-10.4,1.12-19.33-7.44c-0.02,0.02-0.04,0.04-0.06,0.06c-0.02-0.02-0.04-0.04-0.06-0.06
		c-8.93,8.56-19.33,7.44-19.33,7.44c-0.13,1.25-0.2,2.57-0.2,3.97c0,15.96,19.6,35.6,19.6,35.6s19.6-19.64,19.6-35.6
		C44.77,17.82,44.7,16.5,44.57,15.25z M17.95,34.84l-4.93-6.99l1.63-1.15l3.74,5.31l17.51-13.05l1.2,1.6L17.95,34.84z"/>
</g>
</svg>
