<?xml version="1.0" encoding="utf-8"?>
<!-- Generator: Adobe Illustrator 25.4.0, SVG Export Plug-In . SVG Version: 6.00 Build 0)  -->
<svg version="1.1" xmlns="http://www.w3.org/2000/svg" xmlns:xlink="http://www.w3.org/1999/xlink" x="0px" y="0px"
	 viewBox="0 0 54.08 67.76" style="enable-background:new 0 0 54.08 67.76;" xml:space="preserve">
<style type="text/css">
	.st0{display:none;}
	.st1{display:inline;}
	.st2{opacity:0.5;}
	.st3{fill:none;stroke:#E62AFF;stroke-width:0.25;stroke-miterlimit:10;}
	.st4{fill:none;stroke:#000000;stroke-width:2;stroke-linecap:round;stroke-linejoin:round;stroke-miterlimit:10;}
	.st5{fill:none;stroke:#181818;stroke-width:2;stroke-linecap:round;stroke-linejoin:round;stroke-miterlimit:10;}
	.st6{fill:none;stroke:#FFFFFF;stroke-width:2;stroke-miterlimit:10;}
	.st7{fill:none;stroke:#000000;stroke-width:2;stroke-linecap:round;stroke-linejoin:round;}
	.st8{fill:none;stroke:#000000;stroke-width:2;stroke-linecap:round;stroke-linejoin:round;stroke-dasharray:2.8476,1.8984;}
</style>
<g id="guide" class="st0">
	<g class="st1">
		<g class="st2">
			<g>
				<g>
					<g>
						<rect x="-1160.68" y="-935.15" class="st3" width="67.5" height="67.5"/>
						<circle class="st3" cx="-1126.93" cy="-901.4" r="33.75"/>
						<circle class="st3" cx="-1126.93" cy="-901.4" r="16.88"/>
						<line class="st3" x1="-1126.93" y1="-867.65" x2="-1126.93" y2="-935.15"/>
						<line class="st3" x1="-1160.68" y1="-901.4" x2="-1093.18" y2="-901.4"/>
					</g>
				</g>
			</g>
		</g>
		<g class="st2">
			<g>
				<g>
					<g>
						<rect x="-991.93" y="-935.15" class="st3" width="67.5" height="67.5"/>
						<circle class="st3" cx="-958.18" cy="-901.4" r="33.75"/>
						<circle class="st3" cx="-958.18" cy="-901.4" r="16.88"/>
						<line class="st3" x1="-958.18" y1="-867.65" x2="-958.18" y2="-935.15"/>
						<line class="st3" x1="-991.93" y1="-901.4" x2="-924.43" y2="-901.4"/>
					</g>
				</g>
			</g>
		</g>
		<g class="st2">
			<g>
				<g>
					<g>
						<rect x="-823.18" y="-935.15" class="st3" width="67.5" height="67.5"/>
						<circle class="st3" cx="-789.43" cy="-901.4" r="33.75"/>
						<circle class="st3" cx="-789.43" cy="-901.4" r="16.88"/>
						<line class="st3" x1="-789.43" y1="-867.65" x2="-789.43" y2="-935.15"/>
						<line class="st3" x1="-823.18" y1="-901.4" x2="-755.68" y2="-901.4"/>
					</g>
				</g>
			</g>
		</g>
		<g class="st2">
			<g>
				<g>
					<g>
						<rect x="-654.43" y="-935.15" class="st3" width="67.5" height="67.5"/>
						<circle class="st3" cx="-620.68" cy="-901.4" r="33.75"/>
						<circle class="st3" cx="-620.68" cy="-901.4" r="16.88"/>
						<line class="st3" x1="-620.68" y1="-867.65" x2="-620.68" y2="-935.15"/>
						<line class="st3" x1="-654.43" y1="-901.4" x2="-586.93" y2="-901.4"/>
					</g>
				</g>
			</g>
		</g>
		<g class="st2">
			<g>
				<g>
					<g>
						<rect x="-485.68" y="-935.15" class="st3" width="67.5" height="67.5"/>
						<circle class="st3" cx="-451.93" cy="-901.4" r="33.75"/>
						<circle class="st3" cx="-451.93" cy="-901.4" r="16.88"/>
						<line class="st3" x1="-451.93" y1="-867.65" x2="-451.93" y2="-935.15"/>
						<line class="st3" x1="-485.68" y1="-901.4" x2="-418.18" y2="-901.4"/>
					</g>
				</g>
			</g>
		</g>
		<g class="st2">
			<g>
				<g>
					<g>
						<rect x="-316.93" y="-935.15" class="st3" width="67.5" height="67.5"/>
						<circle class="st3" cx="-283.18" cy="-901.4" r="33.75"/>
						<circle class="st3" cx="-283.18" cy="-901.4" r="16.88"/>
						<line class="st3" x1="-283.18" y1="-867.65" x2="-283.18" y2="-935.15"/>
						<line class="st3" x1="-316.93" y1="-901.4" x2="-249.43" y2="-901.4"/>
					</g>
				</g>
			</g>
		</g>
		<g class="st2">
			<g>
				<g>
					<g>
						<rect x="-1160.68" y="-781.4" class="st3" width="67.5" height="67.5"/>
						<circle class="st3" cx="-1126.93" cy="-747.65" r="33.75"/>
						<circle class="st3" cx="-1126.93" cy="-747.65" r="16.88"/>
						<line class="st3" x1="-1126.93" y1="-713.9" x2="-1126.93" y2="-781.4"/>
						<line class="st3" x1="-1160.68" y1="-747.65" x2="-1093.18" y2="-747.65"/>
					</g>
				</g>
			</g>
		</g>
		<g class="st2">
			<g>
				<g>
					<g>
						<rect x="-991.93" y="-781.4" class="st3" width="67.5" height="67.5"/>
						<circle class="st3" cx="-958.18" cy="-747.65" r="33.75"/>
						<circle class="st3" cx="-958.18" cy="-747.65" r="16.88"/>
						<line class="st3" x1="-958.18" y1="-713.9" x2="-958.18" y2="-781.4"/>
						<line class="st3" x1="-991.93" y1="-747.65" x2="-924.43" y2="-747.65"/>
					</g>
				</g>
			</g>
		</g>
		<g class="st2">
			<g>
				<g>
					<g>
						<rect x="-823.18" y="-781.4" class="st3" width="67.5" height="67.5"/>
						<circle class="st3" cx="-789.43" cy="-747.65" r="33.75"/>
						<circle class="st3" cx="-789.43" cy="-747.65" r="16.88"/>
						<line class="st3" x1="-789.43" y1="-713.9" x2="-789.43" y2="-781.4"/>
						<line class="st3" x1="-823.18" y1="-747.65" x2="-755.68" y2="-747.65"/>
					</g>
				</g>
			</g>
		</g>
		<g class="st2">
			<g>
				<g>
					<g>
						<rect x="-654.43" y="-781.4" class="st3" width="67.5" height="67.5"/>
						<circle class="st3" cx="-620.68" cy="-747.65" r="33.75"/>
						<circle class="st3" cx="-620.68" cy="-747.65" r="16.88"/>
						<line class="st3" x1="-620.68" y1="-713.9" x2="-620.68" y2="-781.4"/>
						<line class="st3" x1="-654.43" y1="-747.65" x2="-586.93" y2="-747.65"/>
					</g>
				</g>
			</g>
		</g>
		<g class="st2">
			<g>
				<g>
					<g>
						<rect x="-485.68" y="-781.4" class="st3" width="67.5" height="67.5"/>
						<circle class="st3" cx="-451.93" cy="-747.65" r="33.75"/>
						<circle class="st3" cx="-451.93" cy="-747.65" r="16.88"/>
						<line class="st3" x1="-451.93" y1="-713.9" x2="-451.93" y2="-781.4"/>
						<line class="st3" x1="-485.68" y1="-747.65" x2="-418.18" y2="-747.65"/>
					</g>
				</g>
			</g>
		</g>
		<g class="st2">
			<g>
				<g>
					<g>
						<rect x="-316.93" y="-781.4" class="st3" width="67.5" height="67.5"/>
						<circle class="st3" cx="-283.18" cy="-747.65" r="33.75"/>
						<circle class="st3" cx="-283.18" cy="-747.65" r="16.88"/>
						<line class="st3" x1="-283.18" y1="-713.9" x2="-283.18" y2="-781.4"/>
						<line class="st3" x1="-316.93" y1="-747.65" x2="-249.43" y2="-747.65"/>
					</g>
				</g>
			</g>
		</g>
		<g class="st2">
			<g>
				<g>
					<g>
						<rect x="-1160.68" y="-627.65" class="st3" width="67.5" height="67.5"/>
						<circle class="st3" cx="-1126.93" cy="-593.9" r="33.75"/>
						<circle class="st3" cx="-1126.93" cy="-593.9" r="16.88"/>
						<line class="st3" x1="-1126.93" y1="-560.15" x2="-1126.93" y2="-627.65"/>
						<line class="st3" x1="-1160.68" y1="-593.9" x2="-1093.18" y2="-593.9"/>
					</g>
				</g>
			</g>
		</g>
		<g class="st2">
			<g>
				<g>
					<g>
						<rect x="-991.93" y="-627.65" class="st3" width="67.5" height="67.5"/>
						<circle class="st3" cx="-958.18" cy="-593.9" r="33.75"/>
						<circle class="st3" cx="-958.18" cy="-593.9" r="16.88"/>
						<line class="st3" x1="-958.18" y1="-560.15" x2="-958.18" y2="-627.65"/>
						<line class="st3" x1="-991.93" y1="-593.9" x2="-924.43" y2="-593.9"/>
					</g>
				</g>
			</g>
		</g>
		<g class="st2">
			<g>
				<g>
					<g>
						<rect x="-823.18" y="-627.65" class="st3" width="67.5" height="67.5"/>
						<circle class="st3" cx="-789.43" cy="-593.9" r="33.75"/>
						<circle class="st3" cx="-789.43" cy="-593.9" r="16.88"/>
						<line class="st3" x1="-789.43" y1="-560.15" x2="-789.43" y2="-627.65"/>
						<line class="st3" x1="-823.18" y1="-593.9" x2="-755.68" y2="-593.9"/>
					</g>
				</g>
			</g>
		</g>
		<g class="st2">
			<g>
				<g>
					<g>
						<rect x="-654.43" y="-627.65" class="st3" width="67.5" height="67.5"/>
						<circle class="st3" cx="-620.68" cy="-593.9" r="33.75"/>
						<circle class="st3" cx="-620.68" cy="-593.9" r="16.88"/>
						<line class="st3" x1="-620.68" y1="-560.15" x2="-620.68" y2="-627.65"/>
						<line class="st3" x1="-654.43" y1="-593.9" x2="-586.93" y2="-593.9"/>
					</g>
				</g>
			</g>
		</g>
		<g class="st2">
			<g>
				<g>
					<g>
						<rect x="-485.68" y="-627.65" class="st3" width="67.5" height="67.5"/>
						<circle class="st3" cx="-451.93" cy="-593.9" r="33.75"/>
						<circle class="st3" cx="-451.93" cy="-593.9" r="16.88"/>
						<line class="st3" x1="-451.93" y1="-560.15" x2="-451.93" y2="-627.65"/>
						<line class="st3" x1="-485.68" y1="-593.9" x2="-418.18" y2="-593.9"/>
					</g>
				</g>
			</g>
		</g>
		<g class="st2">
			<g>
				<g>
					<g>
						<rect x="-316.93" y="-627.65" class="st3" width="67.5" height="67.5"/>
						<circle class="st3" cx="-283.18" cy="-593.9" r="33.75"/>
						<circle class="st3" cx="-283.18" cy="-593.9" r="16.88"/>
						<line class="st3" x1="-283.18" y1="-560.15" x2="-283.18" y2="-627.65"/>
						<line class="st3" x1="-316.93" y1="-593.9" x2="-249.43" y2="-593.9"/>
					</g>
				</g>
			</g>
		</g>
		<g class="st2">
			<g>
				<g>
					<g>
						<rect x="-1160.68" y="-473.9" class="st3" width="67.5" height="67.5"/>
						<circle class="st3" cx="-1126.93" cy="-440.15" r="33.75"/>
						<circle class="st3" cx="-1126.93" cy="-440.15" r="16.88"/>
						<line class="st3" x1="-1126.93" y1="-406.4" x2="-1126.93" y2="-473.9"/>
						<line class="st3" x1="-1160.68" y1="-440.15" x2="-1093.18" y2="-440.15"/>
					</g>
				</g>
			</g>
		</g>
		<g class="st2">
			<g>
				<g>
					<g>
						<rect x="-991.93" y="-473.9" class="st3" width="67.5" height="67.5"/>
						<circle class="st3" cx="-958.18" cy="-440.15" r="33.75"/>
						<circle class="st3" cx="-958.18" cy="-440.15" r="16.88"/>
						<line class="st3" x1="-958.18" y1="-406.4" x2="-958.18" y2="-473.9"/>
						<line class="st3" x1="-991.93" y1="-440.15" x2="-924.43" y2="-440.15"/>
					</g>
				</g>
			</g>
		</g>
		<g class="st2">
			<g>
				<g>
					<g>
						<rect x="-823.18" y="-473.9" class="st3" width="67.5" height="67.5"/>
						<circle class="st3" cx="-789.43" cy="-440.15" r="33.75"/>
						<circle class="st3" cx="-789.43" cy="-440.15" r="16.88"/>
						<line class="st3" x1="-789.43" y1="-406.4" x2="-789.43" y2="-473.9"/>
						<line class="st3" x1="-823.18" y1="-440.15" x2="-755.68" y2="-440.15"/>
					</g>
				</g>
			</g>
		</g>
		<g class="st2">
			<g>
				<g>
					<g>
						<rect x="-654.43" y="-473.9" class="st3" width="67.5" height="67.5"/>
						<circle class="st3" cx="-620.68" cy="-440.15" r="33.75"/>
						<circle class="st3" cx="-620.68" cy="-440.15" r="16.88"/>
						<line class="st3" x1="-620.68" y1="-406.4" x2="-620.68" y2="-473.9"/>
						<line class="st3" x1="-654.43" y1="-440.15" x2="-586.93" y2="-440.15"/>
					</g>
				</g>
			</g>
		</g>
		<g class="st2">
			<g>
				<g>
					<g>
						<rect x="-485.68" y="-473.9" class="st3" width="67.5" height="67.5"/>
						<circle class="st3" cx="-451.93" cy="-440.15" r="33.75"/>
						<circle class="st3" cx="-451.93" cy="-440.15" r="16.88"/>
						<line class="st3" x1="-451.93" y1="-406.4" x2="-451.93" y2="-473.9"/>
						<line class="st3" x1="-485.68" y1="-440.15" x2="-418.18" y2="-440.15"/>
					</g>
				</g>
			</g>
		</g>
		<g class="st2">
			<g>
				<g>
					<g>
						<rect x="-316.93" y="-473.9" class="st3" width="67.5" height="67.5"/>
						<circle class="st3" cx="-283.18" cy="-440.15" r="33.75"/>
						<circle class="st3" cx="-283.18" cy="-440.15" r="16.88"/>
						<line class="st3" x1="-283.18" y1="-406.4" x2="-283.18" y2="-473.9"/>
						<line class="st3" x1="-316.93" y1="-440.15" x2="-249.43" y2="-440.15"/>
					</g>
				</g>
			</g>
		</g>
		<g class="st2">
			<g>
				<g>
					<g>
						<rect x="-1160.68" y="-320.15" class="st3" width="67.5" height="67.5"/>
						<circle class="st3" cx="-1126.93" cy="-286.4" r="33.75"/>
						<circle class="st3" cx="-1126.93" cy="-286.4" r="16.88"/>
						<line class="st3" x1="-1126.93" y1="-252.65" x2="-1126.93" y2="-320.15"/>
						<line class="st3" x1="-1160.68" y1="-286.4" x2="-1093.18" y2="-286.4"/>
					</g>
				</g>
			</g>
		</g>
		<g class="st2">
			<g>
				<g>
					<g>
						<rect x="-991.93" y="-320.15" class="st3" width="67.5" height="67.5"/>
						<circle class="st3" cx="-958.18" cy="-286.4" r="33.75"/>
						<circle class="st3" cx="-958.18" cy="-286.4" r="16.88"/>
						<line class="st3" x1="-958.18" y1="-252.65" x2="-958.18" y2="-320.15"/>
						<line class="st3" x1="-991.93" y1="-286.4" x2="-924.43" y2="-286.4"/>
					</g>
				</g>
			</g>
		</g>
		<g class="st2">
			<g>
				<g>
					<g>
						<rect x="-823.18" y="-320.15" class="st3" width="67.5" height="67.5"/>
						<circle class="st3" cx="-789.43" cy="-286.4" r="33.75"/>
						<circle class="st3" cx="-789.43" cy="-286.4" r="16.88"/>
						<line class="st3" x1="-789.43" y1="-252.65" x2="-789.43" y2="-320.15"/>
						<line class="st3" x1="-823.18" y1="-286.4" x2="-755.68" y2="-286.4"/>
					</g>
				</g>
			</g>
		</g>
		<g class="st2">
			<g>
				<g>
					<g>
						<rect x="-654.43" y="-320.15" class="st3" width="67.5" height="67.5"/>
						<circle class="st3" cx="-620.68" cy="-286.4" r="33.75"/>
						<circle class="st3" cx="-620.68" cy="-286.4" r="16.88"/>
						<line class="st3" x1="-620.68" y1="-252.65" x2="-620.68" y2="-320.15"/>
						<line class="st3" x1="-654.43" y1="-286.4" x2="-586.93" y2="-286.4"/>
					</g>
				</g>
			</g>
		</g>
		<g class="st2">
			<g>
				<g>
					<g>
						<rect x="-485.68" y="-320.15" class="st3" width="67.5" height="67.5"/>
						<circle class="st3" cx="-451.93" cy="-286.4" r="33.75"/>
						<circle class="st3" cx="-451.93" cy="-286.4" r="16.88"/>
						<line class="st3" x1="-451.93" y1="-252.65" x2="-451.93" y2="-320.15"/>
						<line class="st3" x1="-485.68" y1="-286.4" x2="-418.18" y2="-286.4"/>
					</g>
				</g>
			</g>
		</g>
		<g class="st2">
			<g>
				<g>
					<g>
						<rect x="-316.93" y="-320.15" class="st3" width="67.5" height="67.5"/>
						<circle class="st3" cx="-283.18" cy="-286.4" r="33.75"/>
						<circle class="st3" cx="-283.18" cy="-286.4" r="16.88"/>
						<line class="st3" x1="-283.18" y1="-252.65" x2="-283.18" y2="-320.15"/>
						<line class="st3" x1="-316.93" y1="-286.4" x2="-249.43" y2="-286.4"/>
					</g>
				</g>
			</g>
		</g>
		<g class="st2">
			<g>
				<g>
					<g>
						<rect x="-1160.68" y="-166.4" class="st3" width="67.5" height="67.5"/>
						<circle class="st3" cx="-1126.93" cy="-132.65" r="33.75"/>
						<circle class="st3" cx="-1126.93" cy="-132.65" r="16.88"/>
						<line class="st3" x1="-1126.93" y1="-98.9" x2="-1126.93" y2="-166.4"/>
						<line class="st3" x1="-1160.68" y1="-132.65" x2="-1093.18" y2="-132.65"/>
					</g>
				</g>
			</g>
		</g>
		<g class="st2">
			<g>
				<g>
					<g>
						<rect x="-991.93" y="-166.4" class="st3" width="67.5" height="67.5"/>
						<circle class="st3" cx="-958.18" cy="-132.65" r="33.75"/>
						<circle class="st3" cx="-958.18" cy="-132.65" r="16.88"/>
						<line class="st3" x1="-958.18" y1="-98.9" x2="-958.18" y2="-166.4"/>
						<line class="st3" x1="-991.93" y1="-132.65" x2="-924.43" y2="-132.65"/>
					</g>
				</g>
			</g>
		</g>
		<g class="st2">
			<g>
				<g>
					<g>
						<rect x="-823.18" y="-166.4" class="st3" width="67.5" height="67.5"/>
						<circle class="st3" cx="-789.43" cy="-132.65" r="33.75"/>
						<circle class="st3" cx="-789.43" cy="-132.65" r="16.88"/>
						<line class="st3" x1="-789.43" y1="-98.9" x2="-789.43" y2="-166.4"/>
						<line class="st3" x1="-823.18" y1="-132.65" x2="-755.68" y2="-132.65"/>
					</g>
				</g>
			</g>
		</g>
		<g class="st2">
			<g>
				<g>
					<g>
						<rect x="-654.43" y="-166.4" class="st3" width="67.5" height="67.5"/>
						<circle class="st3" cx="-620.68" cy="-132.65" r="33.75"/>
						<circle class="st3" cx="-620.68" cy="-132.65" r="16.88"/>
						<line class="st3" x1="-620.68" y1="-98.9" x2="-620.68" y2="-166.4"/>
						<line class="st3" x1="-654.43" y1="-132.65" x2="-586.93" y2="-132.65"/>
					</g>
				</g>
			</g>
		</g>
		<g class="st2">
			<g>
				<g>
					<g>
						<rect x="-485.68" y="-166.4" class="st3" width="67.5" height="67.5"/>
						<circle class="st3" cx="-451.93" cy="-132.65" r="33.75"/>
						<circle class="st3" cx="-451.93" cy="-132.65" r="16.88"/>
						<line class="st3" x1="-451.93" y1="-98.9" x2="-451.93" y2="-166.4"/>
						<line class="st3" x1="-485.68" y1="-132.65" x2="-418.18" y2="-132.65"/>
					</g>
				</g>
			</g>
		</g>
		<g class="st2">
			<g>
				<g>
					<g>
						<rect x="-316.93" y="-166.4" class="st3" width="67.5" height="67.5"/>
						<circle class="st3" cx="-283.18" cy="-132.65" r="33.75"/>
						<circle class="st3" cx="-283.18" cy="-132.65" r="16.88"/>
						<line class="st3" x1="-283.18" y1="-98.9" x2="-283.18" y2="-166.4"/>
						<line class="st3" x1="-316.93" y1="-132.65" x2="-249.43" y2="-132.65"/>
					</g>
				</g>
			</g>
		</g>
	</g>
	<g class="st1">
		<g>
			<g>
				<rect x="-785.68" y="-1247.89" class="st3" width="161.25" height="161.25"/>
				<circle class="st3" cx="-705.05" cy="-1167.27" r="80.62"/>
				<circle class="st3" cx="-705.05" cy="-1167.27" r="40.31"/>
				<line class="st3" x1="-705.05" y1="-1086.64" x2="-705.05" y2="-1247.89"/>
				<line class="st3" x1="-785.68" y1="-1167.27" x2="-624.43" y2="-1167.27"/>
			</g>
		</g>
	</g>
</g>
<g id="title">
	<g>
		<path class="st4" d="M-666.66-1179.86c-10.3,15.93-31.56,20.5-47.49,10.2c-7.5-4.85-12.48-12.12-14.58-20.13
			c-2.36-9-1.07-18.93,4.38-27.36c10.3-15.93,31.56-20.5,47.49-10.2C-660.93-1217.05-656.36-1195.79-666.66-1179.86z"/>
		<path class="st4" d="M-708.88-1120.86c0,9.56-7.75,17.3-17.3,17.3c-9.56,0-17.3-7.75-17.3-17.3c0-9.56,7.75-17.3,17.3-17.3
			C-716.62-1138.17-708.88-1130.42-708.88-1120.86z"/>
		<path class="st4" d="M-652.9-1120.86c0,9.56-7.75,17.3-17.3,17.3c-9.56,0-17.3-7.75-17.3-17.3c0-9.56,7.75-17.3,17.3-17.3
			C-660.64-1138.17-652.9-1130.42-652.9-1120.86z"/>
		<polyline class="st4" points="-785.68,-1225.4 -768.64,-1220.76 -737.5,-1138.21 -658.02,-1138.21 -629.75,-1191.36 
			-661.7,-1191.36 		"/>
		<line class="st4" x1="-747.51" y1="-1191.36" x2="-730.65" y2="-1191.36"/>
		<polyline class="st5" points="-712.36,-1202.59 -698.43,-1188.65 -698.43,-1188.65 -698.42,-1188.65 -677.11,-1209.97 		"/>
	</g>
	<g>
		<path d="M-824.79-1037.71c0.45,0,0.67,0.22,0.67,0.67v1.67c0,0.45-0.22,0.67-0.67,0.67h-15.5c-0.45,0-0.79-0.01-1.03-0.02
			c-0.24-0.02-0.42-0.08-0.53-0.19c-0.11-0.11-0.18-0.3-0.19-0.55c-0.02-0.26-0.02-0.61-0.02-1.05v-32.91
			c0-0.45,0.22-0.67,0.67-0.67h2.2c0.45,0,0.67,0.22,0.67,0.67v31.71H-824.79z"/>
		<path d="M-819.62-1069.61c0-0.64,0.22-1.19,0.67-1.65c0.45-0.46,0.99-0.69,1.63-0.69c0.64,0,1.19,0.23,1.65,0.69
			c0.46,0.46,0.69,1.01,0.69,1.65c0,0.64-0.23,1.18-0.69,1.63c-0.46,0.45-1.01,0.67-1.65,0.67c-0.64,0-1.18-0.22-1.63-0.67
			C-819.4-1068.43-819.62-1068.98-819.62-1069.61z M-816.22-1034.7h-2.1c-0.45,0-0.67-0.22-0.67-0.67v-24.54
			c0-0.45,0.22-0.67,0.67-0.67h2.1c0.45,0,0.67,0.22,0.67,0.67v24.54C-815.55-1034.92-815.78-1034.7-816.22-1034.7z"/>
		<path d="M-786.9-1035.37c0,0.45-0.22,0.67-0.67,0.67h-1.91c-0.45,0-0.67-0.22-0.67-0.67v-15.07c0-2.93-0.53-5.02-1.58-6.24
			c-1.05-1.23-2.53-1.84-4.45-1.84c-2.58,0-4.55,0.72-5.91,2.15c-1.36,1.43-2.03,3.44-2.03,6.03v14.97c0,0.45-0.22,0.67-0.67,0.67
			h-1.91c-0.45,0-0.67-0.22-0.67-0.67v-19.13c0-1.37-0.01-2.44-0.02-3.21c-0.02-0.77-0.06-1.5-0.12-2.2
			c-0.03-0.22,0.02-0.39,0.17-0.5c0.14-0.11,0.31-0.17,0.5-0.17h1.72c0.45,0,0.67,0.22,0.67,0.67v2.63
			c0.89-1.37,1.97-2.38,3.23-3.01c1.26-0.64,2.99-0.96,5.19-0.96c3.03,0,5.31,0.88,6.84,2.63c1.53,1.76,2.3,4.23,2.3,7.42V-1035.37z
			"/>
		<path d="M-776.76-1046.7c-0.03,1.59,0.15,3.01,0.55,4.23c0.4,1.23,0.98,2.26,1.74,3.09c0.77,0.83,1.68,1.47,2.75,1.91
			c1.07,0.45,2.26,0.67,3.56,0.67c1.28,0,2.47-0.12,3.59-0.36c1.12-0.24,2.15-0.63,3.11-1.17c0.41-0.19,0.62-0.08,0.62,0.33v2.15
			c0,0.29-0.18,0.51-0.53,0.67c-1.05,0.42-2.15,0.73-3.3,0.93c-1.15,0.21-2.39,0.31-3.73,0.31c-3.92,0-6.89-1.14-8.9-3.42
			c-2.01-2.28-3.01-5.72-3.01-10.31c0-4.05,1.01-7.32,3.01-9.81c2.1-2.52,4.77-3.78,7.99-3.78c1.79,0,3.33,0.32,4.64,0.96
			c1.31,0.64,2.42,1.59,3.35,2.87c1.63,2.26,2.44,5.29,2.44,9.09c0,0.41-0.01,0.73-0.02,0.96c-0.02,0.22-0.07,0.38-0.17,0.48
			c-0.1,0.1-0.26,0.15-0.5,0.17c-0.24,0.02-0.58,0.02-1.03,0.02H-776.76z M-762.41-1049.43c0-1.31-0.13-2.47-0.38-3.49
			c-0.25-1.02-0.65-1.94-1.2-2.77c-1.18-1.88-2.89-2.82-5.12-2.82c-2.3,0-4.16,0.96-5.6,2.87c-0.57,0.86-1.05,1.85-1.43,2.97
			c-0.38,1.12-0.59,2.2-0.62,3.25H-762.41z"/>
		<path d="M-736.06-1034.7h-2.3c-0.45,0-0.67-0.22-0.67-0.67v-34.06c0-0.45,0.22-0.67,0.67-0.67h2.3c0.45,0,0.67,0.22,0.67,0.67
			v34.06C-735.39-1034.92-735.61-1034.7-736.06-1034.7z"/>
		<path d="M-710.75-1034.5c-0.96,0.16-1.88,0.27-2.78,0.33c-0.89,0.06-1.96,0.1-3.2,0.1c-1.98,0-3.74-0.35-5.29-1.05
			c-1.55-0.7-2.85-1.66-3.92-2.87c-1.07-1.21-1.89-2.65-2.46-4.31c-0.58-1.66-0.86-3.44-0.86-5.36c0-1.94,0.3-3.74,0.91-5.38
			c0.6-1.64,1.47-3.06,2.61-4.26c1.13-1.2,2.49-2.14,4.07-2.82c1.58-0.69,3.36-1.03,5.33-1.03c1.05,0,2.01,0.04,2.87,0.12
			c0.86,0.08,1.79,0.23,2.78,0.45c0.45,0.13,0.65,0.43,0.62,0.91l-0.14,1.53c-0.06,0.38-0.3,0.53-0.72,0.43
			c-0.83-0.25-1.63-0.44-2.39-0.55c-0.77-0.11-1.61-0.17-2.53-0.17c-1.63,0-3.05,0.26-4.28,0.79c-1.23,0.53-2.26,1.27-3.09,2.22
			c-0.83,0.96-1.45,2.1-1.87,3.42c-0.41,1.32-0.62,2.77-0.62,4.33c0,1.43,0.22,2.81,0.65,4.11c0.43,1.31,1.05,2.46,1.86,3.47
			c0.81,1,1.8,1.8,2.97,2.39c1.16,0.59,2.5,0.89,4,0.89c1.12,0,2.04-0.05,2.77-0.14c0.73-0.1,1.56-0.27,2.49-0.53
			c0.48-0.13,0.73-0.02,0.77,0.33l0.14,1.77C-710.05-1034.89-710.27-1034.6-710.75-1034.5z"/>
		<path d="M-681.72-1047.61c0,1.88-0.27,3.63-0.81,5.24c-0.54,1.61-1.26,3.02-2.15,4.23c-1.12,1.34-2.45,2.37-3.99,3.11
			c-1.55,0.73-3.31,1.1-5.29,1.1s-3.75-0.37-5.31-1.1c-1.56-0.73-2.9-1.77-4.02-3.11c-0.89-1.21-1.6-2.62-2.13-4.23
			c-0.53-1.61-0.79-3.36-0.79-5.24c0-3.86,0.97-7.01,2.92-9.47c2.23-2.77,5.34-4.16,9.33-4.16c2.01,0,3.78,0.34,5.31,1.03
			c1.53,0.68,2.85,1.73,3.97,3.13C-682.71-1054.56-681.72-1051.41-681.72-1047.61z M-685.26-1047.61c0-1.5-0.2-2.9-0.6-4.21
			c-0.4-1.31-0.95-2.47-1.65-3.49c-1.66-2.04-3.81-3.06-6.46-3.06c-1.34,0-2.54,0.26-3.61,0.79c-1.07,0.53-2.02,1.28-2.85,2.27
			c-0.73,1.02-1.3,2.18-1.7,3.49c-0.4,1.31-0.6,2.71-0.6,4.21c0,1.53,0.2,2.95,0.6,4.26c0.4,1.31,0.96,2.46,1.7,3.44
			c1.69,2.07,3.84,3.11,6.46,3.11c1.34,0,2.54-0.27,3.61-0.81c1.07-0.54,2.02-1.31,2.85-2.3c0.7-0.99,1.25-2.14,1.65-3.44
			C-685.46-1044.66-685.26-1046.08-685.26-1047.61z"/>
		<path d="M-654.74-1035.37c0,0.45-0.22,0.67-0.67,0.67h-1.91c-0.45,0-0.67-0.22-0.67-0.67v-15.07c0-2.93-0.53-5.02-1.58-6.24
			c-1.05-1.23-2.54-1.84-4.45-1.84c-2.58,0-4.55,0.72-5.91,2.15c-1.35,1.43-2.03,3.44-2.03,6.03v14.97c0,0.45-0.22,0.67-0.67,0.67
			h-1.91c-0.45,0-0.67-0.22-0.67-0.67v-19.13c0-1.37-0.01-2.44-0.02-3.21c-0.02-0.77-0.06-1.5-0.12-2.2
			c-0.03-0.22,0.02-0.39,0.17-0.5c0.14-0.11,0.31-0.17,0.5-0.17h1.72c0.45,0,0.67,0.22,0.67,0.67v2.63
			c0.89-1.37,1.97-2.38,3.23-3.01c1.26-0.64,2.99-0.96,5.19-0.96c3.03,0,5.31,0.88,6.84,2.63c1.53,1.76,2.3,4.23,2.3,7.42V-1035.37z
			"/>
		<path d="M-633.17-1035.17c-0.51-0.16-0.72-0.45-0.62-0.86l0.19-2.2c0.06-0.25,0.17-0.43,0.31-0.53c0.14-0.1,0.31-0.08,0.5,0.05
			c1.12,0.61,2.24,1.04,3.37,1.31c1.13,0.27,2.43,0.41,3.9,0.41c2.33,0,4.23-0.64,5.71-1.91c1.48-1.28,2.22-3.08,2.22-5.41
			c0-0.93-0.36-1.85-1.07-2.78c-0.72-0.92-1.72-1.8-2.99-2.63c-1.12-0.7-2.38-1.43-3.78-2.2c-1.4-0.77-2.74-1.6-4.02-2.51
			c-1.27-0.91-2.34-1.93-3.2-3.06c-0.86-1.13-1.29-2.45-1.29-3.95c0-1.53,0.32-2.88,0.96-4.04c0.64-1.16,1.49-2.14,2.56-2.92
			c1.07-0.78,2.29-1.38,3.66-1.79c1.37-0.41,2.77-0.62,4.21-0.62c1.24,0,2.34,0.07,3.3,0.22c0.96,0.14,1.99,0.39,3.11,0.74
			c0.48,0.16,0.67,0.45,0.57,0.86l-0.38,1.87c-0.1,0.54-0.37,0.69-0.81,0.43c-0.89-0.41-1.76-0.69-2.61-0.84
			c-0.85-0.14-1.92-0.21-3.23-0.21c-1.05,0-2.05,0.13-2.99,0.38c-0.94,0.26-1.75,0.64-2.44,1.15c-0.69,0.51-1.24,1.15-1.65,1.91
			c-0.42,0.77-0.62,1.67-0.62,2.73c0,0.83,0.28,1.61,0.84,2.34c0.56,0.73,1.24,1.42,2.06,2.06c0.81,0.64,1.69,1.22,2.63,1.75
			c0.94,0.53,1.79,1.01,2.56,1.46c1.05,0.61,2.07,1.23,3.06,1.86c0.99,0.64,1.86,1.36,2.63,2.15c0.77,0.8,1.39,1.67,1.87,2.63
			c0.48,0.96,0.72,2.06,0.72,3.3c0,1.59-0.33,3.01-0.98,4.26c-0.65,1.24-1.52,2.3-2.61,3.16c-1.09,0.86-2.34,1.52-3.75,1.99
			c-1.42,0.46-2.89,0.69-4.42,0.69c-1.4,0-2.66-0.1-3.75-0.29C-630.56-1034.41-631.8-1034.73-633.17-1035.17z"/>
		<path d="M-605.14-1046.7c-0.03,1.59,0.15,3.01,0.55,4.23c0.4,1.23,0.98,2.26,1.74,3.09c0.77,0.83,1.68,1.47,2.75,1.91
			c1.07,0.45,2.26,0.67,3.56,0.67c1.27,0,2.47-0.12,3.59-0.36c1.11-0.24,2.15-0.63,3.11-1.17c0.41-0.19,0.62-0.08,0.62,0.33v2.15
			c0,0.29-0.18,0.51-0.53,0.67c-1.05,0.42-2.15,0.73-3.3,0.93c-1.15,0.21-2.39,0.31-3.73,0.31c-3.92,0-6.89-1.14-8.9-3.42
			c-2.01-2.28-3.01-5.72-3.01-10.31c0-4.05,1.01-7.32,3.01-9.81c2.1-2.52,4.77-3.78,7.99-3.78c1.79,0,3.33,0.32,4.64,0.96
			c1.31,0.64,2.42,1.59,3.35,2.87c1.63,2.26,2.44,5.29,2.44,9.09c0,0.41-0.01,0.73-0.02,0.96c-0.02,0.22-0.07,0.38-0.17,0.48
			c-0.1,0.1-0.26,0.15-0.5,0.17c-0.24,0.02-0.58,0.02-1.03,0.02H-605.14z M-590.79-1049.43c0-1.31-0.13-2.47-0.38-3.49
			c-0.25-1.02-0.65-1.94-1.19-2.77c-1.18-1.88-2.89-2.82-5.12-2.82c-2.3,0-4.16,0.96-5.6,2.87c-0.57,0.86-1.05,1.85-1.43,2.97
			c-0.38,1.12-0.59,2.2-0.62,3.25H-590.79z"/>
		<path d="M-568.64-1034.65c-1.34,0.48-2.66,0.72-3.97,0.72c-2.58,0-4.29-0.85-5.12-2.53c-0.54-1.15-0.81-3.17-0.81-6.07v-15.26
			h-4.5c-0.45,0-0.67-0.22-0.67-0.67v-1.43c0-0.45,0.22-0.67,0.67-0.67h4.5v-6.46c0-0.48,0.21-0.72,0.62-0.72h2.01
			c0.41,0,0.62,0.24,0.62,0.72v6.46h5.31c0.45,0,0.67,0.22,0.67,0.67v1.43c0,0.45-0.22,0.67-0.67,0.67h-5.31v16.89
			c0,2.84,1.15,4.26,3.44,4.26c0.89,0,1.9-0.19,3.01-0.57c0.16-0.06,0.31-0.06,0.45,0c0.14,0.06,0.22,0.19,0.22,0.38l0.1,1.24
			C-568-1035.16-568.2-1034.84-568.64-1034.65z"/>
	</g>
	<text transform="matrix(1 0 0 1 -766.9753 -996.0385)" style="fill:#999999; font-family:'NanumGothic'; font-size:28px;">Shopping</text>
	<rect x="-1305.05" y="-1309.15" class="st6" width="1200" height="1335"/>
</g>
<g id="icon">
	<path class="st4" d="M-975.46-260.78c-0.38-0.1-0.75-0.27-1.07-0.51c-1.04-0.77-1.49-2.1-1.13-3.34l4.8-16.54l-13.43-10.78
		c-1.01-0.81-1.41-2.16-1-3.39c0.41-1.23,1.54-2.07,2.83-2.11l17.21-0.55l6.1-16.11c0.46-1.21,1.62-2.01,2.91-1.99
		c0.25,0,0.5,0.03,0.74,0.09c0.98,0.25,1.79,0.97,2.15,1.95l5.84,16.2l17.21,0.82c0.21,0.01,0.41,0.04,0.61,0.09
		c1.02,0.26,1.86,1.03,2.18,2.06c0.39,1.23-0.03,2.58-1.05,3.37l-13.6,10.56l4.53,16.61c0.34,1.25-0.13,2.58-1.18,3.33
		c-0.75,0.54-1.69,0.7-2.56,0.48c-0.34-0.09-0.67-0.23-0.97-0.44l-14.25-9.68l-14.4,9.45
		C-973.75-260.71-974.64-260.57-975.46-260.78z"/>
	<g>
		<path class="st4" d="M-644.15-265.95c-1.72,0-3.3-0.9-4.18-2.38c-0.88-1.47-0.91-3.3-0.1-4.81l5.27-4.9v-15.8
			c0-12.53,10.23-23.52,21.9-23.52s21.9,10.99,21.9,23.52v15.8l5.27,4.9c0.82,1.51,0.78,3.33-0.1,4.81
			c-0.88,1.47-2.47,2.38-4.18,2.38H-644.15z"/>
		<path class="st4" d="M-628.06-264.8c0,3.76,3.05,6.81,6.81,6.81s6.81-3.05,6.81-6.81"/>
		<line class="st4" x1="-643.16" y1="-278.03" x2="-613.86" y2="-278.03"/>
	</g>
	<g>
		<g>
			<path d="M-797.8-731.22c-0.81,1.01-2.08,1.66-3.63,1.73l-0.62-1.92c1.11-0.09,2.01-0.4,2.63-1.16c0.48-0.6,0.47-1.2-0.02-1.6
				l-0.02-0.02c-0.47-0.38-0.9-0.34-2.15,0.47c-1.51,0.99-2.68,1.47-4.36,0.12l-0.02-0.02c-1.54-1.24-1.77-3.02-0.68-4.38
				c0.78-0.97,1.83-1.48,3.06-1.6l0.79,1.89c-0.99,0.17-1.78,0.5-2.23,1.06c-0.45,0.56-0.36,1.12,0.05,1.45l0.03,0.02
				c0.56,0.45,0.97,0.31,2.26-0.54c1.53-0.99,2.76-1.25,4.24-0.06l0.02,0.02C-796.78-734.42-796.65-732.65-797.8-731.22z"/>
			<path d="M-791.06-739.84l-2.38-0.92l-2.26,2.81l1.41,2.13l-1.2,1.49l-6.22-9.71l1.08-1.35l10.81,4.01L-791.06-739.84z
				 M-798.96-742.88l2.03,3.09l1.42-1.77L-798.96-742.88z"/>
			<path d="M-789-742.4l-8.46-6.81l1.18-1.46l6.76,5.45l2.67-3.31l1.69,1.36L-789-742.4z"/>
			<path d="M-784.27-748.28l-8.46-6.81l4.04-5.01l1.66,1.33l-2.87,3.56l1.71,1.38l2.52-3.13l1.66,1.33l-2.52,3.13l1.78,1.43
				l2.91-3.61l1.66,1.33L-784.27-748.28z"/>
		</g>
		<path class="st4" d="M-757.55-775.71c-7.89,0.5-15.36,3.83-20.94,10.29"/>
		<path class="st4" d="M-775.1-761.69c-1.48,1.88-4.2,2.2-6.08,0.72c-1.88-1.48-2.2-4.2-0.72-6.08c1.48-1.88,4.2-2.2,6.08-0.72
			C-773.94-766.29-773.62-763.57-775.1-761.69z"/>
		<path class="st4" d="M-799.42-717.24l-21.07-16.59c-0.92-0.73-1.08-2.08-0.36-3l27.03-34.32c2.27-2.88,4.69-2.86,4.69-2.86
			l18.74-1.77l2.8,19.52c0,0,0.34,1.61-1.81,4.35l-27.03,34.32C-797.15-716.67-798.5-716.51-799.42-717.24z"/>
	</g>
	<g>
		<path class="st4" d="M-1097.23-294.9c0-8.57-6.95-14.61-15.52-14.61c-6.31,0-11.73,3.76-14.16,9.17
			c-2.43-5.41-7.84-9.17-14.15-9.17c-8.57,0-15.52,6.04-15.52,14.61c0,1.33,0.59,6.12,3.88,10.96
			c8.04,11.78,23.83,25.57,25.79,25.57c2.26,0,17.66-13.87,25.34-25.57C-1098.96-287.92-1097.23-293.75-1097.23-294.9z"/>
	</g>
	<g>
		<path class="st4" d="M-967.2-766.16c-7.28,2.63-12.61,10.75-12.97,18.66"/>
		<path class="st4" d="M-965.92-762.77c0,1.09-0.89,1.98-1.98,1.98c-1.09,0-1.98-0.89-1.98-1.98c0-1.09,0.89-1.98,1.98-1.98
			C-966.81-764.75-965.92-763.87-965.92-762.77z"/>
		<path class="st4" d="M-942.19-762.77c0,1.09-0.89,1.98-1.98,1.98c-1.09,0-1.98-0.89-1.98-1.98c0-1.09,0.89-1.98,1.98-1.98
			C-943.07-764.75-942.19-763.87-942.19-762.77z"/>
		<path class="st4" d="M-976.43-745.72c0,1.99-1.61,3.6-3.6,3.6c-1.99,0-3.6-1.61-3.6-3.6c0-1.99,1.61-3.6,3.6-3.6
			C-978.04-749.32-976.43-747.71-976.43-745.72z"/>
		<path class="st4" d="M-973.27-715.78h-13.52c-1.42,0-2.58-1.16-2.58-2.58v-27.02c0-2.2,1.15-3.1,1.15-3.1l8.19-7.8l8.58,8.17
			c0,0,0.76,0.63,0.76,2.73v27.02C-970.7-716.94-971.85-715.78-973.27-715.78z"/>
		<path class="st4" d="M-983.04-753.93v-13.79c0-1.14,0.93-2.08,2.08-2.08h49.86c1.14,0,2.08,0.93,2.08,2.08v49.86
			c0,1.14-0.93,2.08-2.08,2.08h-42.72"/>
		<path class="st4" d="M-967.9-764.11v-7.11c0-4.57,3.74-8.31,8.31-8.31h7.11c4.57,0,8.31,3.74,8.31,8.31v7.11"/>
		<line class="st4" x1="-929.7" y1="-726.12" x2="-964.7" y2="-726.12"/>
	</g>
	<g>
		<path class="st4" d="M-1137.17-762.77c0,1.09-0.89,1.98-1.98,1.98c-1.09,0-1.98-0.89-1.98-1.98c0-1.09,0.89-1.98,1.98-1.98
			C-1138.05-764.75-1137.17-763.87-1137.17-762.77z"/>
		<path class="st4" d="M-1113.44-762.77c0,1.09-0.89,1.98-1.98,1.98s-1.98-0.89-1.98-1.98c0-1.09,0.89-1.98,1.98-1.98
			S-1113.44-763.87-1113.44-762.77z"/>
		<path class="st4" d="M-1102.35-715.78c1.14,0,2.08-0.93,2.08-2.08v-49.86c0-1.14-0.93-2.08-2.08-2.08h-49.86
			c-1.14,0-2.08,0.93-2.08,2.08v11.71v37.22c0,0,0.15,3.01,2.89,3.01C-1148.65-715.78-1102.35-715.78-1102.35-715.78z"/>
		<path class="st4" d="M-1139.15-764.11v-7.11c0-4.57,3.74-8.31,8.31-8.31h7.11c4.57,0,8.31,3.74,8.31,8.31v7.11"/>
		<line class="st4" x1="-1100.95" y1="-726.12" x2="-1153.33" y2="-726.12"/>
	</g>
	<g>
		<g>
			<path class="st4" d="M-614.23-753.5c-0.56,2.06-2.68,3.27-4.73,2.72c-2.06-0.56-3.27-2.68-2.72-4.73
				c0.56-2.06,2.68-3.27,4.73-2.72C-614.89-757.67-613.67-755.55-614.23-753.5z"/>
			<path class="st4" d="M-601.36-741.51c-0.56,2.09-2.71,3.32-4.8,2.76c-2.09-0.56-3.32-2.71-2.76-4.8c0.56-2.09,2.71-3.32,4.8-2.76
				C-602.03-745.75-600.79-743.6-601.36-741.51z"/>
			<line class="st4" x1="-619.69" y1="-740.68" x2="-603.7" y2="-756.91"/>
		</g>
		<path class="st4" d="M-652.55-770.15v10.22c0.17-0.01,0.33-0.02,0.5-0.02c6.02,0,10.9,4.95,10.9,11.05
			c0,6.1-4.88,11.05-10.9,11.05c-0.17,0-0.33-0.02-0.5-0.02v10.22h63.75v-42.5H-652.55z"/>
		<g>
			<g>
				<line class="st7" x1="-633.86" y1="-770.15" x2="-633.86" y2="-766.97"/>
				<line class="st8" x1="-633.86" y1="-762.93" x2="-633.86" y2="-734.69"/>
				<line class="st7" x1="-633.86" y1="-732.68" x2="-633.86" y2="-729.49"/>
			</g>
		</g>
	</g>
	<g>
		<path class="st4" d="M-942.65-905.73c-4.15,6.43-12.73,8.27-19.16,4.12c-3.03-1.96-5.04-4.89-5.88-8.12
			c-0.95-3.63-0.43-7.64,1.77-11.04c4.15-6.43,12.73-8.27,19.16-4.12C-940.34-920.74-938.5-912.16-942.65-905.73z"/>
		<path class="st4" d="M-959.69-881.17c0,3.86-3.13,6.98-6.98,6.98c-3.86,0-6.98-3.13-6.98-6.98c0-3.86,3.13-6.98,6.98-6.98
			C-962.81-888.15-959.69-885.03-959.69-881.17z"/>
		<path class="st4" d="M-937.1-881.17c0,3.86-3.13,6.98-6.98,6.98c-3.86,0-6.98-3.13-6.98-6.98c0-3.86,3.13-6.98,6.98-6.98
			C-940.22-888.15-937.1-885.03-937.1-881.17z"/>
		<polyline class="st4" points="-990.68,-924.11 -983.8,-922.23 -971.24,-888.93 -939.16,-888.93 -927.76,-910.37 -940.65,-910.37 
					"/>
		<g>
			<line class="st4" x1="-961.22" y1="-913.25" x2="-947.36" y2="-913.25"/>
			<line class="st4" x1="-954.29" y1="-906.32" x2="-954.29" y2="-920.18"/>
		</g>
		<line class="st4" x1="-972.25" y1="-910.37" x2="-968.47" y2="-910.37"/>
	</g>
	<g>
		<path class="st4" d="M-772.63-905.73c-4.15,6.43-12.73,8.27-19.16,4.12c-3.03-1.96-5.04-4.89-5.88-8.12
			c-0.95-3.63-0.43-7.64,1.77-11.04c4.15-6.43,12.73-8.27,19.16-4.12C-770.32-920.74-768.47-912.16-772.63-905.73z"/>
		<path class="st4" d="M-789.66-881.17c0,3.86-3.13,6.98-6.98,6.98c-3.86,0-6.98-3.13-6.98-6.98c0-3.86,3.13-6.98,6.98-6.98
			C-792.79-888.15-789.66-885.03-789.66-881.17z"/>
		<path class="st4" d="M-767.07-881.17c0,3.86-3.13,6.98-6.98,6.98c-3.86,0-6.98-3.13-6.98-6.98c0-3.86,3.13-6.98,6.98-6.98
			C-770.2-888.15-767.07-885.03-767.07-881.17z"/>
		<polyline class="st4" points="-820.65,-924.11 -813.78,-922.23 -801.21,-888.93 -769.14,-888.93 -757.73,-910.37 -770.63,-910.37 
					"/>
		<g>
			<line class="st4" x1="-791.2" y1="-913.25" x2="-777.34" y2="-913.25"/>
		</g>
		<line class="st4" x1="-802.22" y1="-910.37" x2="-798.45" y2="-910.37"/>
	</g>
	<g>
		<polyline class="st4" points="-620.58,-460.75 -620.58,-440.49 -620.58,-440.49 -620.58,-440.49 -603.7,-440.49 		"/>
		<path class="st4" d="M-620.84-409.02c-17.22,0-31.23-14.01-31.23-31.23c0-17.22,14.01-31.23,31.23-31.23
			c17.22,0,31.23,14.01,31.23,31.23C-589.61-423.03-603.62-409.02-620.84-409.02z"/>
	</g>
	<g>
		<path class="st4" d="M-603.73-905.73c-4.15,6.43-12.73,8.27-19.16,4.12c-3.03-1.96-5.04-4.89-5.88-8.12
			c-0.95-3.63-0.43-7.64,1.77-11.04c4.15-6.43,12.73-8.27,19.16-4.12C-601.42-920.74-599.57-912.16-603.73-905.73z"/>
		<path class="st4" d="M-620.76-881.17c0,3.86-3.13,6.98-6.98,6.98c-3.86,0-6.98-3.13-6.98-6.98c0-3.86,3.13-6.98,6.98-6.98
			C-623.89-888.15-620.76-885.03-620.76-881.17z"/>
		<path class="st4" d="M-598.17-881.17c0,3.86-3.13,6.98-6.98,6.98c-3.86,0-6.98-3.13-6.98-6.98c0-3.86,3.13-6.98,6.98-6.98
			C-601.3-888.15-598.17-885.03-598.17-881.17z"/>
		<polyline class="st4" points="-651.75,-924.11 -644.88,-922.23 -632.31,-888.93 -600.24,-888.93 -588.83,-910.37 -601.73,-910.37 
					"/>
		<line class="st4" x1="-633.32" y1="-910.37" x2="-629.55" y2="-910.37"/>
		<polyline class="st5" points="-622.17,-914.9 -616.54,-909.28 -616.54,-909.28 -616.54,-909.28 -607.94,-917.88 		"/>
	</g>
	<g>
		<path class="st4" d="M-1096.98-570.17h-59.35c-1.21,0-2.2-1-2.2-2.23v-42.3c0-1.22,0.99-2.23,2.2-2.23h59.35
			c1.21,0,2.2,1,2.2,2.23v42.3C-1094.78-571.17-1095.77-570.17-1096.98-570.17z"/>
		<line class="st4" x1="-1158.53" y1="-601.86" x2="-1094.78" y2="-601.86"/>
		<g>
			<path class="st4" d="M-1110.72-585.85c1.28,2.35,0.42,5.3-1.94,6.59c-2.35,1.28-5.3,0.42-6.59-1.94
				c-1.28-2.35-0.42-5.3,1.94-6.59C-1114.96-589.07-1112.01-588.2-1110.72-585.85z"/>
		</g>
		<g>
			<path class="st4" d="M-1110.44-587.77l1.26-0.49c2.06-0.45,4.25,0.48,5.31,2.42c1.28,2.35,0.42,5.3-1.94,6.59
				c-1.1,0.6-2.34,0.73-3.47,0.46c0,0-0.56-0.11-1.25-0.5"/>
		</g>
	</g>
	<g>
		<path class="st4" d="M-928.5-570.17h-59.35c-1.21,0-2.2-1-2.2-2.23v-42.3c0-1.22,0.99-2.23,2.2-2.23h59.35c1.21,0,2.2,1,2.2,2.23
			v42.3C-926.3-571.17-927.29-570.17-928.5-570.17z"/>
		<line class="st4" x1="-990.05" y1="-601.86" x2="-926.3" y2="-601.86"/>
		<line class="st4" x1="-975.18" y1="-589.14" x2="-975.18" y2="-579.94"/>
		<line class="st4" x1="-969.51" y1="-589.14" x2="-969.51" y2="-579.94"/>
		<line class="st4" x1="-963.85" y1="-589.14" x2="-963.85" y2="-579.94"/>
		<line class="st4" x1="-958.18" y1="-589.14" x2="-958.18" y2="-579.94"/>
		<line class="st4" x1="-952.51" y1="-589.14" x2="-952.51" y2="-579.94"/>
		<line class="st4" x1="-946.85" y1="-589.14" x2="-946.85" y2="-579.94"/>
		<line class="st4" x1="-941.18" y1="-589.14" x2="-941.18" y2="-579.94"/>
	</g>
	<g>
		<g>
			<path class="st4" d="M-454.37-752.44c-0.56,2.09-2.71,3.32-4.8,2.75c-2.09-0.56-3.32-2.71-2.75-4.8c0.56-2.09,2.71-3.32,4.8-2.75
				C-455.03-756.68-453.8-754.53-454.37-752.44z"/>
			<path class="st4" d="M-441.32-740.3c-0.57,2.11-2.75,3.36-4.86,2.79c-2.11-0.57-3.36-2.75-2.79-4.86
				c0.57-2.11,2.75-3.36,4.86-2.79C-442-744.59-440.75-742.41-441.32-740.3z"/>
			<line class="st4" x1="-459.9" y1="-739.45" x2="-443.69" y2="-755.9"/>
		</g>
		<polygon class="st4" points="-451.62,-773.25 -443.58,-777.37 -438.68,-769.79 -429.65,-769.33 -429.2,-760.31 -421.62,-755.41 
			-425.73,-747.37 -421.62,-739.33 -429.2,-734.43 -429.65,-725.41 -438.68,-724.96 -443.58,-717.37 -451.62,-721.49 
			-459.65,-717.37 -464.56,-724.96 -473.58,-725.41 -474.03,-734.43 -481.62,-739.33 -477.5,-747.37 -481.62,-755.41 
			-474.03,-760.31 -473.58,-769.33 -464.56,-769.79 -459.65,-777.37 		"/>
	</g>
	<g>
		<path class="st4" d="M-788.21-469.03c-15.82,0-28.65,12.83-28.65,28.65c0,4.84,1.21,9.39,3.33,13.39l-7.92,13.15l16.67-3.19
			l-0.02-0.03c4.68,3.34,10.4,5.32,16.59,5.32c15.82,0,28.65-12.83,28.65-28.65C-759.56-456.21-772.39-469.03-788.21-469.03z"/>
		<g>
			<line class="st4" x1="-792.88" y1="-439.98" x2="-783.22" y2="-439.98"/>
			<line class="st4" x1="-788.05" y1="-435.15" x2="-788.05" y2="-444.81"/>
		</g>
		<polyline class="st4" points="-804.06,-445.76 -800.4,-447.07 -800.4,-432.9 		"/>
		<polyline class="st4" points="-777.81,-445.76 -774.15,-447.07 -774.15,-432.9 		"/>
	</g>
	<g>
		<path class="st4" d="M-804.83-293.45l14.93-20.13c0,0,4.52-7.94,11.26-1.2c5.33,5.33-2.73,17.06-2.73,17.06s-2.13,6.4,6.4,6.4
			c8.53,0,9.13,0,9.13,0s7.93,0,5.8,6.4c-2.13,6.4-8.53,18.61-8.53,18.61s-4.26,4.26-8.53,4.26c-4.26,0-18.59,0-18.59,0
			s-9.13,0-9.13-6.4h-12.79v-25H-804.83z"/>
		<line class="st4" x1="-805.12" y1="-293.45" x2="-805.12" y2="-268.45"/>
	</g>
	<g>
		<polyline class="st4" points="-451.94,-460.75 -451.94,-440.49 -451.94,-440.49 -451.94,-440.49 -435.06,-440.49 		"/>
		<path class="st4" d="M-452.21-471.48c17.22,0,31.23,14.01,31.23,31.23c0,17.22-14.01,31.23-31.23,31.23
			c-17.22,0-31.23-14.01-31.23-31.23l-4.2,5.71"/>
		<line class="st4" x1="-477.14" y1="-434.89" x2="-483.44" y2="-440.25"/>
	</g>
	<g>
		<g>
			
				<ellipse transform="matrix(1 -8.977138e-03 8.977138e-03 1 5.3423 -5.6543)" class="st4" cx="-627.17" cy="-597.92" rx="25.96" ry="25.96"/>
		</g>
		<g>
			<path class="st4" d="M-608.15-616.16c10.81,3.13,18.72,13.11,18.72,24.93c0,14.34-11.62,25.96-25.96,25.96
				c-6.72,0-12.85-2.56-17.46-6.75"/>
		</g>
		<g>
			<polyline class="st4" points="-642.25,-604.56 -634.76,-586.58 -627.97,-604.56 -620.69,-586.58 -614.01,-604.56 			"/>
			<line class="st4" x1="-644.96" y1="-596.83" x2="-611.3" y2="-596.83"/>
		</g>
	</g>
	<g>
		<path class="st4" d="M-253.4-902.75v-7.35c0-2.31-1.89-6.3-4.2-6.3h-48.92c-2.19,0-2.8-2.22-2.8-2.22"/>
		<path class="st4" d="M-259.88-916.4v-4.2c0-2.31-1.89-4.2-4.2-4.2h-46.54c-2.31,0-4.2,1.89-4.2,4.2c0,0,0,35.7,0,39.2
			c0,4.11,2.18,4.9,5.25,4.9c2.44,0,51.98,0,51.98,0c2.31,0,4.2-1.89,4.2-4.2v-12.08"/>
		<path class="st4" d="M-252.09-892.78h-12.34c-1.15,0-2.1-0.95-2.1-2.1v-5.77c0-1.16,0.95-2.1,2.1-2.1h12.34
			c1.15,0,1.66,0.95,1.66,2.1v5.77C-250.43-893.72-250.94-892.78-252.09-892.78z"/>
	</g>
	<g>
		<rect x="-1152.03" y="-157.12" class="st4" width="49.94" height="49.94"/>
		<rect x="-1146.15" y="-151.24" class="st4" width="11.75" height="11.75"/>
		<rect x="-1119.71" y="-151.24" class="st4" width="11.75" height="11.75"/>
		<rect x="-1146.15" y="-124.8" class="st4" width="11.75" height="11.75"/>
		<rect x="-1119.71" y="-124.8" class="st4" width="11.75" height="11.75"/>
		<line class="st4" x1="-1127.43" y1="-151.24" x2="-1127.43" y2="-113.05"/>
		<line class="st4" x1="-1146.15" y1="-132.15" x2="-1107.96" y2="-132.15"/>
	</g>
	<g>
		<path class="st4" d="M-632.29-110.12c0,3.86-3.13,6.98-6.98,6.98c-3.86,0-6.98-3.13-6.98-6.98c0-3.86,3.13-6.98,6.98-6.98
			C-635.41-117.1-632.29-113.97-632.29-110.12z"/>
		<circle class="st4" cx="-604.66" cy="-110.12" r="6.98"/>
		<path class="st4" d="M-598.92-143.83c0-1.84-1.83-3.68-4.32-3.68h-9.7"/>
		<path class="st4" d="M-597.76-111.35h6.09c1.15,0,2.1-0.94,2.1-2.1v-17.47c0-1.15-0.95-1.82-2.1-1.82"/>
		<line class="st4" x1="-611.48" y1="-111.35" x2="-632.57" y2="-111.35"/>
		<path class="st4" d="M-606.45-132.74h14.29l0,0c0-5.55-2.94-11.09-8.19-11.09h-6.1V-132.74z"/>
		<path class="st4" d="M-613.17-111.35v-42.04c0-1.15-0.95-2.1-2.1-2.1h-35.74c-1.16,0-2.1,0.95-2.1,2.1v39.94
			c0,1.16,0.95,2.1,2.1,2.1h5.12"/>
		<line class="st4" x1="-594.84" y1="-127.03" x2="-594.84" y2="-123.25"/>
	</g>
	<g>
		<path class="st4" d="M-283.31-471.48c17.22,0,31.23,14.01,31.23,31.23c0,17.22-14.01,31.23-31.23,31.23
			c-17.22,0-31.23-14.01-31.23-31.23l-4.2,5.71"/>
		<line class="st4" x1="-308.24" y1="-434.89" x2="-314.54" y2="-440.25"/>
		<path class="st7" d="M-286.38-431.41h-11.64c-1.94,0-0.39-2.06,0-2.39l7.23-6.38c3.26-2.9,4.41-4.17,4.41-6.53
			c0-2.36-2.79-5.13-6.26-4.17c-2.87,0.79-5.39,3.09-5.39,3.09 M-283.9-447.05"/>
		<polyline class="st7" points="-267.11,-437.73 -281.27,-437.73 -270.41,-450.89 -270.41,-431.41 		"/>
	</g>
	<g>
		<g>
			<line class="st4" x1="-283.36" y1="-777.96" x2="-283.36" y2="-772.91"/>
			<line class="st4" x1="-269.83" y1="-776.48" x2="-272.36" y2="-772.1"/>
			<line class="st4" x1="-296.89" y1="-776.48" x2="-294.36" y2="-772.1"/>
		</g>
		<polygon class="st4" points="-297.64,-766.39 -315.63,-748.18 -283.48,-716.09 -251.33,-748.18 -269.31,-766.39 		"/>
		<line class="st4" x1="-315.63" y1="-748.18" x2="-251.33" y2="-748.18"/>
		<polyline class="st4" points="-269.31,-766.39 -269.31,-748.95 -283.48,-766.39 -297.64,-748.95 -297.64,-766.39 		"/>
		<polyline class="st4" points="-297.64,-748.95 -283.48,-716.09 -269.31,-748.95 		"/>
	</g>
	<g>
		<polygon class="st4" points="-989.37,-153.77 -989.37,-137.89 -987.27,-137.89 -987.27,-106.18 -930.13,-106.18 -930.13,-137.89 
			-928.03,-137.89 -928.03,-153.77 		"/>
		<line class="st4" x1="-989.37" y1="-137.89" x2="-928.03" y2="-137.89"/>
		<line class="st4" x1="-964.13" y1="-130.01" x2="-953.28" y2="-130.01"/>
	</g>
	<g>
		<line class="st4" x1="-795.26" y1="-130.01" x2="-784.41" y2="-130.01"/>
		<polygon class="st4" points="-814.2,-155.87 -820.5,-137.89 -820.5,-137.89 -820.5,-106.18 -759.17,-106.18 -759.17,-137.89 
			-759.17,-137.89 -765.47,-155.87 		"/>
		<line class="st4" x1="-820.5" y1="-137.89" x2="-759.17" y2="-137.89"/>
		<line class="st4" x1="-789.84" y1="-155.87" x2="-789.84" y2="-137.89"/>
	</g>
	<g>
		<polygon class="st4" points="-427.9,-873.78 -473.67,-873.78 -482.82,-910.47 -420.58,-910.47 		"/>
		<line class="st4" x1="-480.25" y1="-899.61" x2="-423.15" y2="-899.61"/>
		<g>
			<line class="st4" x1="-468.57" y1="-910.47" x2="-455.86" y2="-927.52"/>
			<line class="st4" x1="-434.83" y1="-910.47" x2="-447.54" y2="-927.52"/>
		</g>
	</g>
	<g>
		<path class="st4" d="M-1126.66-882.67c0,3.86-3.13,6.98-6.98,6.98c-3.86,0-6.98-3.13-6.98-6.98c0-3.86,3.13-6.98,6.98-6.98
			C-1129.79-889.65-1126.66-886.53-1126.66-882.67z"/>
		<path class="st4" d="M-1104.07-882.67c0,3.86-3.13,6.98-6.98,6.98c-3.86,0-6.98-3.13-6.98-6.98c0-3.86,3.13-6.98,6.98-6.98
			C-1107.2-889.65-1104.07-886.53-1104.07-882.67z"/>
		<polyline class="st4" points="-1157.65,-925.61 -1150.78,-923.74 -1138.21,-890.43 -1106.14,-890.43 -1097.04,-911.88 
			-1136.17,-911.88 		"/>
	</g>
	<g>
		<path class="st4" d="M-463.39-110.12c0,3.86-3.13,6.98-6.98,6.98c-3.86,0-6.98-3.13-6.98-6.98c0-3.86,3.13-6.98,6.98-6.98
			C-466.51-117.1-463.39-113.97-463.39-110.12z"/>
		<circle class="st4" cx="-435.76" cy="-110.12" r="6.98"/>
		<path class="st4" d="M-430.02-143.83c0-1.84-1.83-3.68-4.32-3.68h-9.7"/>
		<path class="st4" d="M-428.86-111.35h6.09c1.15,0,2.1-0.94,2.1-2.1v-17.47c0-1.15-0.95-1.82-2.1-1.82"/>
		<line class="st4" x1="-442.58" y1="-111.35" x2="-463.67" y2="-111.35"/>
		<path class="st4" d="M-437.55-132.74h14.28l0,0c0-5.55-2.94-11.09-8.19-11.09h-6.1V-132.74z"/>
		<path class="st4" d="M-465.56-155.49h-16.56c-1.15,0-2.1,0.95-2.1,2.1v39.94c0,1.16,0.95,2.1,2.1,2.1h5.12"/>
		<path class="st4" d="M-444.27-111.35v-42.04c0-1.15-0.94-2.1-2.1-2.1h-4.6"/>
		<line class="st4" x1="-425.94" y1="-127.03" x2="-425.94" y2="-123.25"/>
		<path class="st4" d="M-469.35-120.72l-11.21-7.83c-1.17-0.82-1.46-2.45-0.64-3.63l15.64-22.39c1.27-1.82,2.75-1.9,2.75-1.9
			l11.3-1.72l2.38,11.73c0,0,0.26,0.97-0.95,2.7l-15.64,22.39C-466.55-120.19-468.18-119.9-469.35-120.72z"/>
		<g>
			<path d="M-475.73-131.01l2.38-3.35l0.67,0.48l-1.81,2.55l2.07,1.47l1.67-2.35l0.66,0.47l-1.67,2.35l2.81,2l-0.57,0.8
				L-475.73-131.01z"/>
			<path d="M-472.46-135.45c0.21-0.47,0.57-1.08,0.97-1.63c0.61-0.86,1.16-1.3,1.78-1.44c0.5-0.12,1.05,0.01,1.53,0.35
				c0.82,0.58,1,1.49,0.76,2.3l0.03,0.02c0.51-0.36,1.15-0.33,1.9-0.02c1.01,0.41,1.72,0.69,2.05,0.73l-0.59,0.83
				c-0.25-0.02-0.88-0.26-1.78-0.64c-0.99-0.43-1.55-0.32-2.1,0.39l-0.54,0.76l2.69,1.91l-0.57,0.8L-472.46-135.45z M-469.06-134.24
				l0.58-0.82c0.61-0.86,0.53-1.73-0.18-2.24c-0.8-0.57-1.57-0.24-2.18,0.61c-0.28,0.39-0.44,0.69-0.49,0.85L-469.06-134.24z"/>
			<path d="M-463.42-141.35l-1.72,2.42l2.24,1.59l1.91-2.69l0.68,0.48l-2.48,3.5l-6.22-4.41l2.38-3.36l0.67,0.48l-1.81,2.55
				l1.97,1.4l1.72-2.42L-463.42-141.35z"/>
			<path d="M-460.2-145.89l-1.72,2.42l2.24,1.59l1.91-2.69l0.67,0.48l-2.48,3.49l-6.22-4.42l2.38-3.36l0.67,0.48l-1.81,2.56
				l1.97,1.4l1.72-2.42L-460.2-145.89z"/>
		</g>
		<path class="st4" d="M-456.49-150.29c0,0,5.25-15.26,11.07-11.68c2.85,1.75-0.95,6.48-0.95,6.48"/>
	</g>
	<g>
		<g>
			<g>
				
					<ellipse transform="matrix(0.9996 -0.0286 0.0286 0.9996 16.4181 -12.7474)" class="st4" cx="-438.16" cy="-581.28" rx="18.31" ry="18.31"/>
			</g>
			<g>
				<polyline class="st4" points="-448.8,-585.97 -443.52,-573.28 -438.72,-585.97 -433.59,-573.28 -428.87,-585.97 				"/>
				<line class="st4" x1="-450.71" y1="-580.51" x2="-426.96" y2="-580.51"/>
			</g>
		</g>
		<ellipse class="st4" cx="-459.94" cy="-616.96" rx="21.78" ry="8.93"/>
		<path class="st4" d="M-438.16-607.34c0,3.98-6.36,7.36-15.14,8.51c-2.1,0.27-4.33,0.42-6.65,0.42c-12.03,0-21.78-4-21.78-8.93"/>
		<path class="st4" d="M-454.75-589.04c-1.67,0.17-3.41,0.26-5.2,0.26c-12.03,0-21.78-4-21.78-8.93"/>
		<path class="st4" d="M-452.45-569.08c-2.34,0.35-4.86,0.54-7.49,0.54c-12.03,0-21.78-4-21.78-8.93"/>
		<path class="st4" d="M-456.47-579.27c-1.13,0.07-2.29,0.11-3.47,0.11c-12.03,0-21.78-4-21.78-8.93"/>
		<line class="st4" x1="-481.73" y1="-616.96" x2="-481.73" y2="-577.47"/>
		<line class="st4" x1="-438.16" y1="-616.96" x2="-438.16" y2="-599.59"/>
	</g>
	<g>
		<g>
			<path class="st4" d="M-259.54-603.18v31.98c0,1.22-1.01,2.21-2.24,2.21h-42.54c-1.23,0-2.24-0.99-2.24-2.21v-31.98H-259.54z"/>
			<line class="st4" x1="-274.69" y1="-603.18" x2="-274.69" y2="-568.99"/>
			<g>
				<path class="st4" d="M-290.79-585.02c-2.37,1.29-5.33,0.42-6.62-1.95c-1.29-2.37-0.42-5.33,1.95-6.62
					c2.37-1.29,5.33-0.42,6.62,1.95C-287.55-589.28-288.42-586.31-290.79-585.02z"/>
			</g>
			<g>
				<path class="st4" d="M-288.85-584.74l0.5,1.27c0.46,2.07-0.48,4.27-2.43,5.34c-2.37,1.29-5.33,0.42-6.62-1.95
					c-0.61-1.11-0.74-2.35-0.46-3.49c0,0,0.11-0.57,0.5-1.26"/>
			</g>
		</g>
		<path class="st4" d="M-306.56-589.41h-6.41c-1.18,0-2.14-0.96-2.14-2.14v-23.51c0-1.18,0.96-2.14,2.14-2.14h59.84
			c1.18,0,2.14,0.96,2.14,2.14v23.51c0,1.18-0.96,2.14-2.14,2.14h-6.41"/>
		<polyline class="st4" points="-306.56,-600.22 -310.03,-600.22 -310.03,-607.17 -256.33,-607.17 -256.33,-599.56 -258.47,-599.56 
					"/>
	</g>
	<g>
		<g>
			<polyline class="st4" points="-800.07,-605.96 -794.57,-592.76 -789.58,-605.96 -784.24,-592.76 -779.33,-605.96 			"/>
			<line class="st4" x1="-802.05" y1="-600.28" x2="-777.35" y2="-600.28"/>
		</g>
		<path class="st4" d="M-758.55-578.87h-61.73c-0.55,0-1-0.45-1-1v-38.97c0-0.55,0.45-1,1-1h61.73c0.55,0,1,0.45,1,1v38.97
			C-757.55-579.32-758-578.87-758.55-578.87z"/>
		<path class="st4" d="M-757.55-575.46c0,1.26-1.02,2.28-2.28,2.28h-59.18c-1.26,0-2.28-1.02-2.28-2.28"/>
		<path class="st4" d="M-757.55-581.15v11.38c0,1.26-1.02,2.28-2.28,2.28h-59.18c-1.26,0-2.28-1.02-2.28-2.28v-11.38"/>
		<path class="st4" d="M-809.76-619.84c0,6.36-5.16,11.52-11.52,11.52"/>
		<path class="st4" d="M-758.12-608.32c-6.36,0-11.52-5.16-11.52-11.52"/>
		<path class="st4" d="M-821.3-590.49c6.36,0,11.52,5.16,11.52,11.52"/>
		<path class="st4" d="M-769.66-578.96c0-6.36,5.16-11.52,11.52-11.52"/>
	</g>
	<g>
		<g>
			<path class="st4" d="M-459.93-286.37h12.98c0.58,0,1.06,0.48,1.06,1.06v6.04c0,0.58-0.48,1.06-1.06,1.06h-12.98"/>
			<path class="st4" d="M-470.79-278.22h-14.03c-0.58,0-1.06-0.48-1.06-1.06v-6.04c0-0.58,0.48-1.06,1.06-1.06h13.8"/>
			<path class="st4" d="M-460.85-278.22"/>
			<path class="st4" d="M-448.02-277.91v22.01c0,0.75-0.61,1.36-1.36,1.36h-33.01c-0.75,0-1.36-0.61-1.36-1.36v-22.32"/>
			<path class="st4" d="M-463.02-289.75l4.26-2.48c4.42-2.61,9.01-1.03,9.01,4.41v1.43"/>
			<path class="st4" d="M-481.88-286.48v-1.13c0-5.39,4.81-8.17,8.38-5.83l5.07,4.02"/>
			<path class="st4" d="M-468.46-287.23v-0.78c0-1.05,0.85-1.9,1.9-1.9h1.69c1.05,0,1.9,0.85,1.9,1.9v0.78"/>
		</g>
		<g>
			<path class="st4" d="M-436.02-309.34h13.51c0.58,0,1.06,0.48,1.06,1.06v6.04c0,0.58-0.48,1.06-1.06,1.06h-13.28"/>
			<path class="st4" d="M-446.49-301.19h-13.89c-0.58,0-1.06-0.48-1.06-1.06v-6.04c0-0.58,0.48-1.06,1.06-1.06h13.89"/>
			<line class="st4" x1="-459.31" y1="-291.87" x2="-459.31" y2="-301.19"/>
			<path class="st4" d="M-423.59-300.88v44.98c0,0.75-0.61,1.36-1.36,1.36h-25.5"/>
			<path class="st4" d="M-438.59-312.67l4.26-2.48c4.42-2.61,9.01-1.94,9.01,3.5v2.29"/>
			<path class="st4" d="M-457.44-309.45v-2.46c0-5.39,4.81-6.8,8.38-4.45l5.07,4.02"/>
			<path class="st4" d="M-444.03-309.97v-0.97c0-1.05,0.85-1.9,1.9-1.9h1.69c1.05,0,1.9,0.85,1.9,1.9v0.97"/>
		</g>
		<polygon class="st4" points="-460.4,-270.44 -465.55,-274.19 -470.71,-270.44 -470.71,-286.84 -460.4,-286.84 		"/>
		<polygon class="st4" points="-436.02,-293.09 -441.1,-296.84 -446.34,-293.09 -446.34,-309.5 -436.02,-309.5 		"/>
	</g>
	<g>
		<g>
			<g>
				<g>
					<path d="M-293.19-302.12c-1.08,0-1.96,0.88-1.96,1.96c0,1.08,0.88,1.96,1.96,1.96c1.08,0,1.96-0.88,1.96-1.96
						C-291.22-301.24-292.1-302.12-293.19-302.12L-293.19-302.12z"/>
				</g>
			</g>
			<g>
				<g>
					<path d="M-269.63-302.12c-1.08,0-1.96,0.88-1.96,1.96c0,1.08,0.88,1.96,1.96,1.96c1.08,0,1.96-0.88,1.96-1.96
						C-267.66-301.24-268.54-302.12-269.63-302.12L-269.63-302.12z"/>
				</g>
			</g>
			<path class="st4" d="M-308.22-287.94v-17.13c0-1.13,0.93-2.06,2.06-2.06h49.5c1.13,0,2.06,0.93,2.06,2.06v45.38
				c0,1.13-0.93,2.06-2.06,2.06h-19.99"/>
			<path class="st4" d="M-293.19-301.48v-7.06c0-4.54,3.71-8.25,8.25-8.25h7.06c4.54,0,8.25,3.71,8.25,8.25v7.06"/>
		</g>
		<g>
			<path class="st4" d="M-290.95-278.25h-23.4c-0.83,0-1.52-0.68-1.52-1.52v-6.07c0-0.83,0.68-1.52,1.52-1.52h37.9
				c0.83,0,1.52,0.68,1.52,1.52v6.07c0,0.83-0.68,1.52-1.52,1.52h-14.43"/>
			<path class="st4" d="M-276.78-277.91v21.33c0,0.83-0.68,1.52-1.52,1.52h-34.21c-0.83,0-1.52-0.68-1.52-1.52v-21.67"/>
		</g>
		<path class="st4" d="M-299.38-291.69c0,0,4.45,5.39,4.45,4.69v31.64"/>
		<line class="st4" x1="-289.77" y1="-292.39" x2="-295.05" y2="-287.12"/>
		<line class="st4" x1="-270.87" y1="-258.09" x2="-255.24" y2="-273.72"/>
	</g>
	<g>
		<g>
			<path class="st4" d="M-928.68-415.22h-58.68c-0.55,0-1-0.45-1-1v-28.66c0-0.55,0.45-1,1-1h58.68c0.55,0,1,0.45,1,1v28.66
				C-927.68-415.67-928.13-415.22-928.68-415.22z"/>
			<line class="st4" x1="-955.16" y1="-464.26" x2="-943.32" y2="-445.88"/>
			<line class="st4" x1="-972.72" y1="-445.88" x2="-960.94" y2="-464.15"/>
		</g>
		<circle class="st4" cx="-958.02" cy="-466.32" r="3"/>
		<g>
			<path d="M-973.59-426.47c-0.36,0.18-1.18,0.38-2.25,0.38c-3.03,0-4.59-1.88-4.59-4.38c0-2.99,2.13-4.65,4.78-4.65
				c1.03,0,1.81,0.21,2.16,0.39l-0.4,1.57c-0.4-0.17-0.96-0.33-1.66-0.33c-1.57,0-2.79,0.95-2.79,2.9c0,1.75,1.04,2.86,2.81,2.86
				c0.6,0,1.26-0.13,1.65-0.29L-973.59-426.47z"/>
			<path d="M-970.21-434.98h1.99v7.1h3.48v1.66h-5.47V-434.98z"/>
			<path d="M-953.96-430.69c0,2.87-1.74,4.62-4.3,4.62c-2.6,0-4.12-1.96-4.12-4.46c0-2.63,1.68-4.59,4.26-4.59
				C-955.43-435.12-953.96-433.11-953.96-430.69z M-960.29-430.57c0,1.72,0.81,2.93,2.13,2.93c1.34,0,2.11-1.27,2.11-2.98
				c0-1.57-0.75-2.92-2.12-2.92C-959.51-433.55-960.29-432.28-960.29-430.57z"/>
			<path d="M-950.52-428.26c0.53,0.27,1.35,0.55,2.2,0.55c0.91,0,1.39-0.38,1.39-0.95c0-0.55-0.42-0.86-1.47-1.23
				c-1.46-0.51-2.4-1.31-2.4-2.59c0-1.5,1.25-2.64,3.31-2.64c0.99,0,1.72,0.21,2.24,0.44l-0.44,1.6c-0.35-0.17-0.98-0.42-1.83-0.42
				s-1.27,0.39-1.27,0.84c0,0.56,0.49,0.81,1.62,1.24c1.55,0.57,2.27,1.38,2.27,2.61c0,1.47-1.13,2.72-3.54,2.72
				c-1,0-1.99-0.26-2.48-0.53L-950.52-428.26z"/>
			<path d="M-936.27-429.92h-3.22v2.08h3.6v1.62h-5.59v-8.76h5.41v1.62h-3.42v1.82h3.22V-429.92z"/>
		</g>
	</g>
	<g>
		<g>
			<path class="st4" d="M-1097.34-415.22h-58.68c-0.55,0-1-0.45-1-1v-28.66c0-0.55,0.45-1,1-1h58.68c0.55,0,1,0.45,1,1v28.66
				C-1096.34-415.67-1096.79-415.22-1097.34-415.22z"/>
			<line class="st4" x1="-1123.83" y1="-464.26" x2="-1111.99" y2="-445.88"/>
			<line class="st4" x1="-1141.38" y1="-445.88" x2="-1129.61" y2="-464.15"/>
		</g>
		<circle class="st4" cx="-1126.69" cy="-466.32" r="3"/>
		<g>
			<path d="M-1138.44-430.69c0,2.87-1.74,4.62-4.3,4.62c-2.6,0-4.12-1.96-4.12-4.46c0-2.63,1.68-4.59,4.26-4.59
				C-1139.91-435.12-1138.44-433.11-1138.44-430.69z M-1144.77-430.57c0,1.72,0.81,2.93,2.13,2.93c1.34,0,2.11-1.27,2.11-2.98
				c0-1.57-0.75-2.92-2.12-2.92C-1143.99-433.55-1144.77-432.28-1144.77-430.57z"/>
			<path d="M-1135.06-434.86c0.61-0.1,1.47-0.18,2.68-0.18c1.22,0,2.09,0.23,2.68,0.7c0.56,0.44,0.94,1.17,0.94,2.03
				c0,0.86-0.29,1.59-0.81,2.08c-0.68,0.64-1.68,0.92-2.85,0.92c-0.26,0-0.49-0.01-0.68-0.04v3.13h-1.96V-434.86z M-1133.1-430.89
				c0.17,0.04,0.38,0.05,0.66,0.05c1.05,0,1.7-0.53,1.7-1.43c0-0.81-0.56-1.29-1.55-1.29c-0.4,0-0.68,0.04-0.82,0.08V-430.89z"/>
			<path d="M-1120.22-429.92h-3.22v2.08h3.6v1.62h-5.59v-8.76h5.41v1.62h-3.42v1.82h3.22V-429.92z"/>
			<path d="M-1116.41-426.22v-8.76h2.31l1.82,3.21c0.52,0.92,1.04,2.01,1.43,3h0.04c-0.13-1.16-0.17-2.34-0.17-3.65v-2.56h1.82v8.76
				h-2.08l-1.87-3.38c-0.52-0.94-1.09-2.07-1.52-3.09l-0.04,0.01c0.05,1.16,0.08,2.39,0.08,3.82v2.64H-1116.41z"/>
		</g>
	</g>
	<g>
		<path class="st4" d="M51.43,26.87c0-14.16-12.24-25.46-26.72-23.9C13.75,4.15,4.88,12.89,3.52,23.83
			c-0.78,6.33,0.92,12.23,4.24,16.91l16.2,22.63c1.68,2.34,5.15,2.34,6.83,0L47,40.74C49.78,36.82,51.43,32.04,51.43,26.87z"/>
		<circle class="st4" cx="27.38" cy="25.82" r="10"/>
	</g>
</g>
</svg>
