<?xml version="1.0" encoding="utf-8"?>
<!-- Generator: Adobe Illustrator 25.4.0, SVG Export Plug-In . SVG Version: 6.00 Build 0)  -->
<svg version="1.1" id="_xF91C_迹_x5F_1" xmlns="http://www.w3.org/2000/svg" xmlns:xlink="http://www.w3.org/1999/xlink" x="0px"
	 y="0px" viewBox="0 0 40.55 35.67" style="enable-background:new 0 0 40.55 35.67;" xml:space="preserve">
<style type="text/css">
	.st0{fill:#D3D3D3;}
	.st1{fill:url(#SVGID_1_);}
	.st2{fill:url(#SVGID_00000041993186323644481690000007306279430154805405_);}
	.st3{fill:url(#SVGID_00000124119834644707294620000007560303530744076457_);}
	.st4{fill:url(#SVGID_00000101095186658409900630000013383164158240837788_);}
	.st5{fill:url(#SVGID_00000090988900311007616000000008794326206876870590_);}
	.st6{fill:#2FA9ED;}
	.st7{fill:#FFFFFF;}
	.st8{fill:#383838;}
	.st9{fill:url(#SVGID_00000000196095819613198090000007817901266364386953_);}
	.st10{fill:#3098E8;}
	.st11{fill:url(#SVGID_00000086659798122360631910000012857442887120450745_);}
	.st12{fill:#F44264;}
	.st13{fill:url(#SVGID_00000151501198863004333200000008199640834888138160_);}
	.st14{fill:#B5B5B5;}
</style>
<g>
	
		<ellipse transform="matrix(0.7071 -0.7071 0.7071 0.7071 -87.622 176.3785)" class="st0" cx="169.1" cy="193.96" rx="32.88" ry="32.88"/>
	<g>
		<linearGradient id="SVGID_1_" gradientUnits="userSpaceOnUse" x1="130.7216" y1="193.9586" x2="207.4716" y2="193.9586">
			<stop  offset="0" style="stop-color:#FFAF38"/>
			<stop  offset="1" style="stop-color:#D1287D"/>
		</linearGradient>
		<path class="st1" d="M169.1,232.33c-21.16,0-38.38-17.21-38.38-38.38c0-21.16,17.21-38.38,38.38-38.38
			c21.16,0,38.38,17.21,38.38,38.38C207.47,215.12,190.26,232.33,169.1,232.33z M169.1,157.58c-20.06,0-36.38,16.32-36.38,36.38
			c0,20.06,16.32,36.38,36.38,36.38s36.38-16.32,36.38-36.38C205.47,173.9,189.15,157.58,169.1,157.58z"/>
	</g>
</g>
<g>
	<circle class="st0" cx="341.53" cy="-103.57" r="16.09"/>
	<g>
		
			<linearGradient id="SVGID_00000129202497418301963990000013857636165231917963_" gradientUnits="userSpaceOnUse" x1="321.3149" y1="-103.5713" x2="361.7466" y2="-103.5713">
			<stop  offset="0" style="stop-color:#FFAF38"/>
			<stop  offset="1" style="stop-color:#D1287D"/>
		</linearGradient>
		<path style="fill:url(#SVGID_00000129202497418301963990000013857636165231917963_);" d="M341.53-83.36
			c-11.15,0-20.22-9.07-20.22-20.22c0-11.15,9.07-20.22,20.22-20.22s20.22,9.07,20.22,20.22C361.75-92.42,352.68-83.36,341.53-83.36
			z M341.53-122.29c-10.32,0-18.72,8.4-18.72,18.72c0,10.32,8.4,18.72,18.72,18.72c10.32,0,18.72-8.4,18.72-18.72
			C360.25-113.89,351.85-122.29,341.53-122.29z"/>
	</g>
</g>
<g>
	
		<linearGradient id="SVGID_00000043440580043309968940000000107538818145084037_" gradientUnits="userSpaceOnUse" x1="227.7724" y1="193.9584" x2="293.5349" y2="193.9584">
		<stop  offset="0" style="stop-color:#FFAF38"/>
		<stop  offset="1" style="stop-color:#D1287D"/>
	</linearGradient>
	<circle style="fill:url(#SVGID_00000043440580043309968940000000107538818145084037_);" cx="260.65" cy="193.96" r="32.88"/>
	<g>
		
			<linearGradient id="SVGID_00000124883094222647565440000008962917835986838203_" gradientUnits="userSpaceOnUse" x1="222.2787" y1="193.9586" x2="299.0287" y2="193.9586">
			<stop  offset="0" style="stop-color:#FFAF38"/>
			<stop  offset="1" style="stop-color:#D1287D"/>
		</linearGradient>
		<path style="fill:url(#SVGID_00000124883094222647565440000008962917835986838203_);" d="M260.65,232.33
			c-21.16,0-38.38-17.21-38.38-38.38c0-21.16,17.21-38.38,38.38-38.38c21.16,0,38.38,17.21,38.38,38.38
			C299.03,215.12,281.81,232.33,260.65,232.33z M260.65,157.58c-20.06,0-36.38,16.32-36.38,36.38c0,20.06,16.32,36.38,36.38,36.38
			c20.06,0,36.38-16.32,36.38-36.38C297.03,173.9,280.71,157.58,260.65,157.58z"/>
	</g>
</g>
<g>
	
		<ellipse transform="matrix(0.1542 -0.988 0.988 0.1542 175.3699 592.7772)" class="st0" cx="433.91" cy="193.96" rx="32.88" ry="32.88"/>
	<g>
		
			<linearGradient id="SVGID_00000096056031075898325260000005526918871955519109_" gradientUnits="userSpaceOnUse" x1="395.5396" y1="193.9595" x2="472.2896" y2="193.9595">
			<stop  offset="0" style="stop-color:#FFAF38"/>
			<stop  offset="1" style="stop-color:#D1287D"/>
		</linearGradient>
		<path style="fill:url(#SVGID_00000096056031075898325260000005526918871955519109_);" d="M434.45,232.33c-0.55,0-0.99-0.44-1-0.99
			c-0.01-0.55,0.43-1.01,0.99-1.01c0.96-0.01,1.93-0.07,2.88-0.15c0.55-0.06,1.04,0.35,1.09,0.9c0.05,0.55-0.35,1.04-0.9,1.09
			c-1,0.09-2.02,0.15-3.03,0.16C434.46,232.33,434.45,232.33,434.45,232.33z M430.51,232.18c-0.03,0-0.06,0-0.09,0
			c-1-0.09-2.02-0.22-3.01-0.39c-0.54-0.09-0.91-0.61-0.82-1.15c0.09-0.54,0.61-0.9,1.15-0.82c0.94,0.16,1.9,0.29,2.86,0.37
			c0.55,0.05,0.96,0.54,0.91,1.09C431.46,231.79,431.02,232.18,430.51,232.18z M441.3,231.6c-0.47,0-0.88-0.33-0.98-0.8
			c-0.11-0.54,0.24-1.07,0.78-1.18c0.94-0.19,1.88-0.42,2.8-0.68c0.53-0.15,1.08,0.16,1.24,0.69c0.15,0.53-0.16,1.08-0.69,1.24
			c-0.97,0.28-1.96,0.52-2.95,0.71C441.43,231.6,441.36,231.6,441.3,231.6z M423.73,230.93c-0.09,0-0.18-0.01-0.27-0.04
			c-0.97-0.27-1.94-0.59-2.89-0.94c-0.52-0.19-0.78-0.77-0.59-1.28c0.19-0.52,0.77-0.78,1.29-0.59c0.9,0.33,1.82,0.63,2.74,0.89
			c0.53,0.15,0.84,0.7,0.69,1.23C424.57,230.64,424.17,230.93,423.73,230.93z M447.91,229.63c-0.4,0-0.77-0.24-0.93-0.63
			c-0.21-0.51,0.04-1.09,0.55-1.3c0.89-0.36,1.77-0.75,2.62-1.18c0.49-0.25,1.09-0.05,1.34,0.45c0.25,0.49,0.05,1.09-0.45,1.34
			c-0.9,0.45-1.83,0.87-2.77,1.25C448.16,229.6,448.03,229.63,447.91,229.63z M417.3,228.45c-0.15,0-0.3-0.03-0.44-0.1
			c-0.9-0.45-1.8-0.94-2.67-1.46c-0.47-0.28-0.63-0.9-0.34-1.37c0.28-0.47,0.9-0.63,1.37-0.34c0.82,0.49,1.67,0.96,2.53,1.38
			c0.49,0.25,0.7,0.85,0.45,1.34C418.02,228.24,417.66,228.45,417.3,228.45z M454.03,226.47c-0.33,0-0.65-0.16-0.84-0.46
			c-0.3-0.47-0.16-1.08,0.3-1.38c0.8-0.51,1.59-1.06,2.36-1.64c0.44-0.33,1.07-0.25,1.4,0.19c0.33,0.44,0.25,1.07-0.19,1.4
			c-0.81,0.61-1.65,1.2-2.49,1.74C454.4,226.41,454.21,226.47,454.03,226.47z M411.43,224.82c-0.21,0-0.42-0.07-0.6-0.2
			c-0.81-0.61-1.6-1.25-2.35-1.92c-0.41-0.37-0.45-1-0.09-1.41c0.37-0.41,1-0.45,1.41-0.09c0.71,0.63,1.47,1.25,2.23,1.82
			c0.44,0.33,0.53,0.96,0.2,1.4C412.03,224.68,411.74,224.82,411.43,224.82z M459.47,222.23c-0.27,0-0.53-0.11-0.73-0.32
			c-0.38-0.4-0.36-1.04,0.05-1.41c0.69-0.65,1.37-1.34,2.02-2.05c0.37-0.41,1-0.44,1.41-0.07c0.41,0.37,0.44,1,0.07,1.41
			c-0.68,0.75-1.4,1.48-2.13,2.16C459.96,222.14,459.71,222.23,459.47,222.23z M406.33,220.18c-0.27,0-0.54-0.11-0.74-0.33
			c-0.68-0.74-1.34-1.52-1.96-2.32c-0.34-0.44-0.26-1.06,0.17-1.4c0.43-0.34,1.06-0.26,1.4,0.17c0.59,0.76,1.22,1.5,1.86,2.2
			c0.37,0.41,0.34,1.04-0.06,1.41C406.81,220.09,406.57,220.18,406.33,220.18z M464.04,217.08c-0.21,0-0.41-0.06-0.59-0.19
			c-0.44-0.33-0.54-0.95-0.21-1.4c0.57-0.77,1.11-1.58,1.61-2.39c0.29-0.47,0.91-0.62,1.38-0.32c0.47,0.29,0.61,0.91,0.32,1.38
			c-0.53,0.85-1.1,1.7-1.7,2.52C464.65,216.94,464.35,217.08,464.04,217.08z M402.17,214.69c-0.33,0-0.66-0.17-0.85-0.47
			c-0.53-0.85-1.04-1.74-1.5-2.64c-0.25-0.49-0.06-1.09,0.43-1.35c0.49-0.25,1.09-0.06,1.35,0.43c0.44,0.85,0.92,1.69,1.42,2.5
			c0.29,0.47,0.15,1.09-0.32,1.38C402.53,214.64,402.35,214.69,402.17,214.69z M467.6,211.17c-0.15,0-0.29-0.03-0.43-0.1
			c-0.5-0.24-0.71-0.84-0.47-1.33c0.42-0.86,0.8-1.75,1.15-2.64c0.2-0.52,0.78-0.77,1.29-0.57c0.52,0.2,0.77,0.78,0.57,1.29
			c-0.36,0.94-0.77,1.88-1.21,2.79C468.33,210.96,467.97,211.17,467.6,211.17z M399.08,208.53c-0.4,0-0.78-0.24-0.93-0.64
			c-0.37-0.94-0.7-1.9-0.99-2.87c-0.16-0.53,0.14-1.09,0.67-1.25c0.53-0.16,1.09,0.14,1.25,0.67c0.28,0.92,0.59,1.83,0.94,2.72
			c0.2,0.51-0.05,1.09-0.57,1.29C399.32,208.5,399.2,208.53,399.08,208.53z M470.01,204.71c-0.09,0-0.17-0.01-0.26-0.03
			c-0.53-0.14-0.85-0.69-0.7-1.23c0.25-0.92,0.46-1.86,0.64-2.81c0.1-0.54,0.62-0.91,1.17-0.8c0.54,0.1,0.9,0.62,0.8,1.17
			c-0.19,1-0.41,1.99-0.67,2.96C470.85,204.41,470.45,204.71,470.01,204.71z M397.18,201.9c-0.47,0-0.89-0.33-0.98-0.82
			c-0.19-0.99-0.33-2-0.44-3c-0.06-0.55,0.34-1.04,0.89-1.1c0.56-0.06,1.04,0.34,1.1,0.89c0.1,0.95,0.24,1.91,0.42,2.85
			c0.1,0.54-0.26,1.07-0.8,1.17C397.3,201.89,397.24,201.9,397.18,201.9z M471.18,197.91c-0.03,0-0.05,0-0.08,0
			c-0.55-0.04-0.96-0.52-0.92-1.08c0.07-0.95,0.11-1.92,0.11-2.88v-0.16c0-0.55,0.45-1,1-1c0.55,0,1,0.45,1,1v0.16
			c0,1.01-0.04,2.03-0.12,3.03C472.13,197.52,471.69,197.91,471.18,197.91z M396.54,195c-0.55,0-1-0.41-1-0.96v-0.08
			c0-0.98,0.04-1.98,0.11-2.95c0.04-0.55,0.52-0.96,1.07-0.92c0.55,0.04,0.96,0.52,0.92,1.07c-0.07,0.93-0.11,1.87-0.11,2.8
			C397.54,194.51,397.09,195,396.54,195z M471.07,190.87c-0.5,0-0.94-0.38-0.99-0.89c-0.1-0.95-0.25-1.91-0.42-2.85
			c-0.1-0.54,0.25-1.07,0.8-1.17c0.55-0.1,1.07,0.25,1.17,0.8c0.19,0.99,0.34,2,0.45,3c0.06,0.55-0.34,1.04-0.89,1.1
			C471.14,190.86,471.1,190.87,471.07,190.87z M397.16,188.17c-0.06,0-0.12,0-0.18-0.02c-0.54-0.1-0.9-0.62-0.8-1.16
			c0.18-0.99,0.41-1.99,0.67-2.96c0.14-0.53,0.69-0.85,1.22-0.71c0.53,0.14,0.85,0.69,0.71,1.22c-0.25,0.92-0.46,1.86-0.63,2.81
			C398.05,187.83,397.63,188.17,397.16,188.17z M469.69,184.11c-0.43,0-0.83-0.28-0.96-0.71c-0.28-0.91-0.59-1.83-0.94-2.72
			c-0.2-0.51,0.05-1.09,0.57-1.3c0.52-0.2,1.09,0.05,1.3,0.57c0.37,0.94,0.7,1.91,1,2.87c0.16,0.53-0.14,1.09-0.67,1.25
			C469.88,184.1,469.79,184.11,469.69,184.11z M399.02,181.54c-0.12,0-0.24-0.02-0.36-0.07c-0.52-0.2-0.77-0.78-0.57-1.29
			c0.36-0.94,0.77-1.88,1.2-2.79c0.24-0.5,0.84-0.71,1.33-0.47c0.5,0.24,0.71,0.83,0.47,1.33c-0.41,0.87-0.8,1.76-1.14,2.65
			C399.8,181.29,399.42,181.54,399.02,181.54z M467.09,177.73c-0.36,0-0.71-0.2-0.89-0.54c-0.44-0.85-0.92-1.69-1.43-2.5
			c-0.29-0.47-0.15-1.08,0.32-1.38c0.47-0.29,1.08-0.15,1.38,0.32c0.53,0.85,1.04,1.74,1.51,2.64c0.25,0.49,0.06,1.09-0.43,1.35
			C467.4,177.69,467.25,177.73,467.09,177.73z M402.08,175.36c-0.18,0-0.36-0.05-0.52-0.15c-0.47-0.29-0.62-0.91-0.33-1.38
			c0.53-0.86,1.1-1.7,1.7-2.52c0.33-0.45,0.95-0.54,1.4-0.22c0.45,0.33,0.54,0.95,0.22,1.4c-0.57,0.77-1.11,1.58-1.61,2.39
			C402.75,175.19,402.42,175.36,402.08,175.36z M463.36,171.94c-0.3,0-0.59-0.13-0.79-0.38c-0.59-0.75-1.21-1.49-1.86-2.19
			c-0.37-0.41-0.35-1.04,0.06-1.41c0.41-0.37,1.04-0.35,1.41,0.06c0.69,0.75,1.35,1.52,1.96,2.32c0.34,0.44,0.26,1.06-0.17,1.4
			C463.79,171.87,463.57,171.94,463.36,171.94z M406.23,169.85c-0.24,0-0.48-0.09-0.67-0.26c-0.41-0.37-0.44-1-0.07-1.41
			c0.68-0.75,1.39-1.48,2.13-2.17c0.4-0.38,1.04-0.36,1.41,0.04c0.38,0.4,0.36,1.04-0.04,1.41c-0.7,0.65-1.37,1.35-2.02,2.05
			C406.77,169.74,406.5,169.85,406.23,169.85z M458.63,166.92c-0.23,0-0.47-0.08-0.66-0.25c-0.72-0.63-1.47-1.24-2.23-1.82
			c-0.44-0.33-0.53-0.96-0.2-1.4c0.33-0.44,0.96-0.53,1.4-0.2c0.81,0.61,1.6,1.25,2.36,1.92c0.41,0.37,0.45,1,0.09,1.41
			C459.18,166.81,458.9,166.92,458.63,166.92z M411.31,165.19c-0.3,0-0.6-0.14-0.8-0.39c-0.33-0.44-0.25-1.07,0.19-1.4
			c0.8-0.61,1.64-1.19,2.49-1.74c0.46-0.3,1.08-0.16,1.38,0.3c0.3,0.46,0.16,1.08-0.3,1.38c-0.81,0.52-1.6,1.07-2.36,1.65
			C411.74,165.12,411.52,165.19,411.31,165.19z M453.06,162.85c-0.17,0-0.35-0.05-0.51-0.14c-0.82-0.49-1.67-0.96-2.53-1.38
			c-0.5-0.25-0.7-0.84-0.45-1.34c0.24-0.5,0.84-0.7,1.34-0.45c0.9,0.45,1.8,0.94,2.67,1.45c0.47,0.28,0.63,0.9,0.35,1.37
			C453.73,162.68,453.4,162.85,453.06,162.85z M417.16,161.54c-0.37,0-0.72-0.2-0.89-0.55c-0.25-0.49-0.05-1.09,0.44-1.34
			c0.9-0.45,1.83-0.87,2.77-1.25c0.51-0.21,1.1,0.04,1.3,0.55c0.21,0.51-0.04,1.09-0.55,1.3c-0.89,0.36-1.77,0.76-2.62,1.19
			C417.47,161.51,417.31,161.54,417.16,161.54z M446.84,159.88c-0.11,0-0.23-0.02-0.34-0.06c-0.91-0.33-1.83-0.63-2.74-0.89
			c-0.53-0.15-0.84-0.7-0.69-1.23c0.15-0.53,0.7-0.84,1.23-0.69c0.96,0.27,1.93,0.58,2.89,0.93c0.52,0.19,0.78,0.76,0.59,1.28
			C447.63,159.63,447.25,159.88,446.84,159.88z M423.58,159.03c-0.43,0-0.84-0.29-0.96-0.72c-0.15-0.53,0.15-1.08,0.69-1.24
			c0.97-0.28,1.96-0.52,2.95-0.72c0.54-0.1,1.07,0.24,1.18,0.78c0.11,0.54-0.24,1.07-0.78,1.18c-0.94,0.19-1.88,0.42-2.8,0.68
			C423.76,159.02,423.67,159.03,423.58,159.03z M440.18,158.1c-0.05,0-0.11,0-0.17-0.01c-0.95-0.16-1.91-0.28-2.86-0.37
			c-0.55-0.05-0.96-0.53-0.91-1.08c0.05-0.55,0.54-0.96,1.08-0.91c1,0.09,2.01,0.22,3.01,0.38c0.54,0.09,0.91,0.61,0.82,1.15
			C441.08,157.76,440.66,158.1,440.18,158.1z M430.35,157.75c-0.51,0-0.95-0.39-0.99-0.91c-0.05-0.55,0.35-1.04,0.9-1.09
			c1-0.09,2.02-0.15,3.03-0.17c0.56,0,1.01,0.44,1.02,0.98c0.01,0.55-0.43,1.01-0.98,1.02c-0.96,0.02-1.93,0.07-2.88,0.16
			C430.41,157.75,430.38,157.75,430.35,157.75z"/>
	</g>
</g>
<g>
	<path class="st0" d="M360.4,217.15c0-6.25,5.06-11.31,11.31-11.31c2.45,0,4.72,0.79,6.57,2.12c2-4.25,3.12-8.99,3.12-13.99
		c0-18.16-14.72-32.88-32.88-32.88c-18.16,0-32.88,14.72-32.88,32.88c0,18.16,14.72,32.88,32.88,32.88c5,0,9.74-1.12,13.99-3.12
		C361.19,221.86,360.4,219.6,360.4,217.15z"/>
	
		<ellipse transform="matrix(0.9726 -0.2323 0.2323 0.9726 -40.2727 92.2848)" class="st6" cx="371.72" cy="217.15" rx="9.02" ry="9.02"/>
	<g>
		<path class="st7" d="M371.72,222.36c-0.41,0-0.75-0.34-0.75-0.75v-8.93c0-0.41,0.34-0.75,0.75-0.75c0.41,0,0.75,0.34,0.75,0.75
			v8.93C372.47,222.02,372.13,222.36,371.72,222.36z"/>
	</g>
	<g>
		<path class="st7" d="M376.18,217.9h-8.93c-0.41,0-0.75-0.34-0.75-0.75c0-0.41,0.34-0.75,0.75-0.75h8.93
			c0.41,0,0.75,0.34,0.75,0.75C376.93,217.56,376.59,217.9,376.18,217.9z"/>
	</g>
</g>
<g>
	<g>
		<path class="st8" d="M158.64-83.36h-18.95c-4.81,0-8.72-3.91-8.72-8.72v-18.95c0-4.81,3.91-8.72,8.72-8.72h18.95
			c4.81,0,8.72,3.91,8.72,8.72v18.95C167.36-87.27,163.45-83.36,158.64-83.36z M139.69-118.25c-3.98,0-7.22,3.24-7.22,7.22v18.95
			c0,3.98,3.24,7.22,7.22,7.22h18.95c3.98,0,7.22-3.24,7.22-7.22v-18.95c0-3.98-3.24-7.22-7.22-7.22H139.69z"/>
	</g>
	<g>
		
			<rect x="145.3" y="-126.52" transform="matrix(0.7071 -0.7071 0.7071 0.7071 129.1241 67.5072)" class="st8" width="1.5" height="8.81"/>
	</g>
	<g>
		
			<rect x="147.88" y="-122.86" transform="matrix(0.7071 -0.7071 0.7071 0.7071 130.9589 71.9157)" class="st8" width="8.82" height="1.5"/>
	</g>
	<g>
		<path class="st8" d="M149.17-97.05c-0.15,0-0.3-0.04-0.42-0.13c-0.2-0.14-0.33-0.37-0.33-0.62v-5.7l-9.82,3.84l-0.55-1.4
			l10.84-4.24c0.23-0.09,0.49-0.06,0.7,0.08c0.2,0.14,0.33,0.37,0.33,0.62v5.7l9.82-3.84l0.55,1.4l-10.84,4.24
			C149.35-97.07,149.26-97.05,149.17-97.05z"/>
	</g>
</g>
<g>
	<g>
		<path class="st8" d="M558.27-83.36h-18.95c-4.81,0-8.72-3.91-8.72-8.72v-18.95c0-4.81,3.91-8.72,8.72-8.72h18.95
			c4.81,0,8.72,3.91,8.72,8.72v18.95C566.99-87.27,563.08-83.36,558.27-83.36z M539.32-118.25c-3.98,0-7.22,3.24-7.22,7.22v18.95
			c0,3.98,3.24,7.22,7.22,7.22h18.95c3.98,0,7.22-3.24,7.22-7.22v-18.95c0-3.98-3.24-7.22-7.22-7.22H539.32z"/>
	</g>
	<g>
		
			<rect x="544.93" y="-126.52" transform="matrix(0.7071 -0.7071 0.7071 0.7071 246.1913 350.0987)" class="st8" width="1.5" height="8.82"/>
	</g>
	<g>
		
			<rect x="547.5" y="-122.86" transform="matrix(0.7071 -0.7071 0.7071 0.7071 247.998 354.494)" class="st8" width="8.81" height="1.5"/>
	</g>
	<g>
		<path class="st8" d="M548.79-97.05c-0.15,0-0.3-0.04-0.42-0.13c-0.21-0.14-0.33-0.37-0.33-0.62v-5.7l-9.82,3.84l-0.55-1.4
			l10.84-4.24c0.23-0.09,0.49-0.06,0.7,0.08c0.21,0.14,0.33,0.37,0.33,0.62v5.7l9.82-3.84l0.55,1.4l-10.84,4.24
			C548.98-97.07,548.89-97.05,548.79-97.05z"/>
	</g>
</g>
<g>
	
		<linearGradient id="SVGID_00000067223383996453794530000009757095631062211749_" gradientUnits="userSpaceOnUse" x1="486.4182" y1="193.9584" x2="561.1682" y2="193.9584">
		<stop  offset="0" style="stop-color:#FFAF38"/>
		<stop  offset="1" style="stop-color:#D1287D"/>
	</linearGradient>
	<circle style="fill:url(#SVGID_00000067223383996453794530000009757095631062211749_);" cx="523.79" cy="193.96" r="37.38"/>
	<g>
		<g>
			<path class="st7" d="M532.42,211.92h-17.24c-4.55,0-8.25-3.7-8.25-8.25v-17.24c0-4.55,3.7-8.25,8.25-8.25h17.24
				c4.55,0,8.25,3.7,8.25,8.25v17.24C540.67,208.22,536.97,211.92,532.42,211.92z M515.17,180.17c-3.45,0-6.25,2.8-6.25,6.25v17.24
				c0,3.45,2.8,6.25,6.25,6.25h17.24c3.45,0,6.25-2.8,6.25-6.25v-17.24c0-3.45-2.8-6.25-6.25-6.25H515.17z"/>
		</g>
		<g>
			
				<rect x="519.96" y="172.32" transform="matrix(0.7071 -0.7071 0.7071 0.7071 27.8981 420.0191)" class="st7" width="2" height="8.02"/>
		</g>
		<g>
			
				<rect x="522.62" y="175.33" transform="matrix(0.7071 -0.7071 0.7071 0.7071 29.5594 424.0297)" class="st7" width="8.02" height="2"/>
		</g>
		<g>
			<path class="st7" d="M523.79,199.46c-0.2,0-0.4-0.06-0.56-0.17c-0.27-0.19-0.44-0.5-0.44-0.83v-4.72l-8.5,3.32l-0.73-1.86
				l9.86-3.86c0.31-0.12,0.66-0.08,0.93,0.11c0.27,0.19,0.44,0.5,0.44,0.83v4.72l8.5-3.32l0.73,1.86l-9.86,3.86
				C524.04,199.43,523.92,199.46,523.79,199.46z"/>
		</g>
	</g>
</g>
<g>
	<g>
		<path class="st8" d="M226.04-83.36h-26.49c-4.31,0-7.82-3.51-7.82-7.82v-20.75c0-4.31,3.51-7.82,7.82-7.82h3.19
			c0.47,0,0.92-0.23,1.19-0.61l1.28-1.81c0.72-1.01,1.89-1.62,3.13-1.62h8.91c1.24,0,2.41,0.6,3.13,1.62l1.29,1.81
			c0.27,0.38,0.72,0.61,1.19,0.61h3.19c4.31,0,7.82,3.51,7.82,7.82v20.75C233.86-86.86,230.35-83.36,226.04-83.36z M199.55-118.25
			c-3.49,0-6.32,2.84-6.32,6.32v20.75c0,3.49,2.84,6.32,6.32,6.32h26.49c3.49,0,6.32-2.84,6.32-6.32v-20.75
			c0-3.49-2.84-6.32-6.32-6.32h-3.19c-0.96,0-1.86-0.47-2.41-1.25l-1.29-1.81c-0.44-0.62-1.15-0.98-1.91-0.98h-8.91
			c-0.76,0-1.47,0.37-1.91,0.98l-1.28,1.81c-0.55,0.78-1.46,1.25-2.41,1.25H199.55z"/>
	</g>
	<g>
		<path class="st8" d="M212.8-91.79c-5.66,0-10.27-4.61-10.27-10.27c0-5.66,4.6-10.27,10.27-10.27c5.66,0,10.27,4.6,10.27,10.27
			C223.06-96.4,218.46-91.79,212.8-91.79z M212.8-110.82c-4.83,0-8.77,3.93-8.77,8.77c0,4.83,3.93,8.77,8.77,8.77
			c4.83,0,8.77-3.93,8.77-8.77C221.56-106.89,217.63-110.82,212.8-110.82z"/>
	</g>
</g>
<g>
	
		<ellipse transform="matrix(0.0278 -0.9996 0.9996 0.0278 755.5836 572.7402)" class="st10" cx="672.22" cy="-102.06" rx="8.56" ry="8.56"/>
	
		<linearGradient id="SVGID_00000098934170075233747340000003682172636994626179_" gradientUnits="userSpaceOnUse" x1="654.9374" y1="-118.8383" x2="689.5119" y2="-84.2639">
		<stop  offset="0" style="stop-color:#38D4FF"/>
		<stop  offset="0.4967" style="stop-color:#3098E8"/>
		<stop  offset="1" style="stop-color:#3C75E0"/>
	</linearGradient>
	<path style="fill:url(#SVGID_00000098934170075233747340000003682172636994626179_);" d="M686.42-119h-4.14
		c-0.72,0-1.39-0.35-1.8-0.93l-1.29-1.81c-0.58-0.82-1.52-1.3-2.52-1.3h-8.91c-1,0-1.94,0.48-2.52,1.3l-1.29,1.81
		c-0.41,0.58-1.09,0.93-1.8,0.93h-4.14c-3.91,0-7.07,3.17-7.07,7.07v20.75c0,3.91,3.17,7.07,7.07,7.07h28.4
		c3.91,0,7.07-3.17,7.07-7.07v-20.75C693.5-115.83,690.33-119,686.42-119z M672.22-91.59c-5.77,0-10.47-4.7-10.47-10.47
		c0-5.77,4.7-10.47,10.47-10.47c5.77,0,10.47,4.7,10.47,10.47C682.7-96.28,678-91.59,672.22-91.59z"/>
</g>
<g>
	<g>
		<path class="st8" d="M267.36-103.02c-0.21,0-0.41-0.09-0.56-0.25l-13.62-15.23c-0.2-0.22-0.25-0.54-0.13-0.81
			c0.12-0.27,0.39-0.44,0.68-0.44h41.37c0.34,0,0.64,0.23,0.73,0.56c0.08,0.33-0.07,0.68-0.37,0.84l-27.75,15.23
			C267.61-103.05,267.48-103.02,267.36-103.02z M255.42-118.25l12.1,13.53l24.67-13.53H255.42z"/>
	</g>
	<g>
		<path class="st8" d="M272.89-83.36c-0.04,0-0.07,0-0.11-0.01c-0.29-0.04-0.53-0.25-0.61-0.54l-5.53-19.66
			c-0.09-0.34,0.06-0.69,0.36-0.86l27.75-15.23c0.3-0.17,0.67-0.1,0.91,0.15c0.23,0.25,0.27,0.63,0.08,0.92L273.52-83.7
			C273.38-83.48,273.14-83.36,272.89-83.36z M268.24-103.4l4.91,17.48l19.75-31.01L268.24-103.4z"/>
	</g>
</g>
<g>
	<circle class="st8" cx="392.12" cy="-103.57" r="2.34"/>
	<circle class="st8" cx="392.12" cy="-113.19" r="2.34"/>
	<circle class="st8" cx="392.12" cy="-93.95" r="2.34"/>
</g>
<g>
	<g>
		<path class="st8" d="M433.91-87.4c-0.41,0-0.75-0.34-0.75-0.75V-119c0-0.41,0.34-0.75,0.75-0.75c0.41,0,0.75,0.34,0.75,0.75v30.85
			C434.66-87.73,434.33-87.4,433.91-87.4z"/>
	</g>
	<g>
		<path class="st8" d="M449.34-102.82h-30.85c-0.41,0-0.75-0.34-0.75-0.75c0-0.41,0.34-0.75,0.75-0.75h30.85
			c0.41,0,0.75,0.34,0.75,0.75C450.09-103.16,449.75-102.82,449.34-102.82z"/>
	</g>
</g>
<g>
	<g>
		<path class="st8" d="M481.75,51.64c-0.19,0-0.38-0.07-0.53-0.22l-26.57-26.57c-0.29-0.29-0.29-0.77,0-1.06
			c0.29-0.29,0.77-0.29,1.06,0l26.57,26.57c0.29,0.29,0.29,0.77,0,1.06C482.13,51.57,481.94,51.64,481.75,51.64z"/>
	</g>
	<g>
		<path class="st8" d="M455.18,51.64c-0.19,0-0.38-0.07-0.53-0.22c-0.29-0.29-0.29-0.77,0-1.06l26.57-26.57
			c0.29-0.29,0.77-0.29,1.06,0c0.29,0.29,0.29,0.77,0,1.06l-26.57,26.57C455.56,51.57,455.37,51.64,455.18,51.64z"/>
	</g>
</g>
<g>
	<g>
		<g>
			<path class="st8" d="M222.27,55.8h-18.95c-4.81,0-8.72-3.91-8.72-8.72V28.13c0-4.81,3.91-8.72,8.72-8.72h18.95
				c4.81,0,8.72,3.91,8.72,8.72v18.95C230.99,51.89,227.08,55.8,222.27,55.8z M203.32,20.91c-3.98,0-7.22,3.24-7.22,7.22v18.95
				c0,3.98,3.24,7.22,7.22,7.22h18.95c3.98,0,7.22-3.24,7.22-7.22V28.13c0-3.98-3.24-7.22-7.22-7.22H203.32z"/>
		</g>
	</g>
	<g>
		<g>
			<path class="st8" d="M212.8,48.65c-0.41,0-0.75-0.34-0.75-0.75V27.31c0-0.41,0.34-0.75,0.75-0.75c0.41,0,0.75,0.34,0.75,0.75
				V47.9C213.55,48.32,213.21,48.65,212.8,48.65z"/>
		</g>
		<g>
			<path class="st8" d="M223.1,38.36H202.5c-0.41,0-0.75-0.34-0.75-0.75c0-0.41,0.34-0.75,0.75-0.75h20.59
				c0.41,0,0.75,0.34,0.75,0.75C223.85,38.02,223.51,38.36,223.1,38.36z"/>
		</g>
	</g>
</g>
<g>
	<g>
		<g>
			<path class="st8" d="M505.77-102.82h-30.85c-0.41,0-0.75-0.34-0.75-0.75c0-0.41,0.34-0.75,0.75-0.75h30.85
				c0.41,0,0.75,0.34,0.75,0.75C506.52-103.16,506.18-102.82,505.77-102.82z"/>
		</g>
	</g>
	<g>
		<path class="st8" d="M488.66-89.08c-0.19,0-0.38-0.07-0.53-0.22l-13.74-13.74c-0.29-0.29-0.29-0.77,0-1.06l13.74-13.74
			c0.29-0.29,0.77-0.29,1.06,0c0.29,0.29,0.29,0.77,0,1.06l-13.21,13.21l13.21,13.21c0.29,0.29,0.29,0.77,0,1.06
			C489.04-89.15,488.85-89.08,488.66-89.08z"/>
	</g>
</g>
<g>
	<g>
		<g>
			<path class="st8" d="M794.64-83.36c-11.15,0-20.22-9.07-20.22-20.22c0-11.15,9.07-20.22,20.22-20.22
				c11.15,0,20.22,9.07,20.22,20.22C814.85-92.42,805.79-83.36,794.64-83.36z M794.64-122.29c-10.32,0-18.72,8.4-18.72,18.72
				c0,10.32,8.4,18.72,18.72,18.72c10.32,0,18.72-8.4,18.72-18.72C813.35-113.89,804.96-122.29,794.64-122.29z"/>
		</g>
	</g>
	<g>
		<g>
			<g>
				<path class="st8" d="M787.04-95.23c-0.19,0-0.38-0.07-0.53-0.22c-0.29-0.29-0.29-0.77,0-1.06l15.19-15.19
					c0.29-0.29,0.77-0.29,1.06,0c0.29,0.29,0.29,0.77,0,1.06l-15.19,15.19C787.43-95.3,787.24-95.23,787.04-95.23z"/>
			</g>
		</g>
		<g>
			<path class="st8" d="M802.23-96.89c-0.41,0-0.75-0.34-0.75-0.75v-12.78H788.7c-0.41,0-0.75-0.34-0.75-0.75
				c0-0.41,0.34-0.75,0.75-0.75h13.53c0.41,0,0.75,0.34,0.75,0.75v13.53C802.98-97.22,802.65-96.89,802.23-96.89z"/>
		</g>
	</g>
</g>
<g>
	<g>
		<g>
			<path class="st8" d="M751.27-102.82h-21.94c-0.41,0-0.75-0.34-0.75-0.75c0-0.41,0.34-0.75,0.75-0.75h21.94
				c0.41,0,0.75,0.34,0.75,0.75C752.02-103.16,751.69-102.82,751.27-102.82z"/>
		</g>
		<g>
			<path class="st8" d="M722.23-102.82h-6.63c-0.41,0-0.75-0.34-0.75-0.75c0-0.41,0.34-0.75,0.75-0.75h6.63
				c0.41,0,0.75,0.34,0.75,0.75C722.98-103.16,722.64-102.82,722.23-102.82z"/>
		</g>
	</g>
	<g>
		<g>
			<path class="st8" d="M751.27-115.45h-6.63c-0.41,0-0.75-0.34-0.75-0.75c0-0.41,0.34-0.75,0.75-0.75h6.63
				c0.41,0,0.75,0.34,0.75,0.75C752.02-115.78,751.69-115.45,751.27-115.45z"/>
		</g>
		<g>
			<path class="st8" d="M737.53-115.45h-21.94c-0.41,0-0.75-0.34-0.75-0.75c0-0.41,0.34-0.75,0.75-0.75h21.94
				c0.41,0,0.75,0.34,0.75,0.75C738.28-115.78,737.94-115.45,737.53-115.45z"/>
		</g>
	</g>
	<g>
		<g>
			<path class="st8" d="M751.27-90.2h-6.63c-0.41,0-0.75-0.34-0.75-0.75s0.34-0.75,0.75-0.75h6.63c0.41,0,0.75,0.34,0.75,0.75
				S751.69-90.2,751.27-90.2z"/>
		</g>
		<g>
			<path class="st8" d="M737.53-90.2h-21.94c-0.41,0-0.75-0.34-0.75-0.75s0.34-0.75,0.75-0.75h21.94c0.41,0,0.75,0.34,0.75,0.75
				S737.94-90.2,737.53-90.2z"/>
		</g>
	</g>
	<g>
		<path class="st8" d="M741.08-111.89c-2.37,0-4.3-1.93-4.3-4.3c0-2.37,1.93-4.3,4.3-4.3c2.37,0,4.3,1.93,4.3,4.3
			C745.39-113.82,743.46-111.89,741.08-111.89z M741.08-119c-1.55,0-2.8,1.26-2.8,2.8c0,1.55,1.26,2.8,2.8,2.8
			c1.55,0,2.8-1.26,2.8-2.8C743.89-117.74,742.63-119,741.08-119z"/>
	</g>
	<g>
		<path class="st8" d="M741.08-86.64c-2.37,0-4.3-1.93-4.3-4.3c0-2.37,1.93-4.3,4.3-4.3c2.37,0,4.3,1.93,4.3,4.3
			C745.39-88.57,743.46-86.64,741.08-86.64z M741.08-93.75c-1.55,0-2.8,1.26-2.8,2.8s1.26,2.8,2.8,2.8c1.55,0,2.8-1.26,2.8-2.8
			S742.63-93.75,741.08-93.75z"/>
	</g>
	<g>
		<path class="st8" d="M725.78-99.27c-2.37,0-4.3-1.93-4.3-4.3c0-2.37,1.93-4.3,4.3-4.3c2.37,0,4.3,1.93,4.3,4.3
			C730.08-101.2,728.15-99.27,725.78-99.27z M725.78-106.38c-1.55,0-2.8,1.26-2.8,2.8c0,1.55,1.26,2.8,2.8,2.8
			c1.55,0,2.8-1.26,2.8-2.8C728.58-105.12,727.33-106.38,725.78-106.38z"/>
	</g>
</g>
<g>
	<g>
		<path class="st8" d="M145.65,48.65c-8.06,0-14.62-6.56-14.62-14.62s6.56-14.62,14.62-14.62c8.06,0,14.62,6.56,14.62,14.62
			S153.71,48.65,145.65,48.65z M145.65,20.91c-7.23,0-13.12,5.89-13.12,13.12c0,7.24,5.89,13.12,13.12,13.12
			c7.24,0,13.12-5.89,13.12-13.12C158.77,26.8,152.88,20.91,145.65,20.91z"/>
	</g>
	<g>
		<path class="st8" d="M166.56,55.69c-0.19,0-0.38-0.07-0.53-0.22l-11.1-11.1c-0.29-0.29-0.29-0.77,0-1.06
			c0.29-0.29,0.77-0.29,1.06,0l11.1,11.1c0.29,0.29,0.29,0.77,0,1.06C166.94,55.62,166.75,55.69,166.56,55.69z"/>
	</g>
</g>
<g>
	<path class="st8" d="M290.33,55.8h-11.58c-0.41,0-0.75-0.34-0.75-0.75V44.06c0-1.97-1.6-3.57-3.57-3.57s-3.57,1.6-3.57,3.57v10.99
		c0,0.41-0.34,0.75-0.75,0.75h-11.58c-0.41,0-0.75-0.34-0.75-0.75v-22.6c0-0.22,0.09-0.42,0.26-0.57l15.9-13.87
		c0.28-0.25,0.7-0.25,0.99,0l15.9,13.87c0.16,0.14,0.26,0.35,0.26,0.57v22.6C291.08,55.47,290.74,55.8,290.33,55.8z M279.5,54.3
		h10.08V32.79l-15.15-13.21l-15.15,13.21V54.3h10.08V44.06c0-2.79,2.27-5.07,5.07-5.07c2.79,0,5.07,2.27,5.07,5.07V54.3z"/>
</g>
<g>
	<g>
		<path class="st8" d="M415.11,44.79h-9.86c-1.24,0-2.25-1.01-2.25-2.25v-9.86c0-1.24,1.01-2.25,2.25-2.25h9.86
			c1.24,0,2.25,1.01,2.25,2.25v9.86C417.36,43.78,416.35,44.79,415.11,44.79z M405.25,31.93c-0.42,0-0.75,0.34-0.75,0.75v9.86
			c0,0.42,0.34,0.75,0.75,0.75h9.86c0.42,0,0.75-0.34,0.75-0.75v-9.86c0-0.42-0.34-0.75-0.75-0.75H405.25z"/>
	</g>
	<g>
		<g>
			<path class="st8" d="M428.37,32.51h-1.5v-4.37c0-3.98-3.24-7.22-7.22-7.22h-4.37v-1.5h4.37c4.81,0,8.72,3.91,8.72,8.72V32.51z"/>
		</g>
		<g>
			<path class="st8" d="M393.48,32.51h-1.5v-4.37c0-4.81,3.91-8.72,8.72-8.72h4.37v1.5h-4.37c-3.98,0-7.22,3.24-7.22,7.22V32.51z"/>
		</g>
		<g>
			<path class="st8" d="M419.65,55.8h-4.37v-1.5h4.37c3.98,0,7.22-3.24,7.22-7.22v-4.37h1.5v4.37
				C428.37,51.89,424.46,55.8,419.65,55.8z"/>
		</g>
		<g>
			<path class="st8" d="M405.08,55.8h-4.37c-4.81,0-8.72-3.91-8.72-8.72v-4.37h1.5v4.37c0,3.98,3.24,7.22,7.22,7.22h4.37V55.8z"/>
		</g>
	</g>
</g>
<g>
	<path class="st8" d="M341.53,56.11l-18.08-18.08c-2.06-2.06-3.19-4.8-3.19-7.71c0-2.91,1.13-5.65,3.19-7.71
		c2.06-2.06,4.8-3.2,7.71-3.2c2.91,0,5.65,1.13,7.71,3.2l2.66,2.66l2.66-2.66c2.06-2.06,4.8-3.2,7.71-3.2c2.91,0,5.65,1.13,7.71,3.2
		c2.06,2.06,3.19,4.8,3.19,7.71c0,2.91-1.13,5.65-3.19,7.71L341.53,56.11z M331.16,20.91c-2.51,0-4.87,0.98-6.65,2.76
		c-1.78,1.78-2.75,4.14-2.75,6.65c0,2.51,0.98,4.88,2.75,6.65l17.02,17.02l17.02-17.02c1.78-1.78,2.75-4.14,2.75-6.65
		c0-2.51-0.98-4.87-2.75-6.65c-1.78-1.78-4.14-2.76-6.65-2.76c-2.51,0-4.87,0.98-6.65,2.76l-3.72,3.72l-3.72-3.72
		C336.03,21.89,333.67,20.91,331.16,20.91z"/>
</g>
<g>
	<path class="st12" d="M873.4-116.53c-3.97-3.97-10.4-3.97-14.36,0l-3.19,3.19l-3.19-3.19c-3.97-3.97-10.4-3.97-14.36,0
		c-3.97,3.97-3.97,10.4,0,14.36l17.55,17.55l17.55-17.55C877.37-106.13,877.37-112.56,873.4-116.53z"/>
</g>
<g>
	<path class="st8" d="M222.27,87.47h-18.95c-4.81,0-8.72,3.91-8.72,8.72v18.95c0,4.81,3.91,8.72,8.72,8.72h18.95
		c4.81,0,8.72-3.91,8.72-8.72V96.19C230.99,91.38,227.08,87.47,222.27,87.47z"/>
	<g>
		<g>
			<path class="st7" d="M212.8,116.71c-0.41,0-0.75-0.34-0.75-0.75V95.37c0-0.41,0.34-0.75,0.75-0.75c0.41,0,0.75,0.34,0.75,0.75
				v20.59C213.55,116.37,213.21,116.71,212.8,116.71z"/>
		</g>
		<g>
			<path class="st7" d="M223.1,106.41H202.5c-0.41,0-0.75-0.34-0.75-0.75c0-0.41,0.34-0.75,0.75-0.75h20.59
				c0.41,0,0.75,0.34,0.75,0.75C223.85,106.08,223.51,106.41,223.1,106.41z"/>
		</g>
	</g>
</g>
<g>
	<g>
		<path class="st8" d="M145.65,117.46c-8.48,0-15.37-6.9-15.37-15.37c0-8.48,6.9-15.37,15.37-15.37c8.48,0,15.37,6.9,15.37,15.37
			C161.02,110.56,154.12,117.46,145.65,117.46z M145.65,89.72c-6.82,0-12.37,5.55-12.37,12.37c0,6.82,5.55,12.37,12.37,12.37
			c6.82,0,12.37-5.55,12.37-12.37C158.02,95.27,152.47,89.72,145.65,89.72z"/>
	</g>
	<g>
		<path class="st8" d="M166.56,124.5c-0.38,0-0.77-0.15-1.06-0.44l-11.1-11.1c-0.59-0.59-0.59-1.54,0-2.12
			c0.59-0.59,1.54-0.59,2.12,0l11.1,11.1c0.59,0.59,0.59,1.54,0,2.12C167.32,124.35,166.94,124.5,166.56,124.5z"/>
	</g>
</g>
<path class="st8" d="M290.82,99.94l-15.9-13.87c-0.28-0.25-0.7-0.25-0.99,0l-15.9,13.87c-0.16,0.14-0.26,0.35-0.26,0.57v22.6
	c0,0.41,0.34,0.75,0.75,0.75h11.58c0.41,0,0.75-0.34,0.75-0.75v-11c0-1.97,1.6-3.57,3.57-3.57s3.57,1.6,3.57,3.57v11
	c0,0.41,0.34,0.75,0.75,0.75h11.58c0.41,0,0.75-0.34,0.75-0.75v-22.6C291.08,100.29,290.99,100.08,290.82,99.94z"/>
<path class="st8" d="M359.61,90.66c-2.06-2.06-4.8-3.19-7.71-3.19s-5.65,1.13-7.71,3.19l-2.66,2.66l-2.66-2.66
	c-4.25-4.25-11.17-4.25-15.42,0c-4.25,4.25-4.25,11.17,0,15.42l18.08,18.08l18.08-18.08C363.87,101.83,363.87,94.91,359.61,90.66z"
	/>
<g>
	<path class="st8" d="M539.36,55.8c-0.15,0-0.29-0.04-0.42-0.13l-12.61-8.51l-12.61,8.51c-0.23,0.16-0.53,0.17-0.77,0.04
		c-0.25-0.13-0.4-0.38-0.4-0.66V20.16c0-0.41,0.34-0.75,0.75-0.75h26.06c0.41,0,0.75,0.34,0.75,0.75v34.89
		c0,0.28-0.15,0.53-0.4,0.66C539.6,55.77,539.48,55.8,539.36,55.8z M514.05,20.91v32.73l11.86-8.01c0.25-0.17,0.59-0.17,0.84,0
		l11.86,8.01V20.91H514.05z"/>
</g>
<g>
	<g>
		<path class="st8" d="M676.54,55.8h-34.89c-0.41,0-0.75-0.34-0.75-0.75V20.16c0-0.41,0.34-0.75,0.75-0.75h34.89
			c0.41,0,0.75,0.34,0.75,0.75v34.89C677.29,55.47,676.96,55.8,676.54,55.8z M642.4,54.3h33.39V20.91H642.4V54.3z"/>
	</g>
	<g>
		<path class="st8" d="M653.28,55.8c-0.41,0-0.75-0.34-0.75-0.75V20.16c0-0.41,0.34-0.75,0.75-0.75c0.41,0,0.75,0.34,0.75,0.75
			v34.89C654.03,55.47,653.7,55.8,653.28,55.8z"/>
	</g>
	<g>
		<path class="st8" d="M664.91,55.8c-0.41,0-0.75-0.34-0.75-0.75V20.16c0-0.41,0.34-0.75,0.75-0.75c0.41,0,0.75,0.34,0.75,0.75
			v34.89C665.66,55.47,665.33,55.8,664.91,55.8z"/>
	</g>
	<g>
		<path class="st8" d="M676.54,32.54h-34.89c-0.41,0-0.75-0.34-0.75-0.75c0-0.41,0.34-0.75,0.75-0.75h34.89
			c0.41,0,0.75,0.34,0.75,0.75C677.29,32.21,676.96,32.54,676.54,32.54z"/>
	</g>
	<g>
		<path class="st8" d="M676.54,44.17h-34.89c-0.41,0-0.75-0.34-0.75-0.75c0-0.41,0.34-0.75,0.75-0.75h34.89
			c0.41,0,0.75,0.34,0.75,0.75C677.29,43.84,676.96,44.17,676.54,44.17z"/>
	</g>
</g>
<g>
	<g>
		<path class="st8" d="M737.65,51.32h-25.93c-0.41,0-0.75-0.34-0.75-0.75V24.64c0-0.41,0.34-0.75,0.75-0.75h25.93
			c0.41,0,0.75,0.34,0.75,0.75v25.93C738.4,50.99,738.06,51.32,737.65,51.32z M712.46,49.82h24.43V25.39h-24.43V49.82z"/>
	</g>
	<g>
		<path class="st8" d="M737.65,20.91h-25.93c-0.41,0-0.75-0.34-0.75-0.75c0-0.41,0.34-0.75,0.75-0.75h25.93
			c0.41,0,0.75,0.34,0.75,0.75C738.4,20.58,738.06,20.91,737.65,20.91z"/>
	</g>
	<g>
		<path class="st8" d="M737.65,55.8h-25.93c-0.41,0-0.75-0.34-0.75-0.75c0-0.41,0.34-0.75,0.75-0.75h25.93
			c0.41,0,0.75,0.34,0.75,0.75C738.4,55.47,738.06,55.8,737.65,55.8z"/>
	</g>
</g>
<g>
	<g>
		<path class="st8" d="M790.26,55.8c-10.03,0-18.2-8.16-18.2-18.2s8.16-18.2,18.2-18.2c10.03,0,18.2,8.16,18.2,18.2
			S800.3,55.8,790.26,55.8z M790.26,20.91c-9.21,0-16.7,7.49-16.7,16.7c0,9.21,7.49,16.7,16.7,16.7c9.21,0,16.7-7.49,16.7-16.7
			C806.96,28.4,799.47,20.91,790.26,20.91z"/>
	</g>
	<g>
		<path class="st8" d="M796.01,46.27c-0.12,0-0.24-0.03-0.35-0.09l-5.4-2.84l-5.4,2.84c-0.25,0.13-0.56,0.11-0.79-0.06
			c-0.23-0.17-0.35-0.45-0.3-0.73l1.03-6.01l-4.37-4.26c-0.2-0.2-0.28-0.5-0.19-0.77c0.09-0.27,0.32-0.47,0.61-0.51l6.04-0.88
			l2.7-5.47c0.25-0.51,1.09-0.51,1.35,0l2.7,5.47l6.04,0.88c0.28,0.04,0.52,0.24,0.61,0.51c0.09,0.27,0.01,0.57-0.19,0.77
			l-4.37,4.26l1.03,6.01c0.05,0.28-0.07,0.57-0.3,0.73C796.32,46.22,796.17,46.27,796.01,46.27z M790.26,41.75
			c0.12,0,0.24,0.03,0.35,0.09l4.4,2.31l-0.84-4.9c-0.04-0.24,0.04-0.49,0.22-0.66l3.56-3.47l-4.92-0.71
			c-0.25-0.04-0.46-0.19-0.57-0.41l-2.2-4.46l-2.2,4.46c-0.11,0.22-0.32,0.38-0.57,0.41l-4.92,0.71l3.56,3.47
			c0.18,0.17,0.26,0.42,0.22,0.66l-0.84,4.9l4.4-2.31C790.02,41.78,790.14,41.75,790.26,41.75z"/>
	</g>
</g>
<g>
	<g>
		<path class="st8" d="M866.82,55.8h-21.95c-3.17,0-5.75-2.58-5.75-5.75V29.03c0-3.17,2.58-5.75,5.75-5.75h6.81l3.63-3.65
			c0.28-0.28,0.78-0.28,1.06,0l3.63,3.65h6.81c3.17,0,5.75,2.58,5.75,5.75v21.02C872.58,53.22,869.99,55.8,866.82,55.8z
			 M844.87,24.78c-2.34,0-4.25,1.91-4.25,4.25v21.02c0,2.34,1.91,4.25,4.25,4.25h21.95c2.34,0,4.25-1.91,4.25-4.25V29.03
			c0-2.34-1.91-4.25-4.25-4.25h-7.12c-0.2,0-0.39-0.08-0.53-0.22l-3.32-3.33l-3.32,3.33c-0.14,0.14-0.33,0.22-0.53,0.22H844.87z"/>
	</g>
	<g>
		<g>
			<path class="st8" d="M863.86,49.45c-0.41,0-0.75-0.34-0.75-0.75v-3.63c0-1.24-1.01-2.25-2.25-2.25h-10.03
				c-1.24,0-2.25,1.01-2.25,2.25v3.63c0,0.41-0.34,0.75-0.75,0.75c-0.41,0-0.75-0.34-0.75-0.75v-3.63c0-2.07,1.68-3.75,3.75-3.75
				h10.03c2.07,0,3.75,1.68,3.75,3.75v3.63C864.61,49.12,864.28,49.45,863.86,49.45z"/>
		</g>
		<g>
			<path class="st8" d="M855.85,39c-2.58,0-4.68-2.1-4.68-4.68c0-2.58,2.1-4.68,4.68-4.68c2.58,0,4.68,2.1,4.68,4.68
				C860.52,36.9,858.42,39,855.85,39z M855.85,31.14c-1.75,0-3.18,1.42-3.18,3.18c0,1.75,1.42,3.18,3.18,3.18
				c1.75,0,3.18-1.42,3.18-3.18C859.02,32.57,857.6,31.14,855.85,31.14z"/>
		</g>
	</g>
</g>
<g>
	<g>
		<path class="st6" d="M676.54,123.86h-34.89c-0.41,0-0.75-0.34-0.75-0.75V88.22c0-0.41,0.34-0.75,0.75-0.75h34.89
			c0.41,0,0.75,0.34,0.75,0.75v34.89C677.29,123.52,676.96,123.86,676.54,123.86z M642.4,122.36h33.39V88.97H642.4V122.36z"/>
	</g>
	<g>
		<path class="st6" d="M653.28,123.86c-0.41,0-0.75-0.34-0.75-0.75V88.22c0-0.41,0.34-0.75,0.75-0.75c0.41,0,0.75,0.34,0.75,0.75
			v34.89C654.03,123.52,653.7,123.86,653.28,123.86z"/>
	</g>
	<g>
		<path class="st6" d="M664.91,123.86c-0.41,0-0.75-0.34-0.75-0.75V88.22c0-0.41,0.34-0.75,0.75-0.75c0.41,0,0.75,0.34,0.75,0.75
			v34.89C665.66,123.52,665.33,123.86,664.91,123.86z"/>
	</g>
	<g>
		<path class="st6" d="M676.54,100.6h-34.89c-0.41,0-0.75-0.34-0.75-0.75s0.34-0.75,0.75-0.75h34.89c0.41,0,0.75,0.34,0.75,0.75
			S676.96,100.6,676.54,100.6z"/>
	</g>
	<g>
		<path class="st6" d="M676.54,112.23h-34.89c-0.41,0-0.75-0.34-0.75-0.75c0-0.41,0.34-0.75,0.75-0.75h34.89
			c0.41,0,0.75,0.34,0.75,0.75C677.29,111.89,676.96,112.23,676.54,112.23z"/>
	</g>
</g>
<g>
	<g>
		<path class="st6" d="M737.65,119.38h-25.93c-0.41,0-0.75-0.34-0.75-0.75V92.7c0-0.41,0.34-0.75,0.75-0.75h25.93
			c0.41,0,0.75,0.34,0.75,0.75v25.93C738.4,119.04,738.06,119.38,737.65,119.38z M712.46,117.88h24.43V93.45h-24.43V117.88z"/>
	</g>
	<g>
		<path class="st6" d="M737.65,88.97h-25.93c-0.41,0-0.75-0.34-0.75-0.75c0-0.41,0.34-0.75,0.75-0.75h25.93
			c0.41,0,0.75,0.34,0.75,0.75C738.4,88.63,738.06,88.97,737.65,88.97z"/>
	</g>
	<g>
		<path class="st6" d="M737.65,123.86h-25.93c-0.41,0-0.75-0.34-0.75-0.75c0-0.41,0.34-0.75,0.75-0.75h25.93
			c0.41,0,0.75,0.34,0.75,0.75C738.4,123.52,738.06,123.86,737.65,123.86z"/>
	</g>
</g>
<g>
	<g>
		<path class="st6" d="M790.26,123.86c-10.03,0-18.2-8.16-18.2-18.2c0-10.03,8.16-18.2,18.2-18.2c10.03,0,18.2,8.16,18.2,18.2
			C808.46,115.7,800.3,123.86,790.26,123.86z M790.26,88.97c-9.21,0-16.7,7.49-16.7,16.7c0,9.21,7.49,16.7,16.7,16.7
			c9.21,0,16.7-7.49,16.7-16.7C806.96,96.46,799.47,88.97,790.26,88.97z"/>
	</g>
	<g>
		<path class="st6" d="M796.01,114.32c-0.12,0-0.24-0.03-0.35-0.09l-5.4-2.84l-5.4,2.84c-0.25,0.13-0.56,0.11-0.79-0.06
			c-0.23-0.17-0.35-0.45-0.3-0.73l1.03-6.01l-4.37-4.26c-0.2-0.2-0.28-0.5-0.19-0.77c0.09-0.27,0.32-0.47,0.61-0.51l6.04-0.88
			l2.7-5.47c0.25-0.51,1.09-0.51,1.35,0l2.7,5.47l6.04,0.88c0.28,0.04,0.52,0.24,0.61,0.51c0.09,0.27,0.01,0.57-0.19,0.77
			l-4.37,4.26l1.03,6.01c0.05,0.28-0.07,0.57-0.3,0.73C796.32,114.28,796.17,114.32,796.01,114.32z M790.26,109.8
			c0.12,0,0.24,0.03,0.35,0.09l4.4,2.32l-0.84-4.9c-0.04-0.24,0.04-0.49,0.22-0.66l3.56-3.47l-4.92-0.71
			c-0.25-0.04-0.46-0.19-0.57-0.41l-2.2-4.46l-2.2,4.46c-0.11,0.22-0.32,0.38-0.57,0.41l-4.92,0.71l3.56,3.47
			c0.18,0.17,0.26,0.42,0.22,0.66l-0.84,4.9l4.4-2.32C790.02,109.83,790.14,109.8,790.26,109.8z"/>
	</g>
</g>
<g>
	<g>
		<path class="st6" d="M866.82,123.86h-21.95c-3.17,0-5.75-2.58-5.75-5.75V97.09c0-3.17,2.58-5.75,5.75-5.75h6.81l3.63-3.65
			c0.28-0.28,0.78-0.28,1.06,0l3.63,3.65h6.81c3.17,0,5.75,2.58,5.75,5.75v21.02C872.58,121.28,869.99,123.86,866.82,123.86z
			 M844.87,92.83c-2.34,0-4.25,1.91-4.25,4.25v21.02c0,2.34,1.91,4.25,4.25,4.25h21.95c2.34,0,4.25-1.91,4.25-4.25V97.09
			c0-2.34-1.91-4.25-4.25-4.25h-7.12c-0.2,0-0.39-0.08-0.53-0.22l-3.32-3.33l-3.32,3.33c-0.14,0.14-0.33,0.22-0.53,0.22H844.87z"/>
	</g>
	<g>
		<g>
			<path class="st6" d="M863.86,117.51c-0.41,0-0.75-0.34-0.75-0.75v-3.64c0-1.24-1.01-2.25-2.25-2.25h-10.03
				c-1.24,0-2.25,1.01-2.25,2.25v3.64c0,0.41-0.34,0.75-0.75,0.75c-0.41,0-0.75-0.34-0.75-0.75v-3.64c0-2.07,1.68-3.75,3.75-3.75
				h10.03c2.07,0,3.75,1.68,3.75,3.75v3.64C864.61,117.17,864.28,117.51,863.86,117.51z"/>
		</g>
		<g>
			<path class="st6" d="M855.85,107.05c-2.58,0-4.68-2.1-4.68-4.68c0-2.58,2.1-4.68,4.68-4.68c2.58,0,4.68,2.1,4.68,4.68
				C860.52,104.95,858.42,107.05,855.85,107.05z M855.85,99.2c-1.75,0-3.18,1.42-3.18,3.18c0,1.75,1.42,3.18,3.18,3.18
				c1.75,0,3.18-1.42,3.18-3.18C859.02,100.62,857.6,99.2,855.85,99.2z"/>
		</g>
	</g>
</g>
<g>
	<g>
		<g>
			<path class="st8" d="M611.02-89.38c-0.39,0-0.76-0.15-1.04-0.43l-14.42-14.42c-1.83-1.83-2.83-4.36-2.75-6.94
				c0.08-2.62,1.22-5.02,3.2-6.76c3.7-3.25,9.42-2.97,13.03,0.64l1.97,1.97l1.97-1.97c3.61-3.61,9.33-3.88,13.03-0.64
				c1.98,1.74,3.11,4.14,3.2,6.76c0.08,2.58-0.92,5.12-2.74,6.94l-14.42,14.42C611.78-89.53,611.41-89.38,611.02-89.38z
				 M602.1-118.7c-1.83,0-3.65,0.62-5.09,1.89c-1.66,1.46-2.62,3.48-2.69,5.68c-0.07,2.2,0.75,4.28,2.31,5.83l14.42,14.42
				l14.38-14.42c1.56-1.56,2.38-3.63,2.31-5.83c-0.07-2.2-1.03-4.22-2.69-5.68c-3.11-2.73-7.93-2.48-10.98,0.57l-3.04,3.04
				l-3.04-3.04C606.35-117.87,604.21-118.7,602.1-118.7z"/>
		</g>
	</g>
	<path class="st12" d="M613.69-84.2c0-1.48-1.2-2.68-2.68-2.68c-1.48,0-2.68,1.2-2.68,2.68c0,1.48,1.2,2.68,2.68,2.68
		C612.5-81.52,613.69-82.72,613.69-84.2z"/>
</g>
<g>
	<g>
		<path class="st8" d="M483.89-31.19h-30.85c-0.41,0-0.75-0.34-0.75-0.75c0-0.41,0.34-0.75,0.75-0.75h30.85
			c0.41,0,0.75,0.34,0.75,0.75C484.64-31.52,484.3-31.19,483.89-31.19z"/>
	</g>
	<g>
		<path class="st8" d="M483.89-43.81h-30.85c-0.41,0-0.75-0.34-0.75-0.75c0-0.41,0.34-0.75,0.75-0.75h30.85
			c0.41,0,0.75,0.34,0.75,0.75C484.64-44.15,484.3-43.81,483.89-43.81z"/>
	</g>
	<g>
		<path class="st8" d="M483.89-18.56h-30.85c-0.41,0-0.75-0.34-0.75-0.75c0-0.41,0.34-0.75,0.75-0.75h30.85
			c0.41,0,0.75,0.34,0.75,0.75C484.64-18.9,484.3-18.56,483.89-18.56z"/>
	</g>
</g>
<g>
	<g>
		<path class="st8" d="M144.1-14.1h-13.13v-26.54h13.13V-14.1z M132.47-15.6h10.13v-23.54h-10.13V-15.6z"/>
	</g>
	<g>
		<path class="st8" d="M155.73-14.1H142.6v-35.67h13.13V-14.1z M144.1-15.6h10.13v-32.67H144.1V-15.6z"/>
	</g>
	<g>
		<path class="st8" d="M167.36-14.1h-13.13v-14.92h13.13V-14.1z M155.73-15.6h10.13v-11.92h-10.13V-15.6z"/>
	</g>
</g>
<g>
	<g>
		<g>
			<g>
				<path class="st8" d="M228.76-14.1c-0.41,0-0.75-0.34-0.75-0.75v-4.16c0-5.11-4.16-9.27-9.27-9.27h-9.91
					c-5.11,0-9.27,4.16-9.27,9.27v4.16c0,0.41-0.34,0.75-0.75,0.75c-0.41,0-0.75-0.34-0.75-0.75v-4.16
					c0-5.94,4.83-10.77,10.77-10.77h9.91c5.94,0,10.77,4.83,10.77,10.77v4.16C229.51-14.44,229.17-14.1,228.76-14.1z"/>
			</g>
			<g>
				<path class="st8" d="M213.78-32.04c-4.89,0-8.87-3.98-8.87-8.87c0-4.89,3.98-8.87,8.87-8.87s8.87,3.98,8.87,8.87
					C222.64-36.02,218.67-32.04,213.78-32.04z M213.78-48.27c-4.06,0-7.37,3.3-7.37,7.37c0,4.06,3.3,7.37,7.37,7.37
					c4.06,0,7.37-3.3,7.37-7.37C221.14-44.96,217.84-48.27,213.78-48.27z"/>
			</g>
		</g>
	</g>
	<g>
		<g>
			<path class="st8" d="M195.26-28.29c-0.41,0-0.75-0.34-0.75-0.75v-11.1c0-0.41,0.34-0.75,0.75-0.75c0.41,0,0.75,0.34,0.75,0.75
				v11.1C196.01-28.62,195.67-28.29,195.26-28.29z"/>
		</g>
		<g>
			<path class="st8" d="M200.81-33.84h-11.1c-0.41,0-0.75-0.34-0.75-0.75c0-0.41,0.34-0.75,0.75-0.75h11.1
				c0.41,0,0.75,0.34,0.75,0.75C201.56-34.17,201.22-33.84,200.81-33.84z"/>
		</g>
	</g>
</g>
<g>
	<g>
		<path class="st8" d="M292.21-31.19h-22.74c-0.41,0-0.75-0.34-0.75-0.75c0-0.41,0.34-0.75,0.75-0.75h22.74
			c0.41,0,0.75,0.34,0.75,0.75C292.96-31.52,292.62-31.19,292.21-31.19z"/>
	</g>
	<g>
		<path class="st8" d="M292.21-43.81h-22.74c-0.41,0-0.75-0.34-0.75-0.75c0-0.41,0.34-0.75,0.75-0.75h22.74
			c0.41,0,0.75,0.34,0.75,0.75C292.96-44.15,292.62-43.81,292.21-43.81z"/>
	</g>
	<g>
		<path class="st8" d="M292.21-18.56h-22.74c-0.41,0-0.75-0.34-0.75-0.75c0-0.41,0.34-0.75,0.75-0.75h22.74
			c0.41,0,0.75,0.34,0.75,0.75C292.96-18.9,292.62-18.56,292.21-18.56z"/>
	</g>
	<g>
		<path class="st8" d="M258.18-40c-0.16,0-0.31-0.05-0.44-0.14c-0.23-0.17-0.35-0.45-0.3-0.73l0.41-2.37l-1.72-1.68
			c-0.2-0.2-0.28-0.5-0.19-0.77c0.09-0.27,0.32-0.47,0.61-0.51l2.38-0.35l1.06-2.15c0.13-0.26,0.39-0.42,0.67-0.42
			c0.29,0,0.55,0.16,0.67,0.42l1.06,2.15l2.38,0.35c0.28,0.04,0.52,0.24,0.61,0.51c0.09,0.27,0.01,0.57-0.19,0.77l-1.72,1.68
			l0.41,2.37c0.05,0.28-0.07,0.57-0.3,0.73c-0.23,0.17-0.54,0.19-0.79,0.06l-2.12-1.12l-2.13,1.12C258.42-40.03,258.3-40,258.18-40z
			 M258.26-44.93l0.91,0.89c0.18,0.17,0.26,0.42,0.22,0.66l-0.22,1.26l1.13-0.59c0.22-0.11,0.48-0.11,0.7,0l1.13,0.59l-0.22-1.26
			c-0.04-0.24,0.04-0.49,0.22-0.66l0.91-0.89l-1.26-0.18c-0.24-0.04-0.46-0.19-0.56-0.41l-0.56-1.14l-0.56,1.14
			c-0.11,0.22-0.32,0.37-0.56,0.41L258.26-44.93z"/>
	</g>
	<g>
		<path class="st8" d="M258.18-27.38c-0.16,0-0.31-0.05-0.44-0.14c-0.23-0.17-0.35-0.45-0.3-0.73l0.41-2.37l-1.72-1.68
			c-0.2-0.2-0.28-0.5-0.19-0.77c0.09-0.27,0.32-0.47,0.61-0.51l2.38-0.35l1.06-2.15c0.13-0.26,0.39-0.42,0.67-0.42
			c0.29,0,0.55,0.16,0.67,0.42l1.06,2.15l2.38,0.35c0.28,0.04,0.52,0.24,0.61,0.51c0.09,0.27,0.01,0.57-0.19,0.77l-1.72,1.68
			l0.41,2.37c0.05,0.28-0.07,0.57-0.3,0.73c-0.23,0.17-0.54,0.19-0.79,0.06l-2.12-1.12l-2.13,1.12
			C258.42-27.41,258.3-27.38,258.18-27.38z M258.26-32.31l0.91,0.89c0.18,0.17,0.26,0.42,0.22,0.66l-0.22,1.26l1.13-0.59
			c0.22-0.11,0.48-0.11,0.7,0l1.13,0.59l-0.22-1.26c-0.04-0.24,0.04-0.49,0.22-0.66l0.91-0.89l-1.26-0.18
			c-0.24-0.04-0.46-0.19-0.56-0.41l-0.56-1.14l-0.56,1.14c-0.11,0.22-0.32,0.37-0.56,0.41L258.26-32.31z"/>
	</g>
	<g>
		<path class="st8" d="M258.18-14.75c-0.16,0-0.31-0.05-0.44-0.14c-0.23-0.17-0.35-0.45-0.3-0.73l0.41-2.37l-1.72-1.68
			c-0.2-0.2-0.28-0.5-0.19-0.77c0.09-0.27,0.32-0.47,0.61-0.51l2.38-0.35l1.06-2.15c0.13-0.26,0.39-0.42,0.67-0.42
			c0.29,0,0.55,0.16,0.67,0.42l1.06,2.15l2.38,0.35c0.28,0.04,0.52,0.24,0.61,0.51c0.09,0.27,0.01,0.57-0.19,0.77L263.46-18
			l0.41,2.37c0.05,0.28-0.07,0.57-0.3,0.73c-0.23,0.17-0.54,0.19-0.79,0.06l-2.12-1.12l-2.13,1.12
			C258.42-14.78,258.3-14.75,258.18-14.75z M258.26-19.69l0.91,0.89c0.18,0.17,0.26,0.42,0.22,0.66l-0.22,1.26l1.13-0.59
			c0.22-0.12,0.48-0.12,0.7,0l1.13,0.59l-0.22-1.26c-0.04-0.24,0.04-0.49,0.22-0.66l0.91-0.89l-1.26-0.18
			c-0.24-0.04-0.46-0.19-0.56-0.41l-0.56-1.14l-0.56,1.14c-0.11,0.22-0.32,0.38-0.56,0.41L258.26-19.69z"/>
	</g>
</g>
<g>
	<g>
		<path class="st8" d="M341.21-14.1c-9.83,0-17.83-8-17.83-17.83c0-9.83,8-17.83,17.83-17.83c0.41,0,0.75,0.34,0.75,0.75
			s-0.34,0.75-0.75,0.75c-9.01,0-16.33,7.33-16.33,16.33c0,9.01,7.33,16.33,16.33,16.33c9.01,0,16.33-7.33,16.33-16.33
			c0-0.41,0.34-0.75,0.75-0.75c0.41,0,0.75,0.34,0.75,0.75C359.04-22.1,351.04-14.1,341.21-14.1z"/>
	</g>
	<g>
		<path class="st8" d="M346.87-25.53c-0.19,0-0.38-0.07-0.53-0.22l-5.66-5.66c-0.14-0.14-0.22-0.33-0.22-0.53v-11.33
			c0-0.41,0.34-0.75,0.75-0.75c0.41,0,0.75,0.34,0.75,0.75v11.02l5.44,5.44c0.29,0.29,0.29,0.77,0,1.06
			C347.25-25.6,347.06-25.53,346.87-25.53z"/>
	</g>
	<path class="st8" d="M346.81-48.12c0.17-0.65-0.21-1.32-0.86-1.5c-0.65-0.17-1.32,0.21-1.5,0.86c-0.17,0.65,0.21,1.32,0.86,1.5
		C345.97-47.08,346.64-47.47,346.81-48.12z"/>
	<path class="st8" d="M350.81-46.12c0.34-0.58,0.14-1.33-0.45-1.67c-0.58-0.34-1.33-0.14-1.67,0.45c-0.34,0.58-0.14,1.33,0.45,1.67
		C349.73-45.33,350.47-45.53,350.81-46.12z"/>
	<path class="st8" d="M354.15-43.15c0.48-0.48,0.48-1.25,0-1.73c-0.48-0.48-1.25-0.48-1.73,0c-0.48,0.48-0.48,1.25,0,1.73
		C352.9-42.67,353.68-42.67,354.15-43.15z"/>
	<path class="st8" d="M356.62-39.42c0.58-0.34,0.78-1.08,0.45-1.67c-0.34-0.58-1.09-0.78-1.67-0.45c-0.58,0.34-0.78,1.08-0.45,1.67
		C355.28-39.28,356.03-39.08,356.62-39.42z"/>
	<path class="st8" d="M358.03-35.18c0.65-0.17,1.04-0.84,0.86-1.5c-0.17-0.65-0.84-1.04-1.5-0.86c-0.65,0.17-1.04,0.84-0.86,1.5
		C356.71-35.39,357.38-35,358.03-35.18z"/>
</g>
<g>
	<g>
		<path class="st8" d="M403.75-15.23c-9.21,0-16.71-7.5-16.71-16.71c0-9.21,7.5-16.71,16.71-16.71s16.71,7.5,16.71,16.71
			C420.45-22.72,412.96-15.23,403.75-15.23z M403.75-47.14c-8.39,0-15.21,6.82-15.21,15.21c0,8.39,6.82,15.21,15.21,15.21
			c8.39,0,15.21-6.82,15.21-15.21C418.95-40.32,412.13-47.14,403.75-47.14z"/>
	</g>
	<polygon class="st8" points="407.92,-47.89 399.57,-47.89 401.57,-50.61 405.92,-50.61 	"/>
	<polygon class="st8" points="395.41,-46.17 389.51,-40.27 389,-43.61 392.08,-46.68 	"/>
	<polygon class="st8" points="387.79,-36.11 387.79,-27.76 385.07,-29.76 385.07,-34.11 	"/>
	<polygon class="st8" points="389.51,-23.6 395.41,-17.7 392.08,-17.19 389,-20.27 	"/>
	<polygon class="st8" points="399.57,-15.98 407.92,-15.98 405.92,-13.26 401.57,-13.26 	"/>
	<polygon class="st8" points="412.08,-17.7 417.98,-23.6 418.49,-20.27 415.41,-17.19 	"/>
	<polygon class="st8" points="419.7,-27.76 419.7,-36.11 422.42,-34.11 422.42,-29.76 	"/>
	<polygon class="st8" points="417.98,-40.27 412.08,-46.17 415.41,-46.68 418.49,-43.61 	"/>
</g>
<path class="st12" d="M567.2-117.1c0-2.01-1.63-3.64-3.64-3.64c-2.01,0-3.64,1.63-3.64,3.64s1.63,3.64,3.64,3.64
	C565.57-113.47,567.2-115.09,567.2-117.1z"/>
<g>
	<path class="st8" d="M526.33-14.69c-3.38,0-6.63-0.97-9.45-2.82l-5.82,1.78c-0.27,0.08-0.55,0.01-0.75-0.19
		c-0.2-0.2-0.27-0.48-0.19-0.75l1.78-5.82c-1.85-2.81-2.82-6.07-2.82-9.45c0-9.51,7.74-17.25,17.25-17.25
		c9.51,0,17.25,7.74,17.25,17.25C543.58-22.42,535.84-14.69,526.33-14.69z M517.01-19.08c0.15,0,0.3,0.04,0.42,0.13
		c2.63,1.81,5.71,2.76,8.9,2.76c8.69,0,15.75-7.07,15.75-15.75c0-8.68-7.07-15.75-15.75-15.75c-8.69,0-15.75,7.07-15.75,15.75
		c0,3.19,0.95,6.27,2.76,8.9c0.13,0.19,0.17,0.42,0.1,0.64l-1.47,4.82l4.82-1.47C516.86-19.07,516.93-19.08,517.01-19.08z"/>
</g>
<g>
	<g>
		<path class="st8" d="M591.52-25.53c-0.19,0-0.38-0.07-0.53-0.22l-5.66-5.66c-0.14-0.14-0.22-0.33-0.22-0.53v-11.33
			c0-0.41,0.34-0.75,0.75-0.75c0.41,0,0.75,0.34,0.75,0.75v11.02l5.44,5.44c0.29,0.29,0.29,0.77,0,1.06
			C591.9-25.6,591.71-25.53,591.52-25.53z"/>
	</g>
	<g>
		<path class="st8" d="M585.86-14.11c-4.57,0-9.13-1.74-12.61-5.21c-0.29-0.29-0.29-0.77,0-1.06c0.29-0.29,0.77-0.29,1.06,0
			c6.37,6.37,16.73,6.37,23.1,0c3.08-3.08,4.78-7.19,4.78-11.55c0-4.36-1.7-8.46-4.78-11.55c-3.08-3.08-7.19-4.78-11.55-4.78
			c-4.36,0-8.46,1.7-11.55,4.78c-0.42,0.42-0.82,0.87-1.2,1.34c-0.26,0.32-0.73,0.37-1.05,0.11c-0.32-0.26-0.37-0.73-0.12-1.05
			c0.41-0.51,0.85-1,1.31-1.46c3.37-3.37,7.85-5.22,12.61-5.22c4.76,0,9.24,1.85,12.61,5.22c3.37,3.37,5.22,7.85,5.22,12.61
			c0,4.76-1.86,9.24-5.22,12.61C594.99-15.85,590.42-14.11,585.86-14.11z"/>
	</g>
	<g>
		<path class="st8" d="M572.52-41.86c-0.41,0-0.75-0.33-0.75-0.75l-0.03-5.26c0-0.41,0.33-0.75,0.75-0.75
			c0.42,0,0.75,0.33,0.75,0.75l0.03,4.51l4.51-0.02c0.42,0,0.75,0.33,0.75,0.75c0,0.41-0.33,0.75-0.75,0.75L572.52-41.86
			C572.53-41.86,572.52-41.86,572.52-41.86z"/>
	</g>
</g>
<g>
	
		<linearGradient id="SVGID_00000093140903810795584640000007455267823295780265_" gradientUnits="userSpaceOnUse" x1="807.4686" y1="91.4145" x2="871.7455" y2="91.4145" gradientTransform="matrix(-1 0 0 -1 1683.8424 59.4787)">
		<stop  offset="0" style="stop-color:#38D4FF"/>
		<stop  offset="0.4967" style="stop-color:#3098E8"/>
		<stop  offset="1" style="stop-color:#3C75E0"/>
	</linearGradient>
	<path style="fill:url(#SVGID_00000093140903810795584640000007455267823295780265_);" d="M828.6-48.44h31.28
		c9.11,0,16.5,7.39,16.5,16.5c0,9.11-7.39,16.5-16.5,16.5H828.6c-9.11,0-16.5-7.39-16.5-16.5C812.1-41.05,819.48-48.44,828.6-48.44z
		"/>
	
		<ellipse transform="matrix(0.9765 -0.2155 0.2155 0.9765 27.0757 184.513)" class="st7" cx="859.87" cy="-31.94" rx="11.93" ry="11.93"/>
</g>
<g>
	<path class="st0" d="M764.46-15.44h-31.28c-9.11,0-16.5-7.39-16.5-16.5c0-9.11,7.39-16.5,16.5-16.5h31.28
		c9.11,0,16.5,7.39,16.5,16.5C780.96-22.82,773.58-15.44,764.46-15.44z"/>
	
		<ellipse transform="matrix(0.987 -0.1608 0.1608 0.987 14.6732 117.4661)" class="st7" cx="733.19" cy="-31.94" rx="11.93" ry="11.93"/>
</g>
<g>
	<g>
		<path class="st8" d="M568.45,38.68c-0.41,0-0.75-0.34-0.75-0.75c0-9.83,8-17.83,17.83-17.83c0.41,0,0.75,0.34,0.75,0.75
			c0,0.41-0.34,0.75-0.75,0.75c-9.01,0-16.33,7.33-16.33,16.33C569.2,38.34,568.87,38.68,568.45,38.68z"/>
	</g>
	<g>
		<path class="st8" d="M585.54,55.76c-9.83,0-17.83-8-17.83-17.83c0-9.83,8-17.83,17.83-17.83c9.83,0,17.83,8,17.83,17.83
			C603.37,47.76,595.37,55.76,585.54,55.76z M585.54,21.59c-9.01,0-16.33,7.33-16.33,16.33c0,9.01,7.33,16.33,16.33,16.33
			c9.01,0,16.33-7.33,16.33-16.33C601.87,28.92,594.54,21.59,585.54,21.59z"/>
	</g>
	<g>
		<path class="st8" d="M585.54,45.25c-0.41,0-0.75-0.34-0.75-0.75V31.36c0-0.41,0.34-0.75,0.75-0.75c0.41,0,0.75,0.34,0.75,0.75
			V44.5C586.29,44.91,585.95,45.25,585.54,45.25z"/>
	</g>
	<g>
		<path class="st8" d="M592.11,38.68h-13.14c-0.41,0-0.75-0.34-0.75-0.75c0-0.41,0.34-0.75,0.75-0.75h13.14
			c0.41,0,0.75,0.34,0.75,0.75C592.86,38.34,592.52,38.68,592.11,38.68z"/>
	</g>
</g>
<g>
	<circle class="st14" cx="410.18" cy="105.82" r="17.6"/>
	<g>
		<g>
			<path class="st7" d="M407.71,115.66h-7.37v-7.37c0-0.41,0.34-0.75,0.75-0.75c0.41,0,0.75,0.34,0.75,0.75v5.87h5.87
				c0.41,0,0.75,0.34,0.75,0.75C408.46,115.32,408.12,115.66,407.71,115.66z"/>
		</g>
		<g>
			<path class="st7" d="M419.26,104.1c-0.41,0-0.75-0.34-0.75-0.75v-5.87h-5.87c-0.41,0-0.75-0.34-0.75-0.75s0.34-0.75,0.75-0.75
				h7.37v7.37C420.01,103.76,419.68,104.1,419.26,104.1z"/>
		</g>
	</g>
</g>
<g>
	<circle class="st14" cx="468.46" cy="105.82" r="17.6"/>
	<g>
		<g>
			<path class="st7" d="M462.47,110.8c-1.28,0-2.55-0.49-3.52-1.46c-1.94-1.94-1.94-5.11,0-7.05c1.94-1.94,5.11-1.94,7.05,0
				l3.52,3.52l-3.52,3.53C465.03,110.31,463.75,110.8,462.47,110.8z M460.01,103.35c-1.36,1.36-1.36,3.57,0,4.93
				c1.36,1.36,3.57,1.36,4.93,0l2.46-2.46l-2.46-2.46C463.58,102,461.37,102,460.01,103.35L460.01,103.35z"/>
		</g>
		<g>
			<path class="st7" d="M474.45,110.8c-1.28,0-2.55-0.49-3.52-1.46l-3.52-3.53l3.52-3.52c1.94-1.94,5.11-1.94,7.05,0
				c1.94,1.94,1.94,5.11,0,7.05C477,110.31,475.73,110.8,474.45,110.8z M469.52,105.82l2.46,2.46c1.36,1.36,3.57,1.36,4.93,0
				c1.36-1.36,1.36-3.57,0-4.93c-1.36-1.36-3.57-1.36-4.93,0L469.52,105.82z"/>
		</g>
	</g>
</g>
<g>
	<circle class="st14" cx="585.03" cy="105.82" r="17.6"/>
	<g>
		<g>
			<path class="st7" d="M587.7,111.68h-9.88c-1.76,0-3.19-1.43-3.19-3.19V98.6c0-1.76,1.43-3.19,3.19-3.19h9.88
				c1.76,0,3.19,1.43,3.19,3.19v9.88C590.89,110.25,589.46,111.68,587.7,111.68z M577.82,96.91c-0.93,0-1.69,0.76-1.69,1.69v9.88
				c0,0.93,0.76,1.69,1.69,1.69h9.88c0.93,0,1.69-0.76,1.69-1.69V98.6c0-0.93-0.76-1.69-1.69-1.69H577.82z"/>
		</g>
		<g>
			<path class="st7" d="M592.24,116.22h-9.88c-1.76,0-3.19-1.43-3.19-3.19h1.5c0,0.93,0.76,1.69,1.69,1.69h9.88
				c0.93,0,1.69-0.76,1.69-1.69v-9.88c0-0.93-0.76-1.69-1.69-1.69v-1.5c1.76,0,3.19,1.43,3.19,3.19v9.88
				C595.43,114.79,594,116.22,592.24,116.22z"/>
		</g>
	</g>
</g>
<g>
	<circle class="st14" cx="526.75" cy="105.82" r="17.6"/>
	<g>
		<path class="st7" d="M532.83,115.66h-12.16c-2.07,0-3.76-1.68-3.76-3.76V99.74c0-2.07,1.68-3.76,3.76-3.76h12.16
			c2.07,0,3.76,1.68,3.76,3.76v12.16C536.58,113.97,534.9,115.66,532.83,115.66z M520.66,97.48c-1.24,0-2.26,1.01-2.26,2.26v12.16
			c0,1.24,1.01,2.26,2.26,2.26h12.16c1.24,0,2.26-1.01,2.26-2.26V99.74c0-1.24-1.01-2.26-2.26-2.26H520.66z"/>
	</g>
	<g>
		<path class="st7" d="M526.75,115.66c-0.41,0-0.75-0.34-0.75-0.75V96.73c0-0.41,0.34-0.75,0.75-0.75c0.41,0,0.75,0.34,0.75,0.75
			v18.17C527.5,115.32,527.16,115.66,526.75,115.66z"/>
	</g>
	<g>
		<path class="st7" d="M526.75,106.57h-9.09c-0.41,0-0.75-0.34-0.75-0.75c0-0.41,0.34-0.75,0.75-0.75h9.09
			c0.41,0,0.75,0.34,0.75,0.75C527.5,106.23,527.16,106.57,526.75,106.57z"/>
	</g>
</g>
<g>
	<g>
		<path class="st8" d="M659.1-10.69c-11.73,0-21.28-9.54-21.28-21.28s9.55-21.28,21.28-21.28c11.73,0,21.28,9.55,21.28,21.28
			S670.83-10.69,659.1-10.69z M659.1-51.75c-10.91,0-19.78,8.87-19.78,19.78c0,10.91,8.87,19.78,19.78,19.78
			c10.91,0,19.78-8.87,19.78-19.78C678.88-42.88,670.01-51.75,659.1-51.75z"/>
	</g>
	<g>
		<path class="st8" d="M659.1-34.81c-1.96,0-3.55,1.59-3.55,3.55s1.59,3.55,3.55,3.55c1.96,0,3.55-1.59,3.55-3.55
			S661.06-34.81,659.1-34.81z"/>
		<path class="st8" d="M665.79-39.24h-1.95c-0.34,0-0.65-0.16-0.85-0.44l-0.61-0.85c-0.27-0.38-0.72-0.61-1.19-0.61H657
			c-0.47,0-0.91,0.23-1.19,0.61l-0.61,0.85c-0.2,0.27-0.51,0.44-0.85,0.44h-1.95c-1.84,0-3.33,1.49-3.33,3.33v9.78
			c0,1.84,1.49,3.33,3.33,3.33h13.39c1.84,0,3.33-1.49,3.33-3.33v-9.78C669.13-37.75,667.64-39.24,665.79-39.24z M659.1-26.32
			c-2.72,0-4.94-2.21-4.94-4.94s2.21-4.94,4.94-4.94s4.94,2.21,4.94,4.94S661.82-26.32,659.1-26.32z"/>
	</g>
</g>
<g>
	<path class="st0" d="M828.82,220.83c0-1.78-1.45-3.23-3.23-3.23c-1.78,0-3.23,1.44-3.23,3.23c0,1.78,1.44,3.23,3.23,3.23
		C827.37,224.06,828.82,222.62,828.82,220.83z"/>
	<path class="st0" d="M817.33,220.83c0-1.78-1.44-3.23-3.23-3.23c-1.78,0-3.23,1.44-3.23,3.23c0,1.78,1.45,3.23,3.23,3.23
		C815.89,224.06,817.33,222.62,817.33,220.83z"/>
	<path class="st0" d="M805.85,220.83c0-1.78-1.44-3.23-3.23-3.23c-1.78,0-3.23,1.44-3.23,3.23c0,1.78,1.44,3.23,3.23,3.23
		C804.4,224.06,805.85,222.62,805.85,220.83z"/>
	<path class="st0" d="M779.29,220.83c0-0.99,0.8-1.79,1.79-1.79c0.99,0,1.79,0.8,1.79,1.79c0,0.99-0.8,1.79-1.79,1.79
		C780.1,222.62,779.29,221.82,779.29,220.83z"/>
	<path class="st0" d="M773.44,220.83c0-0.38,0.31-0.69,0.69-0.69s0.69,0.31,0.69,0.69c0,0.38-0.31,0.69-0.69,0.69
		S773.44,221.21,773.44,220.83z"/>
	<path class="st0" d="M871.89,220.83c0-0.99-0.8-1.79-1.79-1.79c-0.99,0-1.79,0.8-1.79,1.79c0,0.99,0.8,1.79,1.79,1.79
		C871.08,222.62,871.89,221.82,871.89,220.83z"/>
	<circle class="st0" cx="877.05" cy="220.83" r="0.69"/>
	<path class="st0" d="M794.36,220.83c0-1.78-1.44-3.23-3.23-3.23c-1.78,0-3.23,1.44-3.23,3.23c0,1.78,1.44,3.23,3.23,3.23
		C792.92,224.06,794.36,222.62,794.36,220.83z"/>
	<path class="st0" d="M833.85,220.83c0-1.78,1.45-3.23,3.23-3.23c1.78,0,3.23,1.44,3.23,3.23c0,1.78-1.44,3.23-3.23,3.23
		C835.29,224.06,833.85,222.62,833.85,220.83z"/>
	<path class="st0" d="M845.33,220.83c0-1.78,1.44-3.23,3.23-3.23c1.78,0,3.23,1.44,3.23,3.23c0,1.78-1.45,3.23-3.23,3.23
		C846.78,224.06,845.33,222.62,845.33,220.83z"/>
	<path class="st0" d="M856.82,220.83c0-1.78,1.45-3.23,3.23-3.23s3.23,1.44,3.23,3.23c0,1.78-1.45,3.23-3.23,3.23
		S856.82,222.62,856.82,220.83z"/>
</g>
<g>
	
		<ellipse transform="matrix(0.7071 -0.7071 0.7071 0.7071 99.5269 613.6077)" class="st12" cx="790.45" cy="186.66" rx="11.83" ry="11.83"/>
	<g>
		<path class="st7" d="M790.39,181.74h1.26c0.15,0,0.22,0.07,0.22,0.22v9.35c0,0.15-0.07,0.22-0.22,0.22h-1.18
			c-0.15,0-0.22-0.08-0.22-0.22v-7.94c0-0.07-0.03-0.09-0.1-0.07l-1.3,0.36c-0.02,0.01-0.04,0.01-0.07,0.01
			c-0.06,0-0.1-0.02-0.13-0.06c-0.03-0.04-0.05-0.09-0.05-0.15v-0.81c0-0.11,0.06-0.2,0.17-0.25l1.36-0.62
			C790.2,181.76,790.29,181.74,790.39,181.74z"/>
	</g>
</g>
<g>
	
		<ellipse transform="matrix(0.7071 -0.7071 0.7071 0.7071 109.8181 638.4529)" class="st12" cx="825.59" cy="186.66" rx="11.83" ry="11.83"/>
	<g>
		<path class="st7" d="M822.43,191.32v-0.92c0-0.1,0.04-0.19,0.11-0.27c0.44-0.47,1.17-1.3,2.2-2.49l0.9-1.04
			c0.86-1,1.29-1.75,1.29-2.27c0-0.38-0.14-0.7-0.41-0.94c-0.27-0.24-0.62-0.36-1.05-0.36c-0.43,0-0.78,0.12-1.04,0.36
			c-0.27,0.24-0.4,0.57-0.4,0.97v0.31c0,0.15-0.08,0.22-0.22,0.22h-1.19c-0.15,0-0.22-0.07-0.22-0.22v-0.55
			c0.02-0.5,0.16-0.94,0.43-1.32c0.27-0.37,0.64-0.66,1.1-0.87c0.46-0.21,0.98-0.31,1.55-0.31c0.62,0,1.17,0.12,1.64,0.35
			s0.83,0.55,1.08,0.96c0.25,0.41,0.38,0.86,0.38,1.37c0,0.77-0.41,1.65-1.22,2.65c-0.3,0.38-0.65,0.81-1.06,1.27
			c-0.41,0.47-0.82,0.93-1.23,1.39l-0.39,0.43c-0.03,0.03-0.04,0.05-0.03,0.07c0.01,0.02,0.03,0.03,0.07,0.03h3.86
			c0.15,0,0.22,0.08,0.22,0.22v0.95c0,0.15-0.07,0.22-0.22,0.22h-5.91C822.51,191.54,822.43,191.47,822.43,191.32z"/>
	</g>
</g>
<g>
	
		<ellipse transform="matrix(0.7071 -0.7071 0.7071 0.7071 120.1092 663.298)" class="st12" cx="860.73" cy="186.66" rx="11.83" ry="11.83"/>
	<g>
		<path class="st7" d="M856.69,181.74h1.26c0.15,0,0.22,0.07,0.22,0.22v9.35c0,0.15-0.07,0.22-0.22,0.22h-1.18
			c-0.15,0-0.22-0.08-0.22-0.22v-7.94c0-0.07-0.03-0.09-0.1-0.07l-1.3,0.36c-0.02,0.01-0.04,0.01-0.07,0.01
			c-0.06,0-0.1-0.02-0.13-0.06c-0.03-0.04-0.05-0.09-0.05-0.15v-0.81c0-0.11,0.06-0.2,0.17-0.25l1.36-0.62
			C856.5,181.76,856.58,181.74,856.69,181.74z"/>
		<path class="st7" d="M860.77,190.86c-0.57-0.55-0.86-1.3-0.86-2.25v-3.95c0-0.93,0.29-1.67,0.86-2.22
			c0.57-0.55,1.35-0.82,2.33-0.82c0.98,0,1.76,0.27,2.34,0.82c0.58,0.55,0.88,1.29,0.88,2.22v3.95c0,0.94-0.29,1.69-0.88,2.25
			c-0.58,0.56-1.36,0.83-2.34,0.83C862.12,191.7,861.34,191.42,860.77,190.86z M864.26,189.86c0.29-0.28,0.43-0.67,0.43-1.15v-4.09
			c0-0.48-0.14-0.87-0.43-1.15c-0.29-0.29-0.68-0.43-1.16-0.43c-0.48,0-0.86,0.14-1.14,0.43c-0.29,0.28-0.43,0.67-0.43,1.15v4.09
			c0,0.49,0.14,0.87,0.43,1.15c0.28,0.29,0.66,0.43,1.14,0.43C863.58,190.28,863.97,190.14,864.26,189.86z"/>
	</g>
</g>
<g>
	<path class="st8" d="M623.17,179.11h-24.31c-2.26,0-4.1,1.83-4.1,4.1v24.31c0,2.26,1.83,4.1,4.1,4.1h24.31c2.26,0,4.1-1.83,4.1-4.1
		v-24.31C627.27,180.95,625.43,179.11,623.17,179.11z"/>
	<polygon class="st8" points="637.32,185.46 629.15,189.46 629.15,201.26 637.32,205.26 	"/>
	<g>
		<path class="st7" d="M611.02,203.85c-4.68,0-8.49-3.81-8.49-8.49c0-4.68,3.81-8.49,8.49-8.49c4.68,0,8.49,3.81,8.49,8.49
			C619.51,200.04,615.7,203.85,611.02,203.85z M611.02,188.37c-3.85,0-6.99,3.14-6.99,6.99c0,3.85,3.14,6.99,6.99,6.99
			c3.85,0,6.99-3.14,6.99-6.99C618.01,191.51,614.87,188.37,611.02,188.37z"/>
	</g>
</g>
<g>
	<g>
		<path class="st8" d="M694.2,211.59l-11.79-6.2l-11.79,6.2l2.25-13.13l-9.54-9.3l13.18-1.92l5.9-11.95l5.9,11.95l13.18,1.92
			l-9.54,9.3L694.2,211.59z M682.41,203.7l9.8,5.15l-1.87-10.91l7.93-7.73l-10.96-1.59l-4.9-9.93l-4.9,9.93l-10.96,1.59l7.93,7.73
			l-1.87,10.91L682.41,203.7z"/>
	</g>
</g>
<g>
	<g>
		<g>
			<g>
				<path class="st8" d="M751.76,210.97c-0.41,0-0.75-0.34-0.75-0.75v-4.16c0-5.11-4.16-9.27-9.27-9.27h-9.91
					c-5.11,0-9.27,4.16-9.27,9.27v4.16c0,0.41-0.34,0.75-0.75,0.75c-0.41,0-0.75-0.34-0.75-0.75v-4.16
					c0-5.94,4.83-10.77,10.77-10.77h9.91c5.94,0,10.77,4.83,10.77,10.77v4.16C752.51,210.64,752.17,210.97,751.76,210.97z"/>
			</g>
			<g>
				<path class="st8" d="M736.78,193.04c-4.89,0-8.87-3.98-8.87-8.87c0-4.89,3.98-8.87,8.87-8.87c4.89,0,8.87,3.98,8.87,8.87
					C745.64,189.06,741.67,193.04,736.78,193.04z M736.78,176.81c-4.06,0-7.37,3.3-7.37,7.37c0,4.06,3.3,7.37,7.37,7.37
					c4.06,0,7.37-3.3,7.37-7.37C744.14,180.11,740.84,176.81,736.78,176.81z"/>
			</g>
		</g>
	</g>
</g>
<g>
	<path class="st12" d="M319.8-203.64h-32.78c-5.57,0-10.08,4.51-10.08,10.08v16.3c0,5.57,4.51,10.08,10.08,10.08h9.04l7.34,9.34
		l7.34-9.34h9.04c5.57,0,10.08-4.51,10.08-10.08v-16.3C329.88-199.12,325.37-203.64,319.8-203.64z"/>
	<g>
		<path class="st7" d="M319.19-181.62h-2.02v2.97h-1.82v-2.97h-5.85v-1.17l5.31-7.74h2.36v7.42h2.02V-181.62z M311.43-183.11h3.92
			v-4.07l0.07-1.93c-0.32,0.61-0.71,1.27-1.19,1.98L311.43-183.11z"/>
	</g>
	<path class="st7" d="M304.05-191.88c-1.78-1.78-4.66-1.78-6.44,0l-1.43,1.43l-1.43-1.43c-1.78-1.78-4.66-1.78-6.44,0
		c-1.78,1.78-1.78,4.66,0,6.44l7.87,7.87l7.87-7.87C305.83-187.21,305.83-190.1,304.05-191.88z"/>
</g>
<g>
	<path class="st12" d="M401.97-203.64h-40.78c-5.57,0-10.08,4.51-10.08,10.08v16.3c0,5.57,4.51,10.08,10.08,10.08h13.04l7.34,9.34
		l7.34-9.34h13.04c5.57,0,10.08-4.51,10.08-10.08v-16.3C412.05-199.12,407.53-203.64,401.97-203.64z"/>
	<g>
		<g>
			<path class="st7" d="M381.56-180.07c1.56-1.09,2.77-2.02,3.64-2.78c0.86-0.76,1.48-1.46,1.86-2.09c0.38-0.63,0.57-1.28,0.57-1.95
				c0-0.64-0.2-1.15-0.6-1.55c-0.4-0.4-0.95-0.59-1.65-0.59c-0.74,0-1.34,0.25-1.77,0.74c-0.44,0.49-0.69,1.18-0.75,2.05l-1.67-0.77
				c0.12-1.14,0.56-2.04,1.31-2.7c0.76-0.66,1.75-0.99,2.99-0.99c0.85,0,1.59,0.17,2.21,0.49c0.62,0.33,1.1,0.78,1.42,1.34
				c0.32,0.56,0.49,1.2,0.49,1.91c0,1.14-0.42,2.23-1.27,3.26c-0.85,1.03-2.25,2.18-4.22,3.44c0.6-0.01,1.25-0.04,1.96-0.04h3.74
				v1.66h-8.26V-180.07z"/>
			<path class="st7" d="M398.24-190.29c0.58,0.28,1.02,0.66,1.32,1.14c0.3,0.48,0.45,1.01,0.45,1.6c0,0.56-0.11,1.06-0.33,1.5
				c-0.22,0.44-0.5,0.78-0.85,1.02c-0.34,0.24-0.69,0.36-1.05,0.36c0.46,0.04,0.87,0.15,1.25,0.38c0.38,0.23,0.68,0.55,0.91,0.97
				c0.23,0.42,0.34,0.91,0.34,1.46c0,0.65-0.18,1.23-0.54,1.75c-0.36,0.52-0.87,0.92-1.52,1.21c-0.65,0.29-1.41,0.43-2.26,0.43
				c-2.15,0-3.57-0.96-4.27-2.88l1.76-0.85c0.18,0.7,0.47,1.21,0.86,1.56c0.4,0.34,0.97,0.51,1.71,0.51c0.72,0,1.28-0.18,1.69-0.53
				c0.41-0.35,0.61-0.83,0.61-1.41c0-0.65-0.2-1.11-0.59-1.38c-0.39-0.27-1.01-0.41-1.86-0.41h-0.54v-1.53h0.49
				c1.49,0,2.23-0.61,2.23-1.84c0-0.6-0.17-1.06-0.51-1.37c-0.34-0.31-0.83-0.47-1.45-0.47c-0.64,0-1.14,0.15-1.52,0.46
				c-0.38,0.31-0.62,0.74-0.73,1.31l-1.76-0.72c0.25-0.86,0.74-1.53,1.47-2c0.73-0.47,1.59-0.7,2.58-0.7
				C396.95-190.71,397.65-190.57,398.24-190.29z"/>
		</g>
		<path class="st7" d="M362.78-180.97c-0.86-1.26-1.37-2.78-1.37-4.42c0-4.32,3.5-7.82,7.82-7.82s7.82,3.5,7.82,7.82
			s-3.5,7.82-7.82,7.82c-1.64,0-3.16-0.51-4.42-1.37l-2.92,0.89L362.78-180.97z"/>
	</g>
</g>
<g>
	<path class="st12" d="M668.61-203.64h-92.78c-5.57,0-10.08,4.51-10.08,10.08v16.3c0,5.57,4.51,10.08,10.08,10.08h39.04l7.34,9.34
		l7.34-9.34h39.04c5.57,0,10.08-4.51,10.08-10.08v-16.3C678.7-199.12,674.18-203.64,668.61-203.64z"/>
	<g>
		<path class="st7" d="M602.34-190.53v11.88h-1.89v-8.78c0-0.41,0.01-0.73,0.02-0.95c-0.41,0.4-0.87,0.74-1.39,1.03
			c-0.52,0.29-1.05,0.49-1.59,0.61l-0.36-1.67c0.31-0.04,0.72-0.17,1.21-0.4c0.5-0.23,0.97-0.5,1.41-0.81
			c0.44-0.31,0.77-0.61,0.97-0.9H602.34z"/>
		<path class="st7" d="M605.29-180.07c1.56-1.09,2.77-2.02,3.64-2.78c0.86-0.76,1.49-1.46,1.86-2.09c0.38-0.63,0.57-1.28,0.57-1.95
			c0-0.64-0.2-1.15-0.6-1.55c-0.4-0.4-0.95-0.59-1.65-0.59c-0.74,0-1.34,0.25-1.77,0.74c-0.44,0.49-0.69,1.18-0.75,2.05l-1.67-0.77
			c0.12-1.14,0.56-2.04,1.31-2.7c0.76-0.66,1.75-0.99,2.99-0.99c0.85,0,1.59,0.17,2.21,0.49c0.62,0.33,1.1,0.78,1.42,1.34
			c0.32,0.56,0.49,1.2,0.49,1.91c0,1.14-0.42,2.23-1.27,3.26c-0.85,1.03-2.25,2.18-4.22,3.44c0.6-0.01,1.25-0.04,1.96-0.04h3.74
			v1.66h-8.26V-180.07z"/>
		<path class="st7" d="M620.43-190.53v11.88h-1.89v-8.78c0-0.41,0.01-0.73,0.02-0.95c-0.41,0.4-0.87,0.74-1.39,1.03
			c-0.52,0.29-1.05,0.49-1.59,0.61l-0.36-1.67c0.31-0.04,0.72-0.17,1.21-0.4c0.5-0.23,0.97-0.5,1.41-0.81
			c0.44-0.31,0.77-0.61,0.97-0.9H620.43z"/>
	</g>
	<path class="st7" d="M592-191.88c-1.78-1.78-4.66-1.78-6.44,0l-1.43,1.43l-1.43-1.43c-1.78-1.78-4.66-1.78-6.44,0
		c-1.78,1.78-1.78,4.66,0,6.44l7.87,7.87l7.87-7.87C593.78-187.21,593.78-190.1,592-191.88z"/>
	<g>
		<path class="st7" d="M656.33-190.29c0.58,0.28,1.02,0.66,1.32,1.14c0.3,0.48,0.45,1.01,0.45,1.6c0,0.56-0.11,1.06-0.33,1.5
			c-0.22,0.44-0.5,0.78-0.85,1.02c-0.34,0.24-0.69,0.36-1.05,0.36c0.46,0.04,0.87,0.15,1.25,0.38c0.38,0.23,0.68,0.55,0.91,0.97
			c0.23,0.42,0.34,0.91,0.34,1.46c0,0.65-0.18,1.23-0.54,1.75c-0.36,0.52-0.87,0.92-1.52,1.21s-1.41,0.43-2.26,0.43
			c-2.15,0-3.57-0.96-4.27-2.88l1.76-0.85c0.18,0.7,0.47,1.21,0.86,1.56c0.4,0.34,0.97,0.51,1.71,0.51c0.72,0,1.28-0.18,1.69-0.53
			s0.61-0.83,0.61-1.41c0-0.65-0.2-1.11-0.58-1.38c-0.39-0.27-1.01-0.41-1.86-0.41h-0.54v-1.53h0.49c1.49,0,2.23-0.61,2.23-1.84
			c0-0.6-0.17-1.06-0.51-1.37c-0.34-0.31-0.83-0.47-1.45-0.47c-0.64,0-1.14,0.15-1.52,0.46c-0.38,0.31-0.62,0.74-0.73,1.31
			l-1.76-0.72c0.25-0.86,0.74-1.53,1.47-2c0.73-0.47,1.59-0.7,2.58-0.7C655.05-190.71,655.75-190.57,656.33-190.29z"/>
		<path class="st7" d="M669.93-181.62h-2.02v2.97h-1.82v-2.97h-5.85v-1.17l5.31-7.74h2.36v7.42h2.02V-181.62z M662.17-183.11h3.92
			v-4.07l0.07-1.93c-0.32,0.61-0.71,1.27-1.19,1.98L662.17-183.11z"/>
	</g>
	<path class="st7" d="M631.75-180.97c-0.86-1.26-1.37-2.78-1.37-4.42c0-4.32,3.5-7.82,7.82-7.82c4.32,0,7.82,3.5,7.82,7.82
		s-3.5,7.82-7.82,7.82c-1.64,0-3.16-0.51-4.42-1.37l-2.92,0.89L631.75-180.97z"/>
</g>
<g>
	<path class="st12" d="M535.48-203.64h-92.78c-5.57,0-10.08,4.51-10.08,10.08v16.3c0,5.57,4.51,10.08,10.08,10.08h39.04l7.34,9.34
		l7.34-9.34h39.04c5.57,0,10.08-4.51,10.08-10.08v-16.3C545.57-199.12,541.05-203.64,535.48-203.64z"/>
	<g>
		<path class="st7" d="M469.97-190.29c0.58,0.28,1.02,0.66,1.32,1.14c0.3,0.48,0.45,1.01,0.45,1.6c0,0.56-0.11,1.06-0.33,1.5
			c-0.22,0.44-0.5,0.78-0.85,1.02c-0.34,0.24-0.69,0.36-1.05,0.36c0.46,0.04,0.87,0.15,1.25,0.38c0.38,0.23,0.68,0.55,0.91,0.97
			c0.23,0.42,0.34,0.91,0.34,1.46c0,0.65-0.18,1.23-0.54,1.75c-0.36,0.52-0.87,0.92-1.52,1.21c-0.65,0.29-1.41,0.43-2.26,0.43
			c-2.15,0-3.57-0.96-4.27-2.88l1.76-0.85c0.18,0.7,0.47,1.21,0.86,1.56c0.4,0.34,0.97,0.51,1.71,0.51c0.72,0,1.28-0.18,1.69-0.53
			c0.41-0.35,0.61-0.83,0.61-1.41c0-0.65-0.2-1.11-0.59-1.38c-0.39-0.27-1.01-0.41-1.86-0.41h-0.54v-1.53h0.49
			c1.49,0,2.23-0.61,2.23-1.84c0-0.6-0.17-1.06-0.51-1.37c-0.34-0.31-0.83-0.47-1.45-0.47c-0.64,0-1.14,0.15-1.52,0.46
			c-0.38,0.31-0.62,0.74-0.73,1.31l-1.76-0.72c0.25-0.86,0.74-1.53,1.47-2c0.73-0.47,1.59-0.7,2.58-0.7
			C468.69-190.71,469.38-190.57,469.97-190.29z"/>
		<path class="st7" d="M478.98-190.53v11.88h-1.89v-8.78c0-0.41,0.01-0.73,0.02-0.95c-0.41,0.4-0.87,0.74-1.39,1.03
			c-0.52,0.29-1.05,0.49-1.59,0.61l-0.36-1.67c0.31-0.04,0.72-0.17,1.22-0.4c0.5-0.23,0.97-0.5,1.41-0.81
			c0.44-0.31,0.77-0.61,0.97-0.9H478.98z"/>
		<path class="st7" d="M489.06-190.11c0.64,0.4,1.13,1.05,1.48,1.93l-1.69,0.81c-0.35-1.12-1.12-1.67-2.3-1.67
			c-0.58,0-1.09,0.2-1.53,0.59c-0.44,0.4-0.79,0.94-1.03,1.64c-0.25,0.7-0.37,1.48-0.37,2.34v0.32h0.07
			c0.19-0.65,0.58-1.14,1.17-1.48c0.59-0.34,1.24-0.51,1.96-0.51c0.78,0,1.47,0.16,2.07,0.47c0.6,0.31,1.06,0.75,1.39,1.32
			c0.33,0.57,0.5,1.24,0.5,2.01c0,1.19-0.38,2.13-1.13,2.83c-0.76,0.7-1.79,1.04-3.1,1.04c-1.5,0-2.66-0.55-3.47-1.65
			c-0.82-1.1-1.22-2.59-1.22-4.47c0-1.31,0.21-2.42,0.62-3.35c0.41-0.92,0.98-1.62,1.71-2.08s1.55-0.69,2.48-0.69
			C487.62-190.71,488.42-190.51,489.06-190.11z M484.85-183.93c-0.43,0.4-0.64,0.93-0.64,1.58c0,0.67,0.21,1.21,0.63,1.62
			c0.42,0.41,0.98,0.61,1.69,0.61c0.73,0,1.3-0.2,1.71-0.58c0.41-0.39,0.61-0.94,0.61-1.65c0-0.68-0.2-1.22-0.61-1.6
			c-0.41-0.38-0.98-0.58-1.71-0.58C485.84-184.54,485.28-184.33,484.85-183.93z"/>
	</g>
	<g>
		<path class="st7" d="M526.3-185.81c0.56,0.32,1,0.76,1.3,1.32c0.31,0.56,0.46,1.22,0.46,1.96c0,1.28-0.38,2.28-1.15,2.99
			c-0.77,0.71-1.79,1.06-3.08,1.06c-1.08,0-1.96-0.22-2.65-0.65c-0.69-0.43-1.24-1.09-1.65-1.96l1.8-0.99
			c0.18,0.65,0.45,1.14,0.82,1.47c0.37,0.33,0.92,0.5,1.65,0.5c0.73,0,1.31-0.2,1.74-0.59c0.43-0.4,0.64-0.95,0.64-1.67
			c0-0.74-0.2-1.32-0.59-1.72c-0.4-0.4-0.97-0.6-1.71-0.6c-1.13,0-1.93,0.34-2.41,1.03l-1.6-0.11l0.74-6.75h6.89v1.66h-5.36
			l-0.41,3.29l-0.04,0.25c0.59-0.64,1.47-0.95,2.65-0.95C525.08-186.28,525.74-186.12,526.3-185.81z"/>
		<path class="st7" d="M534.88-190.53v11.88H533v-8.78c0-0.41,0.01-0.73,0.02-0.95c-0.41,0.4-0.87,0.74-1.39,1.03
			c-0.52,0.29-1.05,0.49-1.59,0.61l-0.36-1.67c0.31-0.04,0.72-0.17,1.21-0.4c0.5-0.23,0.97-0.5,1.41-0.81
			c0.44-0.31,0.77-0.61,0.97-0.9H534.88z"/>
	</g>
	<path class="st7" d="M500.5-180.97c-0.86-1.26-1.37-2.78-1.37-4.42c0-4.32,3.5-7.82,7.82-7.82s7.82,3.5,7.82,7.82
		s-3.5,7.82-7.82,7.82c-1.64,0-3.16-0.51-4.42-1.37l-2.92,0.89L500.5-180.97z"/>
	<g>
		<g>
			<g>
				<path class="st7" d="M458.81-177.56c0-2.89-2.34-5.23-5.23-5.23h-5.17c-2.89,0-5.23,2.34-5.23,5.23H458.81z"/>
				<circle class="st7" cx="451" cy="-188.98" r="4.23"/>
			</g>
		</g>
	</g>
</g>
<g>
	<path class="st12" d="M246.13-203.64h-34.78c-5.57,0-10.08,4.51-10.08,10.08v16.3c0,5.57,4.51,10.08,10.08,10.08h10.04l7.34,9.34
		l7.34-9.34h10.04c5.57,0,10.08-4.51,10.08-10.08v-16.3C256.22-199.12,251.7-203.64,246.13-203.64z"/>
	<g>
		<g>
			<g>
				<g>
					<path class="st7" d="M226.49-177.56c0-2.89-2.34-5.23-5.23-5.23h-5.17c-2.89,0-5.23,2.34-5.23,5.23H226.49z"/>
					<circle class="st7" cx="218.68" cy="-188.98" r="4.23"/>
				</g>
			</g>
		</g>
		<g>
			<path class="st7" d="M234.24-190.53v11.88h-1.89v-8.78c0-0.41,0.01-0.73,0.02-0.95c-0.41,0.4-0.87,0.74-1.4,1.03
				c-0.52,0.29-1.05,0.49-1.59,0.61l-0.36-1.67c0.31-0.04,0.72-0.17,1.22-0.4c0.5-0.23,0.97-0.5,1.41-0.81
				c0.44-0.31,0.77-0.61,0.97-0.9H234.24z"/>
			<path class="st7" d="M237.19-180.07c1.56-1.09,2.77-2.02,3.64-2.78c0.86-0.76,1.48-1.46,1.86-2.09c0.38-0.63,0.57-1.28,0.57-1.95
				c0-0.64-0.2-1.15-0.6-1.55c-0.4-0.4-0.95-0.59-1.65-0.59c-0.74,0-1.34,0.25-1.77,0.74c-0.44,0.49-0.69,1.18-0.75,2.05l-1.67-0.77
				c0.12-1.14,0.56-2.04,1.31-2.7c0.76-0.66,1.75-0.99,2.99-0.99c0.85,0,1.59,0.17,2.21,0.49c0.62,0.33,1.1,0.78,1.42,1.34
				c0.32,0.56,0.49,1.2,0.49,1.91c0,1.14-0.42,2.23-1.27,3.26c-0.85,1.03-2.25,2.18-4.22,3.44c0.6-0.01,1.25-0.04,1.96-0.04h3.74
				v1.66h-8.26V-180.07z"/>
		</g>
	</g>
</g>
<g>
	<path class="st12" d="M170.64-203.64h-24.78c-5.57,0-10.08,4.51-10.08,10.08v16.3c0,5.57,4.51,10.08,10.08,10.08h5.04l7.34,9.34
		l7.34-9.34h5.04c5.57,0,10.08-4.51,10.08-10.08v-16.3C180.72-199.12,176.21-203.64,170.64-203.64z"/>
	<path class="st7" d="M168.08-192.49c-2.22-2.22-5.82-2.22-8.04,0l-1.79,1.79l-1.79-1.79c-2.22-2.22-5.82-2.22-8.04,0
		c-2.22,2.22-2.22,5.82,0,8.04l9.83,9.83l9.83-9.83C170.3-186.67,170.3-190.27,168.08-192.49z"/>
</g>
<g>
	<path class="st12" d="M861.74-203.64H708.97c-5.57,0-10.08,4.51-10.08,10.08v16.3c0,5.57,4.51,10.08,10.08,10.08h69.04l7.34,9.34
		l7.34-9.34h69.04c5.57,0,10.08-4.51,10.08-10.08v-16.3C871.83-199.12,867.31-203.64,861.74-203.64z"/>
	<path class="st7" d="M726.35-191.88c-1.78-1.78-4.66-1.78-6.44,0l-1.43,1.43l-1.43-1.43c-1.78-1.78-4.66-1.78-6.44,0
		c-1.78,1.78-1.78,4.66,0,6.44l7.87,7.87l7.87-7.87C728.13-187.21,728.13-190.1,726.35-191.88z"/>
	<path class="st7" d="M767.22-180.97c-0.86-1.26-1.37-2.78-1.37-4.42c0-4.32,3.5-7.82,7.82-7.82c4.32,0,7.82,3.5,7.82,7.82
		s-3.5,7.82-7.82,7.82c-1.64,0-3.16-0.51-4.42-1.37l-2.92,0.89L767.22-180.97z"/>
	<g>
		<g>
			<g>
				<path class="st7" d="M837.24-177.56c0-2.89-2.34-5.23-5.23-5.23h-5.17c-2.89,0-5.23,2.34-5.23,5.23H837.24z"/>
				<circle class="st7" cx="829.43" cy="-188.98" r="4.23"/>
			</g>
		</g>
	</g>
	<g>
		<path class="st7" d="M739.3-190.29c0.58,0.28,1.02,0.66,1.32,1.14c0.3,0.48,0.45,1.01,0.45,1.6c0,0.56-0.11,1.06-0.33,1.5
			c-0.22,0.44-0.5,0.78-0.85,1.02c-0.34,0.24-0.69,0.36-1.05,0.36c0.46,0.04,0.87,0.15,1.25,0.38c0.38,0.23,0.68,0.55,0.91,0.97
			c0.23,0.42,0.34,0.91,0.34,1.46c0,0.65-0.18,1.23-0.54,1.75c-0.36,0.52-0.87,0.92-1.52,1.21c-0.65,0.29-1.41,0.43-2.26,0.43
			c-2.15,0-3.57-0.96-4.27-2.88l1.76-0.85c0.18,0.7,0.47,1.21,0.86,1.56c0.4,0.34,0.97,0.51,1.71,0.51c0.72,0,1.28-0.18,1.69-0.53
			c0.41-0.35,0.61-0.83,0.61-1.41c0-0.65-0.2-1.11-0.59-1.38c-0.39-0.27-1.01-0.41-1.86-0.41h-0.54v-1.53h0.49
			c1.49,0,2.23-0.61,2.23-1.84c0-0.6-0.17-1.06-0.51-1.37c-0.34-0.31-0.83-0.47-1.45-0.47c-0.64,0-1.14,0.15-1.52,0.46
			c-0.38,0.31-0.62,0.74-0.73,1.31l-1.76-0.72c0.25-0.86,0.74-1.53,1.47-2c0.73-0.47,1.59-0.7,2.58-0.7
			C738.01-190.71,738.71-190.57,739.3-190.29z"/>
		<path class="st7" d="M752.89-181.62h-2.02v2.97h-1.82v-2.97h-5.85v-1.17l5.31-7.74h2.36v7.42h2.02V-181.62z M745.14-183.11h3.92
			v-4.07l0.07-1.93c-0.32,0.61-0.71,1.27-1.19,1.98L745.14-183.11z"/>
	</g>
	<g>
		<path class="st7" d="M788.15-180.07c1.56-1.09,2.77-2.02,3.64-2.78c0.86-0.76,1.49-1.46,1.86-2.09c0.38-0.63,0.57-1.28,0.57-1.95
			c0-0.64-0.2-1.15-0.6-1.55c-0.4-0.4-0.95-0.59-1.65-0.59c-0.74,0-1.34,0.25-1.77,0.74c-0.44,0.49-0.69,1.18-0.75,2.05l-1.67-0.77
			c0.12-1.14,0.56-2.04,1.31-2.7c0.76-0.66,1.75-0.99,2.99-0.99c0.85,0,1.59,0.17,2.21,0.49c0.62,0.33,1.1,0.78,1.42,1.34
			c0.32,0.56,0.49,1.2,0.49,1.91c0,1.14-0.42,2.23-1.27,3.26c-0.85,1.03-2.25,2.18-4.22,3.44c0.6-0.01,1.25-0.04,1.96-0.04h3.74
			v1.66h-8.26V-180.07z"/>
		<path class="st7" d="M804.82-190.29c0.58,0.28,1.02,0.66,1.32,1.14c0.3,0.48,0.45,1.01,0.45,1.6c0,0.56-0.11,1.06-0.33,1.5
			c-0.22,0.44-0.5,0.78-0.85,1.02c-0.34,0.24-0.69,0.36-1.05,0.36c0.46,0.04,0.87,0.15,1.25,0.38c0.38,0.23,0.68,0.55,0.91,0.97
			c0.23,0.42,0.34,0.91,0.34,1.46c0,0.65-0.18,1.23-0.54,1.75c-0.36,0.52-0.87,0.92-1.52,1.21c-0.65,0.29-1.41,0.43-2.26,0.43
			c-2.15,0-3.57-0.96-4.27-2.88l1.76-0.85c0.18,0.7,0.47,1.21,0.86,1.56c0.4,0.34,0.97,0.51,1.71,0.51c0.72,0,1.28-0.18,1.69-0.53
			c0.41-0.35,0.61-0.83,0.61-1.41c0-0.65-0.2-1.11-0.59-1.38c-0.39-0.27-1.01-0.41-1.86-0.41h-0.54v-1.53h0.49
			c1.49,0,2.23-0.61,2.23-1.84c0-0.6-0.17-1.06-0.51-1.37c-0.34-0.31-0.83-0.47-1.45-0.47c-0.64,0-1.14,0.15-1.52,0.46
			c-0.38,0.31-0.62,0.74-0.73,1.31l-1.76-0.72c0.25-0.86,0.74-1.53,1.47-2c0.73-0.47,1.59-0.7,2.58-0.7
			C803.54-190.71,804.24-190.57,804.82-190.29z"/>
	</g>
	<g>
		<path class="st7" d="M848.09-190.29c0.58,0.28,1.02,0.66,1.32,1.14c0.3,0.48,0.45,1.01,0.45,1.6c0,0.56-0.11,1.06-0.33,1.5
			c-0.22,0.44-0.5,0.78-0.85,1.02c-0.34,0.24-0.69,0.36-1.05,0.36c0.46,0.04,0.87,0.15,1.25,0.38c0.38,0.23,0.68,0.55,0.91,0.97
			c0.23,0.42,0.34,0.91,0.34,1.46c0,0.65-0.18,1.23-0.54,1.75c-0.36,0.52-0.87,0.92-1.52,1.21c-0.65,0.29-1.41,0.43-2.26,0.43
			c-2.15,0-3.57-0.96-4.27-2.88l1.76-0.85c0.18,0.7,0.47,1.21,0.86,1.56c0.4,0.34,0.97,0.51,1.71,0.51c0.72,0,1.28-0.18,1.69-0.53
			s0.61-0.83,0.61-1.41c0-0.65-0.2-1.11-0.58-1.38c-0.39-0.27-1.01-0.41-1.86-0.41h-0.54v-1.53h0.49c1.49,0,2.23-0.61,2.23-1.84
			c0-0.6-0.17-1.06-0.51-1.37c-0.34-0.31-0.83-0.47-1.45-0.47c-0.64,0-1.14,0.15-1.52,0.46c-0.38,0.31-0.62,0.74-0.73,1.31
			l-1.76-0.72c0.25-0.86,0.74-1.53,1.47-2c0.73-0.47,1.59-0.7,2.58-0.7C846.81-190.71,847.51-190.57,848.09-190.29z"/>
		<path class="st7" d="M859.66-190.11c0.64,0.4,1.13,1.05,1.48,1.93l-1.69,0.81c-0.35-1.12-1.12-1.67-2.3-1.67
			c-0.58,0-1.09,0.2-1.53,0.59c-0.44,0.4-0.79,0.94-1.04,1.64c-0.25,0.7-0.37,1.48-0.37,2.34v0.32h0.07
			c0.19-0.65,0.58-1.14,1.17-1.48c0.59-0.34,1.24-0.51,1.96-0.51c0.78,0,1.47,0.16,2.07,0.47c0.6,0.31,1.06,0.75,1.39,1.32
			c0.33,0.57,0.5,1.24,0.5,2.01c0,1.19-0.38,2.13-1.13,2.83c-0.76,0.7-1.79,1.04-3.1,1.04c-1.5,0-2.66-0.55-3.47-1.65
			c-0.82-1.1-1.22-2.59-1.22-4.47c0-1.31,0.21-2.42,0.62-3.35c0.41-0.92,0.98-1.62,1.71-2.08c0.73-0.46,1.55-0.69,2.47-0.69
			C858.22-190.71,859.02-190.51,859.66-190.11z M855.45-183.93c-0.43,0.4-0.64,0.93-0.64,1.58c0,0.67,0.21,1.21,0.63,1.62
			c0.42,0.41,0.98,0.61,1.69,0.61c0.73,0,1.3-0.2,1.71-0.58c0.41-0.39,0.61-0.94,0.61-1.65c0-0.68-0.2-1.22-0.61-1.6
			c-0.41-0.38-0.98-0.58-1.71-0.58C856.44-184.54,855.88-184.33,855.45-183.93z"/>
	</g>
</g>
<g>
	<g>
		<g>
			<g>
				<path class="st8" d="M39.8,35.67c-0.41,0-0.75-0.34-0.75-0.75v-4.16c0-5.11-4.16-9.27-9.27-9.27h-9.91
					c-5.11,0-9.27,4.16-9.27,9.27v4.16c0,0.41-0.34,0.75-0.75,0.75c-0.41,0-0.75-0.34-0.75-0.75v-4.16
					c0-5.94,4.83-10.77,10.77-10.77h9.91c5.94,0,10.77,4.83,10.77,10.77v4.16C40.55,35.33,40.22,35.67,39.8,35.67z"/>
			</g>
			<g>
				<path class="st8" d="M24.83,17.73c-4.89,0-8.87-3.98-8.87-8.87c0-4.89,3.98-8.87,8.87-8.87s8.87,3.98,8.87,8.87
					C33.69,13.75,29.71,17.73,24.83,17.73z M24.83,1.5c-4.06,0-7.37,3.3-7.37,7.37c0,4.06,3.3,7.37,7.37,7.37
					c4.06,0,7.37-3.3,7.37-7.37C32.19,4.8,28.89,1.5,24.83,1.5z"/>
			</g>
		</g>
	</g>
	<g>
		<g>
			<path class="st8" d="M6.3,21.48c-0.41,0-0.75-0.34-0.75-0.75V9.63c0-0.41,0.34-0.75,0.75-0.75c0.41,0,0.75,0.34,0.75,0.75v11.1
				C7.05,21.15,6.72,21.48,6.3,21.48z"/>
		</g>
		<g>
			<path class="st8" d="M11.85,15.93H0.75C0.34,15.93,0,15.6,0,15.18c0-0.41,0.34-0.75,0.75-0.75h11.1c0.41,0,0.75,0.34,0.75,0.75
				C12.6,15.6,12.27,15.93,11.85,15.93z"/>
		</g>
	</g>
</g>
</svg>
