<svg width="63" height="17" viewBox="0 0 63 17" fill="none" xmlns="http://www.w3.org/2000/svg">
<g clip-path="url(#clip0_164_2)">
<path d="M0.153752 16.6612C0.269067 16.6612 0.422819 16.6413 0.59579 16.6014C0.768761 16.5615 0.922514 16.5018 1.07627 16.422C1.23002 16.3423 1.36455 16.2427 1.47987 16.1231C1.59518 16.0035 1.65284 15.8441 1.65284 15.6846V1.05627C1.65284 0.876905 1.6144 0.737397 1.5183 0.61782C1.42221 0.498242 1.32611 0.398593 1.19158 0.318875C1.05705 0.239156 0.941733 0.179367 0.78798 0.139508C0.634228 0.0996483 0.518914 0.0797186 0.384381 0.0797186L0.249847 0H11.7813L12.0119 0.139508L12.4347 2.79015H12.3386C12.2041 2.51114 12.0119 2.21219 11.8005 1.91325C11.5699 1.6143 11.3392 1.33529 11.0894 1.0762C10.8395 0.817116 10.5897 0.61782 10.3398 0.458382C10.09 0.298945 9.85937 0.219226 9.64796 0.219226H3.34411V7.55334H7.99512C8.45638 7.51348 8.82154 7.45369 9.07138 7.37397C9.32123 7.29426 9.51342 7.19461 9.64796 7.07503C9.78249 6.95545 9.85937 6.79601 9.91702 6.59672C9.95546 6.41735 9.9939 6.17819 10.0323 5.89918H10.1284V9.32708H10.0323C9.9939 9.10785 9.95546 8.90856 9.91702 8.74912C9.87858 8.58968 9.78249 8.43025 9.64796 8.29074C9.51342 8.17116 9.32123 8.07151 9.07138 7.99179C8.82154 7.91208 8.45638 7.85229 7.99512 7.7925H3.34411V15.6846C3.34411 15.8441 3.40177 15.9836 3.51708 16.1231C3.6324 16.2626 3.76693 16.3423 3.92068 16.422C4.07444 16.5018 4.24741 16.5615 4.42038 16.6014C4.59335 16.6413 4.7471 16.6612 4.8432 16.6612L4.97773 16.7409H0L0.153752 16.6612Z" fill="black"/>
<path d="M12.1464 16.6612C12.3771 16.6612 12.6077 16.5815 12.8383 16.422C13.0689 16.2626 13.1843 16.0234 13.1843 15.6846V8.56976C13.1843 8.29074 13.1074 8.07151 12.9728 7.87222C12.8383 7.65299 12.6461 7.57327 12.3771 7.57327V7.37398C12.5308 7.37398 12.723 7.33412 12.9728 7.23447C13.2227 7.13482 13.4725 7.01524 13.7032 6.87573C13.9722 6.73623 14.1836 6.57679 14.3758 6.39742C14.568 6.21806 14.6833 6.03869 14.7026 5.87925H14.8179V8.39039C15.0485 8.05158 15.2983 7.69285 15.5866 7.37398C15.8749 7.0551 16.1824 6.73623 16.5284 6.47714C16.8743 6.21806 17.2395 6.01876 17.6239 5.85932C18.0082 5.69988 18.4118 5.64009 18.8539 5.64009C19.2575 5.64009 19.6226 5.73974 19.9301 5.91911C20.2569 6.09848 20.4106 6.41735 20.4106 6.8558C20.4106 7.09496 20.3337 7.27433 20.1992 7.39391C20.0647 7.51348 19.8917 7.57327 19.7187 7.57327C19.6803 7.57327 19.5842 7.53341 19.4689 7.47362C19.3536 7.41383 19.219 7.33412 19.0845 7.23447C18.9307 7.13482 18.777 7.03517 18.604 6.93552C18.4311 6.83587 18.2581 6.75616 18.0851 6.69637C17.6815 6.55686 17.1818 6.65651 16.5668 6.99531C15.971 7.33412 15.3752 7.89215 14.8371 8.62954V15.7644C14.8371 15.9238 14.8755 16.0633 14.9524 16.1829C15.0293 16.3025 15.1254 16.4021 15.2407 16.4619C15.356 16.5416 15.4713 16.5815 15.5866 16.6213C15.7019 16.6612 15.8173 16.6612 15.9134 16.6612L16.0479 16.7409H11.9927L12.1464 16.6612Z" fill="black"/>
<path d="M21.5445 11.32C21.5445 10.4631 21.6791 9.68581 21.9674 8.96835C22.2556 8.25088 22.6208 7.67292 23.1205 7.15475C23.6202 6.65651 24.1968 6.27784 24.8694 5.99883C25.5421 5.73974 26.2916 5.62016 27.0988 5.62016C27.8292 5.64009 28.4634 5.7796 29.0015 6.05862C29.5397 6.33763 29.9625 6.69636 30.2892 7.13482C30.6159 7.57327 30.8658 8.09144 31.0003 8.6694C31.1541 9.24736 31.2117 9.84525 31.1925 10.483L23.255 11.5592C23.2935 12.197 23.3896 12.8148 23.5625 13.4326C23.7355 14.0305 23.9854 14.5686 24.3121 15.027C24.6388 15.4853 25.0616 15.864 25.5613 16.143C26.061 16.422 26.676 16.5615 27.3871 16.5615C28.1175 16.5615 28.8093 16.4021 29.4628 16.0633C30.1162 15.7245 30.6736 15.306 31.0964 14.7679L31.2117 14.8476C30.7889 15.4256 30.2315 15.9238 29.5204 16.3623C28.8286 16.7808 27.9637 17 26.9451 17C26.1187 17 25.3691 16.8605 24.6965 16.6014C24.0238 16.3224 23.4472 15.9437 22.986 15.4455C22.5247 14.9472 22.1595 14.3494 21.9097 13.6518C21.6599 12.9543 21.5445 12.177 21.5445 11.32ZM29.8279 10.3634C29.8472 9.84525 29.7895 9.32708 29.6742 8.80891C29.5589 8.29074 29.3859 7.81243 29.1361 7.37397C28.8862 6.93552 28.5787 6.59672 28.1943 6.3177C27.8099 6.03869 27.3679 5.89918 26.8682 5.89918C26.2148 5.89918 25.6382 6.05862 25.1769 6.37749C24.7157 6.69636 24.3505 7.09496 24.0622 7.5932C23.7739 8.09144 23.5625 8.62954 23.4472 9.24736C23.3127 9.84525 23.255 10.4431 23.255 11.0211V11.3599L29.8279 10.3634Z" fill="black"/>
<path d="M33.0952 11.32C33.0952 10.4631 33.2297 9.68581 33.518 8.96835C33.8063 8.25088 34.1715 7.67292 34.6711 7.15475C35.1708 6.65651 35.7474 6.27784 36.4201 5.99883C37.0927 5.73974 37.8423 5.62016 38.6495 5.62016C39.3798 5.64009 40.014 5.7796 40.5522 6.05862C41.0903 6.33763 41.5131 6.69636 41.8398 7.13482C42.1666 7.57327 42.4164 8.09144 42.551 8.6694C42.7047 9.24736 42.7624 9.84525 42.7431 10.483L34.8057 11.5592C34.8441 12.197 34.9402 12.8148 35.1132 13.4326C35.2862 14.0305 35.536 14.5686 35.8627 15.027C36.1895 15.4853 36.6123 15.864 37.112 16.143C37.6117 16.422 38.2267 16.5615 38.9378 16.5615C39.6681 16.5615 40.36 16.4021 41.0134 16.0633C41.6669 15.7245 42.2242 15.306 42.647 14.7679L42.7624 14.8476C42.3395 15.4256 41.7822 15.9238 41.0711 16.3623C40.36 16.8007 39.4951 17 38.4573 17C37.6309 17 36.8813 16.8605 36.2087 16.6014C35.5744 16.3224 34.9979 15.9437 34.5366 15.4455C34.0754 14.9472 33.7102 14.3494 33.4603 13.6518C33.2105 12.9543 33.0952 12.177 33.0952 11.32ZM41.3786 10.3634C41.3978 9.84525 41.3402 9.32708 41.2248 8.80891C41.1095 8.29074 40.9366 7.81243 40.6867 7.37397C40.4369 6.93552 40.1294 6.59672 39.745 6.3177C39.3606 6.03869 38.9186 5.89918 38.4189 5.89918C37.7654 5.89918 37.1888 6.05862 36.7276 6.37749C36.2663 6.69636 35.9012 7.09496 35.6129 7.5932C35.3246 8.09144 35.1132 8.62954 34.9979 9.24736C34.8633 9.84525 34.8057 10.4431 34.8057 11.0211V11.3599L41.3786 10.3634Z" fill="black"/>
<path d="M44.2615 16.6612C44.4921 16.6612 44.7227 16.5815 44.9533 16.422C45.184 16.2626 45.2993 16.0234 45.2993 15.6846V8.56976C45.2993 8.29074 45.2224 8.07151 45.0879 7.87222C44.9533 7.67292 44.7419 7.57327 44.4921 7.5932V7.39391C44.6458 7.39391 44.838 7.35405 45.0879 7.2544C45.3377 7.15475 45.5876 7.03517 45.8182 6.89566C46.068 6.75616 46.2794 6.59672 46.4716 6.39742C46.6638 6.19813 46.7791 6.03869 46.7984 5.87925L46.9137 5.85932V7.51348C47.4134 6.91559 47.9515 6.43728 48.5665 6.11841C49.1815 5.79953 49.8542 5.64009 50.6037 5.64009C51.6031 5.64009 52.3719 5.83939 52.8908 6.21805C53.4289 6.61665 53.7941 7.07503 53.9863 7.5932C55.0241 6.27784 56.2733 5.64009 57.7724 5.64009C58.5028 5.64009 59.0985 5.73974 59.5598 5.95897C60.0211 6.1782 60.4054 6.43728 60.6745 6.77609C60.9436 7.11489 61.1358 7.47362 61.2319 7.87222C61.3472 8.27081 61.3856 8.6694 61.3856 9.04807L61.3472 13.8312C61.3472 14.7878 61.424 15.4455 61.597 15.8042C61.7508 16.163 62.1159 16.3423 62.6541 16.3224H63V16.4021C62.8655 16.5615 62.6156 16.6811 62.2697 16.7808C61.9237 16.8605 61.5586 16.9004 61.2126 16.8804C60.8475 16.8605 60.5015 16.7409 60.194 16.5416C59.8865 16.3025 59.7328 15.9437 59.7328 15.4256V9.04807C59.7328 8.84877 59.7136 8.58968 59.6751 8.27081C59.6367 7.95194 59.5406 7.61313 59.406 7.29426C59.2523 6.97538 59.0409 6.67644 58.7334 6.43728C58.4259 6.19813 58.0223 6.05862 57.5226 6.05862C57.2727 6.05862 57.0229 6.07855 56.7538 6.09848C56.4848 6.13834 56.2157 6.19813 55.9466 6.3177C55.6776 6.43728 55.3701 6.61665 55.0625 6.8558C54.755 7.09496 54.4283 7.43376 54.0632 7.85229C54.1785 8.23095 54.2169 8.62954 54.2169 9.02814L54.1977 15.6846C54.1977 16.0234 54.3322 16.2626 54.5821 16.422C54.8511 16.5815 55.0818 16.6612 55.274 16.6612L55.3893 16.7409H51.3533L51.4878 16.6612C51.7184 16.6612 51.9491 16.5815 52.1989 16.422C52.4295 16.2626 52.5641 16.0234 52.5641 15.6846V9.04807C52.5641 8.84877 52.5449 8.58968 52.5064 8.27081C52.468 7.95194 52.3719 7.61313 52.2374 7.29426C52.0836 6.97538 51.8722 6.67644 51.5647 6.43728C51.2572 6.19813 50.8536 6.05862 50.3539 6.05862C50.104 6.05862 49.8542 6.07855 49.5851 6.09848C49.3161 6.13834 49.047 6.19813 48.7779 6.3177C48.5089 6.43728 48.2014 6.61665 47.8938 6.8558C47.5863 7.09496 47.2596 7.43376 46.8945 7.85229V15.7444C46.8945 15.9039 46.9329 16.0434 47.0098 16.163C47.0866 16.2825 47.1827 16.3822 47.2981 16.442C47.4134 16.5217 47.5287 16.5615 47.6632 16.6014C47.7978 16.6413 47.8938 16.6413 47.9899 16.6413L48.1245 16.721H44.0693L44.2615 16.6612Z" fill="black"/>
</g>
<defs>
<clipPath id="clip0_164_2">
<rect width="63" height="17" fill="white"/>
</clipPath>
</defs>
</svg>
