<svg width="196" height="200" viewBox="0 0 196 200" fill="none" xmlns="http://www.w3.org/2000/svg">
<g clip-path="url(#clip0_651_46911)">
<path d="M39.5293 87.2548C32.8574 90.7902 4.56561 104.921 1.56108 107.226C0.588088 107.969 2.43785 109.332 17.8775 118.043C36.6852 128.649 122.972 182.655 132.434 188.285C153.498 200.798 156.578 200.82 160.619 199.346C167.933 196.675 191.199 182.844 193.936 179.552C195.979 177.092 195.423 173.036 176.765 161.687C166.96 155.724 61.5661 92.375 47.7624 84.4398C46.5542 83.7305 40.7055 86.6342 39.5293 87.2548Z" fill="#CECECE"/>
<path d="M34.6964 113.421C33.7555 119.838 36.7707 128.294 41.8175 131.464C46.8642 134.623 54.0067 130.954 54.9583 124.537C55.8992 118.12 52.5739 110.362 47.5272 107.193C42.4804 104.023 35.6374 107.004 34.6964 113.421Z" fill="#0C0B0C"/>
<path d="M33.3492 113.554C32.4083 119.971 35.7336 127.74 40.7803 130.899C45.8271 134.057 50.6814 131.42 51.6223 125.003C52.5632 118.586 49.2379 110.828 44.2019 107.658C39.1444 104.5 34.2901 107.137 33.3492 113.554Z" fill="#231F20"/>
<path d="M35.9688 115.538C35.3059 120.027 37.6261 125.457 41.1546 127.663C44.683 129.868 48.0725 128.028 48.7354 123.54C49.3983 119.062 47.0674 113.632 43.539 111.415C40.0212 109.21 36.6317 111.05 35.9688 115.538Z" fill="#939393"/>
<path d="M37.038 116.037C36.4927 119.761 38.4173 124.26 41.347 126.089C44.2767 127.929 47.0888 126.399 47.6341 122.675C48.1794 118.952 46.2548 114.452 43.3251 112.623C40.4061 110.784 37.594 112.313 37.038 116.037Z" fill="#3D4F5D"/>
<path d="M39.9677 118.53L36.6959 116.458L36.8242 115.549L40.096 117.622C40.1602 117.4 40.235 117.2 40.342 117.023L37.6796 113.133L38.1393 112.546L40.8445 116.491C40.9728 116.403 41.1225 116.325 41.2722 116.27L40.0746 111.415L40.759 111.338L41.9565 116.225C42.1383 116.258 42.32 116.314 42.5125 116.403L43.154 112.036L43.8704 112.479L43.2289 116.868C43.3999 117.012 43.5496 117.189 43.6993 117.367L45.934 114.829L46.4793 115.682L44.2339 118.242C44.3516 118.475 44.4478 118.73 44.5333 118.985L47.7196 118.918L47.9228 119.927L44.7365 119.993C44.7579 120.182 44.7579 120.37 44.7579 120.559L48.0404 122.631L47.9014 123.54L44.6189 121.467C44.5868 121.589 44.544 121.7 44.4906 121.8L47.0246 125.49L46.5649 126.078L44.0736 122.443C43.9239 122.587 43.7528 122.686 43.571 122.764L44.6616 127.186L43.9773 127.264L42.8974 122.875C42.7263 122.864 42.5446 122.819 42.3628 122.753L41.7747 126.732L41.0583 126.288L41.6357 122.332C41.4433 122.177 41.2508 121.999 41.0797 121.8L38.8985 124.293L38.3532 123.44L40.5344 120.958C40.3847 120.68 40.2671 120.392 40.1709 120.082L36.9632 120.148L36.76 119.14L39.9784 119.073C39.9677 118.885 39.957 118.708 39.9677 118.53Z" fill="#939393"/>
<path d="M42.5339 117.356C43.1113 117.71 43.5603 118.409 43.7742 119.151C43.7207 119.107 43.6566 119.051 43.6031 119.018C42.6836 118.442 41.8068 118.918 41.6357 120.082C41.5716 120.514 41.6143 120.991 41.7426 121.434C40.93 120.802 40.4061 119.506 40.5665 118.42C40.7376 117.256 41.6143 116.779 42.5339 117.356Z" fill="#CCCCCC"/>
<path d="M117.733 165.344C116.792 171.761 118.652 179.951 123.699 183.11C128.746 186.268 135.899 182.6 136.84 176.183C137.781 169.766 134.455 162.008 129.409 158.839C124.362 155.669 118.684 158.927 117.733 165.344Z" fill="#0C0B0C"/>
<path d="M115.231 165.2C114.29 171.617 117.615 179.386 122.662 182.545C127.708 185.703 132.552 183.065 133.504 176.649C134.445 170.232 131.119 162.474 126.083 159.304C121.026 156.145 116.172 158.783 115.231 165.2Z" fill="#231F20"/>
<path d="M117.85 167.195C117.187 171.683 119.507 177.114 123.036 179.319C126.564 181.536 129.954 179.685 130.617 175.208C131.28 170.719 128.949 165.3 125.42 163.083C121.903 160.867 118.502 162.706 117.85 167.195Z" fill="#939393"/>
<path d="M118.919 167.683C118.374 171.406 120.299 175.906 123.228 177.735C126.158 179.563 128.97 178.045 129.515 174.321C130.061 170.608 128.136 166.098 125.206 164.269C122.287 162.44 119.465 163.97 118.919 167.683Z" fill="#3D4F5D"/>
<path d="M121.849 170.176L118.577 168.104L118.706 167.195L121.988 169.267C122.052 169.046 122.127 168.846 122.234 168.669L119.572 164.779L120.031 164.191L122.737 168.137C122.865 168.037 123.015 167.971 123.164 167.915L121.967 163.061L122.651 162.983L123.849 167.871C124.03 167.904 124.212 167.96 124.405 168.048L125.046 163.682L125.762 164.125L125.121 168.514C125.292 168.658 125.442 168.824 125.591 169.013L127.826 166.475L128.371 167.328L126.126 169.888C126.244 170.132 126.34 170.376 126.425 170.631L129.612 170.564L129.815 171.584L126.629 171.65C126.65 171.839 126.65 172.027 126.65 172.215L129.932 174.288L129.793 175.197L126.522 173.124C126.49 173.246 126.447 173.357 126.393 173.457L128.927 177.147L128.468 177.735L125.976 174.1C125.827 174.244 125.656 174.343 125.484 174.421L126.575 178.843L125.891 178.921L124.811 174.543C124.64 174.532 124.458 174.487 124.276 174.421L123.688 178.411L122.972 177.956L123.549 173.989C123.357 173.834 123.164 173.656 123.004 173.457L120.823 175.95L120.277 175.097L122.459 172.614C122.32 172.337 122.191 172.038 122.095 171.739L118.887 171.805L118.684 170.797L121.903 170.73C121.849 170.542 121.838 170.365 121.849 170.176Z" fill="#939393"/>
<path d="M124.415 169.001C124.993 169.367 125.442 170.054 125.656 170.797C125.602 170.753 125.538 170.697 125.474 170.664C124.554 170.088 123.677 170.564 123.506 171.739C123.442 172.171 123.485 172.648 123.613 173.091C122.801 172.448 122.277 171.163 122.437 170.076C122.619 168.913 123.496 168.436 124.415 169.001Z" fill="#CCCCCC"/>
<path d="M186.249 128.627C185.693 125.668 184.452 123.163 182.902 121.312C182.057 120.304 172.071 113.853 168.222 111.559C160.865 107.204 41.8068 32.2952 37.84 30.1008C37.4123 29.8681 8.84253 45.8273 8.39346 46.3926C6.91792 48.2545 7.44184 101.895 7.44184 101.895C7.44184 101.895 27.0301 114.651 32.8039 118.42C32.5687 115.05 33.9587 110.529 36.9739 108.6C39.6683 106.882 41.4005 107.337 44.2446 108.589C53.6111 112.701 52.1035 129.425 52.1035 129.425C55.1614 131.996 102.528 162.23 115.188 170.487C115.295 167.128 116.792 162.341 119.753 160.756C122.705 159.171 125.966 160.058 128.842 162.075C134.359 165.954 135.77 172.515 135.92 177.203C135.963 178.377 135.46 181.869 135.46 181.869C135.46 181.869 138.7 183.764 139.288 184.096C147.692 188.973 157.412 194.337 166.703 190.424C175.995 186.501 192.461 174.698 192.461 174.033C192.461 172.548 192.119 166.53 190.953 157.919C189.403 146.548 187.307 134.19 186.249 128.627Z" fill="white"/>
<path d="M127.623 156.012C130.724 157.586 149.007 170.043 150.547 171.672C151.552 172.736 154.974 174.022 156.834 174.044C166.639 174.166 190.804 157.708 190.793 155.846C190.782 154.106 188.772 134.534 187.713 128.66C187.211 125.878 184.891 123.617 183.511 121.312C182.977 120.414 182.496 119.539 181.672 118.863C180.774 118.12 179.224 117.367 178.016 116.613C169.355 111.26 57.8131 41.361 57.8131 41.361L24.9985 58.8939V91.6546C24.9985 91.6546 125.88 155.126 127.623 156.012Z" fill="#000002"/>
<path d="M191.605 163.205C191.605 163.205 192.097 164.679 188.932 167.018C185.939 169.223 173.653 176.383 166.393 180.195C163.592 181.658 161.699 181.392 160.63 181.37C157.54 181.314 152.525 174.964 150.836 174.244C150.836 174.244 140.111 164.967 130.734 159.359C123.496 155.037 23.7262 92.0093 23.7262 92.0093L23.6834 57.3091C23.6834 57.3091 11.8898 49.8061 5.36754 46.3815C4.93985 46.6364 4.66185 46.8137 4.587 46.8802C3.79577 47.7114 3.87062 51.1692 3.87062 51.1692C3.87062 51.1692 3.50708 86.8226 3.71023 98.0051C3.73162 99.2575 3.97754 102.228 4.587 102.737C6.34053 104.2 33.2316 120.481 33.2316 120.481C33.2957 119.628 33.1247 106.317 41.3256 108.29C48.3398 109.975 50.6707 118.42 51.3764 125.49C51.4405 126.155 50.6279 131.519 50.6279 131.519L115.177 170.498C115.487 166.685 117.209 161.72 120.812 160.423C123.036 159.625 126.158 160.612 127.986 162.064C132.606 165.732 133.653 171.517 133.696 177.291C133.707 178.466 133.258 181.37 133.258 181.37C133.258 181.37 144.816 188.396 146.388 189.316C151.595 192.353 155.936 193.029 159.08 193.084C161.079 193.118 164.009 192.774 166.938 191.211C172.359 188.319 184.805 180.982 189.424 177.701C193.038 175.13 192.717 174.044 192.717 174.044C192.717 174.044 192.226 162.972 191.605 163.205Z" fill="#D6D6D6"/>
<path d="M188.686 150.538L185.917 127.419L156.15 143.046V170.243C156.15 170.243 162.597 169.345 174.134 163.637C185.586 157.974 189.039 153.763 189.039 153.763L188.686 150.538Z" fill="#2D363F"/>
<path d="M183.886 119.085C182.966 117.079 181.747 116.38 181.747 116.38C181.747 116.38 40.9621 30.5553 39.957 29.9679C39.3796 29.6243 38.3959 28.8818 37.8934 29.9457C37.3588 31.0651 37.177 34.2347 37.177 34.2347L183.928 123.695L184.848 123.252C184.837 123.241 184.324 120.027 183.886 119.085Z" fill="#CE5567"/>
<path d="M149.008 133.703L180.582 117.045C180.582 117.045 181.694 117.489 182.175 118.209C182.763 119.085 183.886 123.75 183.886 123.75L151.595 140.552L149.008 133.703Z" fill="#CE5567"/>
<path d="M6.6506 45.8162C6.6506 45.8162 30.6227 59.7473 34.6002 62.0858C38.5777 64.4242 149.007 133.703 149.007 133.703L180.582 117.045C180.582 117.045 85.0143 56.8879 62.6674 43.8546C61.3523 43.0899 39.8073 28.6379 38.845 28.9704C37.4016 29.4359 6.6506 45.8162 6.6506 45.8162Z" fill="#CE5567"/>
<path d="M127.088 92.4194L111.895 102.072L57.3427 69.0347L74.2151 58.8939L127.088 92.4194Z" fill="#9B072A"/>
<path d="M58.3371 69.4226L111.895 102.072L127.088 92.4083C127.088 92.4083 127.815 89.826 124.95 88.0084C124.362 87.6316 81.7104 60.5231 80.1921 59.6587C78.1605 58.506 75.0705 59.437 75.0705 59.437L58.3371 69.4226Z" fill="#9B072A"/>
<path d="M110.098 96.8747L124.961 88.0084L80.2027 59.6697L64.8166 68.946L110.098 96.8747Z" fill="#CE5567"/>
<path d="M58.027 69.4226C58.027 69.4226 62.7316 68.4473 64.8166 68.946C66.9016 69.4448 107.992 95.179 109.617 96.3316C112.632 98.4706 111.895 102.072 111.895 102.072L58.027 69.4226Z" fill="#9B072A"/>
<path d="M156.824 174.044C156.824 174.044 157.743 176.848 160.641 177.225C162.907 177.513 185.457 164.945 187.724 163.327C189.991 161.709 189.349 157.497 189.349 157.497C189.349 157.497 184.281 162.163 173.92 167.261C159.828 174.199 156.824 174.044 156.824 174.044Z" fill="#CE5567"/>
<path d="M157.497 182.667C156.631 183.32 156.674 185.67 157.23 186.667C157.871 187.82 159.561 188.751 161.892 188.108C166.126 186.944 168.425 186.268 168.884 185.171C169.141 184.539 168.906 182.445 168.585 181.846C167.815 180.428 165.303 182.5 161.432 183.11C158.93 183.498 158.395 181.979 157.497 182.667Z" fill="#F7CA5C"/>
<path d="M188.098 168.27C187.361 168.758 187.478 172.282 188.28 172.681C189.595 173.346 192.739 170.475 192.739 170.475C192.739 170.475 192.728 169.035 192.696 166.098C192.675 163.77 191.894 163.848 191.894 163.848C191.894 163.848 191.99 165.455 191.082 166.064C190.419 166.508 189.349 167.428 188.098 168.27Z" fill="#F7CA5C"/>
<path d="M173.717 182.678V186.767L185.169 179.807V175.961L173.717 182.678Z" fill="#3F3F3F"/>
<path d="M4.58701 46.8802C4.96124 45.9381 6.80031 45.0737 8.09407 45.6611C11.1841 47.0686 145.682 130.045 150.462 133.06C150.515 133.093 151.606 133.747 152.461 136.485C152.761 137.427 153.21 139.776 153.21 139.776L151.595 140.552C151.595 140.552 148.409 134.656 148.398 134.645C108.067 109.276 5.35685 47.0575 4.58701 46.8802Z" fill="#CE5567"/>
<path d="M38.4494 29.1477L181.715 116.923C181.715 116.923 182.881 117.976 183.511 120.137C184.014 121.855 184.313 123.507 184.313 123.507L183.661 123.872C183.661 123.872 183.276 121.401 182.966 120.559C182.025 118.032 180.956 117.311 180.956 117.311C180.956 117.311 51.4298 37.5263 38.3104 29.8016C37.8827 29.5467 37.006 29.6021 37.006 29.6021C37.006 29.6021 37.7009 29.1366 38.4494 29.1477Z" fill="#CE5567"/>
<path d="M138.465 134.279L27.1263 66.4857V88.9948C27.1263 88.9948 114.033 142.281 132.274 152.887C135.065 154.505 138.476 156.644 138.476 156.644V134.279H138.465Z" fill="#2D363F"/>
<path d="M139 162.873L136.604 161.521V131.076L139 132.45V162.873Z" fill="#000002"/>
<path d="M53.0123 108.168L50.6172 106.76V77.6238L53.0123 78.9981V108.168Z" fill="#000002"/>
<path d="M78.9303 124.582L76.546 122.753V94.0929L78.9303 95.456V124.582Z" fill="#000002"/>
<path d="M93.4184 133.06L91.0233 131.73V103.026L93.4184 104.389V133.06Z" fill="#000002"/>
<path d="M116.268 147.722L113.873 146.37V115.926L116.268 117.3V147.722Z" fill="#000002"/>
<path d="M130.563 117.489L130.98 117.788L139.47 123.03L162.073 110.75L162.64 110.429L153.701 105.231L130.563 117.489Z" fill="#CE5567"/>
<path d="M130.98 117.788L139.47 123.03L162.073 110.75L153.701 105.752L130.98 117.788Z" fill="#000002"/>
<path d="M160.844 173.9C160.844 173.9 160.534 173.989 160.641 174.255C160.748 174.521 161.047 174.465 161.817 174.133C162.587 173.811 165.805 172.293 165.805 172.293C165.805 172.293 166.104 171.805 165.687 171.861C165.281 171.916 160.844 173.9 160.844 173.9Z" fill="#9B072A"/>
<path d="M161.261 174.233C161.004 173.944 161.272 173.933 161.881 173.324C162.597 172.614 163.592 171.861 164.565 170.974C165.078 170.509 165.153 170.642 164.928 170.708C164.469 170.841 163.057 171.406 163.057 171.462C163.057 171.528 162.341 171.384 163.079 170.952C163.602 170.642 166.222 169.478 167.815 168.935C168.478 168.713 171.515 167.949 171.6 168.026C171.782 168.192 169.686 168.791 167.976 169.456C166.81 169.91 165.826 170.52 165.826 170.52L162.865 173.257C162.865 173.246 161.582 174.598 161.261 174.233Z" fill="#3D3D3D"/>
<path d="M179.652 164.823C179.652 164.823 179.352 164.945 179.48 165.189C179.609 165.444 179.897 165.366 180.646 164.967C181.384 164.568 184.463 162.784 184.463 162.784C184.463 162.784 184.73 162.263 184.313 162.363C183.896 162.463 179.652 164.823 179.652 164.823Z" fill="#9B072A"/>
<path d="M180.079 165.122C179.801 164.856 180.058 164.823 180.625 164.158C181.277 163.394 182.207 162.551 183.105 161.576C183.576 161.066 183.672 161.188 183.437 161.277C182.988 161.454 181.63 162.141 181.63 162.185C181.64 162.263 180.913 162.174 181.608 161.676C182.1 161.321 184.613 159.936 186.152 159.249C186.783 158.971 189.756 157.941 189.841 158.007C190.034 158.162 188.002 158.938 186.356 159.747C185.233 160.301 184.303 161 184.303 161L181.576 163.992C181.598 164.003 180.432 165.455 180.079 165.122Z" fill="#3D3D3D"/>
<path d="M131.579 118.143L139.523 123.052L161.218 111.216L153.434 106.572L131.579 118.143Z" fill="#3F3F3F"/>
<path d="M6.9179 45.4948L150.184 133.271C150.184 133.271 151.349 134.323 151.98 136.485C152.482 138.202 152.803 139.987 152.803 139.987L152.14 140.308C152.14 140.308 151.734 137.759 151.424 136.917C150.483 134.39 149.414 133.669 149.414 133.669C149.414 133.669 19.8983 53.8734 6.78959 46.1487C6.3619 45.8938 5.48514 45.9492 5.48514 45.9492C5.48514 45.9492 6.16944 45.4837 6.9179 45.4948Z" fill="#CE5567"/>
<path d="M150.526 136.141C149.531 134.102 148.173 133.415 148.173 133.415C148.173 133.415 7.66636 47.5008 6.6506 46.9134C6.07321 46.5809 5.08952 45.8273 4.58699 46.8913C4.05237 48.0106 3.87061 50.6372 3.87061 50.6372L151.606 140.563C151.606 140.552 150.986 137.072 150.526 136.141Z" fill="#9B072A"/>
<path d="M192.621 171.451C192.621 171.451 193.135 173.024 191.231 174.942C190.13 176.05 170.103 188.219 162.918 190.846C156.834 193.073 152.322 190.125 149.489 188.219C146.42 186.169 137.941 180.749 134.83 178.909C135.193 174.897 134.797 165.056 126.468 160.357C119.08 156.19 115.06 162.795 113.883 166.862L52.6595 129.447C52.9161 126.82 52.5205 123.983 52.5098 123.872C51.8255 117.112 50.5103 111.781 43.8276 108.39C36.5462 104.699 33.1995 111.57 32.4297 117.112L3.66748 98.659C3.66748 98.659 3.4964 101.075 3.64609 101.995C3.68886 102.283 3.87063 102.793 3.87063 102.793C3.87063 102.793 32.2051 119.916 32.7932 120.237C33.2316 120.47 33.2316 120.47 33.2316 120.47C33.2316 120.47 33.9908 104.976 43.015 109.587C50.4782 113.41 51.3336 122.897 51.1625 127.186C51.0663 129.092 50.6172 131.497 50.6172 131.497L115.06 170.919C115.06 170.919 116.621 156.91 125.645 161.521C133.589 165.588 133.44 177.591 133.194 181.215C133.162 181.425 133.129 181.636 133.108 181.857C133.108 181.857 148.323 191.511 151.595 193.073C155.07 194.736 159.069 194.835 160.619 194.436C165.805 193.118 182.068 183.719 187.093 180.827C193.701 177.014 193.498 175.618 193.69 174.299C193.872 172.991 192.621 171.451 192.621 171.451Z" fill="#BCBCBC"/>
<path d="M97.1286 83.7969L104.207 79.5079L98.0802 75.5624L100.326 74.2768L90.7881 67.3833L78.0964 75.0194L88.917 81.0927L90.8843 79.8625L97.1286 83.7969Z" fill="#010000"/>
<path d="M90.8736 69.4226L91.7183 68.7687C91.4831 68.4473 67.8104 36.1299 53.8784 24.903C39.9891 13.7094 23.2664 2.54903 23.106 2.4382L22.55 3.36916C22.7211 3.47998 39.401 14.6182 53.2475 25.7896C67.0619 36.9168 90.6384 69.1012 90.8736 69.4226Z" fill="#3B474C"/>
<path d="M84.2337 73.1797L85.0784 72.5258C84.8325 72.2044 61.1705 39.898 47.2385 28.6601C33.3492 17.4665 16.6265 6.29503 16.4554 6.1842L15.8994 7.11516C16.0705 7.22599 32.7504 18.3642 46.5969 29.5356C60.4113 40.6628 83.9985 72.8583 84.2337 73.1797Z" fill="#3B474C"/>
<path d="M95.4927 76.0833L91.8894 70.0321L91.3013 70.0099L95.0436 76.305L95.4927 76.0833Z" fill="#3B474C"/>
<path d="M89.3874 79.6852L85.7841 73.634L85.196 73.6119L88.9383 79.9069L89.3874 79.6852Z" fill="#3B474C"/>
<path d="M100.326 74.2769L88.917 81.0928L87.7836 80.3946L99.2457 73.4567L100.326 74.2769Z" fill="#29363A"/>
<path d="M85.0249 71.6502L93.0762 78.5659L92.1781 80.0288L84.0413 73.2905C84.0413 73.2905 83.528 72.6255 83.9878 72.0492C84.4476 71.4729 85.0249 71.6502 85.0249 71.6502Z" fill="#505B61"/>
<path d="M91.3976 68.1924L99.4488 75.1081L98.5614 76.571L90.4139 69.8216C90.4139 69.8216 89.9006 69.1566 90.3604 68.5803C90.8309 68.0151 91.3976 68.1924 91.3976 68.1924Z" fill="#505B61"/>
<path d="M98.1978 75.7841C98.1978 76.2828 98.5507 76.704 98.9784 76.7261C99.406 76.7372 99.7589 76.3493 99.7589 75.8395C99.7589 75.3408 99.406 74.9196 98.9784 74.8975C98.5507 74.8864 98.1978 75.2854 98.1978 75.7841Z" fill="#3F3F3F"/>
<path d="M91.8894 79.3528C91.8894 79.8515 92.2422 80.2726 92.6699 80.2948C93.0976 80.3059 93.4505 79.918 93.4505 79.4082C93.4505 78.9095 93.0976 78.4883 92.6699 78.4661C92.2422 78.4551 91.8894 78.843 91.8894 79.3528Z" fill="#3F3F3F"/>
<path d="M104.207 79.5079L99.3205 75.4516C99.3205 75.4516 99.0104 75.0637 98.7004 75.4295C98.3903 75.7952 98.7004 76.1277 98.7004 76.1277L103.287 80.0621L104.207 79.5079Z" fill="#505B61"/>
<path d="M97.9519 83.2982L93.1404 79.1754C93.1404 79.1754 92.8303 78.7875 92.5202 79.1533C92.2102 79.519 92.5202 79.8515 92.5202 79.8515L97.1286 83.797L97.9519 83.2982Z" fill="#505B61"/>
<path d="M17.7706 7.41439C17.7706 8.34534 16.6158 7.38114 15.6428 7.34789C14.6698 7.31464 14.2421 8.21235 14.2421 7.28139C14.2421 6.35044 15.0334 5.63006 16.0064 5.66331C16.9793 5.70764 17.7706 6.48343 17.7706 7.41439Z" fill="#29363A"/>
<path d="M24.3142 3.55757C24.3142 4.48853 23.523 3.40241 22.55 3.36916C21.577 3.33592 20.7858 4.36661 20.7858 3.43566C20.7858 2.50471 21.577 1.78432 22.55 1.81757C23.523 1.83974 24.3142 2.62662 24.3142 3.55757Z" fill="#29363A"/>
<path d="M137.855 133.913V181.06L150.879 188.43V141.749L137.855 133.913Z" fill="#CE5567"/>
<path d="M149.478 147.534V186.412L144.773 183.742V144.952L149.478 147.534Z" fill="#CE5567"/>
<path d="M143.629 144.165V183.043L138.925 180.262V141.671L143.629 144.165Z" fill="#CE5567"/>
<path d="M78.1712 97.3955V144.531L91.0233 152.444L91.0661 105.419L78.1712 97.3955Z" fill="#CE5567"/>
<path d="M89.7937 111.637V150.515L85.0891 147.767V108.8L89.7937 111.637Z" fill="#CE5567"/>
<path d="M83.945 108.257V147.135L79.2297 144.276V105.419L83.945 108.257Z" fill="#CE5567"/>
<path d="M8.61798 54.8598V101.995L21.6412 110.074V62.9613L8.61798 54.8598Z" fill="#CE5567"/>
<path d="M20.2405 69.1012V107.98L15.5359 105.054V66.264L20.2405 69.1012Z" fill="#CE5567"/>
<path d="M14.3918 65.6766V104.555L9.67651 101.518V62.917L14.3918 65.6766Z" fill="#CE5567"/>
<path d="M8.61797 101.995L6.2229 103.026L19.0002 110.939L21.6412 110.074L8.61797 101.995Z" fill="#939393"/>
<path d="M78.1712 144.531L75.9365 145.417L88.3823 153.308L91.0233 152.444L78.1712 144.531Z" fill="#939393"/>
<path d="M137.855 180.372L135.471 181.392L148.248 189.316L150.879 188.452L137.855 180.372Z" fill="#939393"/>
<path d="M158.096 183.254C157.337 183.83 157.369 185.892 157.861 186.767C158.427 187.787 159.903 188.596 161.956 188.031C165.677 187 167.687 186.424 168.093 185.448C168.328 184.894 168.115 183.054 167.826 182.533C167.142 181.292 164.95 183.11 161.539 183.642C159.347 183.985 158.887 182.655 158.096 183.254Z" fill="#FFDC78"/>
<path d="M192.097 165.067C191.916 165.51 192.151 165.71 191.509 166.508C191.445 166.619 188.932 168.281 188.43 168.625C187.788 169.046 187.895 172.105 188.58 172.448C189.724 173.024 192.439 170.542 192.439 170.542C192.439 170.542 192.429 169.29 192.397 166.741C192.407 165.798 192.258 165.322 192.097 165.067Z" fill="#FFDC78"/>
<path d="M186.067 127.419L175.717 132.86L159.08 169.633C161.111 169.09 164.212 168.115 168.307 166.397L174.295 163.648L187.211 136.85L186.067 127.419Z" fill="#4B5B68"/>
<path d="M20.2405 69.1012V107.459L15.9529 104.566V66.5189L20.2405 69.1012Z" fill="#2D363F"/>
<path d="M14.3918 65.6766V104.067L10.1042 101.208V63.1719L14.3918 65.6766Z" fill="#2D363F"/>
<path d="M89.7937 111.559V149.917L85.5061 147.39V108.966L89.7937 111.559Z" fill="#2D363F"/>
<path d="M83.9023 108.135V146.526L79.6147 143.988V105.619L83.9023 108.135Z" fill="#2D363F"/>
<path d="M149.478 147.534L149.435 185.958L145.148 183.453V145.151L149.478 147.534Z" fill="#2D363F"/>
<path d="M143.586 144.176V182.578L139.299 180.007V141.871L143.586 144.176Z" fill="#2D363F"/>
<path d="M167.056 184.839C167.056 185.77 166.447 186.523 165.709 186.523C164.96 186.523 164.362 185.77 164.362 184.839C164.362 183.908 164.971 183.154 165.709 183.154C166.457 183.154 167.056 183.908 167.056 184.839Z" fill="#FFE299"/>
<path d="M162.907 185.171C162.907 185.858 162.458 186.424 161.902 186.424C161.346 186.424 160.897 185.858 160.897 185.171C160.897 184.484 161.346 183.919 161.902 183.919C162.458 183.919 162.907 184.473 162.907 185.171Z" fill="#FFE299"/>
<path d="M191.584 169.744C191.584 170.675 190.975 171.429 190.237 171.429C189.488 171.429 188.89 170.675 188.89 169.744C188.89 168.813 189.499 168.059 190.237 168.059C190.985 168.059 191.584 168.813 191.584 169.744Z" fill="#FFE299"/>
</g>
<defs>
<clipPath id="clip0_651_46911">
<rect width="196" height="200" fill="white"/>
</clipPath>
</defs>
</svg>
