<?xml version="1.0" encoding="utf-8"?>
<!-- Generator: Adobe Illustrator 25.4.0, SVG Export Plug-In . SVG Version: 6.00 Build 0)  -->
<svg version="1.1" id="레이어_1" xmlns="http://www.w3.org/2000/svg" xmlns:xlink="http://www.w3.org/1999/xlink" x="0px"
	 y="0px" viewBox="0 0 1400 2750" style="enable-background:new 0 0 1400 2750;" xml:space="preserve">
<style type="text/css">
	.st0{fill:#FFFFFF;}
	.st1{fill:#424242;}
	.st2{fill:#2B2B2B;}
	.st3{fill:#575757;}
	.st4{font-family:'SDGothicNeoc-fBd';}
	.st5{font-size:51.0747px;}
	.st6{fill:#F05E60;stroke:#F05E60;stroke-width:2;stroke-linecap:round;stroke-linejoin:round;stroke-miterlimit:10;}
	.st7{font-family:'SDBlueNight-bBd';}
	.st8{font-size:41.1158px;}
	.st9{fill:#4F4F4F;}
	.st10{fill:#474747;}
	.st11{fill:none;}
</style>
<rect x="0" y="0" class="st0" width="1400" height="2750"/>
<rect x="0.25" y="2725" class="st1" width="1400" height="25"/>
<g>
	<rect y="97.12" class="st1" width="179" height="92.34"/>
	<polygon class="st2" points="140.02,163.89 179,189.47 179,146.97 	"/>
	<rect x="1221" y="97.12" class="st1" width="179" height="92.34"/>
	<polygon class="st2" points="1259.98,163.96 1221,189.53 1221,147.03 	"/>
	<rect x="140.02" y="71.67" class="st3" width="1120" height="92.34"/>
</g>
<text transform="matrix(1 0 0 1 485.3359 137.2988)" class="st0 st4 st5">simple icon set</text>
<g>
	<text transform="matrix(1 0 0 1 601.4263 234.459)" class="st6 st7 st8">business</text>
</g>
<g>
	<path class="st9" d="M756.17,402.47h-109v-64.42c0-3.87,3.13-7,7-7h95c3.87,0,7,3.13,7,7V402.47z"/>
	<path class="st0" d="M750.5,396.71h-97.67v-56.03c0-2.14,1.74-3.88,3.88-3.88h89.91c2.14,0,3.88,1.74,3.88,3.88V396.71z"/>
	<path class="st9" d="M647.17,407.06h109l26.74,26.8c1.28,1.29-0.31,2.36-3.59,2.36H624.17c-3.28,0-4.88-1.07-3.6-2.36
		L647.17,407.06z"/>
	<path class="st0" d="M690.84,428.06h21.76l5.34,5.35c0.26,0.26-0.06,0.47-0.72,0.47h-30.97c-0.66,0-0.97-0.21-0.72-0.47
		L690.84,428.06z"/>
	<path class="st9" d="M776.18,444.51H628.02c-1.99,0-4.55-1.63-5.74-3.7l0,0h159.65l0,0C780.73,442.88,778.17,444.51,776.18,444.51z
		"/>
	<rect x="669.48" y="365.58" class="st9" width="9.62" height="25.1"/>
	<rect x="687.73" y="357.47" class="st9" width="9.62" height="33.21"/>
	<rect x="705.98" y="349.25" class="st9" width="9.62" height="41.43"/>
	<rect x="724.23" y="324.55" class="st9" width="9.62" height="66.12"/>
	<polygon class="st9" points="729.04,311.8 739.13,326.53 718.95,326.53 	"/>
</g>
<g>
	<path class="st9" d="M273.54,463.55h-92.56c-3.87,0-7-3.13-7-7V328.33c0-3.87,3.13-7,7-7h92.56c3.87,0,7,3.13,7,7v128.21
		C280.54,460.41,277.41,463.55,273.54,463.55z"/>
	<path class="st0" d="M271.89,442.16h-89.25c-0.77,0-1.4-0.63-1.4-1.4v-96.64c0-0.77,0.63-1.4,1.4-1.4h89.25
		c0.77,0,1.4,0.63,1.4,1.4v96.64C273.29,441.53,272.66,442.16,271.89,442.16z"/>
	<path class="st0" d="M232.73,452.93c0,3.02-2.45,5.46-5.46,5.46c-3.02,0-5.46-2.45-5.46-5.46c0-3.02,2.45-5.46,5.46-5.46
		C230.28,447.47,232.73,449.91,232.73,452.93z"/>
	<circle class="st9" cx="227.26" cy="394.35" r="30.58"/>
	<path class="st0" d="M218.5,409.79c-0.99,0-1.97-0.42-2.66-1.23l-8.99-10.51c-1.26-1.47-1.08-3.68,0.39-4.93
		c1.47-1.26,3.68-1.08,4.93,0.39l6.79,7.94l23.88-19.14c1.51-1.21,3.71-0.97,4.92,0.54c1.21,1.51,0.97,3.71-0.54,4.92l-26.53,21.26
		C220.04,409.54,219.27,409.79,218.5,409.79z"/>
	<g>
		<rect x="214.11" y="329.64" class="st0" width="36.01" height="6.25"/>
		<path class="st0" d="M205.97,332.76c0,1.73-1.4,3.12-3.12,3.12c-1.73,0-3.12-1.4-3.12-3.12c0-1.73,1.4-3.12,3.12-3.12
			C204.57,329.64,205.97,331.04,205.97,332.76z"/>
	</g>
</g>
<g>
	<path class="st9" d="M511.99,553.21h-17.23l0.84,2.95c0.55,1.92-0.89,3.82-2.88,3.82h-56.43c-1.99,0-3.43-1.91-2.89-3.82l0.84-2.95
		h-17.23c-3.87,0-7,3.13-7,7v127.38c0,3.87,3.13,7,7,7h94.98c3.87,0,7-3.13,7-7V560.21C518.99,556.35,515.86,553.21,511.99,553.21z"
		/>
	<g>
		<path class="st0" d="M509.41,566.67c0-0.74-0.58-1.34-1.31-1.34H420.9c-0.72,0-1.31,0.6-1.31,1.34v118.58
			c0,0.74,0.59,1.34,1.31,1.34h54.49l34.01-34.81V566.67z"/>
	</g>
	<path class="st9" d="M496.01,593.22h-63.02c-1.93,0-3.49-1.56-3.49-3.49l0,0c0-1.93,1.56-3.49,3.49-3.49h63.02
		c1.93,0,3.49,1.56,3.49,3.49l0,0C499.5,591.66,497.94,593.22,496.01,593.22z"/>
	<path class="st9" d="M496.01,613.72h-63.02c-1.93,0-3.49-1.56-3.49-3.49l0,0c0-1.93,1.56-3.49,3.49-3.49h63.02
		c1.93,0,3.49,1.56,3.49,3.49l0,0C499.5,612.16,497.94,613.72,496.01,613.72z"/>
	<path class="st9" d="M496.01,635.87h-63.02c-1.93,0-3.49-1.56-3.49-3.49l0,0c0-1.93,1.56-3.49,3.49-3.49h63.02
		c1.93,0,3.49,1.56,3.49,3.49l0,0C499.5,634.31,497.94,635.87,496.01,635.87z"/>
	<path class="st9" d="M465.01,658.01h-32.02c-1.93,0-3.49-1.56-3.49-3.49l0,0c0-1.93,1.56-3.49,3.49-3.49h32.02
		c1.93,0,3.49,1.56,3.49,3.49l0,0C468.5,656.45,466.94,658.01,465.01,658.01z"/>
	<path class="st9" d="M488.01,545.12l-1.4-5.09c-0.36-1.3-1.54-2.21-2.89-2.21h-38.44c-1.35,0-2.53,0.9-2.89,2.21l-1.4,5.09
		l-2.36,8.6c-0.23,0.84,0.4,1.67,1.27,1.67h49.2c0.87,0,1.51-0.83,1.27-1.67L488.01,545.12z"/>
	<g>
		<path class="st9" d="M474.61,651.56v30.73l30.62-31.96h-29.45C475.14,650.33,474.61,650.88,474.61,651.56z"/>
	</g>
</g>
<g>
	<g>
		<rect x="192.46" y="589.03" class="st10" width="71.61" height="100.11"/>
		<path class="st10" d="M293.63,689.14h-29.56v-61.09h32.56v58.09C296.63,687.79,295.29,689.14,293.63,689.14z"/>
		<path class="st10" d="M162.9,689.14h29.56v-61.09H159.9v58.09C159.9,687.79,161.24,689.14,162.9,689.14z"/>
		<path class="st10" d="M199.46,575.93h57.61c3.87,0,7,3.13,7,7v1.51h-71.61v-1.51C192.46,579.06,195.59,575.93,199.46,575.93z"/>
		<circle class="st10" cx="228.26" cy="557.05" r="8.75"/>
		<rect x="226.26" y="560.38" class="st10" width="4" height="18.01"/>
		<rect x="204.39" y="604.8" class="st0" width="14.9" height="14.9"/>
		<rect x="237.71" y="604.8" class="st0" width="14.9" height="14.9"/>
		<rect x="204.39" y="631.05" class="st0" width="14.9" height="14.9"/>
		<rect x="237.71" y="631.05" class="st0" width="14.9" height="14.9"/>
		<rect x="204.39" y="657.3" class="st0" width="14.9" height="14.9"/>
		<rect x="237.71" y="657.3" class="st0" width="14.9" height="14.9"/>
	</g>
	<rect x="167.22" y="639.08" class="st0" width="21.1" height="7.73"/>
	<rect x="167.22" y="654.73" class="st0" width="21.1" height="7.73"/>
	<rect x="167.22" y="670.37" class="st0" width="21.1" height="7.73"/>
	<rect x="268.22" y="639.08" class="st0" width="21.1" height="7.73"/>
	<rect x="268.22" y="654.73" class="st0" width="21.1" height="7.73"/>
	<rect x="268.22" y="670.37" class="st0" width="21.1" height="7.73"/>
</g>
<g>
	<path class="st9" d="M464.5,315.08c-23.34,0-42.26,18.92-42.26,42.26c0,25.89,26.65,52.07,37.62,61.76c2.65,2.34,6.62,2.34,9.28,0
		c10.98-9.69,37.62-35.87,37.62-61.76C506.76,334,487.84,315.08,464.5,315.08z"/>
	
		<ellipse transform="matrix(0.0706 -0.9975 0.9975 0.0706 77.8228 793.059)" class="st0" cx="464.5" cy="354.77" rx="28.45" ry="28.45"/>
	<path class="st9" d="M479.14,354.77c0,8.08-6.55,14.64-14.64,14.64c-8.08,0-14.64-6.55-14.64-14.64c0-8.08,6.55-14.64,14.64-14.64
		C472.58,340.13,479.14,346.68,479.14,354.77z"/>
	<g>
		<path class="st9" d="M402.05,444.11h124.89c2.71,0,4.44-2.91,3.12-5.29l-17.09-31c-0.75-1.36-2.19-2.21-3.75-2.21h-20.28
			c-7.66,8.94-15.31,16.03-19.96,20.08c-2.58,2.24-6.42,2.24-8.99,0c-4.65-4.06-12.31-11.14-19.96-20.08h-20.28
			c-1.56,0-2.99,0.85-3.75,2.21l-17.09,31C397.62,441.19,399.34,444.11,402.05,444.11z"/>
	</g>
</g>
<g>
	<path class="st9" d="M745.52,690.82h-87.56c-3.87,0-7-3.13-7-7v-70.1c0-3.87,3.13-7,7-7h87.56c3.87,0,7,3.13,7,7v70.1
		C752.52,687.68,749.38,690.82,745.52,690.82z"/>
	<path class="st9" d="M672.29,606.72h-7v-32.26c0-19.9,15.67-36.65,35.57-37.12c19.19-0.45,35.16,14.01,37.12,32.58
		c0.22,2.06-1.42,3.85-3.49,3.85l0,0c-1.78,0-3.29-1.33-3.47-3.1c-1.58-15.07-14.59-26.8-30.18-26.33
		c-16.02,0.47-28.56,14.04-28.56,30.06V606.72z"/>
	<path class="st0" d="M710.96,651.05c0-5.45-4.73-9.79-10.3-9.16c-4.12,0.47-7.49,3.76-8.05,7.87c-0.6,4.45,1.97,8.37,5.77,9.87
		v8.17c0,1.86,1.51,3.36,3.36,3.36l0,0c1.86,0,3.36-1.51,3.36-3.36v-8.17C708.53,658.29,710.96,654.96,710.96,651.05z"/>
	<rect x="650.96" y="619.75" class="st0" width="101.56" height="4.59"/>
</g>
<g>
	<path class="st9" d="M763.45,904.02H639.84c-3.87,0-7-3.13-7-7v-92.77h130.62c3.87,0,7,3.13,7,7v85.77
		C770.45,900.88,767.32,904.02,763.45,904.02z"/>
	<path class="st9" d="M671.02,787.5h-27.37c-1.67,0-3.19,0.96-3.91,2.46l-6.89,14.29h48.99l-6.89-14.29
		C674.21,788.46,672.69,787.5,671.02,787.5z"/>
	<circle class="st0" cx="701.65" cy="857.34" r="29.64"/>
	<rect x="684.89" y="852.64" class="st9" width="33.5" height="9.4"/>
	
		<rect x="684.89" y="852.64" transform="matrix(-1.836970e-16 1 -1 -1.836970e-16 1558.9854 155.6943)" class="st9" width="33.5" height="9.4"/>
</g>
<g>
	<path class="st9" d="M240.71,789.39c19.91,19.91,19.91,52.18,0,72.08c-19.91,19.91-52.18,19.91-72.08,0
		c-19.91-19.91-19.91-52.18,0-72.08C188.53,769.48,220.8,769.48,240.71,789.39z"/>
	<path class="st0" d="M234.62,795.48c16.54,16.54,16.54,43.36,0,59.9c-16.54,16.54-43.36,16.54-59.9,0
		c-16.54-16.54-16.54-43.36,0-59.9C191.26,778.94,218.08,778.94,234.62,795.48z"/>
	<path class="st9" d="M230.31,799.79c14.16,14.16,14.16,37.13,0,51.29c-14.16,14.16-37.13,14.16-51.29,0
		c-14.16-14.16-14.16-37.13,0-51.29C193.19,785.62,216.15,785.62,230.31,799.79z"/>
	
		<rect x="238.26" y="855.14" transform="matrix(0.7071 -0.7071 0.7071 0.7071 -539.7244 425.129)" class="st9" width="10.17" height="17.92"/>
	<path class="st9" d="M289.98,902.82l-7.93,7.93c-2.73,2.73-7.17,2.73-9.9,0l-26.44-26.44c-2.73-2.73-2.73-7.17,0-9.9l7.93-7.93
		c2.73-2.73,7.17-2.73,9.9,0l26.44,26.44C292.72,895.65,292.72,900.08,289.98,902.82z"/>
	
		<rect x="246.14" y="877.18" transform="matrix(0.7071 -0.7071 0.7071 0.7071 -546.1218 440.5638)" class="st0" width="25.21" height="4.66"/>
	<g>
		<g>
			<path class="st0" d="M201.16,829.71c0-4.09,1.89-5.92,5.62-8.84c2.4-1.94,3.73-3.37,3.73-6.38c0-3.73-2.15-5.06-5.82-5.06
				c-2.6,0-5.52,1.33-7.25,2.55l-1.89-4.9c2.4-1.48,6.13-2.81,9.96-2.81c6.23,0,11.8,2.81,11.8,9.7c0,4.95-2.2,7.46-6.08,10.32
				c-2.86,1.99-4.34,3.73-4.34,6.13v3.78h-5.72V829.71z M200.6,838.85h7v6.69h-7V838.85z"/>
		</g>
	</g>
</g>
<g>
	<path class="st9" d="M459.25,884.24c10.17,10.17,37.22,10.4,51.17,9.78l-13.57-13.57c-5.51,2.03-11.94,0.85-16.36-3.58
		c-6.07-6.07-6.07-15.9,0-21.97c6.07-6.07,15.9-6.07,21.97,0c4.42,4.43,5.61,10.85,3.58,16.36l13.57,13.57
		c0.62-13.95,0.39-41-9.78-51.17c-7.06-7.06-16.34-10.55-25.6-10.47l-35.44,35.44C448.71,867.9,452.19,877.18,459.25,884.24z"/>
	<path class="st9" d="M468.93,805.65l-2.41,2.41l-32.74,32.74l-2.41,2.41c-2.3,2.3-2.72,5.61-0.94,7.39l5.75,5.75
		c1.78,1.78,5.09,1.36,7.39-0.94l2.7-2.7l32.15-32.15l2.7-2.7c2.3-2.3,2.72-5.61,0.94-7.39l-5.75-5.75
		C474.54,802.93,471.23,803.35,468.93,805.65z"/>
	<g>
		<path class="st9" d="M398.16,813.22c2.19,5.44,5.58,10.69,10.17,15.27c5.77,5.77,12.59,9.68,19.52,11.63l37.99-37.99
			c-1.95-6.93-5.86-13.75-11.63-19.52c-4.59-4.59-9.83-7.99-15.27-10.17L398.16,813.22z"/>
	</g>
	<rect x="410.11" y="899.32" class="st1" width="111" height="9.39"/>
</g>
<g>
	<path class="st9" d="M1188.53,1835.92h-50.87c-17.84,0-32.3-14.46-32.3-32.3l0,0c0-17.84,14.46-32.3,32.3-32.3h50.87V1835.92z"/>
	<polygon class="st9" points="1240.78,1847.86 1194.02,1835.92 1194.02,1771.32 1240.78,1759.38 	"/>
	<path class="st9" d="M1148.01,1867.21L1148.01,1867.21c-3.21,0-5.8-2.6-5.8-5.8v-19.91h11.61v19.91
		C1153.81,1864.61,1151.21,1867.21,1148.01,1867.21z"/>
	<path class="st9" d="M1246.36,1785.11v37.01c10.22,0,18.51-8.29,18.51-18.5C1264.87,1793.4,1256.58,1785.11,1246.36,1785.11z"/>
</g>
<g>
	<g>
		<path class="st9" d="M764.78,1770.72H717.5v32.69c0,8.25-6.69,14.94-14.94,14.94s-14.94-6.69-14.94-14.94v-32.69h-47.29
			c-4.32,0-7.82,3.5-7.82,7.82v83.56c0,4.32,3.5,7.82,7.82,7.82h124.45c4.32,0,7.82-3.5,7.82-7.82v-83.56
			C772.6,1774.22,769.1,1770.72,764.78,1770.72z"/>
		<path class="st9" d="M709.68,1764.97h-14.24c-3.08,0-5.59,2.51-5.59,5.58v32.85c0,7,5.7,12.7,12.7,12.7c7,0,12.7-5.7,12.7-12.7
			v-32.85C715.26,1767.48,712.76,1764.97,709.68,1764.97z"/>
	</g>
	<g>
		<rect x="632.52" y="1847.75" class="st0" width="2.62" height="2.1"/>
		<path class="st0" d="M764.58,1849.85h-5.39v-2.1h5.39V1849.85z M753.8,1849.85h-5.39v-2.1h5.39V1849.85z M743.01,1849.85h-5.39
			v-2.1h5.39V1849.85z M732.22,1849.85h-5.39v-2.1h5.39V1849.85z M721.44,1849.85h-5.39v-2.1h5.39V1849.85z M710.65,1849.85h-5.39
			v-2.1h5.39V1849.85z M699.86,1849.85h-5.39v-2.1h5.39V1849.85z M689.08,1849.85h-5.39v-2.1h5.39V1849.85z M678.29,1849.85h-5.39
			v-2.1h5.39V1849.85z M667.5,1849.85h-5.39v-2.1h5.39V1849.85z M656.72,1849.85h-5.39v-2.1h5.39V1849.85z M645.93,1849.85h-5.39
			v-2.1h5.39V1849.85z"/>
		<rect x="769.98" y="1847.75" class="st0" width="2.62" height="2.1"/>
	</g>
	<g>
		<path class="st0" d="M702.53,1799.17c0.48-1.29,1.29-2.79,3.6-2.79c2.12,0,3.97,1.41,3.97,4.33c0,3.08-4.55,6.44-7.61,9.66
			c-3.06-3.01-7.48-6.19-7.48-10.02c0-2.2,1.6-3.97,3.89-3.97c2.25,0,3.1,1.46,3.58,2.68L702.53,1799.17z"/>
	</g>
</g>
<g>
	<polygon class="st0" points="157.46,2553.96 157.46,2553.96 171.06,2540.35 	"/>
	<polygon class="st9" points="184.66,2523.67 154.37,2553.96 184.66,2553.96 	"/>
	<path class="st9" d="M188.87,2522.55v35.61h-35.61v56.26c0,3.27,2.65,5.91,5.91,5.91h122.67c3.27,0,5.91-2.65,5.91-5.91v-85.96
		c0-3.27-2.65-5.91-5.91-5.91H188.87z"/>
	<g>
		<polygon class="st11" points="253.68,2605.57 251.28,2598.47 249.32,2598.17 244.3,2609.25 249.07,2609.01 252.04,2612.76 
			255.92,2604.2 		"/>
		<g>
			<polygon class="st0" points="253.68,2605.57 251.28,2598.47 249.32,2598.17 244.3,2609.25 249.07,2609.01 252.04,2612.76 
				255.92,2604.2 			"/>
			<path class="st9" d="M252.39,2615.62l-4.01-5.08l-6.46,0.32l6.51-14.35l3.98,0.61l2.09,6.19l4.8-2.92L252.39,2615.62z"/>
			<path class="st0" d="M252.04,2612.76l-2.97-3.75l-4.78,0.24l5.03-11.08l1.96,0.3l2.4,7.1l2.24-1.37L252.04,2612.76z"/>
		</g>
	</g>
	<g>
		<polygon class="st0" points="270.84,2598.17 268.88,2598.47 266.48,2605.57 264.24,2604.21 268.12,2612.76 271.09,2609.01 
			275.86,2609.25 		"/>
	</g>
	<polygon class="st0" points="276.15,2585.15 270.42,2582.01 270.57,2575.49 264.16,2576.77 260.08,2571.67 256,2576.77 
		249.59,2575.49 249.74,2582.01 244.01,2585.15 248.33,2590.06 245.95,2596.14 248.43,2596.52 252.41,2597.13 254.5,2603.31 
		259.3,2600.39 260.08,2599.92 260.86,2600.39 265.66,2603.31 267.75,2597.13 271.73,2596.52 274.21,2596.14 271.83,2590.06 	"/>
</g>
<g>
	<path class="st9" d="M1002.63,1628.3h-98.12v-132.51h98.12c4.06,0,7.35,3.29,7.35,7.35v117.81
		C1009.98,1625.01,1006.69,1628.3,1002.63,1628.3z"/>
	<path class="st9" d="M899.5,1628.3h-10.83c-4.06,0-7.35-3.29-7.35-7.35v-117.81c0-4.06,3.29-7.35,7.35-7.35h10.83V1628.3z"/>
	<rect x="924.6" y="1513.96" class="st0" width="65.29" height="27.98"/>
</g>
<g>
	<path class="st9" d="M1240.98,1628.3h-122.57c-4.06,0-7.35-3.29-7.35-7.35V1506.3c0-4.06,3.29-7.35,7.35-7.35h122.57
		c4.06,0,7.35,3.29,7.35,7.35v114.65C1248.33,1625.01,1245.04,1628.3,1240.98,1628.3z"/>
	<path class="st0" d="M1144.94,1517.61c0,5.49-4.45,9.93-9.93,9.93c-5.49,0-9.94-4.45-9.94-9.93s4.45-9.93,9.94-9.93
		C1140.5,1507.67,1144.94,1512.12,1144.94,1517.61z"/>
	
		<ellipse transform="matrix(0.9239 -0.3827 0.3827 0.9239 -492.0324 561.5945)" class="st0" cx="1165.65" cy="1517.61" rx="9.93" ry="9.93"/>
	
		<ellipse transform="matrix(0.2298 -0.9732 0.9732 0.2298 -555.5692 2333.2217)" class="st0" cx="1196.29" cy="1517.61" rx="9.93" ry="9.93"/>
	<path class="st0" d="M1236.87,1517.61c0,5.49-4.45,9.93-9.94,9.93c-5.49,0-9.93-4.45-9.93-9.93s4.45-9.93,9.93-9.93
		C1232.42,1507.67,1236.87,1512.12,1236.87,1517.61z"/>
	<rect x="1131.34" y="1498.95" class="st0" width="7.34" height="15.37"/>
	<rect x="1161.98" y="1498.95" class="st0" width="7.34" height="15.37"/>
	<rect x="1192.62" y="1498.95" class="st0" width="7.34" height="15.37"/>
	<rect x="1223.26" y="1498.95" class="st0" width="7.34" height="15.37"/>
	<path class="st0" d="M1226.93,1557.16h-94.47c-0.87,0-1.58-0.71-1.58-1.58c0-0.87,0.71-1.58,1.58-1.58h94.47
		c0.87,0,1.58,0.71,1.58,1.58C1228.51,1556.45,1227.8,1557.16,1226.93,1557.16z"/>
	<path class="st0" d="M1226.93,1580.99h-94.47c-0.87,0-1.58-0.71-1.58-1.58c0-0.87,0.71-1.58,1.58-1.58h94.47
		c0.87,0,1.58,0.71,1.58,1.58C1228.51,1580.28,1227.8,1580.99,1226.93,1580.99z"/>
	<path class="st0" d="M1226.93,1604.82h-94.47c-0.87,0-1.58-0.71-1.58-1.58s0.71-1.58,1.58-1.58h94.47c0.87,0,1.58,0.71,1.58,1.58
		S1227.8,1604.82,1226.93,1604.82z"/>
</g>
<g>
	<circle class="st9" cx="1175.11" cy="2546.35" r="55.16"/>
	<path class="st9" d="M1175.02,2612.59c-10.83,0-21.56-2.69-31.36-7.98c-15.56-8.4-26.92-22.36-31.99-39.3
		c-10.45-34.98,9.5-71.94,44.47-82.39c1.59-0.48,3.26,0.43,3.73,2.01c0.47,1.59-0.43,3.26-2.01,3.73
		c-31.81,9.51-49.95,43.12-40.44,74.93c9.51,31.81,43.12,49.95,74.93,40.44c10.01-2.99,19.08-8.54,26.25-16.04
		c1.15-1.2,3.04-1.24,4.24-0.1c1.2,1.14,1.24,3.04,0.1,4.24c-7.89,8.25-17.87,14.35-28.87,17.64
		C1187.79,2611.66,1181.38,2612.59,1175.02,2612.59z"/>
	<rect x="1172.11" y="2609.58" class="st9" width="6" height="18.55"/>
	<path class="st9" d="M1204.46,2634.63h-58.71v-6.02c0-3.87,3.13-7,7-7h44.71c3.87,0,7,3.13,7,7V2634.63z"/>
	<g>
		<path class="st0" d="M1168.43,2551.6c0-4.33,2.14-6.53,6.29-9.92c2.61-2.2,4.04-3.44,4.04-6.59c0-3.62-2.08-4.93-5.94-4.93
			c-2.73,0-6.29,1.54-8.19,2.91l-2.43-6.71c2.79-1.72,7.3-3.15,11.76-3.15c7.42,0,14.07,3.21,14.07,11.16
			c0,5.88-2.43,8.43-6.77,11.58c-3.44,2.38-4.99,4.51-4.99,6.71v4.63h-7.84V2551.6z M1167.65,2563.06h9.56v9.08h-9.56V2563.06z"/>
	</g>
</g>
<g>
	<path class="st9" d="M990.88,1816.74h-86.76c-4.06,0-7.35-3.29-7.35-7.35v-9.17c0-4.06,3.29-7.35,7.35-7.35h86.76
		c4.06,0,7.35,3.29,7.35,7.35v9.17C998.23,1813.45,994.94,1816.74,990.88,1816.74z"/>
	<path class="st9" d="M947.5,1781.13c0,0-22.15,10.78-38.3,2.43c-16.15-8.34-27.13-30.34-27.13-30.34s29.12-13.09,45.26-4.74
		S947.5,1781.13,947.5,1781.13z"/>
	<path class="st9" d="M947.5,1781.13c0,0,22.15,10.78,38.3,2.43c16.15-8.34,27.13-30.34,27.13-30.34s-29.12-13.09-45.26-4.74
		C951.52,1756.82,947.5,1781.13,947.5,1781.13z"/>
	<rect x="944.35" y="1781.13" class="st9" width="6.3" height="11.74"/>
	<path class="st9" d="M904.08,1821.56l8.92,49.88c0.65,3.66,3.84,6.33,7.56,6.33h35.12c0-3.99,3.23-7.22,7.22-7.22
		c3.99,0,7.22,3.23,7.22,7.22h4.33c3.72,0,6.9-2.67,7.56-6.33l8.92-49.88H904.08z"/>
</g>
<g>
	<polygon class="st10" points="245.38,1551.5 198.81,1551.5 152.24,1542.38 152.24,1623.43 198.81,1632.56 245.38,1632.56 
		291.95,1623.43 291.95,1542.38 	"/>
	<g>
		<path class="st10" d="M222.1,1488.3c-18.37,0-33.27,14.89-33.27,33.27c0,3.62,0.69,7.6,1.72,10.47c0.73,2.02,2.2,4.38,4.59,8.97
			c1.74,3.34,3.58,6.79,4.74,8.75l17.65,30.57c2.51,4.35,6.62,4.35,9.12,0l17.65-30.57c0.67-1.35,2.39-4.62,4.17-7.99
			c2.52-4.77,4.27-7.52,5.17-9.74c1.17-2.89,1.71-6.85,1.71-10.47C255.36,1503.2,240.47,1488.3,222.1,1488.3z"/>
		<path class="st0" d="M222.1,1586.09c-2.62,0-5.07-1.64-6.73-4.51l-17.65-30.57c-1.01-1.71-2.63-4.7-4.8-8.85
			c-0.81-1.57-1.52-2.87-2.13-3.99c-1.19-2.2-2.06-3.79-2.6-5.3c-1.17-3.25-1.86-7.48-1.86-11.31c0-19.72,16.04-35.77,35.77-35.77
			c19.72,0,35.76,16.04,35.76,35.77c0,4.26-0.69,8.42-1.9,11.4c-0.61,1.5-1.49,3.08-2.71,5.27c-0.74,1.32-1.59,2.86-2.57,4.71
			c-2.14,4.05-3.58,6.8-4.15,7.94l-0.07,0.13l-17.65,30.57C227.17,1584.45,224.72,1586.09,222.1,1586.09z M222.1,1490.8
			c-16.96,0-30.77,13.8-30.77,30.77c0,3.24,0.6,6.93,1.57,9.62c0.41,1.15,1.16,2.52,2.29,4.6c0.62,1.14,1.34,2.47,2.17,4.06
			c2.09,4.02,3.71,7,4.68,8.63l17.66,30.6c0.73,1.26,1.62,2.01,2.4,2.01c0.77,0,1.67-0.75,2.4-2.01l17.61-30.5
			c0.77-1.53,2.68-5.17,4.16-7.97c1-1.88,1.87-3.46,2.62-4.8c1.13-2.03,1.95-3.49,2.44-4.7c0.96-2.38,1.53-5.94,1.53-9.53
			C252.86,1504.6,239.06,1490.8,222.1,1490.8z"/>
	</g>
	
		<ellipse transform="matrix(0.9999 -0.0135 0.0135 0.9999 -20.5147 3.1367)" class="st0" cx="222.1" cy="1521.22" rx="23.15" ry="23.15"/>
</g>
<g>
	<rect x="414.84" y="1523.26" class="st10" width="91.12" height="26.88"/>
	<g>
		<path class="st0" d="M498.23,1537.38c0,3.85-3.15,7-7,7h-61.66c-3.85,0-7-3.15-7-7v-33.99c0-3.85,3.15-7,7-7h61.66
			c3.85,0,7,3.15,7,7V1537.38z"/>
		<g>
			<path class="st10" d="M491.23,1546.88h-61.66c-5.24,0-9.5-4.26-9.5-9.5v-33.99c0-5.24,4.26-9.5,9.5-9.5h61.66
				c5.24,0,9.5,4.26,9.5,9.5v33.99C500.73,1542.62,496.47,1546.88,491.23,1546.88z M429.58,1498.89c-2.48,0-4.5,2.02-4.5,4.5v33.99
				c0,2.48,2.02,4.5,4.5,4.5h61.66c2.48,0,4.5-2.02,4.5-4.5v-33.99c0-2.48-2.02-4.5-4.5-4.5H429.58z"/>
		</g>
	</g>
	<path class="st10" d="M530.36,1539.14H390.45c-3.85,0-7,3.15-7,7v57.58c0,3.85,3.15,7,7,7h31.47l1.06-5.11
		c0.78-3.77,4.57-6.85,8.42-6.85h58c3.85,0,7.64,3.08,8.43,6.85l1.06,5.11h31.47c3.85,0,7-3.15,7-7v-57.58
		C537.36,1542.29,534.21,1539.14,530.36,1539.14z"/>
	<path class="st10" d="M497,1633.35l-3.83-18.4l-0.9-4.35c-0.67-3.21-3.9-5.84-7.18-5.84h-49.39c-3.28,0-6.51,2.63-7.17,5.84
		l-0.91,4.35l-3.83,18.4c-0.67,3.21,1.47,5.84,4.75,5.84h63.71C495.54,1639.18,497.67,1636.56,497,1633.35z"/>
	<g>
		<path class="st10" d="M480.73,1513.96h-40.64c-1.38,0-2.5-1.12-2.5-2.5s1.12-2.5,2.5-2.5h40.64c1.38,0,2.5,1.12,2.5,2.5
			S482.11,1513.96,480.73,1513.96z"/>
	</g>
	<g>
		<path class="st10" d="M480.73,1529.53h-40.64c-1.38,0-2.5-1.12-2.5-2.5s1.12-2.5,2.5-2.5h40.64c1.38,0,2.5,1.12,2.5,2.5
			S482.11,1529.53,480.73,1529.53z"/>
	</g>
	<path class="st0" d="M522.68,1558.96c0,2.72-2.2,4.92-4.92,4.92c-2.72,0-4.92-2.2-4.92-4.92c0-2.72,2.2-4.92,4.92-4.92
		C520.48,1554.04,522.68,1556.25,522.68,1558.96z"/>
	<path class="st0" d="M506.31,1558.96c0,2.72-2.21,4.92-4.92,4.92c-2.72,0-4.92-2.2-4.92-4.92c0-2.72,2.2-4.92,4.92-4.92
		C504.1,1554.04,506.31,1556.25,506.31,1558.96z"/>
	<path class="st0" d="M475.41,1638.18c0,0.55-0.45,1-1,1H446.4c-0.55,0-1-0.45-1-1v-5.7c0-0.55,0.45-1,1-1h28.01c0.55,0,1,0.45,1,1
		V1638.18z"/>
</g>
<g>
	<g>
		<path class="st10" d="M776.67,1632.96H644.14c-2.49,0-4.5-2.01-4.5-4.5v-118.89c0-2.48,2.01-4.5,4.5-4.5c2.49,0,4.5,2.02,4.5,4.5
			v114.39h128.03c2.49,0,4.5,2.02,4.5,4.5C781.17,1630.94,779.15,1632.96,776.67,1632.96z"/>
	</g>
	<path class="st10" d="M686.98,1616.48c0,2.75-2.25,5-5,5h-12.81c-2.75,0-5-2.25-5-5v-26.43c0-2.75,2.25-5,5-5h12.81
		c2.75,0,5,2.25,5,5V1616.48z"/>
	<path class="st10" d="M721.9,1616.48c0,2.75-2.25,5-5,5H704.1c-2.75,0-5-2.25-5-5v-50.96c0-2.75,2.25-5,5-5h12.81
		c2.75,0,5,2.25,5,5V1616.48z"/>
	<path class="st10" d="M756.82,1616.48c0,2.75-2.25,5-5,5h-12.8c-2.75,0-5-2.25-5-5v-84.17c0-2.75,2.25-5,5-5h12.8
		c2.75,0,5,2.25,5,5V1616.48z"/>
	<path class="st10" d="M661.04,1563.49c0,0,44.57-25.77,59.03-59.88l-8.25-3.7l20.85-11.51l4.31,22.86l-8.35-3.8
		C728.63,1507.46,703.09,1548.31,661.04,1563.49z"/>
</g>
<g>
	<path class="st10" d="M228.65,2154.54c0,2.75-2.25,5-5,5h-2.28c-2.75,0-5-2.25-5-5v-41.74c0-2.75,2.25-5,5-5h2.28
		c2.75,0,5,2.25,5,5V2154.54z"/>
	<path class="st10" d="M187.74,2152.97c-1.44,2.34-4.58,3.15-6.97,1.79l-1.7-0.96c-2.39-1.35-3.17-4.38-1.73-6.72l22.22-36.09
		c1.44-2.34,4.58-3.15,6.97-1.79l1.7,0.96c2.39,1.36,3.17,4.38,1.73,6.72L187.74,2152.97z"/>
	<path class="st10" d="M257.89,2152.97c1.44,2.34,4.58,3.15,6.97,1.79l1.7-0.96c2.39-1.35,3.17-4.38,1.73-6.72l-22.22-36.09
		c-1.44-2.34-4.58-3.15-6.97-1.79l-1.7,0.96c-2.39,1.36-3.17,4.38-1.73,6.72L257.89,2152.97z"/>
	<path class="st10" d="M227.71,2009.99c0,3.85-2.37,7-5.27,7s-5.27-3.15-5.27-7v-3.82c0-3.85,2.37-7,5.27-7s5.27,3.15,5.27,7
		V2009.99z"/>
	<rect x="163.5" y="2026.84" class="st10" width="117.86" height="71.38"/>
	<g>
		<path class="st0" d="M187.08,2083.02h-7.66c-1.38,0-2.5-1.12-2.5-2.5s1.12-2.5,2.5-2.5h6.11l10.49-20.99
			c0.42-0.83,1.26-1.36,2.18-1.38c0.93-0.06,1.79,0.48,2.24,1.29l6.62,11.96l5.94-8.43c0.49-0.69,1.27-1.09,2.15-1.06
			c0.85,0.03,1.62,0.5,2.05,1.23l8.66,14.69l6.18-8.41c0.44-0.6,1.13-0.98,1.88-1.02c0.75-0.03,1.48,0.26,1.98,0.81l4.46,4.91h8.62
			l14.23-27.81c0.63-1.23,2.13-1.71,3.36-1.09c1.23,0.63,1.72,2.13,1.09,3.36l-14.92,29.17c-0.43,0.84-1.29,1.36-2.23,1.36h-11.26
			c-0.7,0-1.38-0.3-1.85-0.82l-3.15-3.47l-6.61,9c-0.5,0.68-1.3,1.06-2.14,1.02c-0.84-0.04-1.6-0.5-2.03-1.23l-8.61-14.61
			l-6.01,8.53c-0.5,0.7-1.32,1.11-2.18,1.06c-0.86-0.05-1.64-0.53-2.05-1.29l-6.25-11.3l-9.06,18.12
			C188.89,2082.49,188.03,2083.02,187.08,2083.02z"/>
	</g>
	<path class="st10" d="M287.22,2019.12c0,1.65-1.35,3-3,3H160.64c-1.65,0-3-1.35-3-3v-4.25c0-1.65,1.35-3,3-3h123.58
		c1.65,0,3,1.35,3,3V2019.12z"/>
	<path class="st10" d="M287.22,2110.55c0,1.65-1.35,3-3,3H160.64c-1.65,0-3-1.35-3-3v-4.25c0-1.65,1.35-3,3-3h123.58
		c1.65,0,3,1.35,3,3V2110.55z"/>
</g>
<g>
	<g>
		<path class="st10" d="M527.03,1797.22c0,2.32-1.34,4.21-3,4.21h-4.4c-1.65,0-2.99-1.88-2.99-4.21v-20.99
			c0-2.33,1.34-4.21,2.99-4.21h4.4c1.65,0,3,1.88,3,4.21V1797.22z"/>
		<path class="st10" d="M526.03,1865.13c0,1.93-1.74,3.5-3.89,3.5h-0.61c-2.15,0-3.89-1.57-3.89-3.5v-65.44
			c0-1.93,1.74-3.5,3.89-3.5h0.61c2.15,0,3.89,1.57,3.89,3.5V1865.13z"/>
		<g>
			<path class="st10" d="M530.02,1798.42c-0.55,0-1-0.45-1-1v-18.35l-3.61-2.85c-0.43-0.34-0.51-0.97-0.17-1.41
				c0.34-0.43,0.97-0.51,1.41-0.17l3.99,3.15c0.24,0.19,0.38,0.48,0.38,0.79v18.83C531.02,1797.97,530.58,1798.42,530.02,1798.42z"
				/>
		</g>
	</g>
	<g>
		<path class="st0" d="M531.17,1829.18c0,1.88-1.52,3.41-3.41,3.41h-16.72c-1.88,0-3.41-1.53-3.41-3.41v-16.68
			c0-1.88,1.53-3.41,3.41-3.41h16.72c1.88,0,3.41,1.53,3.41,3.41V1829.18z"/>
		<path class="st10" d="M527.76,1835.08h-16.72c-3.26,0-5.91-2.65-5.91-5.91v-16.68c0-3.26,2.65-5.91,5.91-5.91h16.72
			c3.26,0,5.91,2.65,5.91,5.91v16.68C533.67,1832.43,531.02,1835.08,527.76,1835.08z M511.04,1811.58c-0.5,0-0.91,0.41-0.91,0.91
			v16.68c0,0.5,0.41,0.91,0.91,0.91h16.72c0.5,0,0.91-0.41,0.91-0.91v-16.68c0-0.5-0.41-0.91-0.91-0.91H511.04z"/>
	</g>
	<path class="st10" d="M513.67,1878.92c0,3.85-3.15,7-7,7h-93.31c-3.85,0-7-3.15-7-7v-113.77c0-3.85,3.15-7,7-7h93.31
		c3.85,0,7,3.15,7,7V1878.92z"/>
	<path class="st0" d="M491.78,1794.52c0,2.75-2.25,5-5,5h-53.53c-2.75,0-5-2.25-5-5v-9.74c0-2.75,2.25-5,5-5h53.53
		c2.75,0,5,2.25,5,5V1794.52z"/>
</g>
<g>
	<path class="st10" d="M756.47,2138c0,3.85-3.15,7-7,7h-96.51c-3.85,0-7-3.15-7-7v-117.84c0-3.85,3.15-7,7-7h96.51
		c3.85,0,7,3.15,7,7V2138z"/>
	<path class="st0" d="M742.94,2124.18c0,3.85-3.15,7-7,7H666.5c-3.85,0-7-3.15-7-7v-93.81c0-3.85,3.15-7,7-7h69.44
		c3.85,0,7,3.15,7,7V2124.18z"/>
	<path class="st10" d="M756.47,2024.39c0,3.85-3.15,7-7,7h-96.51c-3.85,0-7-3.15-7-7v-4.71c0-3.85,3.15-7,7-7h96.51
		c3.85,0,7,3.15,7,7V2024.39z"/>
	<g>
		<g>
			<g>
				<path class="st0" d="M670.02,2024.11c-3.45,0-6.25-2.8-6.25-6.24v-16.76c0-3.45,2.79-6.24,6.25-6.24c3.45,0,6.24,2.79,6.24,6.24
					v16.76C676.26,2021.32,673.47,2024.11,670.02,2024.11z"/>
				<path class="st10" d="M670.02,2026.61c-4.82,0-8.75-3.92-8.75-8.74v-16.76c0-4.82,3.92-8.74,8.75-8.74
					c4.82,0,8.74,3.92,8.74,8.74v16.76C678.76,2022.69,674.84,2026.61,670.02,2026.61z M670.02,1997.37c-2.07,0-3.75,1.68-3.75,3.74
					v16.76c0,2.06,1.68,3.74,3.75,3.74c2.06,0,3.74-1.68,3.74-3.74v-16.76C673.76,1999.05,672.08,1997.37,670.02,1997.37z"/>
			</g>
		</g>
		<g>
			<g>
				<path class="st0" d="M701.5,2024.11c-3.45,0-6.24-2.8-6.24-6.24v-16.76c0-3.45,2.79-6.24,6.24-6.24s6.24,2.79,6.24,6.24v16.76
					C707.75,2021.32,704.95,2024.11,701.5,2024.11z"/>
				<path class="st10" d="M701.5,2026.61c-4.82,0-8.74-3.92-8.74-8.74v-16.76c0-4.82,3.92-8.74,8.74-8.74
					c4.82,0,8.74,3.92,8.74,8.74v16.76C710.25,2022.69,706.33,2026.61,701.5,2026.61z M701.5,1997.37c-2.06,0-3.74,1.68-3.74,3.74
					v16.76c0,2.06,1.68,3.74,3.74,3.74c2.06,0,3.74-1.68,3.74-3.74v-16.76C705.25,1999.05,703.57,1997.37,701.5,1997.37z"/>
			</g>
		</g>
		<g>
			<g>
				<path class="st0" d="M732.42,2024.11c-3.45,0-6.24-2.8-6.24-6.24v-16.76c0-3.45,2.79-6.24,6.24-6.24c3.45,0,6.24,2.79,6.24,6.24
					v16.76C738.66,2021.32,735.87,2024.11,732.42,2024.11z"/>
				<path class="st10" d="M732.42,2026.61c-4.82,0-8.74-3.92-8.74-8.74v-16.76c0-4.82,3.92-8.74,8.74-8.74s8.74,3.92,8.74,8.74
					v16.76C741.16,2022.69,737.24,2026.61,732.42,2026.61z M732.42,1997.37c-2.06,0-3.74,1.68-3.74,3.74v16.76
					c0,2.06,1.68,3.74,3.74,3.74s3.74-1.68,3.74-3.74v-16.76C736.16,1999.05,734.49,1997.37,732.42,1997.37z"/>
			</g>
		</g>
	</g>
	<path class="st10" d="M732.42,2056.95c0,3.85-3.15,7-7,7h-48.4c-3.85,0-7-3.15-7-7v-3.25c0-3.85,3.15-7,7-7h48.4c3.85,0,7,3.15,7,7
		V2056.95z"/>
	<g>
		<path class="st10" d="M699.38,2084.48h-28.39c-1.38,0-2.5-1.12-2.5-2.5s1.12-2.5,2.5-2.5h28.39c1.38,0,2.5,1.12,2.5,2.5
			S700.76,2084.48,699.38,2084.48z"/>
	</g>
	<g>
		<path class="st10" d="M699.38,2100.92h-28.39c-1.38,0-2.5-1.12-2.5-2.5s1.12-2.5,2.5-2.5h28.39c1.38,0,2.5,1.12,2.5,2.5
			S700.76,2100.92,699.38,2100.92z"/>
	</g>
	<g>
		<path class="st10" d="M699.38,2117.36h-28.39c-1.38,0-2.5-1.12-2.5-2.5s1.12-2.5,2.5-2.5h28.39c1.38,0,2.5,1.12,2.5,2.5
			S700.76,2117.36,699.38,2117.36z"/>
	</g>
	<g>
		<polygon class="st0" points="730.05,2116.9 721.18,2112.29 712.31,2116.9 712.31,2088.76 730.05,2088.76 		"/>
		<path class="st10" d="M709.81,2121.01v-34.76h22.74v34.75l-11.37-5.9L709.81,2121.01z M721.18,2109.47l6.37,3.31v-21.53h-12.74
			v21.53L721.18,2109.47z"/>
	</g>
	
		<ellipse transform="matrix(0.2309 -0.973 0.973 0.2309 -1475.8285 2306.7905)" class="st10" cx="721.18" cy="2086.89" rx="11.28" ry="11.28"/>
</g>
<g>
	<path class="st10" d="M516.77,2049.11c0-31.13-25.24-56.37-56.37-56.37c-31.13,0-56.37,25.23-56.37,56.37
		c0,21.53,16.94,40.24,34.69,49.73v8.91h43.37v-8.91C499.83,2089.34,516.77,2070.64,516.77,2049.11z"/>
	<g>
		<path class="st0" d="M460.4,2115.23c-1.38,0-2.5-1.12-2.5-2.5v-33.21c0-1.38,1.12-2.5,2.5-2.5c1.38,0,2.5,1.12,2.5,2.5v33.21
			C462.9,2114.11,461.78,2115.23,460.4,2115.23z"/>
	</g>
	<path class="st10" d="M432.3,2137.28v1.25c0,3.85,3.15,7,7,7h7.85c1.05,6.28,6.91,11.09,14.01,11.09c7.1,0,12.96-4.81,14.02-11.09
		h6.33c3.85,0,7-3.15,7-7v-1.25H432.3z"/>
	<path class="st10" d="M481.51,2110.86H439.3c-3.85,0-7,3.15-7,7v1.58h56.21v-1.58C488.51,2114.01,485.36,2110.86,481.51,2110.86z"
		/>
	<rect x="432.3" y="2123.27" class="st10" width="56.21" height="10.02"/>
	<g>
		<path class="st0" d="M460.4,2082.02c-0.4,0-0.8-0.1-1.16-0.29l-18.48-9.72c-0.82-0.43-1.34-1.28-1.34-2.21v-11.86
			c0-1.38,1.12-2.5,2.5-2.5c1.38,0,2.5,1.12,2.5,2.5v10.35l15.94,8.38l14.57-8.32v-10.4c0-1.38,1.12-2.5,2.5-2.5
			c1.38,0,2.5,1.12,2.5,2.5v11.86c0,0.9-0.48,1.73-1.26,2.17l-17.02,9.72C461.26,2081.91,460.83,2082.02,460.4,2082.02z"/>
	</g>
</g>
<g>
	<path class="st10" d="M289.59,1861.23c0,4.05-3.32,7.37-7.37,7.37H163.53c-4.05,0-7.37-3.32-7.37-7.37v-82.4
		c0-4.05,3.32-7.37,7.37-7.37h118.68c4.06,0,7.37,3.32,7.37,7.37V1861.23z"/>
	<g>
		<path class="st10" d="M286.12,1772.6c-1.14-0.72-2.47-1.14-3.91-1.14H163.53c-1.43,0-2.77,0.42-3.91,1.14l63.25,57.07
			L286.12,1772.6z"/>
		<path class="st10" d="M156.45,1776.82c-0.18,0.64-0.29,1.31-0.29,2.01v82.4c0,1.16,0.28,2.25,0.76,3.22l50.01-42.07
			L156.45,1776.82z"/>
		<path class="st10" d="M288.83,1864.45c0.48-0.98,0.76-2.07,0.76-3.22v-82.4c0-0.7-0.1-1.37-0.29-2.01l-50.48,45.56L288.83,1864.45
			z"/>
		<path class="st10" d="M224.64,1835.18c-0.5,0.45-1.13,0.68-1.76,0.68c-0.63,0-1.26-0.23-1.76-0.68l-10.23-9.23l-50.08,42.13
			c0.85,0.34,1.77,0.53,2.73,0.53h118.68c0.97,0,1.89-0.19,2.73-0.53l-50.08-42.13L224.64,1835.18z"/>
		<path class="st0" d="M289.3,1776.82c-0.5-1.77-1.65-3.27-3.18-4.23l-63.25,57.07l-63.25-57.07c-1.52,0.96-2.67,2.46-3.18,4.23
			l50.48,45.55l-50.01,42.07c0.39,0.8,0.92,1.52,1.57,2.12c0.67,0.63,1.45,1.14,2.32,1.49l50.08-42.13l10.23,9.23
			c0.5,0.45,1.13,0.68,1.76,0.68c0.63,0,1.26-0.23,1.76-0.68l10.23-9.23l50.08,42.13c0.87-0.35,1.65-0.86,2.32-1.49
			c0.64-0.61,1.17-1.32,1.56-2.12l-50.01-42.07L289.3,1776.82z"/>
	</g>
	<g>
		<path class="st10" d="M300.38,1864.43c0,13.34-10.81,24.16-24.15,24.16c-13.34,0-24.15-10.81-24.15-24.16
			c0-13.34,10.81-24.15,24.15-24.15C289.57,1840.28,300.38,1851.09,300.38,1864.43z"/>
		<path class="st0" d="M276.23,1891.08c-14.7,0-26.65-11.96-26.65-26.66c0-14.7,11.96-26.65,26.65-26.65s26.65,11.96,26.65,26.65
			C302.88,1879.13,290.92,1891.08,276.23,1891.08z M276.23,1842.78c-11.94,0-21.65,9.71-21.65,21.65c0,11.94,9.71,21.66,21.65,21.66
			c11.94,0,21.65-9.71,21.65-21.66C297.88,1852.49,288.17,1842.78,276.23,1842.78z"/>
	</g>
	<g>
		<path class="st0" d="M272.26,1875.92c-0.03,0-0.06,0-0.1,0c-0.67-0.03-1.3-0.32-1.75-0.81l-8.9-9.72
			c-0.93-1.02-0.86-2.6,0.16-3.53c1.02-0.93,2.6-0.86,3.53,0.16l7.19,7.85l14.98-14.03c1.01-0.94,2.59-0.89,3.53,0.12
			c0.94,1.01,0.89,2.59-0.12,3.53l-16.83,15.76C273.51,1875.68,272.9,1875.92,272.26,1875.92z"/>
	</g>
</g>
<g>
	<g>
		<path class="st10" d="M999.2,2522.96l-41.16,48.53c-2.49,2.94-6.39,6.62-8.66,8.19c0,0,0,0-2.53,0s-2.53,0-2.53,0
			c-2.27-1.57-6.18-5.24-8.69-8.16l-37.1-43.24c-2.51-2.92-4.75-3.89-4.99-2.16c-0.24,1.73-0.87,6.27-1.41,10.09l-11.75,83.97
			c-0.53,3.81,2.18,6.93,6.03,6.93h120.36c3.85,0,6.56-3.12,6.03-6.93l-12.72-90.84"/>
		<polygon class="st0" points="894.16,2521.79 893.28,2528.05 893.29,2528.06 894.17,2521.8 		"/>
		<path class="st0" d="M946.86,2579.67c2.53,0,4.89-1.01,6.66-2.85l46.4-48.73l-0.88-6.3l-49.12,51.56
			c-0.82,0.85-1.9,1.31-3.05,1.31c-1.15,0-2.24-0.47-3.05-1.31l-49.64-51.55l-0.88,6.26l46.91,48.76
			C941.97,2578.66,944.34,2579.67,946.86,2579.67z"/>
	</g>
	<g>
		<polygon class="st10" points="999.2,2522.96 1000.11,2529.33 999.05,2521.79 999.04,2521.79 999.2,2522.96 		"/>
		<path class="st10" d="M943.81,2573.36c0.82,0.85,1.9,1.31,3.05,1.31c1.15,0,2.24-0.47,3.05-1.31l49.12-51.56H894.17l0,0.01l0,0
			L943.81,2573.36z"/>
		<polygon class="st0" points="893.28,2528.05 893.29,2528.06 893.29,2528.06 		"/>
		<path class="st10" d="M893.99,2523.02C893.99,2522.98,893.99,2522.98,893.99,2523.02S893.98,2523.05,893.99,2523.02z"/>
		<path class="st10" d="M893.29,2528.06c0,0-0.04,0.27-0.08,0.6c-0.05,0.33-0.05,0.33,0,0
			C893.26,2528.33,893.29,2528.06,893.29,2528.06z"/>
		<path class="st10" d="M1001.08,2536.27c-0.53-3.81-1.17-8.37-1.42-10.12c-0.25-1.75-0.29-2.03-0.09-0.62
			c0.2,1.41-1.81,4.85-4.47,7.63l-36.75,38.59c-2.66,2.79-6.69,6.35-8.96,7.92c0,0,0,0-2.53,0s-2.53,0-2.53,0
			c-2.27-1.57-6.31-5.12-8.98-7.89l-37.21-38.67c-2.67-2.77-4.89-4.77-4.94-4.44c-0.05,0.33-0.52,3.72-1.05,7.54l-11.75,83.97
			c-0.53,3.81,2.18,6.93,6.03,6.93h120.36c3.85,0,6.56-3.12,6.03-6.93L1001.08,2536.27z"/>
		<path class="st10" d="M898.15,2533.1C895.48,2530.33,895.48,2530.33,898.15,2533.1l37.21,38.67c2.67,2.78,2.67,2.78,0,0
			L898.15,2533.1z"/>
		<polygon class="st0" points="894.17,2521.8 894.16,2521.79 894.17,2521.8 		"/>
		<polygon class="st0" points="893.98,2523.08 893.28,2528.05 893.29,2528.06 		"/>
		<polygon class="st0" points="894.17,2521.8 894.16,2521.79 894,2522.96 894.01,2522.97 		"/>
		<rect x="894.09" y="2521.8" class="st0" width="0" height="1.18"/>
		<polygon class="st0" points="893.29,2528.06 894.01,2522.97 894,2522.96 893.98,2523.08 893.29,2528.06 		"/>
		<rect x="891.08" y="2525.51" class="st0" width="5.14" height="0"/>
		<polygon class="st0" points="894.17,2521.8 894.17,2521.8 943.81,2573.36 		"/>
		<path class="st0" d="M946.86,2574.67c-1.15,0-2.24-0.47-3.05-1.31l-49.64-51.55l-0.16,1.17l46.2,53.85
			c1.77,1.84,4.13,2.85,6.66,2.85s4.89-1.01,6.66-2.85l45.68-53.87l-0.16-1.16l-49.12,51.56
			C949.1,2574.2,948.02,2574.67,946.86,2574.67z"/>
		<polygon class="st0" points="893.29,2528.06 940.21,2576.82 894.01,2522.97 		"/>
		<polygon class="st0" points="999.92,2528.09 999.2,2522.96 953.52,2576.82 		"/>
	</g>
	<path class="st0" d="M954.86,2587.84c0,1.16-0.95,2.11-2.11,2.11h-12.29c-1.16,0-2.1-0.95-2.1-2.11v-12.29
		c0-1.17,0.94-2.11,2.1-2.11h12.29c1.16,0,2.11,0.94,2.11,2.11V2587.84z"/>
	<path class="st10" d="M971.52,2522.96c0-14.11-11.44-25.55-25.55-25.55c-14.11,0-25.55,11.44-25.55,25.55h-10.95
		c0-20.16,16.34-36.49,36.5-36.49c20.16,0,36.5,16.34,36.5,36.49H971.52z"/>
</g>
<g>
	<g>
		<g>
			<path class="st10" d="M993.69,2010.76v45.81c0,3.73-3.05,6.78-6.78,6.78h-81.27c-3.73,0-6.78-3.05-6.78-6.78v-45.81"/>
		</g>
		<path class="st0" d="M964.79,2023.95c0,1.1-0.9,2-2,2h-33.04c-1.1,0-2-0.9-2-2v-3.54c0-1.1,0.9-2,2-2h33.04c1.1,0,2,0.9,2,2
			V2023.95z"/>
		<path class="st10" d="M997.48,2002.36c0,2.2-1.8,4-4,4h-94.43c-2.2,0-4-1.8-4-4v-8.69c0-2.2,1.8-4,4-4h94.43c2.2,0,4,1.8,4,4
			V2002.36z"/>
	</g>
	<g>
		<g>
			<path class="st10" d="M993.69,2090.58v45.81c0,3.73-3.05,6.78-6.78,6.78h-81.27c-3.73,0-6.78-3.05-6.78-6.78v-45.81"/>
		</g>
		<path class="st0" d="M964.79,2103.77c0,1.1-0.9,2-2,2h-33.04c-1.1,0-2-0.9-2-2v-3.54c0-1.1,0.9-2,2-2h33.04c1.1,0,2,0.9,2,2
			V2103.77z"/>
		<path class="st10" d="M997.48,2082.18c0,2.2-1.8,4-4,4h-94.43c-2.2,0-4-1.8-4-4v-8.69c0-2.2,1.8-4,4-4h94.43c2.2,0,4,1.8,4,4
			V2082.18z"/>
	</g>
</g>
<g>
	<path class="st10" d="M1246.31,2119.28c0,3.85-3.15,7-7,7h-118c-3.85,0-7-3.15-7-7v-89.31c0-3.85,3.15-7,7-7h118c3.85,0,7,3.15,7,7
		V2119.28z"/>
	<g>
		<path class="st10" d="M1251.43,2062.34c0,3.85-3.15,7-7,7h-128.25c-3.85,0-7-3.15-7-7v-37.6c0-3.85,3.15-7,7-7h128.25
			c3.85,0,7,3.15,7,7V2062.34z"/>
		<g>
			<path class="st0" d="M1244.43,2071.84h-128.25c-5.24,0-9.5-4.26-9.5-9.5v-37.6c0-5.24,4.26-9.5,9.5-9.5h128.25
				c5.24,0,9.5,4.26,9.5,9.5v37.6C1253.93,2067.58,1249.67,2071.84,1244.43,2071.84z M1116.19,2020.24c-2.48,0-4.5,2.02-4.5,4.5
				v37.6c0,2.48,2.02,4.5,4.5,4.5h128.25c2.48,0,4.5-2.02,4.5-4.5v-37.6c0-2.48-2.02-4.5-4.5-4.5H1116.19z"/>
		</g>
	</g>
	<path class="st10" d="M1205.86,2023.21c0-14.11-11.44-25.55-25.55-25.55c-14.11,0-25.55,11.44-25.55,25.55h-10.95
		c0-20.16,16.34-36.49,36.5-36.49c20.15,0,36.49,16.34,36.49,36.49H1205.86z"/>
	<path class="st0" d="M1157.53,2076c0,3.31-2.69,6-6,6h-7.03c-3.31,0-6-2.69-6-6v-12.96c0-3.31,2.69-6,6-6h7.03c3.31,0,6,2.69,6,6
		V2076z"/>
	<path class="st0" d="M1222.32,2076c0,3.31-2.69,6-6,6h-7.03c-3.31,0-6-2.69-6-6v-12.96c0-3.31,2.69-6,6-6h7.03c3.31,0,6,2.69,6,6
		V2076z"/>
</g>
<g>
	<path class="st10" d="M754.17,2302.88c-3.42,0-6.21-2.79-6.21-6.21s2.79-6.21,6.21-6.21s6.21,2.79,6.21,6.21
		S757.59,2302.88,754.17,2302.88z"/>
	<g>
		<path class="st10" d="M640.31,2333.47c-10.39-4.49-16.32-9.9-16.32-15.05c0-11.94,31.74-25.25,77.28-25.25
			c15.83,0,29.99,1.61,41.73,4.21c-0.02-0.24-0.04-0.47-0.04-0.71c0-2.24,0.66-4.32,1.79-6.07c-12.95-2.88-27.89-4.43-43.48-4.43
			c-21.97,0-42.67,3.06-58.29,8.62c-16.76,5.96-25.99,14.36-25.99,23.63c0,8.3,7.41,15.89,20.98,21.67
			C638.02,2337.6,638.89,2335.31,640.31,2333.47z"/>
		<path class="st10" d="M765.36,2297.09c-0.09,2.49-0.99,4.77-2.45,6.59c9.96,4.42,15.63,9.71,15.63,14.75
			c0,11.94-31.74,25.25-77.28,25.25c-15.47,0-29.34-1.54-40.92-4.04c0.01,0.23,0.04,0.46,0.04,0.7c0,2.25-0.67,4.33-1.8,6.08
			c12.77,2.77,27.42,4.25,42.69,4.25c21.96,0,42.67-3.06,58.29-8.62c16.76-5.96,25.99-14.36,25.99-23.63
			C785.54,2310.28,778.43,2302.82,765.36,2297.09z"/>
	</g>
	<g>
		<path class="st10" d="M745.59,2303.88c-6.46,10.12-15.31,21.23-26.47,32.39c-23.5,23.5-49.57,39.29-64.86,39.29
			c-3.41,0-5.97-0.84-7.63-2.5c-3.57-3.57-3.25-11.48,0.7-21.68c-2.43-0.4-4.59-1.58-6.23-3.28c-5.41,13.57-5.25,24.08,0.58,29.92
			c3.02,3.02,7.25,4.55,12.58,4.55c17.3,0,44.7-16.23,69.81-41.34c10.95-10.95,20.37-22.54,27.48-33.67
			C749.18,2306.99,747.11,2305.68,745.59,2303.88z"/>
		<path class="st10" d="M760.86,2258.83c-3.02-3.02-7.25-4.55-12.59-4.55c-17.3,0-44.7,16.23-69.81,41.34
			c-10.95,10.95-20.37,22.54-27.48,33.67c2.42,0.4,4.59,1.56,6.22,3.25c6.78-10.54,15.76-21.52,26.2-31.96
			c23.5-23.5,49.57-39.29,64.86-39.29c3.41,0,5.98,0.84,7.64,2.5c3.59,3.59,3.28,11.44-0.72,21.73c2.46,0.22,4.69,1.24,6.43,2.8
			C766.85,2274.95,766.63,2264.6,760.86,2258.83z"/>
	</g>
	
		<ellipse transform="matrix(0.3874 -0.9219 0.9219 0.3874 -1759.9105 2032.239)" class="st10" cx="649.17" cy="2340.33" rx="6.21" ry="6.21"/>
	<path class="st10" d="M724.89,2260.13c-5.96-16.76-14.36-25.99-23.63-25.99c-8.35,0-15.98,7.51-21.78,21.25
		c2.48,0.07,4.76,0.95,6.59,2.38c4.51-10.58,9.98-16.62,15.19-16.62c11.94,0,25.25,31.74,25.25,77.28
		c0,45.54-13.31,77.28-25.25,77.28c-11.94,0-25.25-31.74-25.25-77.28c0-15.36,1.52-29.14,3.98-40.67c-0.27,0.02-0.55,0.04-0.83,0.04
		c-2.2,0-4.24-0.64-5.97-1.74c-2.72,12.69-4.18,27.22-4.18,42.36c0,21.97,3.06,42.67,8.62,58.29c5.96,16.76,14.36,25.98,23.63,25.98
		c9.27,0,17.66-9.23,23.63-25.98c5.56-15.62,8.62-36.33,8.62-58.29S730.46,2275.75,724.89,2260.13z"/>
	<path class="st10" d="M759.19,2342.93c-7.12-14.98-19.59-31.78-35.12-47.31c-11.18-11.18-22.8-20.59-33.8-27.6
		c-0.31,2.46-1.42,4.66-3.06,6.35c10.35,6.71,21.38,15.67,31.9,26.19c14.98,14.98,26.97,31.09,33.75,45.37
		c6.08,12.81,7.22,22.95,3.04,27.13c-1.66,1.66-4.23,2.5-7.64,2.5c-15.29,0-41.36-15.79-64.86-39.29
		c-32.2-32.2-45.23-64.05-36.79-72.5c1.66-1.66,4.23-2.5,7.64-2.5c3.99,0,8.71,1.08,13.92,3.08c0.49-2.41,1.75-4.53,3.51-6.11
		c-6.46-2.58-12.38-3.97-17.43-3.97c-5.33,0-9.57,1.53-12.59,4.55c-6.56,6.56-5.96,19.02,1.67,35.08
		c7.12,14.98,19.59,31.78,35.12,47.32c25.11,25.11,52.52,41.34,69.81,41.34c5.33,0,9.57-1.53,12.59-4.55
		C767.41,2371.46,766.82,2359,759.19,2342.93z"/>
	
		<ellipse transform="matrix(0.3872 -0.922 0.922 0.3872 -1673.5995 2015.274)" class="st10" cx="679.17" cy="2266.58" rx="6.21" ry="6.21"/>
</g>
<g>
	<g>
		<path class="st10" d="M518.3,2356.64c0,3.85-3.15,7-7,7H398.37c-3.85,0-7-3.15-7-7l0-63.28c0-3.85,3.15-7,7-7H511.3
			c3.85,0,7,3.15,7,7L518.3,2356.64z"/>
	</g>
	<g>
		<path class="st0" d="M422.49,2343.28c0,3.85-3.15,7-7,7h-3.89c-3.85,0-7-3.15-7-7v-36.56c0-3.85,3.15-7,7-7h3.89
			c3.85,0,7,3.15,7,7V2343.28z"/>
	</g>
	<g>
		<path class="st0" d="M444.97,2343.28c0,3.85-3.15,7-7,7h-3.89c-3.85,0-7-3.15-7-7v-36.55c0-3.85,3.15-7,7-7h3.89
			c3.85,0,7,3.15,7,7V2343.28z"/>
	</g>
	<g>
		<path class="st0" d="M467.44,2343.28c0,3.85-3.15,7-7,7h-3.89c-3.85,0-7-3.15-7-7v-36.56c0-3.85,3.15-7,7-7h3.89
			c3.85,0,7,3.15,7,7V2343.28z"/>
	</g>
	<path class="st10" d="M529.88,2301.66h-6.99v46.69h6.99c4.3,0,7.83-3.52,7.83-7.83v-31.03
		C537.71,2305.18,534.18,2301.66,529.88,2301.66z"/>
</g>
<g>
	<path class="st10" d="M728.45,2506.14c-1.42-2.91-4.58-5.3-7.03-5.3h-39.06c-2.45,0-5.61,2.38-7.03,5.3l-4.27,8.78
		c-1.42,2.91-0.57,5.3,1.88,5.3h57.89c2.45,0,3.3-2.38,1.88-5.3L728.45,2506.14z"/>
	<g>
		<path class="st10" d="M765.35,2526.18H638.44c-3.85,0-7,3.15-7,7v83.34c0,3.85,3.15,7,7,7h126.92c3.85,0,7-3.15,7-7v-6.67h-51.08
			c-1.43,0-1.77-0.83-0.77-1.84l10.44-12.62c0.73-1.23,2.5-2.23,3.92-2.23h37.49v-59.97
			C772.35,2529.33,769.2,2526.18,765.35,2526.18z"/>
		<path class="st0" d="M730.94,2595.38L720.5,2608c-1,1.01-0.66,1.84,0.77,1.84h51.08v-16.7h-37.49
			C733.43,2593.15,731.67,2594.15,730.94,2595.38z"/>
	</g>
	<path class="st0" d="M718.53,2574.85c0,19.65-15.94,35.59-35.59,35.59c-19.66,0-35.59-15.94-35.59-35.59
		c0-19.66,15.94-35.59,35.59-35.59C702.59,2539.25,718.53,2555.19,718.53,2574.85z"/>
	<path class="st10" d="M702.51,2574.85c0,10.81-8.77,19.57-19.57,19.57c-10.81,0-19.57-8.76-19.57-19.57
		c0-10.81,8.76-19.57,19.57-19.57C693.74,2555.27,702.51,2564.04,702.51,2574.85z"/>
	<g>
		<path class="st0" d="M759.78,2549.15c0,3.85-3.15,7-7,7h-11.3c-3.85,0-7-3.15-7-7v-3.97c0-3.85,3.15-7,7-7h11.3c3.85,0,7,3.15,7,7
			V2549.15z"/>
	</g>
</g>
<g>
	<g>
		<path class="st10" d="M151.12,2369.28c0,4.03,3.05,7.33,6.78,7.33h129.8c3.73,0,6.78-3.3,6.78-7.33v-62.3H151.12V2369.28z"/>
		<path class="st10" d="M287.69,2274.35h-129.8c-3.73,0-6.78,3.3-6.78,7.33v3.26h143.35v-3.26
			C294.47,2277.65,291.42,2274.35,287.69,2274.35z"/>
		<rect x="151.12" y="2284.94" class="st0" width="143.35" height="22.04"/>
	</g>
	<g>
		<path class="st0" d="M203.86,2354.37c0,3.85-3.15,7-7,7h-25.51c-3.85,0-7-3.15-7-7v-25.51c0-3.85,3.15-7,7-7h25.51
			c3.85,0,7,3.15,7,7V2354.37z"/>
	</g>
	<g>
		<path class="st0" d="M279.54,2325.85H225.5c-0.94,0-1.69-0.89-1.69-1.99c0-1.1,0.76-1.99,1.69-1.99h54.04
			c0.94,0,1.69,0.89,1.69,1.99C281.24,2324.96,280.48,2325.85,279.54,2325.85z"/>
		<path class="st0" d="M279.54,2343.99H225.5c-0.94,0-1.69-0.89-1.69-1.99s0.76-1.99,1.69-1.99h54.04c0.94,0,1.69,0.89,1.69,1.99
			S280.48,2343.99,279.54,2343.99z"/>
		<path class="st0" d="M279.54,2362.12H225.5c-0.94,0-1.69-0.89-1.69-1.99c0-1.1,0.76-2,1.69-2h54.04c0.94,0,1.69,0.89,1.69,2
			C281.24,2361.23,280.48,2362.12,279.54,2362.12z"/>
	</g>
</g>
<g>
	<g>
		<path class="st10" d="M1016.56,2319.17c1.35,3.61-0.5,7.66-4.11,9l-52.46,19.56c-3.61,1.34-7.66-0.51-9-4.11l-10.97-29.42
			c-1.35-3.61,0.5-7.66,4.11-9l52.46-19.57c3.61-1.35,7.66,0.5,9,4.11L1016.56,2319.17z"/>
	</g>
	<g>
		<path class="st10" d="M982.73,2277.5c1.35,3.61-0.5,7.66-4.11,9l-36.38,13.57c-3.61,1.35-7.66-0.51-9-4.11l-7.08-18.99
			c-1.34-3.61,0.51-7.66,4.11-9.01l36.38-13.56c3.61-1.34,7.66,0.51,9,4.11L982.73,2277.5z"/>
	</g>
	<path class="st10" d="M1028.28,2332.67c-0.82-2.2-3.27-3.32-5.47-2.5l-72.56,27.07l-38.85-104.15c-0.82-2.2-3.26-3.32-5.46-2.5
		l-20.47,7.56c0.87,0.99,1.63,2.25,2.17,3.71c0.54,1.48,0.78,2.95,0.75,4.28l16.51-6.1l38.77,103.92c0.86,0.02,1.73,0.14,2.6,0.37
		c1.5,0.4,2.84,1.09,3.99,1.99l75.52-28.17C1027.99,2337.32,1029.1,2334.87,1028.28,2332.67z"/>
	<path class="st10" d="M884.62,2263.08c1.53,4.15,0.86,8.22-1.49,9.09l-19.85,7.31c-2.35,0.87-5.5-1.79-7.03-5.95l0,0
		c-1.53-4.15-0.86-8.22,1.49-9.09l19.84-7.31C879.94,2256.26,883.09,2258.92,884.62,2263.08L884.62,2263.08z"/>
	<path class="st10" d="M951.79,2378.61c-1.4,5.22-6.77,8.31-11.99,6.91c-5.22-1.4-8.31-6.77-6.91-11.99
		c1.4-5.22,6.77-8.31,11.99-6.91C950.1,2368.02,953.19,2373.39,951.79,2378.61z"/>
</g>
<g>
	<path class="st10" d="M948.1,852.59c-3.15,2.2-5.77,1.2-6.97,0.49l-66.11-46.04v88.88c0,4.16,2.99,7.57,6.65,7.57h87.34v-10.92
		h-7.9c-1.76,0-3.37-0.97-4.2-2.53c-0.82-1.55-0.72-3.44,0.27-4.89l18.37-27.06c0.88-1.3,2.36-2.08,3.93-2.08
		c1.57,0,3.05,0.78,3.93,2.08l18.37,27.06c0.99,1.45,1.09,3.34,0.27,4.89s-2.44,2.53-4.2,2.53h-7.9v10.92h16.92
		c3.66,0,6.65-3.41,6.65-7.57v-88.88L948.1,852.59z"/>
	<polygon class="st10" points="997.85,887.82 979.48,860.76 961.11,887.82 973.76,887.82 973.76,912.97 985.19,912.97 
		985.19,887.82 	"/>
	<path class="st10" d="M880.48,802.83l58.33,40.62c3,2.09,7.91,2.09,10.91,0l58.33-40.62c3-2.09,2.46-3.8-1.19-3.8H881.67
		C878.01,799.03,877.47,800.74,880.48,802.83z"/>
</g>
<g>
	<g>
		<path class="st10" d="M1242.62,653.78c0,3.85-3.15,7-7,7h-122.25c-3.85,0-7-3.15-7-7v-79.27c0-3.85,3.15-7,7-7h122.25
			c3.85,0,7,3.15,7,7V653.78z"/>
	</g>
	<g>
		<path class="st0" d="M1118.84,645.02c-2.75,0-5-2.25-5-5v-60.04c0-2.75,2.25-5,5-5h111.32c2.75,0,5,2.25,5,5v60.04
			c0,2.75-2.25,5-5,5H1118.84z"/>
	</g>
	<rect x="1167.5" y="660.78" class="st10" width="14.01" height="17.06"/>
	<g>
		<path class="st10" d="M1206.21,682.78c0,3.85-3.15,7-7,7h-49.41c-3.85,0-7-3.15-7-7v-1.27c0-3.85,3.15-7,7-7h49.41
			c3.85,0,7,3.15,7,7V682.78z"/>
	</g>
	<path class="st10" d="M1175.37,637.85c-1.06,0-2.08-0.42-2.83-1.17l-22.62-22.62l-17.7,18.44c-1.53,1.59-4.06,1.65-5.66,0.12
		c-1.59-1.53-1.64-4.06-0.12-5.66l20.53-21.39c0.75-0.78,1.77-1.22,2.84-1.23c1.07-0.03,2.11,0.41,2.87,1.17l22.67,22.67
		l34.22-34.23c1.56-1.56,4.09-1.56,5.66,0c1.56,1.56,1.56,4.09,0,5.66l-37.05,37.05C1177.45,637.43,1176.43,637.85,1175.37,637.85z"
		/>
	<g>
		<path class="st10" d="M1198.17,595.54c-2.72-2.72-1.91-5.76,1.81-6.76l21.1-5.66c3.72-1,5.95,1.23,4.95,4.95l-5.66,21.11
			c-1,3.72-4.04,4.53-6.76,1.81L1198.17,595.54z"/>
	</g>
	<path class="st0" d="M1232.19,652.66c0,2.4-1.94,4.34-4.34,4.34c-2.4,0-4.34-1.94-4.34-4.34c0-2.4,1.94-4.34,4.34-4.34
		C1230.24,648.32,1232.19,650.27,1232.19,652.66z"/>
	<path class="st0" d="M1216.77,652.66c0,2.4-1.94,4.34-4.34,4.34c-2.39,0-4.34-1.94-4.34-4.34c0-2.4,1.94-4.34,4.34-4.34
		C1214.82,648.32,1216.77,650.27,1216.77,652.66z"/>
</g>
<g>
	<g>
		<g>
			<g>
				<path class="st10" d="M1111.52,898.07c0,0.51,0.12,0.94,0.27,0.94s0.15-0.42,0-0.94
					C1111.64,897.56,1111.52,897.56,1111.52,898.07z"/>
			</g>
			<g>
				<path class="st10" d="M1118.52,802.11c-3.85,0-6.98,3.15-6.96,7l0.05,8.92c0.02,3.85,3.19,7,7.04,7h101.32
					c3.85,0,7.88,3.03,8.95,6.72l17.57,60.53c1.07,3.7,1.95,3.57,1.95-0.28v-82.89c0-3.85-3.15-7-7-7H1118.52z"/>
			</g>
		</g>
	</g>
	<g>
		<path class="st10" d="M1240.41,892.28c1.06,3.7-1.22,6.73-5.07,6.73h-111.85c-3.85,0-7.87-3.03-8.93-6.73l-16.08-56.15
			c-1.06-3.7,1.22-6.73,5.07-6.73h111.85c3.85,0,7.87,3.03,8.93,6.73L1240.41,892.28z"/>
	</g>
	<g>
		<path class="st10" d="M1237.82,796.93c-0.51-2.7-3.17-4.91-5.92-4.91h-20.06c-2.75,0-5.42,2.21-5.92,4.91l-0.74,3.95
			c-0.51,2.7,1.33,4.91,4.08,4.91h25.24c2.75,0,4.58-2.21,4.08-4.91L1237.82,796.93z"/>
	</g>
</g>
<g>
	<g>
		<path class="st10" d="M1215.54,392.4c0,24.95-20.23,45.18-45.19,45.18s-45.19-20.23-45.19-45.18c0-24.96,20.23-45.19,45.19-45.19
			S1215.54,367.44,1215.54,392.4z"/>
		<path class="st10" d="M1170.35,442.71c-11.99,0-22.89-4.68-30.98-12.31l8.11,42.94l45.86-0.21l8.05-42.8
			C1193.3,438,1182.38,442.71,1170.35,442.71z"/>
		<path class="st0" d="M1196.43,392.4c0,14.4-11.68,26.08-26.08,26.08s-26.08-11.68-26.08-26.08c0-14.41,11.68-26.08,26.08-26.08
			S1196.43,377.99,1196.43,392.4z"/>
		<path class="st10" d="M1169.64,392.68c-0.83,0-1.5-0.67-1.5-1.5v-18.53c0-0.83,0.67-1.5,1.5-1.5s1.5,0.67,1.5,1.5v18.53
			C1171.14,392.01,1170.47,392.68,1169.64,392.68z"/>
		<path class="st10" d="M1182.22,394.67h-10.59c-0.83,0-1.5-0.67-1.5-1.5c0-0.83,0.67-1.5,1.5-1.5h10.59c0.83,0,1.5,0.67,1.5,1.5
			C1183.72,394,1183.04,394.67,1182.22,394.67z"/>
		<path class="st10" d="M1174.11,393.17c0,2.46-2,4.46-4.46,4.46c-2.46,0-4.46-2-4.46-4.46c0-2.46,2-4.46,4.46-4.46
			C1172.11,388.71,1174.11,390.7,1174.11,393.17z"/>
		<path class="st10" d="M1170.35,341.36c-11.99,0-22.89,4.68-30.98,12.31l8.05-42.63l45.91-0.11l8.05,42.8
			C1193.3,346.07,1182.38,341.36,1170.35,341.36z"/>
	</g>
	<g>
		<path class="st0" d="M1173.48,356.39c0,1.73-1.4,3.13-3.12,3.13s-3.12-1.4-3.12-3.13c0-1.73,1.4-3.12,3.12-3.12
			S1173.48,354.66,1173.48,356.39z"/>
		<path class="st0" d="M1154.67,359.75c0.86,1.49,0.35,3.41-1.14,4.27c-1.5,0.86-3.41,0.35-4.27-1.14
			c-0.86-1.49-0.35-3.41,1.14-4.27C1151.89,357.75,1153.81,358.26,1154.67,359.75z"/>
		<path class="st0" d="M1140.06,372.07c1.49,0.86,2.01,2.77,1.14,4.27c-0.86,1.5-2.77,2.01-4.27,1.14c-1.5-0.86-2.01-2.77-1.15-4.27
			C1136.65,371.72,1138.57,371.21,1140.06,372.07z"/>
		<path class="st0" d="M1133.57,390.04c1.73,0,3.13,1.4,3.13,3.12c0,1.73-1.4,3.12-3.13,3.12c-1.73,0-3.12-1.4-3.12-3.12
			C1130.44,391.44,1131.84,390.04,1133.57,390.04z"/>
		<path class="st0" d="M1136.94,408.86c1.49-0.86,3.4-0.35,4.27,1.14c0.86,1.5,0.35,3.41-1.14,4.27c-1.49,0.86-3.41,0.35-4.27-1.14
			C1134.93,411.63,1135.44,409.72,1136.94,408.86z"/>
		<path class="st0" d="M1149.25,423.46c0.86-1.5,2.77-2.01,4.27-1.14c1.5,0.86,2.01,2.77,1.14,4.27c-0.86,1.49-2.77,2.01-4.27,1.14
			C1148.9,426.87,1148.39,424.96,1149.25,423.46z"/>
		<path class="st0" d="M1167.23,429.95c0-1.72,1.4-3.13,3.12-3.12c1.73,0,3.12,1.4,3.12,3.12c0,1.73-1.4,3.13-3.12,3.13
			C1168.63,433.08,1167.23,431.68,1167.23,429.95z"/>
		<path class="st0" d="M1186.04,426.59c-0.86-1.49-0.35-3.41,1.14-4.27c1.5-0.86,3.41-0.35,4.27,1.14c0.86,1.49,0.35,3.41-1.14,4.27
			C1188.81,428.59,1186.9,428.08,1186.04,426.59z"/>
		<path class="st0" d="M1200.64,414.27c-1.49-0.86-2.01-2.77-1.14-4.27s2.78-2.01,4.27-1.14c1.49,0.86,2.01,2.77,1.14,4.27
			C1204.05,414.62,1202.14,415.13,1200.64,414.27z"/>
		<path class="st0" d="M1207.14,396.29c-1.73,0-3.13-1.4-3.13-3.12c0-1.73,1.4-3.12,3.13-3.12c1.73,0,3.12,1.4,3.12,3.12
			C1210.26,394.9,1208.86,396.29,1207.14,396.29z"/>
		<path class="st0" d="M1203.77,377.49c-1.49,0.86-3.41,0.35-4.27-1.14c-0.86-1.5-0.35-3.41,1.14-4.27c1.49-0.86,3.4-0.35,4.27,1.14
			C1205.78,374.71,1205.26,376.62,1203.77,377.49z"/>
		<path class="st0" d="M1191.45,362.88c-0.86,1.49-2.77,2.01-4.27,1.14c-1.49-0.86-2.01-2.77-1.14-4.27
			c0.86-1.5,2.77-2.01,4.27-1.15C1191.8,359.47,1192.31,361.38,1191.45,362.88z"/>
	</g>
</g>
<g>
	<path class="st10" d="M996.94,686.88H882.95c-2.76,0-5-2.24-5-5V573.89c0-2.76,2.24-5,5-5c2.76,0,5,2.24,5,5v102.99h108.99
		c2.76,0,5,2.24,5,5C1001.94,684.64,999.71,686.88,996.94,686.88z"/>
	<g>
		<path class="st10" d="M915.85,664.31c0,3.85-3.15,7-7,7h-7.21c-3.85,0-7-3.15-7-7v-51.95c0-3.85,3.15-7,7-7h7.21
			c3.85,0,7,3.15,7,7V664.31z"/>
	</g>
	<g>
		<path class="st10" d="M950.24,664.31c0,3.85-3.15,7-7,7h-7.21c-3.85,0-7-3.15-7-7v-25.72c0-3.85,3.15-7,7-7h7.21
			c3.85,0,7,3.15,7,7V664.31z"/>
	</g>
	<g>
		<path class="st10" d="M984.63,664.31c0,3.85-3.15,7-7,7h-7.21c-3.85,0-7-3.15-7-7v-67.17c0-3.85,3.15-7,7-7h7.21
			c3.85,0,7,3.15,7,7V664.31z"/>
	</g>
	<g>
		<path class="st10" d="M966.62,562.32c-2.93-2.49-2.37-5.59,1.26-6.89l18.22-6.5c3.63-1.29,6.03,0.75,5.33,4.53l-3.48,19.02
			c-0.69,3.79-3.66,4.85-6.59,2.35L966.62,562.32z"/>
	</g>
	<path class="st10" d="M937.63,610.44c-0.78,0-1.57-0.23-2.25-0.7l-32.39-22.14c-1.82-1.25-2.29-3.74-1.05-5.56
		c1.25-1.82,3.74-2.29,5.56-1.04l29.52,20.18l32.05-35.05c1.49-1.63,4.02-1.74,5.65-0.25c1.63,1.49,1.74,4.02,0.25,5.65
		l-34.39,37.61C939.8,610,938.72,610.44,937.63,610.44z"/>
</g>
<g>
	<path class="st10" d="M460.89,998.59c-13.82-2.62-27.6,8.85-30.79,25.64c-3.18,16.78,5.44,32.51,19.26,35.13
		c13.82,2.62,27.6-8.86,30.79-25.64C483.33,1016.94,474.71,1001.21,460.89,998.59z M452.27,1044.04c-4.59-0.87-8.53-8.03-6.84-16.91
		c1.68-8.88,7.97-14.1,12.56-13.23c4.59,0.87,8.53,8.03,6.85,16.91C463.15,1039.7,456.86,1044.91,452.27,1044.04z"/>
	<path class="st10" d="M508.58,1062.16c-16.78,3.18-28.26,16.97-25.63,30.79c2.62,13.82,18.35,22.44,35.13,19.26
		c16.78-3.18,28.26-16.97,25.64-30.79C541.09,1067.59,525.36,1058.97,508.58,1062.16z M511.49,1077.47
		c8.88-1.68,16.04,2.26,16.91,6.85c0.87,4.59-4.35,10.88-13.23,12.56c-8.88,1.68-16.04-2.26-16.91-6.84
		C497.39,1085.45,502.61,1079.16,511.49,1077.47z"/>
	<path class="st10" d="M432.38,1160.76l10.67-23.95c0.8-1.8,1.75-4.85,2.12-6.78l4.4-23.33l27.22-5.13
		c1.93-0.36,3.22-2.24,2.85-4.18l-1.53-8.11c-0.37-1.93-2.25-3.22-4.18-2.85l-21.31,4.01l4.01-21.31c0.36-1.93-0.92-3.81-2.85-4.18
		l-8.12-1.53c-1.93-0.36-3.81,0.92-4.18,2.85l-5.13,27.22l-23.33,4.4c-1.93,0.37-4.99,1.32-6.79,2.12l-23.95,10.67
		c-1.8,0.8-1.66,1.53,0.3,1.62l26.2,1.23c1.97,0.09,5.15-0.13,7.09-0.5l17.42-3.28l-3.28,17.42c-0.36,1.94-0.59,5.13-0.5,7.09
		l1.23,26.2C430.85,1162.42,431.58,1162.55,432.38,1160.76z"/>
</g>
<g>
	<path class="st10" d="M169,1019.24v81.04c0,15.09,12.24,27.33,27.33,27.33h52.27c15.09,0,27.33-12.24,27.33-27.33v-81.04H169z"/>
	<path class="st10" d="M275.94,1036.04c-18.54,0-33.57,15.03-33.57,33.57s15.03,33.57,33.57,33.57c18.54,0,33.57-15.03,33.57-33.57
		S294.47,1036.04,275.94,1036.04z M275.94,1084.95c-8.47,0-15.34-6.87-15.34-15.34c0-8.48,6.87-15.34,15.34-15.34
		c8.47,0,15.34,6.87,15.34,15.34C291.28,1078.08,284.41,1084.95,275.94,1084.95z"/>
	<g>
		<path class="st10" d="M275.94,1136.41c0,2.52-3.15,4.58-7,4.58H176c-3.85,0-7-2.06-7-4.58c0-2.52,3.15-4.59,7-4.59h92.93
			C272.79,1131.83,275.94,1133.89,275.94,1136.41z"/>
	</g>
	<rect x="245.04" y="1019.24" class="st0" width="6" height="18.35"/>
	<path class="st0" d="M253.17,1038c-2.82-2.13-7.44-2.13-10.26,0l-3.87,2.93c-2.82,2.13-5.13,3.88-5.13,3.88s0,2.9,0,6.44v20.45
		c0,3.54,2.9,6.44,6.43,6.44h15.4c3.54,0,6.43-2.9,6.43-6.44v-20.45c0-3.54,0-6.44,0-6.44s-2.31-1.75-5.13-3.88L253.17,1038z"/>
	<path class="st10" d="M238.5,1060.68v11.03c0,1,0.84,1.84,1.84,1.84h15.4c1,0,1.84-0.84,1.84-1.84l0-18.83L238.5,1060.68z"/>
	<rect x="169" y="1090.9" class="st0" width="106.93" height="12.27"/>
</g>
<g>
	<path class="st10" d="M693.1,1110.89l44.83-44.84c9.25,2.4,19.49-0.02,26.73-7.26c8.39-8.39,10.31-20.8,5.75-31.04l-17.9,17.9
		l-14.13-14.13l17.9-17.9c-10.23-4.55-22.64-2.64-31.04,5.75c-7.24,7.24-9.66,17.48-7.26,26.73l-44.84,44.84
		c-9.25-2.4-19.49,0.01-26.73,7.26c-8.39,8.39-10.31,20.8-5.75,31.04l17.9-17.9l14.13,14.13l-17.9,17.9
		c10.23,4.55,22.64,2.64,31.04-5.76C693.08,1130.38,695.5,1120.14,693.1,1110.89z"/>
	<path class="st10" d="M682.58,1075.09l-9.42-9.03c-9.25,2.4-19.49-0.02-26.73-7.26c-8.39-8.39-10.31-20.81-5.75-31.04l17.9,17.9
		l14.13-14.13l-17.9-17.9c10.23-4.55,22.64-2.64,31.04,5.75c7.24,7.24,9.66,17.48,7.26,26.73l9.82,8.6L682.58,1075.09z"/>
	<path class="st10" d="M708.77,1101.67l12.45,12.45c-2.4,9.25,0.02,19.49,7.26,26.73c8.39,8.39,20.8,10.31,31.04,5.75l-17.9-17.9
		l14.13-14.13l17.9,17.9c4.55-10.23,2.64-22.64-5.75-31.04c-7.24-7.24-17.48-9.66-26.73-7.26l-12.45-12.45L708.77,1101.67z"/>
	<circle class="st0" cx="735.83" cy="1048.06" r="4.87"/>
	<path class="st0" d="M740.7,1108.26c0,2.69-2.18,4.87-4.87,4.87c-2.69,0-4.87-2.18-4.87-4.87s2.18-4.87,4.87-4.87
		C738.52,1103.39,740.7,1105.57,740.7,1108.26z"/>
	<circle class="st0" cx="675.63" cy="1048.06" r="4.87"/>
	<path class="st0" d="M680.5,1108.26c0,2.69-2.18,4.87-4.87,4.87c-2.69,0-4.87-2.18-4.87-4.87s2.18-4.87,4.87-4.87
		C678.32,1103.39,680.5,1105.57,680.5,1108.26z"/>
</g>
<g>
	<g>
		<path class="st10" d="M977.13,435.85c0,2.75-2.25,5-5,5h-85.72c-2.75,0-5-2.25-5-5V331.72c0-2.75,2.25-5,5-5h85.72
			c2.75,0,5,2.25,5,5V435.85z"/>
	</g>
	<g>
		<path class="st10" d="M902.28,444.73c-2.75,0-5,1.01-5,2.24c0,1.23,0,4.02,0,6.19c0,2.17,2.25,3.95,5,3.95h85.8c2.75,0,5-2.25,5-5
			V345.88c0-2.75-2.25-5-5-5h-1.72c-2.75,0-5.02,2.25-5.04,5l-0.8,93.84c-0.02,2.75-2.29,5-5.04,5H902.28z"/>
	</g>
	<path class="st0" d="M959.07,378.77h-20.34c-1.93,0-3.5-1.57-3.5-3.5c0-1.93,1.57-3.5,3.5-3.5h20.34c1.93,0,3.5,1.57,3.5,3.5
		C962.57,377.2,961,378.77,959.07,378.77z"/>
	<path class="st0" d="M959.07,400.5H897c-1.93,0-3.5-1.57-3.5-3.5s1.57-3.5,3.5-3.5h62.07c1.93,0,3.5,1.57,3.5,3.5
		S961,400.5,959.07,400.5z"/>
	<path class="st0" d="M959.07,421.45H897c-1.93,0-3.5-1.57-3.5-3.5c0-1.93,1.57-3.5,3.5-3.5h62.07c1.93,0,3.5,1.57,3.5,3.5
		C962.57,419.89,961,421.45,959.07,421.45z"/>
	<path class="st0" d="M959.07,358.54h-20.34c-1.93,0-3.5-1.57-3.5-3.5c0-1.93,1.57-3.5,3.5-3.5h20.34c1.93,0,3.5,1.57,3.5,3.5
		C962.57,356.97,961,358.54,959.07,358.54z"/>
	<g>
		<path class="st0" d="M924.51,374.6c0,2.75-2.25,5-5,5h-17.98c-2.75,0-5-2.25-5-5v-19.5c0-2.75,2.25-5,5-5h17.98c2.75,0,5,2.25,5,5
			V374.6z"/>
	</g>
</g>
<g>
	<path class="st10" d="M1237.88,1099.86c15.99-32.57,2.56-71.93-30.01-87.92c-32.57-15.99-71.93-2.56-87.92,30.01
		c-15.99,32.57-2.56,71.93,30.01,87.92c4.42,2.17,8.96,3.78,13.55,4.89l-0.03,0c0,0-0.77,15.06-15.97,18.08
		c16.85,0.21,34.29,0.73,60.66-23.12h-0.02C1220.63,1123.53,1231.26,1113.34,1237.88,1099.86z"/>
	<path class="st0" d="M1222.27,1091.66c-11.7,23.83-40.5,33.66-64.33,21.95c-23.83-11.7-33.66-40.5-21.96-64.33
		c11.7-23.83,40.5-33.66,64.33-21.96C1224.14,1039.03,1233.97,1067.83,1222.27,1091.66z"/>
	<g>
		<path class="st10" d="M1195.5,1057c0,6.41-5.4,11.3-10.05,13.75c-2.39,1.26-3.08,2.7-3.08,4.78v3.14c0,4.9-8.98,5.21-8.98,0v-4.33
			c0-4.02,2.13-6.97,4.9-8.54c3.14-1.76,6.84-4.9,6.84-8.23c0-3.89-2.01-5.78-6.03-5.78c-2.2,0-4.27,1.44-5.71,3.14
			c-3.64,4.27-9.61-0.12-7.98-4.08c1.7-4.33,7.22-7.72,14.13-7.72C1189.85,1043.12,1195.5,1048.52,1195.5,1057z M1177.67,1087.02
			c3.01,0,5.4,2.45,5.4,5.4c0,3.01-2.39,5.4-5.4,5.4s-5.4-2.38-5.4-5.4C1172.26,1089.47,1174.65,1087.02,1177.67,1087.02z"/>
	</g>
</g>
<g>
	<path class="st10" d="M754.85,1256.23h-99.68c-4.4,0-8,3.6-8,8v8.62h115.68v-8.62C762.85,1259.83,759.25,1256.23,754.85,1256.23z"
		/>
	<rect x="647.17" y="1276.12" class="st10" width="115.68" height="39.89"/>
	<path class="st10" d="M647.17,1327.78c0,4.4,3.6,8,8,8h99.68c4.4,0,8-3.6,8-8v-8.48H647.17V1327.78z"/>
	<g>
		<path class="st0" d="M692.34,1281.21c0-0.55,0.39-0.78,0.87-0.5l25.62,14.79c0.48,0.28,0.48,0.72,0,1l-25.62,14.79
			c-0.48,0.28-0.87,0.05-0.87-0.5V1281.21z"/>
	</g>
	<path class="st10" d="M723.99,1243.71c0-3.61-2.96-6.57-6.57-6.57H692.6c-3.61,0-6.57,2.96-6.57,6.57v8.21h37.96V1243.71z"/>
	<path class="st10" d="M701.34,1393.93c0,2.07,1.68,3.75,3.75,3.75c2.07,0,3.75-1.68,3.75-3.75v-53.85h-7.5V1393.93z"/>
	<path class="st10" d="M653.54,1384.3c-1.37,1.55-1.22,3.93,0.33,5.3c0.71,0.63,1.6,0.94,2.48,0.94c1.04,0,2.07-0.43,2.82-1.27
		l31.8-49.18h-10.01L653.54,1384.3z"/>
	<path class="st10" d="M756.49,1384.3l-27.42-44.21h-10.01l31.8,49.18c0.74,0.84,1.78,1.27,2.82,1.27c0.88,0,1.77-0.31,2.48-0.94
		C757.71,1388.22,757.86,1385.85,756.49,1384.3z"/>
</g>
<g>
	<g>
		<path class="st10" d="M1238.5,2366.21c0,3.85-3.15,7-7,7h-106.33c-3.85,0-7-3.15-7-7v-121.3c0-3.85,3.15-7,7-7h106.33
			c3.85,0,7,3.15,7,7V2366.21z"/>
	</g>
	<g>
		<path class="st0" d="M1229.52,2327.23c0,2.75-2.25,5-5,5h-92.36c-2.75,0-5-2.25-5-5v-75.01c0-2.75,2.25-5,5-5h92.36
			c2.75,0,5,2.25,5,5V2327.23z"/>
	</g>
	<g>
		<path class="st10" d="M1136.32,2327.51c-2.75,0-3.85-1.93-2.44-4.3l25.47-42.82c1.41-2.36,3.65-2.33,4.98,0.08l23.66,42.67
			c1.33,2.41,0.17,4.37-2.58,4.37H1136.32z"/>
	</g>
	<g>
		<path class="st10" d="M1183.56,2327.51c-2.75,0-3.85-1.93-2.44-4.3l19.11-32.13c1.41-2.36,3.65-2.33,4.98,0.08l17.73,31.98
			c1.33,2.41,0.17,4.37-2.58,4.37H1183.56z"/>
	</g>
	<path class="st10" d="M1197.71,2272.86c0,4.9-3.98,8.88-8.88,8.88s-8.88-3.98-8.88-8.88s3.97-8.88,8.88-8.88
		S1197.71,2267.96,1197.71,2272.86z"/>
</g>
<g>
	<path class="st11" d="M508.17,2513.3v31.1c0,5.89-1.22,11.49-3.41,16.58c1.1,0.38,2.24,0.58,3.41,0.58"/>
	<path class="st11" d="M508.17,2513.3v31.1c0,5.89-1.22,11.49-3.41,16.58c1.1,0.38,2.24,0.58,3.41,0.58"/>
	<path class="st10" d="M508.17,2504.2v-9.57h-92.88v9.57v9.11v31.1c0,5.89,1.22,11.49,3.41,16.58l4.55,7.98
		c7.32,10.09,19.03,16.79,32.33,17.29v21.4H436.4v14.36h50.65v-14.36h-19.18v-21.4c13.3-0.5,25.01-7.2,32.33-17.29l4.55-7.98
		c2.19-5.09,3.41-10.69,3.41-16.58v-31.1V2504.2z M500.85,2634.8H422.6v-12.8h78.25V2634.8z"/>
	<rect x="415.28" y="2506.27" class="st0" width="92.88" height="16.45"/>
	<path class="st10" d="M392.17,2510.44c-1.57,0-2.86,1.25-2.9,2.83c-0.03,1.2-0.64,29.58,12.73,39.5c0.52,0.39,1.13,0.57,1.73,0.57
		c0.89,0,1.76-0.41,2.33-1.17c0.96-1.29,0.69-3.11-0.6-4.06c-8.1-6.01-10.16-23.02-10.38-31.86h20.2v-5.81H392.17z"/>
	<path class="st10" d="M531.28,2510.44c1.57,0,2.86,1.25,2.9,2.83c0.03,1.2,0.64,29.58-12.73,39.5c-0.52,0.39-1.13,0.57-1.73,0.57
		c-0.89,0-1.76-0.41-2.33-1.17c-0.96-1.29-0.69-3.11,0.6-4.06c8.1-6.01,10.16-23.02,10.38-31.86h-20.2v-5.81H531.28z"/>
	<g>
		<path class="st0" d="M459.5,2543.09l-4.73,0.88v-4.69l8.15-3.9h3.42v32.82h-6.84V2543.09z"/>
	</g>
</g>
<g>
	<path class="st10" d="M468.47,1251.68c13.94-13.94,37.18-13.3,51.92,1.43c14.73,14.73,15.37,37.98,1.43,51.92"/>
	
		<rect x="395.72" y="1294.12" transform="matrix(0.7071 -0.7072 0.7072 0.7071 -796.0328 688.2141)" class="st10" width="73.88" height="21.59"/>
	
		<rect x="414.25" y="1312.74" transform="matrix(0.7072 -0.707 0.707 0.7072 -803.6123 706.5509)" class="st10" width="73.88" height="21.42"/>
	
		<rect x="432.85" y="1331.34" transform="matrix(0.7071 -0.7071 0.7071 0.7071 -811.3535 725.2227)" class="st10" width="73.88" height="21.42"/>
	<polygon class="st10" points="391.65,1381.14 417.56,1379.7 393.1,1355.43 	"/>
	<g>
		<path class="st10" d="M515.32,1314.96c2.72-2.72,2.72-7.18,0-9.9l-47.42-47.41c-2.72-2.72-7.18-2.72-9.9,0l-1.91,1.91
			c-2.72,2.72-2.72,7.18,0,9.9l47.42,47.41c2.72,2.72,7.18,2.72,9.9,0L515.32,1314.96z"/>
	</g>
	<polygon class="st10" points="395.3,1326.26 393.94,1350.22 422.59,1378.88 446.62,1377.54 	"/>
</g>
<g>
	<path class="st10" d="M998.31,1019.21h-88.25c-13.11,0-23.73,10.62-23.73,23.73v36.27c0,13.11,10.62,23.73,23.73,23.73h63.63
		c2.34,6.47,9.34,18.33,29.82,23.45c-2.51-2.51-9.55-9.78-12.12-23.45h6.92c13.11,0,23.73-10.63,23.73-23.73v-36.27
		C1022.04,1029.83,1011.42,1019.21,998.31,1019.21z"/>
	<path class="st10" d="M906.67,1107.01c-10.36,0-19.14-6.65-22.38-15.9h-1.8c-6.72,0.51-12,6.13-12,12.98v14.28
		c0,7.19,5.82,13.01,13.01,13.01h3.8c-1.41,7.5-5.27,11.48-6.64,12.86c13.47,0,19.36-9.31,20.64-12.86h40.62
		c7.19,0,13.01-5.82,13.01-13.01v-9.65v-1.71H906.67z"/>
	<path class="st0" d="M922.81,1061.73c0,4.29-3.48,7.77-7.77,7.77c-4.29,0-7.77-3.48-7.77-7.77c0-4.29,3.48-7.77,7.77-7.77
		C919.33,1053.96,922.81,1057.44,922.81,1061.73z"/>
	<path class="st0" d="M961.63,1061.73c0,4.29-3.48,7.77-7.77,7.77s-7.77-3.48-7.77-7.77c0-4.29,3.48-7.77,7.77-7.77
		S961.63,1057.44,961.63,1061.73z"/>
	<path class="st0" d="M1000.46,1061.73c0,4.29-3.48,7.77-7.77,7.77c-4.29,0-7.77-3.48-7.77-7.77c0-4.29,3.48-7.77,7.77-7.77
		C996.98,1053.96,1000.46,1057.44,1000.46,1061.73z"/>
</g>
<g>
	<path class="st10" d="M1189.95,1310.8c7.4,0,14.21-8.51,15.35-18.73c0.83-7.42,5.48-20.79,6.77-28.93l-65.32,0.01
		c1.29,8.14,5.94,21.5,6.77,28.92c1.14,10.22,7.95,18.73,15.35,18.73c-7.4,0-14.21,8.51-15.35,18.73
		c-0.83,7.41-5.48,20.78-6.77,28.92l65.32,0c-1.3-8.14-5.94-21.5-6.77-28.92C1204.16,1319.31,1197.36,1310.8,1189.95,1310.8z"/>
	<path class="st10" d="M1227.56,1254.8c0,2.17-1.78,3.96-3.96,3.96h-88.37c-2.18,0-3.96-1.79-3.96-3.96v-14.85
		c0-2.18,1.78-3.96,3.96-3.96h88.37c2.17,0,3.96,1.78,3.96,3.96V1254.8z"/>
	<rect x="1133.88" y="1258.45" class="st10" width="6.83" height="104.71"/>
	<rect x="1217.71" y="1258.76" class="st10" width="6.83" height="104.08"/>
	<path class="st10" d="M1227.56,1366.8c0-2.18-1.78-3.96-3.96-3.96h-88.37c-2.18,0-3.96,1.78-3.96,3.96v14.85
		c0,2.17,1.78,3.96,3.96,3.96h88.37c2.17,0,3.96-1.78,3.96-3.96V1366.8z"/>
	<g>
		<path class="st0" d="M1196.7,1333.45h-34.57c-0.69,2.92-1.51,6-2.37,9.17c-0.91,3.37-1.91,7.05-2.53,9.93l44.36,0
			c-0.62-2.88-1.62-6.57-2.53-9.93C1198.21,1339.45,1197.39,1336.37,1196.7,1333.45z"/>
	</g>
</g>
<g>
	<g>
		<g>
			<path class="st10" d="M995.54,1368.93c0,3.85-3.15,7-7,7h-85.6c-3.85,0-7-3.15-7-7v-123c0-3.85,3.15-7,7-7h85.6
				c3.85,0,7,3.15,7,7V1368.93z"/>
		</g>
		<g>
			<path class="st10" d="M1010.95,1277.25c1.59-0.43,2.9-2.13,2.9-3.78v-14.96c0-1.65-1.3-3.35-2.9-3.78l-8-2.17
				c-1.59-0.43-2.9,0.57-2.9,2.22v22.43c0,1.65,1.3,2.65,2.9,2.22L1010.95,1277.25z"/>
		</g>
		<g>
			<path class="st0" d="M976.83,1283.61c0,0.55-0.45,1-1,1h-60.18c-0.55,0-1-0.45-1-1v-26.12c0-0.55,0.45-1,1-1h60.18
				c0.55,0,1,0.45,1,1V1283.61z"/>
		</g>
		<path class="st0" d="M979.01,1313.59c-13.06-13.06-34.25-13.06-47.31,0c-13.06,13.06-13.06,34.24,0,47.31
			c11.83,11.83,30.31,12.94,43.4,3.35l0,0c0,0,0.2-0.15,0.53-0.41c0.18-0.13,0.36-0.26,0.53-0.4l-0.01-0.01
			c1.74-1.41,5.19-4.44,6.95-7.5c0,0,0,0,0-0.01C991.88,1342.9,990.53,1325.1,979.01,1313.59z"/>
		<path class="st10" d="M974.96,1317.64c-10.83-10.83-28.38-10.83-39.21,0c-10.83,10.83-10.83,28.38,0,39.21
			c9.8,9.8,25.12,10.72,35.97,2.77l0,0c0,0,0.16-0.12,0.44-0.34c0.15-0.11,0.3-0.22,0.44-0.33l-0.01-0.01
			c1.44-1.17,4.3-3.68,5.76-6.22l0,0C985.63,1341.93,984.5,1327.18,974.96,1317.64z"/>
		<path class="st0" d="M969.96,1324.28c-0.56,0-1.12-0.24-1.52-0.69c-3.18-3.67-7.59-5.88-12.43-6.22
			c-4.84-0.35-9.52,1.21-13.19,4.39c-0.84,0.73-2.11,0.64-2.84-0.2c-0.73-0.84-0.64-2.11,0.2-2.84c4.48-3.88,10.2-5.79,16.11-5.36
			c5.91,0.42,11.3,3.12,15.19,7.6c0.73,0.84,0.64,2.11-0.2,2.84C970.9,1324.12,970.43,1324.28,969.96,1324.28z"/>
		<path class="st0" d="M976.6,1326.78c1.27,1.27,1.27,3.33,0,4.61c-1.27,1.27-3.33,1.27-4.61,0c-1.27-1.27-1.27-3.33,0-4.61
			C973.27,1325.5,975.33,1325.5,976.6,1326.78z"/>
		<path class="st0" d="M988.77,1359.41c-1.21-1.21-3.95-0.46-6.07,1.67l-3.51,3.51c-2.13,2.13-2.88,4.86-1.67,6.07l11.64,11.64
			l11.25-11.25L988.77,1359.41z"/>
		<path class="st10" d="M985.67,1378.81l10.11,10.11c0,0,0,0,0,0l7.68,7.68c0.89,0.89,3.37-0.12,5.5-2.25l3.5-3.5
			c2.13-2.13,3.14-4.6,2.25-5.5l-0.35-0.35l-7.33-7.33l-10.11-10.11L985.67,1378.81z"/>
	</g>
	
		<rect x="976.52" y="1356.92" transform="matrix(0.7071 -0.7071 0.7071 0.7071 -676.5618 1092.1492)" class="st0" width="7.09" height="11.68"/>
</g>
</svg>
