<?xml version="1.0" encoding="utf-8"?>
<!-- Generator: Adobe Illustrator 25.4.0, SVG Export Plug-In . SVG Version: 6.00 Build 0)  -->
<svg version="1.1" id="레이어_1" xmlns="http://www.w3.org/2000/svg" xmlns:xlink="http://www.w3.org/1999/xlink" x="0px"
	 y="0px" viewBox="0 0 32.78 8.53" style="enable-background:new 0 0 32.78 8.53;" xml:space="preserve">
<g>
	<path d="M0.08,8.36c0.06,0,0.14-0.01,0.23-0.03C0.4,8.31,0.48,8.28,0.56,8.24C0.64,8.2,0.71,8.15,0.77,8.09s0.09-0.14,0.09-0.22
		V0.53c0-0.09-0.02-0.16-0.07-0.22C0.74,0.25,0.69,0.2,0.62,0.16S0.49,0.09,0.41,0.07S0.27,0.04,0.2,0.04L0.13,0h6l0.12,0.07
		L6.47,1.4H6.42C6.35,1.26,6.25,1.11,6.14,0.96C6.02,0.81,5.9,0.67,5.77,0.54C5.64,0.41,5.51,0.31,5.38,0.23S5.13,0.11,5.02,0.11
		H1.74v3.68h2.42C4.4,3.77,4.59,3.74,4.72,3.7c0.13-0.04,0.23-0.09,0.3-0.15c0.07-0.06,0.11-0.14,0.14-0.24
		C5.18,3.22,5.2,3.1,5.22,2.96h0.05v1.72H5.22C5.2,4.57,5.18,4.47,5.16,4.39S5.09,4.23,5.02,4.16C4.95,4.1,4.85,4.05,4.72,4.01
		C4.59,3.97,4.4,3.94,4.16,3.91H1.74v3.96c0,0.08,0.03,0.15,0.09,0.22S1.96,8.2,2.04,8.24S2.21,8.31,2.3,8.33
		c0.09,0.02,0.17,0.03,0.22,0.03L2.59,8.4H0L0.08,8.36z"/>
	<path d="M6.32,8.36c0.12,0,0.24-0.04,0.36-0.12c0.12-0.08,0.18-0.2,0.18-0.37V4.3c0-0.14-0.04-0.25-0.11-0.35
		C6.68,3.84,6.58,3.8,6.44,3.8v-0.1c0.08,0,0.18-0.02,0.31-0.07c0.13-0.05,0.26-0.11,0.38-0.18C7.27,3.38,7.38,3.3,7.48,3.21
		s0.16-0.18,0.17-0.26h0.06v1.26C7.83,4.04,7.96,3.86,8.11,3.7S8.42,3.38,8.6,3.25c0.18-0.13,0.37-0.23,0.57-0.31
		c0.2-0.08,0.41-0.11,0.64-0.11c0.21,0,0.4,0.05,0.56,0.14c0.17,0.09,0.25,0.25,0.25,0.47c0,0.12-0.04,0.21-0.11,0.27
		c-0.07,0.06-0.16,0.09-0.25,0.09c-0.02,0-0.07-0.02-0.13-0.05c-0.06-0.03-0.13-0.07-0.2-0.12c-0.08-0.05-0.16-0.1-0.25-0.15
		C9.59,3.43,9.5,3.39,9.41,3.36C9.2,3.29,8.94,3.34,8.62,3.51C8.31,3.68,8,3.96,7.72,4.33v3.58c0,0.08,0.02,0.15,0.06,0.21
		c0.04,0.06,0.09,0.11,0.15,0.14C7.99,8.3,8.05,8.32,8.11,8.34s0.12,0.02,0.17,0.02L8.35,8.4H6.24L6.32,8.36z"/>
	<path d="M11.21,5.68c0-0.43,0.07-0.82,0.22-1.18s0.34-0.65,0.6-0.91c0.26-0.25,0.56-0.44,0.91-0.58c0.35-0.13,0.74-0.19,1.16-0.19
		c0.38,0.01,0.71,0.08,0.99,0.22c0.28,0.14,0.5,0.32,0.67,0.54c0.17,0.22,0.3,0.48,0.37,0.77c0.08,0.29,0.11,0.59,0.1,0.91
		l-4.13,0.54c0.02,0.32,0.07,0.63,0.16,0.94c0.09,0.3,0.22,0.57,0.39,0.8c0.17,0.23,0.39,0.42,0.65,0.56
		c0.26,0.14,0.58,0.21,0.95,0.21c0.38,0,0.74-0.08,1.08-0.25c0.34-0.17,0.63-0.38,0.85-0.65l0.06,0.04
		c-0.22,0.29-0.51,0.54-0.88,0.76C15,8.42,14.55,8.53,14.02,8.53c-0.43,0-0.82-0.07-1.17-0.2C12.5,8.19,12.2,8,11.96,7.75
		s-0.43-0.55-0.56-0.9C11.27,6.5,11.21,6.11,11.21,5.68z M15.52,5.2c0.01-0.26-0.02-0.52-0.08-0.78c-0.06-0.26-0.15-0.5-0.28-0.72
		c-0.13-0.22-0.29-0.39-0.49-0.53c-0.2-0.14-0.43-0.21-0.69-0.21c-0.34,0-0.64,0.08-0.88,0.24c-0.24,0.16-0.43,0.36-0.58,0.61
		c-0.15,0.25-0.26,0.52-0.32,0.83c-0.07,0.3-0.1,0.6-0.1,0.89V5.7L15.52,5.2z"/>
	<path d="M17.22,5.68c0-0.43,0.07-0.82,0.22-1.18s0.34-0.65,0.6-0.91c0.26-0.25,0.56-0.44,0.91-0.58c0.35-0.13,0.74-0.19,1.16-0.19
		c0.38,0.01,0.71,0.08,0.99,0.22c0.28,0.14,0.5,0.32,0.67,0.54c0.17,0.22,0.3,0.48,0.37,0.77c0.08,0.29,0.11,0.59,0.1,0.91
		l-4.13,0.54c0.02,0.32,0.07,0.63,0.16,0.94c0.09,0.3,0.22,0.57,0.39,0.8c0.17,0.23,0.39,0.42,0.65,0.56
		c0.26,0.14,0.58,0.21,0.95,0.21c0.38,0,0.74-0.08,1.08-0.25c0.34-0.17,0.63-0.38,0.85-0.65l0.06,0.04
		c-0.22,0.29-0.51,0.54-0.88,0.76c-0.37,0.22-0.82,0.32-1.36,0.32c-0.43,0-0.82-0.07-1.17-0.2C18.51,8.19,18.21,8,17.97,7.75
		s-0.43-0.55-0.56-0.9C17.28,6.5,17.22,6.11,17.22,5.68z M21.53,5.2c0.01-0.26-0.02-0.52-0.08-0.78c-0.06-0.26-0.15-0.5-0.28-0.72
		c-0.13-0.22-0.29-0.39-0.49-0.53c-0.2-0.14-0.43-0.21-0.69-0.21c-0.34,0-0.64,0.08-0.88,0.24c-0.24,0.16-0.43,0.36-0.58,0.61
		c-0.15,0.25-0.26,0.52-0.32,0.83c-0.07,0.3-0.1,0.6-0.1,0.89V5.7L21.53,5.2z"/>
	<path d="M23.03,8.36c0.12,0,0.24-0.04,0.36-0.12c0.12-0.08,0.18-0.2,0.18-0.37V4.3c0-0.14-0.04-0.25-0.11-0.35
		c-0.07-0.1-0.18-0.15-0.31-0.14v-0.1c0.08,0,0.18-0.02,0.31-0.07c0.13-0.05,0.26-0.11,0.38-0.18c0.13-0.07,0.24-0.15,0.34-0.25
		s0.16-0.18,0.17-0.26l0.06-0.01v0.83c0.26-0.3,0.54-0.54,0.86-0.7c0.32-0.16,0.67-0.24,1.06-0.24c0.52,0,0.92,0.1,1.19,0.29
		c0.28,0.2,0.47,0.43,0.57,0.69c0.54-0.66,1.19-0.98,1.97-0.98c0.38,0,0.69,0.05,0.93,0.16s0.44,0.24,0.58,0.41s0.24,0.35,0.29,0.55
		c0.06,0.2,0.08,0.4,0.08,0.59l-0.02,2.4c0,0.48,0.04,0.81,0.13,0.99c0.08,0.18,0.27,0.27,0.55,0.26h0.18v0.04
		c-0.07,0.08-0.2,0.14-0.38,0.19c-0.18,0.04-0.37,0.06-0.55,0.05c-0.19-0.01-0.37-0.07-0.53-0.17C31.16,8.18,31.08,8,31.08,7.74
		v-3.2c0-0.1-0.01-0.23-0.03-0.39c-0.02-0.16-0.07-0.33-0.14-0.49c-0.08-0.16-0.19-0.31-0.35-0.43c-0.16-0.12-0.37-0.19-0.63-0.19
		c-0.13,0-0.26,0.01-0.4,0.02c-0.14,0.02-0.28,0.05-0.42,0.11s-0.3,0.15-0.46,0.27c-0.16,0.12-0.33,0.29-0.52,0.5
		c0.06,0.19,0.08,0.39,0.08,0.59l-0.01,3.34c0,0.17,0.07,0.29,0.2,0.37c0.14,0.08,0.26,0.12,0.36,0.12l0.06,0.04h-2.1l0.07-0.04
		c0.12,0,0.24-0.04,0.37-0.12c0.12-0.08,0.19-0.2,0.19-0.37V4.54c0-0.1-0.01-0.23-0.03-0.39s-0.07-0.33-0.14-0.49
		c-0.08-0.16-0.19-0.31-0.35-0.43c-0.16-0.12-0.37-0.19-0.63-0.19c-0.13,0-0.26,0.01-0.4,0.02c-0.14,0.02-0.28,0.05-0.42,0.11
		s-0.3,0.15-0.46,0.27s-0.33,0.29-0.52,0.5v3.96c0,0.08,0.02,0.15,0.06,0.21c0.04,0.06,0.09,0.11,0.15,0.14
		c0.06,0.04,0.12,0.06,0.19,0.08s0.12,0.02,0.17,0.02l0.07,0.04h-2.11L23.03,8.36z"/>
</g>
</svg>
