<svg width="113" height="30" viewBox="0 0 113 30" fill="none" xmlns="http://www.w3.org/2000/svg">
<g clip-path="url(#clip0_201_71)">
<path d="M0.275778 29.4021C0.482611 29.4021 0.758389 29.3669 1.06864 29.2966C1.37889 29.2263 1.65467 29.1208 1.93045 28.9801C2.20622 28.8394 2.44753 28.6635 2.65436 28.4525C2.8612 28.2415 2.96461 27.9601 2.96461 27.6788V1.86401C2.96461 1.54748 2.89567 1.30129 2.72331 1.09027C2.55095 0.87925 2.37858 0.7034 2.13728 0.56272C1.89597 0.42204 1.68914 0.31653 1.41336 0.24619C1.13758 0.17585 0.930751 0.14068 0.689445 0.14068L0.448139 0H21.1315L21.5452 0.24619L22.3035 4.9238H22.1312C21.8899 4.43142 21.5452 3.90387 21.166 3.37632C20.7523 2.84877 20.3386 2.35639 19.8905 1.89918C19.4423 1.44197 18.9942 1.09027 18.5461 0.80891C18.0979 0.52755 17.6843 0.38687 17.3051 0.38687H5.99817V13.3294H14.3405C15.1678 13.2591 15.8228 13.1536 16.2709 13.0129C16.719 12.8722 17.0638 12.6964 17.3051 12.4853C17.5464 12.2743 17.6843 11.993 17.7877 11.6413C17.8566 11.3247 17.9256 10.9027 17.9945 10.4103H18.1669V16.4596H17.9945C17.9256 16.0727 17.8566 15.721 17.7877 15.4396C17.7187 15.1583 17.5464 14.8769 17.3051 14.6307C17.0638 14.4197 16.719 14.2438 16.2709 14.1032C15.8228 13.9625 15.1678 13.857 14.3405 13.7515H5.99817V27.6788C5.99817 27.9601 6.10159 28.2063 6.30842 28.4525C6.51525 28.6987 6.75656 28.8394 7.03234 28.9801C7.30812 29.1208 7.61837 29.2263 7.92862 29.2966C8.23887 29.3669 8.51464 29.4021 8.68701 29.4021L8.92831 29.5428H0L0.275778 29.4021Z" fill="white"/>
<path d="M21.7864 29.4021C22.2001 29.4021 22.6137 29.2614 23.0274 28.9801C23.4411 28.6987 23.6479 28.2767 23.6479 27.6788V15.1231C23.6479 14.6307 23.51 14.2438 23.2687 13.8921C23.0274 13.5053 22.6827 13.3646 22.2001 13.3646V13.0129C22.4758 13.0129 22.8206 12.9426 23.2687 12.7667C23.7168 12.5909 24.165 12.3798 24.5787 12.1336C25.0613 11.8875 25.4405 11.6061 25.7852 11.2896C26.1299 10.973 26.3367 10.6565 26.3712 10.3752H26.578V14.8066C26.9917 14.2087 27.4398 13.5756 27.9569 13.0129C28.474 12.4502 29.0256 11.8875 29.6461 11.4302C30.2666 10.973 30.9215 10.6213 31.611 10.34C32.3004 10.0586 33.0244 9.95311 33.8172 9.95311C34.5411 9.95311 35.1961 10.129 35.7477 10.4455C36.3337 10.762 36.6095 11.3247 36.6095 12.0985C36.6095 12.5205 36.4716 12.837 36.2303 13.0481C35.989 13.2591 35.6787 13.3646 35.3685 13.3646C35.2995 13.3646 35.1272 13.2943 34.9203 13.1887C34.7135 13.0832 34.4722 12.9426 34.2309 12.7667C33.9551 12.5909 33.6793 12.415 33.3691 12.2392C33.0588 12.0633 32.7486 11.9226 32.4383 11.8171C31.7144 11.5709 30.8181 11.7468 29.715 12.3447C28.6464 12.9426 27.5777 13.9273 26.6125 15.2286V27.8195C26.6125 28.1008 26.6815 28.347 26.8193 28.558C26.9572 28.7691 27.1296 28.9449 27.3364 29.0504C27.5433 29.1911 27.7501 29.2614 27.9569 29.3318C28.1638 29.4021 28.3706 29.4021 28.543 29.4021L28.7843 29.5428H21.5106L21.7864 29.4021Z" fill="white"/>
<path d="M38.6434 19.9766C38.6434 18.4642 38.8847 17.0926 39.4018 15.8265C39.9189 14.5604 40.5739 13.5404 41.4702 12.626C42.3664 11.7468 43.4006 11.0785 44.6071 10.5862C45.8137 10.129 47.1581 9.91794 48.6059 9.91794C49.9159 9.95311 51.0534 10.1993 52.0187 10.6917C52.9839 11.1841 53.7423 11.8171 54.3283 12.5909C54.9143 13.3646 55.3625 14.279 55.6038 15.2989C55.8796 16.3189 55.983 17.374 55.9485 18.4994L41.7115 20.3986C41.7804 21.524 41.9528 22.6143 42.263 23.7046C42.5733 24.7597 43.0214 25.7093 43.6074 26.5182C44.1935 27.3271 44.9519 27.9953 45.8481 28.4877C46.7444 28.9801 47.8475 29.2263 49.123 29.2263C50.4329 29.2263 51.6739 28.9449 52.846 28.347C54.0181 27.7491 55.0177 27.0106 55.7761 26.061L55.983 26.2016C55.2246 27.2216 54.2249 28.1008 52.9494 28.8746C51.7084 29.6131 50.1572 30 48.3301 30C46.8478 30 45.5034 29.7538 44.2969 29.2966C43.0904 28.8042 42.0562 28.136 41.2289 27.2567C40.4015 26.3775 39.7465 25.3224 39.2984 24.0914C38.8503 22.8605 38.6434 21.4889 38.6434 19.9766ZM53.501 18.2884C53.5354 17.374 53.432 16.4596 53.2252 15.5451C53.0184 14.6307 52.7081 13.7866 52.26 13.0129C51.8118 12.2392 51.2603 11.6413 50.5708 11.1489C49.8814 10.6565 49.0885 10.4103 48.1922 10.4103C47.0202 10.4103 45.986 10.6917 45.1587 11.2544C44.3314 11.8171 43.6764 12.5205 43.1593 13.3998C42.6422 14.279 42.263 15.2286 42.0562 16.3189C41.8149 17.374 41.7115 18.4291 41.7115 19.449V20.0469L53.501 18.2884Z" fill="white"/>
<path d="M59.3612 19.9766C59.3612 18.4642 59.6025 17.0926 60.1196 15.8265C60.6367 14.5604 61.2917 13.5404 62.1879 12.626C63.0842 11.7468 64.1184 11.0785 65.3249 10.5862C66.5314 10.129 67.8759 9.91794 69.3237 9.91794C70.6336 9.95311 71.7712 10.1993 72.7364 10.6917C73.7017 11.1841 74.4601 11.8171 75.0461 12.5909C75.6321 13.3646 76.0802 14.279 76.3215 15.2989C76.5973 16.3189 76.7007 17.374 76.6663 18.4994L62.4292 20.3986C62.4982 21.524 62.6705 22.6143 62.9808 23.7046C63.291 24.7597 63.7392 25.7093 64.3252 26.5182C64.9112 27.3271 65.6696 27.9953 66.5659 28.4877C67.4622 28.9801 68.5653 29.2263 69.8408 29.2263C71.1507 29.2263 72.3917 28.9449 73.5638 28.347C74.7358 27.7491 75.7355 27.0106 76.4939 26.061L76.7007 26.2016C75.9424 27.2216 74.9427 28.1008 73.6672 28.8746C72.3917 29.6483 70.8405 30 68.979 30C67.4967 30 66.1522 29.7538 64.9457 29.2966C63.8081 28.8042 62.774 28.136 61.9466 27.2567C61.1193 26.3775 60.4643 25.3224 60.0162 24.0914C59.568 22.8605 59.3612 21.4889 59.3612 19.9766ZM74.2187 18.2884C74.2532 17.374 74.1498 16.4596 73.943 15.5451C73.7361 14.6307 73.4259 13.7866 72.9777 13.0129C72.5296 12.2392 71.978 11.6413 71.2886 11.1489C70.5992 10.6565 69.8063 10.4103 68.91 10.4103C67.738 10.4103 66.7038 10.6917 65.8765 11.2544C65.0491 11.8171 64.3942 12.5205 63.8771 13.3998C63.36 14.279 62.9808 15.2286 62.774 16.3189C62.5327 17.374 62.4292 18.4291 62.4292 19.449V20.0469L74.2187 18.2884Z" fill="white"/>
<path d="M79.3895 29.4021C79.8032 29.4021 80.2169 29.2614 80.6305 28.9801C81.0442 28.6987 81.251 28.2767 81.251 27.6788V15.1231C81.251 14.6307 81.1131 14.2438 80.8718 13.8921C80.6305 13.5404 80.2513 13.3646 79.8032 13.3998V13.0481C80.079 13.0481 80.4237 12.9777 80.8718 12.8019C81.32 12.626 81.7681 12.415 82.1818 12.1688C82.6299 11.9226 83.0091 11.6413 83.3538 11.2896C83.6986 10.9379 83.9054 10.6565 83.9399 10.3752L84.1467 10.34V13.2591C85.043 12.204 86.0082 11.3599 87.1113 10.7972C88.2144 10.2345 89.4209 9.95311 90.7654 9.95311C92.5579 9.95311 93.9368 10.3048 94.8676 10.973C95.8328 11.6764 96.4878 12.4853 96.8325 13.3998C98.694 11.0785 100.935 9.95311 103.624 9.95311C104.933 9.95311 106.002 10.129 106.829 10.5158C107.657 10.9027 108.346 11.3599 108.829 11.9578C109.311 12.5557 109.656 13.1887 109.829 13.8921C110.035 14.5955 110.104 15.2989 110.104 15.9672L110.035 24.408C110.035 26.0961 110.173 27.2567 110.483 27.8898C110.759 28.5229 111.414 28.8394 112.379 28.8042H113V28.9449C112.759 29.2263 112.311 29.4373 111.69 29.6131C111.07 29.7538 110.415 29.8242 109.794 29.789C109.139 29.7538 108.519 29.5428 107.967 29.1911C107.415 28.7691 107.14 28.136 107.14 27.2216V15.9672C107.14 15.6155 107.105 15.1583 107.036 14.5955C106.967 14.0328 106.795 13.4349 106.554 12.8722C106.278 12.3095 105.899 11.7819 105.347 11.3599C104.796 10.9379 104.072 10.6917 103.175 10.6917C102.727 10.6917 102.279 10.7268 101.796 10.762C101.314 10.8324 100.831 10.9379 100.349 11.1489C99.866 11.3599 99.3145 11.6764 98.7629 12.0985C98.2114 12.5205 97.6253 13.1184 96.9704 13.857C97.1772 14.5252 97.2461 15.2286 97.2461 15.932L97.2117 27.6788C97.2117 28.2767 97.453 28.6987 97.9011 28.9801C98.3837 29.2614 98.7974 29.4021 99.1421 29.4021L99.3489 29.5428H92.1098L92.3511 29.4021C92.7648 29.4021 93.1784 29.2614 93.6266 28.9801C94.0402 28.6987 94.2815 28.2767 94.2815 27.6788V15.9672C94.2815 15.6155 94.2471 15.1583 94.1781 14.5955C94.1092 14.0328 93.9368 13.4349 93.6955 12.8722C93.4197 12.3095 93.0405 11.7819 92.489 11.3599C91.9374 10.9379 91.2135 10.6917 90.3172 10.6917C89.8691 10.6917 89.4209 10.7268 88.9383 10.762C88.4557 10.8324 87.9731 10.9379 87.4905 11.1489C87.0079 11.3599 86.4563 11.6764 85.9048 12.0985C85.3532 12.5205 84.7672 13.1184 84.1122 13.857V27.7843C84.1122 28.0657 84.1812 28.3118 84.319 28.5229C84.4569 28.7339 84.6293 28.9097 84.8361 29.0152C85.043 29.1559 85.2498 29.2263 85.4911 29.2966C85.7324 29.3669 85.9048 29.3669 86.0771 29.3669L86.3184 29.5076H79.0448L79.3895 29.4021Z" fill="white"/>
</g>
<defs>
<clipPath id="clip0_201_71">
<rect width="113" height="30" fill="white"/>
</clipPath>
</defs>
</svg>
