<svg width="105" height="21" viewBox="0 0 105 21" fill="none" xmlns="http://www.w3.org/2000/svg">
<path d="M99.8075 20.5353L96.3459 15.6948L92.7669 20.5353H87.7797L93.8523 12.5852L87.9851 4.75245H93.1189L96.4632 9.35821L99.8955 4.75245H104.765L98.8981 12.4678L105 20.5353H99.8075Z" fill="#FF5E33"/>
<path d="M80.0882 4.51776C82.5329 4.51776 84.4104 5.10448 85.7208 6.27792C87.0311 7.43181 87.6863 9.18219 87.6863 11.5291V20.5353H83.4032V18.5697C82.5427 20.0365 80.939 20.7699 78.5921 20.7699C77.3796 20.7699 76.3235 20.5646 75.4238 20.1539C74.5437 19.7432 73.869 19.176 73.3996 18.4524C72.9302 17.7288 72.6956 16.9074 72.6956 15.9882C72.6956 14.5214 73.2432 13.3675 74.3384 12.5265C75.4531 11.6855 77.1644 11.2651 79.4722 11.2651H83.1099C83.1099 10.2676 82.8067 9.50489 82.2004 8.97684C81.5942 8.42923 80.6848 8.15543 79.4722 8.15543C78.6312 8.15543 77.8 8.29233 76.9786 8.56613C76.1768 8.82038 75.4923 9.17241 74.9251 9.62223L73.2823 6.4246C74.1428 5.81832 75.1696 5.34894 76.3626 5.01647C77.5751 4.68399 78.817 4.51776 80.0882 4.51776ZM79.7362 17.6897C80.5185 17.6897 81.2128 17.5136 81.8191 17.1616C82.4254 16.79 82.8556 16.2522 83.1099 15.5481V13.9346H79.9709C78.0934 13.9346 77.1546 14.5507 77.1546 15.7828C77.1546 16.3695 77.3796 16.8389 77.8294 17.1909C78.2988 17.5234 78.9344 17.6897 79.7362 17.6897Z" fill="#FF5E33"/>
<path d="M66.7673 20.5353L66.738 8.2141L60.6948 18.3644H58.5532L52.5393 8.47813V20.5353H48.0803V0H52.0113L59.6973 12.7612L67.2661 0H71.1678L71.2264 20.5353H66.7673Z" fill="white"/>
<path d="M37.6095 20.7699C36.8077 20.7699 36.133 20.4961 35.5854 19.9485C35.0378 19.4009 34.7639 18.7164 34.7639 17.895C34.7639 17.054 35.0378 16.3793 35.5854 15.8708C36.133 15.3428 36.8077 15.0787 37.6095 15.0787C38.4114 15.0787 39.0861 15.3428 39.6337 15.8708C40.1813 16.3793 40.4551 17.054 40.4551 17.895C40.4551 18.7164 40.1813 19.4009 39.6337 19.9485C39.0861 20.4961 38.4114 20.7699 37.6095 20.7699Z" fill="#FF5E33"/>
<path d="M29.7665 20.5353L25.8061 14.8147H25.5714H21.4351V20.5353H16.6826V0H25.5714C27.3903 0 28.9647 0.303139 30.2946 0.909418C31.644 1.5157 32.6806 2.37622 33.4042 3.49099C34.1278 4.60576 34.4896 5.92589 34.4896 7.45136C34.4896 8.97684 34.118 10.297 33.3748 11.4117C32.6512 12.5069 31.6147 13.3479 30.2652 13.9346L34.871 20.5353H29.7665ZM29.6785 7.45136C29.6785 6.29748 29.3069 5.4174 28.5637 4.81112C27.8205 4.18528 26.7351 3.87236 25.3074 3.87236H21.4351V11.0304H25.3074C26.7351 11.0304 27.8205 10.7174 28.5637 10.0916C29.3069 9.46577 29.6785 8.58569 29.6785 7.45136Z" fill="#FF5E33"/>
<path d="M4.75244 3.81369V9.24086H14.2573V13.0546H4.75244V20.5353H0V0H15.5188V3.81369H4.75244Z" fill="white"/>
</svg>
