<svg width="11" height="11" viewBox="0 0 11 11" fill="none" xmlns="http://www.w3.org/2000/svg">
<path d="M4.45645 2.52411C4.31328 0.876256 2.5952 0.0677051 2.52249 0.034703C2.45452 0.00273133 2.37834 -0.00748361 2.30436 0.00545123C0.320917 0.334722 0.0225759 1.48979 0.0105823 1.5378C-0.00573544 1.60469 -0.0031401 1.67481 0.0180783 1.74031C2.38381 9.08477 7.30043 10.4461 8.91657 10.8939C9.041 10.9284 9.1437 10.9561 9.22166 10.9816C9.31062 11.0107 9.40727 11.0051 9.49226 10.9659C9.54174 10.9434 10.7096 10.3929 10.9952 8.59724C11.0079 8.51885 10.9953 8.43847 10.9592 8.36773C10.9337 8.31822 10.3228 7.1549 8.62872 6.74387C8.57125 6.72917 8.51107 6.72865 8.45336 6.74237C8.39564 6.75609 8.34212 6.78363 8.2974 6.82263C7.76294 7.27941 7.02458 7.76619 6.706 7.81644C4.57039 6.77163 3.37778 4.76675 3.33281 4.38648C3.30657 4.17271 3.79606 3.42192 4.35901 2.81138C4.39439 2.77295 4.42134 2.72754 4.43812 2.67807C4.45491 2.62859 4.46115 2.57615 4.45645 2.52411Z" fill="#F8B93E"/>
</svg>
