<svg width="16" height="14" viewBox="0 0 16 14" fill="none" xmlns="http://www.w3.org/2000/svg">
<g clip-path="url(#clip0_472_347)">
<path d="M15.704 14C15.5422 14 15.4081 13.8666 15.4081 13.7056V12.0729C15.4081 10.0673 13.7667 8.43454 11.7504 8.43454H7.84014C5.82387 8.43454 4.18244 10.0673 4.18244 12.0729V13.7056C4.18244 13.8666 4.04828 14 3.88651 14C3.72473 14 3.59058 13.8666 3.59058 13.7056V12.0729C3.59058 9.74152 5.49637 7.84581 7.84014 7.84581H11.7504C14.0942 7.84581 15.9999 9.74152 15.9999 12.0729V13.7056C15.9999 13.8666 15.8697 14 15.704 14Z" fill="#12416B"/>
<path d="M9.79724 6.95879C7.86777 6.95879 6.29736 5.39669 6.29736 3.47743C6.29736 1.55817 7.86777 -0.00392532 9.79724 -0.00392532C11.7267 -0.00392532 13.2971 1.55817 13.2971 3.47743C13.2932 5.39669 11.7228 6.95879 9.79724 6.95879ZM9.79724 0.58873C8.19527 0.58873 6.88922 1.88394 6.88922 3.48136C6.88922 5.07485 8.19132 6.37398 9.79724 6.37398C11.3992 6.37398 12.7053 5.07878 12.7053 3.48136C12.7013 1.88394 11.3992 0.58873 9.79724 0.58873Z" fill="#12416B"/>
<path d="M2.48587 8.43061C2.3241 8.43061 2.18994 8.29717 2.18994 8.13625V3.77965C2.18994 3.61873 2.3241 3.48528 2.48587 3.48528C2.64765 3.48528 2.7818 3.61873 2.7818 3.77965V8.13625C2.7818 8.30109 2.65159 8.43061 2.48587 8.43061Z" fill="#12416B"/>
<path d="M4.67571 6.25231H0.295931C0.134155 6.25231 0 6.12279 0 5.95795C0 5.79703 0.134155 5.66358 0.295931 5.66358H4.67571C4.83748 5.66358 4.97164 5.79703 4.97164 5.95795C4.97164 6.12279 4.84143 6.25231 4.67571 6.25231Z" fill="#12416B"/>
</g>
<defs>
<clipPath id="clip0_472_347">
<rect width="16" height="14" fill="white"/>
</clipPath>
</defs>
</svg>
