<?xml version="1.0" encoding="utf-8"?>
<!-- Generator: Adobe Illustrator 25.4.0, SVG Export Plug-In . SVG Version: 6.00 Build 0)  -->
<svg version="1.1" id="Layer_1" xmlns="http://www.w3.org/2000/svg" xmlns:xlink="http://www.w3.org/1999/xlink" x="0px" y="0px"
	 viewBox="0 0 85.64 103.32" style="enable-background:new 0 0 85.64 103.32;" xml:space="preserve">
<style type="text/css">
	.st0{fill:#FFFFFF;}
</style>
<rect x="238.82" y="-106.16" class="st0" width="450" height="450"/>
<path d="M349.67-11.94l-59.81-59.81l0,85.2l17.86-17.86l13.01,30.66l17.28-7.34l-13.1-30.85H349.67z M333.42,17.06l-10.84,4.6
	l-13.67-32.21L293.36,5l0-68.3l47.86,47.86h-21.59L333.42,17.06z"/>
<path d="M354.34,103.33c-0.25-0.02-0.51-0.04-0.76-0.04c-2.15,0-4.46,0.14-6.96,1.04c-0.44-3.47-3.2-6.23-6.76-6.59
	c-0.26-0.03-0.52-0.04-0.78-0.04c-2.18,0-4.52,0.14-7.06,1.08c-0.73-3.44-3.78-6.02-7.43-6.02c-2.13,0-4.42,0.14-6.9,1.02V76.18
	c0-1.78-0.65-7.6-9-7.6c-6.7,0-9.7,3.82-9.7,7.6v44.2l-3.22-7.78c-1.18-2.85-3.94-4.69-7.02-4.69c-0.89,0-4.3,0.58-5.32,1
	c-1.61,0.67-3.63,2.29-4.5,4.39c-0.78,1.88-0.78,3.94-0.02,5.76c0.37,0.94,9.09,23.06,13.22,30.15c3.11,5.33,10.32,18,10.4,18.13
	l1.01,1.77h52.19l0.5-2.9c0.51-2.93,4.95-28.82,4.95-33.77l0-21.54C361.18,106.98,358.24,103.73,354.34,103.33z M357.68,125.47
	L357.68,125.47c0,2.7,0,5.22,0,6.96c0,4.79-4.9,33.17-4.9,33.17h-47.21c0,0-7.26-12.75-10.41-18.16
	c-4.04-6.94-12.99-29.67-12.99-29.67c-0.42-1.01-0.42-2.12,0-3.14c0.42-1.01,1.6-2.08,2.61-2.5c0.5-0.21,3.44-0.73,3.98-0.73
	c1.67,0,3.15,0.99,3.79,2.53l7.66,18.49h2.3V76.18c0-2.26,1.94-4.1,6.2-4.1c4.26,0,5.5,1.84,5.5,4.1v38.75h3.5V97.55
	c2.42-1.14,4.64-1.3,6.9-1.3c2.26,0,4.1,1.84,4.1,4.1v16.68h3.5V105.3v-2.8c2.42-1.14,4.64-1.3,6.9-1.3c0.14,0,0.28,0.01,0.42,0.02
	c2.06,0.21,3.68,1.96,3.68,4.08v14.58h0v2.05h3.5v-11.04c0,0,0-0.01,0-0.01v-2.79c2.42-1.14,4.64-1.3,6.9-1.3
	c0.14,0,0.28,0.01,0.42,0.02c2.06,0.21,3.68,1.96,3.68,4.08V125.47z"/>
<path d="M345.33,243c1-1.18,1.55-2.67,1.55-4.22v-13.63h4.79v-7h-63.8v7h4.48v13.63c0,1.54,0.55,3.04,1.55,4.22l16.68,19.68
	c2.07,2.44,2.07,5.98,0,8.42l-16.68,19.68c-1,1.18-1.55,2.67-1.55,4.22v13.63h-4.48v7h63.8v-7h-4.79V295c0-1.54-0.55-3.04-1.55-4.22
	l-16.68-19.68c-2.07-2.44-2.07-5.98,0-8.42L345.33,243z M325.98,273.36l16.68,19.68c0.46,0.55,0.72,1.24,0.72,1.95v13.63h-47.53V295
	c0-0.71,0.25-1.41,0.72-1.95l16.68-19.68c3.18-3.75,3.18-9.19,0-12.95l-16.68-19.68c-0.46-0.54-0.72-1.24-0.72-1.95v-13.63h47.53
	v13.63c0,0.71-0.25,1.41-0.72,1.95l-16.68,19.68C322.8,264.17,322.8,269.61,325.98,273.36z M323.47,258.15
	c-2.14,2.53-3.22,5.46-3.22,8.39c0,2.93-0.03,11.98,1.82,15.38c2.46,4.52,11.43,10.49,14.46,14.65c1.36,1.87,3.5,8.55,3.5,8.55
	H299.5c0,0,2.14-6.68,3.5-8.55c3.03-4.16,12.01-10.12,14.46-14.65c1.8-3.33,1.73-12.23,1.81-15.04c0.09-3.04-0.98-6.1-3.21-8.73
	L299.5,238.6c13.71,5.8,26.82,5.8,40.53,0L323.47,258.15z"/>
<path d="M496.12-10.87l-64.59-64.59l0,91.96L450.3-2.28l12.75,30.04l19.86-8.43L470.1-10.87H496.12z M481.08,18.58l-17.28,7.34
	L450.78-4.74l-17.86,17.86v-85.2l59.81,59.81h-24.75L481.08,18.58z M451.97-10.88L436.42,4.67v-68.3l47.86,47.86h-21.59l13.79,32.5
	l-10.84,4.6L451.97-10.88z"/>
<path d="M77.54,34.76c-0.3-0.03-0.6-0.05-0.9-0.05c-1.74,0-3.75,0.09-5.92,0.65c-1.07-3.37-4.02-5.83-7.64-6.2
	c-0.3-0.03-0.61-0.05-0.93-0.05c-1.8,0-3.89,0.09-6.14,0.71c-1.35-3.35-4.65-5.66-8.36-5.66c-1.62,0-3.49,0.08-5.5,0.55V9
	c0-4.35-2.73-9-10.4-9c-5.35,0-11.1,2.82-11.1,9v37.16l-0.53-1.28c-1.4-3.38-4.66-5.56-8.32-5.56c-1.05,0-4.65,0.61-5.85,1.11
	c-1.74,0.72-4.16,2.5-5.26,5.15c-0.92,2.22-0.93,4.65-0.03,6.8c0.37,0.94,9.11,23.13,13.32,30.34c2.96,5.09,9.63,16.78,10.39,18.12
	l1.41,2.47h54.18l0.7-4.07c0.51-2.94,4.97-28.91,4.97-34.01l0-21.54C85.64,39.08,82.16,35.23,77.54,34.76z M84.24,65.25
	c0,4.95-4.44,30.83-4.95,33.77l-0.5,2.9H26.59l-1.01-1.77c-0.07-0.13-7.29-12.8-10.4-18.13C11.06,74.94,2.34,52.82,1.97,51.88
	C1.21,50.06,1.21,48,1.99,46.12c0.87-2.11,2.89-3.73,4.5-4.39c1.02-0.42,4.43-1,5.32-1c3.09,0,5.84,1.84,7.02,4.69l3.22,7.78V9
	c0-3.78,3-7.6,9.7-7.6c8.35,0,9,5.82,9,7.6v17.59c2.47-0.88,4.77-1.02,6.9-1.02c3.65,0,6.71,2.59,7.43,6.02
	c2.54-0.93,4.88-1.08,7.06-1.08c0.26,0,0.53,0.01,0.78,0.04c3.56,0.36,6.32,3.12,6.76,6.59c2.5-0.9,4.81-1.04,6.96-1.04
	c0.26,0,0.51,0.01,0.76,0.04c3.9,0.4,6.83,3.65,6.83,7.56L84.24,65.25z M80.74,58.29L80.74,58.29c0,2.7,0,5.22,0,6.96
	c0,4.79-4.9,33.17-4.9,33.17H28.63c0,0-7.26-12.75-10.41-18.16C14.17,73.33,5.22,50.59,5.22,50.59c-0.42-1.01-0.42-2.12,0-3.14
	c0.42-1.01,1.6-2.08,2.61-2.5c0.5-0.21,3.44-0.73,3.98-0.73c1.67,0,3.15,0.99,3.79,2.53l7.66,18.49h2.3V9c0-2.26,1.94-4.1,6.2-4.1
	c4.26,0,5.5,1.84,5.5,4.1v38.75h3.5V30.37c2.42-1.14,4.64-1.3,6.9-1.3c2.26,0,4.1,1.84,4.1,4.1v16.68h3.5V38.12v-2.8
	c2.42-1.14,4.64-1.3,6.9-1.3c0.14,0,0.28,0.01,0.42,0.02c2.06,0.21,3.68,1.96,3.68,4.08V52.7h0v2.05h3.5V43.71c0,0,0-0.01,0-0.01
	v-2.79c2.42-1.14,4.64-1.3,6.9-1.3c0.14,0,0.28,0.01,0.42,0.02c2.06,0.21,3.68,1.96,3.68,4.08V58.29z"/>
<path d="M490.45,243.9c1.21-1.43,1.88-3.25,1.88-5.12v-12.23h6.19v-9.8h-69.4v9.8H435v12.23c0,1.88,0.67,3.69,1.88,5.12l16.68,19.68
	c1.62,1.91,1.62,4.69,0,6.61l-16.68,19.68c-1.21,1.43-1.88,3.25-1.88,5.12v12.23h-5.88v9.8h69.4v-9.8h-6.19V295
	c0-1.87-0.67-3.69-1.88-5.12l-16.68-19.68c-1.62-1.92-1.62-4.69,0-6.61L490.45,243.9z M472.71,271.1l16.68,19.68
	c1,1.18,1.55,2.67,1.55,4.22v13.63h6.19v7h-66.6v-7h5.88V295c0-1.54,0.55-3.04,1.55-4.22l16.68-19.68c2.07-2.44,2.07-5.98,0-8.42
	L437.95,243c-1-1.18-1.55-2.67-1.55-4.22v-13.63h-5.88v-7h66.6v7h-6.19v13.63c0,1.54-0.55,3.04-1.55,4.22l-16.68,19.68
	C470.64,265.12,470.64,268.66,472.71,271.1z M486.72,240.73c0.46-0.55,0.72-1.24,0.72-1.95v-13.63H439.9v13.63
	c0,0.71,0.25,1.41,0.72,1.95l16.68,19.68c3.18,3.75,3.18,9.19,0,12.95l-16.68,19.68c-0.46,0.55-0.72,1.24-0.72,1.95v13.63h47.53V295
	c0-0.71-0.26-1.41-0.72-1.95l-16.68-19.68c-3.18-3.75-3.18-9.19,0-12.95L486.72,240.73z M466.12,281.92
	c2.46,4.52,11.43,10.49,14.46,14.65c1.36,1.87,3.5,8.55,3.5,8.55h-40.53c0,0,2.14-6.68,3.5-8.55c3.03-4.16,12.01-10.12,14.46-14.65
	c1.8-3.33,1.73-12.23,1.81-15.04c0.09-3.04-0.98-6.1-3.21-8.73l-16.56-19.55c13.71,5.8,26.82,5.8,40.53,0l-16.56,19.55
	c-2.14,2.53-3.22,5.46-3.22,8.39C464.31,269.46,464.27,278.52,466.12,281.92z"/>
<path d="M580.9,125.9h-3.5v-7h3.5V125.9z M577.4,111.89h-3.5v7v0.01h3.5v-0.01V111.89z M563.4,108.39v3.5h10.5v-3.5H563.4z
	 M559.9,118.89h3.5v-7h-3.5V118.89z M563.4,125.89h3.5v-7h-3.5V125.89z M566.9,132.89h3.5v-7h-3.5V132.89z M573.89,139.72v0.18v3.32
	h3.5v-3.32v-0.18v-3.32h-3.5V139.72z M577.4,146.72h3.5v-3.5h-3.5V146.72z M570.4,136.4h3.5v-3.5h-3.5V136.4z M584.4,146.73h-3.5
	v3.5v3.5h3.5v-3.5V146.73z M584.4,153.73v3.5h3.5v-3.5H584.4z M587.9,160.73v3.5h3.5v-3.5v-3.5h-3.5V160.73z M584.4,125.9h-3.5v3.5
	h3.5v3.5h3.5V73.4h-3.5V125.9z M601.9,97.9V73.4h-3.5v42h3.5v-14h7v-3.5H601.9z M608.9,101.4v3.5h3.5v-3.5H608.9z M612.4,118.9h3.5
	v-14h-3.5V118.9z M633.4,164.32h3.5v-10.45h-3.5V164.32z M619.4,101.4h-3.5v3.5h3.5h3.5v-3.5H619.4z M633.4,104.9h-3.5v3.5h3.5h3.5
	v-3.5H633.4z M622.9,104.9v3.5h3.5v-3.5H622.9z M636.9,108.41v3.5h3.5v-3.5H636.9z M640.4,111.91v27.97h3.5v-27.97H640.4z
	 M636.89,153.88h3.5v-14h-3.5V153.88z M626.4,122.4h3.5v-14h-3.5V122.4z M591.46,164.29v3.5l41.94,0v-3.5L591.46,164.29z
	 M594.9,69.9h-3.5h-3.5v3.5h3.5h3.5h3.5v-3.5H594.9z"/>
<path d="M622.9,246.26h3.5v3.5h-3.5V246.26z M619.4,253.26h3.5v-3.5h-3.5V253.26z M615.9,256.76h3.5v-3.5h-3.5V256.76z
	 M612.4,260.26h3.5v-3.5h-3.5V260.26z M608.9,263.76h3.5v-3.5h-3.5V263.76z M605.4,270.76h3.5v-7h-3.5V270.76z M577.4,246.26v3.5
	h3.5v-3.5H577.4z M580.9,249.76v3.5h3.5v-3.5H580.9z M584.4,253.26v3.5h3.5v-3.5H584.4z M587.9,256.76v3.5h3.5v-3.5H587.9z
	 M591.4,260.26v3.5h3.5v-3.5H591.4z M598.4,263.76h-3.5v7h3.5V263.76z M570.4,218.26v7h3.5v21h3.5v-21h49v21h3.5v-21h3.5v-7H570.4z
	 M605.4,284.76h-7v3.5h-3.5v3.5h-3.5v3.5h-3.5v3.5h-3.5v3.5h-3.5v3.5h42v-3.5h-3.5v-3.5h-3.5v-3.5h-3.5v-3.5h-3.5v-3.5h-3.5V284.76z
	 M612.4,242.77v3.5h-7v3.5h-7v-3.5h-7v0v-3.5h-7v3.5h3.5v3.5h3.5v0v0v3.5h3.5v3.5h3.5v3.5h7v-3.5h3.5v-3.5h3.5v-3.5h3.5v-3.5v0h3.5
	v-3.5h-3.5L612.4,242.77z M626.4,309.26h-49v-21h-3.5v21h-3.5v7h63v-7h-3.5v-21h-3.5V309.26z M580.9,284.76h-3.5v3.5h3.5V284.76z
	 M584.4,281.26h-3.5v3.5h3.5V281.26z M587.9,277.76h-3.5v3.5h3.5V277.76z M591.4,274.26h-3.5v3.5h3.5V274.26z M594.9,270.76h-3.5
	v3.5h3.5V270.76z M626.4,288.26v-3.5h-3.5v3.5H626.4z M622.9,284.76v-3.5h-3.5v3.5H622.9z M619.4,281.26v-3.5h-3.5v3.5H619.4z
	 M615.9,277.76v-3.5h-3.5v3.5H615.9z M612.4,274.26v-3.5h-3.5v3.5H612.4z"/>
<path d="M579.15-61.25v-3.5h3.5v3.5H579.15z M586.15-57.75v-3.5h-3.5v3.5H586.15z M589.65-54.25v-3.5h-3.5v3.5H589.65z
	 M593.15-50.75v-3.5h-3.5v3.5H593.15z M596.65-47.25v-3.5h-3.5v3.5H596.65z M600.15-43.75v-3.5h-3.5v3.5H600.15z M603.65-40.25v-3.5
	h-3.5v3.5H603.65z M607.15-36.75v-3.5h-3.5v3.5H607.15z M610.65-33.25v-3.5h-3.5v3.5H610.65z M614.15-29.75v-3.5h-3.5v3.5H614.15z
	 M617.65-26.25v-3.5h-3.5v3.5H617.65z M621.15-22.75v-3.5h-3.5v3.5H621.15z M624.65-19.25v-3.5h-3.5v3.5H624.65z M628.15-15.75v-3.5
	h-3.5v3.5h-21v3.5v3.5h3.5v-3.5h24.5v-3.5H628.15z M607.15-1.75h3.5v-3.5v-3.5h-3.5v3.5V-1.75z M610.65,5.25h3.5v-3.5v-3.5h-3.5v3.5
	V5.25z M614.15,12.25h3.5v-3.5v-3.5h-3.5v3.5V12.25z M617.65,19.25h3.5v-3.5v-3.5h-3.5v3.5V19.25z M610.65,19.25v3.5h3.5h3.5v-3.5
	h-3.5H610.65z M603.65,22.75v3.5h3.5h3.5v-3.5h-3.5H603.65z M603.65,15.75h-3.5v3.5v3.5h3.5v-3.5V15.75z M593.15-8.75h-3.5v3.5h-3.5
	v3.5h3.5v3.5h3.5V-8.75z M596.65,1.75h-3.5v3.5v3.5h3.5v-3.5V1.75z M600.15,8.75h-3.5v3.5v3.5h3.5v-3.5V8.75z M575.65-64.75h3.5
	v-3.5h-3.5v-3.5h-3.5v84h3.5v-3.5h3.5v-3.5h-3.5V-64.75z M579.15,5.25h3.5v-3.5h-3.5V5.25z M582.65,1.75h3.5v-3.5h-3.5V1.75z"/>
</svg>
