<?xml version="1.0" encoding="utf-8"?>
<!-- Generator: Adobe Illustrator 25.4.0, SVG Export Plug-In . SVG Version: 6.00 Build 0)  -->
<svg version="1.1" xmlns="http://www.w3.org/2000/svg" xmlns:xlink="http://www.w3.org/1999/xlink" x="0px" y="0px"
	 viewBox="0 0 432 886.02" style="enable-background:new 0 0 432 886.02;" xml:space="preserve">
<style type="text/css">
	.st0{fill:#164772;}
	.st1{fill:#3576B0;}
	.st2{fill:#FFFFFF;}
	.st3{fill:#E82323;}
	.st4{fill:#FAA434;}
	.st5{fill:#FED44A;}
	.st6{fill:#FDF1BF;}
	.st7{opacity:0.1;}
	.st8{fill:#F7F7F7;}
	.st9{opacity:0.15;}
	.st10{opacity:0.5;}
	.st11{fill:#5FD1F8;}
	.st12{opacity:0.3;fill:#FFFFFF;}
</style>
<g id="Background">
	<rect id="Background_1_" x="-3315.96" y="-215.36" class="st0" width="2000" height="2000"/>
	<path class="st1" d="M-1315.96,1637.64V1285.6c-23.16-13.65-50.47-21.54-79.72-21.54c-63.42,0-117.72,37.05-140.29,89.62
		c-21.5-43.44-67.95-73.52-121.79-73.52c-5.2,0-10.32,0.29-15.36,0.84c-19.44-63.43-81.04-109.77-154.04-109.77
		c-52.95,0-99.9,24.39-129.12,61.99c-16.95-9.87-36.89-15.57-58.22-15.57c-18.38,0-35.72,4.22-51,11.7c0.12-1.99,0.18-4,0.18-6.02
		c0-58.6-49.97-106.1-111.61-106.1c-45.69,0-84.96,26.1-102.23,63.47l-75.26,27.07c2.02-7.44,3.1-15.24,3.1-23.28
		c0-51.27-43.72-92.83-97.66-92.83c-53.93,0-97.66,41.56-97.66,92.83c0,0.85,0.01,1.69,0.04,2.53
		c-57.54,10.54-103.09,53.07-115.35,107.36c-0.09,0-0.19,0-0.28,0c-30.87,0-59.01,11.12-80.22,29.38
		c-24.05-25.04-58.67-40.75-97.15-40.75c-62.74,0-115.21,41.75-128.36,97.62c-0.73-0.02-1.45-0.05-2.18-0.05
		c-31.14,0-58.15,16.78-71.61,41.33c-16.72-15.6-39.63-25.23-64.91-25.23c-26.82,0-50.98,10.84-67.9,28.15
		c-22.33-38.79-65.66-65.09-115.46-65.09c-6.43,0-12.75,0.45-18.93,1.29v276.62H-1315.96z"/>
	<path class="st1" d="M-2175.34,1582.64h-268.24l8-102.43c23.05-294.99,38.43-590.61,46.14-886.53l2.63-101.03h154.7l2.63,101.03
		c7.71,295.92,23.09,591.55,46.14,886.53L-2175.34,1582.64z"/>
	<path id="Clouds_1_" class="st2" d="M-2214.96,1421.64h-189l5.64-72.17c16.24-207.84,27.08-416.14,32.51-624.64l1.85-71.19h109
		l1.85,71.19c5.43,208.5,16.27,416.8,32.51,624.64L-2214.96,1421.64z"/>
	<path id="Clouds" class="st2" d="M-1315.96,1784.64V1432.6c-23.24-13.65-50.64-21.54-80-21.54c-63.64,0-118.13,37.05-140.78,89.62
		c-21.57-43.44-68.18-73.52-122.22-73.52c-5.21,0-10.36,0.29-15.42,0.84c-19.51-63.43-81.33-109.77-154.58-109.77
		c-53.13,0-100.25,24.39-129.57,61.99c-17.01-9.87-37.02-15.57-58.43-15.57c-18.44,0-35.84,4.22-51.18,11.7
		c0.12-1.99,0.18-4,0.18-6.02c0-58.6-50.14-106.1-112-106.1c-45.85,0-85.26,26.1-102.59,63.47l-75.52,27.07
		c2.03-7.44,3.11-15.24,3.11-23.28c0-51.27-43.88-92.83-98-92.83c-54.12,0-98,41.56-98,92.83c0,0.85,0.01,1.69,0.04,2.53
		c-57.74,10.54-103.45,53.07-115.75,107.36c-0.1,0-0.19,0-0.28,0c-30.98,0-59.22,11.12-80.51,29.38
		c-24.14-25.04-58.88-40.75-97.49-40.75c-62.96,0-115.61,41.75-128.81,97.62c-0.73-0.02-1.46-0.05-2.19-0.05
		c-31.25,0-58.35,16.78-71.86,41.33c-16.78-15.6-39.77-25.23-65.14-25.23c-26.92,0-51.16,10.84-68.14,28.15
		c-22.41-38.79-65.89-65.09-115.86-65.09c-6.45,0-12.79,0.45-19,1.29v276.62H-1315.96z"/>
	<g id="Stars">
		<path class="st2" d="M-1385.19,137.68l-4.98,0.95c-4.01,0.58-7.17,4.49-7.63,9.44l-0.77,6.16l-0.77-6.16
			c-0.46-4.96-3.63-8.87-8.15-9.52l-4.98-0.95l5.5-0.88c4.01-0.58,7.17-4.49,7.63-9.44l0.77-6.16l0.77,6.16
			c0.47,4.96,3.63,8.87,7.63,9.44L-1385.19,137.68z"/>
		<path class="st2" d="M-1398.44,547.26l-4.98,0.95c-4.01,0.58-7.17,4.49-7.63,9.44l-0.77,6.16l-0.77-6.16
			c-0.46-4.96-3.63-8.87-8.15-9.52l-4.98-0.95l5.5-0.88c4.01-0.57,7.17-4.48,7.63-9.44l0.77-6.16l0.77,6.16
			c0.46,4.96,3.63,8.87,7.63,9.44L-1398.44,547.26z"/>
		<path class="st2" d="M-2788.56,519.18l-5.92,1.13c-4.76,0.68-8.52,5.33-9.07,11.22l-0.91,7.32l-0.91-7.32
			c-0.55-5.89-4.31-10.53-9.68-11.31l-5.91-1.13l6.53-1.04c4.76-0.68,8.52-5.33,9.07-11.22l0.91-7.32l0.91,7.32
			c0.55,5.89,4.31,10.53,9.07,11.22L-2788.56,519.18z"/>
		<path class="st2" d="M-1797.97-140.82l-5.92,1.13c-4.76,0.68-8.52,5.33-9.07,11.22l-0.91,7.32l-0.91-7.32
			c-0.55-5.89-4.31-10.53-9.68-11.31l-5.91-1.13l6.53-1.04c4.76-0.68,8.52-5.33,9.07-11.22l0.91-7.32l0.91,7.32
			c0.55,5.89,4.31,10.53,9.07,11.22L-1797.97-140.82z"/>
		<path class="st2" d="M-1426.15,986.1l-5.91,1.13c-4.76,0.68-8.52,5.33-9.07,11.22l-0.91,7.32l-0.91-7.32
			c-0.55-5.89-4.31-10.53-9.68-11.31l-5.91-1.13l6.53-1.04c4.76-0.68,8.52-5.33,9.07-11.22l0.91-7.32l0.91,7.32
			c0.55,5.89,4.31,10.53,9.07,11.22L-1426.15,986.1z"/>
		<path class="st2" d="M-2345.78,514.5l-5.91,1.13c-4.76,0.68-8.52,5.33-9.07,11.22l-0.91,7.32l-0.91-7.32
			c-0.55-5.89-4.31-10.53-9.68-11.31l-5.91-1.13l6.53-1.04c4.76-0.68,8.52-5.33,9.07-11.22l0.91-7.32l0.91,7.32
			c0.55,5.89,4.31,10.53,9.07,11.22L-2345.78,514.5z"/>
		<path class="st2" d="M-3195.39,1180.35l-5.91,1.13c-4.76,0.68-8.52,5.33-9.07,11.22l-0.91,7.32l-0.91-7.32
			c-0.55-5.89-4.31-10.53-9.68-11.31l-5.91-1.13l6.53-1.04c4.76-0.68,8.52-5.33,9.07-11.22l0.91-7.32l0.91,7.32
			c0.55,5.89,4.31,10.53,9.07,11.22L-3195.39,1180.35z"/>
		<path class="st2" d="M-1917.18,540.24l-5.91,1.13c-4.76,0.68-8.52,5.33-9.07,11.22l-0.91,7.32l-0.91-7.32
			c-0.55-5.89-4.31-10.53-9.68-11.31l-5.91-1.13l6.53-1.04c4.76-0.68,8.52-5.33,9.07-11.22l0.91-7.32l0.91,7.32
			c0.55,5.89,4.31,10.53,9.07,11.22L-1917.18,540.24z"/>
		<path class="st2" d="M-2542.57,1003.65l-5.92,1.13c-4.76,0.68-8.52,5.33-9.07,11.22l-0.91,7.32l-0.91-7.32
			c-0.55-5.89-4.31-10.53-9.68-11.31l-5.92-1.13l6.53-1.04c4.76-0.68,8.52-5.33,9.07-11.22l0.91-7.32l0.91,7.32
			c0.55,5.89,4.31,10.53,9.07,11.22L-2542.57,1003.65z"/>
		<path class="st2" d="M-1370.84,47.56l-2.62,0.5c-2.11,0.3-3.77,2.36-4.02,4.97l-0.4,3.24l-0.41-3.24
			c-0.24-2.61-1.91-4.67-4.29-5.01l-2.62-0.5l2.89-0.46c2.11-0.3,3.77-2.36,4.02-4.97l0.41-3.24l0.4,3.24
			c0.24,2.61,1.91,4.67,4.02,4.97L-1370.84,47.56z"/>
		<path class="st2" d="M-1466.39,625.65l-2.62,0.5c-2.11,0.3-3.77,2.36-4.02,4.97l-0.4,3.24l-0.41-3.24
			c-0.24-2.61-1.91-4.67-4.29-5.01l-2.62-0.5l2.89-0.46c2.11-0.3,3.77-2.36,4.02-4.97l0.41-3.24l0.4,3.24
			c0.24,2.61,1.91,4.67,4.02,4.97L-1466.39,625.65z"/>
		<path class="st2" d="M-1974.46,1197.88l-2.62,0.5c-2.11,0.3-3.77,2.36-4.02,4.97l-0.4,3.24l-0.4-3.24
			c-0.24-2.61-1.91-4.67-4.29-5.01l-2.62-0.5l2.89-0.46c2.11-0.3,3.77-2.36,4.02-4.97l0.4-3.24l0.4,3.24
			c0.24,2.61,1.91,4.67,4.02,4.97L-1974.46,1197.88z"/>
		<path class="st2" d="M-3180.87,1060.98l-4.31,0.82c-3.47,0.5-6.2,3.88-6.61,8.17l-0.67,5.33l-0.67-5.33
			c-0.4-4.29-3.14-7.67-7.05-8.24l-4.31-0.82l4.76-0.76c3.47-0.5,6.2-3.88,6.61-8.17l0.67-5.33l0.67,5.33
			c0.4,4.29,3.14,7.67,6.61,8.17L-3180.87,1060.98z"/>
		<path class="st2" d="M-3123.16,687.68l-4.31,0.82c-3.47,0.5-6.2,3.88-6.61,8.17l-0.67,5.33l-0.67-5.33
			c-0.4-4.29-3.14-7.67-7.05-8.24l-4.31-0.82l4.76-0.76c3.47-0.5,6.2-3.88,6.61-8.17l0.67-5.33l0.67,5.33
			c0.4,4.29,3.14,7.67,6.61,8.17L-3123.16,687.68z"/>
		<path class="st2" d="M-2737.14,443.1l-4.31,0.82c-3.47,0.5-6.2,3.88-6.61,8.17l-0.67,5.33l-0.67-5.33
			c-0.4-4.29-3.14-7.67-7.05-8.24l-4.31-0.82l4.76-0.76c3.47-0.5,6.2-3.88,6.61-8.17l0.67-5.33l0.67,5.33
			c0.4,4.29,3.14,7.67,6.61,8.17L-2737.14,443.1z"/>
		<path class="st2" d="M-2258.49,575.32l-2.21,0.42c-1.78,0.25-3.18,1.99-3.38,4.18l-0.34,2.73l-0.34-2.73
			c-0.21-2.2-1.61-3.93-3.61-4.22l-2.21-0.42l2.44-0.39c1.78-0.25,3.18-1.99,3.38-4.19l0.34-2.73l0.34,2.73
			c0.21,2.2,1.61,3.93,3.38,4.19L-2258.49,575.32z"/>
		<path class="st2" d="M-3211.23,747.35l-2.21,0.42c-1.78,0.25-3.18,1.99-3.38,4.18l-0.34,2.73l-0.34-2.73
			c-0.21-2.2-1.61-3.93-3.61-4.22l-2.21-0.42l2.44-0.39c1.78-0.25,3.18-1.99,3.38-4.18l0.34-2.73l0.34,2.73
			c0.21,2.2,1.61,3.93,3.38,4.18L-3211.23,747.35z"/>
		<path class="st2" d="M-2329.45-7.45l-2.21,0.42c-1.78,0.25-3.18,1.99-3.38,4.19l-0.34,2.73l-0.34-2.73
			c-0.21-2.2-1.61-3.93-3.61-4.22l-2.21-0.42l2.44-0.39c1.78-0.25,3.18-1.99,3.38-4.19l0.34-2.73l0.34,2.73
			c0.21,2.2,1.61,3.93,3.38,4.19L-2329.45-7.45z"/>
		<path class="st2" d="M-1536.59,1125.33l-2.21,0.42c-1.78,0.25-3.18,1.99-3.38,4.19l-0.34,2.73l-0.34-2.73
			c-0.21-2.2-1.61-3.93-3.61-4.22l-2.21-0.42l2.44-0.39c1.78-0.25,3.18-1.99,3.38-4.18l0.34-2.73l0.34,2.73
			c0.21,2.2,1.61,3.93,3.38,4.18L-1536.59,1125.33z"/>
		<path class="st2" d="M-2221.25,63.93l-1.29,0.25c-1.04,0.15-1.86,1.16-1.98,2.45l-0.2,1.6l-0.2-1.6c-0.12-1.29-0.94-2.3-2.12-2.47
			l-1.29-0.25l1.43-0.23c1.04-0.15,1.86-1.16,1.98-2.45l0.2-1.6l0.2,1.6c0.12,1.29,0.94,2.3,1.98,2.45L-2221.25,63.93z"/>
		<path class="st2" d="M-2221.25,514.47l-1.29,0.25c-1.04,0.15-1.86,1.16-1.98,2.45l-0.2,1.6l-0.2-1.6
			c-0.12-1.29-0.94-2.3-2.12-2.47l-1.29-0.25l1.43-0.23c1.04-0.15,1.86-1.16,1.98-2.45l0.2-1.6l0.2,1.6
			c0.12,1.29,0.94,2.3,1.98,2.45L-2221.25,514.47z"/>
		<path class="st2" d="M-1382.04,713.4l-1.29,0.25c-1.04,0.15-1.86,1.16-1.98,2.45l-0.2,1.6l-0.2-1.6c-0.12-1.29-0.94-2.3-2.12-2.47
			l-1.29-0.25l1.43-0.23c1.04-0.15,1.86-1.16,1.98-2.45l0.2-1.6l0.2,1.6c0.12,1.29,0.94,2.3,1.98,2.45L-1382.04,713.4z"/>
		<path class="st2" d="M-2282.3,47.57l-3.88,0.74c-3.12,0.45-5.58,3.49-5.94,7.35l-0.6,4.79l-0.6-4.79
			c-0.36-3.86-2.82-6.9-6.35-7.41l-3.88-0.74l4.28-0.68c3.12-0.45,5.58-3.49,5.94-7.35l0.6-4.79l0.6,4.79
			c0.36,3.86,2.82,6.9,5.94,7.35L-2282.3,47.57z"/>
		<path class="st2" d="M-2707.1,560.12l-3.88,0.74c-3.12,0.45-5.58,3.49-5.94,7.35l-0.6,4.79l-0.6-4.79
			c-0.36-3.86-2.82-6.9-6.35-7.41l-3.88-0.74l4.28-0.68c3.12-0.45,5.58-3.49,5.94-7.35l0.6-4.79l0.6,4.79
			c0.36,3.86,2.82,6.9,5.94,7.35L-2707.1,560.12z"/>
		<path class="st2" d="M-2038.29,989.61l-5.91,1.13c-4.76,0.68-8.52,5.33-9.07,11.22l-0.91,7.32l-0.91-7.32
			c-0.55-5.89-4.31-10.53-9.68-11.31l-5.91-1.13l6.53-1.04c4.76-0.68,8.52-5.33,9.07-11.22l0.91-7.32l0.91,7.32
			c0.55,5.89,4.31,10.53,9.07,11.22L-2038.29,989.61z"/>
		<path class="st2" d="M-3122.27,7.79l-4.63,0.89c-3.73,0.54-6.67,4.17-7.1,8.79l-0.72,5.73l-0.72-5.73
			c-0.43-4.61-3.37-8.25-7.59-8.85l-4.63-0.89l5.11-0.82c3.73-0.54,6.67-4.17,7.1-8.79l0.72-5.73l0.72,5.73
			c0.43,4.61,3.37,8.25,7.1,8.79L-3122.27,7.79z"/>
		<path class="st2" d="M-3192.28,594.07l-4.63,0.89c-3.73,0.54-6.67,4.17-7.1,8.79l-0.72,5.73l-0.72-5.73
			c-0.43-4.61-3.37-8.25-7.59-8.85l-4.63-0.89l5.11-0.82c3.73-0.54,6.67-4.17,7.1-8.79l0.72-5.73l0.72,5.73
			c0.43,4.61,3.37,8.25,7.1,8.79L-3192.28,594.07z"/>
		<path class="st2" d="M-3165.81,83.83l-2.21,0.42c-1.78,0.26-3.18,1.99-3.39,4.19l-0.34,2.73l-0.34-2.73
			c-0.21-2.2-1.61-3.94-3.62-4.22l-2.21-0.42l2.44-0.39c1.78-0.26,3.18-1.99,3.39-4.19l0.34-2.73l0.34,2.73
			c0.21,2.2,1.61,3.94,3.39,4.19L-3165.81,83.83z"/>
		<path class="st2" d="M-1882.86,672.46l-2.9,0.55c-2.34,0.34-4.18,2.61-4.45,5.5l-0.45,3.59l-0.45-3.59
			c-0.27-2.89-2.11-5.17-4.75-5.55l-2.9-0.55l3.2-0.51c2.34-0.34,4.18-2.61,4.45-5.5l0.45-3.59l0.45,3.59
			c0.27,2.89,2.11,5.17,4.45,5.5L-1882.86,672.46z"/>
		<path class="st2" d="M-2647.33,1115.97l-2.9,0.55c-2.34,0.34-4.18,2.61-4.45,5.5l-0.45,3.59l-0.45-3.59
			c-0.27-2.89-2.11-5.17-4.75-5.55l-2.9-0.55l3.2-0.51c2.34-0.34,4.18-2.61,4.45-5.5l0.45-3.59l0.45,3.59
			c0.27,2.89,2.11,5.17,4.45,5.5L-2647.33,1115.97z"/>
		<path class="st2" d="M-1875.29-78.82l-2.9,0.55c-2.34,0.34-4.18,2.61-4.45,5.5l-0.45,3.59l-0.45-3.59
			c-0.27-2.89-2.11-5.17-4.75-5.55l-2.9-0.55l3.2-0.51c2.34-0.34,4.18-2.61,4.45-5.5l0.45-3.59l0.45,3.59
			c0.27,2.89,2.11,5.17,4.45,5.5L-1875.29-78.82z"/>
		<path class="st2" d="M-1853.53,584.69l-2.9,0.55c-2.34,0.34-4.18,2.61-4.45,5.5l-0.45,3.59l-0.45-3.59
			c-0.27-2.89-2.11-5.17-4.75-5.55l-2.9-0.55l3.2-0.51c2.34-0.34,4.18-2.61,4.45-5.5l0.45-3.59l0.45,3.59
			c0.27,2.89,2.11,5.17,4.45,5.5L-1853.53,584.69z"/>
		<path class="st2" d="M-3079.4,1122.99l-3.01,0.58c-2.43,0.35-4.34,2.72-4.62,5.72l-0.47,3.73l-0.47-3.73
			c-0.28-3-2.2-5.37-4.94-5.76l-3.01-0.58l3.33-0.53c2.43-0.35,4.34-2.72,4.62-5.72l0.47-3.73l0.47,3.73c0.28,3,2.2,5.37,4.62,5.72
			L-3079.4,1122.99z"/>
		<path class="st2" d="M-1787,20.65l-3.01,0.58c-2.43,0.35-4.34,2.72-4.62,5.72l-0.47,3.73l-0.47-3.73c-0.28-3-2.2-5.37-4.94-5.76
			l-3.01-0.58l3.33-0.53c2.43-0.35,4.34-2.72,4.62-5.72l0.47-3.73l0.47,3.73c0.28,3,2.2,5.37,4.62,5.72L-1787,20.65z"/>
		<path class="st2" d="M-1428.42,1101.93l-3.01,0.58c-2.43,0.35-4.34,2.72-4.62,5.72l-0.47,3.73l-0.47-3.73
			c-0.28-3-2.2-5.37-4.94-5.76l-3.01-0.58l3.33-0.53c2.43-0.35,4.34-2.72,4.62-5.72l0.47-3.73l0.47,3.73c0.28,3,2.2,5.37,4.62,5.72
			L-1428.42,1101.93z"/>
		<path class="st2" d="M-1982.84,636.18l-3.01,0.58c-2.43,0.35-4.34,2.72-4.62,5.72l-0.47,3.73l-0.47-3.73
			c-0.28-3-2.2-5.37-4.94-5.76l-3.02-0.58l3.33-0.53c2.43-0.35,4.34-2.72,4.62-5.72l0.47-3.73l0.47,3.73c0.28,3,2.2,5.37,4.62,5.72
			L-1982.84,636.18z"/>
		<path class="st2" d="M-2290.33,432.56l-3.01,0.58c-2.43,0.35-4.34,2.72-4.62,5.72l-0.47,3.73l-0.47-3.73
			c-0.28-3-2.2-5.37-4.94-5.76l-3.01-0.58l3.33-0.53c2.43-0.35,4.34-2.72,4.62-5.72l0.47-3.73l0.47,3.73c0.28,3,2.2,5.37,4.62,5.72
			L-2290.33,432.56z"/>
		<path class="st2" d="M-1436.93,47.56l-3.01,0.58c-2.43,0.35-4.34,2.72-4.62,5.72l-0.47,3.73l-0.47-3.73
			c-0.28-3-2.2-5.37-4.94-5.76l-3.01-0.58l3.33-0.53c2.43-0.35,4.34-2.72,4.62-5.72l0.47-3.73l0.47,3.73c0.28,3,2.2,5.37,4.62,5.72
			L-1436.93,47.56z"/>
		<path class="st2" d="M-1972.44,1101.93l-3.01,0.58c-2.43,0.35-4.34,2.72-4.62,5.72l-0.47,3.73l-0.47-3.73
			c-0.28-3-2.2-5.37-4.94-5.76l-3.01-0.58l3.33-0.53c2.43-0.35,4.34-2.72,4.62-5.72l0.47-3.73l0.47,3.73c0.28,3,2.2,5.37,4.62,5.72
			L-1972.44,1101.93z"/>
		<path class="st2" d="M-2833.41-13.29l-3.01,0.58c-2.43,0.35-4.34,2.72-4.62,5.72l-0.47,3.73l-0.47-3.73
			c-0.28-3-2.2-5.37-4.94-5.76l-3.01-0.58l3.33-0.53c2.43-0.35,4.34-2.72,4.62-5.72l0.47-3.73l0.47,3.73c0.28,3,2.2,5.37,4.62,5.72
			L-2833.41-13.29z"/>
		<path class="st2" d="M-2782.63,26.49l-1.52,0.29c-1.22,0.18-2.19,1.37-2.33,2.88l-0.23,1.88l-0.23-1.88
			c-0.14-1.51-1.11-2.7-2.49-2.9l-1.52-0.29l1.68-0.27c1.22-0.18,2.19-1.37,2.33-2.88l0.23-1.88l0.23,1.88
			c0.14,1.51,1.11,2.7,2.33,2.88L-2782.63,26.49z"/>
		<path class="st2" d="M-2780.74,83.83l-2.21,0.42c-1.78,0.26-3.18,1.99-3.39,4.19l-0.34,2.73l-0.34-2.73
			c-0.21-2.2-1.61-3.94-3.62-4.22l-2.21-0.42l2.44-0.39c1.78-0.26,3.18-1.99,3.39-4.19l0.34-2.73l0.34,2.73
			c0.21,2.2,1.61,3.94,3.39,4.19L-2780.74,83.83z"/>
		<path class="st2" d="M-2734.38,54.58l-2.21,0.42c-1.78,0.26-3.18,1.99-3.39,4.19l-0.34,2.73l-0.34-2.73
			c-0.21-2.2-1.61-3.94-3.62-4.22l-2.21-0.42l2.44-0.39c1.78-0.26,3.18-1.99,3.39-4.19l0.34-2.73l0.34,2.73
			c0.21,2.2,1.61,3.94,3.39,4.19L-2734.38,54.58z"/>
		<path class="st2" d="M-2784.53-9.8l-0.83,0.16c-0.67,0.1-1.19,0.74-1.27,1.57l-0.13,1.02l-0.13-1.02
			c-0.08-0.82-0.6-1.47-1.35-1.58l-0.83-0.16l0.91-0.15c0.66-0.1,1.19-0.74,1.27-1.57l0.13-1.02l0.13,1.02
			c0.08,0.82,0.6,1.47,1.27,1.57L-2784.53-9.8z"/>
	</g>
	<g id="START">
		<path d="M-2557.37,1469.37v4.69h-18.27v-5.68c0-15.55-5.92-24.68-19.75-24.68c-13.82,0-19.75,9.13-19.75,24.44
			c0,38.75,58.01,42.46,58.01,91.08c0,26.17-12.59,43.2-39,43.2c-26.41,0-38.75-17.03-38.75-43.2v-9.87h18.02v10.86
			c0,15.55,6.42,24.68,20.24,24.68c13.82,0,20.24-9.13,20.24-24.68c0-38.51-57.76-42.21-57.76-90.84c0-26.66,12.34-43.2,38.26-43.2
			C-2569.71,1426.18-2557.37,1443.21-2557.37,1469.37z"/>
		<path d="M-2515.16,1600.69v-155.26H-2547v-17.53h82.94v17.53h-31.84v155.26H-2515.16z"/>
		<path d="M-2440.61,1565.89l-6.67,34.81h-17.77l33.08-172.79h27.89l33.08,172.79h-19.25l-6.67-34.81H-2440.61z M-2438.14,1549.35
			h38.51l-19.5-99.72L-2438.14,1549.35z"/>
		<path d="M-2317.44,1427.9c27.15,0,38.51,13.82,38.51,39.49v14.07c0,19.01-6.66,30.86-21.48,35.54
			c15.8,4.69,21.72,17.53,21.72,36.04v26.91c0,7.65,0.25,14.81,3.46,20.73h-19.5c-2.22-4.94-3.21-9.38-3.21-20.98v-27.15
			c0-19.5-9.13-25.67-25.18-25.67h-13.58v73.81h-19.25V1427.9H-2317.44z M-2322.37,1509.36c15.3,0,24.44-4.94,24.44-23.7v-16.54
			c0-15.55-5.68-23.7-19.99-23.7h-18.76v63.93H-2322.37z"/>
		<path d="M-2233.51,1600.69v-155.26h-31.84v-17.53h82.94v17.53h-31.84v155.26H-2233.51z"/>
	</g>
	<g id="UP">
		<path class="st3" d="M-2150.82,1559.96c0,15.55,6.17,24.93,20.24,24.93c13.82,0,19.99-9.38,19.99-24.93V1427.9h18.02v131.07
			c0,26.17-12.09,43.69-38.75,43.69c-26.41,0-38.51-17.53-38.51-43.69V1427.9h19.01V1559.96z"/>
		<path class="st3" d="M-2035.79,1427.9c27.15,0,38.75,16.04,38.75,42.21v20.73c0,27.4-12.84,41.72-40.24,41.72h-17.03v68.13h-19.25
			V1427.9H-2035.79z M-2037.27,1515.29c14.32,0,21.23-6.66,21.23-23.2v-22.96c0-15.8-5.68-23.7-19.75-23.7h-18.52v69.86H-2037.27z"
			/>
	</g>
	<g id="Lorem_Ipsum">
		<path d="M-2497.39,1696.09v-58.86h6.56v52.89h16.82v5.97H-2497.39z"/>
		<path d="M-2469.55,1651.44c0-9,4.46-14.8,13.45-14.8c9.08,0,13.54,5.8,13.54,14.8v30.44c0,8.91-4.46,14.8-13.54,14.8
			c-9,0-13.45-5.89-13.45-14.8V1651.44z M-2463.08,1682.22c0,5.38,2.27,8.49,6.98,8.49c4.79,0,6.98-3.11,6.98-8.49v-31.11
			c0-5.3-2.19-8.49-6.98-8.49c-4.71,0-6.98,3.2-6.98,8.49V1682.22z"/>
		<path d="M-2423.22,1637.23c9.25,0,13.12,4.71,13.12,13.45v4.79c0,6.47-2.27,10.51-7.32,12.11c5.38,1.6,7.4,5.97,7.4,12.28v9.17
			c0,2.61,0.08,5.05,1.18,7.06h-6.64c-0.76-1.68-1.09-3.2-1.09-7.15v-9.25c0-6.64-3.11-8.74-8.58-8.74h-4.62v25.14h-6.56v-58.86
			H-2423.22z M-2424.9,1664.98c5.21,0,8.32-1.68,8.32-8.07v-5.63c0-5.3-1.93-8.07-6.81-8.07h-6.39v21.78H-2424.9z"/>
		<path d="M-2382.27,1663.3v5.89h-14.38v20.94h17.66v5.97h-24.22v-58.86h24.22v5.97h-17.66v20.1H-2382.27z"/>
		<path d="M-2351.24,1696.01h-6.31l-9.75-46.84v46.92h-5.72v-58.86h9.17l9.67,47l9.33-47h9.17v58.86h-6.22v-47.34L-2351.24,1696.01z
			"/>
		<path d="M-2309.37,1637.23v58.86h-6.56v-58.86H-2309.37z"/>
		<path d="M-2289.78,1637.23c9.25,0,13.2,5.47,13.2,14.38v7.06c0,9.33-4.37,14.21-13.71,14.21h-5.8v23.21h-6.56v-58.86H-2289.78z
			 M-2290.28,1667c4.88,0,7.23-2.27,7.23-7.9v-7.82c0-5.38-1.93-8.07-6.73-8.07h-6.31v23.8H-2290.28z"/>
		<path d="M-2245.72,1651.36v1.6h-6.22v-1.93c0-5.3-2.02-8.41-6.73-8.41c-4.71,0-6.73,3.11-6.73,8.32
			c0,13.2,19.76,14.46,19.76,31.03c0,8.91-4.29,14.71-13.29,14.71c-9,0-13.2-5.8-13.2-14.71v-3.36h6.14v3.7
			c0,5.3,2.19,8.41,6.9,8.41c4.71,0,6.9-3.11,6.9-8.41c0-13.12-19.68-14.38-19.68-30.94c0-9.08,4.2-14.72,13.03-14.72
			C-2249.92,1636.64-2245.72,1642.45-2245.72,1651.36z"/>
		<path d="M-2233.69,1682.22c0,5.3,2.1,8.49,6.9,8.49c4.71,0,6.81-3.2,6.81-8.49v-44.99h6.14v44.65c0,8.91-4.12,14.88-13.2,14.88
			c-9,0-13.12-5.97-13.12-14.88v-44.65h6.47V1682.22z"/>
		<path d="M-2185.68,1696.01h-6.31l-9.75-46.84v46.92h-5.72v-58.86h9.17l9.67,47l9.33-47h9.17v58.86h-6.22v-47.34L-2185.68,1696.01z
			"/>
	</g>
</g>
<g id="Rocket_1_">
	<g>
		<g id="Fire">
			<path class="st4" d="M-2384.83,532.08c-14.2,31-22.73,70.62-22.73,113.8c0,99.29,100.61,179.77,100.61,179.77
				s100.61-80.49,100.61-179.77c0-43.19-8.53-82.81-22.73-113.8H-2384.83z"/>
			<path class="st5" d="M-2369.4,542.66c-11.39,24.85-18.23,56.62-18.23,91.25c0,79.61,80.67,144.14,80.67,144.14
				s80.67-64.54,80.67-144.14c0-34.63-6.84-66.39-18.23-91.25H-2369.4z"/>
			<path class="st6" d="M-2346.95,542.66c-7.29,17.87-11.67,40.72-11.67,65.62c0,57.25,51.66,103.65,51.66,103.65
				s51.66-46.41,51.66-103.65c0-24.9-4.38-47.74-11.67-65.62H-2346.95z"/>
		</g>
		<g id="Rocket">
			<g id="Wings">
				<g id="Wing_1_">
					<path class="st3" d="M-2151.68,278.17c0,0,119.02,203.65,23.8,317.38c0,0-79.34-68.77-89.92-108.44
						C-2228.38,447.44-2151.68,278.17-2151.68,278.17z"/>
					<g class="st7">
						<path d="M-2151.68,278.17c0,0-3.82,8.42-9.62,21.93c26.27,53.38,83.6,192.45,20.87,284.08c7.6,7.06,12.56,11.36,12.56,11.36
							C-2032.66,481.82-2151.68,278.17-2151.68,278.17z"/>
					</g>
				</g>
				<g id="Wing">
					<path class="st3" d="M-2462.23,278.17c0,0-119.02,203.65-23.8,317.38c0,0,79.34-68.77,89.92-108.44
						C-2385.53,447.44-2462.23,278.17-2462.23,278.17z"/>
					<g class="st7">
						<path d="M-2462.23,278.17c0,0,3.82,8.42,9.62,21.93c-26.27,53.38-83.6,192.45-20.87,284.08c-7.6,7.06-12.56,11.36-12.56,11.36
							C-2581.25,481.82-2462.23,278.17-2462.23,278.17z"/>
					</g>
				</g>
			</g>
			<g id="Body">
				<path class="st8" d="M-2197.35,519.74c2.95,0,5.61-1.81,6.64-4.58c23.53-63.3,37.77-145.86,37.77-236.19
					c0-140.29-76.7-261.89-122.11-321.59c-18-23.66-47.34-23.66-65.34,0c-45.42,59.7-122.11,181.3-122.11,321.59
					c0,90.33,14.24,172.9,37.77,236.19c1.03,2.77,3.69,4.58,6.64,4.58H-2197.35z"/>
				<path class="st3" d="M-2340.39-42.62c-12.78,16.8-28.03,38.5-43.36,64.13h152.06c-15.33-25.64-30.58-47.33-43.36-64.13
					C-2293.06-66.28-2322.39-66.28-2340.39-42.62z"/>
				<g class="st7">
					<path d="M-2275.06-42.62c-13.22-17.38-32.53-21.94-49-13.8c5.31,2.95,10.3,7.23,14.62,12.91
						c45.42,59.7,122.11,181.3,122.11,321.59c0,90.33-14.24,172.9-37.77,236.19c-1.03,2.77-3.69,4.58-6.64,4.58h-189.79
						c1.03,0.56,2.19,0.89,3.42,0.89h220.75c2.95,0,5.61-1.81,6.64-4.58c23.53-63.3,37.77-145.86,37.77-236.19
						C-2152.94,138.68-2229.64,17.09-2275.06-42.62z"/>
				</g>
			</g>
			<g id="Down">
				<path class="st3" d="M-2220.12,543.65h-175.22c-6.78,0-12.88-4.39-15.4-11.09l-4.82-12.81h215.64l-4.82,12.81
					C-2207.24,539.25-2213.33,543.65-2220.12,543.65z"/>
				<polygon class="st9" points="-2415.55,519.74 -2411.9,529.43 -2203.54,529.43 -2199.9,519.74 				"/>
			</g>
			<g>
				<path class="st3" d="M-2284.28,408.92c0,65.38-5.88,128.39-11.75,175c-1.95,15.51-21.42,15.51-23.38,0
					c-5.87-46.61-11.75-109.62-11.75-175c0-19.83,0.56-36.94,1.51-51.69c2.02-31.43,42.08-31.32,43.97,0.11
					C-2284.8,372.07-2284.28,389.14-2284.28,408.92z"/>
				<g class="st7">
					<path d="M-2285.69,357.34c-0.96-15.94-11.73-23.81-22.38-23.61c6.29,3.51,11.17,10.49,11.8,20.97
						c0.89,14.73,1.41,31.8,1.41,51.58c0,65.38-5.88,128.39-11.75,175c-0.8,6.32-4.51,10.02-8.76,11.19
						c6.36,6.03,17.86,3.19,19.34-8.54c5.87-46.61,11.75-109.62,11.75-175C-2284.28,389.14-2284.8,372.07-2285.69,357.34z"/>
				</g>
			</g>
			<g id="Window">
				<g class="st7">
					<circle cx="-2302.43" cy="214.7" r="89.92"/>
				</g>
				<circle class="st3" cx="-2307.72" cy="209.41" r="89.92"/>
				<g class="st7">
					<path d="M-2248.58,268.55c6.38-6.45,11.42-13.59,14.94-20.61c1.82-3.48,3.17-6.96,4.34-10.24c0.26-0.83,0.52-1.65,0.78-2.45
						c0.12-0.4,0.26-0.8,0.37-1.19c0.1-0.4,0.21-0.79,0.31-1.18c0.2-0.78,0.4-1.55,0.6-2.3c0.2-0.75,0.32-1.5,0.48-2.22
						c0.15-0.72,0.29-1.43,0.43-2.12c0.1-0.69,0.21-1.37,0.31-2.03c0.1-0.66,0.19-1.3,0.28-1.92c0.08-0.62,0.12-1.23,0.18-1.81
						c0.05-0.58,0.1-1.15,0.15-1.69c0.05-0.54,0.09-1.06,0.1-1.56c0.02-1,0.04-1.92,0.06-2.74c0.03-0.82-0.02-1.55-0.05-2.18
						c-0.04-0.63-0.08-1.17-0.12-1.6c-0.09-0.86-0.19-1.31-0.3-1.31s-0.24,0.45-0.37,1.3c-0.06,0.43-0.13,0.95-0.2,1.57
						c-0.07,0.62-0.12,1.34-0.25,2.14c-0.1,0.8-0.22,1.69-0.35,2.67c-0.05,0.49-0.14,0.99-0.23,1.52c-0.09,0.53-0.18,1.07-0.28,1.64
						c-0.1,0.56-0.18,1.15-0.3,1.75c-0.13,0.6-0.26,1.21-0.39,1.85c-0.13,0.63-0.27,1.28-0.41,1.95c-0.17,0.66-0.35,1.34-0.53,2.04
						c-0.19,0.69-0.34,1.41-0.57,2.13c-0.22,0.72-0.45,1.45-0.68,2.2c-0.11,0.37-0.23,0.75-0.35,1.13
						c-0.13,0.38-0.27,0.76-0.41,1.14c-0.27,0.76-0.55,1.54-0.84,2.34c-1.24,3.13-2.64,6.45-4.47,9.76
						c-3.53,6.68-8.45,13.48-14.58,19.68c-6.19,6.13-12.99,11.04-19.68,14.58c-3.31,1.83-6.64,3.22-9.76,4.47
						c-0.79,0.28-1.57,0.56-2.34,0.84c-0.38,0.14-0.76,0.28-1.14,0.41c-0.38,0.12-0.76,0.23-1.13,0.35
						c-0.75,0.23-1.48,0.46-2.2,0.68c-0.72,0.22-1.44,0.38-2.13,0.57c-0.7,0.18-1.37,0.36-2.04,0.53c-0.67,0.14-1.32,0.28-1.95,0.41
						c-0.63,0.14-1.25,0.27-1.85,0.39c-0.6,0.12-1.19,0.2-1.75,0.3c-0.56,0.1-1.11,0.19-1.64,0.28c-0.52,0.09-1.03,0.18-1.52,0.23
						c-0.98,0.13-1.87,0.24-2.67,0.35c-0.8,0.13-1.52,0.18-2.14,0.25c-0.62,0.07-1.15,0.13-1.57,0.2c-0.85,0.13-1.3,0.25-1.3,0.37
						c0,0.11,0.45,0.21,1.31,0.3c0.43,0.04,0.97,0.08,1.6,0.12c0.63,0.03,1.36,0.08,2.18,0.05c0.82-0.02,1.74-0.04,2.74-0.06
						c0.5,0,1.02-0.05,1.56-0.1c0.54-0.05,1.1-0.1,1.69-0.15c0.58-0.06,1.19-0.09,1.81-0.18c0.62-0.09,1.26-0.18,1.92-0.28
						c0.66-0.1,1.33-0.2,2.03-0.31c0.69-0.14,1.4-0.28,2.12-0.43c0.72-0.16,1.47-0.28,2.22-0.48c0.75-0.19,1.51-0.39,2.3-0.6
						c0.39-0.1,0.79-0.21,1.18-0.31c0.4-0.11,0.79-0.25,1.19-0.37c0.8-0.26,1.62-0.51,2.45-0.78c3.28-1.17,6.76-2.52,10.24-4.34
						C-2262.17,279.98-2255.03,274.94-2248.58,268.55z"/>
				</g>
				<g class="st10">
					<path class="st2" d="M-2366.87,150.26c-6.38,6.45-11.42,13.59-14.94,20.61c-1.82,3.48-3.17,6.96-4.34,10.24
						c-0.26,0.83-0.52,1.65-0.78,2.45c-0.12,0.4-0.26,0.8-0.37,1.19c-0.1,0.4-0.21,0.79-0.31,1.18c-0.2,0.78-0.4,1.55-0.6,2.3
						c-0.2,0.75-0.32,1.5-0.48,2.22c-0.15,0.72-0.29,1.43-0.43,2.12c-0.1,0.69-0.21,1.37-0.31,2.03c-0.1,0.66-0.19,1.3-0.28,1.92
						c-0.08,0.62-0.12,1.23-0.18,1.81c-0.05,0.58-0.1,1.15-0.15,1.69c-0.05,0.54-0.09,1.06-0.1,1.56c-0.02,1-0.04,1.92-0.06,2.74
						c-0.03,0.82,0.02,1.55,0.05,2.18c0.04,0.63,0.08,1.17,0.12,1.6c0.09,0.86,0.19,1.31,0.3,1.31c0.11,0,0.24-0.45,0.37-1.3
						c0.06-0.43,0.13-0.95,0.2-1.57c0.07-0.62,0.12-1.34,0.25-2.14c0.1-0.8,0.22-1.69,0.35-2.67c0.05-0.49,0.14-0.99,0.23-1.52
						c0.09-0.53,0.18-1.07,0.28-1.64c0.1-0.56,0.18-1.15,0.3-1.75c0.13-0.6,0.26-1.21,0.39-1.85c0.13-0.63,0.27-1.28,0.41-1.95
						c0.17-0.66,0.35-1.34,0.53-2.04c0.19-0.69,0.34-1.41,0.57-2.13c0.22-0.72,0.45-1.45,0.68-2.2c0.11-0.37,0.23-0.75,0.35-1.13
						c0.13-0.38,0.27-0.76,0.41-1.14c0.27-0.76,0.55-1.54,0.84-2.34c1.24-3.13,2.64-6.45,4.47-9.76
						c3.53-6.68,8.45-13.48,14.57-19.68c6.2-6.13,12.99-11.04,19.68-14.58c3.31-1.83,6.64-3.22,9.76-4.47
						c0.79-0.28,1.57-0.56,2.34-0.84c0.38-0.14,0.76-0.28,1.14-0.41c0.38-0.12,0.76-0.23,1.13-0.35c0.75-0.23,1.48-0.46,2.2-0.68
						c0.72-0.22,1.44-0.38,2.13-0.57c0.7-0.18,1.37-0.36,2.04-0.53c0.67-0.14,1.32-0.28,1.95-0.41c0.63-0.14,1.25-0.27,1.85-0.39
						c0.6-0.12,1.19-0.2,1.75-0.3c0.56-0.1,1.11-0.19,1.64-0.28c0.53-0.09,1.03-0.18,1.52-0.23c0.98-0.13,1.87-0.24,2.67-0.35
						c0.8-0.13,1.52-0.18,2.14-0.25c0.62-0.07,1.15-0.13,1.57-0.2c0.85-0.13,1.3-0.25,1.3-0.37c0-0.11-0.45-0.21-1.31-0.3
						c-0.43-0.04-0.97-0.08-1.6-0.12c-0.63-0.03-1.36-0.08-2.18-0.05c-0.82,0.02-1.74,0.04-2.74,0.06c-0.5,0-1.02,0.05-1.56,0.1
						c-0.54,0.05-1.1,0.1-1.69,0.15c-0.58,0.06-1.19,0.09-1.81,0.18c-0.62,0.09-1.26,0.18-1.92,0.28c-0.66,0.1-1.33,0.2-2.03,0.31
						c-0.69,0.14-1.4,0.28-2.12,0.43c-0.72,0.16-1.47,0.28-2.22,0.48c-0.75,0.2-1.51,0.39-2.3,0.6c-0.39,0.1-0.79,0.21-1.18,0.31
						c-0.4,0.11-0.79,0.25-1.19,0.37c-0.8,0.26-1.62,0.51-2.45,0.78c-3.28,1.17-6.76,2.52-10.24,4.34
						C-2353.28,138.84-2360.42,143.88-2366.87,150.26z"/>
				</g>
				
					<ellipse transform="matrix(0.7071 -0.7071 0.7071 0.7071 -823.9903 -1570.4734)" class="st3" cx="-2307.72" cy="209.41" rx="74.06" ry="74.06"/>
				<g>
					<circle class="st11" cx="-2307.72" cy="209.41" r="68.21"/>
					<g class="st7">
						<path d="M-2268.1,153.91c7.99,11.17,12.71,24.85,12.71,39.63c0,37.67-30.54,68.21-68.21,68.21
							c-14.78,0-28.46-4.72-39.63-12.71c12.37,17.3,32.61,28.58,55.5,28.58c37.67,0,68.21-30.54,68.21-68.21
							C-2239.52,186.52-2250.8,166.28-2268.1,153.91z"/>
					</g>
					<path class="st12" d="M-2314.05,154.03c8.37,0.35,22.78,2.79,23.53,13.48c0.42,6.08-4.47,11.23-9.48,13.88
						c-8.7,4.61-19.58,3.13-28,8.67c-7.34,4.84-14.26,12.4-23.94,10.97c-14.3-2.11-11.85-17.69-4.88-26.43
						C-2346.5,161.63-2330.29,153.36-2314.05,154.03z"/>
					<path class="st2" d="M-2332.34,162.96c-2.88,1.74-4.67,4.25-3.74,7.17c1.52,4.79,7.48,4.86,11.47,4.2
						c2.49-0.42,5.04-1.01,7.09-2.51c2.04-1.49,3.47-4.08,2.9-6.55C-2316.02,159.11-2326.46,159.42-2332.34,162.96z"/>
					<path class="st2" d="M-2346.18,180.95c1.78,0.73,4.18,0.53,5.53-0.36c8.41-5.53-8.31-9.19-7.74-2.44
						C-2348.28,179.56-2347.37,180.46-2346.18,180.95z"/>
				</g>
			</g>
		</g>
	</g>
	<g>
		<g id="Fire_00000139972286288649395570000017589877030273475477_">
			<path class="st4" d="M138.12,592.44c-14.2,31-22.73,70.62-22.73,113.8c0,99.29,100.61,179.77,100.61,179.77
				s100.61-80.49,100.61-179.77c0-43.19-8.53-82.81-22.73-113.8H138.12z"/>
			<path class="st5" d="M153.56,603.02c-11.39,24.85-18.23,56.62-18.23,91.25c0,79.61,80.67,144.14,80.67,144.14
				s80.67-64.54,80.67-144.14c0-34.63-6.84-66.39-18.23-91.25H153.56z"/>
			<path class="st6" d="M176.01,603.02c-7.29,17.87-11.67,40.72-11.67,65.62c0,57.25,51.66,103.65,51.66,103.65
				s51.66-46.41,51.66-103.65c0-24.9-4.38-47.74-11.67-65.62H176.01z"/>
		</g>
		<g id="Rocket_00000116949708705333456330000015848870933491020943_">
			<g id="Wings_00000045618120582141906820000007873162667951026619_">
				<g id="Wing_00000078009356160719254530000012317142785537043105_">
					<path class="st3" d="M371.28,338.54c0,0,119.02,203.65,23.8,317.38c0,0-79.34-68.77-89.92-108.44
						C294.58,507.81,371.28,338.54,371.28,338.54z"/>
					<g class="st7">
						<path d="M371.28,338.54c0,0-3.82,8.42-9.62,21.93c26.27,53.38,83.6,192.45,20.87,284.08c7.6,7.06,12.56,11.36,12.56,11.36
							C490.29,542.19,371.28,338.54,371.28,338.54z"/>
					</g>
				</g>
				<g id="Wing_00000069369824908864233200000005896618951927335342_">
					<path class="st3" d="M60.72,338.54c0,0-119.02,203.65-23.8,317.38c0,0,79.34-68.77,89.92-108.44
						C137.42,507.81,60.72,338.54,60.72,338.54z"/>
					<g class="st7">
						<path d="M60.72,338.54c0,0,3.82,8.42,9.62,21.93c-26.27,53.38-83.6,192.45-20.87,284.08c-7.6,7.06-12.56,11.36-12.56,11.36
							C-58.29,542.19,60.72,338.54,60.72,338.54z"/>
					</g>
				</g>
			</g>
			<g id="Body_00000118372846444917139710000015289167924116340154_">
				<path class="st8" d="M325.61,580.11c2.95,0,5.61-1.81,6.64-4.58c23.53-63.3,37.77-145.86,37.77-236.19
					c0-140.29-76.7-261.89-122.11-321.59c-18-23.66-47.34-23.66-65.34,0c-45.42,59.7-122.12,181.3-122.12,321.59
					c0,90.33,14.24,172.9,37.77,236.19c1.03,2.77,3.69,4.58,6.64,4.58H325.61z"/>
				<path class="st3" d="M182.56,17.75c-12.78,16.8-28.03,38.5-43.36,64.13h152.06c-15.33-25.64-30.58-47.33-43.36-64.13
					C229.9-5.92,200.57-5.92,182.56,17.75z"/>
				<g class="st7">
					<path d="M247.9,17.75c-13.22-17.38-32.53-21.94-49-13.8c5.31,2.95,10.3,7.23,14.62,12.91
						c45.42,59.7,122.11,181.3,122.11,321.59c0,90.33-14.24,172.9-37.77,236.19c-1.03,2.77-3.69,4.58-6.64,4.58H101.44
						c1.03,0.56,2.19,0.89,3.42,0.89h220.75c2.95,0,5.61-1.81,6.64-4.58c23.53-63.3,37.77-145.86,37.77-236.19
						C370.02,199.04,293.32,77.45,247.9,17.75z"/>
				</g>
			</g>
			<g id="Down_00000052789101150861892830000005944196945046776973_">
				<path class="st3" d="M302.84,604.01H127.62c-6.78,0-12.88-4.39-15.4-11.09l-4.82-12.81h215.64l-4.82,12.81
					C315.72,599.62,309.62,604.01,302.84,604.01z"/>
				<polygon class="st9" points="107.41,580.11 111.05,589.8 319.41,589.8 323.05,580.11 				"/>
			</g>
			<g>
				<path class="st3" d="M238.67,469.29c0,65.38-5.88,128.39-11.75,175c-1.95,15.51-21.42,15.51-23.38,0
					c-5.87-46.61-11.75-109.62-11.75-175c0-19.83,0.56-36.94,1.51-51.69c2.02-31.43,42.08-31.32,43.97,0.11
					C238.15,432.43,238.67,449.5,238.67,469.29z"/>
				<g class="st7">
					<path d="M237.27,417.71c-0.96-15.94-11.73-23.81-22.38-23.61c6.29,3.51,11.17,10.49,11.8,20.97
						c0.89,14.73,1.41,31.8,1.41,51.58c0,65.38-5.88,128.39-11.75,175c-0.8,6.32-4.51,10.02-8.76,11.19
						c6.36,6.03,17.86,3.19,19.34-8.54c5.87-46.61,11.75-109.62,11.75-175C238.67,449.5,238.15,432.43,237.27,417.71z"/>
				</g>
			</g>
			<g id="Window_00000146476758154318191270000011492204610856505514_">
				<g class="st7">
					<circle cx="220.52" cy="275.06" r="89.92"/>
				</g>
				<circle class="st3" cx="215.23" cy="269.77" r="89.92"/>
				<g class="st7">
					<path d="M274.38,328.92c6.38-6.45,11.42-13.59,14.94-20.61c1.82-3.48,3.17-6.96,4.34-10.24c0.26-0.83,0.52-1.65,0.78-2.45
						c0.12-0.4,0.26-0.8,0.37-1.19c0.1-0.4,0.21-0.79,0.31-1.18c0.2-0.78,0.4-1.55,0.6-2.3c0.2-0.75,0.32-1.5,0.48-2.22
						c0.15-0.72,0.29-1.43,0.43-2.12c0.11-0.69,0.21-1.37,0.31-2.03c0.1-0.66,0.19-1.3,0.28-1.92c0.08-0.62,0.12-1.23,0.18-1.81
						c0.05-0.58,0.1-1.15,0.15-1.69c0.05-0.54,0.09-1.06,0.1-1.56c0.02-1,0.04-1.92,0.06-2.74c0.03-0.82-0.02-1.55-0.05-2.18
						c-0.04-0.63-0.08-1.17-0.12-1.6c-0.09-0.86-0.19-1.31-0.3-1.31s-0.24,0.45-0.37,1.3c-0.06,0.43-0.13,0.95-0.2,1.57
						c-0.07,0.62-0.12,1.34-0.25,2.14c-0.1,0.8-0.22,1.69-0.35,2.67c-0.05,0.49-0.14,0.99-0.23,1.52c-0.09,0.53-0.18,1.07-0.28,1.64
						c-0.1,0.56-0.18,1.15-0.3,1.75c-0.13,0.6-0.26,1.21-0.39,1.85c-0.13,0.63-0.27,1.29-0.41,1.95c-0.17,0.66-0.35,1.34-0.53,2.04
						c-0.19,0.69-0.34,1.41-0.57,2.13c-0.22,0.72-0.45,1.45-0.68,2.2c-0.11,0.37-0.23,0.75-0.35,1.13
						c-0.13,0.38-0.27,0.76-0.41,1.14c-0.27,0.76-0.55,1.54-0.84,2.34c-1.24,3.13-2.64,6.45-4.47,9.76
						c-3.53,6.68-8.45,13.48-14.58,19.68c-6.2,6.13-12.99,11.04-19.68,14.58c-3.31,1.83-6.64,3.22-9.76,4.47
						c-0.79,0.28-1.57,0.56-2.34,0.84c-0.38,0.14-0.76,0.28-1.14,0.41c-0.38,0.12-0.76,0.23-1.13,0.35
						c-0.75,0.23-1.48,0.46-2.2,0.68c-0.72,0.22-1.44,0.38-2.13,0.57c-0.7,0.18-1.37,0.36-2.04,0.53c-0.67,0.14-1.32,0.28-1.95,0.41
						c-0.63,0.14-1.25,0.27-1.85,0.39c-0.6,0.12-1.19,0.2-1.75,0.3c-0.57,0.1-1.11,0.19-1.64,0.28c-0.53,0.09-1.03,0.18-1.52,0.23
						c-0.98,0.13-1.87,0.24-2.67,0.35c-0.8,0.13-1.52,0.18-2.14,0.25c-0.62,0.07-1.15,0.13-1.57,0.2c-0.85,0.13-1.3,0.25-1.3,0.37
						c0,0.11,0.45,0.21,1.31,0.3c0.43,0.04,0.97,0.08,1.6,0.12c0.63,0.03,1.36,0.08,2.18,0.05c0.82-0.02,1.74-0.04,2.74-0.06
						c0.5,0,1.02-0.05,1.56-0.1c0.54-0.05,1.1-0.1,1.69-0.15c0.58-0.06,1.19-0.09,1.81-0.18c0.62-0.09,1.26-0.18,1.92-0.28
						c0.66-0.1,1.33-0.2,2.03-0.31c0.69-0.14,1.4-0.28,2.12-0.43c0.72-0.16,1.47-0.28,2.22-0.48c0.75-0.2,1.51-0.39,2.3-0.6
						c0.39-0.1,0.79-0.21,1.18-0.31c0.4-0.11,0.79-0.25,1.19-0.37c0.8-0.26,1.62-0.51,2.45-0.78c3.28-1.17,6.76-2.52,10.24-4.34
						C260.79,340.34,267.93,335.3,274.38,328.92z"/>
				</g>
				<g class="st10">
					<path class="st2" d="M156.09,210.63c-6.38,6.45-11.42,13.59-14.94,20.61c-1.82,3.48-3.17,6.96-4.34,10.24
						c-0.26,0.83-0.52,1.65-0.78,2.45c-0.12,0.4-0.26,0.8-0.37,1.19c-0.1,0.4-0.21,0.79-0.31,1.18c-0.2,0.78-0.4,1.55-0.6,2.3
						c-0.2,0.75-0.32,1.5-0.48,2.22c-0.15,0.72-0.29,1.43-0.43,2.12c-0.11,0.69-0.21,1.37-0.31,2.03c-0.1,0.66-0.19,1.3-0.28,1.92
						c-0.08,0.62-0.12,1.23-0.18,1.81c-0.05,0.58-0.1,1.15-0.15,1.69c-0.05,0.54-0.09,1.06-0.1,1.56c-0.02,1-0.04,1.92-0.06,2.74
						c-0.03,0.82,0.02,1.55,0.05,2.18c0.04,0.63,0.08,1.17,0.12,1.6c0.09,0.86,0.19,1.31,0.3,1.31c0.11,0,0.24-0.45,0.37-1.3
						c0.06-0.43,0.13-0.95,0.2-1.57c0.07-0.62,0.12-1.34,0.25-2.14c0.1-0.8,0.22-1.69,0.35-2.67c0.05-0.49,0.14-0.99,0.23-1.52
						c0.09-0.53,0.18-1.07,0.28-1.64c0.1-0.56,0.18-1.15,0.3-1.75c0.13-0.6,0.26-1.21,0.39-1.85c0.13-0.63,0.27-1.28,0.41-1.95
						c0.17-0.66,0.35-1.34,0.53-2.04c0.19-0.69,0.34-1.41,0.57-2.13c0.22-0.72,0.45-1.45,0.68-2.2c0.11-0.37,0.23-0.75,0.35-1.13
						c0.13-0.38,0.27-0.76,0.41-1.14c0.27-0.76,0.55-1.54,0.84-2.34c1.24-3.13,2.64-6.45,4.47-9.76
						c3.53-6.68,8.45-13.48,14.57-19.68c6.2-6.13,12.99-11.04,19.68-14.58c3.31-1.83,6.64-3.22,9.76-4.47
						c0.79-0.28,1.57-0.56,2.34-0.84c0.38-0.14,0.76-0.28,1.14-0.41c0.38-0.12,0.76-0.23,1.13-0.35c0.75-0.23,1.48-0.46,2.2-0.68
						c0.72-0.22,1.44-0.38,2.13-0.57c0.7-0.18,1.37-0.36,2.04-0.53c0.67-0.14,1.32-0.28,1.95-0.41c0.63-0.14,1.25-0.27,1.85-0.39
						c0.6-0.12,1.19-0.2,1.75-0.3c0.56-0.1,1.11-0.19,1.64-0.28c0.53-0.09,1.03-0.18,1.52-0.23c0.98-0.13,1.87-0.24,2.67-0.35
						c0.8-0.13,1.52-0.18,2.14-0.25c0.62-0.07,1.15-0.13,1.57-0.2c0.85-0.13,1.3-0.25,1.3-0.37c0-0.11-0.45-0.21-1.31-0.3
						c-0.43-0.04-0.97-0.08-1.6-0.12c-0.63-0.03-1.36-0.08-2.18-0.05c-0.82,0.02-1.74,0.04-2.74,0.06c-0.5,0-1.02,0.05-1.56,0.1
						c-0.54,0.05-1.1,0.1-1.69,0.15c-0.58,0.06-1.19,0.09-1.81,0.18c-0.62,0.09-1.26,0.18-1.92,0.28c-0.66,0.1-1.33,0.2-2.03,0.31
						c-0.69,0.14-1.4,0.28-2.12,0.43c-0.72,0.16-1.47,0.28-2.22,0.48c-0.75,0.2-1.51,0.39-2.3,0.6c-0.39,0.1-0.79,0.21-1.18,0.31
						c-0.4,0.11-0.79,0.25-1.19,0.37c-0.8,0.26-1.62,0.51-2.45,0.78c-3.28,1.17-6.76,2.52-10.24,4.34
						C169.68,199.2,162.54,204.24,156.09,210.63z"/>
				</g>
				
					<ellipse transform="matrix(0.7071 -0.7071 0.7071 0.7071 -127.7175 231.2067)" class="st3" cx="215.23" cy="269.77" rx="74.06" ry="74.06"/>
				<g>
					<circle class="st11" cx="215.23" cy="269.77" r="68.21"/>
					<g class="st7">
						<path d="M254.86,214.27c7.99,11.17,12.71,24.85,12.71,39.63c0,37.67-30.54,68.21-68.21,68.21c-14.78,0-28.46-4.72-39.63-12.71
							c12.37,17.3,32.61,28.58,55.5,28.58c37.67,0,68.21-30.54,68.21-68.21C283.44,246.88,272.16,226.65,254.86,214.27z"/>
					</g>
					<path class="st12" d="M208.91,214.4c8.37,0.35,22.78,2.79,23.53,13.48c0.42,6.08-4.47,11.23-9.48,13.88
						c-8.7,4.61-19.58,3.13-28,8.67c-7.34,4.84-14.26,12.4-23.94,10.97c-14.3-2.11-11.85-17.69-4.88-26.43
						C176.46,222,192.67,213.72,208.91,214.4z"/>
					<path class="st2" d="M190.62,223.32c-2.88,1.74-4.67,4.25-3.74,7.17c1.52,4.79,7.48,4.86,11.47,4.2
						c2.49-0.42,5.04-1.01,7.09-2.51c2.04-1.49,3.47-4.08,2.9-6.55C206.93,219.47,196.49,219.78,190.62,223.32z"/>
					<path class="st2" d="M176.78,241.32c1.78,0.73,4.18,0.53,5.53-0.36c8.41-5.53-8.31-9.19-7.74-2.44
						C174.68,239.92,175.59,240.83,176.78,241.32z"/>
				</g>
			</g>
		</g>
	</g>
</g>
</svg>
