<svg width="15" height="14" viewBox="0 0 15 14" fill="none" xmlns="http://www.w3.org/2000/svg">
<path d="M14.8421 2.25553C14.2902 2.50062 13.7066 2.66264 13.1094 2.73655C13.7395 2.35122 14.2116 1.74504 14.4383 1.03044C13.8462 1.39125 13.198 1.64546 12.522 1.78203C12.0701 1.28039 11.4684 0.94648 10.8112 0.832655C10.1539 0.71883 9.47837 0.831533 8.89044 1.15309C8.30252 1.47464 7.83549 1.98686 7.56259 2.60941C7.28969 3.23196 7.22636 3.92962 7.38253 4.59298C6.18535 4.531 5.01429 4.21189 3.94544 3.65639C2.87658 3.1009 1.93384 2.32144 1.17845 1.36865C0.913502 1.84228 0.774282 2.37866 0.774635 2.92445C0.773695 3.43131 0.895205 3.93054 1.12834 4.3777C1.36148 4.82486 1.69902 5.20606 2.1109 5.48738C1.63218 5.47404 1.16368 5.34254 0.745266 5.10406V5.14164C0.748854 5.85182 0.991957 6.53892 1.43345 7.08674C1.87495 7.63455 2.48774 8.00945 3.16816 8.14801C2.90624 8.22961 2.6343 8.27263 2.36053 8.27578C2.17102 8.27352 1.98199 8.25593 1.79519 8.22317C1.98895 8.83408 2.36392 9.36796 2.86792 9.75053C3.37192 10.1331 3.97989 10.3453 4.60721 10.3577C3.5479 11.211 2.24003 11.6766 0.892109 11.6805C0.646688 11.6813 0.401462 11.6663 0.157898 11.6354C1.53412 12.545 3.13792 13.0279 4.77608 13.0258C5.90654 13.0379 7.02801 12.8192 8.07498 12.3825C9.12194 11.9459 10.0734 11.3001 10.8739 10.4828C11.6743 9.66556 12.3076 8.69321 12.7368 7.62258C13.166 6.55195 13.3825 5.4045 13.3737 4.24725C13.3737 4.11948 13.3737 3.98419 13.3737 3.84891C13.9498 3.40908 14.4467 2.8699 14.8421 2.25553Z" fill="white"/>
</svg>
