<?xml version="1.0" encoding="utf-8"?>
<!-- Generator: Adobe Illustrator 25.4.0, SVG Export Plug-In . SVG Version: 6.00 Build 0)  -->
<svg version="1.1" id="Layer_1" xmlns="http://www.w3.org/2000/svg" xmlns:xlink="http://www.w3.org/1999/xlink" x="0px" y="0px"
	 viewBox="0 0 155.77 120.14" style="enable-background:new 0 0 155.77 120.14;" xml:space="preserve">
<style type="text/css">
	.st0{fill-rule:evenodd;clip-rule:evenodd;fill:#F6F6F8;stroke:#D9DADA;stroke-width:0.5669;stroke-miterlimit:22.9256;}
	.st1{fill-rule:evenodd;clip-rule:evenodd;}
	.st2{fill-rule:evenodd;clip-rule:evenodd;stroke:#F6F6F8;stroke-width:0.216;stroke-miterlimit:10;}
</style>
<polygon class="st0" points="216.12,-251.41 312.83,-251.41 312.83,-154.7 216.12,-154.7 216.12,-251.41 "/>
<polygon class="st0" points="216.12,-154.7 312.83,-154.7 312.83,-57.99 216.12,-57.99 216.12,-154.7 "/>
<polygon class="st0" points="216.12,-57.99 312.83,-57.99 312.83,38.71 216.12,38.71 216.12,-57.99 "/>
<polygon class="st0" points="216.12,38.71 312.83,38.71 312.83,135.42 216.12,135.42 216.12,38.71 "/>
<polygon class="st0" points="216.12,135.42 312.83,135.42 312.83,232.13 216.12,232.13 216.12,135.42 "/>
<polygon class="st0" points="216.12,232.13 312.83,232.13 312.83,328.83 216.12,328.83 216.12,232.13 "/>
<polygon class="st0" points="312.83,-251.41 409.54,-251.41 409.54,-154.7 312.83,-154.7 312.83,-251.41 "/>
<polygon class="st0" points="312.83,-154.7 409.54,-154.7 409.54,-57.99 312.83,-57.99 312.83,-154.7 "/>
<polygon class="st0" points="312.83,-57.99 409.54,-57.99 409.54,38.71 312.83,38.71 312.83,-57.99 "/>
<polygon class="st0" points="312.83,38.71 409.54,38.71 409.54,135.42 312.83,135.42 312.83,38.71 "/>
<polygon class="st0" points="312.83,135.42 409.54,135.42 409.54,232.13 312.83,232.13 312.83,135.42 "/>
<polygon class="st0" points="312.83,232.13 409.54,232.13 409.54,328.83 312.83,328.83 312.83,232.13 "/>
<polygon class="st0" points="409.54,-251.41 506.24,-251.41 506.24,-154.7 409.54,-154.7 409.54,-251.41 "/>
<polygon class="st0" points="409.54,-154.7 506.24,-154.7 506.24,-57.99 409.54,-57.99 409.54,-154.7 "/>
<polygon class="st0" points="409.54,135.42 506.24,135.42 506.24,232.13 409.54,232.13 409.54,135.42 "/>
<polygon class="st0" points="409.54,232.13 506.24,232.13 506.24,328.83 409.54,328.83 409.54,232.13 "/>
<polygon class="st0" points="506.24,-251.41 602.95,-251.41 602.95,-154.7 506.24,-154.7 506.24,-251.41 "/>
<polygon class="st0" points="506.24,-154.7 602.95,-154.7 602.95,-57.99 506.24,-57.99 506.24,-154.7 "/>
<polygon class="st0" points="506.24,135.42 602.95,135.42 602.95,232.13 506.24,232.13 506.24,135.42 "/>
<polygon class="st0" points="506.24,232.13 602.95,232.13 602.95,328.83 506.24,328.83 506.24,232.13 "/>
<polygon class="st0" points="602.95,-251.41 699.66,-251.41 699.66,-154.7 602.95,-154.7 602.95,-251.41 "/>
<polygon class="st0" points="602.95,-154.7 699.66,-154.7 699.66,-57.99 602.95,-57.99 602.95,-154.7 "/>
<polygon class="st0" points="602.95,-57.99 699.66,-57.99 699.66,38.71 602.95,38.71 602.95,-57.99 "/>
<polygon class="st0" points="602.95,38.71 699.66,38.71 699.66,135.42 602.95,135.42 602.95,38.71 "/>
<polygon class="st0" points="602.95,135.42 699.66,135.42 699.66,232.13 602.95,232.13 602.95,135.42 "/>
<polygon class="st0" points="602.95,232.13 699.66,232.13 699.66,328.83 602.95,328.83 602.95,232.13 "/>
<polygon class="st0" points="699.66,-251.41 796.36,-251.41 796.36,-154.7 699.66,-154.7 699.66,-251.41 "/>
<polygon class="st0" points="699.66,-154.7 796.36,-154.7 796.36,-57.99 699.66,-57.99 699.66,-154.7 "/>
<polygon class="st0" points="699.66,-57.99 796.36,-57.99 796.36,38.71 699.66,38.71 699.66,-57.99 "/>
<polygon class="st0" points="699.66,38.71 796.36,38.71 796.36,135.42 699.66,135.42 699.66,38.71 "/>
<polygon class="st0" points="699.66,135.42 796.36,135.42 796.36,232.13 699.66,232.13 699.66,135.42 "/>
<polygon class="st0" points="699.66,232.13 796.36,232.13 796.36,328.83 699.66,328.83 699.66,232.13 "/>
<path class="st1" d="M529.98,271.88c0.13,10.93,7.39,20.15,17.34,23.23l-0.31,2.43c-11.15-3.25-19.32-13.49-19.45-25.66H529.98
	L529.98,271.88z"/>
<path class="st1" d="M553.6,246.99c-12.57,0.5-22.71,10.42-23.56,22.9h-2.43c0.86-13.81,12.08-24.81,25.99-25.32V246.99
	L553.6,246.99z"/>
<path class="st1" d="M581.63,271.88c-0.13,12.14-8.27,22.37-19.38,25.64l-0.33-2.43c9.93-3.09,17.16-12.3,17.29-23.21H581.63
	L581.63,271.88z"/>
<path class="st1" d="M555.6,244.56c13.9,0.51,25.13,11.51,25.99,25.32h-2.43c-0.85-12.47-10.99-22.39-23.56-22.9V244.56
	L555.6,244.56z"/>
<path class="st1" d="M537.09,271.88c0.12,7.29,4.71,13.5,11.14,16.02l-0.31,2.47c-7.63-2.71-13.13-9.95-13.25-18.48H537.09
	L537.09,271.88z"/>
<path class="st1" d="M553.6,254.11c-8.64,0.49-15.6,7.23-16.43,15.78h-2.43c0.84-9.88,8.88-17.71,18.86-18.2V254.11L553.6,254.11z"
	/>
<path class="st1" d="M574.52,271.88c-0.13,8.53-5.61,15.76-13.24,18.48l-0.33-2.46c6.44-2.51,11.02-8.72,11.15-16.02H574.52
	L574.52,271.88z"/>
<path class="st1" d="M555.6,251.68c9.98,0.49,18.02,8.32,18.86,18.2h-2.43c-0.82-8.54-7.79-15.29-16.43-15.78V251.68L555.6,251.68z"
	/>
<path class="st1" d="M544.32,271.88c0.1,3.57,2.02,6.68,4.87,8.44l-0.33,2.59c-4.05-2.05-6.85-6.21-6.96-11.04H544.32L544.32,271.88
	z"/>
<path class="st1" d="M553.6,261.36c-4.64,0.45-8.38,3.98-9.14,8.53h-2.45c0.79-5.89,5.61-10.49,11.59-10.96V261.36L553.6,261.36z"/>
<path class="st1" d="M567.29,271.88c-0.11,4.84-2.93,9.01-7.01,11.06l-0.35-2.58c2.88-1.76,4.83-4.89,4.93-8.48H567.29
	L567.29,271.88z"/>
<path class="st1" d="M555.6,258.92c5.98,0.47,10.8,5.08,11.59,10.96h-2.45c-0.76-4.55-4.5-8.08-9.14-8.53V258.92L555.6,258.92z"/>
<path class="st1" d="M554.42,267.33c2.14,0,3.87,1.73,3.87,3.87c0,1.51-0.87,2.82-2.13,3.46l5.62,41.74H547.4l5.28-41.74
	c-1.26-0.64-2.13-1.95-2.13-3.46C550.55,269.06,552.28,267.33,554.42,267.33L554.42,267.33L554.42,267.33z"/>
<path class="st1" d="M648.42,190.78h1.89v-3.04c-3.41-0.66-5.98-3.66-5.98-7.26c0-4.09,3.31-7.4,7.4-7.4c4.09,0,7.4,3.31,7.4,7.4
	c0,3.6-2.57,6.6-5.98,7.26v3.04h1.89l9.87,26.82c0.09,0.21,0.14,0.44,0.14,0.68v1.73c0,0.95-0.78,1.73-1.73,1.73h-23.19
	c-0.95,0-1.73-0.78-1.73-1.73v-1.73c0-0.24,0.05-0.47,0.14-0.68L648.42,190.78L648.42,190.78L648.42,190.78z"/>
<path class="st1" d="M651.3,145.81c15.1,0,27.34,12.24,27.34,27.34c0,9.26-4.6,17.45-11.65,22.39c5.32-4.47,8.7-11.17,8.7-18.67
	c0-13.47-10.92-24.38-24.38-24.38c-13.47,0-24.38,10.92-24.38,24.38c0,7.49,3.38,14.19,8.7,18.67
	c-7.05-4.94-11.65-13.13-11.65-22.39C623.96,158.05,636.2,145.81,651.3,145.81L651.3,145.81L651.3,145.81z"/>
<path class="st1" d="M652.06,160.79c9.24,0,16.74,7.49,16.74,16.74c0,5.67-2.82,10.68-7.13,13.71c3.25-2.74,5.32-6.84,5.32-11.43
	c0-8.24-6.68-14.93-14.93-14.93c-8.24,0-14.93,6.68-14.93,14.93c0,4.59,2.07,8.69,5.32,11.43c-4.31-3.03-7.13-8.04-7.13-13.71
	C635.33,168.28,642.82,160.79,652.06,160.79L652.06,160.79L652.06,160.79z"/>
<path class="st1" d="M747.98,292.05c4.57,0,8.28,3.71,8.28,8.28c0,4.57-3.71,8.28-8.28,8.28c-4.57,0-8.28-3.71-8.28-8.28
	C739.71,295.75,743.41,292.05,747.98,292.05L747.98,292.05L747.98,292.05z"/>
<path class="st1" d="M775.48,272.74c-7.18-6.75-16.84-10.89-27.47-10.89c-10.63,0-20.29,4.14-27.47,10.89
	c-4.11,4.78-11.58-0.72-7.45-5.99c8.96-8.89,21.3-14.38,34.92-14.39c13.62,0,25.96,5.5,34.92,14.39
	C787.06,272.02,779.59,277.51,775.48,272.74L775.48,272.74z"/>
<path class="st1" d="M762.2,286.28c-3.75-3.39-8.72-5.46-14.18-5.46h-0.01H748c-5.46,0-10.43,2.07-14.18,5.46
	c-6.89,8.1-12.73-0.86-7.33-6.12c5.53-5.46,13.13-8.83,21.51-8.83h0.01h0.01c8.38,0,15.98,3.37,21.51,8.83
	C774.93,285.42,769.09,294.38,762.2,286.28L762.2,286.28z"/>
<path class="st1" d="M728.08-191.19c4.46,0,8.07,3.62,8.07,8.07c0,4.46-3.62,8.07-8.07,8.07c-4.46,0-8.07-3.62-8.07-8.07
	C720.01-187.58,723.62-191.19,728.08-191.19L728.08-191.19L728.08-191.19z"/>
<path class="st1" d="M749.91-180.29c0-13.89-11.26-25.15-25.15-25.15c-5.45,0.16-7.16-7.69,0-7.94c18.28,0,33.1,14.82,33.1,33.1
	C758.14-173.95,749.69-173.74,749.91-180.29L749.91-180.29z"/>
<path class="st1" d="M725.25-231.04c28.03,0,50.75,22.73,50.75,50.75c0.19,5.54-7.63,6.49-7.94,0c0-23.64-19.17-42.81-42.81-42.81
	C717.78-223.38,718.76-231.48,725.25-231.04L725.25-231.04z"/>
<path class="st1" d="M361.16-24.77c3.55,0,6.43,2.88,6.43,6.43c0,3.55-2.88,6.43-6.43,6.43c-3.55,0-6.43-2.88-6.43-6.43
	C354.73-21.89,357.61-24.77,361.16-24.77L361.16-24.77L361.16-24.77z"/>
<path d="M367.5-6.82l14.97,27.99l-1.28-0.02C368.4,7.39,364.22,1.46,361.2,1.22c-3.02,0.24-7.2,6.16-19.99,19.93l-1.28,0.02
	l14.95-27.95c1.87,1.01,4,1.59,6.28,1.59C363.46-5.2,365.62-5.79,367.5-6.82L367.5-6.82z"/>
<polygon class="st1" points="336.62,23.18 385.78,23.18 385.78,26.81 336.62,26.81 336.62,23.18 "/>
<path class="st1" d="M361.16-46.09c26.24,0,37.5,32.98,17.52,49.26l-2.13-3.73c16.25-14.07,6.52-41.31-15.39-41.31
	c-21.93,0-31.65,27.29-15.35,41.34l-2.13,3.73C323.58-13.12,335.23-46.09,361.16-46.09L361.16-46.09z"/>
<path class="st1" d="M361.16-35.74c15.63,0,23.12,18.93,12.28,29.73l-2.19-3.85c7.08-8.43,1.21-21.65-10.09-21.65
	c-11.34,0-17.2,13.3-10.04,21.71l-2.2,3.84C337.93-16.84,345.66-35.74,361.16-35.74L361.16-35.74z"/>
<g>
	<path class="st1" d="M77.92,89.7c8.41,0,15.22,6.82,15.22,15.22c0,8.41-6.82,15.22-15.22,15.22c-8.41,0-15.22-6.82-15.22-15.22
		C62.7,96.51,69.51,89.7,77.92,89.7L77.92,89.7L77.92,89.7z"/>
	<path class="st1" d="M77.89,15c25.49,0.13,48.57,10.47,65.36,27.14c9.6,6.86,16.96-6.14,9.43-11.76
		C133.27,11.67,106.93,0.13,77.89,0C48.84,0.13,22.5,11.67,3.1,30.38C-4.42,36,2.93,49,12.53,42.14
		C29.31,25.47,52.39,15.13,77.89,15L77.89,15z"/>
	<path class="st1" d="M77.89,45c16.79,0.12,32.03,6.77,43.31,17.54c8.72,8.21,17.16-2.23,11.44-9.79
		C118.57,38.79,99.24,30.13,77.89,30c-21.35,0.13-40.68,8.79-54.75,22.75c-5.72,7.57,2.72,18.01,11.44,9.79
		C45.86,51.78,61.09,45.13,77.89,45L77.89,45z"/>
	<path class="st1" d="M77.89,75c9.18,0.11,16.17,3.48,22.93,9.57c9.82,6.9,17.25-5.73,9.41-11.75c-8.52-7.86-19.86-12.7-32.34-12.82
		c-12.48,0.12-23.82,4.96-32.34,12.82c-7.85,6.02-0.41,18.65,9.41,11.75C61.71,78.48,68.7,75.12,77.89,75L77.89,75z"/>
</g>
<path class="st1" d="M554.6-208.8c3.13,0,5.67,2.54,5.67,5.67c0,3.13-2.54,5.67-5.67,5.67c-3.13,0-5.67-2.54-5.67-5.67
	C548.93-206.26,551.47-208.8,554.6-208.8L554.6-208.8L554.6-208.8z"/>
<path class="st1" d="M544.73-189.29c1.08,0,1.95-0.87,1.95-1.95c0-0.62-0.29-1.18-0.75-1.53c-2.91-2.44-4.76-6.1-4.76-10.2l0-0.08
	l0-0.08c0-4.1,1.85-7.76,4.76-10.2c0.46-0.36,0.75-0.91,0.75-1.53c0-1.08-0.87-1.95-1.95-1.95l0,0c-0.48,0-0.93,0.18-1.27,0.47
	l-0.01,0.01l0,0c-3.79,3.15-6.18,7.89-6.18,13.21l0,0.08l0,0.08c0,5.32,2.39,10.05,6.18,13.21l0,0l0.01,0.01
	C543.8-189.47,544.25-189.29,544.73-189.29L544.73-189.29L544.73-189.29z"/>
<path class="st1" d="M538.79-181.8c1.17,0,2.12-0.95,2.12-2.12c0-0.66-0.3-1.25-0.77-1.63c-5.02-4.14-8.22-10.41-8.22-17.42l0-0.08
	l0-0.08c0-7.01,3.2-13.28,8.22-17.42c0.47-0.39,0.77-0.98,0.77-1.64c0-1.17-0.95-2.12-2.12-2.12l0,0c-0.5,0-0.96,0.18-1.33,0.47l0,0
	l-0.02,0.01l-0.04,0.03c-5.96,4.91-9.73,12.33-9.73,20.66l0,0.08l0,0.08c0,8.32,3.77,15.74,9.73,20.66l0.04,0.03l0.02,0.01l0,0
	C537.83-181.98,538.29-181.8,538.79-181.8L538.79-181.8L538.79-181.8z"/>
<path class="st2" d="M532.96-174.52c1.16,0,2.09-0.94,2.09-2.09c0-0.66-0.3-1.24-0.78-1.63c-7.16-5.85-11.73-14.76-11.73-24.73
	l0-0.08l0-0.08c0-9.97,4.57-18.87,11.73-24.73c0.47-0.38,0.78-0.97,0.78-1.63c0-1.16-0.94-2.09-2.09-2.09l0,0
	c-0.5,0-0.95,0.17-1.31,0.46l0,0l-0.02,0.02l0,0c-8.1,6.62-13.27,16.69-13.27,27.97l0,0.08l0,0.08c0,11.28,5.17,21.34,13.27,27.97
	l0,0l0.02,0.02l0,0C532.01-174.7,532.46-174.52,532.96-174.52L532.96-174.52L532.96-174.52z"/>
<path class="st1" d="M564.46-189.29c-1.08,0-1.95-0.87-1.95-1.95c0-0.62,0.29-1.18,0.75-1.53c2.91-2.44,4.76-6.1,4.76-10.2l0-0.08
	l0-0.08c0-4.1-1.85-7.76-4.76-10.2c-0.46-0.36-0.75-0.91-0.75-1.53c0-1.08,0.87-1.95,1.95-1.95l0,0c0.48,0,0.93,0.18,1.27,0.47
	l0.01,0.01l0,0c3.79,3.15,6.18,7.89,6.18,13.21l0,0.08l0,0.08c0,5.32-2.39,10.05-6.18,13.21l0,0l-0.01,0.01
	C565.39-189.47,564.95-189.29,564.46-189.29L564.46-189.29L564.46-189.29z"/>
<path class="st1" d="M570.4-181.8c-1.17,0-2.12-0.95-2.12-2.12c0-0.66,0.3-1.25,0.77-1.63c5.02-4.14,8.22-10.41,8.22-17.42l0-0.08
	l0-0.08c0-7.01-3.2-13.28-8.22-17.42c-0.47-0.39-0.77-0.98-0.77-1.64c0-1.17,0.95-2.12,2.12-2.12l0,0c0.5,0,0.96,0.18,1.33,0.47l0,0
	l0.02,0.01l0.04,0.03c5.96,4.91,9.73,12.33,9.73,20.66l0,0.08l0,0.08c0,8.32-3.77,15.74-9.73,20.66l-0.04,0.03l-0.02,0.01l0,0
	C571.36-181.98,570.9-181.8,570.4-181.8L570.4-181.8L570.4-181.8z"/>
<path class="st1" d="M576.23-174.52c-1.16,0-2.09-0.94-2.09-2.09c0-0.66,0.3-1.24,0.78-1.63c7.16-5.85,11.73-14.76,11.73-24.73
	l0-0.08l0-0.08c0-9.97-4.57-18.87-11.73-24.73c-0.47-0.38-0.78-0.97-0.78-1.63c0-1.16,0.94-2.09,2.09-2.09l0,0
	c0.5,0,0.95,0.17,1.31,0.46l0,0l0.02,0.02l0,0c8.1,6.62,13.27,16.69,13.27,27.97l0,0.08l0,0.08c0,11.28-5.17,21.34-13.27,27.97l0,0
	l-0.02,0.02l0,0C577.18-174.7,576.73-174.52,576.23-174.52L576.23-174.52L576.23-174.52z"/>
<path class="st1" d="M732.8,192.58c2.4-2.17,3.91-5.31,3.91-8.81c0-3.49-1.51-6.63-3.91-8.8c-1.05-1.03-2.36-0.3-2.65,0.11
	l-7.83,8.7l7.83,8.7C730.44,192.88,731.75,193.61,732.8,192.58L732.8,192.58z"/>
<path class="st1" d="M768.3,183.77c0,12.39-5.47,23.5-14.11,31.05c-2.89,2.65,0.3,6.39,3.42,4.19c9.86-8.55,16.11-20.92,16.11-35.25
	c0-14.33-6.24-26.7-16.11-35.25c-3.12-2.19-6.31,1.55-3.42,4.19C762.83,160.28,768.3,171.39,768.3,183.77L768.3,183.77z"/>
<path class="st1" d="M749.01,210.53c7.73-6.35,12.66-15.97,12.66-26.76c0-10.78-4.93-20.41-12.66-26.76
	c-1.94-1.51-6.11,0.9-3.42,4.27c6.48,5.34,10.61,13.43,10.61,22.49c0,9.06-4.13,17.15-10.61,22.49
	C742.9,209.63,747.07,212.04,749.01,210.53L749.01,210.53z"/>
<path class="st1" d="M741.25,200.87c4.9-4.07,8.03-10.22,8.03-17.09c0-6.87-3.12-13.02-8.03-17.09c-2.89-1.97-5.84,1.35-3.15,3.92
	c3.76,3.15,6.15,7.88,6.15,13.17c0,5.29-2.39,10.02-6.15,13.17C735.41,199.52,738.36,202.84,741.25,200.87L741.25,200.87z"/>
<path class="st1" d="M781.24-115.8c-8.51-8.49-20.25-13.75-33.21-13.75c-12.98,0-24.74,5.27-33.25,13.79l-5.61-5.61
	c9.95-9.95,23.69-16.11,38.86-16.11c15.15,0,28.88,6.14,38.83,16.08L781.24-115.8L781.24-115.8z"/>
<path class="st1" d="M770.02-104.58c-5.63-5.62-13.41-9.1-21.99-9.1c-8.6,0-16.39,3.49-22.03,9.14l-5.61-5.61
	c7.07-7.08,16.85-11.46,27.64-11.46c10.77,0,20.53,4.37,27.6,11.42L770.02-104.58L770.02-104.58z"/>
<path class="st1" d="M758.8-93.36c-2.76-2.75-6.57-4.45-10.77-4.45c-4.22,0-8.04,1.71-10.81,4.48l-5.61-5.61
	c4.2-4.21,10.01-6.81,16.42-6.81c6.39,0,12.18,2.59,16.38,6.77L758.8-93.36L758.8-93.36z"/>
<path class="st1" d="M740.69-82.53c0,4.05,3.28,7.33,7.33,7.33c4.05,0,7.33-3.28,7.33-7.33c0-4.05-3.28-7.33-7.33-7.33
	C743.98-89.87,740.69-86.58,740.69-82.53L740.69-82.53L740.69-82.53z"/>
<path class="st1" d="M778.26-79.57l-3.65-3.65l3.6-3.6c0.84-0.84,0.84-2.21,0-3.05v0c-0.84-0.84-2.21-0.84-3.05,0l-3.6,3.6
	l-3.65-3.65c-0.81-0.81-2.15-0.81-2.96,0l-0.09,0.09c-0.81,0.81-0.81,2.15,0,2.96l3.65,3.65l-3.6,3.6c-0.84,0.84-0.84,2.21,0,3.05
	l0,0c0.84,0.84,2.21,0.84,3.05,0l3.6-3.6l3.65,3.65c0.81,0.81,2.14,0.81,2.96,0l0.09-0.09C779.07-77.43,779.07-78.76,778.26-79.57
	L778.26-79.57z"/>
<path class="st1" d="M786.07,105h-1.58v-3.97c0-5.73-12.17-5.43-12.17,0V105h-1.61l-0.02,13.21h15.38V105L786.07,105z
	 M779.42,111.72v2.68c0,0.28-0.23,0.51-0.51,0.51h-0.79c-0.28,0-0.51-0.23-0.51-0.51v-2.68c-0.51-0.31-0.86-0.87-0.86-1.51
	c0-0.97,0.79-1.76,1.76-1.76c0.97,0,1.76,0.79,1.76,1.76C780.28,110.85,779.94,111.41,779.42,111.72L779.42,111.72z M782.55,101.68
	l0,3.32l-8.27,0l0-3.32C774.19,97.62,782.63,97.91,782.55,101.68L782.55,101.68z"/>
<path class="st1" d="M781.24,77.61c-8.51-8.49-20.25-13.75-33.21-13.75c-12.98,0-24.74,5.27-33.25,13.79l-5.61-5.61
	c9.95-9.95,23.69-16.11,38.86-16.11c15.15,0,28.88,6.14,38.83,16.08L781.24,77.61L781.24,77.61z"/>
<path class="st1" d="M770.02,88.83c-5.63-5.62-13.41-9.1-21.99-9.1c-8.6,0-16.39,3.49-22.03,9.14l-5.61-5.61
	c7.07-7.08,16.85-11.46,27.64-11.46c10.77,0,20.53,4.37,27.6,11.42L770.02,88.83L770.02,88.83z"/>
<path class="st1" d="M758.8,100.06c-2.76-2.75-6.57-4.45-10.77-4.45c-4.22,0-8.04,1.71-10.81,4.48l-5.61-5.61
	c4.2-4.21,10.01-6.81,16.42-6.81c6.39,0,12.18,2.59,16.38,6.77L758.8,100.06L758.8,100.06z"/>
<path class="st1" d="M740.69,110.88c0,4.05,3.28,7.33,7.33,7.33c4.05,0,7.33-3.28,7.33-7.33c0-4.05-3.28-7.33-7.33-7.33
	C743.98,103.55,740.69,106.83,740.69,110.88L740.69,110.88L740.69,110.88z"/>
<path class="st1" d="M786.07,8.3c-3.93,0-7.87,0-11.8,0l0-3.32c-0.08-3.9,7.68-3.79,8.24-0.45h1.98c0-6.14-12.17-5.53-12.17-0.2V8.3
	h-1.61L770.7,21.5h15.38V8.3L786.07,8.3z M779.42,15.01v2.68c0,0.28-0.23,0.51-0.51,0.51h-0.79c-0.28,0-0.51-0.23-0.51-0.51v-2.68
	c-0.51-0.31-0.86-0.87-0.86-1.51c0-0.97,0.79-1.76,1.76-1.76c0.97,0,1.76,0.79,1.76,1.76C780.28,14.14,779.94,14.7,779.42,15.01
	L779.42,15.01z"/>
<path class="st1" d="M781.24-19.1c-8.51-8.49-20.25-13.75-33.21-13.75c-12.98,0-24.74,5.27-33.25,13.79l-5.61-5.61
	c9.95-9.95,23.69-16.11,38.86-16.11c15.15,0,28.88,6.14,38.83,16.08L781.24-19.1L781.24-19.1z"/>
<path class="st1" d="M770.02-7.87c-5.63-5.62-13.41-9.1-21.99-9.1c-8.6,0-16.39,3.49-22.03,9.14l-5.61-5.61
	c7.07-7.08,16.85-11.46,27.64-11.46c10.77,0,20.53,4.37,27.6,11.42L770.02-7.87L770.02-7.87z"/>
<path class="st1" d="M758.8,3.35c-2.76-2.75-6.57-4.45-10.77-4.45c-4.22,0-8.04,1.71-10.81,4.48l-5.61-5.61
	c4.2-4.21,10.01-6.81,16.42-6.81c6.39,0,12.18,2.59,16.38,6.77L758.8,3.35L758.8,3.35z"/>
<path class="st1" d="M740.69,14.17c0,4.05,3.28,7.33,7.33,7.33c4.05,0,7.33-3.28,7.33-7.33c0-4.05-3.28-7.33-7.33-7.33
	C743.98,6.84,740.69,10.12,740.69,14.17L740.69,14.17L740.69,14.17z"/>
<path class="st1" d="M643.72-203.82c0-4.19,3.39-7.58,7.58-7.58c4.19,0,7.58,3.39,7.58,7.58c0,4.19-3.39,7.58-7.58,7.58
	C647.12-196.24,643.72-199.64,643.72-203.82L643.72-203.82L643.72-203.82z"/>
<path class="st1" d="M621.59-203.05c0.06-8.15,3.29-15.54,8.51-21.02c3.99-4.23-1.08-8.33-4.75-5.55
	c-6.77,6.83-10.98,16.21-11.04,26.57c0.06,10.36,4.27,19.74,11.04,26.57c3.67,2.77,8.74-1.32,4.75-5.55
	C624.87-187.51,621.65-194.9,621.59-203.05L621.59-203.05z"/>
<path class="st1" d="M636.15-203.05c0.05-4.46,1.69-7.85,4.64-11.13c3.35-4.76-2.78-8.37-5.7-4.56c-3.81,4.13-6.16,9.64-6.22,15.69
	c0.06,6.05,2.41,11.56,6.22,15.69c2.92,3.81,9.05,0.2,5.7-4.56C637.84-195.2,636.2-198.6,636.15-203.05L636.15-203.05z"/>
<path class="st1" d="M681.02-203.05c-0.06-8.15-3.29-15.54-8.51-21.02c-3.99-4.23,1.08-8.33,4.75-5.55
	c6.77,6.83,10.98,16.21,11.04,26.57c-0.06,10.36-4.27,19.74-11.04,26.57c-3.67,2.77-8.74-1.32-4.75-5.55
	C677.73-187.51,680.96-194.9,681.02-203.05L681.02-203.05z"/>
<path class="st1" d="M666.46-203.05c-0.05-4.46-1.69-7.85-4.64-11.13c-3.35-4.76,2.78-8.37,5.7-4.56c3.81,4.13,6.16,9.64,6.22,15.69
	c-0.06,6.05-2.41,11.56-6.22,15.69c-2.92,3.81-9.05,0.2-5.7-4.56C664.77-195.2,666.4-198.6,666.46-203.05L666.46-203.05z"/>
<path class="st1" d="M452.27,281.37c3.74,0,7.49,0,11.23,0v-7.6h5.62l-11.24-15.24l-11.24,15.24h5.63V281.37L452.27,281.37z
	 M454.09,279.56h7.6v-7.6h3.84l-7.65-10.36l-7.65,10.36h3.84V279.56L454.09,279.56z"/>
<path class="st1" d="M421.85,272.4c8.55-10.41,21.52-17.06,36.04-17.06c14.52,0,27.49,6.64,36.04,17.06l-5.75,4.61
	c-6.05-7.34-14.71-12.44-24.56-13.88l-5.73-7.77l-5.73,7.77c-9.85,1.44-18.51,6.54-24.56,13.88L421.85,272.4L421.85,272.4
	L421.85,272.4z M457.89,261.6l-0.83,1.12h0L457.89,261.6L457.89,261.6z"/>
<path class="st1" d="M434.86,283.79c2.86-3.45,6.48-6.24,10.61-8.12h4.92v5.32c-4.03,1.38-7.56,3.84-10.24,7.04L434.86,283.79
	L434.86,283.79L434.86,283.79z M470.31,275.66c4.12,1.88,7.74,4.68,10.61,8.12l-5.28,4.24c-2.68-3.2-6.21-5.66-10.24-7.04v-5.32
	H470.31L470.31,275.66z"/>
<polygon points="453.44,283.03 453.44,286 462.19,286 462.19,283.03 453.44,283.03 453.44,283.03 "/>
<polygon class="st1" points="453.52,287.66 462.26,287.66 462.26,295.26 466.67,295.26 457.89,305.62 449.11,295.26 453.52,295.26 
	453.52,287.66 "/>
<path class="st1" d="M354.81-181.53c0,3.46,2.8,6.26,6.26,6.26c3.46,0,6.26-2.8,6.26-6.26c0-3.46-2.8-6.26-6.26-6.26
	C357.61-187.79,354.81-184.98,354.81-181.53L354.81-181.53L354.81-181.53z"/>
<path class="st1" d="M389.89-213.81c-16.01-14.1-41.39-14.11-57.4-0.01l-2.94-2.94c16.12-18.78,47.15-18.76,63.27,0.02
	L389.89-213.81L389.89-213.81z"/>
<path class="st1" d="M379.76-203.68c-10.57-8.88-26.58-8.9-37.16-0.02l-2.53-2.53c10.5-13.66,31.74-13.65,42.23,0.02L379.76-203.68
	L379.76-203.68z"/>
<path class="st1" d="M371.02-194.94c-4.53-8.55-15.23-8.95-19.9-0.25l1.51,1.51c5.07-3.41,11.99-3.48,17.02,0.11L371.02-194.94
	L371.02-194.94z"/>
<path class="st1" d="M451.16-183.28c0,3.72,3.01,6.73,6.73,6.73c3.72,0,6.73-3.01,6.73-6.73c0-3.72-3.01-6.73-6.73-6.73
	C454.18-190.01,451.16-187,451.16-183.28L451.16-183.28L451.16-183.28z"/>
<path class="st1" d="M496.08-194.52c-10.55-38.81-65.83-38.83-76.38,0C424.81-241.28,490.98-241.21,496.08-194.52L496.08-194.52z"/>
<path class="st1" d="M482.55-193.97c-8.88-22.33-40.41-22.41-49.33,0C437.58-223.85,478.19-223.82,482.55-193.97L482.55-193.97z"/>
<path class="st1" d="M468.31-192.81c-3.01-12.81-18-13.41-21.15,0C452.47-199.3,462.94-199.59,468.31-192.81L468.31-192.81z"/>
<path class="st1" d="M361.18,247.19c20.22,0,36.61,16.39,36.61,36.61c0,12.4-6.17,23.36-15.6,29.98
	c7.12-5.99,11.64-14.96,11.64-24.99c0-18.03-14.62-32.65-32.65-32.65c-18.03,0-32.65,14.62-32.65,32.65c0,10.03,4.52,19.01,11.64,25
	c-9.43-6.62-15.6-17.58-15.6-29.98C324.57,263.58,340.97,247.19,361.18,247.19L361.18,247.19L361.18,247.19z"/>
<path class="st1" d="M362.2,267.25c12.38,0,22.41,10.03,22.41,22.41c0,7.59-3.78,14.3-9.55,18.35c4.36-3.67,7.13-9.16,7.13-15.3
	c0-11.04-8.95-19.99-19.99-19.99c-11.04,0-19.99,8.95-19.99,19.99c0,6.14,2.77,11.64,7.13,15.3c-5.77-4.05-9.55-10.76-9.55-18.35
	C339.79,277.28,349.82,267.25,362.2,267.25L362.2,267.25L362.2,267.25z"/>
<path class="st1" d="M362.04,283.44c5.18,0,9.37,4.2,9.37,9.37c0,5.18-4.2,9.37-9.37,9.37c-5.18,0-9.37-4.2-9.37-9.37
	C352.67,287.63,356.86,283.44,362.04,283.44L362.04,283.44z"/>
<polygon class="st1" points="349.34,308.01 375.06,308.01 382.16,313.73 340.21,313.73 349.34,308.01 "/>
<path class="st1" d="M620.91-12.12c0,7.01,2.38,13.47,6.37,18.61l3.13-3.13c-3.21-4.33-5.11-9.68-5.11-15.48c0-14.35,11.65-26,26-26
	s26,11.65,26,26c0,5.81-1.91,11.17-5.13,15.5l3.13,3.13c4-5.15,6.39-11.61,6.39-18.63c0-16.77-13.61-30.39-30.39-30.39
	S620.91-28.89,620.91-12.12L620.91-12.12z"/>
<path class="st1" d="M629.69-12.12c0,4.58,1.43,8.84,3.87,12.33l3.17-3.17c-1.67-2.66-2.65-5.8-2.65-9.17
	c0-9.51,7.72-17.22,17.22-17.22s17.22,7.71,17.22,17.22c0,3.38-0.98,6.53-2.66,9.19l3.16,3.16c2.45-3.5,3.89-7.76,3.89-12.36
	c0-11.93-9.68-21.61-21.61-21.61C639.37-33.73,629.69-24.05,629.69-12.12L629.69-12.12z"/>
<path class="st1" d="M638.47-12.12c0,2.15,0.53,4.18,1.47,5.96l3.34-3.34c-0.27-0.83-0.42-1.71-0.42-2.62
	c0-4.66,3.78-8.44,8.44-8.44c4.66,0,8.44,3.78,8.44,8.44c0,0.93-0.15,1.82-0.43,2.65l3.33,3.33c0.95-1.79,1.48-3.82,1.48-5.99
	c0-7.08-5.75-12.83-12.83-12.83C644.22-24.95,638.47-19.2,638.47-12.12L638.47-12.12z"/>
<path class="st1" d="M651.61-16.28c2.43,0,4.4,1.97,4.4,4.4c0,1.42-0.67,2.69-1.72,3.49l0.63,2.83h4.12L669.35,7.3h-6.06l-6.52-8.13
	h-9.89l-6.51,8.11h-6.06l10.3-12.84l0,0h4.12l0.68-2.51c-1.32-0.76-2.2-2.18-2.2-3.81C647.21-14.31,649.18-16.28,651.61-16.28
	L651.61-16.28L651.61-16.28z"/>
<polygon points="670.47,23.23 670.47,13.25 673.02,13.25 673.02,23.23 670.47,23.23 670.47,23.23 "/>
<polygon points="670.47,11.91 670.47,9.47 673.02,9.47 673.02,11.91 670.47,11.91 670.47,11.91 "/>
<polygon points="659.24,23.23 659.24,9.47 668.29,9.47 668.29,11.79 661.89,11.79 661.89,15.06 666.67,15.06 666.67,17.39 
	661.89,17.39 661.89,23.23 659.24,23.23 659.24,23.23 "/>
<polygon points="652.3,19.56 652.3,16.92 656.82,16.92 656.82,19.56 652.3,19.56 652.3,19.56 "/>
<polygon points="647.91,23.23 647.91,13.25 650.45,13.25 650.45,23.23 647.91,23.23 647.91,23.23 "/>
<polygon points="647.91,11.91 647.91,9.47 650.45,9.47 650.45,11.91 647.91,11.91 647.91,11.91 "/>
<polygon points="632.51,23.23 629.35,9.47 632.09,9.47 634.07,18.94 636.47,9.47 639.63,9.47 641.97,19.09 643.98,9.47 646.67,9.47 
	643.51,23.23 640.66,23.23 638.01,12.93 635.4,23.23 632.51,23.23 632.51,23.23 "/>
<path class="st1" d="M359.65,48.94c17.48,0,31.65,14.17,31.65,31.66c0,0.93-0.04,1.84-0.12,2.75l-4.54-0.43
	c0.06-0.76,0.1-1.53,0.1-2.31c0-14.97-12.13-27.1-27.1-27.1c-1.97,0-3.89,0.21-5.74,0.61l-1.14-4.41
	C354.98,49.21,357.28,48.94,359.65,48.94L359.65,48.94z"/>
<path class="st1" d="M359.65,58.06c12.45,0,22.54,10.09,22.54,22.54c0,0.63-0.03,1.26-0.08,1.88l-4.54-0.43
	c0.04-0.48,0.06-0.96,0.06-1.44c0-9.93-8.05-17.99-17.99-17.99c-1.18,0-2.34,0.11-3.46,0.33l-1.14-4.42
	C356.53,58.22,358.07,58.06,359.65,58.06L359.65,58.06z"/>
<path class="st1" d="M359.65,67.17c7.42,0,13.43,6.01,13.43,13.43c0,0.34-0.01,0.68-0.04,1.01l-4.54-0.43
	c0.01-0.19,0.02-0.38,0.02-0.57c0-4.9-3.97-8.88-8.88-8.88c-0.39,0-0.78,0.03-1.16,0.08l-1.15-4.43
	C358.09,67.23,358.86,67.17,359.65,67.17L359.65,67.17z"/>
<path class="st1" d="M347.96,125.18c0.16,0.01,0.31,0.01,0.47,0.01c12.43-0.22,16.07-16.64,16.39-24.86
	c0.27-7.08-0.8-17.08-1.95-24.01h-1.51v1.65c0,7.38-6.02,13.42-13.4,13.45c-7.37-0.03-13.4-6.07-13.4-13.45v-1.65h-1.51
	c-1.15,6.93-2.22,16.93-1.95,24.01c0.32,8.22,3.96,24.64,16.39,24.86C347.65,125.19,347.81,125.19,347.96,125.18L347.96,125.18z"/>
<path class="st1" d="M346.84,89.16c-5.75-0.64-10.28-6.1-10.5-12.83c3.29-0.95,6.82-1.51,10.5-1.61v3.2
	c-0.88,0.66-1.49,2.08-1.49,3.73c0,1.64,0.61,3.06,1.49,3.73V89.16L346.84,89.16z"/>
<path class="st1" d="M359.59,76.33c-0.22,6.73-4.75,12.19-10.5,12.83v-3.78c0.88-0.66,1.49-2.08,1.49-3.73
	c0-1.64-0.61-3.06-1.49-3.73v-3.2C352.76,74.82,356.29,75.38,359.59,76.33L359.59,76.33z"/>
<path class="st1" d="M450.74,150.61c-14.22-0.51-26.17,10.61-26.67,24.84c-0.06,1.59,0.03,3.14,0.25,4.66l3.65-0.65
	c-0.18-1.26-0.25-2.56-0.2-3.88c0.43-12.18,10.66-21.7,22.84-21.26c3.13,0.11,6.08,0.87,8.74,2.14l1.81-3.24
	C458,151.67,454.48,150.75,450.74,150.61L450.74,150.61z"/>
<path class="st1" d="M450.47,158.03c-10.13-0.36-18.64,7.56-19,17.69c-0.04,1.05,0.02,2.09,0.15,3.1l3.66-0.65
	c-0.09-0.76-0.13-1.53-0.1-2.31c0.29-8.08,7.07-14.4,15.16-14.11c1.91,0.07,3.72,0.5,5.37,1.23l1.82-3.25
	C455.38,158.71,452.99,158.12,450.47,158.03L450.47,158.03z"/>
<path class="st1" d="M450.21,165.44c-6.04-0.22-11.1,4.5-11.32,10.54c-0.02,0.52,0,1.03,0.05,1.53l3.67-0.65
	c-0.02-0.25-0.02-0.5-0.01-0.75c0.14-3.99,3.49-7.11,7.48-6.97c0.69,0.02,1.36,0.15,1.98,0.35l1.83-3.28
	C452.75,165.76,451.51,165.48,450.21,165.44L450.21,165.44z"/>
<path class="st1" d="M461.49,216.95h-16.31c-1.95,0-3.55-1.5-3.55-3.34v-11.1c15.21-17.22,0.28-0.28,19.86-22.5v0
	c19.58,22.22,4.65,5.28,19.86,22.5v11.1c0,1.84-1.6,3.34-3.55,3.34H461.49L461.49,216.95z M461.49,197.99h-3.53
	c-0.53,0-0.96,0.4-0.96,0.89v9.27c0,0.49,0.43,0.89,0.96,0.89h3.53v0h3.53c0.53,0,0.96-0.4,0.96-0.89v-9.27
	c0-0.49-0.43-0.89-0.96-0.89H461.49L461.49,197.99z"/>
<path class="st1" d="M432.11,195.74l25.97-29.44c0.78-0.88,2.11-1.29,3.41-1.23c1.3-0.06,2.63,0.35,3.41,1.23l25.97,29.44
	c1.27,1.44,1.12,3.65-0.33,4.91l-0.33,0.29c-1.45,1.26-3.67,1.12-4.94-0.32c-7.85-8.9-15.69-17.79-23.54-26.69
	c-0.17-0.17-0.34-0.16-0.49,0l-23.54,26.69c-1.27,1.44-3.49,1.58-4.94,0.32l-0.33-0.29C430.99,199.39,430.84,197.18,432.11,195.74
	L432.11,195.74z"/>
<path class="st1" d="M644.09,310.84h-24.26c-1.08,0-1.97,0.99-1.97,2.21v0c0,1.21,0.89,2.21,1.97,2.21h24.26
	c1.08,0,1.97-0.99,1.97-2.21v0C646.06,311.84,645.17,310.84,644.09,310.84L644.09,310.84z"/>
<path class="st1" d="M638.47,270.31c-0.07,0.06-0.14,0.13-0.21,0.19c-5.41,5.12-6.14,13.35-2.13,19.51
	c-1.58,1.88-3.45,2.71-6.92,2.27c-1.23,12.87-7.82,9.85-7.74,15.67l0.02,1.37h20.46c-3.9-3.48-10.86-12.53-2.45-15.59
	c5.97,4.83,14.64,4.71,20.24-0.59c0.07-0.06,0.14-0.13,0.2-0.2l-9.63-10.15l4.08-3.86c0.26,0.07,0.54,0.11,0.82,0.11
	c1.76,0,3.19-1.43,3.19-3.19c0-1.76-1.43-3.19-3.19-3.19s-3.19,1.43-3.19,3.19c0,0.27,0.03,0.54,0.1,0.79l-4.03,3.81L638.47,270.31
	L638.47,270.31z"/>
<path class="st1" d="M684.69,275.57c-1.01-17.09-15.62-30.45-32.64-29.85c-1.89,0.07-3.72,0.3-5.5,0.69l1.34,4.29
	c1.43-0.3,2.91-0.48,4.42-0.53c14.57-0.51,27.08,10.93,27.95,25.55c0.19,3.14-0.18,6.18-1.02,9.01l4.15,1.73
	C684.44,283.06,684.91,279.38,684.69,275.57L684.69,275.57z"/>
<path class="st1" d="M675.82,275.89c-0.72-12.17-11.12-21.68-23.25-21.26c-1.14,0.04-2.26,0.17-3.34,0.38l1.34,4.3
	c0.74-0.12,1.49-0.2,2.26-0.23c9.67-0.34,17.98,7.25,18.55,16.96c0.11,1.81-0.06,3.56-0.47,5.22l4.17,1.74
	C675.7,280.76,675.96,278.36,675.82,275.89L675.82,275.89z"/>
<path class="st1" d="M666.95,276.2c-0.43-7.25-6.63-12.92-13.85-12.67c-0.4,0.01-0.79,0.05-1.18,0.1l1.36,4.36l0.08,0
	c4.77-0.17,8.87,3.58,9.15,8.37c0.03,0.47,0.02,0.93-0.03,1.39l4.24,1.77C666.93,278.45,667.01,277.34,666.95,276.2L666.95,276.2z"
	/>
<path class="st1" d="M264.48,197.46c3.52,0,6.38,2.86,6.38,6.38c0,3.52-2.86,6.38-6.38,6.38c-3.52,0-6.38-2.86-6.38-6.38
	C258.11,200.32,260.96,197.46,264.48,197.46L264.48,197.46z"/>
<path class="st1" d="M294.51,174.9c-8.02-7.95-18.74-12.39-30.03-12.44c-11.29,0.05-22.01,4.5-30.03,12.44
	c-2.83,2.45-6.16-1.1-3.14-4.09c8.94-8.63,20.75-13.42,33.17-13.47c12.42,0.05,24.23,4.85,33.17,13.47
	C300.67,173.8,297.34,177.34,294.51,174.9L294.51,174.9z"/>
<path class="st1" d="M264.48,170.87c9.05,0.05,17.64,3.61,24.08,9.98c1.86,2.46-1.39,5.37-3.69,3.55
	c-5.41-5.33-12.84-8.35-20.39-8.41c-7.55,0.05-14.98,3.08-20.39,8.41c-2.31,1.82-5.55-1.08-3.69-3.55
	C246.83,174.48,255.42,170.92,264.48,170.87L264.48,170.87z"/>
<path class="st1" d="M264.48,184.4c5.22,0.05,10.19,2.02,14.04,5.56c2.98,2.66-0.21,6.4-3.15,4.07c-3.21-2.88-6.56-4.47-10.89-4.52
	c-4.34,0.05-7.68,1.63-10.89,4.52c-2.93,2.33-6.13-1.41-3.15-4.07C254.28,186.42,259.25,184.45,264.48,184.4L264.48,184.4z"/>
<path class="st1" d="M280.13,290.42c-3.57-2.32-5.36-6.13-5.36-9.94c0-3.81,1.79-7.61,5.36-9.94l8.95,9.94L280.13,290.42
	L280.13,290.42z"/>
<path class="st1" d="M239.88,280.48c0,13.5,5.67,25.88,15.87,34.73c2.67,2.23,5.14-1.35,2.69-3.31c-9.03-7.32-14.3-19.92-14.3-31.42
	c0-11.49,5.27-24.1,14.3-31.42c2.45-1.96-0.02-5.54-2.69-3.31C245.55,254.6,239.88,266.99,239.88,280.48L239.88,280.48z"/>
<path class="st1" d="M266.93,303.28c-6.8-5.64-10.72-13.95-10.72-22.8c0-8.85,3.92-17.16,10.72-22.8c2.38-2.72-0.56-4.82-2.63-3.44
	c-7.89,6.45-12.42,16.04-12.42,26.24c0,10.2,4.53,19.79,12.42,26.24C266.37,308.1,269.3,306.01,266.93,303.28L266.93,303.28z"/>
<path class="st1" d="M263.49,280.48c0,6.44,2.85,12.5,7.81,16.62c2.58,1.92,4.49-1.31,2.46-3c-3.8-3.17-6.4-8.76-6.4-13.61
	c0-4.86,2.6-10.44,6.4-13.61c2.02-1.69,0.12-4.93-2.46-3C266.34,267.99,263.49,274.04,263.49,280.48L263.49,280.48z"/>
<path class="st1" d="M555.09-113.1c6.29,0,12.02,2.37,16.37,6.26l-2.24,2.38c-3.76-3.34-8.7-5.37-14.12-5.37
	c-5.42,0-10.37,2.03-14.12,5.37l-2.24-2.38C543.07-110.73,548.8-113.1,555.09-113.1L555.09-113.1z"/>
<path class="st1" d="M555.09-106.57c4.55,0,8.71,1.69,11.88,4.48l-2.24,2.38c-2.58-2.24-5.95-3.59-9.64-3.59s-7.05,1.35-9.64,3.59
	l-2.24-2.38C546.38-104.88,550.54-106.57,555.09-106.57L555.09-106.57z"/>
<path class="st1" d="M555.09-100.04c2.82,0,5.4,1.02,7.39,2.71l-2.25,2.38c-1.41-1.14-3.2-1.82-5.15-1.82
	c-1.95,0-3.74,0.68-5.15,1.82l-2.25-2.38C549.69-99.02,552.27-100.04,555.09-100.04L555.09-100.04z"/>
<path class="st1" d="M555.09-94.01c1.68,0,3.05,1.36,3.05,3.05c0,1.68-1.36,3.05-3.05,3.05c-1.68,0-3.05-1.36-3.05-3.05
	C552.04-92.65,553.41-94.01,555.09-94.01L555.09-94.01z"/>
<path class="st1" d="M586.85-100.99c3.74,1.23,6.44,4.66,6.44,8.66v0.13c0,5.04-4.28,9.15-9.51,9.15h-21.88h-4.64h-29.12
	c-6.74,0-12.25-5.31-12.25-11.79l0,0c0-5.7,4.25-10.49,9.86-11.56c0.24-6.74,5.78-12.13,12.58-12.13c1.8,0,3.5,0.38,5.05,1.05
	c1.26-6.92,7.31-12.16,14.59-12.16c8.19,0,14.83,6.64,14.83,14.83c0,0.16,0,0.33-0.01,0.49c0.49-0.06,0.99-0.09,1.5-0.09
	c6.96,0,12.59,5.64,12.59,12.59C586.88-101.54,586.87-101.26,586.85-100.99L586.85-100.99z M526.25-103.8
	c-4.31,0.83-7.71,4.5-7.71,8.96c0,5.19,4.51,9.14,9.6,9.14h55.65c3.62,0,6.86-2.8,6.86-6.5v-0.13c0-2.85-1.96-5.27-4.62-6.15
	l-1.95-0.64l0.14-2.05c0.01-0.22,0.02-0.44,0.02-0.66c0-5.49-4.45-9.94-9.94-9.94c-0.4,0-0.79,0.02-1.18,0.07l-3.05,0.36l0.09-3.07
	c0-0.14,0.01-0.27,0.01-0.41c0-6.73-5.45-12.18-12.18-12.18c-5.87,0-10.93,4.21-11.98,9.98l-0.6,3.3l-3.07-1.35
	c-1.26-0.55-2.61-0.83-3.98-0.83c-5.35,0-9.74,4.23-9.93,9.58l-0.08,2.11L526.25-103.8L526.25-103.8z"/>
<path class="st1" d="M381.12-117.64c26.52-7.64,36.54,31.31,7.22,33.56c-19.55,0-39.09-0.06-58.64-0.06
	c-19.04,0-15.98-18.64-2.91-19.39c0.32-6.73,6.71-14.69,18.47-10.86C349.3-132.32,373.35-133.16,381.12-117.64L381.12-117.64z
	 M388.24-86.72c6.86-0.55,13.52-3.64,15.01-10.96c1.02-4.99-0.84-10.38-4.44-13.93c-4.62-4.56-10.91-5.23-16.96-3.49l-2.11,0.61
	l-0.98-1.96c-2.02-4.04-5.44-7.02-9.7-8.51c-3.92-1.37-8.34-1.36-12.2,0.2c-4.82,1.95-7.89,5.92-9.03,10.95L347.2-111l-2.75-0.89
	c-3.71-1.21-7.86-1.39-11.12,1.07c-2.28,1.72-3.77,4.56-3.9,7.41l-0.11,2.37l-2.37,0.14c-2.34,0.13-4.59,1.01-6.2,2.76
	c-1.25,1.35-2.03,3.18-1.89,5.04c0.38,5.13,6.76,6.32,10.84,6.32C349.22-86.78,368.73-86.72,388.24-86.72L388.24-86.72z"/>
<path d="M385.21-103.71c0.36,0,0.64,0.11,0.86,0.33c0.22,0.22,0.32,0.5,0.32,0.83c0,0.46-0.18,0.86-0.53,1.18
	c-0.36,0.33-0.79,0.49-1.29,0.49c-0.31,0-0.55-0.1-0.74-0.31c-0.18-0.2-0.28-0.48-0.28-0.82c0-0.44,0.17-0.84,0.5-1.18
	C384.4-103.53,384.78-103.71,385.21-103.71L385.21-103.71z"/>
<path d="M386.53-100.77h0.12c-0.03,0.39-0.05,0.7-0.07,0.95c-0.02,0.25-0.02,0.45-0.02,0.62v6.52h0.64v1.13h-4.53v-1.13h0.64v-6.12
	l-0.64,0.11v-1.02L386.53-100.77L386.53-100.77z"/>
<path d="M372.58-103.99h9.19v2.6h-1.26l-0.02-0.51c-0.27-0.18-0.59-0.32-0.95-0.41c-0.36-0.09-0.77-0.14-1.22-0.14h-1.05v2.23v0.5
	v0.72h1.8v-0.91h1.26v3.35h-1.26v-0.79h-1.8v0.48v3.96h1.28v1.39h-5.98v-1.39h0.9v-9.65h-0.9V-103.99L372.58-103.99z"/>
<polygon points="364.63,-97.37 369.37,-97.37 369.37,-94.85 364.63,-94.85 364.63,-97.37 "/>
<path d="M359.29-103.71c0.36,0,0.64,0.11,0.86,0.33c0.22,0.22,0.32,0.5,0.32,0.83c0,0.46-0.18,0.86-0.53,1.18
	c-0.36,0.33-0.79,0.49-1.29,0.49c-0.31,0-0.55-0.1-0.74-0.31c-0.18-0.2-0.28-0.48-0.28-0.82c0-0.44,0.17-0.84,0.5-1.18
	C358.47-103.53,358.85-103.71,359.29-103.71L359.29-103.71z"/>
<path d="M360.61-100.77h0.12c-0.03,0.39-0.05,0.7-0.07,0.95c-0.02,0.25-0.02,0.45-0.02,0.62v6.52h0.64v1.13h-4.53v-1.13h0.64v-6.12
	l-0.64,0.11v-1.02L360.61-100.77L360.61-100.77z"/>
<path d="M352.83-91.54h-3.18c-0.39-1.66-0.99-3.3-1.52-4.92c-0.53,1.53-1.29,3.31-1.54,4.92h-3.22c-0.78-3.56-2.3-7.53-3.4-11.04
	h-0.69v-1.41h5.18v1.41h-0.72l2.12,7.92l1.52-4.28l-1.07-3.64h-0.7v-1.41h4.8v1.41h-0.45c0.69,2.62,1.4,5.26,2.11,7.92
	c0.92-2.7,1.78-5.29,2.76-7.92h-0.98v-1.41h3.45C355.67-99.93,354.13-95.72,352.83-91.54L352.83-91.54z"/>
<path d="M354.41-113.63l0.35-0.4h0.53l0.63-3.17c-1.21,0-2.29,0.67-2.29,1.98l0.01,0.11l-0.97,0.47c0.21-2.49,2.24-2.96,4.39-2.96
	h2.88l-0.45,1.42h-0.32c0.37-1.18-1.44-1.05-2.19-1.05l-0.63,3.2h2.17l-0.49,0.51c-0.53-0.07-1.04-0.11-1.52-0.11h-0.25
	c-0.32,1.62-0.5,3.15-1.7,4.41c-0.95,1-2.64,1.62-3.77,0.54l0.73-0.74c0.52,1.07,1.91,1.06,2.52,0.08c0.62-0.99,0.92-3.08,1.17-4.31
	H354.41L354.41-113.63z M360.02-110.15c0.31-1.31,2.27-7.53-0.88-3.91l0.09-0.44c2.25-2.43,2.99-1.43,2.39,1.59
	c0.19,0,1.78-3.68,3.58-2.67l-0.66,0.9c-1.26-0.84-2.64,1.86-3.09,2.66l-0.37,1.82L360.02-110.15L360.02-110.15z M369.75-111.58
	l-0.07,0.39c-1.06,0.74-1.96,1.1-2.71,1.1c-1.03,0-1.59-0.81-1.59-1.78c0-1.71,1.56-3.88,3.38-3.88c0.63,0,0.99,0.48,0.99,1.08
	c0,1.6-1.98,2.34-3.32,2.34l-0.01,0.22c0,0.97,0.36,1.45,1.07,1.45C368.11-110.66,368.86-110.96,369.75-111.58L369.75-111.58z
	 M366.44-112.64c1.09-0.09,2.39-0.55,2.39-1.84c0-1.32-1.2-0.71-1.72,0.03C366.74-113.92,366.51-113.31,366.44-112.64L366.44-112.64
	z M375.28-111.58l-0.08,0.39c-1.06,0.74-1.96,1.1-2.71,1.1c-1.03,0-1.59-0.81-1.59-1.78c0-1.71,1.56-3.88,3.38-3.88
	c0.63,0,0.99,0.48,0.99,1.08c0,1.6-1.98,2.34-3.32,2.34l-0.01,0.22c0,0.97,0.36,1.45,1.07,1.45
	C373.65-110.66,374.4-110.96,375.28-111.58L375.28-111.58z M371.98-112.64c1.09-0.09,2.39-0.55,2.39-1.84
	c0-0.51-0.19-0.76-0.56-0.76c-0.4,0-0.79,0.27-1.16,0.8C372.27-113.92,372.05-113.31,371.98-112.64L371.98-112.64z"/>
<path class="st1" d="M381-108.83c1.07-1.03,2.52-1.66,4.13-1.66c1.6,0,3.06,0.63,4.13,1.66c0.46,0.52,1.24,0.08,0.74-0.61
	c-1.25-1.24-2.97-2.01-4.87-2.01c-1.9,0-3.62,0.77-4.87,2.01C379.75-108.74,380.54-108.31,381-108.83L381-108.83z"/>
<path class="st1" d="M382.36-107.48c0.72-0.68,1.7-1.1,2.77-1.1c1.07,0,2.04,0.42,2.77,1.1c0.53,0.56,1.28,0.02,0.75-0.6
	c-0.9-0.9-2.15-1.45-3.52-1.45c-1.37,0-2.61,0.55-3.52,1.45C381.08-107.46,381.83-106.92,382.36-107.48L382.36-107.48z"/>
<path class="st1" d="M383.7-106.12c0.38-0.34,0.88-0.55,1.43-0.55c0.55,0,1.05,0.21,1.43,0.55c0.63,0.74,1.29-0.06,0.74-0.62
	c-0.56-0.55-1.32-0.89-2.17-0.89c-0.84,0-1.61,0.34-2.17,0.89C382.41-106.18,383.07-105.37,383.7-106.12L383.7-106.12z"/>
<path class="st1" d="M651.27,97.22c9.46,0,17.13-0.52,17.13-1.17c0-0.65-7.67-1.17-17.13-1.17c-9.46,0-17.13,0.52-17.13,1.17
	C634.14,96.7,641.81,97.22,651.27,97.22L651.27,97.22z"/>
<path class="st1" d="M651.09,115.48c-16.81-0.11-18.54-14.17-18.51-18.43c3.07,9.17,6.15,14.57,18.51,14.61l0.21,0l0.21,0
	c12.35-0.05,15.43-5.44,18.51-14.61c0.03,4.26-1.7,18.32-18.51,18.43c-0.07,0-0.14,0-0.21,0
	C651.23,115.48,651.16,115.48,651.09,115.48L651.09,115.48z"/>
<path class="st1" d="M668.95,106.63c1.96-0.65,9.71-3.64,4.89-9.06C683.33,99.12,676.85,106.84,668.95,106.63L668.95,106.63z"/>
<path class="st1" d="M651.3,120.74l-0.18,0c-11.55,0-20.78-3.99-20.95-5.65c-0.17-1.66,1.89-1.64,2.39-1.26
	c-6.27,1.24,7.69,4.49,18.63,4.54l0.12,0l0.12,0c10.94-0.05,24.9-3.3,18.63-4.54c0.49-0.37,2.55-0.4,2.39,1.26
	c-0.17,1.66-9.4,5.65-20.95,5.65L651.3,120.74L651.3,120.74z"/>
<path class="st1" d="M647.06,87.3c0,2.35,1.9,4.25,4.25,4.25c2.35,0,4.25-1.9,4.25-4.25c0-2.35-1.9-4.25-4.25-4.25
	C648.96,83.05,647.06,84.95,647.06,87.3L647.06,87.3L647.06,87.3z"/>
<path class="st1" d="M679.27,79.06c-7.73-28.43-48.21-28.44-55.95,0C627.07,44.82,675.54,44.87,679.27,79.06L679.27,79.06z"/>
<path class="st1" d="M669.36,79.47c-6.51-16.35-29.6-16.41-36.13,0C636.43,57.58,666.17,57.6,669.36,79.47L669.36,79.47z"/>
<path class="st1" d="M658.93,80.32c-2.2-9.38-13.19-9.82-15.49,0C647.33,75.56,655,75.35,658.93,80.32L658.93,80.32z"/>
<path class="st1" d="M525.88,202.82h57.26c1.12,0,2.03,0.92,2.03,2.03v4.63c0,1.12-0.92,2.03-2.03,2.03h-57.26
	c-1.12,0-2.03-0.92-2.03-2.03v-4.63C523.84,203.73,524.76,202.82,525.88,202.82L525.88,202.82z M580.22,204.48
	c1.5,0,2.71,1.21,2.71,2.71c0,1.5-1.21,2.71-2.71,2.71c-1.5,0-2.71-1.21-2.71-2.71C577.51,205.69,578.72,204.48,580.22,204.48
	L580.22,204.48z M541.59,205c1.2,0,2.18,0.98,2.18,2.18s-0.98,2.18-2.18,2.18c-1.2,0-2.18-0.98-2.18-2.18S540.39,205,541.59,205
	L541.59,205z M535.68,205.35c1.01,0,1.83,0.82,1.83,1.83c0,1.01-0.82,1.83-1.83,1.83c-1.01,0-1.83-0.82-1.83-1.83
	C533.85,206.17,534.67,205.35,535.68,205.35L535.68,205.35z M529.7,204.93c1.24,0,2.25,1.01,2.25,2.25c0,1.24-1.01,2.25-2.25,2.25
	c-1.24,0-2.25-1.01-2.25-2.25C527.44,205.94,528.45,204.93,529.7,204.93L529.7,204.93z"/>
<path class="st1" d="M583.65,213.28l-2.06,2.27v0.98c0,0.55-0.45,0.99-0.99,0.99h-52.19c-0.54,0-0.99-0.45-0.99-0.99v-0.98
	l-2.06-2.27H583.65L583.65,213.28z"/>
<path class="st1" d="M573.48,174.6c-1.33,0-2.4,1.08-2.4,2.4c0,1.12,0.76,2.06,1.8,2.33l-1.82,15.73l2.42,0.03l2.42-0.03
	l-1.82-15.73c1.03-0.27,1.8-1.21,1.8-2.33C575.88,175.68,574.8,174.6,573.48,174.6L573.48,174.6z"/>
<path class="st1" d="M573.98,150.03c-15.4,0-27.89,12.49-27.89,27.89c0,1.72,0.16,3.4,0.45,5.03l3.93-0.84
	c-0.24-1.36-0.37-2.76-0.37-4.19c0-13.19,10.69-23.88,23.87-23.88c3.39,0,6.61,0.71,9.53,1.98l1.84-3.58
	C581.88,150.9,578.03,150.03,573.98,150.03L573.98,150.03z"/>
<path class="st1" d="M573.98,158.06c-10.97,0-19.86,8.89-19.86,19.86c0,1.14,0.1,2.26,0.28,3.34l3.93-0.84
	c-0.13-0.81-0.2-1.65-0.2-2.5c0-8.75,7.1-15.85,15.85-15.85c2.07,0,4.05,0.4,5.86,1.12l1.84-3.58
	C579.31,158.61,576.71,158.06,573.98,158.06L573.98,158.06z"/>
<path class="st1" d="M573.98,166.09c-6.54,0-11.83,5.3-11.83,11.83c0,0.56,0.04,1.11,0.12,1.66l3.94-0.85
	c-0.03-0.27-0.04-0.54-0.04-0.81c0-4.32,3.5-7.82,7.82-7.82c0.75,0,1.47,0.11,2.16,0.3l1.86-3.62
	C576.74,166.33,575.39,166.09,573.98,166.09L573.98,166.09z"/>
<path class="st1" d="M583.65,201.04l-2.06-2.27v-0.98c0-0.55-0.45-0.99-0.99-0.99h-52.19c-0.54,0-0.99,0.45-0.99,0.99v0.98
	l-2.06,2.27H583.65L583.65,201.04z"/>
<path class="st1" d="M649.1-136.39c4.35-3.1,9.56-4.79,14.99-4.79c14.27,0,25.84,11.57,25.84,25.84c0,5.83-1.95,11.42-5.5,15.94
	l0.02,0.21l-2.46-0.99c3.57-4.21,5.55-9.56,5.55-15.15c0-12.95-10.5-23.46-23.46-23.46c-5.25,0-10.29,1.74-14.38,4.93
	c-1.16-0.23-2.35-0.35-3.54-0.35c-5.98,0-11.46,2.99-14.73,7.79c-0.08,0-0.15,0-0.23,0c-8.92,0-16.15,7.23-16.15,16.15
	c0,6.77,4.19,12.62,10.16,15l-1.93,1.76c-6.3-2.98-10.61-9.39-10.61-16.76c0-9.9,7.76-17.99,17.53-18.51
	c3.76-4.85,9.61-7.82,15.96-7.82C647.15-136.6,648.13-136.53,649.1-136.39L649.1-136.39z"/>
<path class="st1" d="M650.3-131.27c3.82-3.31,8.69-5.13,13.79-5.13c11.64,0,21.07,9.44,21.07,21.07c0,5.29-1.97,10.34-5.51,14.21
	l-2.38-0.96c3.4-3.38,5.51-8.07,5.51-13.25c0-10.32-8.37-18.69-18.69-18.69c-5.15,0-9.82,2.08-13.2,5.46
	c-1.47-0.57-3.06-0.88-4.73-0.88c-5.47,0-10.16,3.37-12.09,8.15c-0.92-0.24-1.87-0.36-2.86-0.36c-6.28,0-11.38,5.09-11.38,11.38
	c0,5.66,4.13,10.35,9.54,11.23l-2.14,1.95c-5.69-1.71-9.78-6.99-9.78-13.18c0-7.6,6.16-13.76,13.76-13.76c0.5,0,1.01,0.03,1.51,0.08
	c2.7-4.81,7.82-7.87,13.45-7.87C647.57-131.83,648.96-131.64,650.3-131.27L650.3-131.27z"/>
<path class="st1" d="M650.03-126.34c-1.23-0.48-2.54-0.72-3.86-0.72c-4.35,0-8.26,2.64-9.88,6.66l-0.78,1.94l-2.02-0.52
	c-0.74-0.19-1.5-0.29-2.27-0.29c-4.97,0-8.99,4.03-8.99,8.99c0,4.76,3.72,8.71,8.47,8.98l1.1,0.06l2.47-2.25l-3.43-0.2
	c-3.49-0.2-6.22-3.1-6.22-6.6c0-3.65,2.96-6.61,6.61-6.61c0.56,0,1.12,0.07,1.67,0.21l4.05,1.05l1.57-3.88
	c1.26-3.12,4.3-5.17,7.67-5.17c1.03,0,2.04,0.19,3,0.56l2.9,1.13l2.2-2.19c2.62-2.61,6.13-4.06,9.83-4.06
	c7.69,0,13.92,6.23,13.92,13.92c0,3.86-1.58,7.51-4.4,10.15l-1.21,1.14l2.44,0.98l0.41-0.38c3.3-3.09,5.15-7.37,5.15-11.89
	c0-9-7.3-16.3-16.3-16.3c-4.33,0-8.44,1.7-11.51,4.76l-1.1,1.1L650.03-126.34L650.03-126.34z"/>
<path class="st1" d="M653.52-118.37c4.96,0,8.98,4.27,8.98,9.53c0,5.26-4.02,9.53-8.98,9.53c-4.96,0-8.98-4.27-8.98-9.53
	C644.54-114.1,648.56-118.37,653.52-118.37L653.52-118.37z"/>
<path class="st1" d="M653.52-95.92h-0.16c-0.52,1.36-1.12,2.74-1.82,4.12c-4.34,8.61-11.31,15.8-18.82,20.19
	c5.94-0.82,12.96-1.29,20.47-1.29c7.8,0,15.06,0.51,21.14,1.38c-7.57-4.38-14.61-11.61-18.99-20.29
	C654.65-93.19,654.04-94.56,653.52-95.92L653.52-95.92z"/>
<path class="st1" d="M458.47-109.66c1.78,0,3.22,1.53,3.22,3.41c0,1.89-1.44,3.41-3.22,3.41c-1.78,0-3.22-1.53-3.22-3.41
	C455.26-108.13,456.7-109.66,458.47-109.66L458.47-109.66z"/>
<path class="st1" d="M447.16-93.36c-3.59-3.13-5.88-7.87-5.88-13.18c0-5.31,2.29-10.06,5.88-13.18l1.59,2.1
	c-3.01,2.63-4.93,6.62-4.93,11.08c0,4.46,1.92,8.45,4.93,11.08L447.16-93.36L447.16-93.36z"/>
<path class="st1" d="M469.79-119.27c3.59,3.13,5.88,7.87,5.88,13.18c0,5.31-2.29,10.06-5.88,13.18l-1.59-2.1
	c3.01-2.63,4.93-6.62,4.93-11.08c0-4.46-1.92-8.45-4.93-11.08L469.79-119.27L469.79-119.27z"/>
<path class="st1" d="M453.14-97.82c-2.28-2.01-3.73-5.04-3.73-8.42c0-3.39,1.45-6.42,3.73-8.42l1.46,1.93
	c-1.74,1.55-2.85,3.88-2.85,6.49c0,2.61,1.11,4.94,2.85,6.49L453.14-97.82L453.14-97.82z"/>
<path class="st1" d="M463.81-114.67c2.28,2.01,3.73,5.04,3.73,8.42c0,3.39-1.45,6.42-3.73,8.42l-1.46-1.93
	c1.74-1.55,2.85-3.88,2.85-6.49c0-2.61-1.11-4.94-2.85-6.49L463.81-114.67L463.81-114.67z"/>
<path class="st1" d="M458.74-100.36h-0.09c-0.29,1.35-0.62,2.73-1.01,4.11c-2.4,8.58-6.24,15.74-10.39,20.12
	c3.28-0.81,7.15-1.28,11.3-1.28c4.31,0,8.31,0.51,11.67,1.38c-4.18-4.37-8.07-11.57-10.48-20.21
	C459.36-97.64,459.02-99.01,458.74-100.36L458.74-100.36z"/>
<path class="st1" d="M435.15-121.49c0.72,0,1.43,0.06,2.13,0.17c2.87-5.54,8.66-9.32,15.32-9.32c1.68,0,3.31,0.24,4.85,0.69
	c3.8-4.11,9.24-6.69,15.29-6.69c11.49,0,20.81,9.32,20.81,20.81c0,8.74-5.39,16.22-13.03,19.31v-4.69
	c5.22-2.79,8.78-8.29,8.78-14.62c0-9.15-7.41-16.56-16.56-16.56c-4.64,0-9.02,1.92-12.17,5.33l-1.79,1.93l-2.53-0.74
	c-1.19-0.35-2.42-0.52-3.66-0.52c-4.87,0-9.31,2.71-11.55,7.03l-1.42,2.74l-3.05-0.5c-0.47-0.08-0.95-0.12-1.43-0.12
	c-4.79,0-8.67,3.88-8.67,8.67c0,4.76,3.84,8.63,8.59,8.67v4.25c-7.1-0.04-12.84-5.81-12.84-12.92
	C422.23-115.71,428.01-121.49,435.15-121.49L435.15-121.49z"/>
<path class="st1" d="M325.13,199.59c-6.81-15.35,0.12-33.32,15.48-40.13c1.71-0.76,3.46-1.35,5.21-1.77l0.89,4.29
	c-1.46,0.36-2.91,0.85-4.33,1.48c-13.15,5.83-19.08,21.21-13.25,34.35c1.5,3.38,3.63,6.28,6.19,8.63l-2.76,3.41
	C329.48,207.08,326.92,203.63,325.13,199.59L325.13,199.59z"/>
<path class="st1" d="M333.13,196.04c-4.85-10.94,0.09-23.73,11.02-28.58c1.14-0.5,2.29-0.9,3.46-1.2l0.9,4.29
	c-0.87,0.23-1.73,0.53-2.58,0.91c-8.73,3.87-12.66,14.08-8.8,22.8c0.91,2.06,2.18,3.86,3.7,5.35l-2.76,3.42
	C336.03,201.11,334.34,198.76,333.13,196.04L333.13,196.04z"/>
<path class="st1" d="M341.13,192.5c-2.89-6.52,0.05-14.14,6.57-17.03c0.56-0.25,1.13-0.45,1.7-0.62l0.9,4.3
	c-0.28,0.09-0.55,0.2-0.83,0.32c-4.31,1.91-6.25,6.95-4.34,11.25c0.33,0.75,0.76,1.42,1.25,2.02l-2.79,3.45
	C342.6,195.14,341.75,193.9,341.13,192.5L341.13,192.5z"/>
<path class="st1" d="M360.93,183.19c2.75,0,4.97,2.23,4.97,4.98c0,1.61-0.76,3.04-1.95,3.95l0.71,3.2h4.66L381,209.86h-6.85
	l-7.37-9.19h-11.19l-7.36,9.17h-6.85l11.64-14.52l0,0h4.66l0.77-2.84c-1.49-0.86-2.49-2.47-2.49-4.31
	C355.96,185.42,358.18,183.19,360.93,183.19L360.93,183.19L360.93,183.19z"/>
<path class="st1" d="M397.24,199.59c6.81-15.35-0.12-33.32-15.48-40.13c-1.71-0.76-3.46-1.35-5.21-1.77l-0.89,4.29
	c1.46,0.36,2.91,0.85,4.33,1.48c13.15,5.83,19.08,21.21,13.25,34.35c-1.5,3.38-3.63,6.28-6.19,8.63l2.76,3.41
	C392.89,207.08,395.45,203.63,397.24,199.59L397.24,199.59z"/>
<path class="st1" d="M389.24,196.04c4.85-10.94-0.09-23.73-11.02-28.58c-1.14-0.5-2.29-0.9-3.46-1.2l-0.9,4.29
	c0.87,0.23,1.73,0.53,2.58,0.91c8.73,3.87,12.66,14.08,8.8,22.8c-0.91,2.06-2.18,3.86-3.7,5.35l2.76,3.42
	C386.33,201.11,388.03,198.76,389.24,196.04L389.24,196.04z"/>
<path class="st1" d="M381.23,192.5c2.89-6.52-0.05-14.14-6.57-17.03c-0.56-0.25-1.13-0.45-1.7-0.62l-0.9,4.3
	c0.28,0.09,0.55,0.2,0.83,0.32c4.31,1.91,6.25,6.95,4.34,11.25c-0.33,0.75-0.76,1.42-1.25,2.02l2.79,3.45
	C379.77,195.14,380.61,193.9,381.23,192.5L381.23,192.5z"/>
<path class="st1" d="M247.72-186.31c-2.77-2.77-7.25-2.77-10.02,0c-2.77,2.77-2.77,7.26,0,10.02c2.77,2.77,7.25,2.77,10.02,0
	C250.49-179.05,250.49-183.54,247.72-186.31L247.72-186.31L247.72-186.31z"/>
<path class="st1" d="M293.28-181.31c-0.26-13.36-5.56-26.04-15.03-35.51c-9.47-9.47-22.14-14.77-35.51-15.03
	c-6.09-0.78-8.33,8.59-1.11,9.79l0.11,0.02l0.11,0c11.06,0.04,21.61,4.33,29.45,12.16c7.84,7.84,12.13,18.38,12.16,29.45l0,0.11
	l0.02,0.11C284.7-172.99,294.07-175.23,293.28-181.31L293.28-181.31z M241.97-224.59c-3.84-0.71-2.35-5.13,0.5-4.72l0.07,0.01
	l0.07,0c12.73,0.23,24.82,5.27,33.83,14.28c9.02,9.02,14.05,21.1,14.28,33.83l0,0.07l0.01,0.07c0.41,2.85-4.01,4.35-4.72,0.5
	c-0.07-11.7-4.62-22.86-12.91-31.15C264.83-219.97,253.67-224.53,241.97-224.59L241.97-224.59z"/>
<path class="st1" d="M261.44-200c5.08,5.09,7.88,11.9,8.07,19.06c0.06,2.45,1.26,4.81,3.85,5.3c2.97,0.57,5.56-1.71,5.96-4.6
	l0.01-0.1l0-0.1c-0.04-9.95-3.9-19.45-10.95-26.5c-7.05-7.05-16.55-10.91-26.5-10.95l-0.1,0l-0.1,0.01c-2.89,0.4-5.17,3-4.6,5.96
	c0.49,2.59,2.85,3.78,5.3,3.85C249.54-207.88,256.35-205.09,261.44-200L261.44-200z M241.95-215.34c9.25,0.06,18.07,3.65,24.62,10.2
	c6.55,6.55,10.14,15.38,10.2,24.62c-0.48,2.96-4.61,3.64-4.72-0.49c-0.21-7.82-3.27-15.25-8.81-20.8
	c-5.55-5.55-12.98-8.61-20.8-8.81C238.31-210.73,238.99-214.86,241.95-215.34L241.95-215.34z"/>
<path class="st1" d="M252.57-191.13c-3.06-2.98-6.47-4.18-10.7-4.4c-5.5-0.96-3.79-7.56,0.77-6.96c5.39,0.22,10.72,2.36,14.86,6.43
	c4.07,4.15,6.21,9.47,6.43,14.86c0.6,4.57-6,6.28-6.96,0.77C256.74-184.66,255.55-188.07,252.57-191.13L252.57-191.13z"/>
<path class="st1" d="M247.72-89.6c-2.77-2.77-7.25-2.77-10.02,0c-2.77,2.77-2.77,7.26,0,10.02c2.77,2.77,7.25,2.77,10.02,0
	C250.49-82.34,250.49-86.83,247.72-89.6L247.72-89.6L247.72-89.6z"/>
<path class="st1" d="M293.28-84.61c-0.26-13.36-5.56-26.04-15.03-35.51c-9.47-9.47-22.14-14.77-35.51-15.03
	c-6.09-0.78-8.33,8.59-1.11,9.79l0.11,0.02l0.11,0c11.06,0.04,21.61,4.33,29.45,12.16c7.84,7.84,12.13,18.38,12.16,29.45l0,0.11
	l0.02,0.11C284.7-76.28,294.07-78.52,293.28-84.61L293.28-84.61z M241.97-127.89c-3.84-0.71-2.35-5.13,0.5-4.72l0.07,0.01l0.07,0
	c12.73,0.23,24.82,5.27,33.83,14.28c9.02,9.02,14.05,21.1,14.28,33.83l0,0.07l0.01,0.07c0.41,2.85-4.01,4.35-4.72,0.5
	c-0.07-11.7-4.62-22.86-12.91-31.15C264.83-123.27,253.67-127.82,241.97-127.89L241.97-127.89z"/>
<path class="st1" d="M262.44-104.3c-5.57-5.49-12.77-8.31-20.03-8.48c-5.58-0.17-4.92-6.38-0.54-6.99
	c9.22,0.04,18.44,3.55,25.51,10.53c6.99,7.07,10.5,16.28,10.53,25.51c-0.61,4.37-6.82,5.03-6.99-0.54
	C270.75-91.53,267.93-98.73,262.44-104.3L262.44-104.3z"/>
<path class="st1" d="M252.57-94.43c-3.06-2.98-6.47-4.18-10.7-4.4c-5.5-0.96-3.79-7.56,0.77-6.96c5.39,0.22,10.72,2.36,14.86,6.43
	c4.07,4.15,6.21,9.47,6.43,14.86c0.6,4.57-6,6.28-6.96,0.77C256.74-87.96,255.55-91.37,252.57-94.43L252.57-94.43z"/>
<path class="st1" d="M249.43,102.1c-3.32-3.32-8.71-3.32-12.03,0c-3.32,3.32-3.32,8.71,0,12.03c3.32,3.32,8.71,3.32,12.03,0
	C252.75,110.81,252.75,105.42,249.43,102.1L249.43,102.1z M247.63,103.91c2.32,2.32,2.33,6.09,0,8.42c-2.33,2.33-6.09,2.33-8.42,0
	c-2.32-2.32-2.32-6.09,0-8.42C241.53,101.58,245.3,101.58,247.63,103.91L247.63,103.91z"/>
<path class="st1" d="M293.99,108.1c-0.26-13.36-5.56-26.04-15.03-35.51c-9.47-9.47-22.14-14.77-35.51-15.03
	c-6.09-0.78-8.33,8.59-1.11,9.79l0.11,0.02l0.11,0c11.06,0.04,21.61,4.33,29.45,12.16c7.84,7.84,12.13,18.38,12.16,29.45l0,0.11
	l0.02,0.11C285.41,116.42,294.78,114.18,293.99,108.1L293.99,108.1z M242.68,64.82c-3.84-0.71-2.35-5.13,0.5-4.72l0.07,0.01l0.07,0
	c12.73,0.23,24.82,5.27,33.83,14.28c9.02,9.02,14.05,21.1,14.28,33.83l0,0.07l0.01,0.07c0.41,2.85-4.01,4.35-4.72,0.5
	c-0.07-11.7-4.62-22.86-12.91-31.15C265.54,69.44,254.38,64.88,242.68,64.82L242.68,64.82z"/>
<path class="st1" d="M262.15,89.41c5.08,5.09,7.88,11.9,8.07,19.06c0.06,2.45,1.26,4.81,3.85,5.3c2.97,0.56,5.56-1.71,5.96-4.6
	l0.01-0.1l0-0.1c-0.04-9.95-3.9-19.45-10.95-26.5c-7.05-7.05-16.55-10.91-26.5-10.95l-0.1,0l-0.1,0.01c-2.89,0.4-5.17,3-4.6,5.96
	c0.49,2.59,2.85,3.78,5.3,3.85C250.25,81.53,257.06,84.32,262.15,89.41L262.15,89.41z M242.66,74.07
	c9.25,0.06,18.07,3.65,24.62,10.2c6.55,6.55,10.14,15.38,10.2,24.62c-0.48,2.96-4.61,3.64-4.72-0.49
	c-0.21-7.82-3.27-15.25-8.81-20.8c-5.55-5.55-12.98-8.61-20.8-8.81C239.02,78.68,239.7,74.55,242.66,74.07L242.66,74.07z"/>
<path class="st1" d="M266.05,108.09c-0.25-5.93-2.67-11.5-6.85-15.76c-4.24-4.15-9.81-6.57-15.74-6.83
	c-6.33-0.77-8.43,8.5-1.13,9.77l0.08,0.01l0.08,0c3.88,0.2,6.97,1.25,9.76,3.97c2.74,2.81,3.79,5.91,4,9.78l0,0.08l0.01,0.08
	C257.55,116.51,266.82,114.42,266.05,108.09L266.05,108.09z M242.71,92.75c-3.97-0.74-2.61-5.12,0.49-4.71l0.05,0.01l0.05,0
	c5.32,0.22,10.32,2.38,14.1,6.09c3.73,3.8,5.89,8.8,6.1,14.12l0,0.05l0.01,0.05c0.41,3.11-3.97,4.46-4.71,0.49
	c-0.25-4.47-1.55-8.11-4.74-11.38C250.82,94.3,247.17,93,242.71,92.75L242.71,92.75z"/>
<path class="st1" d="M247.72,7.11c-2.77-2.77-7.25-2.77-10.02,0c-2.77,2.77-2.77,7.25,0,10.02c2.77,2.77,7.25,2.77,10.02,0
	C250.49,14.36,250.49,9.87,247.72,7.11L247.72,7.11L247.72,7.11z"/>
<path class="st1" d="M293.28,12.1c-0.26-13.36-5.56-26.04-15.03-35.51c-9.47-9.47-22.14-14.77-35.51-15.03
	c-6.09-0.78-8.33,8.59-1.11,9.79l0.11,0.02l0.11,0c11.06,0.04,21.61,4.33,29.45,12.16c7.84,7.84,12.13,18.38,12.16,29.45l0,0.11
	l0.02,0.11C284.7,20.43,294.07,18.19,293.28,12.1L293.28,12.1z M241.97-31.18c-3.84-0.71-2.35-5.13,0.5-4.72l0.07,0.01l0.07,0
	c12.73,0.23,24.82,5.27,33.83,14.28c9.02,9.02,14.05,21.1,14.28,33.83l0,0.07l0.01,0.07c0.41,2.85-4.01,4.35-4.72,0.5
	c-0.07-11.7-4.62-22.86-12.91-31.15C264.83-26.56,253.67-31.12,241.97-31.18L241.97-31.18z"/>
<path class="st1" d="M261.44-6.59c5.08,5.09,7.88,11.9,8.07,19.06c0.06,2.45,1.26,4.81,3.85,5.3c2.97,0.57,5.56-1.71,5.96-4.6
	l0.01-0.1l0-0.1c-0.04-9.95-3.9-19.45-10.95-26.5c-7.05-7.05-16.55-10.91-26.5-10.95l-0.1,0l-0.1,0.01c-2.89,0.4-5.17,3-4.6,5.96
	c0.49,2.59,2.85,3.78,5.3,3.85C249.54-14.47,256.35-11.68,261.44-6.59L261.44-6.59z M241.95-21.93c9.25,0.06,18.07,3.65,24.62,10.2
	c6.55,6.55,10.14,15.38,10.2,24.62c-0.48,2.96-4.61,3.64-4.72-0.49c-0.21-7.82-3.27-15.25-8.81-20.8
	c-5.55-5.55-12.98-8.61-20.8-8.81C238.31-17.32,238.99-21.45,241.95-21.93L241.95-21.93z"/>
<path class="st1" d="M265.34,12.09c-0.25-5.93-2.67-11.5-6.85-15.76c-4.24-4.15-9.81-6.57-15.74-6.83c-6.33-0.77-8.43,8.5-1.13,9.77
	l0.08,0.01l0.08,0c3.88,0.2,6.97,1.25,9.76,3.97c2.74,2.81,3.79,5.91,4,9.78l0,0.08l0.01,0.08
	C256.84,20.51,266.11,18.42,265.34,12.09L265.34,12.09z M242-3.25c-3.97-0.74-2.61-5.12,0.49-4.71l0.05,0.01l0.05,0
	c5.32,0.22,10.32,2.38,14.1,6.09c3.73,3.8,5.89,8.8,6.1,14.12l0,0.05l0.01,0.05c0.41,3.11-3.97,4.46-4.71,0.49
	c-0.25-4.47-1.55-8.11-4.74-11.38C250.11-1.69,246.47-3,242-3.25L242-3.25z"/>
</svg>
